**ABCDEFGHIJKLMNOPQRSTUVWXYZabcdefghijklmnopqrstuvwxyz**************************
**PARASOLID !"#$%&'()*+,-./:;<=>?@[\]^_`{|}~0123456789**************************
**PART1;
;
;
FRU=ASCON Modeller Kernel;
APPL=Kompas 3D;
FORMAT=text;
GUISE=transmit;
KEY=155;
FILE=155.15-2.x_t;
DATE=Tue Nov 01 11:42:19 2016;
**PART2;
SCH=SCH_1000000_10004;
USFLD_SIZE=0;
**PART3;
**END_OF_HEADER*****************************************************************
T51 : TRANSMIT FILE created by modeller version 130000017 SCH_1000000_100040 10
 1 10 20 5 0 0 0 0 0 1e3 1e-8 0 0 0 1 0 1 2 11 2 1 4 1 3 9 1 10 0 0 0 12 3 445 2
2 23 0 0 0 0 1e3 1e-8 2 0 0 1 0 1 1 26 58 114 158 39 113 112 81 1 4 2 7 2 0 0 12
 0 8 70 5 0 1 0 0 4 1 20 4 6 6 1 T74 20 6 1 0 4 0 0 0 0 0 0 0 0 0 0 0 0 0 0 0 0
 0 0 0 80 1 7 0 27 8017 0 0 0 0 0 0 0 0 TTTTTTTTTTTTT3 84 4 8 Base100 9 3 2 0 0
 1 0 0 0 1 0 0 0 1 0 0 0 1 0 ?11 10 4 12 1 11 14 1 15 2 0 0 12 11 45 28 29 0 0 0
 0 1e3 1e-8 10 0 0 1 0 1 1 32 65 129 172 43 127 126 81 1 12 5 7 10 0 0 17 4 13 8
4 8 13 Isolator100 14 6 10 0 0 1 0 0 0 1 0 0 0 1 0 .0125 222044604925031e-33 1 1
 ?11 15 7 17 1 16 19 1 0 10 0 0 12 16 29 33 34 0 0 0 0 1e3 1e-8 15 0 0 1 0 1 1 3
7 72 140 177 47 139 138 81 1 17 8 7 15 0 0 20 12 18 84 3 18 Pin100 19 9 15 0 0 .
384132005375743 -.92327818258963 0 .92327818258963 .384132005375743 0 0 0 1 0 .0
125 0 1 3 ?81 1 20 10 7 1 0 0 0 17 21 84 8 21 155.15-281 1 22 1 7 3 0 0 0 0 25 7
0 23 0 3 0 0 4 3 20 4 24 24 1 T74 20 24 3 0 22 50 53 0 0 0 0 0 0 0 0 0 0 0 0 0 0
 0 0 0 84 4 25 Base13 26 2 0 3 0 41 0 0 40 0 79 13 27 SDL/TYSA_NAME81 1 28 1 7 1
1 0 0 0 0 31 70 29 0 11 0 0 4 3 20 4 30 30 1 T74 20 30 3 0 28 59 61 0 0 0 0 0 0
 0 0 0 0 0 0 0 0 0 0 0 84 8 31 Isolator13 32 2 0 11 0 45 0 0 44 0 81 1 33 1 7 16
 0 0 0 0 36 70 34 0 16 0 0 4 3 20 4 35 35 1 T74 20 35 3 0 33 66 68 0 0 0 0 0 0 0
 0 0 0 0 0 0 0 0 0 0 84 3 36 Pin13 37 2 0 16 0 49 0 0 48 0 13 38 3 0 0 0 0 0 0 3
9 41 19 39 4 0 3 40 0 38 V19 40 5 0 3 0 39 26 S14 41 6 50 ?56 0 57 26 58 -0 0 56
 0 38 13 42 3 0 0 0 0 0 0 43 45 19 43 4 0 11 44 0 42 V19 44 5 0 11 0 43 32 S14 4
5 6 59 ?63 0 64 32 65 -0 0 63 0 42 13 46 3 0 0 0 0 0 0 47 49 19 47 4 0 16 48 0 4
6 V19 48 5 0 16 0 47 37 S14 49 6 66 ?70 0 71 37 72 +0 0 70 0 46 81 1 50 7 51 41
 53 0 75 0 52 80 1 51 0 73 8001 0 0 0 0 3 5 0 0 FFFFTFTFFFFFF2 83 3 52 .50196078
4313725 .501960784313725 .501960784313725 81 1 53 8 54 41 0 50 77 0 55 80 1 54 0
 74 8015 0 0 0 0 3 5 0 0 FFFFTFFFFFFFF2 83 1 55 0 14 56 9 75 ?79 41 80 26 81 +0
 0 79 41 38 15 57 12 0 82 41 83 50 58 13 0 41 81 0 0 +0 0 0 0 0 1 1 0 0 81 1 59
 7 51 45 61 0 84 0 60 83 3 60 .6 .8 1 81 1 61 8 54 45 0 59 86 0 62 83 1 62 0 14
 63 9 84 ?88 45 89 32 90 +0 0 88 45 42 15 64 12 0 91 45 92 50 65 13 0 45 90 0 0
 +0 0 0 0 0 1 1 0 0 81 1 66 7 51 49 68 0 93 0 67 83 3 67 .564705882352941 .56470
5882352941 .564705882352941 81 1 68 8 54 49 0 66 95 0 69 83 1 69 0 14 70 9 93 ?9
7 49 98 37 99 +0 0 97 49 46 15 71 12 0 100 49 101 51 72 13 0 49 99 0 0 +0 0 0 0
 0 1 2e-4 1 0 0 79 15 73 SDL/TYSA_COLOUR79 21 74 SDL/TYSA_TRANSLUCENCY81 1 75 10
 51 56 77 0 102 50 76 83 3 76 .501960784313725 .501960784313725 .501960784313725
 81 1 77 11 54 56 0 75 104 53 78 83 1 78 0 14 79 14 102 ?106 56 107 26 108 +0 0
 106 56 38 15 80 17 0 109 56 110 51 81 18 0 56 108 58 0 +.005 306161699786838e-3
3 0 0 0 -1 2e-4 -1 0 0 17 82 57 111 196 112 149 113 0 188 -15 83 22 0 115 41 116
 81 1 84 10 51 63 86 0 117 59 85 83 3 85 .6 .8 1 81 1 86 11 54 63 0 84 119 61 87
 83 1 87 0 14 88 14 117 ?121 63 122 32 123 -0 0 121 63 42 15 89 17 0 124 63 125
 50 90 18 0 63 128 65 0 +0 0 .0012 0 0 1 1 0 0 17 91 64 91 91 126 241 127 0 241
 -15 92 22 0 130 45 0 81 1 93 10 51 70 95 0 131 66 94 83 3 94 .564705882352941 .
564705882352941 .564705882352941 81 1 95 11 54 70 0 93 133 68 96 83 1 96 0 14 97
 14 131 ?0 70 135 37 136 -0 0 0 70 46 15 98 17 0 137 70 0 50 99 18 0 70 136 72 0
 +0 0 .0012 0 0 1 1 0 0 17 100 71 100 100 138 137 139 0 137 -15 101 21 0 141 49
 0 81 1 102 15 51 79 104 0 142 75 103 83 3 103 .501960784313725 .501960784313725
 .501960784313725 81 1 104 16 54 79 0 102 144 77 105 83 1 105 0 14 106 23 142 ?1
46 79 147 26 148 +0 0 146 79 38 15 107 26 0 149 79 0 50 108 20 0 79 148 81 0 +.0
09675 -.014675 0 1 -605232313253918e-31 0 605232313253918e-31 1 0 17 109 80 109
 109 150 115 151 0 115 +15 110 29 0 153 56 0 17 111 57 154 82 155 188 156 0 223
 -18 112 33 0 82 0 150 158 ?3 16 113 19 0 ?149 0 151 114 0 0 3 30 114 21 0 113 1
52 0 0 +.009675 -.014675 0 605232313253918e-31 1 0 17 115 83 115 115 150 109 151
 0 0 -15 116 34 0 159 41 160 81 1 117 15 51 88 119 0 161 84 118 83 3 118 .6 .8 1
 81 1 119 16 54 88 0 117 163 86 120 83 1 120 0 14 121 23 161 ?0 88 165 32 128 +0
 0 0 88 42 15 122 26 0 166 88 167 51 123 27 0 88 0 128 0 +0 0 -.001 0 0 1 2e-4 1
 0 0 17 124 89 124 124 168 207 169 0 207 +15 125 30 0 171 63 0 18 126 31 0 91 0
 168 172 ?11 16 127 19 0 ?241 0 169 129 0 0 11 51 128 20 0 121 123 90 0 +0 0 0 0
 0 1 7e-4 1 0 0 31 129 21 0 127 170 0 0 +0 0 0 0 0 1 1 0 0 7e-4 17 130 92 130 13
0 173 212 174 0 212 +81 1 131 15 51 97 133 0 0 93 132 83 3 132 .564705882352941
 .564705882352941 .564705882352941 81 1 133 16 54 97 0 131 0 95 134 83 1 134 0 1
5 135 22 0 176 97 0 50 136 23 0 97 0 99 0 +0 0 0 0 0 1 1 0 0 17 137 98 137 137 1
38 100 139 0 0 +18 138 24 0 100 0 178 177 ?16 16 139 19 0 ?137 0 179 140 0 0 16
 31 140 20 0 139 180 0 0 +0 0 .0012 0 0 1 1 0 0 2e-4 17 141 101 141 141 178 176
 179 0 176 +81 1 142 24 51 106 144 0 181 102 143 83 3 143 .501960784313725 .5019
60784313725 .501960784313725 81 1 144 25 54 106 0 142 183 104 145 83 1 145 0 14
 146 35 181 ?185 106 186 26 187 +0 0 185 106 38 15 147 38 0 188 106 0 50 148 31
 0 106 194 108 0 +-.009675 -.014675 0 918013870491086e-31 -1 0 1 918013870491086
e-31 0 17 149 107 189 255 190 82 113 0 196 +18 150 39 0 109 112 155 191 ?3 16 15
1 27 0 ?109 113 156 152 0 0 3 31 152 28 0 151 157 114 0 +.005 306161699786838e-3
3 0 0 0 -1 -1 0 0 2e-4 17 153 110 153 153 192 546 193 0 546 -17 154 57 196 111 1
97 223 198 0 249 -18 155 46 0 111 150 190 200 ?3 16 156 30 0 ?188 151 193 157 0
 0 3 30 157 32 0 156 195 152 0 +-.009675 -.014675 0 1 918013870491086e-31 0 29 1
58 47 0 112 191 0 .009675 -.014675 0 17 159 116 159 159 201 303 202 0 303 +15 16
0 51 0 205 41 206 81 1 161 24 51 121 163 0 0 117 162 83 3 162 .6 .8 1 81 1 163 2
5 54 121 0 161 0 119 164 83 1 164 0 15 165 34 0 207 121 208 17 166 122 166 166 2
09 171 210 0 171 +15 167 37 0 212 88 0 18 168 38 0 124 126 173 213 ?11 16 169 28
 0 ?124 127 174 170 0 0 11 31 170 29 0 169 175 129 0 +0 0 .0012 0 0 1 1 0 0 7e-4
 17 171 125 171 171 209 166 210 0 0 -29 172 39 0 126 213 0 7e-4 0 0 18 173 40 0
 130 168 209 214 ?11 16 174 32 0 ?130 169 210 175 0 0 11 31 175 33 0 174 211 170
 0 +0 0 0 0 0 1 1 0 0 2e-4 17 176 135 176 176 178 141 179 0 0 -29 177 27 0 138 2
15 0 2e-4 0 .0012 18 178 28 0 141 138 0 215 ?16 16 179 25 0 ?141 139 0 180 0 0 1
6 31 180 26 0 179 0 140 0 +0 0 0 0 0 1 1 0 0 2e-4 81 1 181 36 51 146 183 0 216 1
42 182 83 3 182 .501960784313725 .501960784313725 .501960784313725 81 1 183 37 5
4 146 0 181 218 144 184 83 1 184 0 14 185 52 216 ?220 146 221 26 222 +0 0 220 14
6 38 15 186 55 0 223 146 0 50 187 44 0 146 203 194 0 +-.009675 .014675 0 -1 0 0
 0 -1 0 17 188 147 224 280 112 111 156 0 255 +17 189 107 225 149 226 332 227 0 3
04 +18 190 59 0 149 155 192 229 ?3 29 191 60 0 150 200 158 .0048 306161699786838
e-33 0 18 192 61 0 153 190 197 230 ?3 16 193 40 0 ?546 156 198 195 0 0 3 50 194
 41 0 518 187 148 0 +0 0 -.0025 0 0 -1 -1 0 0 31 195 42 0 193 199 157 0 +.005 30
6161699786838e-33 -.0025 0 0 -1 -1 0 0 2e-4 17 196 57 82 154 190 249 231 0 332 -
18 197 64 0 154 192 201 233 ?3 16 198 43 0 ?223 193 202 199 0 0 3 30 199 45 0 19
8 204 195 0 +-.009675 .014675 0 0 -1 0 29 200 65 0 155 229 191 -.009675 -.014675
 0 18 201 66 0 159 197 226 234 ?3 16 202 48 0 ?159 198 227 204 0 0 3 51 203 49 0
 220 222 187 0 +0 .0125 0 0 0 1 7e-4 1 0 0 31 204 50 0 202 228 199 0 +0 .0125 0
 0 0 1 1 0 0 7e-4 17 205 160 205 205 235 330 236 0 330 +15 206 70 0 239 41 240 1
7 207 165 207 207 168 124 169 0 0 -15 208 41 0 241 121 0 18 209 42 0 166 173 0 2
42 ?11 16 210 35 0 ?166 174 0 211 0 0 11 31 211 36 0 210 0 175 0 +0 0 .0012 0 0
 1 1 0 0 2e-4 17 212 167 212 212 173 130 174 0 0 -29 213 43 0 168 214 172 7e-4 0
 .0012 29 214 44 0 173 242 213 2e-4 -244929359829471e-34 0 29 215 29 0 178 0 177
 2e-4 0 0 81 1 216 53 51 185 218 0 243 181 217 83 3 217 .501960784313725 .501960
784313725 .501960784313725 81 1 218 54 54 185 0 216 245 183 219 83 1 219 0 14 22
0 71 243 ?247 185 248 26 203 -0 0 247 185 38 15 221 74 0 249 185 0 50 222 57 0 1
85 237 203 0 +.009675 .014675 0 0 1 0 -1 0 0 17 223 186 250 308 155 154 198 0 28
0 +17 224 147 251 188 252 255 253 0 225 +17 225 107 255 189 252 612 256 0 587 -1
8 226 80 0 189 201 235 259 ?3 16 227 56 0 ?189 202 231 228 0 0 3 30 228 58 0 227
 232 204 0 +.009675 .014675 0 0 0 1 29 229 81 0 190 230 200 .009675 .014675 0 29
 230 82 0 192 233 229 .0048 306161699786838e-33 -.0025 16 231 62 0 ?249 227 236
 232 0 0 3 30 232 63 0 231 238 228 0 +.009675 .014675 0 -1 0 0 29 233 83 0 197 2
34 230 -.009675 .014675 0 29 234 84 0 201 259 233 7e-4 .0125 0 18 235 85 0 205 2
26 252 260 ?3 16 236 67 0 ?205 231 253 238 0 0 3 51 237 68 0 247 257 222 0 +.002
5 .0125 0 0 0 1 7e-4 1 0 0 31 238 69 0 236 254 232 0 +.0025 .0125 0 0 0 1 1 0 0
 7e-4 17 239 206 239 239 261 354 262 0 354 +15 240 89 0 265 41 266 17 241 208 24
1 241 126 91 127 0 0 +29 242 45 0 209 0 214 2e-4 0 .0012 81 1 243 72 51 220 245
 0 267 216 244 83 3 244 .501960784313725 .501960784313725 .501960784313725 81 1
 245 73 54 220 0 243 269 218 246 83 1 246 0 14 247 90 267 ?271 220 272 26 237 -0
 0 271 220 38 15 248 93 0 273 220 274 17 249 221 275 332 197 196 231 0 308 +17 2
50 186 276 223 277 280 278 0 251 +17 251 147 280 224 277 587 281 0 570 -18 252 9
8 0 224 235 261 283 ?3 16 253 75 0 ?224 236 256 254 0 0 3 30 254 76 0 253 258 23
8 0 +.009675 -.014675 0 0 0 1 17 255 107 149 225 112 224 253 0 0 -16 256 77 0 ?6
12 253 262 258 0 0 3 50 257 78 0 531 263 237 0 +0 0 4e-4 0 0 1 1 0 0 30 258 79 0
 256 264 254 0 +.009675 -.014675 4e-4 605232313253918e-31 1 0 29 259 99 0 226 26
0 234 .009675 .014675 4e-4 29 260 100 0 235 283 259 .0032 .0125 0 18 261 101 0 2
39 252 277 284 ?3 16 262 86 0 ?239 256 278 264 0 0 3 51 263 87 0 271 287 257 0 +
.005 .0125 0 0 0 1 7e-4 1 0 0 31 264 88 0 262 279 258 0 +.005 .0125 0 0 0 1 1 0
 0 7e-4 17 265 240 265 265 285 374 286 0 374 +15 266 105 0 289 41 290 81 1 267 9
1 51 247 269 0 291 243 268 83 3 268 .501960784313725 .501960784313725 .501960784
313725 81 1 269 92 54 247 0 267 293 245 270 83 1 270 0 14 271 106 291 ?295 247 2
96 26 263 -0 0 295 247 38 15 272 109 0 297 247 298 17 273 248 273 273 299 774 30
0 0 774 +15 274 113 0 303 220 0 17 275 221 304 249 305 308 306 0 276 +17 276 186
 308 250 305 570 309 0 558 -18 277 118 0 250 261 285 311 ?3 16 278 94 0 ?250 262
 281 279 0 0 3 30 279 95 0 278 282 264 0 +-.009675 -.014675 0 0 0 1 17 280 147 1
88 251 155 250 278 0 0 -16 281 96 0 ?587 278 286 282 0 0 3 30 282 97 0 281 288 2
79 0 +-.009675 -.014675 4e-4 1 918013870491086e-31 0 29 283 119 0 252 284 260 .0
09675 -.014675 4e-4 29 284 120 0 261 311 283 .0057 .0125 0 18 285 121 0 265 277
 299 312 ?3 16 286 102 0 ?265 281 300 288 0 0 3 51 287 103 0 295 301 263 0 +.007
5 .0125 0 0 0 1 7e-4 1 0 0 31 288 104 0 286 302 282 0 +.0075 .0125 0 0 0 1 1 0 0
 7e-4 17 289 266 289 289 313 394 314 0 394 +15 290 125 0 317 41 318 81 1 291 107
 51 271 293 0 319 267 292 83 3 292 .501960784313725 .501960784313725 .5019607843
13725 81 1 293 108 54 271 0 291 321 269 294 83 1 294 0 14 295 126 319 ?323 271 3
24 26 287 -0 0 323 271 38 15 296 129 0 325 271 326 17 297 272 297 297 327 772 32
8 0 772 +15 298 132 0 330 247 0 18 299 133 0 273 285 305 331 ?3 16 300 110 0 ?27
3 286 306 302 0 0 3 50 301 111 0 544 315 287 0 +0 0 .0012 0 0 -1 -1 0 0 31 302 1
12 0 300 307 288 0 +0 .0125 .0012 0 0 1 1 0 0 7e-4 17 303 274 303 303 201 159 20
2 0 0 -17 304 221 332 275 226 558 333 0 612 -18 305 136 0 275 299 313 335 ?3 16
 306 114 0 ?275 300 309 307 0 0 3 30 307 115 0 306 310 302 0 +-.009675 .014675 0
 0 0 1 17 308 186 223 276 197 275 306 0 0 -16 309 116 0 ?570 306 314 310 0 0 3 3
0 310 117 0 309 316 307 0 +-.009675 .014675 4e-4 0 -1 0 29 311 137 0 277 312 284
 -.009675 -.014675 4e-4 29 312 138 0 285 331 311 .0082 .0125 0 18 313 139 0 289
 305 327 336 ?3 16 314 122 0 ?289 309 328 316 0 0 3 51 315 123 0 323 339 301 0 +
.0025 -.0125 0 0 0 1 7e-4 1 0 0 31 316 124 0 314 329 310 0 +.0025 -.0125 0 0 0 1
 1 0 0 7e-4 17 317 290 317 317 337 414 338 0 414 +15 318 143 0 341 41 342 81 1 3
19 127 51 295 321 0 343 291 320 83 3 320 .501960784313725 .501960784313725 .5019
60784313725 81 1 321 128 54 295 0 319 345 293 322 83 1 322 0 14 323 144 343 ?347
 295 348 26 315 -0 0 347 295 38 15 324 147 0 349 295 350 17 325 296 325 325 351
 770 352 0 770 +15 326 150 0 354 271 0 18 327 151 0 297 313 337 355 ?3 16 328 13
0 0 ?297 314 333 329 0 0 3 31 329 131 0 328 334 316 0 +.0025 .0125 .0012 0 0 1 1
 0 0 7e-4 17 330 298 330 330 235 205 236 0 0 -29 331 152 0 299 335 312 7e-4 .012
5 .0012 17 332 221 249 304 190 189 227 0 0 -16 333 134 0 ?558 328 338 334 0 0 3
 30 334 135 0 333 340 329 0 +.009675 .014675 4e-4 -1 0 0 29 335 153 0 305 336 33
1 -.009675 .014675 4e-4 29 336 154 0 313 355 335 .0032 -.0125 0 18 337 155 0 317
 327 351 356 ?3 16 338 140 0 ?317 333 352 340 0 0 3 51 339 141 0 347 359 315 0 +
.005 -.0125 0 0 0 1 7e-4 1 0 0 31 340 142 0 338 353 334 0 +.005 -.0125 0 0 0 1 1
 0 0 7e-4 17 341 318 341 341 357 434 358 0 434 +15 342 159 0 361 41 362 81 1 343
 145 51 323 345 0 363 319 344 83 3 344 .501960784313725 .501960784313725 .501960
784313725 81 1 345 146 54 323 0 343 365 321 346 83 1 346 0 14 347 160 363 ?367 3
23 368 26 339 -0 0 367 323 38 15 348 163 0 369 323 370 17 349 324 349 349 371 76
8 372 0 768 +15 350 166 0 374 295 0 18 351 167 0 325 337 357 375 ?3 16 352 148 0
 ?325 338 358 353 0 0 3 31 353 149 0 352 360 340 0 +.005 .0125 .0012 0 0 1 1 0 0
 7e-4 17 354 326 354 354 261 239 262 0 0 -29 355 168 0 327 356 336 .0032 .0125 .
0012 29 356 169 0 337 375 355 .0057 -.0125 0 18 357 170 0 341 351 371 376 ?3 16
 358 156 0 ?341 352 372 360 0 0 3 51 359 157 0 367 379 339 0 +.0075 -.0125 0 0 0
 1 7e-4 1 0 0 31 360 158 0 358 373 353 0 +.0075 -.0125 0 0 0 1 1 0 0 7e-4 17 361
 342 361 361 377 454 378 0 454 +15 362 174 0 381 41 382 81 1 363 161 51 347 365
 0 383 343 364 83 3 364 .501960784313725 .501960784313725 .501960784313725 81 1
 365 162 54 347 0 363 385 345 366 83 1 366 0 14 367 175 383 ?387 347 388 26 359
 -0 0 387 347 38 15 368 178 0 389 347 390 17 369 348 369 369 391 765 392 0 765 +
15 370 181 0 394 323 0 18 371 182 0 349 357 377 395 ?3 16 372 164 0 ?349 358 378
 373 0 0 3 31 373 165 0 372 380 360 0 +.0075 .0125 .0012 0 0 1 1 0 0 7e-4 17 374
 350 374 374 285 265 286 0 0 -29 375 183 0 351 376 356 .0057 .0125 .0012 29 376
 184 0 357 395 375 .0082 -.0125 0 18 377 185 0 361 371 391 396 ?3 16 378 171 0 ?
361 372 392 380 0 0 3 51 379 172 0 387 399 359 0 +0 -.0125 0 0 0 1 7e-4 1 0 0 31
 380 173 0 378 393 373 0 +0 -.0125 0 0 0 1 1 0 0 7e-4 17 381 362 381 381 397 474
 398 0 474 +15 382 189 0 401 41 402 81 1 383 176 51 367 385 0 403 363 384 83 3 3
84 .501960784313725 .501960784313725 .501960784313725 81 1 385 177 54 367 0 383
 405 365 386 83 1 386 0 14 387 190 403 ?407 367 408 26 379 -0 0 407 367 38 15 38
8 193 0 409 367 410 17 389 368 389 389 411 761 412 0 761 +15 390 196 0 414 347 0
 18 391 197 0 369 377 397 415 ?3 16 392 179 0 ?369 378 398 393 0 0 3 31 393 180
 0 392 400 380 0 +.0025 -.0125 .0012 0 0 1 1 0 0 7e-4 17 394 370 394 394 313 289
 314 0 0 -29 395 198 0 371 396 376 .0082 .0125 .0012 29 396 199 0 377 415 395 7e
-4 -.0125 0 18 397 200 0 381 391 411 416 ?3 16 398 186 0 ?381 392 412 400 0 0 3
 51 399 187 0 407 419 379 0 +-.0075 -.0125 0 0 0 1 7e-4 1 0 0 31 400 188 0 398 4
13 393 0 +-.0075 -.0125 0 0 0 1 1 0 0 7e-4 17 401 382 401 401 417 493 418 0 493
 +15 402 204 0 421 41 422 81 1 403 191 51 387 405 0 423 383 404 83 3 404 .501960
784313725 .501960784313725 .501960784313725 81 1 405 192 54 387 0 403 425 385 40
6 83 1 406 0 14 407 205 423 ?427 387 428 26 399 -0 0 427 387 38 15 408 208 0 429
 387 430 17 409 388 409 409 431 756 432 0 756 +15 410 211 0 434 367 0 18 411 212
 0 389 397 417 435 ?3 16 412 194 0 ?389 398 418 413 0 0 3 31 413 195 0 412 420 4
00 0 +.005 -.0125 .0012 0 0 1 1 0 0 7e-4 17 414 390 414 414 337 317 338 0 0 -29
 415 213 0 391 416 396 .0032 -.0125 .0012 29 416 214 0 397 435 415 -.0068 -.0125
 0 18 417 215 0 401 411 431 436 ?3 16 418 201 0 ?401 412 432 420 0 0 3 51 419 20
2 0 427 439 399 0 +-.005 -.0125 0 0 0 1 7e-4 1 0 0 31 420 203 0 418 433 413 0 +-
.005 -.0125 0 0 0 1 1 0 0 7e-4 17 421 402 421 421 437 511 438 0 511 +15 422 219
 0 441 41 442 81 1 423 206 51 407 425 0 443 403 424 83 3 424 .501960784313725 .5
01960784313725 .501960784313725 81 1 425 207 54 407 0 423 445 405 426 83 1 426 0
 14 427 220 443 ?447 407 448 26 419 -0 0 447 407 38 15 428 223 0 449 407 450 17
 429 408 429 429 451 747 452 0 747 +15 430 226 0 454 387 0 18 431 227 0 409 417
 437 455 ?3 16 432 209 0 ?409 418 438 433 0 0 3 31 433 210 0 432 440 420 0 +.007
5 -.0125 .0012 0 0 1 1 0 0 7e-4 17 434 410 434 434 357 341 358 0 0 -29 435 228 0
 411 436 416 .0057 -.0125 .0012 29 436 229 0 417 455 435 -.0043 -.0125 0 18 437
 230 0 421 431 451 456 ?3 16 438 216 0 ?421 432 452 440 0 0 3 51 439 217 0 447 4
59 419 0 +-.0025 -.0125 0 0 0 1 7e-4 1 0 0 31 440 218 0 438 453 433 0 +-.0025 -.
0125 0 0 0 1 1 0 0 7e-4 17 441 422 441 441 457 525 458 0 525 +15 442 234 0 461 4
1 462 81 1 443 221 51 427 445 0 463 423 444 83 3 444 .501960784313725 .501960784
313725 .501960784313725 81 1 445 222 54 427 0 443 465 425 446 83 1 446 0 14 447
 235 463 ?467 427 468 26 439 -0 0 467 427 38 15 448 238 0 469 427 470 17 449 428
 449 449 471 731 472 0 731 +15 450 241 0 474 407 0 18 451 242 0 429 437 457 475
 ?3 16 452 224 0 ?429 438 458 453 0 0 3 31 453 225 0 452 460 440 0 +0 -.0125 .00
12 0 0 1 1 0 0 7e-4 17 454 430 454 454 377 361 378 0 0 -29 455 243 0 431 456 436
 .0082 -.0125 .0012 29 456 244 0 437 475 455 -.0018 -.0125 0 18 457 245 0 441 45
1 471 476 ?3 16 458 231 0 ?441 452 472 460 0 0 3 51 459 232 0 467 479 439 0 +-.0
075 .0125 0 0 0 1 7e-4 1 0 0 31 460 233 0 458 473 453 0 +-.0075 .0125 0 0 0 1 1
 0 0 7e-4 17 461 442 461 461 477 538 478 0 538 +15 462 249 0 481 41 0 81 1 463 2
36 51 447 465 0 482 443 464 83 3 464 .501960784313725 .501960784313725 .50196078
4313725 81 1 465 237 54 447 0 463 484 445 466 83 1 466 0 14 467 250 482 ?486 447
 487 26 459 -0 0 486 447 38 15 468 253 0 488 447 489 17 469 448 469 469 490 705
 491 0 705 +15 470 256 0 493 427 0 18 471 257 0 449 457 477 494 ?3 16 472 239 0
 ?449 458 478 473 0 0 3 31 473 240 0 472 480 460 0 +-.0075 -.0125 .0012 0 0 1 1
 0 0 7e-4 17 474 450 474 474 397 381 398 0 0 -29 475 258 0 451 476 456 7e-4 -.01
25 .0012 29 476 259 0 457 494 475 -.0068 .0125 0 18 477 260 0 461 471 490 495 ?3
 16 478 246 0 ?461 472 491 480 0 0 3 51 479 247 0 486 498 459 0 +-.005 .0125 0 0
 0 1 7e-4 1 0 0 31 480 248 0 478 492 473 0 +-.005 .0125 0 0 0 1 1 0 0 7e-4 17 48
1 462 481 481 496 550 497 0 550 +81 1 482 251 51 467 484 0 500 463 483 83 3 483
 .501960784313725 .501960784313725 .501960784313725 81 1 484 252 54 467 0 482 50
2 465 485 83 1 485 0 14 486 264 500 ?504 467 505 26 479 -0 0 504 467 38 15 487 2
67 0 506 467 507 17 488 468 488 488 508 674 509 0 674 +15 489 270 0 511 447 0 18
 490 271 0 469 477 496 512 ?3 16 491 254 0 ?469 478 497 492 0 0 3 31 492 255 0 4
91 499 480 0 +-.005 -.0125 .0012 0 0 1 1 0 0 7e-4 17 493 470 493 493 417 401 418
 0 0 -29 494 272 0 471 495 476 -.0068 -.0125 .0012 29 495 273 0 477 512 494 -.00
43 .0125 0 18 496 274 0 481 490 508 513 ?3 16 497 261 0 ?481 491 509 499 0 0 3 5
1 498 262 0 504 567 479 0 +-.0025 .0125 0 0 0 1 7e-4 1 0 0 31 499 263 0 497 510
 492 0 +-.0025 .0125 0 0 0 1 1 0 0 7e-4 81 1 500 265 51 486 502 0 514 482 501 83
 3 501 .501960784313725 .501960784313725 .501960784313725 81 1 502 266 54 486 0
 500 516 484 503 83 1 503 0 14 504 275 514 ?518 486 519 26 498 -0 0 518 486 38 1
5 505 278 0 520 486 521 17 506 487 506 506 522 641 523 0 641 +15 507 281 0 525 4
67 0 18 508 282 0 488 496 522 526 ?3 16 509 268 0 ?488 497 523 510 0 0 3 31 510
 269 0 509 524 499 0 +-.0025 -.0125 .0012 0 0 1 1 0 0 7e-4 17 511 489 511 511 43
7 421 438 0 0 -29 512 283 0 490 513 495 -.0043 -.0125 .0012 29 513 284 0 496 526
 512 -.0018 .0125 0 81 1 514 276 51 504 516 0 527 500 515 83 3 515 .501960784313
725 .501960784313725 .501960784313725 81 1 516 277 54 504 0 514 529 502 517 83 1
 517 0 14 518 285 527 ?531 504 532 26 194 +0 0 531 504 38 15 519 288 0 533 504 5
34 17 520 505 520 520 535 610 536 0 610 +15 521 291 0 538 486 0 18 522 292 0 506
 508 535 539 ?3 16 523 279 0 ?506 509 536 524 0 0 3 31 524 280 0 523 537 510 0 +
-.0075 .0125 .0012 0 0 1 1 0 0 7e-4 17 525 507 525 525 457 441 458 0 0 -29 526 2
93 0 508 539 513 -.0018 -.0125 .0012 81 1 527 286 51 518 529 0 540 514 528 83 3
 528 .501960784313725 .501960784313725 .501960784313725 81 1 529 287 54 518 0 52
7 542 516 530 83 1 530 0 14 531 294 540 ?544 518 545 26 257 +0 0 544 518 38 15 5
32 297 0 546 518 0 17 533 519 533 533 547 585 548 0 585 +15 534 300 0 550 504 0
 18 535 301 0 520 522 547 551 ?3 16 536 289 0 ?520 523 548 537 0 0 3 31 537 290
 0 536 549 524 0 +-.005 .0125 .0012 0 0 1 1 0 0 7e-4 17 538 521 538 538 477 461
 478 0 0 -29 539 302 0 522 551 526 -.0068 .0125 .0012 81 1 540 295 51 531 542 0
 552 527 541 83 3 541 .501960784313725 .501960784313725 .501960784313725 81 1 54
2 296 54 531 0 540 554 529 543 83 1 543 0 14 544 303 552 ?556 531 557 26 301 -0
 0 556 531 38 15 545 306 0 558 531 559 17 546 532 546 546 192 153 193 0 0 +18 54
7 307 0 533 535 581 560 ?3 16 548 298 0 ?533 536 582 549 0 0 3 31 549 299 0 548
 584 537 0 +-.0025 .0125 .0012 0 0 1 1 0 0 7e-4 17 550 534 550 550 496 481 497 0
 0 -29 551 308 0 535 560 539 -.0043 .0125 .0012 81 1 552 304 51 544 554 0 561 54
0 553 83 3 553 .501960784313725 .501960784313725 .501960784313725 81 1 554 305 5
4 544 0 552 563 542 555 83 1 555 0 14 556 309 561 ?565 544 566 26 567 +0 0 565 5
44 38 15 557 312 0 568 544 569 17 558 545 570 612 305 304 333 0 0 +15 559 313 0
 571 531 0 29 560 314 0 547 609 551 -.0018 .0125 .0012 81 1 561 310 51 556 563 0
 572 552 562 83 3 562 .501960784313725 .501960784313725 .501960784313725 81 1 56
3 311 54 556 0 561 574 554 564 83 1 564 0 14 565 315 572 ?576 556 577 26 578 +0
 0 576 556 38 15 566 318 0 579 556 0 50 567 319 0 556 583 498 0 +-.0085 .0135 .0
012 0 1 0 1 0 0 17 568 557 580 746 581 758 582 0 725 +15 569 323 0 585 544 586 1
7 570 545 587 558 277 276 309 0 0 +17 571 559 588 749 589 767 590 0 745 +81 1 57
2 316 51 565 574 0 592 561 573 83 3 573 .501960784313725 .501960784313725 .50196
0784313725 81 1 574 317 54 565 0 572 594 563 575 83 1 575 0 14 576 326 592 ?596
 565 597 26 598 +0 0 596 565 38 15 577 329 0 599 565 0 50 578 330 0 565 603 583
 0 +.0085 .0135 .0012 1 0 0 0 -1 0 17 579 566 600 664 601 716 602 0 643 +17 580
 557 605 568 606 725 607 0 688 -18 581 337 0 568 547 589 609 ?3 16 582 320 0 ?56
8 548 590 584 0 0 3 51 583 321 0 714 578 567 0 --.0075 -.0125 .0052 0 0 1 .001 -
1 0 0 31 584 322 0 582 591 549 0 +-.0075 -.0125 .0012 0 0 1 -1 0 0 .001 17 585 5
69 585 585 547 533 548 0 0 -15 586 338 0 610 544 611 17 587 545 612 570 252 251
 281 0 0 +17 588 559 613 571 614 745 615 0 721 -18 589 342 0 571 581 601 618 ?3
 16 590 324 0 ?571 582 602 591 0 0 3 31 591 325 0 590 604 584 0 +-.0075 -.0125 4
e-4 0 0 -1 -177635683940025e-29 -1 0 .001 81 1 592 327 51 576 594 0 619 572 593
 83 3 593 .501960784313725 .501960784313725 .501960784313725 81 1 594 328 54 576
 0 592 621 574 595 83 1 595 0 14 596 343 619 ?623 576 624 26 616 +0 0 623 576 38
 15 597 346 0 625 576 0 50 598 335 0 576 616 603 0 +.0085 -.0135 .0012 0 -1 0 -1
 0 0 17 599 577 626 693 627 739 628 0 707 +17 600 566 631 579 632 643 633 0 613
 +18 601 352 0 579 589 606 635 ?3 16 602 331 0 ?579 590 607 604 0 0 3 51 603 332
 0 652 598 578 0 -.0075 .0125 .0052 0 0 1 .001 1 0 0 30 604 333 0 602 608 591 0
 +.0075 .0135 .0012 0 0 -1 17 605 557 636 580 637 753 638 0 693 +18 606 355 0 58
0 601 614 640 ?3 16 607 334 0 ?725 602 615 608 0 0 3 30 608 336 0 607 617 604 0
 +.0075 -.0135 .0012 -1 0 0 29 609 356 0 581 618 560 -.0075 -.0135 .0012 17 610
 586 610 610 535 520 536 0 0 -15 611 357 0 641 544 642 17 612 545 558 587 226 22
5 256 0 0 +17 613 559 643 588 632 755 644 0 741 +18 614 361 0 588 606 627 647 ?3
 16 615 339 0 ?745 607 628 617 0 0 3 50 616 340 0 596 629 598 0 +-.0085 -.0135 .
0012 -1 0 0 0 1 0 30 617 341 0 615 630 608 0 +-.0085 .0125 4e-4 0 -1 0 29 618 36
2 0 589 635 609 -.0085 -.0125 4e-4 81 1 619 344 51 596 621 0 648 592 620 83 3 62
0 .501960784313725 .501960784313725 .501960784313725 81 1 621 345 54 596 0 619 6
50 594 622 83 1 622 0 14 623 363 648 ?652 596 653 26 645 -0 0 652 596 38 15 624
 366 0 654 596 0 17 625 597 655 725 656 752 657 0 749 +17 626 577 659 599 660 70
7 661 0 676 +18 627 371 0 599 614 632 663 ?3 16 628 347 0 ?599 615 633 630 0 0 3
 51 629 348 0 681 645 616 0 -.0075 -.0125 .0052 0 0 1 .001 0 -1 0 30 630 349 0 6
28 634 617 0 +.0085 -.0125 .0012 0 0 -1 17 631 566 664 600 665 741 666 0 701 -18
 632 374 0 600 627 637 668 ?3 16 633 350 0 ?600 628 638 634 0 0 3 30 634 351 0 6
33 639 630 0 +.0075 .0135 4e-4 -1 0 0 29 635 375 0 601 640 618 .0075 .0135 4e-4
 17 636 557 669 605 670 693 671 0 659 -18 637 378 0 605 632 656 673 ?3 16 638 35
3 0 ?605 633 644 639 0 0 3 31 639 354 0 638 646 634 0 +.0075 -.0125 .0012 0 0 1
 0 -1 0 .001 29 640 379 0 606 647 635 .0075 -.0135 .0012 17 641 611 641 641 522
 506 523 0 0 -15 642 380 0 674 544 675 17 643 559 676 613 601 600 633 0 760 -16
 644 358 0 ?613 638 657 646 0 0 3 51 645 359 0 623 0 629 0 --.0075 .0125 .0052 0
 0 1 .001 0 1 0 31 646 360 0 644 658 639 0 +-.0075 .0125 4e-4 0 0 -1 -1 0 0 .001
 29 647 381 0 614 663 640 -.0085 .0125 4e-4 81 1 648 364 51 623 650 0 677 619 64
9 83 3 649 .501960784313725 .501960784313725 .501960784313725 81 1 650 365 54 62
3 0 648 679 621 651 83 1 651 0 14 652 382 677 ?681 623 682 26 603 -0 0 681 623 3
8 15 653 385 0 683 623 0 17 654 624 684 745 685 763 686 0 746 -17 655 597 688 62
5 689 749 690 0 733 +18 656 390 0 625 637 660 692 ?3 16 657 367 0 ?625 644 661 6
58 0 0 3 30 658 368 0 657 662 646 0 +-.0075 -.0135 .0012 0 0 -1 17 659 577 693 6
26 670 754 694 0 740 -18 660 393 0 626 656 665 696 ?3 16 661 369 0 ?626 657 666
 662 0 0 3 30 662 370 0 661 667 658 0 +.0085 -.0125 4e-4 7105427357601e-29 1 0 2
9 663 394 0 627 668 647 .0085 -.0125 4e-4 17 664 566 579 631 697 701 698 0 669 +
18 665 397 0 631 660 670 700 ?3 16 666 372 0 ?741 661 671 667 0 0 3 30 667 373 0
 666 672 662 0 +-.0075 .0135 .0012 0 0 -1 29 668 398 0 632 673 663 -.0075 .0135
 4e-4 17 669 557 701 636 697 740 702 0 716 +18 670 401 0 636 665 685 704 ?3 16 6
71 376 0 ?693 666 686 672 0 0 3 30 672 377 0 671 687 667 0 +.0085 .0125 .0012 0
 -1 0 29 673 402 0 637 692 668 .0085 -.0125 .0012 17 674 642 674 674 508 488 509
 0 0 -15 675 403 0 705 544 706 17 676 559 707 643 660 760 708 0 754 +81 1 677 38
3 51 652 679 0 710 648 678 83 3 678 .501960784313725 .501960784313725 .501960784
313725 81 1 679 384 54 652 0 677 712 650 680 83 1 680 0 14 681 406 710 ?714 652
 715 26 629 -0 0 714 652 38 15 682 409 0 716 652 0 17 683 653 717 755 718 721 71
9 0 684 -17 684 624 721 654 718 746 722 0 730 +18 685 414 0 654 670 689 724 ?3 1
6 686 386 0 ?763 671 690 687 0 0 3 30 687 387 0 686 691 672 0 +-.0085 -.0125 .00
12 0 0 -1 17 688 597 725 655 606 759 726 0 753 -18 689 417 0 655 685 697 728 ?3
 16 690 388 0 ?655 686 694 691 0 0 3 30 691 389 0 690 695 687 0 +-.0075 -.0135 4
e-4 1 0 0 29 692 418 0 656 696 673 -.0075 -.0135 4e-4 17 693 577 599 659 637 636
 671 0 739 +16 694 391 0 ?754 690 698 695 0 0 3 30 695 392 0 694 699 691 0 +.008
5 .0125 .0012 0 0 -1 29 696 419 0 660 700 692 .0085 .0125 4e-4 18 697 420 0 664
 689 718 729 ?3 16 698 395 0 ?664 694 702 699 0 0 3 30 699 396 0 698 703 695 0 +
-.0075 .0135 .0012 1 0 0 29 700 421 0 665 704 696 -.0075 .0135 .0012 17 701 557
 730 669 665 664 698 0 717 -16 702 399 0 ?669 698 708 703 0 0 3 31 703 400 0 702
 709 699 0 +.0075 .0125 .0012 0 0 1 1 0 0 .001 29 704 422 0 670 724 700 .0085 .0
125 .0012 17 705 675 705 705 490 469 491 0 0 -15 706 423 0 731 544 732 17 707 55
9 733 676 627 626 661 0 764 -16 708 404 0 ?676 702 719 709 0 0 3 31 709 405 0 70
8 720 703 0 +.0075 .0125 4e-4 0 0 -1 -177635683940025e-29 1 0 .001 81 1 710 407
 51 681 712 0 734 677 711 83 3 711 .501960784313725 .501960784313725 .5019607843
13725 81 1 712 408 54 681 0 710 736 679 713 83 1 713 0 14 714 424 734 ?0 681 738
 26 583 -0 0 0 681 38 15 715 427 0 739 681 0 17 716 682 740 760 697 579 602 0 0
 -17 717 653 741 683 665 730 742 0 0 -18 718 430 0 683 697 0 744 ?3 16 719 410 0
 ?721 708 722 720 0 0 3 30 720 411 0 719 723 709 0 +-.0085 .0125 .0012 0 0 -1 17
 721 624 745 684 614 683 719 0 755 +16 722 412 0 ?684 719 726 723 0 0 3 30 723 4
13 0 722 727 720 0 +-.0085 -.0125 .0012 0 1 0 29 724 431 0 685 728 704 -.0085 -.
0125 .0012 17 725 597 625 688 581 580 607 0 752 +16 726 415 0 ?759 722 742 727 0
 0 3 30 727 416 0 726 743 723 0 +.0075 -.0135 .0012 0 0 -1 29 728 432 0 689 729
 724 .0075 -.0135 4e-4 29 729 433 0 697 744 728 .0075 .0135 .0012 17 730 557 746
 701 718 717 742 0 0 +17 731 706 731 731 471 449 472 0 0 -15 732 434 0 747 544 7
48 17 733 559 749 707 689 764 750 0 759 +81 1 734 425 51 714 736 0 0 710 735 83
 3 735 .501960784313725 .501960784313725 .501960784313725 81 1 736 426 54 714 0
 734 0 712 737 83 1 737 0 15 738 437 0 752 714 0 17 739 715 753 764 637 599 628
 0 0 -17 740 682 754 716 670 669 702 0 0 -17 741 653 755 717 632 631 666 0 0 +16
 742 428 0 ?730 726 750 743 0 0 3 31 743 429 0 742 751 727 0 +-.0075 .0125 .0012
 0 0 1 0 1 0 .001 29 744 438 0 718 0 729 -.0085 .0125 .0012 17 745 624 654 721 5
89 588 615 0 763 +17 746 557 568 730 685 684 722 0 758 -17 747 732 747 747 451 4
29 452 0 0 -15 748 439 0 756 544 757 17 749 559 571 733 656 655 690 0 767 -16 75
0 435 0 ?733 742 0 751 0 0 3 31 751 436 0 750 0 743 0 +.0075 -.0125 4e-4 0 0 -1
 1 0 0 .000999999999999998 17 752 738 758 767 581 625 657 0 0 -17 753 715 759 73
9 606 605 638 0 0 -17 754 682 760 740 660 659 694 0 0 +17 755 653 683 741 614 61
3 644 0 0 -17 756 748 756 756 431 409 432 0 0 -15 757 440 0 761 544 762 17 758 7
38 763 752 685 568 582 0 0 -17 759 715 764 753 689 688 726 0 0 +17 760 682 716 7
54 601 676 708 0 0 -17 761 757 761 761 411 389 412 0 0 -15 762 441 0 765 544 766
 17 763 738 767 758 589 654 686 0 0 +17 764 715 739 759 627 733 750 0 0 -17 765
 762 765 765 391 369 392 0 0 -15 766 442 0 768 544 769 17 767 738 752 763 656 57
1 590 0 0 -17 768 766 768 768 371 349 372 0 0 -15 769 443 0 770 544 771 17 770 7
69 770 770 351 325 352 0 0 -15 771 444 0 772 544 773 17 772 771 772 772 327 297
 328 0 0 -15 773 445 0 774 544 0 17 774 773 774 774 299 273 300 0 0 -1 0 