G04*
G04 #@! TF.GenerationSoftware,Altium Limited,Altium Designer,19.1.5 (86)*
G04*
G04 Layer_Physical_Order=2*
G04 Layer_Color=16711680*
%FSLAX44Y44*%
%MOMM*%
G71*
G01*
G75*
%ADD10C,0.2000*%
%ADD44C,0.4000*%
%ADD46R,1.8000X1.8000*%
%ADD47C,1.8000*%
%ADD48R,1.8000X1.8000*%
%ADD49C,0.6000*%
G36*
X732500Y255000D02*
Y42500D01*
X695000Y5000D01*
X51250D01*
X7500Y48750D01*
Y255000D01*
X45000Y292500D01*
X695000D01*
X732500Y255000D01*
D02*
G37*
%LPC*%
G36*
X296020Y263462D02*
Y253260D01*
X306222D01*
X305993Y255002D01*
X304830Y257810D01*
X302980Y260220D01*
X300570Y262070D01*
X297763Y263233D01*
X296020Y263462D01*
D02*
G37*
G36*
X293480Y263462D02*
X291737Y263233D01*
X288930Y262070D01*
X286520Y260220D01*
X284670Y257810D01*
X283507Y255002D01*
X283278Y253260D01*
X293480D01*
Y263462D01*
D02*
G37*
G36*
X319750Y262328D02*
X317074Y261976D01*
X314581Y260943D01*
X312440Y259300D01*
X310797Y257159D01*
X309764Y254666D01*
X309412Y251990D01*
X309764Y249314D01*
X310532Y247459D01*
X305137Y242064D01*
X302746D01*
X302337Y243266D01*
X302980Y243760D01*
X304830Y246170D01*
X305993Y248978D01*
X306222Y250720D01*
X294750D01*
X283278D01*
X283507Y248978D01*
X284670Y246170D01*
X286520Y243760D01*
X287162Y243266D01*
X286754Y242064D01*
X281250D01*
X279982Y241811D01*
X278907Y241093D01*
X242377Y204564D01*
X95190D01*
X94158Y205253D01*
X92500Y205583D01*
X90842Y205253D01*
X89436Y204314D01*
X88497Y202908D01*
X88167Y201250D01*
X88497Y199592D01*
X89186Y198559D01*
Y105190D01*
X88497Y104158D01*
X88167Y102500D01*
X88497Y100842D01*
X89436Y99436D01*
X90842Y98497D01*
X92500Y98167D01*
X94158Y98497D01*
X95564Y99436D01*
X96503Y100842D01*
X96833Y102500D01*
X96503Y104158D01*
X95814Y105190D01*
Y197936D01*
X146208D01*
X146333Y196666D01*
X145338Y196469D01*
X143506Y195244D01*
X142281Y193412D01*
X142104Y192520D01*
X152896D01*
X152718Y193412D01*
X151494Y195244D01*
X149662Y196469D01*
X148667Y196666D01*
X148792Y197936D01*
X243750D01*
X245018Y198189D01*
X246093Y198907D01*
X282623Y235436D01*
X293004D01*
X293602Y234316D01*
X293497Y234158D01*
X293167Y232500D01*
X293497Y230842D01*
X294436Y229436D01*
X295206Y228921D01*
Y204700D01*
X279658Y189153D01*
X278750Y189333D01*
X277092Y189003D01*
X275686Y188064D01*
X274747Y186658D01*
X274417Y185000D01*
X274747Y183342D01*
X275686Y181936D01*
X277092Y180997D01*
X278230Y180770D01*
X278720Y179464D01*
X274050Y174794D01*
X272329D01*
X271814Y175564D01*
X270408Y176503D01*
X268750Y176833D01*
X267092Y176503D01*
X265686Y175564D01*
X264747Y174158D01*
X264417Y172500D01*
X264747Y170842D01*
X265686Y169436D01*
X267092Y168497D01*
X268750Y168167D01*
X270408Y168497D01*
X271814Y169436D01*
X272329Y170206D01*
X275000D01*
X275878Y170380D01*
X276622Y170878D01*
X278402Y172658D01*
X279572Y172032D01*
X279417Y171250D01*
X279747Y169592D01*
X280686Y168186D01*
X282092Y167247D01*
X283750Y166917D01*
X285408Y167247D01*
X286814Y168186D01*
X287329Y168956D01*
X451421D01*
X451936Y168186D01*
X453342Y167247D01*
X455000Y166917D01*
X456658Y167247D01*
X458064Y168186D01*
X459003Y169592D01*
X459333Y171250D01*
X459003Y172908D01*
X458064Y174314D01*
X456658Y175253D01*
X455000Y175583D01*
X453342Y175253D01*
X451936Y174314D01*
X451421Y173544D01*
X305091D01*
X304567Y174814D01*
X305253Y175842D01*
X305583Y177500D01*
X305253Y179158D01*
X304991Y179552D01*
X304764Y179891D01*
X305686Y180686D01*
X306079Y180424D01*
X307092Y179747D01*
X308750Y179417D01*
X310408Y179747D01*
X311814Y180686D01*
X312329Y181456D01*
X386250D01*
X387128Y181630D01*
X387872Y182128D01*
X412872Y207128D01*
X413369Y207872D01*
X413544Y208750D01*
Y210171D01*
X414314Y210686D01*
X415253Y212092D01*
X415583Y213750D01*
X415253Y215408D01*
X414314Y216814D01*
X412908Y217753D01*
X411250Y218083D01*
X409592Y217753D01*
X408186Y216814D01*
X407247Y215408D01*
X406917Y213750D01*
X407247Y212092D01*
X408186Y210686D01*
X408218Y210665D01*
X408351Y209095D01*
X385300Y186044D01*
X344117D01*
X343518Y187164D01*
X343969Y187838D01*
X344146Y188730D01*
X333354D01*
X333531Y187838D01*
X333982Y187164D01*
X333383Y186044D01*
X312329D01*
X311814Y186814D01*
X310408Y187753D01*
X309270Y187980D01*
X308780Y189286D01*
X334092Y214597D01*
X335000Y214417D01*
X336658Y214747D01*
X338064Y215686D01*
X339003Y217092D01*
X339333Y218750D01*
X339003Y220408D01*
X338885Y220586D01*
X339483Y221706D01*
X472550D01*
X479597Y214658D01*
X479417Y213750D01*
X479747Y212092D01*
X480686Y210686D01*
X482092Y209747D01*
X483750Y209417D01*
X485408Y209747D01*
X486814Y210686D01*
X487753Y212092D01*
X488083Y213750D01*
X487753Y215408D01*
X486814Y216814D01*
X485408Y217753D01*
X483750Y218083D01*
X482842Y217903D01*
X475122Y225622D01*
X474378Y226119D01*
X473500Y226294D01*
X326500D01*
X325622Y226119D01*
X324878Y225622D01*
X285098Y185843D01*
X283710Y186251D01*
X283628Y186633D01*
X299122Y202128D01*
X299619Y202872D01*
X299794Y203750D01*
Y228921D01*
X300564Y229436D01*
X301503Y230842D01*
X301833Y232500D01*
X301503Y234158D01*
X301398Y234316D01*
X301996Y235436D01*
X306510D01*
X307778Y235689D01*
X308853Y236407D01*
X315219Y242772D01*
X317074Y242004D01*
X319750Y241652D01*
X322426Y242004D01*
X324919Y243037D01*
X327060Y244680D01*
X328703Y246821D01*
X329736Y249314D01*
X330088Y251990D01*
X329736Y254666D01*
X328703Y257159D01*
X327060Y259300D01*
X324919Y260943D01*
X322426Y261976D01*
X319750Y262328D01*
D02*
G37*
G36*
X584000Y262240D02*
X563500D01*
Y241740D01*
X584000D01*
Y262240D01*
D02*
G37*
G36*
X548750Y262328D02*
X546074Y261976D01*
X543581Y260943D01*
X541440Y259300D01*
X539797Y257159D01*
X538764Y254666D01*
X538411Y251990D01*
X538764Y249314D01*
X539797Y246821D01*
X541440Y244680D01*
X543581Y243037D01*
X546074Y242004D01*
X548750Y241652D01*
X551426Y242004D01*
X553919Y243037D01*
X556060Y244680D01*
X557703Y246821D01*
X558736Y249314D01*
X559088Y251990D01*
X558736Y254666D01*
X557703Y257159D01*
X556060Y259300D01*
X553919Y260943D01*
X551426Y261976D01*
X548750Y262328D01*
D02*
G37*
G36*
X523750D02*
X521074Y261976D01*
X518581Y260943D01*
X516440Y259300D01*
X514797Y257159D01*
X513764Y254666D01*
X513411Y251990D01*
X513764Y249314D01*
X514797Y246821D01*
X516440Y244680D01*
X518581Y243037D01*
X521074Y242004D01*
X523750Y241652D01*
X526426Y242004D01*
X528919Y243037D01*
X531060Y244680D01*
X532703Y246821D01*
X533736Y249314D01*
X534088Y251990D01*
X533736Y254666D01*
X532703Y257159D01*
X531060Y259300D01*
X528919Y260943D01*
X526426Y261976D01*
X523750Y262328D01*
D02*
G37*
G36*
X497750D02*
X495074Y261976D01*
X492581Y260943D01*
X490440Y259300D01*
X488797Y257159D01*
X487764Y254666D01*
X487411Y251990D01*
X487764Y249314D01*
X488797Y246821D01*
X490440Y244680D01*
X492581Y243037D01*
X495074Y242004D01*
X497750Y241652D01*
X500426Y242004D01*
X502919Y243037D01*
X505060Y244680D01*
X506703Y246821D01*
X507736Y249314D01*
X508088Y251990D01*
X507736Y254666D01*
X506703Y257159D01*
X505060Y259300D01*
X502919Y260943D01*
X500426Y261976D01*
X497750Y262328D01*
D02*
G37*
G36*
X473750D02*
X471074Y261976D01*
X468581Y260943D01*
X466440Y259300D01*
X464797Y257159D01*
X463764Y254666D01*
X463411Y251990D01*
X463764Y249314D01*
X464797Y246821D01*
X466440Y244680D01*
X468581Y243037D01*
X471074Y242004D01*
X473750Y241652D01*
X476426Y242004D01*
X478919Y243037D01*
X481060Y244680D01*
X482703Y246821D01*
X483736Y249314D01*
X484088Y251990D01*
X483736Y254666D01*
X482703Y257159D01*
X481060Y259300D01*
X478919Y260943D01*
X476426Y261976D01*
X473750Y262328D01*
D02*
G37*
G36*
X446750D02*
X444074Y261976D01*
X441581Y260943D01*
X439440Y259300D01*
X437797Y257159D01*
X436764Y254666D01*
X436412Y251990D01*
X436764Y249314D01*
X437797Y246821D01*
X439440Y244680D01*
X441581Y243037D01*
X444074Y242004D01*
X446750Y241652D01*
X449426Y242004D01*
X451919Y243037D01*
X454060Y244680D01*
X455703Y246821D01*
X456736Y249314D01*
X457088Y251990D01*
X456736Y254666D01*
X455703Y257159D01*
X454060Y259300D01*
X451919Y260943D01*
X449426Y261976D01*
X446750Y262328D01*
D02*
G37*
G36*
X421750D02*
X419074Y261976D01*
X416581Y260943D01*
X414440Y259300D01*
X412797Y257159D01*
X411764Y254666D01*
X411412Y251990D01*
X411764Y249314D01*
X412797Y246821D01*
X414440Y244680D01*
X416581Y243037D01*
X419074Y242004D01*
X421750Y241652D01*
X424426Y242004D01*
X426919Y243037D01*
X429060Y244680D01*
X430703Y246821D01*
X431736Y249314D01*
X432088Y251990D01*
X431736Y254666D01*
X430703Y257159D01*
X429060Y259300D01*
X426919Y260943D01*
X424426Y261976D01*
X421750Y262328D01*
D02*
G37*
G36*
X395750D02*
X393074Y261976D01*
X390581Y260943D01*
X388440Y259300D01*
X386797Y257159D01*
X385764Y254666D01*
X385411Y251990D01*
X385764Y249314D01*
X386797Y246821D01*
X388440Y244680D01*
X390581Y243037D01*
X393074Y242004D01*
X395750Y241652D01*
X398426Y242004D01*
X400919Y243037D01*
X403060Y244680D01*
X404703Y246821D01*
X405736Y249314D01*
X406088Y251990D01*
X405736Y254666D01*
X404703Y257159D01*
X403060Y259300D01*
X400919Y260943D01*
X398426Y261976D01*
X395750Y262328D01*
D02*
G37*
G36*
X370750D02*
X368074Y261976D01*
X365581Y260943D01*
X363440Y259300D01*
X361797Y257159D01*
X360764Y254666D01*
X360411Y251990D01*
X360764Y249314D01*
X361797Y246821D01*
X363440Y244680D01*
X365581Y243037D01*
X368074Y242004D01*
X370750Y241652D01*
X373426Y242004D01*
X375919Y243037D01*
X378060Y244680D01*
X379703Y246821D01*
X380736Y249314D01*
X381088Y251990D01*
X380736Y254666D01*
X379703Y257159D01*
X378060Y259300D01*
X375919Y260943D01*
X373426Y261976D01*
X370750Y262328D01*
D02*
G37*
G36*
X344750D02*
X342074Y261976D01*
X339581Y260943D01*
X337440Y259300D01*
X335797Y257159D01*
X334764Y254666D01*
X334412Y251990D01*
X334764Y249314D01*
X335797Y246821D01*
X337440Y244680D01*
X339581Y243037D01*
X342074Y242004D01*
X344750Y241652D01*
X347426Y242004D01*
X349919Y243037D01*
X352060Y244680D01*
X353703Y246821D01*
X354736Y249314D01*
X355088Y251990D01*
X354736Y254666D01*
X353703Y257159D01*
X352060Y259300D01*
X349919Y260943D01*
X347426Y261976D01*
X344750Y262328D01*
D02*
G37*
G36*
X243750D02*
X241074Y261976D01*
X238581Y260943D01*
X236440Y259300D01*
X234797Y257159D01*
X233764Y254666D01*
X233412Y251990D01*
X233764Y249314D01*
X234797Y246821D01*
X236440Y244680D01*
X238581Y243037D01*
X241074Y242004D01*
X243750Y241652D01*
X246426Y242004D01*
X248919Y243037D01*
X251060Y244680D01*
X252703Y246821D01*
X253736Y249314D01*
X254088Y251990D01*
X253736Y254666D01*
X252703Y257159D01*
X251060Y259300D01*
X248919Y260943D01*
X246426Y261976D01*
X243750Y262328D01*
D02*
G37*
G36*
X217750D02*
X215074Y261976D01*
X212581Y260943D01*
X210440Y259300D01*
X208797Y257159D01*
X207764Y254666D01*
X207411Y251990D01*
X207764Y249314D01*
X208797Y246821D01*
X210440Y244680D01*
X212581Y243037D01*
X215074Y242004D01*
X217750Y241652D01*
X220426Y242004D01*
X222919Y243037D01*
X225060Y244680D01*
X226703Y246821D01*
X227736Y249314D01*
X228088Y251990D01*
X227736Y254666D01*
X226703Y257159D01*
X225060Y259300D01*
X222919Y260943D01*
X220426Y261976D01*
X217750Y262328D01*
D02*
G37*
G36*
X192750D02*
X190074Y261976D01*
X187581Y260943D01*
X185440Y259300D01*
X183797Y257159D01*
X182764Y254666D01*
X182411Y251990D01*
X182764Y249314D01*
X183797Y246821D01*
X185440Y244680D01*
X187581Y243037D01*
X190074Y242004D01*
X192750Y241652D01*
X195426Y242004D01*
X197919Y243037D01*
X200060Y244680D01*
X201703Y246821D01*
X202736Y249314D01*
X203088Y251990D01*
X202736Y254666D01*
X201703Y257159D01*
X200060Y259300D01*
X197919Y260943D01*
X195426Y261976D01*
X192750Y262328D01*
D02*
G37*
G36*
X167750D02*
X165074Y261976D01*
X162581Y260943D01*
X160440Y259300D01*
X158797Y257159D01*
X157764Y254666D01*
X157411Y251990D01*
X157764Y249314D01*
X158797Y246821D01*
X160440Y244680D01*
X162581Y243037D01*
X165074Y242004D01*
X167750Y241652D01*
X170426Y242004D01*
X172919Y243037D01*
X175060Y244680D01*
X176703Y246821D01*
X177736Y249314D01*
X178088Y251990D01*
X177736Y254666D01*
X176703Y257159D01*
X175060Y259300D01*
X172919Y260943D01*
X170426Y261976D01*
X167750Y262328D01*
D02*
G37*
G36*
X141750D02*
X139074Y261976D01*
X136581Y260943D01*
X134440Y259300D01*
X132797Y257159D01*
X131764Y254666D01*
X131412Y251990D01*
X131764Y249314D01*
X132797Y246821D01*
X134440Y244680D01*
X136581Y243037D01*
X139074Y242004D01*
X141750Y241652D01*
X144426Y242004D01*
X146919Y243037D01*
X149060Y244680D01*
X150703Y246821D01*
X151736Y249314D01*
X152088Y251990D01*
X151736Y254666D01*
X150703Y257159D01*
X149060Y259300D01*
X146919Y260943D01*
X144426Y261976D01*
X141750Y262328D01*
D02*
G37*
G36*
X116750D02*
X114074Y261976D01*
X111581Y260943D01*
X109440Y259300D01*
X107797Y257159D01*
X106764Y254666D01*
X106412Y251990D01*
X106764Y249314D01*
X107797Y246821D01*
X109440Y244680D01*
X111581Y243037D01*
X114074Y242004D01*
X116750Y241652D01*
X119426Y242004D01*
X121919Y243037D01*
X124060Y244680D01*
X125703Y246821D01*
X126736Y249314D01*
X127088Y251990D01*
X126736Y254666D01*
X125703Y257159D01*
X124060Y259300D01*
X121919Y260943D01*
X119426Y261976D01*
X116750Y262328D01*
D02*
G37*
G36*
X90750D02*
X88074Y261976D01*
X85581Y260943D01*
X83440Y259300D01*
X81797Y257159D01*
X80764Y254666D01*
X80412Y251990D01*
X80764Y249314D01*
X81797Y246821D01*
X83440Y244680D01*
X85581Y243037D01*
X88074Y242004D01*
X90750Y241652D01*
X93426Y242004D01*
X95919Y243037D01*
X98060Y244680D01*
X99703Y246821D01*
X100736Y249314D01*
X101088Y251990D01*
X100736Y254666D01*
X99703Y257159D01*
X98060Y259300D01*
X95919Y260943D01*
X93426Y261976D01*
X90750Y262328D01*
D02*
G37*
G36*
X215020Y220396D02*
Y216270D01*
X219146D01*
X218969Y217162D01*
X217744Y218994D01*
X215912Y220219D01*
X215020Y220396D01*
D02*
G37*
G36*
X212480D02*
X211588Y220219D01*
X209756Y218994D01*
X208531Y217162D01*
X208354Y216270D01*
X212480D01*
Y220396D01*
D02*
G37*
G36*
X219146Y213730D02*
X215020D01*
Y209604D01*
X215912Y209781D01*
X217744Y211006D01*
X218969Y212838D01*
X219146Y213730D01*
D02*
G37*
G36*
X212480D02*
X208354D01*
X208531Y212838D01*
X209756Y211006D01*
X211588Y209781D01*
X212480Y209604D01*
Y213730D01*
D02*
G37*
G36*
X523770Y212896D02*
Y208770D01*
X527896D01*
X527719Y209662D01*
X526494Y211494D01*
X524662Y212719D01*
X523770Y212896D01*
D02*
G37*
G36*
X521230D02*
X520338Y212719D01*
X518506Y211494D01*
X517281Y209662D01*
X517104Y208770D01*
X521230D01*
Y212896D01*
D02*
G37*
G36*
X527896Y206230D02*
X523770D01*
Y202104D01*
X524662Y202281D01*
X526494Y203506D01*
X527719Y205338D01*
X527896Y206230D01*
D02*
G37*
G36*
X521230D02*
X517104D01*
X517281Y205338D01*
X518506Y203506D01*
X520338Y202281D01*
X521230Y202104D01*
Y206230D01*
D02*
G37*
G36*
X267500Y200583D02*
X265842Y200253D01*
X264436Y199314D01*
X263874Y198473D01*
X263351Y198370D01*
X262607Y197872D01*
X140128Y75393D01*
X139630Y74649D01*
X139456Y73771D01*
Y46286D01*
X139074Y46236D01*
X136581Y45203D01*
X134440Y43560D01*
X132797Y41419D01*
X131764Y38926D01*
X131412Y36250D01*
X131764Y33574D01*
X132797Y31081D01*
X134440Y28940D01*
X136581Y27297D01*
X139074Y26264D01*
X141750Y25912D01*
X144426Y26264D01*
X146919Y27297D01*
X149060Y28940D01*
X150703Y31081D01*
X151736Y33574D01*
X152088Y36250D01*
X151736Y38926D01*
X150703Y41419D01*
X149060Y43560D01*
X146919Y45203D01*
X144426Y46236D01*
X144044Y46286D01*
Y72821D01*
X164283Y93059D01*
X165456Y92573D01*
Y46286D01*
X165074Y46236D01*
X162581Y45203D01*
X160440Y43560D01*
X158797Y41419D01*
X157764Y38926D01*
X157411Y36250D01*
X157764Y33574D01*
X158797Y31081D01*
X160440Y28940D01*
X162581Y27297D01*
X165074Y26264D01*
X167750Y25912D01*
X170426Y26264D01*
X172919Y27297D01*
X175060Y28940D01*
X176703Y31081D01*
X177736Y33574D01*
X178088Y36250D01*
X177736Y38926D01*
X176703Y41419D01*
X175060Y43560D01*
X172919Y45203D01*
X170426Y46236D01*
X170044Y46286D01*
Y94224D01*
X253490Y177670D01*
X254705Y177301D01*
X254747Y177092D01*
X255686Y175686D01*
X256456Y175171D01*
Y130479D01*
X256631Y129601D01*
X257128Y128857D01*
X332607Y53378D01*
X333351Y52881D01*
X334229Y52706D01*
X427050D01*
X438031Y41725D01*
X437797Y41419D01*
X436764Y38926D01*
X436412Y36250D01*
X436764Y33574D01*
X437797Y31081D01*
X439440Y28940D01*
X441581Y27297D01*
X444074Y26264D01*
X446750Y25912D01*
X449426Y26264D01*
X451919Y27297D01*
X454060Y28940D01*
X455703Y31081D01*
X456736Y33574D01*
X457088Y36250D01*
X456736Y38926D01*
X455703Y41419D01*
X454060Y43560D01*
X451919Y45203D01*
X449426Y46236D01*
X446750Y46588D01*
X444074Y46236D01*
X441581Y45203D01*
X441275Y44969D01*
X429622Y56622D01*
X428878Y57119D01*
X428000Y57294D01*
X335179D01*
X332191Y60283D01*
X332677Y61456D01*
X373921D01*
X374436Y60686D01*
X375842Y59747D01*
X377500Y59417D01*
X379158Y59747D01*
X380564Y60686D01*
X381503Y62092D01*
X381833Y63750D01*
X381503Y65408D01*
X380564Y66814D01*
X379158Y67753D01*
X377500Y68083D01*
X375842Y67753D01*
X374436Y66814D01*
X373921Y66044D01*
X331026D01*
X292330Y104740D01*
X292699Y105955D01*
X292908Y105997D01*
X294314Y106936D01*
X294829Y107706D01*
X341929D01*
X342658Y107585D01*
X343353Y106566D01*
X343497Y105842D01*
X344436Y104436D01*
X345842Y103497D01*
X347500Y103167D01*
X348408Y103347D01*
X385388Y66368D01*
X384747Y65408D01*
X384417Y63750D01*
X384747Y62092D01*
X385686Y60686D01*
X387092Y59747D01*
X388750Y59417D01*
X390408Y59747D01*
X391814Y60686D01*
X392753Y62092D01*
X393083Y63750D01*
X392753Y65408D01*
X391814Y66814D01*
X390657Y67587D01*
X351653Y106592D01*
X351833Y107500D01*
X351503Y109158D01*
X351385Y109336D01*
X351983Y110456D01*
X365151D01*
X365937Y109186D01*
X365854Y108770D01*
X376646D01*
X376563Y109186D01*
X377349Y110456D01*
X420250D01*
X421128Y110631D01*
X421872Y111128D01*
X445950Y135206D01*
X451421D01*
X451936Y134436D01*
X453342Y133497D01*
X455000Y133167D01*
X456658Y133497D01*
X458064Y134436D01*
X459003Y135842D01*
X459333Y137500D01*
X459003Y139158D01*
X458064Y140564D01*
X456658Y141503D01*
X455000Y141833D01*
X453342Y141503D01*
X451936Y140564D01*
X451421Y139794D01*
X445000D01*
X444122Y139620D01*
X443378Y139122D01*
X419300Y115044D01*
X345325D01*
X344448Y114869D01*
X343703Y114372D01*
X341625Y112294D01*
X305367D01*
X304768Y113414D01*
X305219Y114088D01*
X305396Y114980D01*
X294604D01*
X294738Y114309D01*
X294212Y113759D01*
X293708Y113469D01*
X292908Y114003D01*
X291250Y114333D01*
X289592Y114003D01*
X289414Y113885D01*
X288294Y114483D01*
Y131046D01*
X290372Y133124D01*
X290869Y133869D01*
X291044Y134747D01*
Y147671D01*
X291814Y148186D01*
X292753Y149592D01*
X293083Y151250D01*
X292753Y152908D01*
X291814Y154314D01*
X290408Y155253D01*
X288750Y155583D01*
X287092Y155253D01*
X285686Y154314D01*
X284747Y152908D01*
X284417Y151250D01*
X284747Y149592D01*
X285686Y148186D01*
X286456Y147671D01*
Y135697D01*
X284378Y133619D01*
X283881Y132874D01*
X283706Y131996D01*
Y110427D01*
X282533Y109941D01*
X261044Y131429D01*
Y175171D01*
X261814Y175686D01*
X262753Y177092D01*
X263083Y178750D01*
X262753Y180408D01*
X261814Y181814D01*
X260408Y182753D01*
X260199Y182795D01*
X259830Y184010D01*
X264526Y188706D01*
X271334D01*
X272212Y188881D01*
X272956Y189378D01*
X275512Y191934D01*
X276420Y191753D01*
X278079Y192083D01*
X279485Y193023D01*
X280424Y194428D01*
X280754Y196087D01*
X280424Y197745D01*
X279485Y199151D01*
X278079Y200090D01*
X276420Y200420D01*
X274762Y200090D01*
X273356Y199151D01*
X272720Y198199D01*
X272410Y198125D01*
X271315Y198197D01*
X271309Y198199D01*
X270564Y199314D01*
X269158Y200253D01*
X267500Y200583D01*
D02*
G37*
G36*
X458770Y195396D02*
Y191270D01*
X462896D01*
X462719Y192162D01*
X461494Y193994D01*
X459662Y195219D01*
X458770Y195396D01*
D02*
G37*
G36*
X456230D02*
X455338Y195219D01*
X453506Y193994D01*
X452281Y192162D01*
X452104Y191270D01*
X456230D01*
Y195396D01*
D02*
G37*
G36*
X340020D02*
Y191270D01*
X344146D01*
X343969Y192162D01*
X342744Y193994D01*
X340912Y195219D01*
X340020Y195396D01*
D02*
G37*
G36*
X337480D02*
X336588Y195219D01*
X334756Y193994D01*
X333531Y192162D01*
X333354Y191270D01*
X337480D01*
Y195396D01*
D02*
G37*
G36*
X211270Y190396D02*
Y186270D01*
X215396D01*
X215219Y187162D01*
X213994Y188994D01*
X212162Y190219D01*
X211270Y190396D01*
D02*
G37*
G36*
X208730D02*
X207838Y190219D01*
X206006Y188994D01*
X204781Y187162D01*
X204604Y186270D01*
X208730D01*
Y190396D01*
D02*
G37*
G36*
X152896Y189980D02*
X148770D01*
Y185854D01*
X149662Y186031D01*
X151494Y187256D01*
X152718Y189088D01*
X152896Y189980D01*
D02*
G37*
G36*
X146230D02*
X142104D01*
X142281Y189088D01*
X143506Y187256D01*
X145338Y186031D01*
X146230Y185854D01*
Y189980D01*
D02*
G37*
G36*
X462896Y188730D02*
X458770D01*
Y184604D01*
X459662Y184781D01*
X461494Y186006D01*
X462719Y187838D01*
X462896Y188730D01*
D02*
G37*
G36*
X456230D02*
X452104D01*
X452281Y187838D01*
X453506Y186006D01*
X455338Y184781D01*
X456230Y184604D01*
Y188730D01*
D02*
G37*
G36*
X215396Y183730D02*
X211270D01*
Y179604D01*
X212162Y179781D01*
X213994Y181006D01*
X215219Y182838D01*
X215396Y183730D01*
D02*
G37*
G36*
X208730D02*
X204604D01*
X204781Y182838D01*
X206006Y181006D01*
X207838Y179781D01*
X208730Y179604D01*
Y183730D01*
D02*
G37*
G36*
X610020Y182896D02*
Y178770D01*
X614146D01*
X613969Y179662D01*
X612744Y181494D01*
X610912Y182719D01*
X610020Y182896D01*
D02*
G37*
G36*
X607480D02*
X606588Y182719D01*
X604756Y181494D01*
X603531Y179662D01*
X603354Y178770D01*
X607480D01*
Y182896D01*
D02*
G37*
G36*
X511270D02*
Y178770D01*
X515396D01*
X515219Y179662D01*
X513994Y181494D01*
X512162Y182719D01*
X511270Y182896D01*
D02*
G37*
G36*
X508730D02*
X507838Y182719D01*
X506006Y181494D01*
X504781Y179662D01*
X504604Y178770D01*
X508730D01*
Y182896D01*
D02*
G37*
G36*
X614146Y176230D02*
X610020D01*
Y172104D01*
X610912Y172281D01*
X612744Y173506D01*
X613969Y175338D01*
X614146Y176230D01*
D02*
G37*
G36*
X607480D02*
X603354D01*
X603531Y175338D01*
X604756Y173506D01*
X606588Y172281D01*
X607480Y172104D01*
Y176230D01*
D02*
G37*
G36*
X515396D02*
X511270D01*
Y172104D01*
X512162Y172281D01*
X513994Y173506D01*
X515219Y175338D01*
X515396Y176230D01*
D02*
G37*
G36*
X508730D02*
X504604D01*
X504781Y175338D01*
X506006Y173506D01*
X507838Y172281D01*
X508730Y172104D01*
Y176230D01*
D02*
G37*
G36*
X116270Y170396D02*
Y166270D01*
X120396D01*
X120219Y167162D01*
X118994Y168994D01*
X117162Y170219D01*
X116270Y170396D01*
D02*
G37*
G36*
X113730D02*
X112838Y170219D01*
X111006Y168994D01*
X109781Y167162D01*
X109604Y166270D01*
X113730D01*
Y170396D01*
D02*
G37*
G36*
X120396Y163730D02*
X116270D01*
Y159604D01*
X117162Y159781D01*
X118994Y161006D01*
X120219Y162838D01*
X120396Y163730D01*
D02*
G37*
G36*
X113730D02*
X109604D01*
X109781Y162838D01*
X111006Y161006D01*
X112838Y159781D01*
X113730Y159604D01*
Y163730D01*
D02*
G37*
G36*
X275020Y161646D02*
Y157520D01*
X279146D01*
X278969Y158412D01*
X277744Y160244D01*
X275912Y161469D01*
X275020Y161646D01*
D02*
G37*
G36*
X272480D02*
X271588Y161469D01*
X269756Y160244D01*
X268531Y158412D01*
X268354Y157520D01*
X272480D01*
Y161646D01*
D02*
G37*
G36*
X493770Y159146D02*
Y155020D01*
X497896D01*
X497719Y155912D01*
X496494Y157744D01*
X494662Y158968D01*
X493770Y159146D01*
D02*
G37*
G36*
X491230D02*
X490338Y158968D01*
X488506Y157744D01*
X487281Y155912D01*
X487104Y155020D01*
X491230D01*
Y159146D01*
D02*
G37*
G36*
X163770D02*
Y155020D01*
X167896D01*
X167719Y155912D01*
X166494Y157744D01*
X164662Y158968D01*
X163770Y159146D01*
D02*
G37*
G36*
X161230D02*
X160338Y158968D01*
X158506Y157744D01*
X157281Y155912D01*
X157104Y155020D01*
X161230D01*
Y159146D01*
D02*
G37*
G36*
X611270Y155396D02*
Y151270D01*
X615396D01*
X615219Y152162D01*
X613994Y153994D01*
X612162Y155219D01*
X611270Y155396D01*
D02*
G37*
G36*
X608730D02*
X607838Y155219D01*
X606006Y153994D01*
X604781Y152162D01*
X604604Y151270D01*
X608730D01*
Y155396D01*
D02*
G37*
G36*
X279146Y154980D02*
X275020D01*
Y150854D01*
X275912Y151031D01*
X277744Y152256D01*
X278969Y154088D01*
X279146Y154980D01*
D02*
G37*
G36*
X272480D02*
X268354D01*
X268531Y154088D01*
X269756Y152256D01*
X271588Y151031D01*
X272480Y150854D01*
Y154980D01*
D02*
G37*
G36*
X497896Y152480D02*
X493770D01*
Y148354D01*
X494662Y148531D01*
X496494Y149756D01*
X497719Y151588D01*
X497896Y152480D01*
D02*
G37*
G36*
X491230D02*
X487104D01*
X487281Y151588D01*
X488506Y149756D01*
X490338Y148531D01*
X491230Y148354D01*
Y152480D01*
D02*
G37*
G36*
X167896D02*
X163770D01*
Y148354D01*
X164662Y148531D01*
X166494Y149756D01*
X167719Y151588D01*
X167896Y152480D01*
D02*
G37*
G36*
X161230D02*
X157104D01*
X157281Y151588D01*
X158506Y149756D01*
X160338Y148531D01*
X161230Y148354D01*
Y152480D01*
D02*
G37*
G36*
X615396Y148730D02*
X611270D01*
Y144604D01*
X612162Y144781D01*
X613994Y146006D01*
X615219Y147838D01*
X615396Y148730D01*
D02*
G37*
G36*
X608730D02*
X604604D01*
X604781Y147838D01*
X606006Y146006D01*
X607838Y144781D01*
X608730Y144604D01*
Y148730D01*
D02*
G37*
G36*
X503750Y210583D02*
X502092Y210253D01*
X500686Y209314D01*
X499747Y207908D01*
X499417Y206250D01*
X499747Y204592D01*
X500436Y203559D01*
Y201373D01*
X458002Y158939D01*
X308248D01*
X307996Y159191D01*
X307753Y160408D01*
X306814Y161814D01*
X305408Y162753D01*
X303750Y163083D01*
X302092Y162753D01*
X300686Y161814D01*
X299747Y160408D01*
X299417Y158750D01*
X299747Y157092D01*
X300686Y155686D01*
X302092Y154747D01*
X303309Y154504D01*
X304532Y153282D01*
X305064Y152926D01*
X305177Y152725D01*
X305394Y151511D01*
X305356Y151320D01*
X304747Y150408D01*
X304417Y148750D01*
X304747Y147092D01*
X305686Y145686D01*
X307092Y144747D01*
X308750Y144417D01*
X310408Y144747D01*
X311814Y145686D01*
X312329Y146456D01*
X461550D01*
X515206Y92800D01*
Y79829D01*
X514436Y79314D01*
X513497Y77908D01*
X513167Y76250D01*
X513497Y74592D01*
X514436Y73186D01*
X515842Y72247D01*
X517500Y71917D01*
X519158Y72247D01*
X520564Y73186D01*
X521503Y74592D01*
X521833Y76250D01*
X521503Y77908D01*
X520564Y79314D01*
X519794Y79829D01*
Y93750D01*
X519619Y94628D01*
X519122Y95372D01*
X464122Y150372D01*
X463378Y150869D01*
X462500Y151044D01*
X459382D01*
X459375Y152311D01*
X460643Y152564D01*
X461718Y153282D01*
X506093Y197657D01*
X506163Y197762D01*
X507427Y197887D01*
X556686Y148627D01*
Y141440D01*
X555997Y140408D01*
X555667Y138750D01*
X555997Y137092D01*
X556936Y135686D01*
X558342Y134747D01*
X560000Y134417D01*
X561658Y134747D01*
X563064Y135686D01*
X564003Y137092D01*
X564333Y138750D01*
X564003Y140408D01*
X563314Y141440D01*
Y150000D01*
X563061Y151268D01*
X562343Y152343D01*
X507996Y206691D01*
X507753Y207908D01*
X506814Y209314D01*
X505408Y210253D01*
X503750Y210583D01*
D02*
G37*
G36*
X172520Y136646D02*
Y132520D01*
X176646D01*
X176469Y133412D01*
X175244Y135244D01*
X173412Y136469D01*
X172520Y136646D01*
D02*
G37*
G36*
X169980D02*
X169088Y136469D01*
X167256Y135244D01*
X166031Y133412D01*
X165854Y132520D01*
X169980D01*
Y136646D01*
D02*
G37*
G36*
X347520Y135396D02*
Y131270D01*
X351646D01*
X351469Y132162D01*
X350244Y133994D01*
X348412Y135219D01*
X347520Y135396D01*
D02*
G37*
G36*
X344980D02*
X344088Y135219D01*
X342256Y133994D01*
X341031Y132162D01*
X340854Y131270D01*
X344980D01*
Y135396D01*
D02*
G37*
G36*
X176646Y129980D02*
X172520D01*
Y125854D01*
X173412Y126031D01*
X175244Y127256D01*
X176469Y129088D01*
X176646Y129980D01*
D02*
G37*
G36*
X169980D02*
X165854D01*
X166031Y129088D01*
X167256Y127256D01*
X169088Y126031D01*
X169980Y125854D01*
Y129980D01*
D02*
G37*
G36*
X672750Y145250D02*
X652250D01*
Y124750D01*
X672750D01*
Y145250D01*
D02*
G37*
G36*
X351646Y128730D02*
X347520D01*
Y124604D01*
X348412Y124781D01*
X350244Y126006D01*
X351469Y127838D01*
X351646Y128730D01*
D02*
G37*
G36*
X344980D02*
X340854D01*
X341031Y127838D01*
X342256Y126006D01*
X344088Y124781D01*
X344980Y124604D01*
Y128730D01*
D02*
G37*
G36*
X606270Y126646D02*
Y122520D01*
X610396D01*
X610219Y123412D01*
X608994Y125244D01*
X607162Y126469D01*
X606270Y126646D01*
D02*
G37*
G36*
X603730D02*
X602838Y126469D01*
X601006Y125244D01*
X599781Y123412D01*
X599604Y122520D01*
X603730D01*
Y126646D01*
D02*
G37*
G36*
X527520Y122896D02*
Y118770D01*
X531646D01*
X531469Y119662D01*
X530244Y121494D01*
X528412Y122719D01*
X527520Y122896D01*
D02*
G37*
G36*
X524980D02*
X524088Y122719D01*
X522256Y121494D01*
X521031Y119662D01*
X520854Y118770D01*
X524980D01*
Y122896D01*
D02*
G37*
G36*
X301270Y121646D02*
Y117520D01*
X305396D01*
X305219Y118412D01*
X303994Y120244D01*
X302162Y121468D01*
X301270Y121646D01*
D02*
G37*
G36*
X298730D02*
X297838Y121468D01*
X296006Y120244D01*
X294781Y118412D01*
X294604Y117520D01*
X298730D01*
Y121646D01*
D02*
G37*
G36*
X610396Y119980D02*
X606270D01*
Y115854D01*
X607162Y116031D01*
X608994Y117256D01*
X610219Y119088D01*
X610396Y119980D01*
D02*
G37*
G36*
X603730D02*
X599604D01*
X599781Y119088D01*
X601006Y117256D01*
X602838Y116031D01*
X603730Y115854D01*
Y119980D01*
D02*
G37*
G36*
X483770Y117896D02*
Y113770D01*
X487896D01*
X487719Y114662D01*
X486494Y116494D01*
X484662Y117719D01*
X483770Y117896D01*
D02*
G37*
G36*
X481230D02*
X480338Y117719D01*
X478506Y116494D01*
X477281Y114662D01*
X477104Y113770D01*
X481230D01*
Y117896D01*
D02*
G37*
G36*
X531646Y116230D02*
X527520D01*
Y112104D01*
X528412Y112281D01*
X530244Y113506D01*
X531469Y115338D01*
X531646Y116230D01*
D02*
G37*
G36*
X524980D02*
X520854D01*
X521031Y115338D01*
X522256Y113506D01*
X524088Y112281D01*
X524980Y112104D01*
Y116230D01*
D02*
G37*
G36*
X582520Y114146D02*
Y110020D01*
X586646D01*
X586469Y110912D01*
X585244Y112744D01*
X583412Y113969D01*
X582520Y114146D01*
D02*
G37*
G36*
X579980D02*
X579088Y113969D01*
X577256Y112744D01*
X576031Y110912D01*
X575854Y110020D01*
X579980D01*
Y114146D01*
D02*
G37*
G36*
X487896Y111230D02*
X483770D01*
Y107104D01*
X484662Y107281D01*
X486494Y108506D01*
X487719Y110338D01*
X487896Y111230D01*
D02*
G37*
G36*
X481230D02*
X477104D01*
X477281Y110338D01*
X478506Y108506D01*
X480338Y107281D01*
X481230Y107104D01*
Y111230D01*
D02*
G37*
G36*
X585000Y196833D02*
X583342Y196503D01*
X581936Y195564D01*
X580997Y194158D01*
X580667Y192500D01*
X580997Y190842D01*
X581936Y189436D01*
X582706Y188921D01*
Y125000D01*
X582881Y124122D01*
X583378Y123378D01*
X596137Y110619D01*
X595997Y110408D01*
X595667Y108750D01*
X595997Y107092D01*
X596936Y105686D01*
X598342Y104747D01*
X600000Y104417D01*
X601658Y104747D01*
X603064Y105686D01*
X604003Y107092D01*
X604333Y108750D01*
X604003Y110408D01*
X603064Y111814D01*
X601658Y112753D01*
X600201Y113043D01*
X587294Y125950D01*
Y188921D01*
X588064Y189436D01*
X589003Y190842D01*
X589333Y192500D01*
X589003Y194158D01*
X588064Y195564D01*
X586658Y196503D01*
X585000Y196833D01*
D02*
G37*
G36*
X586646Y107480D02*
X582520D01*
Y103354D01*
X583412Y103531D01*
X585244Y104756D01*
X586469Y106588D01*
X586646Y107480D01*
D02*
G37*
G36*
X579980D02*
X575854D01*
X576031Y106588D01*
X577256Y104756D01*
X579088Y103531D01*
X579980Y103354D01*
Y107480D01*
D02*
G37*
G36*
X235020Y106646D02*
Y102520D01*
X239146D01*
X238969Y103412D01*
X237744Y105244D01*
X235912Y106468D01*
X235020Y106646D01*
D02*
G37*
G36*
X232480D02*
X231588Y106468D01*
X229756Y105244D01*
X228531Y103412D01*
X228354Y102520D01*
X232480D01*
Y106646D01*
D02*
G37*
G36*
X130020D02*
Y102520D01*
X134146D01*
X133968Y103412D01*
X132744Y105244D01*
X130912Y106468D01*
X130020Y106646D01*
D02*
G37*
G36*
X127480D02*
X126588Y106468D01*
X124756Y105244D01*
X123531Y103412D01*
X123354Y102520D01*
X127480D01*
Y106646D01*
D02*
G37*
G36*
X376646Y106230D02*
X372520D01*
Y102104D01*
X373412Y102281D01*
X375244Y103506D01*
X376469Y105338D01*
X376646Y106230D01*
D02*
G37*
G36*
X369980D02*
X365854D01*
X366031Y105338D01*
X367256Y103506D01*
X369088Y102281D01*
X369980Y102104D01*
Y106230D01*
D02*
G37*
G36*
X662500Y120338D02*
X659824Y119986D01*
X657331Y118953D01*
X655190Y117310D01*
X653547Y115169D01*
X652514Y112676D01*
X652161Y110000D01*
X652514Y107324D01*
X653547Y104831D01*
X655190Y102690D01*
X657331Y101047D01*
X659824Y100014D01*
X662500Y99662D01*
X665176Y100014D01*
X667669Y101047D01*
X669810Y102690D01*
X671453Y104831D01*
X672486Y107324D01*
X672838Y110000D01*
X672486Y112676D01*
X671453Y115169D01*
X669810Y117310D01*
X667669Y118953D01*
X665176Y119986D01*
X662500Y120338D01*
D02*
G37*
G36*
X239146Y99980D02*
X235020D01*
Y95854D01*
X235912Y96031D01*
X237744Y97256D01*
X238969Y99088D01*
X239146Y99980D01*
D02*
G37*
G36*
X232480D02*
X228354D01*
X228531Y99088D01*
X229756Y97256D01*
X231588Y96031D01*
X232480Y95854D01*
Y99980D01*
D02*
G37*
G36*
X134146D02*
X130020D01*
Y95854D01*
X130912Y96031D01*
X132744Y97256D01*
X133968Y99088D01*
X134146Y99980D01*
D02*
G37*
G36*
X127480D02*
X123354D01*
X123531Y99088D01*
X124756Y97256D01*
X126588Y96031D01*
X127480Y95854D01*
Y99980D01*
D02*
G37*
G36*
X528750Y149333D02*
X527092Y149003D01*
X525686Y148064D01*
X524747Y146658D01*
X524417Y145000D01*
X524747Y143342D01*
X525686Y141936D01*
X527092Y140997D01*
X528750Y140667D01*
X529658Y140847D01*
X577128Y93378D01*
X577872Y92880D01*
X578750Y92706D01*
X593921D01*
X594436Y91936D01*
X595842Y90997D01*
X597500Y90667D01*
X599158Y90997D01*
X600564Y91936D01*
X601503Y93342D01*
X601833Y95000D01*
X601503Y96658D01*
X600564Y98064D01*
X599158Y99003D01*
X597500Y99333D01*
X595842Y99003D01*
X594436Y98064D01*
X593921Y97294D01*
X579700D01*
X532903Y144092D01*
X533083Y145000D01*
X532753Y146658D01*
X531814Y148064D01*
X530408Y149003D01*
X528750Y149333D01*
D02*
G37*
G36*
X355020Y82896D02*
Y78770D01*
X359146D01*
X358969Y79662D01*
X357744Y81494D01*
X355912Y82719D01*
X355020Y82896D01*
D02*
G37*
G36*
X352480D02*
X351588Y82719D01*
X349756Y81494D01*
X348531Y79662D01*
X348354Y78770D01*
X352480D01*
Y82896D01*
D02*
G37*
G36*
X590020Y79146D02*
Y75020D01*
X594146D01*
X593969Y75912D01*
X592744Y77744D01*
X590912Y78969D01*
X590020Y79146D01*
D02*
G37*
G36*
X587480D02*
X586588Y78969D01*
X584756Y77744D01*
X583531Y75912D01*
X583354Y75020D01*
X587480D01*
Y79146D01*
D02*
G37*
G36*
X662500Y95338D02*
X659824Y94986D01*
X657331Y93953D01*
X655190Y92310D01*
X653547Y90169D01*
X652514Y87676D01*
X652161Y85000D01*
X652514Y82324D01*
X653547Y79831D01*
X655190Y77690D01*
X657331Y76047D01*
X659824Y75014D01*
X662500Y74662D01*
X665176Y75014D01*
X667669Y76047D01*
X669810Y77690D01*
X671453Y79831D01*
X672486Y82324D01*
X672838Y85000D01*
X672486Y87676D01*
X671453Y90169D01*
X669810Y92310D01*
X667669Y93953D01*
X665176Y94986D01*
X662500Y95338D01*
D02*
G37*
G36*
X359146Y76230D02*
X355020D01*
Y72104D01*
X355912Y72281D01*
X357744Y73506D01*
X358969Y75338D01*
X359146Y76230D01*
D02*
G37*
G36*
X352480D02*
X348354D01*
X348531Y75338D01*
X349756Y73506D01*
X351588Y72281D01*
X352480Y72104D01*
Y76230D01*
D02*
G37*
G36*
X594146Y72480D02*
X590020D01*
Y68354D01*
X590912Y68531D01*
X592744Y69756D01*
X593969Y71588D01*
X594146Y72480D01*
D02*
G37*
G36*
X587480D02*
X583354D01*
X583531Y71588D01*
X584756Y69756D01*
X586588Y68531D01*
X587480Y68354D01*
Y72480D01*
D02*
G37*
G36*
X313770Y67896D02*
Y63770D01*
X317896D01*
X317719Y64662D01*
X316494Y66494D01*
X314662Y67719D01*
X313770Y67896D01*
D02*
G37*
G36*
X311230D02*
X310338Y67719D01*
X308506Y66494D01*
X307281Y64662D01*
X307104Y63770D01*
X311230D01*
Y67896D01*
D02*
G37*
G36*
X663770Y70472D02*
Y60270D01*
X673972D01*
X673743Y62013D01*
X672580Y64820D01*
X670730Y67230D01*
X668320Y69080D01*
X665512Y70243D01*
X663770Y70472D01*
D02*
G37*
G36*
X661230D02*
X659487Y70243D01*
X656680Y69080D01*
X654270Y67230D01*
X652420Y64820D01*
X651257Y62013D01*
X651028Y60270D01*
X661230D01*
Y70472D01*
D02*
G37*
G36*
X571270Y62896D02*
Y58770D01*
X575396D01*
X575219Y59662D01*
X573994Y61494D01*
X572162Y62719D01*
X571270Y62896D01*
D02*
G37*
G36*
X568730D02*
X567838Y62719D01*
X566006Y61494D01*
X564781Y59662D01*
X564604Y58770D01*
X568730D01*
Y62896D01*
D02*
G37*
G36*
X317896Y61230D02*
X313770D01*
Y57104D01*
X314662Y57281D01*
X316494Y58506D01*
X317719Y60338D01*
X317896Y61230D01*
D02*
G37*
G36*
X311230D02*
X307104D01*
X307281Y60338D01*
X308506Y58506D01*
X310338Y57281D01*
X311230Y57104D01*
Y61230D01*
D02*
G37*
G36*
X575396Y56230D02*
X571270D01*
Y52104D01*
X572162Y52281D01*
X573994Y53506D01*
X575219Y55338D01*
X575396Y56230D01*
D02*
G37*
G36*
X568730D02*
X564604D01*
X564781Y55338D01*
X566006Y53506D01*
X567838Y52281D01*
X568730Y52104D01*
Y56230D01*
D02*
G37*
G36*
X673972Y57730D02*
X663770D01*
Y47528D01*
X665512Y47757D01*
X668320Y48920D01*
X670730Y50770D01*
X672580Y53180D01*
X673743Y55988D01*
X673972Y57730D01*
D02*
G37*
G36*
X661230D02*
X651028D01*
X651257Y55988D01*
X652420Y53180D01*
X654270Y50770D01*
X656680Y48920D01*
X659487Y47757D01*
X661230Y47528D01*
Y57730D01*
D02*
G37*
G36*
X346020Y47722D02*
Y37520D01*
X356222D01*
X355993Y39262D01*
X354830Y42070D01*
X352980Y44480D01*
X350570Y46330D01*
X347762Y47493D01*
X346020Y47722D01*
D02*
G37*
G36*
X343480Y47722D02*
X341737Y47493D01*
X338930Y46330D01*
X336520Y44480D01*
X334670Y42070D01*
X333507Y39262D01*
X333278Y37520D01*
X343480D01*
Y47722D01*
D02*
G37*
G36*
X584000Y46500D02*
X563500D01*
Y26000D01*
X584000D01*
Y46500D01*
D02*
G37*
G36*
X548750Y46588D02*
X546074Y46236D01*
X543581Y45203D01*
X541440Y43560D01*
X539797Y41419D01*
X538764Y38926D01*
X538411Y36250D01*
X538764Y33574D01*
X539797Y31081D01*
X541440Y28940D01*
X543581Y27297D01*
X546074Y26264D01*
X548750Y25912D01*
X551426Y26264D01*
X553919Y27297D01*
X556060Y28940D01*
X557703Y31081D01*
X558736Y33574D01*
X559088Y36250D01*
X558736Y38926D01*
X557703Y41419D01*
X556060Y43560D01*
X553919Y45203D01*
X551426Y46236D01*
X548750Y46588D01*
D02*
G37*
G36*
X523750D02*
X521074Y46236D01*
X518581Y45203D01*
X516440Y43560D01*
X514797Y41419D01*
X513764Y38926D01*
X513411Y36250D01*
X513764Y33574D01*
X514797Y31081D01*
X516440Y28940D01*
X518581Y27297D01*
X521074Y26264D01*
X523750Y25912D01*
X526426Y26264D01*
X528919Y27297D01*
X531060Y28940D01*
X532703Y31081D01*
X533736Y33574D01*
X534088Y36250D01*
X533736Y38926D01*
X532703Y41419D01*
X531060Y43560D01*
X528919Y45203D01*
X526426Y46236D01*
X523750Y46588D01*
D02*
G37*
G36*
X497750D02*
X495074Y46236D01*
X492581Y45203D01*
X490440Y43560D01*
X488797Y41419D01*
X487764Y38926D01*
X487411Y36250D01*
X487764Y33574D01*
X488797Y31081D01*
X490440Y28940D01*
X492581Y27297D01*
X495074Y26264D01*
X497750Y25912D01*
X500426Y26264D01*
X502919Y27297D01*
X505060Y28940D01*
X506703Y31081D01*
X507736Y33574D01*
X508088Y36250D01*
X507736Y38926D01*
X506703Y41419D01*
X505060Y43560D01*
X502919Y45203D01*
X500426Y46236D01*
X497750Y46588D01*
D02*
G37*
G36*
X473750D02*
X471074Y46236D01*
X468581Y45203D01*
X466440Y43560D01*
X464797Y41419D01*
X463764Y38926D01*
X463411Y36250D01*
X463764Y33574D01*
X464797Y31081D01*
X466440Y28940D01*
X468581Y27297D01*
X471074Y26264D01*
X473750Y25912D01*
X476426Y26264D01*
X478919Y27297D01*
X481060Y28940D01*
X482703Y31081D01*
X483736Y33574D01*
X484088Y36250D01*
X483736Y38926D01*
X482703Y41419D01*
X481060Y43560D01*
X478919Y45203D01*
X476426Y46236D01*
X473750Y46588D01*
D02*
G37*
G36*
X421750D02*
X419074Y46236D01*
X416581Y45203D01*
X414440Y43560D01*
X412797Y41419D01*
X411764Y38926D01*
X411412Y36250D01*
X411764Y33574D01*
X412797Y31081D01*
X414440Y28940D01*
X416581Y27297D01*
X419074Y26264D01*
X421750Y25912D01*
X424426Y26264D01*
X426919Y27297D01*
X429060Y28940D01*
X430703Y31081D01*
X431736Y33574D01*
X432088Y36250D01*
X431736Y38926D01*
X430703Y41419D01*
X429060Y43560D01*
X426919Y45203D01*
X424426Y46236D01*
X421750Y46588D01*
D02*
G37*
G36*
X395750D02*
X393074Y46236D01*
X390581Y45203D01*
X388440Y43560D01*
X386797Y41419D01*
X385764Y38926D01*
X385411Y36250D01*
X385764Y33574D01*
X386797Y31081D01*
X388440Y28940D01*
X390581Y27297D01*
X393074Y26264D01*
X395750Y25912D01*
X398426Y26264D01*
X400919Y27297D01*
X403060Y28940D01*
X404703Y31081D01*
X405736Y33574D01*
X406088Y36250D01*
X405736Y38926D01*
X404703Y41419D01*
X403060Y43560D01*
X400919Y45203D01*
X398426Y46236D01*
X395750Y46588D01*
D02*
G37*
G36*
X370750D02*
X368074Y46236D01*
X365581Y45203D01*
X363440Y43560D01*
X361797Y41419D01*
X360764Y38926D01*
X360411Y36250D01*
X360764Y33574D01*
X361797Y31081D01*
X363440Y28940D01*
X365581Y27297D01*
X368074Y26264D01*
X370750Y25912D01*
X373426Y26264D01*
X375919Y27297D01*
X378060Y28940D01*
X379703Y31081D01*
X380736Y33574D01*
X381088Y36250D01*
X380736Y38926D01*
X379703Y41419D01*
X378060Y43560D01*
X375919Y45203D01*
X373426Y46236D01*
X370750Y46588D01*
D02*
G37*
G36*
X319750D02*
X317074Y46236D01*
X314581Y45203D01*
X312440Y43560D01*
X310797Y41419D01*
X309764Y38926D01*
X309412Y36250D01*
X309764Y33574D01*
X310797Y31081D01*
X312440Y28940D01*
X314581Y27297D01*
X317074Y26264D01*
X319750Y25912D01*
X322426Y26264D01*
X324919Y27297D01*
X327060Y28940D01*
X328703Y31081D01*
X329736Y33574D01*
X330088Y36250D01*
X329736Y38926D01*
X328703Y41419D01*
X327060Y43560D01*
X324919Y45203D01*
X322426Y46236D01*
X319750Y46588D01*
D02*
G37*
G36*
X294750D02*
X292074Y46236D01*
X289581Y45203D01*
X287440Y43560D01*
X285797Y41419D01*
X284764Y38926D01*
X284412Y36250D01*
X284764Y33574D01*
X285797Y31081D01*
X287440Y28940D01*
X289581Y27297D01*
X292074Y26264D01*
X294750Y25912D01*
X297426Y26264D01*
X299919Y27297D01*
X302060Y28940D01*
X303703Y31081D01*
X304736Y33574D01*
X305088Y36250D01*
X304736Y38926D01*
X303703Y41419D01*
X302060Y43560D01*
X299919Y45203D01*
X297426Y46236D01*
X294750Y46588D01*
D02*
G37*
G36*
X268750D02*
X266074Y46236D01*
X263581Y45203D01*
X261440Y43560D01*
X259797Y41419D01*
X258764Y38926D01*
X258412Y36250D01*
X258764Y33574D01*
X259797Y31081D01*
X261440Y28940D01*
X263581Y27297D01*
X266074Y26264D01*
X268750Y25912D01*
X271426Y26264D01*
X273919Y27297D01*
X276060Y28940D01*
X277703Y31081D01*
X278736Y33574D01*
X279088Y36250D01*
X278736Y38926D01*
X277703Y41419D01*
X276060Y43560D01*
X273919Y45203D01*
X271426Y46236D01*
X268750Y46588D01*
D02*
G37*
G36*
X243750D02*
X241074Y46236D01*
X238581Y45203D01*
X236440Y43560D01*
X234797Y41419D01*
X233764Y38926D01*
X233412Y36250D01*
X233764Y33574D01*
X234797Y31081D01*
X236440Y28940D01*
X238581Y27297D01*
X241074Y26264D01*
X243750Y25912D01*
X246426Y26264D01*
X248919Y27297D01*
X251060Y28940D01*
X252703Y31081D01*
X253736Y33574D01*
X254088Y36250D01*
X253736Y38926D01*
X252703Y41419D01*
X251060Y43560D01*
X248919Y45203D01*
X246426Y46236D01*
X243750Y46588D01*
D02*
G37*
G36*
X217750D02*
X215074Y46236D01*
X212581Y45203D01*
X210440Y43560D01*
X208797Y41419D01*
X207764Y38926D01*
X207411Y36250D01*
X207764Y33574D01*
X208797Y31081D01*
X210440Y28940D01*
X212581Y27297D01*
X215074Y26264D01*
X217750Y25912D01*
X220426Y26264D01*
X222919Y27297D01*
X225060Y28940D01*
X226703Y31081D01*
X227736Y33574D01*
X228088Y36250D01*
X227736Y38926D01*
X226703Y41419D01*
X225060Y43560D01*
X222919Y45203D01*
X220426Y46236D01*
X217750Y46588D01*
D02*
G37*
G36*
X192750D02*
X190074Y46236D01*
X187581Y45203D01*
X185440Y43560D01*
X183797Y41419D01*
X182764Y38926D01*
X182411Y36250D01*
X182764Y33574D01*
X183797Y31081D01*
X185440Y28940D01*
X187581Y27297D01*
X190074Y26264D01*
X192750Y25912D01*
X195426Y26264D01*
X197919Y27297D01*
X200060Y28940D01*
X201703Y31081D01*
X202736Y33574D01*
X203088Y36250D01*
X202736Y38926D01*
X201703Y41419D01*
X200060Y43560D01*
X197919Y45203D01*
X195426Y46236D01*
X192750Y46588D01*
D02*
G37*
G36*
X116750D02*
X114074Y46236D01*
X111581Y45203D01*
X109440Y43560D01*
X107797Y41419D01*
X106764Y38926D01*
X106412Y36250D01*
X106764Y33574D01*
X107797Y31081D01*
X109440Y28940D01*
X111581Y27297D01*
X114074Y26264D01*
X116750Y25912D01*
X119426Y26264D01*
X121919Y27297D01*
X124060Y28940D01*
X125703Y31081D01*
X126736Y33574D01*
X127088Y36250D01*
X126736Y38926D01*
X125703Y41419D01*
X124060Y43560D01*
X121919Y45203D01*
X119426Y46236D01*
X116750Y46588D01*
D02*
G37*
G36*
X90750D02*
X88074Y46236D01*
X85581Y45203D01*
X83440Y43560D01*
X81797Y41419D01*
X80764Y38926D01*
X80412Y36250D01*
X80764Y33574D01*
X81797Y31081D01*
X83440Y28940D01*
X85581Y27297D01*
X88074Y26264D01*
X90750Y25912D01*
X93426Y26264D01*
X95919Y27297D01*
X98060Y28940D01*
X99703Y31081D01*
X100736Y33574D01*
X101088Y36250D01*
X100736Y38926D01*
X99703Y41419D01*
X98060Y43560D01*
X95919Y45203D01*
X93426Y46236D01*
X90750Y46588D01*
D02*
G37*
G36*
X356222Y34980D02*
X346020D01*
Y24778D01*
X347762Y25007D01*
X350570Y26170D01*
X352980Y28020D01*
X354830Y30430D01*
X355993Y33237D01*
X356222Y34980D01*
D02*
G37*
G36*
X343480D02*
X333278D01*
X333507Y33237D01*
X334670Y30430D01*
X336520Y28020D01*
X338930Y26170D01*
X341737Y25007D01*
X343480Y24778D01*
Y34980D01*
D02*
G37*
%LPD*%
G36*
X331115Y220586D02*
X330997Y220408D01*
X330667Y218750D01*
X330847Y217842D01*
X299628Y186622D01*
X299130Y185878D01*
X298956Y185000D01*
Y181079D01*
X298186Y180564D01*
X297247Y179158D01*
X296917Y177500D01*
X297247Y175842D01*
X297933Y174814D01*
X297409Y173544D01*
X287329D01*
X286814Y174314D01*
X285408Y175253D01*
X283750Y175583D01*
X282968Y175428D01*
X282342Y176598D01*
X327450Y221706D01*
X330517D01*
X331115Y220586D01*
D02*
G37*
D10*
X286000Y107825D02*
X330075Y63750D01*
X286000Y107825D02*
Y131996D01*
X288750Y134747D01*
X330075Y63750D02*
X377500D01*
X334229Y55000D02*
X428000D01*
X258750Y130479D02*
X334229Y55000D01*
X258750Y130479D02*
Y178750D01*
X345325Y112750D02*
X420250D01*
X445000Y137500D01*
X342575Y110000D02*
X345325Y112750D01*
X291250Y110000D02*
X342575D01*
X347500Y107500D02*
X390000Y65000D01*
Y63750D02*
Y65000D01*
X585000Y125000D02*
X601250Y108750D01*
X585000Y125000D02*
Y192500D01*
X271334Y191000D02*
X276420Y196087D01*
X264229Y196250D02*
X267500D01*
X263575Y191000D02*
X271334D01*
X167750Y95175D02*
X263575Y191000D01*
X301250Y177500D02*
Y185000D01*
X335000Y218750D01*
X473500Y224000D02*
X483750Y213750D01*
X326500Y224000D02*
X473500D01*
X275000Y172500D02*
X326500Y224000D01*
X278750Y185000D02*
X297500Y203750D01*
Y232500D01*
X283750Y171250D02*
X455000D01*
X288750Y134747D02*
Y151250D01*
X428000Y55000D02*
X446750Y36250D01*
X578750Y95000D02*
X597500D01*
X528750Y145000D02*
X578750Y95000D01*
X141750Y73771D02*
X264229Y196250D01*
X141750Y36250D02*
Y73771D01*
X167750Y36250D02*
Y95175D01*
X268750Y172500D02*
X275000D01*
X445000Y137500D02*
X455000D01*
X517500Y76250D02*
Y93750D01*
X462500Y148750D02*
X517500Y93750D01*
X308750Y148750D02*
X462500D01*
X411250Y208750D02*
Y213750D01*
X386250Y183750D02*
X411250Y208750D01*
X308750Y183750D02*
X386250D01*
D44*
X306510Y238750D02*
X319750Y251990D01*
X281250Y238750D02*
X306510D01*
X243750Y201250D02*
X281250Y238750D01*
X92500Y201250D02*
X243750D01*
X503750Y206250D02*
X560000Y150000D01*
Y138750D02*
Y150000D01*
X92500Y102500D02*
Y201250D01*
X303750Y158750D02*
X306875Y155625D01*
X459375D01*
X503750Y200000D01*
Y206250D01*
D46*
X662500Y135000D02*
D03*
D47*
Y110000D02*
D03*
Y85000D02*
D03*
Y59000D02*
D03*
X268750Y36250D02*
D03*
X243750D02*
D03*
X548750D02*
D03*
X217750D02*
D03*
X523750D02*
D03*
X192750D02*
D03*
X497750D02*
D03*
X167750D02*
D03*
X473750D02*
D03*
X141750D02*
D03*
X446750D02*
D03*
X294750D02*
D03*
X319750D02*
D03*
X344750D02*
D03*
X370750D02*
D03*
X395750D02*
D03*
X421750D02*
D03*
X116750D02*
D03*
X90750D02*
D03*
X243750Y251990D02*
D03*
X548750D02*
D03*
X217750D02*
D03*
X523750D02*
D03*
X192750D02*
D03*
X497750D02*
D03*
X167750D02*
D03*
X473750D02*
D03*
X141750D02*
D03*
X446750D02*
D03*
X294750D02*
D03*
X319750D02*
D03*
X344750D02*
D03*
X370750D02*
D03*
X395750D02*
D03*
X421750D02*
D03*
X116750D02*
D03*
X90750D02*
D03*
D48*
X573750Y36250D02*
D03*
Y251990D02*
D03*
D49*
X338750Y190000D02*
D03*
X300000Y116250D02*
D03*
X291250Y110000D02*
D03*
X210000Y185000D02*
D03*
X115000Y165000D02*
D03*
X312500Y62500D02*
D03*
X353750Y77500D02*
D03*
X570000Y57500D02*
D03*
X588750Y73750D02*
D03*
X608750Y177500D02*
D03*
X610000Y150000D02*
D03*
X605000Y121250D02*
D03*
X581250Y108750D02*
D03*
X482500Y112500D02*
D03*
X526250Y117500D02*
D03*
X492500Y153750D02*
D03*
X522500Y207500D02*
D03*
X510000Y177500D02*
D03*
X457500Y190000D02*
D03*
X371250Y107500D02*
D03*
X346250Y130000D02*
D03*
X273750Y156250D02*
D03*
X213750Y215000D02*
D03*
X147500Y191250D02*
D03*
X162500Y153750D02*
D03*
X171250Y131250D02*
D03*
X233750Y101250D02*
D03*
X128750D02*
D03*
X600000Y108750D02*
D03*
X585000Y192500D02*
D03*
X276420Y196087D02*
D03*
X267500Y196250D02*
D03*
X560000Y138750D02*
D03*
X388750Y63750D02*
D03*
X347500Y107500D02*
D03*
X301250Y177500D02*
D03*
X335000Y218750D02*
D03*
X297500Y232500D02*
D03*
X283750Y171250D02*
D03*
X288750Y151250D02*
D03*
X377500Y63750D02*
D03*
X278750Y185000D02*
D03*
X92500Y201250D02*
D03*
Y102500D02*
D03*
X597500Y95000D02*
D03*
X528750Y145000D02*
D03*
X455000Y171250D02*
D03*
X303750Y158750D02*
D03*
X503750Y206250D02*
D03*
X483750Y213750D02*
D03*
X268750Y172500D02*
D03*
X258750Y178750D02*
D03*
X455000Y137500D02*
D03*
X517500Y76250D02*
D03*
X308750Y148750D02*
D03*
X411250Y213750D02*
D03*
X308750Y183750D02*
D03*
M02*
