M48
;Layer_Color=9474304
;FILE_FORMAT=4:4
METRIC,LZ
;TYPE=PLATED
T1F00S00C0.3000
T2F00S00C1.2000
%
T01
X00605Y0012125
X006Y0010875
X005975Y00095
X0058875Y0007375
X0057Y000575
X0058125Y0010875
X0052625Y001175
X004825Y001125
X005175Y0007625
X0038875Y0006375
X003775
X0035375Y000775
X003475Y001075
X0037125
X003Y0011625
X0029125Y0011
X0023375Y0010125
X003125Y000625
X0012875Y0010125
X000925Y001025
X00115Y00165
X001475Y0019125
X001625Y0015375
X0017125Y0013125
X000925Y0020125
X0021Y00185
X0021375Y00215
X002675Y0019625
X0027642Y00196087
X0027875Y00185
X0028375Y0017125
X0026875Y001725
X0025875Y0017875
X0027375Y0015625
X0028875Y0015125
X0030875Y0014875
X0030375Y0015875
X0030125Y001775
X0030875Y0018375
X0033875Y0019
X00335Y0021875
X002975Y002325
X0041125Y0021375
X004575Y0019
X00455Y0017125
Y001375
X004925Y0015375
X0051Y001775
X0050375Y0020625
X005225Y002075
X0048375Y0021375
X0052875Y00145
X0056Y0013875
X00585Y001925
X0034625Y0013
X0061Y0015
X0060875Y001775
T02
X006625Y00059
Y00085
Y0011
X0057375Y0003625
X0054875
X0052375
X0049775
X0047375
X0044675
X0042175
X0039575
X0037075
X0034475
X0031975
X0029475
X0026875
X0024375
X0021775
X0019275
X0016775
X0014175
X0011675
X0009075
Y0025199
X0011675
X0014175
X0016775
X0019275
X0021775
X0024375
X0029475
X0031975
X0034475
X0037075
X0039575
X0042175
X0044675
X0047375
X0049775
X0052375
X0054875
X0057375
X006625Y00135
M30
