G04*
G04 #@! TF.GenerationSoftware,Altium Limited,Altium Designer,19.1.5 (86)*
G04*
G04 Layer_Color=128*
%FSLAX44Y44*%
%MOMM*%
G71*
G01*
G75*
%ADD101C,0.0508*%
D101*
X656500Y135000D02*
X668500D01*
X662500Y129000D02*
Y141000D01*
X656500Y110000D02*
X668500D01*
X662500Y104000D02*
Y116000D01*
X656500Y85000D02*
X668500D01*
X662500Y79000D02*
Y91000D01*
X656500Y59000D02*
X668500D01*
X662500Y53000D02*
Y65000D01*
X262750Y36250D02*
X274750D01*
X268750Y30250D02*
Y42250D01*
X567750Y36250D02*
X579750D01*
X573750Y30250D02*
Y42250D01*
X237750Y36250D02*
X249750D01*
X243750Y30250D02*
Y42250D01*
X542750Y36250D02*
X554750D01*
X548750Y30250D02*
Y42250D01*
X211750Y36250D02*
X223750D01*
X217750Y30250D02*
Y42250D01*
X517750Y36250D02*
X529750D01*
X523750Y30250D02*
Y42250D01*
X186750Y36250D02*
X198750D01*
X192750Y30250D02*
Y42250D01*
X491750Y36250D02*
X503750D01*
X497750Y30250D02*
Y42250D01*
X161750Y36250D02*
X173750D01*
X167750Y30250D02*
Y42250D01*
X467750Y36250D02*
X479750D01*
X473750Y30250D02*
Y42250D01*
X135750Y36250D02*
X147750D01*
X141750Y30250D02*
Y42250D01*
X440750Y36250D02*
X452750D01*
X446750Y30250D02*
Y42250D01*
X288750Y36250D02*
X300750D01*
X294750Y30250D02*
Y42250D01*
X313750Y36250D02*
X325750D01*
X319750Y30250D02*
Y42250D01*
X338750Y36250D02*
X350750D01*
X344750Y30250D02*
Y42250D01*
X364750Y36250D02*
X376750D01*
X370750Y30250D02*
Y42250D01*
X389750Y36250D02*
X401750D01*
X395750Y30250D02*
Y42250D01*
X415750Y36250D02*
X427750D01*
X421750Y30250D02*
Y42250D01*
X110750Y36250D02*
X122750D01*
X116750Y30250D02*
Y42250D01*
X84750Y36250D02*
X96750D01*
X90750Y30250D02*
Y42250D01*
X567750Y251990D02*
X579750D01*
X573750Y245990D02*
Y257990D01*
X237750Y251990D02*
X249750D01*
X243750Y245990D02*
Y257990D01*
X542750Y251990D02*
X554750D01*
X548750Y245990D02*
Y257990D01*
X211750Y251990D02*
X223750D01*
X217750Y245990D02*
Y257990D01*
X517750Y251990D02*
X529750D01*
X523750Y245990D02*
Y257990D01*
X186750Y251990D02*
X198750D01*
X192750Y245990D02*
Y257990D01*
X491750Y251990D02*
X503750D01*
X497750Y245990D02*
Y257990D01*
X161750Y251990D02*
X173750D01*
X167750Y245990D02*
Y257990D01*
X467750Y251990D02*
X479750D01*
X473750Y245990D02*
Y257990D01*
X135750Y251990D02*
X147750D01*
X141750Y245990D02*
Y257990D01*
X440750Y251990D02*
X452750D01*
X446750Y245990D02*
Y257990D01*
X288750Y251990D02*
X300750D01*
X294750Y245990D02*
Y257990D01*
X313750Y251990D02*
X325750D01*
X319750Y245990D02*
Y257990D01*
X338750Y251990D02*
X350750D01*
X344750Y245990D02*
Y257990D01*
X364750Y251990D02*
X376750D01*
X370750Y245990D02*
Y257990D01*
X389750Y251990D02*
X401750D01*
X395750Y245990D02*
Y257990D01*
X415750Y251990D02*
X427750D01*
X421750Y245990D02*
Y257990D01*
X110750Y251990D02*
X122750D01*
X116750Y245990D02*
Y257990D01*
X84750Y251990D02*
X96750D01*
X90750Y245990D02*
Y257990D01*
X337250Y190000D02*
X340250D01*
X338750Y188500D02*
Y191500D01*
X298500Y116250D02*
X301500D01*
X300000Y114750D02*
Y117750D01*
X289750Y110000D02*
X292750D01*
X291250Y108500D02*
Y111500D01*
X208500Y185000D02*
X211500D01*
X210000Y183500D02*
Y186500D01*
X113500Y165000D02*
X116500D01*
X115000Y163500D02*
Y166500D01*
X311000Y62500D02*
X314000D01*
X312500Y61000D02*
Y64000D01*
X352250Y77500D02*
X355250D01*
X353750Y76000D02*
Y79000D01*
X568500Y57500D02*
X571500D01*
X570000Y56000D02*
Y59000D01*
X587250Y73750D02*
X590250D01*
X588750Y72250D02*
Y75250D01*
X607250Y177500D02*
X610250D01*
X608750Y176000D02*
Y179000D01*
X608500Y150000D02*
X611500D01*
X610000Y148500D02*
Y151500D01*
X603500Y121250D02*
X606500D01*
X605000Y119750D02*
Y122750D01*
X579750Y108750D02*
X582750D01*
X581250Y107250D02*
Y110250D01*
X481000Y112500D02*
X484000D01*
X482500Y111000D02*
Y114000D01*
X524750Y117500D02*
X527750D01*
X526250Y116000D02*
Y119000D01*
X491000Y153750D02*
X494000D01*
X492500Y152250D02*
Y155250D01*
X521000Y207500D02*
X524000D01*
X522500Y206000D02*
Y209000D01*
X508500Y177500D02*
X511500D01*
X510000Y176000D02*
Y179000D01*
X456000Y190000D02*
X459000D01*
X457500Y188500D02*
Y191500D01*
X369750Y107500D02*
X372750D01*
X371250Y106000D02*
Y109000D01*
X344750Y130000D02*
X347750D01*
X346250Y128500D02*
Y131500D01*
X272250Y156250D02*
X275250D01*
X273750Y154750D02*
Y157750D01*
X212250Y215000D02*
X215250D01*
X213750Y213500D02*
Y216500D01*
X146000Y191250D02*
X149000D01*
X147500Y189750D02*
Y192750D01*
X161000Y153750D02*
X164000D01*
X162500Y152250D02*
Y155250D01*
X169750Y131250D02*
X172750D01*
X171250Y129750D02*
Y132750D01*
X232250Y101250D02*
X235250D01*
X233750Y99750D02*
Y102750D01*
X127250Y101250D02*
X130250D01*
X128750Y99750D02*
Y102750D01*
X598500Y108750D02*
X601500D01*
X600000Y107250D02*
Y110250D01*
X583500Y192500D02*
X586500D01*
X585000Y191000D02*
Y194000D01*
X274920Y196087D02*
X277920D01*
X276420Y194587D02*
Y197587D01*
X266000Y196250D02*
X269000D01*
X267500Y194750D02*
Y197750D01*
X558500Y138750D02*
X561500D01*
X560000Y137250D02*
Y140250D01*
X387250Y63750D02*
X390250D01*
X388750Y62250D02*
Y65250D01*
X346000Y107500D02*
X349000D01*
X347500Y106000D02*
Y109000D01*
X299750Y177500D02*
X302750D01*
X301250Y176000D02*
Y179000D01*
X333500Y218750D02*
X336500D01*
X335000Y217250D02*
Y220250D01*
X296000Y232500D02*
X299000D01*
X297500Y231000D02*
Y234000D01*
X282250Y171250D02*
X285250D01*
X283750Y169750D02*
Y172750D01*
X287250Y151250D02*
X290250D01*
X288750Y149750D02*
Y152750D01*
X376000Y63750D02*
X379000D01*
X377500Y62250D02*
Y65250D01*
X277250Y185000D02*
X280250D01*
X278750Y183500D02*
Y186500D01*
X91000Y201250D02*
X94000D01*
X92500Y199750D02*
Y202750D01*
X91000Y102500D02*
X94000D01*
X92500Y101000D02*
Y104000D01*
X596000Y95000D02*
X599000D01*
X597500Y93500D02*
Y96500D01*
X527250Y145000D02*
X530250D01*
X528750Y143500D02*
Y146500D01*
X453500Y171250D02*
X456500D01*
X455000Y169750D02*
Y172750D01*
X302250Y158750D02*
X305250D01*
X303750Y157250D02*
Y160250D01*
X502250Y206250D02*
X505250D01*
X503750Y204750D02*
Y207750D01*
X482250Y213750D02*
X485250D01*
X483750Y212250D02*
Y215250D01*
X267250Y172500D02*
X270250D01*
X268750Y171000D02*
Y174000D01*
X257250Y178750D02*
X260250D01*
X258750Y177250D02*
Y180250D01*
X453500Y137500D02*
X456500D01*
X455000Y136000D02*
Y139000D01*
X516000Y76250D02*
X519000D01*
X517500Y74750D02*
Y77750D01*
X307250Y148750D02*
X310250D01*
X308750Y147250D02*
Y150250D01*
X409750Y213750D02*
X412750D01*
X411250Y212250D02*
Y215250D01*
X307250Y183750D02*
X310250D01*
X308750Y182250D02*
Y185250D01*
M02*
