G04*
G04 #@! TF.GenerationSoftware,Altium Limited,Altium Designer,19.1.5 (86)*
G04*
G04 Layer_Color=2752767*
%FSLAX44Y44*%
%MOMM*%
G71*
G01*
G75*
%ADD101C,0.0508*%
%ADD102C,0.0677*%
D101*
X660468Y132968D02*
Y137032D01*
X664532D01*
Y132968D01*
X660468D01*
Y107968D02*
Y112032D01*
X664532D01*
Y107968D01*
X660468D01*
Y82968D02*
Y87032D01*
X664532D01*
Y82968D01*
X660468D01*
Y56968D02*
Y61032D01*
X664532D01*
Y56968D01*
X660468D01*
X266718Y34218D02*
Y38282D01*
X270782D01*
Y34218D01*
X266718D01*
X571718D02*
Y38282D01*
X575782D01*
Y34218D01*
X571718D01*
X241718D02*
Y38282D01*
X245782D01*
Y34218D01*
X241718D01*
X546718D02*
Y38282D01*
X550782D01*
Y34218D01*
X546718D01*
X215718D02*
Y38282D01*
X219782D01*
Y34218D01*
X215718D01*
X521718D02*
Y38282D01*
X525782D01*
Y34218D01*
X521718D01*
X190718D02*
Y38282D01*
X194782D01*
Y34218D01*
X190718D01*
X495718D02*
Y38282D01*
X499782D01*
Y34218D01*
X495718D01*
X165718D02*
Y38282D01*
X169782D01*
Y34218D01*
X165718D01*
X471718D02*
Y38282D01*
X475782D01*
Y34218D01*
X471718D01*
X139718D02*
Y38282D01*
X143782D01*
Y34218D01*
X139718D01*
X444718D02*
Y38282D01*
X448782D01*
Y34218D01*
X444718D01*
X292718D02*
Y38282D01*
X296782D01*
Y34218D01*
X292718D01*
X317718D02*
Y38282D01*
X321782D01*
Y34218D01*
X317718D01*
X342718D02*
Y38282D01*
X346782D01*
Y34218D01*
X342718D01*
X368718D02*
Y38282D01*
X372782D01*
Y34218D01*
X368718D01*
X393718D02*
Y38282D01*
X397782D01*
Y34218D01*
X393718D01*
X419718D02*
Y38282D01*
X423782D01*
Y34218D01*
X419718D01*
X114718D02*
Y38282D01*
X118782D01*
Y34218D01*
X114718D01*
X88718D02*
Y38282D01*
X92782D01*
Y34218D01*
X88718D01*
X571718Y249958D02*
Y254022D01*
X575782D01*
Y249958D01*
X571718D01*
X241718D02*
Y254022D01*
X245782D01*
Y249958D01*
X241718D01*
X546718D02*
Y254022D01*
X550782D01*
Y249958D01*
X546718D01*
X215718D02*
Y254022D01*
X219782D01*
Y249958D01*
X215718D01*
X521718D02*
Y254022D01*
X525782D01*
Y249958D01*
X521718D01*
X190718D02*
Y254022D01*
X194782D01*
Y249958D01*
X190718D01*
X495718D02*
Y254022D01*
X499782D01*
Y249958D01*
X495718D01*
X165718D02*
Y254022D01*
X169782D01*
Y249958D01*
X165718D01*
X471718D02*
Y254022D01*
X475782D01*
Y249958D01*
X471718D01*
X139718D02*
Y254022D01*
X143782D01*
Y249958D01*
X139718D01*
X444718D02*
Y254022D01*
X448782D01*
Y249958D01*
X444718D01*
X292718D02*
Y254022D01*
X296782D01*
Y249958D01*
X292718D01*
X317718D02*
Y254022D01*
X321782D01*
Y249958D01*
X317718D01*
X342718D02*
Y254022D01*
X346782D01*
Y249958D01*
X342718D01*
X368718D02*
Y254022D01*
X372782D01*
Y249958D01*
X368718D01*
X393718D02*
Y254022D01*
X397782D01*
Y249958D01*
X393718D01*
X419718D02*
Y254022D01*
X423782D01*
Y249958D01*
X419718D01*
X114718D02*
Y254022D01*
X118782D01*
Y249958D01*
X114718D01*
X88718D02*
Y254022D01*
X92782D01*
Y249958D01*
X88718D01*
D102*
X340782Y190000D02*
G03*
X340782Y190000I-2032J0D01*
G01*
X302032Y116250D02*
G03*
X302032Y116250I-2032J0D01*
G01*
X293282Y110000D02*
G03*
X293282Y110000I-2032J0D01*
G01*
X212032Y185000D02*
G03*
X212032Y185000I-2032J0D01*
G01*
X117032Y165000D02*
G03*
X117032Y165000I-2032J0D01*
G01*
X314532Y62500D02*
G03*
X314532Y62500I-2032J0D01*
G01*
X355782Y77500D02*
G03*
X355782Y77500I-2032J0D01*
G01*
X572032Y57500D02*
G03*
X572032Y57500I-2032J0D01*
G01*
X590782Y73750D02*
G03*
X590782Y73750I-2032J0D01*
G01*
X610782Y177500D02*
G03*
X610782Y177500I-2032J0D01*
G01*
X612032Y150000D02*
G03*
X612032Y150000I-2032J0D01*
G01*
X607032Y121250D02*
G03*
X607032Y121250I-2032J0D01*
G01*
X583282Y108750D02*
G03*
X583282Y108750I-2032J0D01*
G01*
X484532Y112500D02*
G03*
X484532Y112500I-2032J0D01*
G01*
X528282Y117500D02*
G03*
X528282Y117500I-2032J0D01*
G01*
X494532Y153750D02*
G03*
X494532Y153750I-2032J0D01*
G01*
X524532Y207500D02*
G03*
X524532Y207500I-2032J0D01*
G01*
X512032Y177500D02*
G03*
X512032Y177500I-2032J0D01*
G01*
X459532Y190000D02*
G03*
X459532Y190000I-2032J0D01*
G01*
X373282Y107500D02*
G03*
X373282Y107500I-2032J0D01*
G01*
X348282Y130000D02*
G03*
X348282Y130000I-2032J0D01*
G01*
X275782Y156250D02*
G03*
X275782Y156250I-2032J0D01*
G01*
X215782Y215000D02*
G03*
X215782Y215000I-2032J0D01*
G01*
X149532Y191250D02*
G03*
X149532Y191250I-2032J0D01*
G01*
X164532Y153750D02*
G03*
X164532Y153750I-2032J0D01*
G01*
X173282Y131250D02*
G03*
X173282Y131250I-2032J0D01*
G01*
X235782Y101250D02*
G03*
X235782Y101250I-2032J0D01*
G01*
X130782D02*
G03*
X130782Y101250I-2032J0D01*
G01*
X602032Y108750D02*
G03*
X602032Y108750I-2032J0D01*
G01*
X587032Y192500D02*
G03*
X587032Y192500I-2032J0D01*
G01*
X278452Y196087D02*
G03*
X278452Y196087I-2032J0D01*
G01*
X269532Y196250D02*
G03*
X269532Y196250I-2032J0D01*
G01*
X562032Y138750D02*
G03*
X562032Y138750I-2032J0D01*
G01*
X390782Y63750D02*
G03*
X390782Y63750I-2032J0D01*
G01*
X349532Y107500D02*
G03*
X349532Y107500I-2032J0D01*
G01*
X303282Y177500D02*
G03*
X303282Y177500I-2032J0D01*
G01*
X337032Y218750D02*
G03*
X337032Y218750I-2032J0D01*
G01*
X299532Y232500D02*
G03*
X299532Y232500I-2032J0D01*
G01*
X285782Y171250D02*
G03*
X285782Y171250I-2032J0D01*
G01*
X290782Y151250D02*
G03*
X290782Y151250I-2032J0D01*
G01*
X379532Y63750D02*
G03*
X379532Y63750I-2032J0D01*
G01*
X280782Y185000D02*
G03*
X280782Y185000I-2032J0D01*
G01*
X94532Y201250D02*
G03*
X94532Y201250I-2032J0D01*
G01*
Y102500D02*
G03*
X94532Y102500I-2032J0D01*
G01*
X599532Y95000D02*
G03*
X599532Y95000I-2032J0D01*
G01*
X530782Y145000D02*
G03*
X530782Y145000I-2032J0D01*
G01*
X457032Y171250D02*
G03*
X457032Y171250I-2032J0D01*
G01*
X305782Y158750D02*
G03*
X305782Y158750I-2032J0D01*
G01*
X505782Y206250D02*
G03*
X505782Y206250I-2032J0D01*
G01*
X485782Y213750D02*
G03*
X485782Y213750I-2032J0D01*
G01*
X270782Y172500D02*
G03*
X270782Y172500I-2032J0D01*
G01*
X260782Y178750D02*
G03*
X260782Y178750I-2032J0D01*
G01*
X457032Y137500D02*
G03*
X457032Y137500I-2032J0D01*
G01*
X519532Y76250D02*
G03*
X519532Y76250I-2032J0D01*
G01*
X310782Y148750D02*
G03*
X310782Y148750I-2032J0D01*
G01*
X413282Y213750D02*
G03*
X413282Y213750I-2032J0D01*
G01*
X310782Y183750D02*
G03*
X310782Y183750I-2032J0D01*
G01*
M02*
