G04*
G04 #@! TF.GenerationSoftware,Altium Limited,Altium Designer,19.1.5 (86)*
G04*
G04 Layer_Physical_Order=1*
G04 Layer_Color=255*
%FSLAX44Y44*%
%MOMM*%
G71*
G01*
G75*
%ADD10C,0.2000*%
%ADD16R,2.1800X1.6000*%
%ADD17R,2.2352X1.2192*%
%ADD18R,2.2000X3.6000*%
%ADD19R,1.8000X1.2300*%
%ADD21R,1.5600X0.2800*%
%ADD22R,0.2800X1.5600*%
%ADD25R,1.4000X1.2000*%
%ADD26O,1.0000X0.8000*%
%ADD41R,0.8000X0.8500*%
%ADD42R,0.7000X0.8500*%
%ADD43R,0.8500X0.8000*%
%ADD44C,0.4000*%
%ADD45C,0.3500*%
%ADD46R,1.8000X1.8000*%
%ADD47C,1.8000*%
%ADD48R,1.8000X1.8000*%
%ADD49C,0.6000*%
G36*
X732500Y255000D02*
Y42500D01*
X695000Y5000D01*
X51250D01*
X7500Y48750D01*
Y255000D01*
X45000Y292500D01*
X695000D01*
X732500Y255000D01*
D02*
G37*
%LPC*%
G36*
X296020Y263462D02*
Y253260D01*
X306222D01*
X305993Y255002D01*
X304830Y257810D01*
X302980Y260220D01*
X300570Y262070D01*
X297763Y263233D01*
X296020Y263462D01*
D02*
G37*
G36*
X293480Y263462D02*
X291737Y263233D01*
X288930Y262070D01*
X286520Y260220D01*
X284670Y257810D01*
X283507Y255002D01*
X283278Y253260D01*
X293480D01*
Y263462D01*
D02*
G37*
G36*
X584000Y262240D02*
X563500D01*
Y241740D01*
X584000D01*
Y262240D01*
D02*
G37*
G36*
X548750Y262328D02*
X546074Y261976D01*
X543581Y260943D01*
X541440Y259300D01*
X539797Y257159D01*
X538764Y254666D01*
X538411Y251990D01*
X538764Y249314D01*
X539797Y246821D01*
X541440Y244680D01*
X543581Y243037D01*
X546074Y242004D01*
X548750Y241652D01*
X551426Y242004D01*
X553919Y243037D01*
X556060Y244680D01*
X557703Y246821D01*
X558736Y249314D01*
X559088Y251990D01*
X558736Y254666D01*
X557703Y257159D01*
X556060Y259300D01*
X553919Y260943D01*
X551426Y261976D01*
X548750Y262328D01*
D02*
G37*
G36*
X523750D02*
X521074Y261976D01*
X518581Y260943D01*
X516440Y259300D01*
X514797Y257159D01*
X513764Y254666D01*
X513411Y251990D01*
X513764Y249314D01*
X514797Y246821D01*
X516440Y244680D01*
X518581Y243037D01*
X521074Y242004D01*
X523750Y241652D01*
X526426Y242004D01*
X528919Y243037D01*
X531060Y244680D01*
X532703Y246821D01*
X533736Y249314D01*
X534088Y251990D01*
X533736Y254666D01*
X532703Y257159D01*
X531060Y259300D01*
X528919Y260943D01*
X526426Y261976D01*
X523750Y262328D01*
D02*
G37*
G36*
X497750D02*
X495074Y261976D01*
X492581Y260943D01*
X490440Y259300D01*
X488797Y257159D01*
X487764Y254666D01*
X487411Y251990D01*
X487764Y249314D01*
X488797Y246821D01*
X490440Y244680D01*
X492581Y243037D01*
X495074Y242004D01*
X497750Y241652D01*
X500426Y242004D01*
X502919Y243037D01*
X505060Y244680D01*
X506703Y246821D01*
X507736Y249314D01*
X508088Y251990D01*
X507736Y254666D01*
X506703Y257159D01*
X505060Y259300D01*
X502919Y260943D01*
X500426Y261976D01*
X497750Y262328D01*
D02*
G37*
G36*
X473750D02*
X471074Y261976D01*
X468581Y260943D01*
X466440Y259300D01*
X464797Y257159D01*
X463764Y254666D01*
X463411Y251990D01*
X463764Y249314D01*
X464797Y246821D01*
X466440Y244680D01*
X468581Y243037D01*
X471074Y242004D01*
X473750Y241652D01*
X476426Y242004D01*
X478919Y243037D01*
X481060Y244680D01*
X482703Y246821D01*
X483736Y249314D01*
X484088Y251990D01*
X483736Y254666D01*
X482703Y257159D01*
X481060Y259300D01*
X478919Y260943D01*
X476426Y261976D01*
X473750Y262328D01*
D02*
G37*
G36*
X446750D02*
X444074Y261976D01*
X441581Y260943D01*
X439440Y259300D01*
X437797Y257159D01*
X436764Y254666D01*
X436412Y251990D01*
X436764Y249314D01*
X437797Y246821D01*
X439440Y244680D01*
X441581Y243037D01*
X444074Y242004D01*
X446750Y241652D01*
X449426Y242004D01*
X451919Y243037D01*
X454060Y244680D01*
X455703Y246821D01*
X456736Y249314D01*
X457088Y251990D01*
X456736Y254666D01*
X455703Y257159D01*
X454060Y259300D01*
X451919Y260943D01*
X449426Y261976D01*
X446750Y262328D01*
D02*
G37*
G36*
X421750D02*
X419074Y261976D01*
X416581Y260943D01*
X414440Y259300D01*
X412797Y257159D01*
X411764Y254666D01*
X411412Y251990D01*
X411764Y249314D01*
X412797Y246821D01*
X414440Y244680D01*
X416581Y243037D01*
X419074Y242004D01*
X421750Y241652D01*
X424426Y242004D01*
X426919Y243037D01*
X429060Y244680D01*
X430703Y246821D01*
X431736Y249314D01*
X432088Y251990D01*
X431736Y254666D01*
X430703Y257159D01*
X429060Y259300D01*
X426919Y260943D01*
X424426Y261976D01*
X421750Y262328D01*
D02*
G37*
G36*
X395750D02*
X393074Y261976D01*
X390581Y260943D01*
X388440Y259300D01*
X386797Y257159D01*
X385764Y254666D01*
X385411Y251990D01*
X385764Y249314D01*
X386797Y246821D01*
X388440Y244680D01*
X390581Y243037D01*
X393074Y242004D01*
X395750Y241652D01*
X398426Y242004D01*
X400919Y243037D01*
X403060Y244680D01*
X404703Y246821D01*
X405736Y249314D01*
X406088Y251990D01*
X405736Y254666D01*
X404703Y257159D01*
X403060Y259300D01*
X400919Y260943D01*
X398426Y261976D01*
X395750Y262328D01*
D02*
G37*
G36*
X370750D02*
X368074Y261976D01*
X365581Y260943D01*
X363440Y259300D01*
X361797Y257159D01*
X360764Y254666D01*
X360411Y251990D01*
X360764Y249314D01*
X361797Y246821D01*
X363440Y244680D01*
X365581Y243037D01*
X368074Y242004D01*
X370750Y241652D01*
X373426Y242004D01*
X375919Y243037D01*
X378060Y244680D01*
X379703Y246821D01*
X380736Y249314D01*
X381088Y251990D01*
X380736Y254666D01*
X379703Y257159D01*
X378060Y259300D01*
X375919Y260943D01*
X373426Y261976D01*
X370750Y262328D01*
D02*
G37*
G36*
X344750D02*
X342074Y261976D01*
X339581Y260943D01*
X337440Y259300D01*
X335797Y257159D01*
X334764Y254666D01*
X334412Y251990D01*
X334764Y249314D01*
X335797Y246821D01*
X337440Y244680D01*
X339581Y243037D01*
X342074Y242004D01*
X344750Y241652D01*
X347426Y242004D01*
X349919Y243037D01*
X352060Y244680D01*
X353703Y246821D01*
X354736Y249314D01*
X355088Y251990D01*
X354736Y254666D01*
X353703Y257159D01*
X352060Y259300D01*
X349919Y260943D01*
X347426Y261976D01*
X344750Y262328D01*
D02*
G37*
G36*
X319750D02*
X317074Y261976D01*
X314581Y260943D01*
X312440Y259300D01*
X310797Y257159D01*
X309764Y254666D01*
X309412Y251990D01*
X309764Y249314D01*
X310797Y246821D01*
X312440Y244680D01*
X314581Y243037D01*
X317074Y242004D01*
X319750Y241652D01*
X322426Y242004D01*
X324919Y243037D01*
X327060Y244680D01*
X328703Y246821D01*
X329736Y249314D01*
X330088Y251990D01*
X329736Y254666D01*
X328703Y257159D01*
X327060Y259300D01*
X324919Y260943D01*
X322426Y261976D01*
X319750Y262328D01*
D02*
G37*
G36*
X243750D02*
X241074Y261976D01*
X238581Y260943D01*
X236440Y259300D01*
X234797Y257159D01*
X233764Y254666D01*
X233412Y251990D01*
X233764Y249314D01*
X234797Y246821D01*
X236440Y244680D01*
X238581Y243037D01*
X241074Y242004D01*
X243750Y241652D01*
X246426Y242004D01*
X248919Y243037D01*
X251060Y244680D01*
X252703Y246821D01*
X253736Y249314D01*
X254088Y251990D01*
X253736Y254666D01*
X252703Y257159D01*
X251060Y259300D01*
X248919Y260943D01*
X246426Y261976D01*
X243750Y262328D01*
D02*
G37*
G36*
X217750D02*
X215074Y261976D01*
X212581Y260943D01*
X210440Y259300D01*
X208797Y257159D01*
X207764Y254666D01*
X207411Y251990D01*
X207764Y249314D01*
X208797Y246821D01*
X210440Y244680D01*
X212581Y243037D01*
X215074Y242004D01*
X217750Y241652D01*
X220426Y242004D01*
X222919Y243037D01*
X225060Y244680D01*
X226703Y246821D01*
X227736Y249314D01*
X228088Y251990D01*
X227736Y254666D01*
X226703Y257159D01*
X225060Y259300D01*
X222919Y260943D01*
X220426Y261976D01*
X217750Y262328D01*
D02*
G37*
G36*
X192750D02*
X190074Y261976D01*
X187581Y260943D01*
X185440Y259300D01*
X183797Y257159D01*
X182764Y254666D01*
X182411Y251990D01*
X182764Y249314D01*
X183797Y246821D01*
X185440Y244680D01*
X187581Y243037D01*
X190074Y242004D01*
X192750Y241652D01*
X195426Y242004D01*
X197919Y243037D01*
X200060Y244680D01*
X201703Y246821D01*
X202736Y249314D01*
X203088Y251990D01*
X202736Y254666D01*
X201703Y257159D01*
X200060Y259300D01*
X197919Y260943D01*
X195426Y261976D01*
X192750Y262328D01*
D02*
G37*
G36*
X167750D02*
X165074Y261976D01*
X162581Y260943D01*
X160440Y259300D01*
X158797Y257159D01*
X157764Y254666D01*
X157411Y251990D01*
X157764Y249314D01*
X158797Y246821D01*
X160440Y244680D01*
X162581Y243037D01*
X165074Y242004D01*
X167750Y241652D01*
X170426Y242004D01*
X172919Y243037D01*
X175060Y244680D01*
X176703Y246821D01*
X177736Y249314D01*
X178088Y251990D01*
X177736Y254666D01*
X176703Y257159D01*
X175060Y259300D01*
X172919Y260943D01*
X170426Y261976D01*
X167750Y262328D01*
D02*
G37*
G36*
X141750D02*
X139074Y261976D01*
X136581Y260943D01*
X134440Y259300D01*
X132797Y257159D01*
X131764Y254666D01*
X131412Y251990D01*
X131764Y249314D01*
X132797Y246821D01*
X134440Y244680D01*
X136581Y243037D01*
X139074Y242004D01*
X141750Y241652D01*
X144426Y242004D01*
X146919Y243037D01*
X149060Y244680D01*
X150703Y246821D01*
X151736Y249314D01*
X152088Y251990D01*
X151736Y254666D01*
X150703Y257159D01*
X149060Y259300D01*
X146919Y260943D01*
X144426Y261976D01*
X141750Y262328D01*
D02*
G37*
G36*
X116750D02*
X114074Y261976D01*
X111581Y260943D01*
X109440Y259300D01*
X107797Y257159D01*
X106764Y254666D01*
X106412Y251990D01*
X106764Y249314D01*
X107797Y246821D01*
X109440Y244680D01*
X111581Y243037D01*
X114074Y242004D01*
X116750Y241652D01*
X119426Y242004D01*
X121919Y243037D01*
X124060Y244680D01*
X125703Y246821D01*
X126736Y249314D01*
X127088Y251990D01*
X126736Y254666D01*
X125703Y257159D01*
X124060Y259300D01*
X121919Y260943D01*
X119426Y261976D01*
X116750Y262328D01*
D02*
G37*
G36*
X90750D02*
X88074Y261976D01*
X85581Y260943D01*
X83440Y259300D01*
X81797Y257159D01*
X80764Y254666D01*
X80412Y251990D01*
X80764Y249314D01*
X81797Y246821D01*
X83440Y244680D01*
X85581Y243037D01*
X88074Y242004D01*
X90750Y241652D01*
X93426Y242004D01*
X95919Y243037D01*
X98060Y244680D01*
X99703Y246821D01*
X100736Y249314D01*
X101088Y251990D01*
X100736Y254666D01*
X99703Y257159D01*
X98060Y259300D01*
X95919Y260943D01*
X93426Y261976D01*
X90750Y262328D01*
D02*
G37*
G36*
X294750Y251990D02*
D01*
Y250720D01*
X283278D01*
X283507Y248978D01*
X284670Y246170D01*
X286520Y243760D01*
X288930Y241910D01*
X291252Y240948D01*
X291401Y239574D01*
X291100Y239372D01*
X288820Y237092D01*
X286538D01*
X285660Y236917D01*
X284916Y236420D01*
X273889Y225394D01*
X267668D01*
X266790Y225219D01*
X266046Y224722D01*
X265098Y223775D01*
X263940Y223390D01*
Y223390D01*
X263940Y223390D01*
X261270D01*
Y213050D01*
Y202710D01*
X263940D01*
Y204000D01*
X268106D01*
Y202107D01*
X268178Y201743D01*
X267900Y201268D01*
X267404Y200648D01*
X267224Y200528D01*
X265842Y200253D01*
X264436Y199314D01*
X263497Y197908D01*
X263270Y196770D01*
X261964Y196280D01*
X257872Y200372D01*
X257128Y200869D01*
X256250Y201044D01*
X249750D01*
Y201400D01*
X231650D01*
Y196100D01*
Y186100D01*
Y176100D01*
Y166044D01*
X211750D01*
Y169250D01*
X202250D01*
Y158250D01*
X211750D01*
Y161456D01*
X231650D01*
Y152690D01*
X230360D01*
Y150020D01*
X240700D01*
X251040D01*
Y152690D01*
X249750D01*
Y156100D01*
Y166456D01*
X265000D01*
X265878Y166631D01*
X266622Y167128D01*
X267842Y168347D01*
X268750Y168167D01*
X270408Y168497D01*
X271814Y169436D01*
X272753Y170842D01*
X273083Y172500D01*
X272753Y174158D01*
X271814Y175564D01*
X270408Y176503D01*
X268750Y176833D01*
X267092Y176503D01*
X265686Y175564D01*
X264747Y174158D01*
X264417Y172500D01*
X264490Y172132D01*
X263552Y171044D01*
X249750D01*
Y176456D01*
X255171D01*
X255686Y175686D01*
X257092Y174747D01*
X258750Y174417D01*
X260408Y174747D01*
X261814Y175686D01*
X262753Y177092D01*
X263083Y178750D01*
X262753Y180408D01*
X261814Y181814D01*
X260408Y182753D01*
X258750Y183083D01*
X257092Y182753D01*
X255686Y181814D01*
X255171Y181044D01*
X249750D01*
Y186100D01*
Y196456D01*
X255300D01*
X279597Y172158D01*
X279417Y171250D01*
X279747Y169592D01*
X280686Y168186D01*
X282092Y167247D01*
X283750Y166917D01*
X285408Y167247D01*
X285586Y167365D01*
X286706Y166767D01*
Y154996D01*
X285686Y154314D01*
X284747Y152908D01*
X284417Y151250D01*
X284747Y149592D01*
X285587Y148334D01*
X285418Y147690D01*
X285079Y147064D01*
X252500D01*
X252310Y147026D01*
X251757Y147480D01*
X240700D01*
X229706D01*
X229090Y146996D01*
X228750Y147064D01*
X218500D01*
X217232Y146811D01*
X216157Y146093D01*
X207410Y137346D01*
X206657Y136843D01*
X206564Y136750D01*
X200750D01*
Y125750D01*
X202436D01*
Y114250D01*
X200250D01*
Y103250D01*
X202186D01*
Y88650D01*
X192850D01*
Y73850D01*
X197936D01*
Y62623D01*
X197377Y62064D01*
X165123D01*
X159564Y67622D01*
Y124250D01*
X159311Y125518D01*
X158593Y126593D01*
X134846Y150340D01*
X134343Y151093D01*
X134250Y151186D01*
Y157000D01*
X123250D01*
Y155064D01*
X106176D01*
Y161096D01*
X81324D01*
Y146404D01*
X106176D01*
Y148436D01*
X123250D01*
Y146500D01*
X129428D01*
X129657Y146157D01*
X132350Y143463D01*
X131864Y142290D01*
X130020D01*
Y137020D01*
X135540D01*
Y138614D01*
X136713Y139100D01*
X152936Y122878D01*
Y66250D01*
X153188Y64982D01*
X153907Y63907D01*
X161407Y56407D01*
X162265Y55834D01*
X162152Y54821D01*
X162053Y54564D01*
X145123D01*
X96746Y102941D01*
X96503Y104158D01*
X95564Y105564D01*
X94158Y106503D01*
X92500Y106833D01*
X90842Y106503D01*
X89436Y105564D01*
X88497Y104158D01*
X88167Y102500D01*
X88497Y100842D01*
X89436Y99436D01*
X90842Y98497D01*
X92059Y98254D01*
X141407Y48907D01*
X142482Y48189D01*
X143750Y47936D01*
X339489D01*
X339742Y46666D01*
X338930Y46330D01*
X336520Y44480D01*
X334670Y42070D01*
X333507Y39262D01*
X333278Y37520D01*
X344750D01*
Y36250D01*
X346020D01*
Y24778D01*
X347762Y25007D01*
X350570Y26170D01*
X352980Y28020D01*
X354830Y30430D01*
X355993Y33237D01*
X356154Y34458D01*
X357477Y35096D01*
X357518Y35091D01*
X358750Y34846D01*
X360596D01*
X360764Y33574D01*
X361797Y31081D01*
X363440Y28940D01*
X365581Y27297D01*
X368074Y26264D01*
X370750Y25912D01*
X373426Y26264D01*
X375919Y27297D01*
X378060Y28940D01*
X379703Y31081D01*
X380736Y33574D01*
X381088Y36250D01*
X380736Y38926D01*
X379703Y41419D01*
X378060Y43560D01*
X375919Y45203D01*
X373426Y46236D01*
X370750Y46588D01*
X368074Y46236D01*
X365581Y45203D01*
X363440Y43560D01*
X361838Y41474D01*
X360284D01*
X360061Y42592D01*
X359343Y43667D01*
X349417Y53593D01*
X348342Y54311D01*
X347074Y54564D01*
X200446D01*
X200348Y54821D01*
X200235Y55834D01*
X201093Y56407D01*
X203593Y58907D01*
X204311Y59982D01*
X204564Y61250D01*
Y73850D01*
X213350D01*
Y88650D01*
X208814D01*
Y103250D01*
X210750D01*
Y114250D01*
X209064D01*
Y125750D01*
X211250D01*
Y131928D01*
X211593Y132157D01*
X219873Y140436D01*
X228750D01*
X230018Y140689D01*
X230435Y140967D01*
X231650Y141100D01*
X231650Y141100D01*
X231650Y141100D01*
X249750D01*
X249750Y141100D01*
Y141100D01*
X249750Y141100D01*
X250933Y140889D01*
X251232Y140689D01*
X252500Y140436D01*
X285058D01*
X286060Y139790D01*
Y138500D01*
X252350D01*
Y120400D01*
X272706D01*
Y110475D01*
X247628Y85397D01*
X247131Y84653D01*
X246956Y83775D01*
Y75500D01*
X244000D01*
Y67807D01*
X243881Y67628D01*
X243706Y66750D01*
X243881Y65872D01*
X244000Y65693D01*
Y64500D01*
X245779D01*
X246000Y64456D01*
X246250D01*
X246472Y64500D01*
X254500D01*
Y69706D01*
X263250D01*
Y64750D01*
X279750D01*
Y79250D01*
X280933Y79460D01*
X281040D01*
Y86730D01*
X271500D01*
Y88000D01*
X270230D01*
Y96540D01*
X266919D01*
X266433Y97713D01*
X276622Y107903D01*
X276895Y108311D01*
X278004Y108470D01*
X278364Y108398D01*
X278378Y108378D01*
X284628Y102128D01*
X285372Y101630D01*
X286250Y101456D01*
X301550D01*
X310788Y92217D01*
X310302Y91044D01*
X301750D01*
Y95250D01*
X285250D01*
X285250Y80750D01*
X284067Y80540D01*
X283960D01*
Y73270D01*
X303040D01*
Y80540D01*
X302933D01*
X301750Y80750D01*
X301750Y81810D01*
Y86456D01*
X312250D01*
Y83250D01*
X322750D01*
Y94250D01*
X315244D01*
X304122Y105372D01*
X303378Y105869D01*
X302500Y106044D01*
X295091D01*
X294567Y107314D01*
X295253Y108342D01*
X295583Y110000D01*
X295351Y111166D01*
X296474Y111943D01*
X297838Y111031D01*
X298730Y110854D01*
Y116250D01*
X300000D01*
Y117520D01*
X305396D01*
X305219Y118412D01*
X304739Y119130D01*
X305417Y120400D01*
X307706D01*
Y117500D01*
X307880Y116622D01*
X308378Y115878D01*
X324628Y99628D01*
X325372Y99130D01*
X326250Y98956D01*
X393050D01*
X425247Y66759D01*
X424897Y65000D01*
X425305Y62952D01*
X426465Y61215D01*
X428201Y60055D01*
X430250Y59647D01*
X432250D01*
X434298Y60055D01*
X436035Y61215D01*
X437195Y62952D01*
X437603Y65000D01*
X437195Y67048D01*
X436035Y68785D01*
X434298Y69945D01*
X432250Y70353D01*
X430250D01*
X428491Y70003D01*
X395622Y102872D01*
X394878Y103369D01*
X394000Y103544D01*
X376617D01*
X376018Y104664D01*
X376469Y105338D01*
X376646Y106230D01*
X365854D01*
X366031Y105338D01*
X366482Y104664D01*
X365883Y103544D01*
X351341D01*
X350817Y104814D01*
X351503Y105842D01*
X351833Y107500D01*
X351503Y109158D01*
X350564Y110564D01*
X349158Y111503D01*
X347500Y111833D01*
X345842Y111503D01*
X344882Y110862D01*
X315914Y139830D01*
X316440Y141100D01*
X333350D01*
Y141456D01*
X370550D01*
X445247Y66759D01*
X444897Y65000D01*
X445305Y62952D01*
X446465Y61215D01*
X448201Y60055D01*
X450250Y59647D01*
X452250D01*
X454298Y60055D01*
X456035Y61215D01*
X457195Y62952D01*
X457603Y65000D01*
X457195Y67048D01*
X456035Y68785D01*
X454298Y69945D01*
X452250Y70353D01*
X450250D01*
X448491Y70003D01*
X373122Y145372D01*
X372378Y145870D01*
X371500Y146044D01*
X333350D01*
Y151456D01*
X380550D01*
X465247Y66759D01*
X464897Y65000D01*
X465305Y62952D01*
X466465Y61215D01*
X468202Y60055D01*
X470250Y59647D01*
X472250D01*
X474298Y60055D01*
X476035Y61215D01*
X477195Y62952D01*
X477603Y65000D01*
X477195Y67048D01*
X476035Y68785D01*
X474298Y69945D01*
X472250Y70353D01*
X470250D01*
X468491Y70003D01*
X383308Y155186D01*
X383462Y155927D01*
X383786Y156456D01*
X395550D01*
X485247Y66759D01*
X484897Y65000D01*
X485305Y62952D01*
X486465Y61215D01*
X488201Y60055D01*
X490250Y59647D01*
X492250D01*
X494298Y60055D01*
X496035Y61215D01*
X497195Y62952D01*
X497603Y65000D01*
X497195Y67048D01*
X496035Y68785D01*
X494298Y69945D01*
X492250Y70353D01*
X490250D01*
X488491Y70003D01*
X398308Y160186D01*
X398462Y160927D01*
X398786Y161456D01*
X410550D01*
X505247Y66759D01*
X504897Y65000D01*
X505305Y62952D01*
X506465Y61215D01*
X508201Y60055D01*
X510250Y59647D01*
X512250D01*
X514298Y60055D01*
X516035Y61215D01*
X517195Y62952D01*
X517603Y65000D01*
X517195Y67048D01*
X516035Y68785D01*
X514298Y69945D01*
X512250Y70353D01*
X510250D01*
X508491Y70003D01*
X413308Y165186D01*
X413462Y165927D01*
X413786Y166456D01*
X414000D01*
X414878Y166631D01*
X415622Y167128D01*
X468491Y219997D01*
X470250Y219647D01*
X472250D01*
X474298Y220055D01*
X476035Y221215D01*
X477195Y222952D01*
X477603Y225000D01*
X477195Y227048D01*
X476035Y228785D01*
X474298Y229945D01*
X472250Y230353D01*
X470250D01*
X468202Y229945D01*
X466465Y228785D01*
X465305Y227048D01*
X464897Y225000D01*
X465247Y223241D01*
X413050Y171044D01*
X401286D01*
X400962Y171573D01*
X400808Y172314D01*
X448491Y219997D01*
X450250Y219647D01*
X452250D01*
X454298Y220055D01*
X456035Y221215D01*
X457195Y222952D01*
X457603Y225000D01*
X457195Y227048D01*
X456035Y228785D01*
X454298Y229945D01*
X452250Y230353D01*
X450250D01*
X448201Y229945D01*
X446465Y228785D01*
X445305Y227048D01*
X444897Y225000D01*
X445247Y223241D01*
X398050Y176044D01*
X391218D01*
X390894Y176573D01*
X390740Y177314D01*
X430724Y217298D01*
X431221Y218042D01*
X431396Y218920D01*
Y219647D01*
X432250D01*
X434298Y220055D01*
X436035Y221215D01*
X437195Y222952D01*
X437603Y225000D01*
X437195Y227048D01*
X436035Y228785D01*
X434298Y229945D01*
X432250Y230353D01*
X430250D01*
X428201Y229945D01*
X426465Y228785D01*
X425305Y227048D01*
X424897Y225000D01*
X425305Y222952D01*
X426465Y221215D01*
X426665Y221081D01*
X426741Y219803D01*
X393313Y186376D01*
X392140Y186862D01*
Y187480D01*
X380600D01*
X369060D01*
Y181044D01*
X365793D01*
X364650Y181350D01*
Y196150D01*
X355314D01*
Y207000D01*
X357250D01*
Y218000D01*
X346750D01*
Y215814D01*
X339496D01*
X338898Y216934D01*
X339003Y217092D01*
X339333Y218750D01*
X339003Y220408D01*
X338064Y221814D01*
X336658Y222753D01*
X335000Y223083D01*
X333342Y222753D01*
X331936Y221814D01*
X331421Y221044D01*
X317632D01*
X313954Y224722D01*
X313210Y225219D01*
X312332Y225394D01*
X289866D01*
X289380Y226567D01*
X292450Y229638D01*
X294301D01*
X294436Y229436D01*
X295842Y228497D01*
X297500Y228167D01*
X299158Y228497D01*
X300564Y229436D01*
X301503Y230842D01*
X301833Y232500D01*
X301503Y234158D01*
X301385Y234336D01*
X301983Y235456D01*
X551300D01*
X554127Y232628D01*
X553532Y231428D01*
X552520Y231561D01*
Y226270D01*
X558679D01*
X558678Y226282D01*
X559878Y226877D01*
X582706Y204050D01*
Y196079D01*
X581936Y195564D01*
X580997Y194158D01*
X580667Y192500D01*
X580997Y190842D01*
X581936Y189436D01*
X583342Y188497D01*
X585000Y188167D01*
X586658Y188497D01*
X588064Y189436D01*
X589003Y190842D01*
X589333Y192500D01*
X589003Y194158D01*
X588064Y195564D01*
X587294Y196079D01*
Y205000D01*
X587119Y205878D01*
X586622Y206622D01*
X553872Y239372D01*
X553128Y239869D01*
X552250Y240044D01*
X299384D01*
X299132Y241314D01*
X300570Y241910D01*
X302980Y243760D01*
X304830Y246170D01*
X305993Y248978D01*
X306222Y250720D01*
X294750D01*
Y251990D01*
D02*
G37*
G36*
X549980Y231561D02*
X548543Y231372D01*
X546952Y230713D01*
X545586Y229664D01*
X544537Y228298D01*
X543878Y226707D01*
X543821Y226270D01*
X549980D01*
Y231561D01*
D02*
G37*
G36*
X532520D02*
Y226270D01*
X538679D01*
X538622Y226707D01*
X537963Y228298D01*
X536914Y229664D01*
X535548Y230713D01*
X533957Y231372D01*
X532520Y231561D01*
D02*
G37*
G36*
X529980D02*
X528543Y231372D01*
X526952Y230713D01*
X525586Y229664D01*
X524537Y228298D01*
X523878Y226707D01*
X523821Y226270D01*
X529980D01*
Y231561D01*
D02*
G37*
G36*
X492320Y230353D02*
X490320D01*
X488271Y229945D01*
X486535Y228785D01*
X485375Y227048D01*
X484967Y225000D01*
X485317Y223241D01*
X482893Y220818D01*
X482396Y220073D01*
X482221Y219195D01*
Y217779D01*
X482092Y217753D01*
X480686Y216814D01*
X479747Y215408D01*
X479417Y213750D01*
X479747Y212092D01*
X480686Y210686D01*
X482092Y209747D01*
X483750Y209417D01*
X485408Y209747D01*
X486814Y210686D01*
X487753Y212092D01*
X488083Y213750D01*
X487753Y215408D01*
X486814Y216814D01*
X486809Y216817D01*
Y218245D01*
X488561Y219997D01*
X490320Y219647D01*
X492320D01*
X494368Y220055D01*
X496105Y221215D01*
X497265Y222952D01*
X497673Y225000D01*
X497265Y227048D01*
X496105Y228785D01*
X494368Y229945D01*
X492320Y230353D01*
D02*
G37*
G36*
X558679Y223730D02*
X552520D01*
Y218439D01*
X553957Y218628D01*
X555548Y219287D01*
X556914Y220336D01*
X557963Y221702D01*
X558622Y223293D01*
X558679Y223730D01*
D02*
G37*
G36*
X549980D02*
X543821D01*
X543878Y223293D01*
X544537Y221702D01*
X545586Y220336D01*
X546952Y219287D01*
X548543Y218628D01*
X549980Y218439D01*
Y223730D01*
D02*
G37*
G36*
X538679D02*
X532520D01*
Y218439D01*
X533957Y218628D01*
X535548Y219287D01*
X536914Y220336D01*
X537963Y221702D01*
X538622Y223293D01*
X538679Y223730D01*
D02*
G37*
G36*
X529980D02*
X523821D01*
X523878Y223293D01*
X524537Y221702D01*
X525586Y220336D01*
X526952Y219287D01*
X528543Y218628D01*
X529980Y218439D01*
Y223730D01*
D02*
G37*
G36*
X215020Y220396D02*
Y216270D01*
X219146D01*
X218969Y217162D01*
X217744Y218994D01*
X215912Y220219D01*
X215020Y220396D01*
D02*
G37*
G36*
X212480D02*
X211588Y220219D01*
X209756Y218994D01*
X208531Y217162D01*
X208354Y216270D01*
X212480D01*
Y220396D01*
D02*
G37*
G36*
X374540Y219290D02*
X369270D01*
Y213770D01*
X374540D01*
Y219290D01*
D02*
G37*
G36*
X366730D02*
X361460D01*
Y213770D01*
X366730D01*
Y219290D01*
D02*
G37*
G36*
X716940Y220540D02*
X704770D01*
Y211270D01*
X716940D01*
Y220540D01*
D02*
G37*
G36*
X702230D02*
X690060D01*
Y211270D01*
X702230D01*
Y220540D01*
D02*
G37*
G36*
X219146Y213730D02*
X215020D01*
Y209604D01*
X215912Y209781D01*
X217744Y211006D01*
X218969Y212838D01*
X219146Y213730D01*
D02*
G37*
G36*
X212480D02*
X208354D01*
X208531Y212838D01*
X209756Y211006D01*
X211588Y209781D01*
X212480Y209604D01*
Y213730D01*
D02*
G37*
G36*
X412250Y230353D02*
X410250D01*
X408201Y229945D01*
X406465Y228785D01*
X405305Y227048D01*
X404897Y225000D01*
X405305Y222952D01*
X406465Y221215D01*
X408201Y220055D01*
X408956Y219905D01*
Y217329D01*
X408186Y216814D01*
X407247Y215408D01*
X406917Y213750D01*
X407247Y212092D01*
X408186Y210686D01*
X409592Y209747D01*
X411250Y209417D01*
X412908Y209747D01*
X414314Y210686D01*
X415253Y212092D01*
X415583Y213750D01*
X415253Y215408D01*
X414314Y216814D01*
X413544Y217329D01*
Y219905D01*
X414298Y220055D01*
X416035Y221215D01*
X417195Y222952D01*
X417603Y225000D01*
X417195Y227048D01*
X416035Y228785D01*
X414298Y229945D01*
X412250Y230353D01*
D02*
G37*
G36*
X523770Y212896D02*
Y208770D01*
X527896D01*
X527719Y209662D01*
X526494Y211494D01*
X524662Y212719D01*
X523770Y212896D01*
D02*
G37*
G36*
X521230D02*
X520338Y212719D01*
X518506Y211494D01*
X517281Y209662D01*
X517104Y208770D01*
X521230D01*
Y212896D01*
D02*
G37*
G36*
X374540Y211230D02*
X369270D01*
Y205710D01*
X374540D01*
Y211230D01*
D02*
G37*
G36*
X366730D02*
X361460D01*
Y205710D01*
X366730D01*
Y211230D01*
D02*
G37*
G36*
X251250Y233314D02*
X203750D01*
X202482Y233062D01*
X201407Y232343D01*
X150627Y181564D01*
X134250D01*
Y183500D01*
X123250D01*
Y180178D01*
X106176D01*
Y184210D01*
X105814D01*
Y191250D01*
X105561Y192518D01*
X104843Y193593D01*
X96746Y201691D01*
X96503Y202908D01*
X95564Y204314D01*
X94158Y205253D01*
X92500Y205583D01*
X90842Y205253D01*
X89436Y204314D01*
X88497Y202908D01*
X88167Y201250D01*
X88497Y199592D01*
X89436Y198186D01*
X90842Y197247D01*
X92059Y197004D01*
X99186Y189877D01*
Y184210D01*
X81324D01*
Y169518D01*
X106176D01*
Y173550D01*
X123250D01*
Y173000D01*
X134250D01*
Y174936D01*
X152000D01*
X153268Y175189D01*
X154343Y175907D01*
X205123Y226686D01*
X249877D01*
X252657Y223907D01*
X252706Y223874D01*
Y222100D01*
X252350D01*
Y204000D01*
X256060D01*
Y202710D01*
X258730D01*
Y213050D01*
Y223390D01*
X258525D01*
X257846Y224660D01*
X258061Y224982D01*
X258314Y226250D01*
X258061Y227518D01*
X257343Y228593D01*
X253593Y232343D01*
X252518Y233061D01*
X251250Y233314D01*
D02*
G37*
G36*
X527896Y206230D02*
X523770D01*
Y202104D01*
X524662Y202281D01*
X526494Y203506D01*
X527719Y205338D01*
X527896Y206230D01*
D02*
G37*
G36*
X521230D02*
X517104D01*
X517281Y205338D01*
X518506Y203506D01*
X520338Y202281D01*
X521230Y202104D01*
Y206230D01*
D02*
G37*
G36*
X512250Y230353D02*
X510250D01*
X508201Y229945D01*
X506465Y228785D01*
X505305Y227048D01*
X504897Y225000D01*
X505305Y222952D01*
X506465Y221215D01*
X507936Y220232D01*
Y215123D01*
X503309Y210496D01*
X502092Y210253D01*
X500686Y209314D01*
X499747Y207908D01*
X499417Y206250D01*
X499747Y204592D01*
X500686Y203186D01*
X502092Y202247D01*
X503750Y201917D01*
X505408Y202247D01*
X506814Y203186D01*
X507753Y204592D01*
X507996Y205809D01*
X513593Y211407D01*
X514311Y212482D01*
X514564Y213750D01*
Y220232D01*
X516035Y221215D01*
X517195Y222952D01*
X517603Y225000D01*
X517195Y227048D01*
X516035Y228785D01*
X514298Y229945D01*
X512250Y230353D01*
D02*
G37*
G36*
X716940Y208730D02*
X704770D01*
Y199460D01*
X716940D01*
Y208730D01*
D02*
G37*
G36*
X702230D02*
X690060D01*
Y199460D01*
X702230D01*
Y208730D01*
D02*
G37*
G36*
X135540Y200790D02*
X130020D01*
Y195520D01*
X135540D01*
Y200790D01*
D02*
G37*
G36*
X127480D02*
X121960D01*
Y195520D01*
X127480D01*
Y200790D01*
D02*
G37*
G36*
X148770Y196646D02*
Y192520D01*
X152896D01*
X152718Y193412D01*
X151494Y195244D01*
X149662Y196469D01*
X148770Y196646D01*
D02*
G37*
G36*
X146230D02*
X145338Y196469D01*
X143506Y195244D01*
X142281Y193412D01*
X142104Y192520D01*
X146230D01*
Y196646D01*
D02*
G37*
G36*
X458770Y195396D02*
Y191270D01*
X462896D01*
X462719Y192162D01*
X461494Y193994D01*
X459662Y195219D01*
X458770Y195396D01*
D02*
G37*
G36*
X456230D02*
X455338Y195219D01*
X453506Y193994D01*
X452281Y192162D01*
X452104Y191270D01*
X456230D01*
Y195396D01*
D02*
G37*
G36*
X392140Y197440D02*
X381870D01*
Y190020D01*
X392140D01*
Y197440D01*
D02*
G37*
G36*
X379330D02*
X369060D01*
Y190020D01*
X379330D01*
Y197440D01*
D02*
G37*
G36*
X135540Y192980D02*
X130020D01*
Y187710D01*
X135540D01*
Y192980D01*
D02*
G37*
G36*
X127480D02*
X121960D01*
Y187710D01*
X127480D01*
Y192980D01*
D02*
G37*
G36*
X211270Y190396D02*
Y186270D01*
X215396D01*
X215219Y187162D01*
X213994Y188994D01*
X212162Y190219D01*
X211270Y190396D01*
D02*
G37*
G36*
X208730D02*
X207838Y190219D01*
X206006Y188994D01*
X204781Y187162D01*
X204604Y186270D01*
X208730D01*
Y190396D01*
D02*
G37*
G36*
X152896Y189980D02*
X148770D01*
Y185854D01*
X149662Y186031D01*
X151494Y187256D01*
X152718Y189088D01*
X152896Y189980D01*
D02*
G37*
G36*
X146230D02*
X142104D01*
X142281Y189088D01*
X143506Y187256D01*
X145338Y186031D01*
X146230Y185854D01*
Y189980D01*
D02*
G37*
G36*
X462896Y188730D02*
X458770D01*
Y184604D01*
X459662Y184781D01*
X461494Y186006D01*
X462719Y187838D01*
X462896Y188730D01*
D02*
G37*
G36*
X456230D02*
X452104D01*
X452281Y187838D01*
X453506Y186006D01*
X455338Y184781D01*
X456230Y184604D01*
Y188730D01*
D02*
G37*
G36*
X215396Y183730D02*
X211270D01*
Y179604D01*
X212162Y179781D01*
X213994Y181006D01*
X215219Y182838D01*
X215396Y183730D01*
D02*
G37*
G36*
X208730D02*
X204604D01*
X204781Y182838D01*
X206006Y181006D01*
X207838Y179781D01*
X208730Y179604D01*
Y183730D01*
D02*
G37*
G36*
X610020Y182896D02*
Y178770D01*
X614146D01*
X613969Y179662D01*
X612744Y181494D01*
X610912Y182719D01*
X610020Y182896D01*
D02*
G37*
G36*
X607480D02*
X606588Y182719D01*
X604756Y181494D01*
X603531Y179662D01*
X603354Y178770D01*
X607480D01*
Y182896D01*
D02*
G37*
G36*
X511270D02*
Y178770D01*
X515396D01*
X515219Y179662D01*
X513994Y181494D01*
X512162Y182719D01*
X511270Y182896D01*
D02*
G37*
G36*
X508730D02*
X507838Y182719D01*
X506006Y181494D01*
X504781Y179662D01*
X504604Y178770D01*
X508730D01*
Y182896D01*
D02*
G37*
G36*
X614146Y176230D02*
X610020D01*
Y172104D01*
X610912Y172281D01*
X612744Y173506D01*
X613969Y175338D01*
X614146Y176230D01*
D02*
G37*
G36*
X607480D02*
X603354D01*
X603531Y175338D01*
X604756Y173506D01*
X606588Y172281D01*
X607480Y172104D01*
Y176230D01*
D02*
G37*
G36*
X515396D02*
X511270D01*
Y172104D01*
X512162Y172281D01*
X513994Y173506D01*
X515219Y175338D01*
X515396Y176230D01*
D02*
G37*
G36*
X508730D02*
X504604D01*
X504781Y175338D01*
X506006Y173506D01*
X507838Y172281D01*
X508730Y172104D01*
Y176230D01*
D02*
G37*
G36*
X116270Y170396D02*
Y166270D01*
X120396D01*
X120219Y167162D01*
X118994Y168994D01*
X117162Y170219D01*
X116270Y170396D01*
D02*
G37*
G36*
X113730D02*
X112838Y170219D01*
X111006Y168994D01*
X109781Y167162D01*
X109604Y166270D01*
X113730D01*
Y170396D01*
D02*
G37*
G36*
X196540Y170540D02*
X191770D01*
Y165020D01*
X196540D01*
Y170540D01*
D02*
G37*
G36*
X189230D02*
X184460D01*
Y165020D01*
X189230D01*
Y170540D01*
D02*
G37*
G36*
X120396Y163730D02*
X116270D01*
Y159604D01*
X117162Y159781D01*
X118994Y161006D01*
X120219Y162838D01*
X120396Y163730D01*
D02*
G37*
G36*
X113730D02*
X109604D01*
X109781Y162838D01*
X111006Y161006D01*
X112838Y159781D01*
X113730Y159604D01*
Y163730D01*
D02*
G37*
G36*
X275020Y161646D02*
Y157520D01*
X279146D01*
X278969Y158412D01*
X277744Y160244D01*
X275912Y161469D01*
X275020Y161646D01*
D02*
G37*
G36*
X272480D02*
X271588Y161469D01*
X269756Y160244D01*
X268531Y158412D01*
X268354Y157520D01*
X272480D01*
Y161646D01*
D02*
G37*
G36*
X455000Y175583D02*
X453342Y175253D01*
X451936Y174314D01*
X450997Y172908D01*
X450667Y171250D01*
X450997Y169592D01*
X451936Y168186D01*
X453342Y167247D01*
X455000Y166917D01*
X456658Y167247D01*
X458064Y168186D01*
X458579Y168956D01*
X501550D01*
X524597Y145908D01*
X524417Y145000D01*
X524747Y143342D01*
X525686Y141936D01*
X526005Y141722D01*
X526339Y139997D01*
X526201Y139794D01*
X458579D01*
X458064Y140564D01*
X456658Y141503D01*
X455000Y141833D01*
X453342Y141503D01*
X451936Y140564D01*
X450997Y139158D01*
X450667Y137500D01*
X450997Y135842D01*
X451936Y134436D01*
X453342Y133497D01*
X455000Y133167D01*
X456658Y133497D01*
X458064Y134436D01*
X458579Y135206D01*
X547500D01*
X548378Y135381D01*
X549122Y135878D01*
X572700Y159456D01*
X589500D01*
Y156500D01*
X600500D01*
Y159066D01*
X615750D01*
Y157000D01*
X625250D01*
Y168000D01*
X615750D01*
Y165184D01*
X600500D01*
Y167000D01*
X589500D01*
Y164044D01*
X571750D01*
X570872Y163869D01*
X570128Y163372D01*
X546550Y139794D01*
X531299D01*
X531161Y139997D01*
X531495Y141722D01*
X531814Y141936D01*
X532753Y143342D01*
X533083Y145000D01*
X532753Y146658D01*
X531814Y148064D01*
X530408Y149003D01*
X528750Y149333D01*
X527842Y149153D01*
X504122Y172872D01*
X503378Y173370D01*
X502500Y173544D01*
X458579D01*
X458064Y174314D01*
X456658Y175253D01*
X455000Y175583D01*
D02*
G37*
G36*
X196540Y162480D02*
X191770D01*
Y156960D01*
X196540D01*
Y162480D01*
D02*
G37*
G36*
X189230D02*
X184460D01*
Y156960D01*
X189230D01*
Y162480D01*
D02*
G37*
G36*
X493770Y159146D02*
Y155020D01*
X497896D01*
X497719Y155912D01*
X496494Y157744D01*
X494662Y158968D01*
X493770Y159146D01*
D02*
G37*
G36*
X491230D02*
X490338Y158968D01*
X488506Y157744D01*
X487281Y155912D01*
X487104Y155020D01*
X491230D01*
Y159146D01*
D02*
G37*
G36*
X163770D02*
Y155020D01*
X167896D01*
X167719Y155912D01*
X166494Y157744D01*
X164662Y158968D01*
X163770Y159146D01*
D02*
G37*
G36*
X161230D02*
X160338Y158968D01*
X158506Y157744D01*
X157281Y155912D01*
X157104Y155020D01*
X161230D01*
Y159146D01*
D02*
G37*
G36*
X611270Y155396D02*
Y151270D01*
X615396D01*
X615219Y152162D01*
X613994Y153994D01*
X612162Y155219D01*
X611270Y155396D01*
D02*
G37*
G36*
X608730D02*
X607838Y155219D01*
X606006Y153994D01*
X604781Y152162D01*
X604604Y151270D01*
X608730D01*
Y155396D01*
D02*
G37*
G36*
X279146Y154980D02*
X275020D01*
Y150854D01*
X275912Y151031D01*
X277744Y152256D01*
X278969Y154088D01*
X279146Y154980D01*
D02*
G37*
G36*
X272480D02*
X268354D01*
X268531Y154088D01*
X269756Y152256D01*
X271588Y151031D01*
X272480Y150854D01*
Y154980D01*
D02*
G37*
G36*
X497896Y152480D02*
X493770D01*
Y148354D01*
X494662Y148531D01*
X496494Y149756D01*
X497719Y151588D01*
X497896Y152480D01*
D02*
G37*
G36*
X491230D02*
X487104D01*
X487281Y151588D01*
X488506Y149756D01*
X490338Y148531D01*
X491230Y148354D01*
Y152480D01*
D02*
G37*
G36*
X167896D02*
X163770D01*
Y148354D01*
X164662Y148531D01*
X166494Y149756D01*
X167719Y151588D01*
X167896Y152480D01*
D02*
G37*
G36*
X161230D02*
X157104D01*
X157281Y151588D01*
X158506Y149756D01*
X160338Y148531D01*
X161230Y148354D01*
Y152480D01*
D02*
G37*
G36*
X601790Y152290D02*
X596270D01*
Y147020D01*
X601790D01*
Y152290D01*
D02*
G37*
G36*
X593730D02*
X588210D01*
Y147020D01*
X593730D01*
Y152290D01*
D02*
G37*
G36*
X615396Y148730D02*
X611270D01*
Y144604D01*
X612162Y144781D01*
X613994Y146006D01*
X615219Y147838D01*
X615396Y148730D01*
D02*
G37*
G36*
X608730D02*
X604604D01*
X604781Y147838D01*
X606006Y146006D01*
X607838Y144781D01*
X608730Y144604D01*
Y148730D01*
D02*
G37*
G36*
X127480Y142290D02*
X121960D01*
Y137020D01*
X127480D01*
Y142290D01*
D02*
G37*
G36*
X44022Y173000D02*
X19522D01*
Y134500D01*
X44022D01*
Y173000D01*
D02*
G37*
G36*
X172520Y136646D02*
Y132520D01*
X176646D01*
X176469Y133412D01*
X175244Y135244D01*
X173412Y136469D01*
X172520Y136646D01*
D02*
G37*
G36*
X169980D02*
X169088Y136469D01*
X167256Y135244D01*
X166031Y133412D01*
X165854Y132520D01*
X169980D01*
Y136646D01*
D02*
G37*
G36*
X196540Y138040D02*
X191270D01*
Y132520D01*
X196540D01*
Y138040D01*
D02*
G37*
G36*
X188730D02*
X183460D01*
Y132520D01*
X188730D01*
Y138040D01*
D02*
G37*
G36*
X107466Y139272D02*
X95020D01*
Y131906D01*
X107466D01*
Y139272D01*
D02*
G37*
G36*
X92480D02*
X80034D01*
Y131906D01*
X92480D01*
Y139272D01*
D02*
G37*
G36*
X347520Y135396D02*
Y131270D01*
X351646D01*
X351469Y132162D01*
X350244Y133994D01*
X348412Y135219D01*
X347520Y135396D01*
D02*
G37*
G36*
X344980D02*
X344088Y135219D01*
X342256Y133994D01*
X341031Y132162D01*
X340854Y131270D01*
X344980D01*
Y135396D01*
D02*
G37*
G36*
X135540Y134480D02*
X130020D01*
Y129210D01*
X135540D01*
Y134480D01*
D02*
G37*
G36*
X127480D02*
X121960D01*
Y129210D01*
X127480D01*
Y134480D01*
D02*
G37*
G36*
X623650Y219250D02*
X599350D01*
Y200750D01*
X617591D01*
Y199350D01*
X617591Y199350D01*
X617824Y198179D01*
X618487Y197187D01*
X633941Y181733D01*
Y168000D01*
X632250D01*
Y157000D01*
X633941D01*
Y140500D01*
X632250D01*
Y129500D01*
X632250D01*
X632048Y128314D01*
X625452D01*
X625250Y129500D01*
X625250D01*
Y140500D01*
X615750D01*
Y138314D01*
X602689D01*
X601790Y139210D01*
X601790Y139584D01*
Y144480D01*
X588210D01*
Y139584D01*
X588210Y139210D01*
X587311Y138314D01*
X565122D01*
X564246Y139191D01*
X564003Y140408D01*
X563064Y141814D01*
X561658Y142753D01*
X560000Y143083D01*
X558342Y142753D01*
X556936Y141814D01*
X555997Y140408D01*
X555667Y138750D01*
X555997Y137092D01*
X556936Y135686D01*
X558342Y134747D01*
X559559Y134504D01*
X561407Y132657D01*
X562482Y131939D01*
X563750Y131686D01*
X615750D01*
Y129500D01*
X617936D01*
Y125000D01*
X618189Y123732D01*
X618907Y122657D01*
X619982Y121939D01*
X621250Y121686D01*
X648531D01*
X649811Y120407D01*
X650886Y119689D01*
X652154Y119436D01*
X655874D01*
X656305Y118166D01*
X655190Y117310D01*
X653547Y115169D01*
X652514Y112676D01*
X652482Y112434D01*
X643000D01*
Y114250D01*
X633500D01*
Y103250D01*
X643000D01*
Y106316D01*
X652931D01*
X653547Y104831D01*
X655190Y102690D01*
X657331Y101047D01*
X659824Y100014D01*
X662500Y99662D01*
X665176Y100014D01*
X667669Y101047D01*
X669810Y102690D01*
X671453Y104831D01*
X672327Y106941D01*
X684500D01*
Y104500D01*
X694000D01*
Y115500D01*
X684500D01*
Y113059D01*
X672327D01*
X671453Y115169D01*
X669810Y117310D01*
X668695Y118166D01*
X669126Y119436D01*
X672846D01*
X674114Y119689D01*
X675189Y120407D01*
X676469Y121686D01*
X690127D01*
X701000Y110814D01*
Y109186D01*
X673660Y81846D01*
X672839Y82180D01*
X672508Y82490D01*
X672838Y85000D01*
X672486Y87676D01*
X671453Y90169D01*
X669810Y92310D01*
X667669Y93953D01*
X665176Y94986D01*
X662500Y95338D01*
X659824Y94986D01*
X657331Y93953D01*
X655190Y92310D01*
X653547Y90169D01*
X652514Y87676D01*
X652482Y87434D01*
X641750D01*
Y89250D01*
X634744D01*
X627372Y96622D01*
X626628Y97119D01*
X625750Y97294D01*
X601079D01*
X600564Y98064D01*
X599158Y99003D01*
X597500Y99333D01*
X595842Y99003D01*
X594436Y98064D01*
X593497Y96658D01*
X593167Y95000D01*
X593497Y93342D01*
X594436Y91936D01*
X595842Y90997D01*
X597500Y90667D01*
X599158Y90997D01*
X600564Y91936D01*
X601079Y92706D01*
X624800D01*
X632128Y85378D01*
X632250Y85296D01*
Y78250D01*
X641750D01*
Y81316D01*
X652931D01*
X653547Y79831D01*
X655190Y77690D01*
X657331Y76047D01*
X657845Y75834D01*
X657592Y74564D01*
X633623D01*
X625250Y82936D01*
Y89250D01*
X615750D01*
Y78250D01*
X620564D01*
X629907Y68907D01*
X630982Y68189D01*
X632250Y67936D01*
X653210D01*
X653837Y66666D01*
X652420Y64820D01*
X651257Y62013D01*
X651028Y60270D01*
X662500D01*
X673972D01*
X673743Y62013D01*
X672580Y64820D01*
X670730Y67230D01*
X670163Y67666D01*
X670327Y69141D01*
X705686Y104500D01*
X710500D01*
Y115500D01*
X705686D01*
X693843Y127343D01*
X692768Y128061D01*
X691500Y128314D01*
X674750D01*
X674020Y128168D01*
X672750Y128983D01*
Y145250D01*
X652250D01*
Y138059D01*
X641750D01*
Y140500D01*
X640059D01*
Y157000D01*
X641750D01*
Y168000D01*
X640059D01*
Y183000D01*
X640059Y183000D01*
X639826Y184170D01*
X639163Y185163D01*
X639163Y185163D01*
X623709Y200617D01*
Y203750D01*
X623709Y203750D01*
X623650Y204046D01*
Y219250D01*
D02*
G37*
G36*
X176646Y129980D02*
X172520D01*
Y125854D01*
X173412Y126031D01*
X175244Y127256D01*
X176469Y129088D01*
X176646Y129980D01*
D02*
G37*
G36*
X169980D02*
X165854D01*
X166031Y129088D01*
X167256Y127256D01*
X169088Y126031D01*
X169980Y125854D01*
Y129980D01*
D02*
G37*
G36*
X351646Y128730D02*
X347520D01*
Y124604D01*
X348412Y124781D01*
X350244Y126006D01*
X351469Y127838D01*
X351646Y128730D01*
D02*
G37*
G36*
X344980D02*
X340854D01*
X341031Y127838D01*
X342256Y126006D01*
X344088Y124781D01*
X344980Y124604D01*
Y128730D01*
D02*
G37*
G36*
X196540Y129980D02*
X191270D01*
Y124460D01*
X196540D01*
Y129980D01*
D02*
G37*
G36*
X188730D02*
X183460D01*
Y124460D01*
X188730D01*
Y129980D01*
D02*
G37*
G36*
X606270Y126646D02*
Y122520D01*
X610396D01*
X610219Y123412D01*
X608994Y125244D01*
X607162Y126469D01*
X606270Y126646D01*
D02*
G37*
G36*
X603730D02*
X602838Y126469D01*
X601006Y125244D01*
X599781Y123412D01*
X599604Y122520D01*
X603730D01*
Y126646D01*
D02*
G37*
G36*
X107466Y129366D02*
X95020D01*
Y122000D01*
X107466D01*
Y129366D01*
D02*
G37*
G36*
X92480D02*
X80034D01*
Y122000D01*
X92480D01*
Y129366D01*
D02*
G37*
G36*
X527520Y122896D02*
Y118770D01*
X531646D01*
X531469Y119662D01*
X530244Y121494D01*
X528412Y122719D01*
X527520Y122896D01*
D02*
G37*
G36*
X524980D02*
X524088Y122719D01*
X522256Y121494D01*
X521031Y119662D01*
X520854Y118770D01*
X524980D01*
Y122896D01*
D02*
G37*
G36*
X610396Y119980D02*
X606270D01*
Y115854D01*
X607162Y116031D01*
X608994Y117256D01*
X610219Y119088D01*
X610396Y119980D01*
D02*
G37*
G36*
X603730D02*
X599604D01*
X599781Y119088D01*
X601006Y117256D01*
X602838Y116031D01*
X603730Y115854D01*
Y119980D01*
D02*
G37*
G36*
X483770Y117896D02*
Y113770D01*
X487896D01*
X487719Y114662D01*
X486494Y116494D01*
X484662Y117719D01*
X483770Y117896D01*
D02*
G37*
G36*
X481230D02*
X480338Y117719D01*
X478506Y116494D01*
X477281Y114662D01*
X477104Y113770D01*
X481230D01*
Y117896D01*
D02*
G37*
G36*
X531646Y116230D02*
X527520D01*
Y112104D01*
X528412Y112281D01*
X530244Y113506D01*
X531469Y115338D01*
X531646Y116230D01*
D02*
G37*
G36*
X524980D02*
X520854D01*
X521031Y115338D01*
X522256Y113506D01*
X524088Y112281D01*
X524980Y112104D01*
Y116230D01*
D02*
G37*
G36*
X626500Y114250D02*
X617000D01*
Y111044D01*
X603579D01*
X603064Y111814D01*
X601658Y112753D01*
X600000Y113083D01*
X598342Y112753D01*
X596936Y111814D01*
X595997Y110408D01*
X595667Y108750D01*
X595997Y107092D01*
X596936Y105686D01*
X598342Y104747D01*
X600000Y104417D01*
X601658Y104747D01*
X603064Y105686D01*
X603579Y106456D01*
X617000D01*
Y103250D01*
X626500D01*
Y114250D01*
D02*
G37*
G36*
X305396Y114980D02*
X301270D01*
Y110854D01*
X302162Y111031D01*
X303994Y112256D01*
X305219Y114088D01*
X305396Y114980D01*
D02*
G37*
G36*
X196040Y115540D02*
X190770D01*
Y110020D01*
X196040D01*
Y115540D01*
D02*
G37*
G36*
X582520Y114146D02*
Y110020D01*
X586646D01*
X586469Y110912D01*
X585244Y112744D01*
X583412Y113969D01*
X582520Y114146D01*
D02*
G37*
G36*
X579980D02*
X579088Y113969D01*
X577256Y112744D01*
X576031Y110912D01*
X575854Y110020D01*
X579980D01*
Y114146D01*
D02*
G37*
G36*
X188230Y115540D02*
X182960D01*
Y110020D01*
X188230D01*
Y115540D01*
D02*
G37*
G36*
X372520Y112896D02*
Y108770D01*
X376646D01*
X376469Y109662D01*
X375244Y111494D01*
X373412Y112718D01*
X372520Y112896D01*
D02*
G37*
G36*
X369980D02*
X369088Y112718D01*
X367256Y111494D01*
X366031Y109662D01*
X365854Y108770D01*
X369980D01*
Y112896D01*
D02*
G37*
G36*
X487896Y111230D02*
X483770D01*
Y107104D01*
X484662Y107281D01*
X486494Y108506D01*
X487719Y110338D01*
X487896Y111230D01*
D02*
G37*
G36*
X481230D02*
X477104D01*
X477281Y110338D01*
X478506Y108506D01*
X480338Y107281D01*
X481230Y107104D01*
Y111230D01*
D02*
G37*
G36*
X586646Y107480D02*
X582520D01*
Y103354D01*
X583412Y103531D01*
X585244Y104756D01*
X586469Y106588D01*
X586646Y107480D01*
D02*
G37*
G36*
X579980D02*
X575854D01*
X576031Y106588D01*
X577256Y104756D01*
X579088Y103531D01*
X579980Y103354D01*
Y107480D01*
D02*
G37*
G36*
X235020Y106646D02*
Y102520D01*
X239146D01*
X238969Y103412D01*
X237744Y105244D01*
X235912Y106468D01*
X235020Y106646D01*
D02*
G37*
G36*
X232480D02*
X231588Y106468D01*
X229756Y105244D01*
X228531Y103412D01*
X228354Y102520D01*
X232480D01*
Y106646D01*
D02*
G37*
G36*
X130020D02*
Y102520D01*
X134146D01*
X133968Y103412D01*
X132744Y105244D01*
X130912Y106468D01*
X130020Y106646D01*
D02*
G37*
G36*
X127480D02*
X126588Y106468D01*
X124756Y105244D01*
X123531Y103412D01*
X123354Y102520D01*
X127480D01*
Y106646D01*
D02*
G37*
G36*
X196040Y107480D02*
X190770D01*
Y101960D01*
X196040D01*
Y107480D01*
D02*
G37*
G36*
X188230D02*
X182960D01*
Y101960D01*
X188230D01*
Y107480D01*
D02*
G37*
G36*
X239146Y99980D02*
X235020D01*
Y95854D01*
X235912Y96031D01*
X237744Y97256D01*
X238969Y99088D01*
X239146Y99980D01*
D02*
G37*
G36*
X232480D02*
X228354D01*
X228531Y99088D01*
X229756Y97256D01*
X231588Y96031D01*
X232480Y95854D01*
Y99980D01*
D02*
G37*
G36*
X134146D02*
X130020D01*
Y95854D01*
X130912Y96031D01*
X132744Y97256D01*
X133968Y99088D01*
X134146Y99980D01*
D02*
G37*
G36*
X127480D02*
X123354D01*
X123531Y99088D01*
X124756Y97256D01*
X126588Y96031D01*
X127480Y95854D01*
Y99980D01*
D02*
G37*
G36*
X340040Y95540D02*
X334770D01*
Y90020D01*
X340040D01*
Y95540D01*
D02*
G37*
G36*
X332230D02*
X326960D01*
Y90020D01*
X332230D01*
Y95540D01*
D02*
G37*
G36*
X281040Y96540D02*
X272770D01*
Y89270D01*
X281040D01*
Y96540D01*
D02*
G37*
G36*
X188440Y89940D02*
X178170D01*
Y82520D01*
X188440D01*
Y89940D01*
D02*
G37*
G36*
X175630D02*
X165360D01*
Y82520D01*
X175630D01*
Y89940D01*
D02*
G37*
G36*
X340040Y87480D02*
X334770D01*
Y81960D01*
X340040D01*
Y87480D01*
D02*
G37*
G36*
X332230D02*
X326960D01*
Y81960D01*
X332230D01*
Y87480D01*
D02*
G37*
G36*
X355020Y82896D02*
Y78770D01*
X359146D01*
X358969Y79662D01*
X357744Y81494D01*
X355912Y82719D01*
X355020Y82896D01*
D02*
G37*
G36*
X352480D02*
X351588Y82719D01*
X349756Y81494D01*
X348531Y79662D01*
X348354Y78770D01*
X352480D01*
Y82896D01*
D02*
G37*
G36*
X590020Y79146D02*
Y75020D01*
X594146D01*
X593969Y75912D01*
X592744Y77744D01*
X590912Y78969D01*
X590020Y79146D01*
D02*
G37*
G36*
X587480D02*
X586588Y78969D01*
X584756Y77744D01*
X583531Y75912D01*
X583354Y75020D01*
X587480D01*
Y79146D01*
D02*
G37*
G36*
X188440Y79980D02*
X178170D01*
Y72560D01*
X188440D01*
Y79980D01*
D02*
G37*
G36*
X175630D02*
X165360D01*
Y72560D01*
X175630D01*
Y79980D01*
D02*
G37*
G36*
X359146Y76230D02*
X355020D01*
Y72104D01*
X355912Y72281D01*
X357744Y73506D01*
X358969Y75338D01*
X359146Y76230D01*
D02*
G37*
G36*
X352480D02*
X348354D01*
X348531Y75338D01*
X349756Y73506D01*
X351588Y72281D01*
X352480Y72104D01*
Y76230D01*
D02*
G37*
G36*
X239790Y76790D02*
X234520D01*
Y71270D01*
X239790D01*
Y76790D01*
D02*
G37*
G36*
X231980D02*
X226710D01*
Y71270D01*
X231980D01*
Y76790D01*
D02*
G37*
G36*
X594146Y72480D02*
X590020D01*
Y68354D01*
X590912Y68531D01*
X592744Y69756D01*
X593969Y71588D01*
X594146Y72480D01*
D02*
G37*
G36*
X587480D02*
X583354D01*
X583531Y71588D01*
X584756Y69756D01*
X586588Y68531D01*
X587480Y68354D01*
Y72480D01*
D02*
G37*
G36*
X552520Y71561D02*
Y66270D01*
X558679D01*
X558622Y66707D01*
X557963Y68298D01*
X556914Y69664D01*
X555548Y70713D01*
X553957Y71372D01*
X552520Y71561D01*
D02*
G37*
G36*
X549980D02*
X548543Y71372D01*
X546952Y70713D01*
X545586Y69664D01*
X544537Y68298D01*
X543878Y66707D01*
X543821Y66270D01*
X549980D01*
Y71561D01*
D02*
G37*
G36*
X412520D02*
Y66270D01*
X418679D01*
X418622Y66707D01*
X417963Y68298D01*
X416914Y69664D01*
X415548Y70713D01*
X413957Y71372D01*
X412520Y71561D01*
D02*
G37*
G36*
X409980D02*
X408543Y71372D01*
X406952Y70713D01*
X405586Y69664D01*
X404537Y68298D01*
X403878Y66707D01*
X403821Y66270D01*
X409980D01*
Y71561D01*
D02*
G37*
G36*
X313770Y67896D02*
Y63770D01*
X317896D01*
X317719Y64662D01*
X316494Y66494D01*
X314662Y67719D01*
X313770Y67896D01*
D02*
G37*
G36*
X311230D02*
X310338Y67719D01*
X308506Y66494D01*
X307281Y64662D01*
X307104Y63770D01*
X311230D01*
Y67896D01*
D02*
G37*
G36*
X303040Y70730D02*
X294770D01*
Y63460D01*
X303040D01*
Y70730D01*
D02*
G37*
G36*
X292230D02*
X283960D01*
Y63460D01*
X292230D01*
Y70730D01*
D02*
G37*
G36*
X239790Y68730D02*
X234520D01*
Y63210D01*
X239790D01*
Y68730D01*
D02*
G37*
G36*
X231980D02*
X226710D01*
Y63210D01*
X231980D01*
Y68730D01*
D02*
G37*
G36*
X517500Y80583D02*
X515842Y80253D01*
X514436Y79314D01*
X513497Y77908D01*
X513167Y76250D01*
X513497Y74592D01*
X514436Y73186D01*
X515842Y72247D01*
X517500Y71917D01*
X519158Y72247D01*
X519518Y72487D01*
X525247Y66759D01*
X524897Y65000D01*
X525305Y62952D01*
X526465Y61215D01*
X528201Y60055D01*
X530250Y59647D01*
X532250D01*
X534298Y60055D01*
X536035Y61215D01*
X537195Y62952D01*
X537603Y65000D01*
X537195Y67048D01*
X536035Y68785D01*
X534298Y69945D01*
X532250Y70353D01*
X530250D01*
X528491Y70003D01*
X521731Y76763D01*
X521503Y77908D01*
X520564Y79314D01*
X519158Y80253D01*
X517500Y80583D01*
D02*
G37*
G36*
X571270Y62896D02*
Y58770D01*
X575396D01*
X575219Y59662D01*
X573994Y61494D01*
X572162Y62719D01*
X571270Y62896D01*
D02*
G37*
G36*
X568730D02*
X567838Y62719D01*
X566006Y61494D01*
X564781Y59662D01*
X564604Y58770D01*
X568730D01*
Y62896D01*
D02*
G37*
G36*
X558679Y63730D02*
X552520D01*
Y58439D01*
X553957Y58628D01*
X555548Y59287D01*
X556914Y60336D01*
X557963Y61702D01*
X558622Y63293D01*
X558679Y63730D01*
D02*
G37*
G36*
X549980D02*
X543821D01*
X543878Y63293D01*
X544537Y61702D01*
X545586Y60336D01*
X546952Y59287D01*
X548543Y58628D01*
X549980Y58439D01*
Y63730D01*
D02*
G37*
G36*
X418679D02*
X412520D01*
Y58439D01*
X413957Y58628D01*
X415548Y59287D01*
X416914Y60336D01*
X417963Y61702D01*
X418622Y63293D01*
X418679Y63730D01*
D02*
G37*
G36*
X409980D02*
X403821D01*
X403878Y63293D01*
X404537Y61702D01*
X405586Y60336D01*
X406952Y59287D01*
X408543Y58628D01*
X409980Y58439D01*
Y63730D01*
D02*
G37*
G36*
X317896Y61230D02*
X313770D01*
Y57104D01*
X314662Y57281D01*
X316494Y58506D01*
X317719Y60338D01*
X317896Y61230D01*
D02*
G37*
G36*
X311230D02*
X307104D01*
X307281Y60338D01*
X308506Y58506D01*
X310338Y57281D01*
X311230Y57104D01*
Y61230D01*
D02*
G37*
G36*
X575396Y56230D02*
X571270D01*
Y52104D01*
X572162Y52281D01*
X573994Y53506D01*
X575219Y55338D01*
X575396Y56230D01*
D02*
G37*
G36*
X568730D02*
X564604D01*
X564781Y55338D01*
X566006Y53506D01*
X567838Y52281D01*
X568730Y52104D01*
Y56230D01*
D02*
G37*
G36*
X673972Y57730D02*
X663770D01*
Y47528D01*
X665512Y47757D01*
X668320Y48920D01*
X670730Y50770D01*
X672580Y53180D01*
X673743Y55988D01*
X673972Y57730D01*
D02*
G37*
G36*
X661230D02*
X651028D01*
X651257Y55988D01*
X652420Y53180D01*
X654270Y50770D01*
X656680Y48920D01*
X659487Y47757D01*
X661230Y47528D01*
Y57730D01*
D02*
G37*
G36*
X584000Y46500D02*
X563500D01*
Y26000D01*
X584000D01*
Y46500D01*
D02*
G37*
G36*
X548750Y46588D02*
X546074Y46236D01*
X543581Y45203D01*
X541440Y43560D01*
X539797Y41419D01*
X538764Y38926D01*
X538411Y36250D01*
X538764Y33574D01*
X539797Y31081D01*
X541440Y28940D01*
X543581Y27297D01*
X546074Y26264D01*
X548750Y25912D01*
X551426Y26264D01*
X553919Y27297D01*
X556060Y28940D01*
X557703Y31081D01*
X558736Y33574D01*
X559088Y36250D01*
X558736Y38926D01*
X557703Y41419D01*
X556060Y43560D01*
X553919Y45203D01*
X551426Y46236D01*
X548750Y46588D01*
D02*
G37*
G36*
X523750D02*
X521074Y46236D01*
X518581Y45203D01*
X516440Y43560D01*
X514797Y41419D01*
X513764Y38926D01*
X513411Y36250D01*
X513764Y33574D01*
X514797Y31081D01*
X516440Y28940D01*
X518581Y27297D01*
X521074Y26264D01*
X523750Y25912D01*
X526426Y26264D01*
X528919Y27297D01*
X531060Y28940D01*
X532703Y31081D01*
X533736Y33574D01*
X534088Y36250D01*
X533736Y38926D01*
X532703Y41419D01*
X531060Y43560D01*
X528919Y45203D01*
X526426Y46236D01*
X523750Y46588D01*
D02*
G37*
G36*
X497750D02*
X495074Y46236D01*
X492581Y45203D01*
X490440Y43560D01*
X488797Y41419D01*
X487764Y38926D01*
X487411Y36250D01*
X487764Y33574D01*
X488797Y31081D01*
X490440Y28940D01*
X492581Y27297D01*
X495074Y26264D01*
X497750Y25912D01*
X500426Y26264D01*
X502919Y27297D01*
X505060Y28940D01*
X506703Y31081D01*
X507736Y33574D01*
X508088Y36250D01*
X507736Y38926D01*
X506703Y41419D01*
X505060Y43560D01*
X502919Y45203D01*
X500426Y46236D01*
X497750Y46588D01*
D02*
G37*
G36*
X473750D02*
X471074Y46236D01*
X468581Y45203D01*
X466440Y43560D01*
X464797Y41419D01*
X463764Y38926D01*
X463411Y36250D01*
X463764Y33574D01*
X464797Y31081D01*
X466440Y28940D01*
X468581Y27297D01*
X471074Y26264D01*
X473750Y25912D01*
X476426Y26264D01*
X478919Y27297D01*
X481060Y28940D01*
X482703Y31081D01*
X483736Y33574D01*
X484088Y36250D01*
X483736Y38926D01*
X482703Y41419D01*
X481060Y43560D01*
X478919Y45203D01*
X476426Y46236D01*
X473750Y46588D01*
D02*
G37*
G36*
X446750D02*
X444074Y46236D01*
X441581Y45203D01*
X439440Y43560D01*
X437797Y41419D01*
X436764Y38926D01*
X436412Y36250D01*
X436764Y33574D01*
X437797Y31081D01*
X439440Y28940D01*
X441581Y27297D01*
X444074Y26264D01*
X446750Y25912D01*
X449426Y26264D01*
X451919Y27297D01*
X454060Y28940D01*
X455703Y31081D01*
X456736Y33574D01*
X457088Y36250D01*
X456736Y38926D01*
X455703Y41419D01*
X454060Y43560D01*
X451919Y45203D01*
X449426Y46236D01*
X446750Y46588D01*
D02*
G37*
G36*
X388750Y68083D02*
X387092Y67753D01*
X385686Y66814D01*
X384747Y65408D01*
X384417Y63750D01*
X384747Y62092D01*
X385686Y60686D01*
X387092Y59747D01*
X388750Y59417D01*
X389658Y59597D01*
X411597Y37659D01*
X411412Y36250D01*
X411764Y33574D01*
X412797Y31081D01*
X414440Y28940D01*
X416581Y27297D01*
X419074Y26264D01*
X421750Y25912D01*
X424426Y26264D01*
X426919Y27297D01*
X429060Y28940D01*
X430703Y31081D01*
X431736Y33574D01*
X432088Y36250D01*
X431736Y38926D01*
X430703Y41419D01*
X429060Y43560D01*
X426919Y45203D01*
X424426Y46236D01*
X421750Y46588D01*
X419074Y46236D01*
X416581Y45203D01*
X414440Y43560D01*
X414047Y43048D01*
X412779Y42965D01*
X392903Y62842D01*
X393083Y63750D01*
X392753Y65408D01*
X391814Y66814D01*
X390408Y67753D01*
X388750Y68083D01*
D02*
G37*
G36*
X377500D02*
X375842Y67753D01*
X374436Y66814D01*
X373497Y65408D01*
X373167Y63750D01*
X373497Y62092D01*
X374436Y60686D01*
X375206Y60171D01*
Y54500D01*
X375381Y53622D01*
X375878Y52878D01*
X387031Y41725D01*
X386797Y41419D01*
X385764Y38926D01*
X385411Y36250D01*
X385764Y33574D01*
X386797Y31081D01*
X388440Y28940D01*
X390581Y27297D01*
X393074Y26264D01*
X395750Y25912D01*
X398426Y26264D01*
X400919Y27297D01*
X403060Y28940D01*
X404703Y31081D01*
X405736Y33574D01*
X406088Y36250D01*
X405736Y38926D01*
X404703Y41419D01*
X403060Y43560D01*
X400919Y45203D01*
X398426Y46236D01*
X395750Y46588D01*
X393074Y46236D01*
X390581Y45203D01*
X390275Y44969D01*
X379794Y55450D01*
Y60171D01*
X380564Y60686D01*
X381503Y62092D01*
X381833Y63750D01*
X381503Y65408D01*
X380564Y66814D01*
X379158Y67753D01*
X377500Y68083D01*
D02*
G37*
G36*
X319750Y46588D02*
X317074Y46236D01*
X314581Y45203D01*
X312440Y43560D01*
X310797Y41419D01*
X309764Y38926D01*
X309412Y36250D01*
X309764Y33574D01*
X310797Y31081D01*
X312440Y28940D01*
X314581Y27297D01*
X317074Y26264D01*
X319750Y25912D01*
X322426Y26264D01*
X324919Y27297D01*
X327060Y28940D01*
X328703Y31081D01*
X329736Y33574D01*
X330088Y36250D01*
X329736Y38926D01*
X328703Y41419D01*
X327060Y43560D01*
X324919Y45203D01*
X322426Y46236D01*
X319750Y46588D01*
D02*
G37*
G36*
X294750D02*
X292074Y46236D01*
X289581Y45203D01*
X287440Y43560D01*
X285797Y41419D01*
X284764Y38926D01*
X284412Y36250D01*
X284764Y33574D01*
X285797Y31081D01*
X287440Y28940D01*
X289581Y27297D01*
X292074Y26264D01*
X294750Y25912D01*
X297426Y26264D01*
X299919Y27297D01*
X302060Y28940D01*
X303703Y31081D01*
X304736Y33574D01*
X305088Y36250D01*
X304736Y38926D01*
X303703Y41419D01*
X302060Y43560D01*
X299919Y45203D01*
X297426Y46236D01*
X294750Y46588D01*
D02*
G37*
G36*
X268750D02*
X266074Y46236D01*
X263581Y45203D01*
X261440Y43560D01*
X259797Y41419D01*
X258764Y38926D01*
X258412Y36250D01*
X258764Y33574D01*
X259797Y31081D01*
X261440Y28940D01*
X263581Y27297D01*
X266074Y26264D01*
X268750Y25912D01*
X271426Y26264D01*
X273919Y27297D01*
X276060Y28940D01*
X277703Y31081D01*
X278736Y33574D01*
X279088Y36250D01*
X278736Y38926D01*
X277703Y41419D01*
X276060Y43560D01*
X273919Y45203D01*
X271426Y46236D01*
X268750Y46588D01*
D02*
G37*
G36*
X243750D02*
X241074Y46236D01*
X238581Y45203D01*
X236440Y43560D01*
X234797Y41419D01*
X233764Y38926D01*
X233412Y36250D01*
X233764Y33574D01*
X234797Y31081D01*
X236440Y28940D01*
X238581Y27297D01*
X241074Y26264D01*
X243750Y25912D01*
X246426Y26264D01*
X248919Y27297D01*
X251060Y28940D01*
X252703Y31081D01*
X253736Y33574D01*
X254088Y36250D01*
X253736Y38926D01*
X252703Y41419D01*
X251060Y43560D01*
X248919Y45203D01*
X246426Y46236D01*
X243750Y46588D01*
D02*
G37*
G36*
X217750D02*
X215074Y46236D01*
X212581Y45203D01*
X210440Y43560D01*
X208797Y41419D01*
X207764Y38926D01*
X207411Y36250D01*
X207764Y33574D01*
X208797Y31081D01*
X210440Y28940D01*
X212581Y27297D01*
X215074Y26264D01*
X217750Y25912D01*
X220426Y26264D01*
X222919Y27297D01*
X225060Y28940D01*
X226703Y31081D01*
X227736Y33574D01*
X228088Y36250D01*
X227736Y38926D01*
X226703Y41419D01*
X225060Y43560D01*
X222919Y45203D01*
X220426Y46236D01*
X217750Y46588D01*
D02*
G37*
G36*
X192750D02*
X190074Y46236D01*
X187581Y45203D01*
X185440Y43560D01*
X183797Y41419D01*
X182764Y38926D01*
X182411Y36250D01*
X182764Y33574D01*
X183797Y31081D01*
X185440Y28940D01*
X187581Y27297D01*
X190074Y26264D01*
X192750Y25912D01*
X195426Y26264D01*
X197919Y27297D01*
X200060Y28940D01*
X201703Y31081D01*
X202736Y33574D01*
X203088Y36250D01*
X202736Y38926D01*
X201703Y41419D01*
X200060Y43560D01*
X197919Y45203D01*
X195426Y46236D01*
X192750Y46588D01*
D02*
G37*
G36*
X167750D02*
X165074Y46236D01*
X162581Y45203D01*
X160440Y43560D01*
X158797Y41419D01*
X157764Y38926D01*
X157411Y36250D01*
X157764Y33574D01*
X158797Y31081D01*
X160440Y28940D01*
X162581Y27297D01*
X165074Y26264D01*
X167750Y25912D01*
X170426Y26264D01*
X172919Y27297D01*
X175060Y28940D01*
X176703Y31081D01*
X177736Y33574D01*
X178088Y36250D01*
X177736Y38926D01*
X176703Y41419D01*
X175060Y43560D01*
X172919Y45203D01*
X170426Y46236D01*
X167750Y46588D01*
D02*
G37*
G36*
X141750D02*
X139074Y46236D01*
X136581Y45203D01*
X134440Y43560D01*
X132797Y41419D01*
X131764Y38926D01*
X131412Y36250D01*
X131764Y33574D01*
X132797Y31081D01*
X134440Y28940D01*
X136581Y27297D01*
X139074Y26264D01*
X141750Y25912D01*
X144426Y26264D01*
X146919Y27297D01*
X149060Y28940D01*
X150703Y31081D01*
X151736Y33574D01*
X152088Y36250D01*
X151736Y38926D01*
X150703Y41419D01*
X149060Y43560D01*
X146919Y45203D01*
X144426Y46236D01*
X141750Y46588D01*
D02*
G37*
G36*
X116750D02*
X114074Y46236D01*
X111581Y45203D01*
X109440Y43560D01*
X107797Y41419D01*
X106764Y38926D01*
X106412Y36250D01*
X106764Y33574D01*
X107797Y31081D01*
X109440Y28940D01*
X111581Y27297D01*
X114074Y26264D01*
X116750Y25912D01*
X119426Y26264D01*
X121919Y27297D01*
X124060Y28940D01*
X125703Y31081D01*
X126736Y33574D01*
X127088Y36250D01*
X126736Y38926D01*
X125703Y41419D01*
X124060Y43560D01*
X121919Y45203D01*
X119426Y46236D01*
X116750Y46588D01*
D02*
G37*
G36*
X90750D02*
X88074Y46236D01*
X85581Y45203D01*
X83440Y43560D01*
X81797Y41419D01*
X80764Y38926D01*
X80412Y36250D01*
X80764Y33574D01*
X81797Y31081D01*
X83440Y28940D01*
X85581Y27297D01*
X88074Y26264D01*
X90750Y25912D01*
X93426Y26264D01*
X95919Y27297D01*
X98060Y28940D01*
X99703Y31081D01*
X100736Y33574D01*
X101088Y36250D01*
X100736Y38926D01*
X99703Y41419D01*
X98060Y43560D01*
X95919Y45203D01*
X93426Y46236D01*
X90750Y46588D01*
D02*
G37*
G36*
X343480Y34980D02*
X333278D01*
X333507Y33237D01*
X334670Y30430D01*
X336520Y28020D01*
X338930Y26170D01*
X341737Y25007D01*
X343480Y24778D01*
Y34980D01*
D02*
G37*
%LPD*%
G36*
X346750Y207000D02*
X348686D01*
Y197959D01*
X347513Y197473D01*
X343893Y201093D01*
X342818Y201811D01*
X341550Y202064D01*
X340282Y201811D01*
X339207Y201093D01*
X339174Y201044D01*
X333350D01*
Y201400D01*
X318996D01*
X318510Y202573D01*
X325122Y209186D01*
X346750D01*
Y207000D01*
D02*
G37*
G36*
X315250Y171100D02*
Y161100D01*
Y151044D01*
X312329D01*
X311814Y151814D01*
X310408Y152753D01*
X310073Y152820D01*
X309704Y154035D01*
X310622Y154953D01*
X311119Y155697D01*
X311294Y156575D01*
Y162621D01*
X311119Y163499D01*
X310622Y164244D01*
X303544Y171322D01*
Y173921D01*
X304314Y174436D01*
X305253Y175842D01*
X305583Y177500D01*
X305253Y179158D01*
X304764Y179891D01*
X305686Y180686D01*
X307092Y179747D01*
X308750Y179417D01*
X310408Y179747D01*
X311814Y180686D01*
X312329Y181456D01*
X315250D01*
Y171100D01*
D02*
G37*
G36*
X309390Y202827D02*
X292657Y186093D01*
X291939Y185018D01*
X291686Y183750D01*
Y177066D01*
X291221Y176763D01*
X290416Y176578D01*
X282903Y184092D01*
X283083Y185000D01*
X282753Y186658D01*
X281814Y188064D01*
X281244Y188445D01*
X281071Y190068D01*
X283293Y192290D01*
X283790Y193034D01*
X283965Y193912D01*
Y198261D01*
X283790Y199139D01*
X283293Y199883D01*
X280349Y202827D01*
X280835Y204000D01*
X308904D01*
X309390Y202827D01*
D02*
G37*
G36*
X343378Y105878D02*
X343549Y105764D01*
X344183Y104814D01*
X343659Y103544D01*
X327200D01*
X312294Y118450D01*
Y120400D01*
X312650D01*
Y134946D01*
X313823Y135432D01*
X343378Y105878D01*
D02*
G37*
D10*
X333918Y193750D02*
X337668Y190000D01*
X324300Y193750D02*
X333918D01*
X337668Y190000D02*
X338750D01*
X291250Y110000D02*
Y111250D01*
X285000Y117500D02*
X291250Y111250D01*
X280000Y220432D02*
X291500Y231932D01*
X280000Y213050D02*
Y220432D01*
X285000Y213050D02*
Y220432D01*
X265000Y220432D02*
X267668Y223100D01*
X265000Y213050D02*
Y220432D01*
X240700Y143750D02*
X252500D01*
X228750D02*
X240700D01*
X600000Y108750D02*
X621750D01*
X585000Y192500D02*
Y205000D01*
X552250Y237750D02*
X585000Y205000D01*
X292722Y237750D02*
X552250D01*
X289770Y234798D02*
X292722Y237750D01*
X286538Y234798D02*
X289770D01*
X274840Y223100D02*
X286538Y234798D01*
X267668Y223100D02*
X274840D01*
X296932Y231932D02*
X297500Y232500D01*
X291500Y231932D02*
X296932D01*
X270400Y202107D02*
X276420Y196087D01*
X275400Y204532D02*
X281670Y198261D01*
Y193912D02*
Y198261D01*
X267500Y196250D02*
X272913Y190837D01*
X256250Y198750D02*
X283750Y171250D01*
X416250Y36250D02*
X421750D01*
X388750Y63750D02*
X416250Y36250D01*
X345000Y107500D02*
X347500D01*
X394000Y101250D02*
X430250Y65000D01*
X326250Y101250D02*
X394000D01*
X310000Y117500D02*
X326250Y101250D01*
X313000Y139500D02*
X345000Y107500D01*
X310575Y139500D02*
X313000D01*
X302666Y147410D02*
X310575Y139500D01*
X302666Y147410D02*
Y150241D01*
X309000Y156575D01*
Y162621D01*
X301250Y170371D02*
X309000Y162621D01*
X301250Y170371D02*
Y177500D01*
X287668Y223100D02*
X312332D01*
X285000Y220432D02*
X287668Y223100D01*
X312332D02*
X316682Y218750D01*
X335000D01*
X289000Y151500D02*
Y174750D01*
X278750Y185000D02*
X289000Y174750D01*
X288750Y151250D02*
X289000Y151500D01*
X377500Y54500D02*
X395750Y36250D01*
X377500Y54500D02*
Y63750D01*
X275400Y204532D02*
Y212650D01*
X249250Y83775D02*
X275000Y109525D01*
X249250Y70000D02*
Y83775D01*
X255000Y213050D02*
Y226250D01*
X597500Y95000D02*
X625750D01*
X633750Y87000D01*
X634500D01*
X637000Y84500D01*
Y83750D02*
Y84500D01*
X502500Y171250D02*
X528750Y145000D01*
X455000Y171250D02*
X502500D01*
X547500Y137500D02*
X571750Y161750D01*
X455000Y137500D02*
X547500D01*
X571750Y161750D02*
X595000D01*
X240700Y198750D02*
X256250D01*
X275000Y213050D02*
X275400Y212650D01*
X270400Y202107D02*
Y212650D01*
X270000Y213050D02*
X270400Y212650D01*
X272913Y190837D02*
X278595D01*
X281670Y193912D01*
X483750Y213750D02*
X484515Y214515D01*
Y219195D01*
X490320Y225000D01*
X491320D01*
X265000Y168750D02*
X268750Y172500D01*
X240700Y168750D02*
X265000D01*
X258750Y178750D02*
X258750Y178750D01*
X240700Y178750D02*
X258750D01*
X286250Y103750D02*
X302500D01*
X280000Y110000D02*
X286250Y103750D01*
X302500D02*
X314250Y92000D01*
X285000Y117500D02*
Y129450D01*
X295000D02*
Y140000D01*
X519000Y76250D02*
X530250Y65000D01*
X517500Y76250D02*
X519000D01*
X308750Y148750D02*
X324300D01*
X430250Y65000D02*
X431250D01*
X310000Y117500D02*
Y129450D01*
X411250Y213750D02*
Y225000D01*
X411250Y225000D02*
X411250Y225000D01*
X308750Y183750D02*
X324300D01*
X429102Y222852D02*
X431250Y225000D01*
X429102Y218920D02*
Y222852D01*
X388932Y178750D02*
X429102Y218920D01*
X324300Y178750D02*
X388932D01*
X324300Y173750D02*
X399000D01*
X450250Y225000D01*
X451250D01*
X324300Y168750D02*
X414000D01*
X470250Y225000D01*
X471250D01*
X324300Y163750D02*
X411500D01*
X510250Y65000D01*
X511250D01*
X324300Y158750D02*
X396500D01*
X490250Y65000D01*
X491250D01*
X324300Y153750D02*
X381500D01*
X470250Y65000D01*
X471250D01*
X324300Y143750D02*
X371500D01*
X450250Y65000D01*
X451250D01*
X530250D02*
X531250D01*
X324300Y198750D02*
X341550D01*
X207000Y163750D02*
X240700D01*
X280000Y110000D02*
Y129450D01*
X314250Y92000D02*
X314500D01*
X317500Y89000D01*
Y88750D02*
Y89000D01*
X275000Y109525D02*
Y129450D01*
X246000Y66750D02*
X246250D01*
X249250Y69750D01*
Y70000D01*
X293500Y88000D02*
X294250Y88750D01*
X317500D01*
X251250Y72000D02*
X271500D01*
D16*
X611500Y210000D02*
D03*
X703500D02*
D03*
D17*
X93750Y130636D02*
D03*
Y153750D02*
D03*
Y176864D02*
D03*
D18*
X31772Y153750D02*
D03*
D19*
X203100Y81250D02*
D03*
X176900D02*
D03*
X354400Y188750D02*
D03*
X380600D02*
D03*
D21*
X324300Y143750D02*
D03*
Y148750D02*
D03*
Y153750D02*
D03*
Y158750D02*
D03*
Y163750D02*
D03*
Y168750D02*
D03*
Y173750D02*
D03*
Y178750D02*
D03*
Y183750D02*
D03*
Y188750D02*
D03*
Y193750D02*
D03*
Y198750D02*
D03*
X240700D02*
D03*
Y193750D02*
D03*
Y188750D02*
D03*
Y183750D02*
D03*
Y178750D02*
D03*
Y173750D02*
D03*
Y168750D02*
D03*
Y163750D02*
D03*
Y158750D02*
D03*
Y153750D02*
D03*
Y148750D02*
D03*
Y143750D02*
D03*
D22*
X255000Y129450D02*
D03*
X260000D02*
D03*
X265000D02*
D03*
X270000D02*
D03*
X275000D02*
D03*
X280000D02*
D03*
X285000D02*
D03*
X290000D02*
D03*
X295000D02*
D03*
X300000D02*
D03*
X305000D02*
D03*
X310000D02*
D03*
Y213050D02*
D03*
X305000D02*
D03*
X300000D02*
D03*
X295000D02*
D03*
X290000D02*
D03*
X285000D02*
D03*
X280000D02*
D03*
X275000D02*
D03*
X270000D02*
D03*
X265000D02*
D03*
X260000D02*
D03*
X255000D02*
D03*
D25*
X271500Y72000D02*
D03*
X293500D02*
D03*
Y88000D02*
D03*
X271500D02*
D03*
D26*
X551250Y225000D02*
D03*
X531250D02*
D03*
X511250D02*
D03*
X491320D02*
D03*
X471250D02*
D03*
X451250D02*
D03*
X431250D02*
D03*
X411250D02*
D03*
Y65000D02*
D03*
X431250D02*
D03*
X451250D02*
D03*
X471250D02*
D03*
X491250D02*
D03*
X511250D02*
D03*
X531250D02*
D03*
X551250D02*
D03*
D41*
X190000Y131250D02*
D03*
X206000D02*
D03*
X189500Y108750D02*
D03*
X205500D02*
D03*
X368000Y212500D02*
D03*
X352000D02*
D03*
X317500Y88750D02*
D03*
X333500D02*
D03*
X249250Y70000D02*
D03*
X233250D02*
D03*
D42*
X620500Y83750D02*
D03*
X637000D02*
D03*
X621750Y108750D02*
D03*
X638250D02*
D03*
X620500Y162500D02*
D03*
X637000D02*
D03*
X620500Y135000D02*
D03*
X637000D02*
D03*
X705750Y110000D02*
D03*
X689250D02*
D03*
X190500Y163750D02*
D03*
X207000D02*
D03*
D43*
X595000Y145750D02*
D03*
Y161750D02*
D03*
X128750Y151750D02*
D03*
Y135750D02*
D03*
Y194250D02*
D03*
Y178250D02*
D03*
D44*
X218500Y143750D02*
X228750D01*
X252500D02*
X291250D01*
X295000Y140000D01*
X667750Y71250D02*
X705750Y109250D01*
X632250Y71250D02*
X667750D01*
X620500Y83000D02*
X632250Y71250D01*
X674750Y125000D02*
X691500D01*
X674750Y124654D02*
Y125000D01*
X672846Y122750D02*
X674750Y124654D01*
X652154Y122750D02*
X672846D01*
X650250Y124654D02*
X652154Y122750D01*
X650250Y124654D02*
Y125000D01*
X621250D02*
X650250D01*
X691500D02*
X705750Y110750D01*
X347074Y51250D02*
X357000Y41324D01*
X143750Y51250D02*
X347074D01*
X357000Y39910D02*
X358750Y38160D01*
X357000Y39910D02*
Y41324D01*
X92500Y102500D02*
X143750Y51250D01*
X560000Y138750D02*
X563750Y135000D01*
X620500D01*
X295000Y157500D02*
Y183750D01*
X323750Y212500D01*
X295000Y140000D02*
Y157500D01*
X97404Y176864D02*
X127364D01*
X97404D02*
X102500Y181960D01*
X93750Y176864D02*
X97404D01*
X102500Y181960D02*
Y191250D01*
X92500Y201250D02*
X102500Y191250D01*
X358750Y38160D02*
X368840D01*
X370750Y36250D01*
X201250Y61250D02*
Y79400D01*
X203100Y81250D01*
X198750Y58750D02*
X201250Y61250D01*
X163750Y58750D02*
X198750D01*
X156250Y66250D02*
X163750Y58750D01*
X156250Y66250D02*
Y124250D01*
X132000Y148500D02*
X156250Y124250D01*
X132000Y148500D02*
Y148750D01*
X129000Y151750D02*
X132000Y148750D01*
X128750Y151750D02*
X129000D01*
X251250Y230000D02*
X255000Y226250D01*
X203750Y230000D02*
X251250D01*
X152000Y178250D02*
X203750Y230000D01*
X128750Y178250D02*
X152000D01*
X295000Y157500D02*
X296250Y158750D01*
X303750D01*
X323750Y212500D02*
X352000D01*
X503750Y206250D02*
X511250Y213750D01*
Y225000D01*
X209250Y134500D02*
X218500Y143750D01*
X209000Y134500D02*
X209250D01*
X206000Y131500D02*
X209000Y134500D01*
X206000Y131250D02*
Y131500D01*
X205750Y131000D02*
X206000Y131250D01*
X205750Y109000D02*
Y131000D01*
X205500Y108750D02*
X205750Y109000D01*
X205500Y83650D02*
Y108750D01*
X203100Y81250D02*
X205500Y83650D01*
X341550Y198750D02*
X351550Y188750D01*
X354400D01*
X352000Y191150D02*
Y212500D01*
Y191150D02*
X354400Y188750D01*
X621250Y125000D02*
Y134250D01*
X620500Y135000D02*
X621250Y134250D01*
X705750Y110000D02*
Y110750D01*
X620500Y83000D02*
Y83750D01*
X705750Y109250D02*
Y110000D01*
X93750Y153750D02*
X95750Y151750D01*
X128750D01*
X127364Y176864D02*
X128750Y178250D01*
D45*
X595000Y161750D02*
X595375Y162125D01*
X620125D01*
X620500Y162500D01*
X638250Y108750D02*
X638875Y109375D01*
X661875D01*
X662500Y110000D01*
X637000Y135000D02*
X662500D01*
X688000Y110000D02*
X688625Y110625D01*
X662500Y110000D02*
X688000D01*
X636375Y135625D02*
X637000Y136250D01*
Y162500D02*
Y183000D01*
X620650Y199350D02*
X637000Y183000D01*
X620650Y199350D02*
Y203750D01*
X614400Y210000D02*
X620650Y203750D01*
X611500Y210000D02*
X614400D01*
X637000Y136250D02*
Y162500D01*
X636375Y135625D02*
X637000Y135000D01*
X661875Y84375D02*
X662500Y85000D01*
X637625Y84375D02*
X661875D01*
X637000Y83750D02*
X637625Y84375D01*
X688625Y110625D02*
X689250Y110000D01*
D46*
X662500Y135000D02*
D03*
D47*
Y110000D02*
D03*
Y85000D02*
D03*
Y59000D02*
D03*
X268750Y36250D02*
D03*
X243750D02*
D03*
X548750D02*
D03*
X217750D02*
D03*
X523750D02*
D03*
X192750D02*
D03*
X497750D02*
D03*
X167750D02*
D03*
X473750D02*
D03*
X141750D02*
D03*
X446750D02*
D03*
X294750D02*
D03*
X319750D02*
D03*
X344750D02*
D03*
X370750D02*
D03*
X395750D02*
D03*
X421750D02*
D03*
X116750D02*
D03*
X90750D02*
D03*
X243750Y251990D02*
D03*
X548750D02*
D03*
X217750D02*
D03*
X523750D02*
D03*
X192750D02*
D03*
X497750D02*
D03*
X167750D02*
D03*
X473750D02*
D03*
X141750D02*
D03*
X446750D02*
D03*
X294750D02*
D03*
X319750D02*
D03*
X344750D02*
D03*
X370750D02*
D03*
X395750D02*
D03*
X421750D02*
D03*
X116750D02*
D03*
X90750D02*
D03*
D48*
X573750Y36250D02*
D03*
Y251990D02*
D03*
D49*
X338750Y190000D02*
D03*
X300000Y116250D02*
D03*
X291250Y110000D02*
D03*
X210000Y185000D02*
D03*
X115000Y165000D02*
D03*
X312500Y62500D02*
D03*
X353750Y77500D02*
D03*
X570000Y57500D02*
D03*
X588750Y73750D02*
D03*
X608750Y177500D02*
D03*
X610000Y150000D02*
D03*
X605000Y121250D02*
D03*
X581250Y108750D02*
D03*
X482500Y112500D02*
D03*
X526250Y117500D02*
D03*
X492500Y153750D02*
D03*
X522500Y207500D02*
D03*
X510000Y177500D02*
D03*
X457500Y190000D02*
D03*
X371250Y107500D02*
D03*
X346250Y130000D02*
D03*
X273750Y156250D02*
D03*
X213750Y215000D02*
D03*
X147500Y191250D02*
D03*
X162500Y153750D02*
D03*
X171250Y131250D02*
D03*
X233750Y101250D02*
D03*
X128750D02*
D03*
X600000Y108750D02*
D03*
X585000Y192500D02*
D03*
X276420Y196087D02*
D03*
X267500Y196250D02*
D03*
X560000Y138750D02*
D03*
X388750Y63750D02*
D03*
X347500Y107500D02*
D03*
X301250Y177500D02*
D03*
X335000Y218750D02*
D03*
X297500Y232500D02*
D03*
X283750Y171250D02*
D03*
X288750Y151250D02*
D03*
X377500Y63750D02*
D03*
X278750Y185000D02*
D03*
X92500Y201250D02*
D03*
Y102500D02*
D03*
X597500Y95000D02*
D03*
X528750Y145000D02*
D03*
X455000Y171250D02*
D03*
X303750Y158750D02*
D03*
X503750Y206250D02*
D03*
X483750Y213750D02*
D03*
X268750Y172500D02*
D03*
X258750Y178750D02*
D03*
X455000Y137500D02*
D03*
X517500Y76250D02*
D03*
X308750Y148750D02*
D03*
X411250Y213750D02*
D03*
X308750Y183750D02*
D03*
M02*
