G04*
G04 #@! TF.GenerationSoftware,Altium Limited,Altium Designer,19.1.5 (86)*
G04*
G04 Layer_Color=65535*
%FSLAX44Y44*%
%MOMM*%
G71*
G01*
G75*
%ADD10C,0.2000*%
%ADD11C,0.1270*%
%ADD12C,0.1000*%
%ADD13C,0.2500*%
%ADD14C,0.2032*%
%ADD15C,0.2540*%
D10*
X721000Y210000D02*
G03*
X721000Y210000I-1000J0D01*
G01*
X253200Y113850D02*
G03*
X253200Y113850I-1000J0D01*
G01*
X627750Y87000D02*
X629750D01*
X627750Y80500D02*
X629750D01*
X629000Y112000D02*
X631000D01*
X629000Y105500D02*
X631000D01*
X627750Y165750D02*
X629750D01*
X627750Y159250D02*
X629750D01*
X627750Y138250D02*
X629750D01*
X627750Y131750D02*
X629750D01*
X696500Y106750D02*
X698500D01*
X696500Y113250D02*
X698500D01*
X266500Y98000D02*
X298500D01*
X266500Y62000D02*
X298500D01*
X197750Y167000D02*
X199750D01*
X197750Y160500D02*
X199750D01*
D11*
X95782Y116920D02*
G03*
X95782Y116920I-1270J0D01*
G01*
X642500Y202500D02*
X672500D01*
X642500D02*
Y217500D01*
X672500D01*
Y202500D02*
Y217500D01*
X627500Y192500D02*
X687500D01*
X627500D02*
Y227500D01*
X687500D01*
Y192500D02*
Y227500D01*
X317500Y203650D02*
Y206250D01*
X247500Y203650D02*
Y206250D01*
X317500Y136250D02*
Y138850D01*
X247500Y136250D02*
Y138850D01*
X314900Y206250D02*
X317500D01*
X247500D02*
X250100D01*
X314900Y136250D02*
X317500D01*
X247500D02*
X250100D01*
D12*
X211500Y72000D02*
G03*
X211500Y72000I-500J0D01*
G01*
X347000Y198000D02*
G03*
X347000Y198000I-500J0D01*
G01*
X396070Y65000D02*
Y225000D01*
X396250D02*
X566250D01*
X396250Y64980D02*
X566250D01*
Y65000D02*
Y225000D01*
X602250Y281741D02*
Y276410D01*
X604916Y273744D01*
X607582Y276410D01*
Y281741D01*
X611580Y273744D02*
X614246D01*
X615579Y275077D01*
Y277743D01*
X614246Y279075D01*
X611580D01*
X610247Y277743D01*
Y275077D01*
X611580Y273744D01*
X618245D02*
X620911D01*
X619578D01*
Y281741D01*
X618245D01*
X624909Y273744D02*
Y281741D01*
Y276410D02*
X628908Y279075D01*
X624909Y276410D02*
X628908Y273744D01*
X634240D02*
X636906D01*
X638238Y275077D01*
Y277743D01*
X636906Y279075D01*
X634240D01*
X632907Y277743D01*
Y275077D01*
X634240Y273744D01*
X640904Y279075D02*
X643570Y273744D01*
X646236Y279075D01*
X656899Y273744D02*
Y281741D01*
X659565Y279075D01*
X662231Y281741D01*
Y273744D01*
X664896D02*
Y275077D01*
X666229D01*
Y273744D01*
X664896D01*
X671561D02*
Y279075D01*
X674227Y281741D01*
X676893Y279075D01*
Y273744D01*
Y277743D01*
X671561D01*
X679558Y273744D02*
Y275077D01*
X680891D01*
Y273744D01*
X679558D01*
X602250Y261747D02*
X604916D01*
X603583D01*
Y269744D01*
X602250Y268411D01*
X612913Y261747D02*
Y269744D01*
X608914Y265746D01*
X614246D01*
X616912Y267078D02*
Y263080D01*
X618245Y261747D01*
X622244D01*
Y267078D01*
X624909Y261747D02*
X627575D01*
X626242D01*
Y269744D01*
X624909Y268411D01*
X631574D02*
X632907Y269744D01*
X635573D01*
X636906Y268411D01*
Y267078D01*
X635573Y265746D01*
X634240D01*
X635573D01*
X636906Y264413D01*
Y263080D01*
X635573Y261747D01*
X632907D01*
X631574Y263080D01*
X644903Y269744D02*
X639571D01*
Y265746D01*
X642237Y267078D01*
X643570D01*
X644903Y265746D01*
Y263080D01*
X643570Y261747D01*
X640904D01*
X639571Y263080D01*
X602250Y257747D02*
Y249750D01*
X606249D01*
X607582Y251083D01*
Y252416D01*
X606249Y253749D01*
X602250D01*
X606249D01*
X607582Y255082D01*
Y256415D01*
X606249Y257747D01*
X602250D01*
X610247Y249750D02*
Y257747D01*
X612913Y255082D01*
X615579Y257747D01*
Y249750D01*
X623577Y256415D02*
X622244Y257747D01*
X619578D01*
X618245Y256415D01*
Y255082D01*
X619578Y253749D01*
X622244D01*
X623577Y252416D01*
Y251083D01*
X622244Y249750D01*
X619578D01*
X618245Y251083D01*
X626242Y257747D02*
X631574D01*
X628908D01*
Y249750D01*
X634240Y257747D02*
Y251083D01*
X635573Y249750D01*
X638238D01*
X639571Y251083D01*
Y257747D01*
X650235D02*
X652900D01*
X651567D01*
Y249750D01*
X650235D01*
X652900D01*
X656899Y257747D02*
Y251083D01*
X658232Y249750D01*
X660898D01*
X662231Y251083D01*
Y257747D01*
X664896Y256415D02*
X666229Y257747D01*
X668895D01*
X670228Y256415D01*
Y255082D01*
X668895Y253749D01*
X670228Y252416D01*
Y251083D01*
X668895Y249750D01*
X666229D01*
X664896Y251083D01*
Y252416D01*
X666229Y253749D01*
X664896Y255082D01*
Y256415D01*
X666229Y253749D02*
X668895D01*
X672894D02*
X678225D01*
X680891Y249750D02*
X683557D01*
X682224D01*
Y257747D01*
X680891Y256415D01*
X687556Y249750D02*
X690222D01*
X688889D01*
Y257747D01*
X687556Y256415D01*
X694220Y249750D02*
X696886D01*
X695553D01*
Y257747D01*
X694220Y256415D01*
X604582Y227915D02*
X603749Y228748D01*
X602083D01*
X601250Y227915D01*
Y227082D01*
X602083Y226249D01*
X603749D01*
X604582Y225416D01*
Y224583D01*
X603749Y223750D01*
X602083D01*
X601250Y224583D01*
X606248Y228748D02*
Y223750D01*
X608748D01*
X609581Y224583D01*
Y225416D01*
X608748Y226249D01*
X606248D01*
X608748D01*
X609581Y227082D01*
Y227915D01*
X608748Y228748D01*
X606248D01*
X611247Y223750D02*
X612913D01*
X612080D01*
Y228748D01*
X611247Y227915D01*
X316252Y272500D02*
X319584D01*
X321250Y274166D01*
X319584Y275832D01*
X316252D01*
Y277498D02*
X321250D01*
Y279998D01*
X320417Y280831D01*
X317085D01*
X316252Y279998D01*
Y277498D01*
Y282497D02*
X321250D01*
Y284996D01*
X320417Y285829D01*
X317085D01*
X316252Y284996D01*
Y282497D01*
X293335Y275832D02*
X292502Y274999D01*
Y273333D01*
X293335Y272500D01*
X296667D01*
X297500Y273333D01*
Y274999D01*
X296667Y275832D01*
X295001D01*
Y274166D01*
X297500Y277498D02*
X292502D01*
X297500Y280831D01*
X292502D01*
Y282497D02*
X297500D01*
Y284996D01*
X296667Y285829D01*
X293335D01*
X292502Y284996D01*
Y282497D01*
X445002Y2500D02*
Y4166D01*
Y3333D01*
X450000D01*
Y2500D01*
Y4166D01*
Y6665D02*
X445002D01*
X450000Y9998D01*
X445002D01*
Y11664D02*
Y14996D01*
Y13330D01*
X450000D01*
X420835Y5832D02*
X420002Y4999D01*
Y3333D01*
X420835Y2500D01*
X421668D01*
X422501Y3333D01*
Y4999D01*
X423334Y5832D01*
X424167D01*
X425000Y4999D01*
Y3333D01*
X424167Y2500D01*
X420835Y10831D02*
X420002Y9998D01*
Y8331D01*
X420835Y7498D01*
X424167D01*
X425000Y8331D01*
Y9998D01*
X424167Y10831D01*
X420002Y12497D02*
X425000D01*
Y15829D01*
X394585Y5832D02*
X393752Y4999D01*
Y3333D01*
X394585Y2500D01*
X395418D01*
X396251Y3333D01*
Y4999D01*
X397084Y5832D01*
X397917D01*
X398750Y4999D01*
Y3333D01*
X397917Y2500D01*
X393752Y7498D02*
X398750D01*
Y9998D01*
X397917Y10831D01*
X394585D01*
X393752Y9998D01*
Y7498D01*
X398750Y12497D02*
X395418D01*
X393752Y14163D01*
X395418Y15829D01*
X398750D01*
X396251D01*
Y12497D01*
X368752Y2500D02*
X372084D01*
X373750Y4166D01*
X372084Y5832D01*
X368752D01*
Y7498D02*
X373750D01*
Y9998D01*
X372917Y10831D01*
X369585D01*
X368752Y9998D01*
Y7498D01*
Y12497D02*
X373750D01*
Y14996D01*
X372917Y15829D01*
X369585D01*
X368752Y14996D01*
Y12497D01*
X343335Y5832D02*
X342502Y4999D01*
Y3333D01*
X343335Y2500D01*
X346667D01*
X347500Y3333D01*
Y4999D01*
X346667Y5832D01*
X345001D01*
Y4166D01*
X347500Y7498D02*
X342502D01*
X347500Y10831D01*
X342502D01*
Y12497D02*
X347500D01*
Y14996D01*
X346667Y15829D01*
X343335D01*
X342502Y14996D01*
Y12497D01*
X165002Y7500D02*
X170000D01*
Y9999D01*
X169167Y10832D01*
X165835D01*
X165002Y9999D01*
Y7500D01*
X167501Y12498D02*
Y15831D01*
X165835Y14165D02*
X169167D01*
X138752Y7500D02*
X143750D01*
Y9999D01*
X142917Y10832D01*
X139585D01*
X138752Y9999D01*
Y7500D01*
X141251Y12498D02*
Y15831D01*
X687082Y61665D02*
X686249Y62498D01*
X684583D01*
X683750Y61665D01*
Y58333D01*
X684583Y57500D01*
X686249D01*
X687082Y58333D01*
Y59999D01*
X685416D01*
X688748Y57500D02*
Y62498D01*
X692081Y57500D01*
Y62498D01*
X693747D02*
Y57500D01*
X696246D01*
X697079Y58333D01*
Y61665D01*
X696246Y62498D01*
X693747D01*
X685832Y87915D02*
X684999Y88748D01*
X683333D01*
X682500Y87915D01*
Y87082D01*
X683333Y86249D01*
X684999D01*
X685832Y85416D01*
Y84583D01*
X684999Y83750D01*
X683333D01*
X682500Y84583D01*
X687498Y88748D02*
Y83750D01*
X689165Y85416D01*
X690831Y83750D01*
Y88748D01*
X695829Y87915D02*
X694996Y88748D01*
X693330D01*
X692497Y87915D01*
Y84583D01*
X693330Y83750D01*
X694996D01*
X695829Y84583D01*
X697495Y88748D02*
Y83750D01*
X700827D01*
X702494Y88748D02*
Y83750D01*
Y85416D01*
X705826Y88748D01*
X703326Y86249D01*
X705826Y83750D01*
X685832Y122915D02*
X684999Y123748D01*
X683333D01*
X682500Y122915D01*
Y122082D01*
X683333Y121249D01*
X684999D01*
X685832Y120416D01*
Y119583D01*
X684999Y118750D01*
X683333D01*
X682500Y119583D01*
X687498Y123748D02*
Y118750D01*
X689165Y120416D01*
X690831Y118750D01*
Y123748D01*
X692497D02*
Y118750D01*
X694996D01*
X695829Y119583D01*
Y122915D01*
X694996Y123748D01*
X692497D01*
X697495D02*
X699161D01*
X698328D01*
Y118750D01*
X697495D01*
X699161D01*
X704160Y123748D02*
X702494D01*
X701660Y122915D01*
Y119583D01*
X702494Y118750D01*
X704160D01*
X704993Y119583D01*
Y122915D01*
X704160Y123748D01*
X682500Y133750D02*
Y138748D01*
X684999D01*
X685832Y137915D01*
Y136249D01*
X684999Y135416D01*
X682500D01*
X684166D02*
X685832Y133750D01*
X690831Y138748D02*
X687498D01*
Y133750D01*
X690831D01*
X687498Y136249D02*
X689165D01*
X695829Y137915D02*
X694996Y138748D01*
X693330D01*
X692497Y137915D01*
Y137082D01*
X693330Y136249D01*
X694996D01*
X695829Y135416D01*
Y134583D01*
X694996Y133750D01*
X693330D01*
X692497Y134583D01*
X700827Y138748D02*
X697495D01*
Y133750D01*
X700827D01*
X697495Y136249D02*
X699161D01*
X702494Y138748D02*
X705826D01*
X704160D01*
Y133750D01*
X75928Y63624D02*
X79260Y58626D01*
Y63624D02*
X75928Y58626D01*
X84259Y62791D02*
X83426Y63624D01*
X81759D01*
X80926Y62791D01*
Y61958D01*
X81759Y61125D01*
X83426D01*
X84259Y60292D01*
Y59459D01*
X83426Y58626D01*
X81759D01*
X80926Y59459D01*
X85925Y58626D02*
X87591D01*
X86758D01*
Y63624D01*
X85925Y62791D01*
X647500Y159998D02*
X650832Y155000D01*
Y159998D02*
X647500Y155000D01*
X655831Y159165D02*
X654997Y159998D01*
X653331D01*
X652498Y159165D01*
Y158332D01*
X653331Y157499D01*
X654997D01*
X655831Y156666D01*
Y155833D01*
X654997Y155000D01*
X653331D01*
X652498Y155833D01*
X657497Y159165D02*
X658330Y159998D01*
X659996D01*
X660829Y159165D01*
Y158332D01*
X659996Y157499D01*
X659163D01*
X659996D01*
X660829Y156666D01*
Y155833D01*
X659996Y155000D01*
X658330D01*
X657497Y155833D01*
X75928Y279270D02*
X79260Y274272D01*
Y279270D02*
X75928Y274272D01*
X84259Y278437D02*
X83426Y279270D01*
X81759D01*
X80926Y278437D01*
Y277604D01*
X81759Y276771D01*
X83426D01*
X84259Y275938D01*
Y275105D01*
X83426Y274272D01*
X81759D01*
X80926Y275105D01*
X89257Y274272D02*
X85925D01*
X89257Y277604D01*
Y278437D01*
X88424Y279270D01*
X86758D01*
X85925Y278437D01*
X27500Y194998D02*
X30832D01*
X29166D01*
Y190000D01*
X35831Y194165D02*
X34997Y194998D01*
X33331D01*
X32498Y194165D01*
Y193332D01*
X33331Y192499D01*
X34997D01*
X35831Y191666D01*
Y190833D01*
X34997Y190000D01*
X33331D01*
X32498Y190833D01*
X37497Y190000D02*
X39163D01*
X38330D01*
Y194998D01*
X37497Y194165D01*
X616250Y117500D02*
Y122498D01*
X618749D01*
X619582Y121665D01*
Y119999D01*
X618749Y119166D01*
X616250D01*
X617916D02*
X619582Y117500D01*
X624581Y122498D02*
X622915Y121665D01*
X621248Y119999D01*
Y118333D01*
X622081Y117500D01*
X623747D01*
X624581Y118333D01*
Y119166D01*
X623747Y119999D01*
X621248D01*
X617500Y171250D02*
Y176248D01*
X619999D01*
X620832Y175415D01*
Y173749D01*
X619999Y172916D01*
X617500D01*
X619166D02*
X620832Y171250D01*
X625831Y176248D02*
X622498D01*
Y173749D01*
X624165Y174582D01*
X624998D01*
X625831Y173749D01*
Y172083D01*
X624998Y171250D01*
X623331D01*
X622498Y172083D01*
X613750Y92500D02*
Y97498D01*
X616249D01*
X617082Y96665D01*
Y94999D01*
X616249Y94166D01*
X613750D01*
X615416D02*
X617082Y92500D01*
X621247D02*
Y97498D01*
X618748Y94999D01*
X622081D01*
X713750Y107500D02*
Y112498D01*
X716249D01*
X717082Y111665D01*
Y109999D01*
X716249Y109166D01*
X713750D01*
X715416D02*
X717082Y107500D01*
X718748Y111665D02*
X719581Y112498D01*
X721247D01*
X722081Y111665D01*
Y110832D01*
X721247Y109999D01*
X720415D01*
X721247D01*
X722081Y109166D01*
Y108333D01*
X721247Y107500D01*
X719581D01*
X718748Y108333D01*
X616250Y142500D02*
Y147498D01*
X618749D01*
X619582Y146665D01*
Y144999D01*
X618749Y144166D01*
X616250D01*
X617916D02*
X619582Y142500D01*
X624581D02*
X621248D01*
X624581Y145832D01*
Y146665D01*
X623747Y147498D01*
X622081D01*
X621248Y146665D01*
X184894Y176990D02*
Y181988D01*
X187393D01*
X188226Y181155D01*
Y179489D01*
X187393Y178656D01*
X184894D01*
X186560D02*
X188226Y176990D01*
X189892D02*
X191558D01*
X190725D01*
Y181988D01*
X189892Y181155D01*
X387502Y138750D02*
X392500D01*
Y141249D01*
X391667Y142082D01*
X388335D01*
X387502Y141249D01*
Y138750D01*
Y143748D02*
X392500D01*
Y146248D01*
X391667Y147081D01*
X388335D01*
X387502Y146248D01*
Y143748D01*
X392500Y152079D02*
Y148747D01*
X389168Y152079D01*
X388335D01*
X387502Y151246D01*
Y149580D01*
X388335Y148747D01*
X230002Y208750D02*
X235000D01*
Y211249D01*
X234167Y212082D01*
X230835D01*
X230002Y211249D01*
Y208750D01*
Y213748D02*
X235000D01*
Y216248D01*
X234167Y217081D01*
X230835D01*
X230002Y216248D01*
Y213748D01*
X235000Y218747D02*
Y220413D01*
Y219580D01*
X230002D01*
X230835Y218747D01*
X593332Y172915D02*
X592499Y173748D01*
X590833D01*
X590000Y172915D01*
Y169583D01*
X590833Y168750D01*
X592499D01*
X593332Y169583D01*
X594998Y168750D02*
X596664D01*
X595831D01*
Y173748D01*
X594998Y172915D01*
X599164D02*
X599997Y173748D01*
X601663D01*
X602496Y172915D01*
Y169583D01*
X601663Y168750D01*
X599997D01*
X599164Y169583D01*
Y172915D01*
X315832Y100415D02*
X314999Y101248D01*
X313333D01*
X312500Y100415D01*
Y97083D01*
X313333Y96250D01*
X314999D01*
X315832Y97083D01*
X317498D02*
X318331Y96250D01*
X319998D01*
X320831Y97083D01*
Y100415D01*
X319998Y101248D01*
X318331D01*
X317498Y100415D01*
Y99582D01*
X318331Y98749D01*
X320831D01*
X230832Y81665D02*
X229999Y82498D01*
X228333D01*
X227500Y81665D01*
Y78333D01*
X228333Y77500D01*
X229999D01*
X230832Y78333D01*
X232498Y81665D02*
X233331Y82498D01*
X234998D01*
X235831Y81665D01*
Y80832D01*
X234998Y79999D01*
X235831Y79166D01*
Y78333D01*
X234998Y77500D01*
X233331D01*
X232498Y78333D01*
Y79166D01*
X233331Y79999D01*
X232498Y80832D01*
Y81665D01*
X233331Y79999D02*
X234998D01*
X188332Y142915D02*
X187499Y143748D01*
X185833D01*
X185000Y142915D01*
Y139583D01*
X185833Y138750D01*
X187499D01*
X188332Y139583D01*
X189998Y143748D02*
X193331D01*
Y142915D01*
X189998Y139583D01*
Y138750D01*
X188332Y120415D02*
X187499Y121248D01*
X185833D01*
X185000Y120415D01*
Y117083D01*
X185833Y116250D01*
X187499D01*
X188332Y117083D01*
X193331Y121248D02*
X191665Y120415D01*
X189998Y118749D01*
Y117083D01*
X190831Y116250D01*
X192498D01*
X193331Y117083D01*
Y117916D01*
X192498Y118749D01*
X189998D01*
X169582Y99165D02*
X168749Y99998D01*
X167083D01*
X166250Y99165D01*
Y95833D01*
X167083Y95000D01*
X168749D01*
X169582Y95833D01*
X174581Y99998D02*
X171248D01*
Y97499D01*
X172915Y98332D01*
X173748D01*
X174581Y97499D01*
Y95833D01*
X173748Y95000D01*
X172081D01*
X171248Y95833D01*
X342082Y206665D02*
X341249Y207498D01*
X339583D01*
X338750Y206665D01*
Y203333D01*
X339583Y202500D01*
X341249D01*
X342082Y203333D01*
X346247Y202500D02*
Y207498D01*
X343748Y204999D01*
X347081D01*
X349582Y224165D02*
X348749Y224998D01*
X347083D01*
X346250Y224165D01*
Y220833D01*
X347083Y220000D01*
X348749D01*
X349582Y220833D01*
X351248Y224165D02*
X352081Y224998D01*
X353747D01*
X354581Y224165D01*
Y223332D01*
X353747Y222499D01*
X352915D01*
X353747D01*
X354581Y221666D01*
Y220833D01*
X353747Y220000D01*
X352081D01*
X351248Y220833D01*
X127082Y161665D02*
X126249Y162498D01*
X124583D01*
X123750Y161665D01*
Y158333D01*
X124583Y157500D01*
X126249D01*
X127082Y158333D01*
X132081Y157500D02*
X128748D01*
X132081Y160832D01*
Y161665D01*
X131248Y162498D01*
X129581D01*
X128748Y161665D01*
X127082Y204165D02*
X126249Y204998D01*
X124583D01*
X123750Y204165D01*
Y200833D01*
X124583Y200000D01*
X126249D01*
X127082Y200833D01*
X128748Y200000D02*
X130414D01*
X129581D01*
Y204998D01*
X128748Y204165D01*
X247500Y101248D02*
Y96250D01*
X249999D01*
X250832Y97083D01*
Y97916D01*
X249999Y98749D01*
X247500D01*
X249999D01*
X250832Y99582D01*
Y100415D01*
X249999Y101248D01*
X247500D01*
X255831Y97083D02*
Y100415D01*
X254998Y101248D01*
X253331D01*
X252498Y100415D01*
Y97083D01*
X253331Y96250D01*
X254998D01*
X254165Y97916D02*
X255831Y96250D01*
X254998D02*
X255831Y97083D01*
X257497Y96250D02*
X259163D01*
X258330D01*
Y101248D01*
X257497Y100415D01*
D13*
X260250Y72000D02*
G03*
X260250Y72000I-1250J0D01*
G01*
X553370Y195790D02*
G03*
X553370Y195790I-11250J0D01*
G01*
D14*
X44982Y186516D02*
X80542D01*
Y120984D02*
Y186516D01*
X44982Y120984D02*
X80542D01*
X44982D02*
Y186516D01*
D15*
X647500Y42500D02*
X677500D01*
X647500D02*
Y148750D01*
X677500Y42500D02*
Y150000D01*
X647500D02*
X677500D01*
X647500Y147500D02*
Y150000D01*
X76250Y51250D02*
X587500D01*
X76250Y21250D02*
Y51250D01*
Y21250D02*
X588750D01*
Y51250D01*
X586250D02*
X588750D01*
X76250Y236990D02*
X258750D01*
X278750D02*
X588750D01*
X278750Y266990D02*
X587500D01*
X76250D02*
X258750D01*
X76250Y236990D02*
Y266990D01*
X258750Y236990D02*
Y266990D01*
X278750Y236990D02*
Y266990D01*
X588750Y236990D02*
Y266990D01*
X586250D02*
X588750D01*
M02*
