G04*
G04 #@! TF.GenerationSoftware,Altium Limited,Altium Designer,19.1.5 (86)*
G04*
G04 Layer_Color=16711935*
%FSLAX44Y44*%
%MOMM*%
G71*
G01*
G75*
%ADD12C,0.1000*%
%ADD15C,0.2540*%
%ADD100R,0.4573X1.8000*%
D12*
X557120Y195790D02*
G03*
X557120Y195790I-15000J0D01*
G01*
X207000Y72250D02*
Y90250D01*
X173000Y72250D02*
Y90250D01*
Y72250D02*
X207000D01*
X173000Y90250D02*
X207000D01*
X190000Y135250D02*
X206000D01*
X190000Y127250D02*
X206000D01*
X190000D02*
Y135250D01*
X206000Y127250D02*
Y135250D01*
X189500Y112750D02*
X205500D01*
X189500Y104750D02*
X205500D01*
X189500D02*
Y112750D01*
X205500Y104750D02*
Y112750D01*
X352000Y208500D02*
X368000D01*
X352000Y216500D02*
X368000D01*
Y208500D02*
Y216500D01*
X352000Y208500D02*
Y216500D01*
X350500Y179750D02*
Y197750D01*
X384500Y179750D02*
Y197750D01*
X350500D02*
X384500D01*
X350500Y179750D02*
X384500D01*
X620750Y79750D02*
Y87750D01*
X636750Y79750D02*
Y87750D01*
X620750D02*
X636750D01*
X620750Y79750D02*
X636750D01*
X622000Y104750D02*
Y112750D01*
X638000Y104750D02*
Y112750D01*
X622000D02*
X638000D01*
X622000Y104750D02*
X638000D01*
X591000Y145750D02*
Y161750D01*
X599000Y145750D02*
Y161750D01*
X591000Y145750D02*
X599000D01*
X591000Y161750D02*
X599000D01*
X620750Y158500D02*
Y166500D01*
X636750Y158500D02*
Y166500D01*
X620750D02*
X636750D01*
X620750Y158500D02*
X636750D01*
X620750Y131000D02*
Y139000D01*
X636750Y131000D02*
Y139000D01*
X620750D02*
X636750D01*
X620750Y131000D02*
X636750D01*
X705500Y106000D02*
Y114000D01*
X689500Y106000D02*
Y114000D01*
Y106000D02*
X705500D01*
X689500Y114000D02*
X705500D01*
X132750Y135750D02*
Y151750D01*
X124750Y135750D02*
Y151750D01*
X132750D01*
X124750Y135750D02*
X132750D01*
Y178250D02*
Y194250D01*
X124750Y178250D02*
Y194250D01*
X132750D01*
X124750Y178250D02*
X132750D01*
X317500Y92750D02*
X333500D01*
X317500Y84750D02*
X333500D01*
X317500D02*
Y92750D01*
X333500Y84750D02*
Y92750D01*
X233250Y66000D02*
X249250D01*
X233250Y74000D02*
X249250D01*
Y66000D02*
Y74000D01*
X233250Y66000D02*
Y74000D01*
X190750Y159750D02*
Y167750D01*
X206750Y159750D02*
Y167750D01*
X190750D02*
X206750D01*
X190750Y159750D02*
X206750D01*
D15*
X45000Y0D02*
X696250D01*
X738750Y42500D01*
Y255000D01*
X696250Y297500D02*
X738750Y255000D01*
X42500Y297500D02*
X696250D01*
X1250Y256250D02*
X42500Y297500D01*
X1250Y43750D02*
Y256250D01*
Y43750D02*
X45000Y0D01*
D100*
X204713Y81250D02*
D03*
X352788Y188750D02*
D03*
M02*
