G04*
G04 #@! TF.GenerationSoftware,Altium Limited,Altium Designer,19.1.5 (86)*
G04*
G04 Layer_Color=32896*
%FSLAX44Y44*%
%MOMM*%
G71*
G01*
G75*
%ADD50R,18.0000X0.5450*%
%ADD51R,18.0000X0.5460*%
%ADD52R,1.0910X0.5450*%
%ADD53R,0.5460X0.5450*%
%ADD54R,0.5450X0.5450*%
%ADD55R,0.5450X0.5450*%
%ADD56R,0.5460X0.5450*%
%ADD57R,1.0910X0.5450*%
%ADD58R,2.1820X0.5450*%
%ADD59R,1.0910X0.5460*%
%ADD60R,2.7280X0.5460*%
%ADD61R,0.5460X0.5460*%
%ADD62R,0.5450X0.5460*%
%ADD63R,0.5450X0.5460*%
%ADD64R,0.5460X0.5460*%
%ADD65R,1.6360X0.5460*%
%ADD66R,1.0910X0.5450*%
%ADD67R,0.5460X0.5450*%
%ADD68R,1.6370X0.5450*%
%ADD69R,1.6360X0.5450*%
%ADD70R,2.1820X0.5460*%
%ADD71R,1.0910X0.5460*%
%ADD72R,0.5450X0.5450*%
%ADD73R,1.6370X0.5450*%
%ADD74R,2.1820X0.5450*%
%ADD75R,1.0910X0.5460*%
%ADD76R,2.7280X0.5460*%
%ADD77R,1.6360X0.5460*%
%ADD78R,1.0910X0.5460*%
%ADD79R,2.1820X0.5460*%
%ADD80R,1.6370X0.5460*%
%ADD81R,0.5460X0.5450*%
%ADD82R,5.4550X0.5460*%
%ADD83R,1.6370X0.5460*%
%ADD84R,1.0910X0.5450*%
%ADD85R,0.5450X0.5450*%
%ADD86R,0.5460X0.5460*%
%ADD87R,0.5450X0.5460*%
%ADD88R,3.8180X0.5460*%
%ADD89R,3.2730X0.5460*%
%ADD90R,5.4550X0.5450*%
%ADD91R,2.7270X0.5460*%
%ADD92R,3.2730X0.5450*%
%ADD93R,1.0900X0.5460*%
%ADD94R,3.2730X0.5460*%
%ADD95R,1.6370X0.5450*%
%ADD96R,6.0000X0.5460*%
%ADD97R,2.7270X0.5450*%
%ADD98R,1.6360X0.5460*%
%ADD99R,18.0000X0.5460*%
G36*
X330000Y67500D02*
X53140D01*
Y139398D01*
X330000D01*
Y67500D01*
D02*
G37*
%LPC*%
G36*
X324920Y134318D02*
X324613D01*
Y80978D01*
X324920D01*
Y134318D01*
D02*
G37*
G36*
X324000D02*
X323694D01*
Y80978D01*
X324000D01*
Y134318D01*
D02*
G37*
G36*
X323387D02*
X322774D01*
Y80978D01*
X323387D01*
Y134318D01*
D02*
G37*
G36*
X322468D02*
X321855D01*
Y80978D01*
X322468D01*
Y134318D01*
D02*
G37*
G36*
X321548D02*
X321241D01*
Y80978D01*
X321548D01*
Y134318D01*
D02*
G37*
G36*
X320935D02*
X320628D01*
Y80978D01*
X320935D01*
Y134318D01*
D02*
G37*
G36*
X320015D02*
X319709D01*
Y80978D01*
X320015D01*
Y134318D01*
D02*
G37*
G36*
X319402D02*
X319095D01*
Y80978D01*
X319402D01*
Y134318D01*
D02*
G37*
G36*
X318482D02*
X318176D01*
Y80978D01*
X318482D01*
Y134318D01*
D02*
G37*
G36*
X317563D02*
X317256D01*
Y80978D01*
X317563D01*
Y134318D01*
D02*
G37*
G36*
X316950D02*
X316643D01*
Y80978D01*
X316950D01*
Y134318D01*
D02*
G37*
G36*
X316336D02*
X316030D01*
Y80978D01*
X316336D01*
Y134318D01*
D02*
G37*
G36*
X315723D02*
X315110D01*
Y80978D01*
X315723D01*
Y134318D01*
D02*
G37*
G36*
X314804D02*
X314191D01*
Y80978D01*
X314804D01*
Y134318D01*
D02*
G37*
G36*
X313578D02*
X313271D01*
Y80978D01*
X313578D01*
Y134318D01*
D02*
G37*
G36*
X312964D02*
X312658D01*
Y80978D01*
X312964D01*
Y134318D01*
D02*
G37*
G36*
X312045D02*
X311738D01*
Y80978D01*
X312045D01*
Y134318D01*
D02*
G37*
G36*
X311432D02*
X311125D01*
Y80978D01*
X311432D01*
Y134318D01*
D02*
G37*
G36*
X310512D02*
X310205D01*
Y80978D01*
X310512D01*
Y134318D01*
D02*
G37*
G36*
X309592D02*
X309286D01*
Y80978D01*
X309592D01*
Y134318D01*
D02*
G37*
G36*
X308979D02*
X308673D01*
Y80978D01*
X308979D01*
Y134318D01*
D02*
G37*
G36*
X308366D02*
X308060D01*
Y80978D01*
X308366D01*
Y134318D01*
D02*
G37*
G36*
X307753D02*
X307140D01*
Y80978D01*
X307753D01*
Y134318D01*
D02*
G37*
G36*
X306833D02*
X306220D01*
Y80978D01*
X306833D01*
Y134318D01*
D02*
G37*
G36*
X305607D02*
X305301D01*
Y80978D01*
X305607D01*
Y134318D01*
D02*
G37*
G36*
X304994D02*
X304688D01*
Y80978D01*
X304994D01*
Y134318D01*
D02*
G37*
G36*
X304074D02*
X303768D01*
Y80978D01*
X304074D01*
Y134318D01*
D02*
G37*
G36*
X303461D02*
X303155D01*
Y80978D01*
X303461D01*
Y134318D01*
D02*
G37*
G36*
X302542D02*
X302235D01*
Y80978D01*
X302542D01*
Y134318D01*
D02*
G37*
G36*
X301622D02*
X301315D01*
Y80978D01*
X301622D01*
Y134318D01*
D02*
G37*
G36*
X301009D02*
X300702D01*
Y80978D01*
X301009D01*
Y134318D01*
D02*
G37*
G36*
X300396D02*
X299783D01*
Y80978D01*
X300396D01*
Y134318D01*
D02*
G37*
G36*
X299476D02*
X298863D01*
Y80978D01*
X299476D01*
Y134318D01*
D02*
G37*
G36*
X298556D02*
X298250D01*
Y80978D01*
X298556D01*
Y134318D01*
D02*
G37*
G36*
X297637D02*
X297330D01*
Y80978D01*
X297637D01*
Y134318D01*
D02*
G37*
G36*
X297024D02*
X296717D01*
Y80978D01*
X297024D01*
Y134318D01*
D02*
G37*
G36*
X296104D02*
X295798D01*
Y80978D01*
X296104D01*
Y134318D01*
D02*
G37*
G36*
X295491D02*
X295184D01*
Y80978D01*
X295491D01*
Y134318D01*
D02*
G37*
G36*
X294571D02*
X294265D01*
Y80978D01*
X294571D01*
Y134318D01*
D02*
G37*
G36*
X293652D02*
X293345D01*
Y80978D01*
X293652D01*
Y134318D01*
D02*
G37*
G36*
X293039D02*
X292732D01*
Y80978D01*
X293039D01*
Y134318D01*
D02*
G37*
G36*
X292425D02*
X291812D01*
Y80978D01*
X292425D01*
Y134318D01*
D02*
G37*
G36*
X291506D02*
X291199D01*
Y80978D01*
X291506D01*
Y134318D01*
D02*
G37*
G36*
X290893D02*
X290280D01*
Y80978D01*
X290893D01*
Y134318D01*
D02*
G37*
G36*
X289667D02*
X289360D01*
Y80978D01*
X289667D01*
Y134318D01*
D02*
G37*
G36*
X289053D02*
X288747D01*
Y80978D01*
X289053D01*
Y134318D01*
D02*
G37*
G36*
X288134D02*
X287827D01*
Y80978D01*
X288134D01*
Y134318D01*
D02*
G37*
G36*
X287214D02*
X286908D01*
Y80978D01*
X287214D01*
Y134318D01*
D02*
G37*
G36*
X286601D02*
X286294D01*
Y80978D01*
X286601D01*
Y134318D01*
D02*
G37*
G36*
X285681D02*
X285375D01*
Y80978D01*
X285681D01*
Y134318D01*
D02*
G37*
G36*
X285068D02*
X284762D01*
Y80978D01*
X285068D01*
Y134318D01*
D02*
G37*
G36*
X284149D02*
X283535D01*
Y80978D01*
X284149D01*
Y134318D01*
D02*
G37*
G36*
X283229D02*
X282616D01*
Y80978D01*
X283229D01*
Y134318D01*
D02*
G37*
G36*
X282309D02*
X282003D01*
Y80978D01*
X282309D01*
Y134318D01*
D02*
G37*
G36*
X281696D02*
X281390D01*
Y80978D01*
X281696D01*
Y134318D01*
D02*
G37*
G36*
X281083D02*
X280776D01*
Y80978D01*
X281083D01*
Y134318D01*
D02*
G37*
G36*
X280163D02*
X279857D01*
Y80978D01*
X280163D01*
Y134318D01*
D02*
G37*
G36*
X279244D02*
X278937D01*
Y80978D01*
X279244D01*
Y134318D01*
D02*
G37*
G36*
X278631D02*
X278324D01*
Y80978D01*
X278631D01*
Y134318D01*
D02*
G37*
G36*
X277711D02*
X277404D01*
Y80978D01*
X277711D01*
Y134318D01*
D02*
G37*
G36*
X277098D02*
X276485D01*
Y80978D01*
X277098D01*
Y134318D01*
D02*
G37*
G36*
X276178D02*
X275872D01*
Y80978D01*
X276178D01*
Y134318D01*
D02*
G37*
G36*
X275565D02*
X274952D01*
Y80978D01*
X275565D01*
Y134318D01*
D02*
G37*
G36*
X274645D02*
X274339D01*
Y80978D01*
X274645D01*
Y134318D01*
D02*
G37*
G36*
X273726D02*
X273419D01*
Y80978D01*
X273726D01*
Y134318D01*
D02*
G37*
G36*
X273113D02*
X272806D01*
Y80978D01*
X273113D01*
Y134318D01*
D02*
G37*
G36*
X272193D02*
X271886D01*
Y80978D01*
X272193D01*
Y134318D01*
D02*
G37*
G36*
X271273D02*
X270967D01*
Y80978D01*
X271273D01*
Y134318D01*
D02*
G37*
G36*
X270660D02*
X270354D01*
Y80978D01*
X270660D01*
Y134318D01*
D02*
G37*
G36*
X269741D02*
X269434D01*
Y80978D01*
X269741D01*
Y134318D01*
D02*
G37*
G36*
X269127D02*
X268514D01*
Y80978D01*
X269127D01*
Y134318D01*
D02*
G37*
G36*
X268208D02*
X267901D01*
Y80978D01*
X268208D01*
Y134318D01*
D02*
G37*
G36*
X267595D02*
X266982D01*
Y80978D01*
X267595D01*
Y134318D01*
D02*
G37*
G36*
X266675D02*
X266369D01*
Y80978D01*
X266675D01*
Y134318D01*
D02*
G37*
G36*
X265755D02*
X265449D01*
Y80978D01*
X265755D01*
Y134318D01*
D02*
G37*
G36*
X265142D02*
X264836D01*
Y80978D01*
X265142D01*
Y134318D01*
D02*
G37*
G36*
X264223D02*
X263916D01*
Y80978D01*
X264223D01*
Y134318D01*
D02*
G37*
G36*
X263610D02*
X263303D01*
Y80978D01*
X263610D01*
Y134318D01*
D02*
G37*
G36*
X262690D02*
X262383D01*
Y80978D01*
X262690D01*
Y134318D01*
D02*
G37*
G36*
X261770D02*
X261464D01*
Y80978D01*
X261770D01*
Y134318D01*
D02*
G37*
G36*
X261157D02*
X260851D01*
Y80978D01*
X261157D01*
Y134318D01*
D02*
G37*
G36*
X260544D02*
X260237D01*
Y80978D01*
X260544D01*
Y134318D01*
D02*
G37*
G36*
X259931D02*
X259624D01*
Y80978D01*
X259931D01*
Y134318D01*
D02*
G37*
G36*
X259011D02*
X258398D01*
Y80978D01*
X259011D01*
Y134318D01*
D02*
G37*
G36*
X258092D02*
X257478D01*
Y80978D01*
X258092D01*
Y134318D01*
D02*
G37*
G36*
X257172D02*
X256865D01*
Y80978D01*
X257172D01*
Y134318D01*
D02*
G37*
G36*
X256252D02*
X255946D01*
Y80978D01*
X256252D01*
Y134318D01*
D02*
G37*
G36*
X255639D02*
X255333D01*
Y80978D01*
X255639D01*
Y134318D01*
D02*
G37*
G36*
X254720D02*
X254413D01*
Y80978D01*
X254720D01*
Y134318D01*
D02*
G37*
G36*
X253800D02*
X253493D01*
Y80978D01*
X253800D01*
Y134318D01*
D02*
G37*
G36*
X253187D02*
X252880D01*
Y80978D01*
X253187D01*
Y134318D01*
D02*
G37*
G36*
X252574D02*
X251961D01*
Y80978D01*
X252574D01*
Y134318D01*
D02*
G37*
G36*
X251654D02*
X251347D01*
Y80978D01*
X251654D01*
Y134318D01*
D02*
G37*
G36*
X250734D02*
X250121D01*
Y80978D01*
X250734D01*
Y134318D01*
D02*
G37*
G36*
X249815D02*
X249508D01*
Y80978D01*
X249815D01*
Y134318D01*
D02*
G37*
G36*
X249202D02*
X248895D01*
Y80978D01*
X249202D01*
Y134318D01*
D02*
G37*
G36*
X248282D02*
X247975D01*
Y80978D01*
X248282D01*
Y134318D01*
D02*
G37*
G36*
X247669D02*
X247362D01*
Y80978D01*
X247669D01*
Y134318D01*
D02*
G37*
G36*
X246749D02*
X246443D01*
Y80978D01*
X246749D01*
Y134318D01*
D02*
G37*
G36*
X245829D02*
X245523D01*
Y80978D01*
X245829D01*
Y134318D01*
D02*
G37*
G36*
X245216D02*
X244910D01*
Y80978D01*
X245216D01*
Y134318D01*
D02*
G37*
G36*
X244603D02*
X244297D01*
Y80978D01*
X244603D01*
Y134318D01*
D02*
G37*
G36*
X243990D02*
X243377D01*
Y80978D01*
X243990D01*
Y134318D01*
D02*
G37*
G36*
X243071D02*
X242457D01*
Y80978D01*
X243071D01*
Y134318D01*
D02*
G37*
G36*
X241844D02*
X241538D01*
Y80978D01*
X241844D01*
Y134318D01*
D02*
G37*
G36*
X241231D02*
X240925D01*
Y80978D01*
X241231D01*
Y134318D01*
D02*
G37*
G36*
X240312D02*
X240005D01*
Y80978D01*
X240312D01*
Y134318D01*
D02*
G37*
G36*
X239698D02*
X239392D01*
Y80978D01*
X239698D01*
Y134318D01*
D02*
G37*
G36*
X238779D02*
X238472D01*
Y80978D01*
X238779D01*
Y134318D01*
D02*
G37*
G36*
X237859D02*
X237553D01*
Y80978D01*
X237859D01*
Y134318D01*
D02*
G37*
G36*
X237246D02*
X236633D01*
Y80978D01*
X237246D01*
Y134318D01*
D02*
G37*
G36*
X236020D02*
X235713D01*
Y80978D01*
X236020D01*
Y134318D01*
D02*
G37*
G36*
X235407D02*
X235100D01*
Y80978D01*
X235407D01*
Y134318D01*
D02*
G37*
G36*
X234793D02*
X234487D01*
Y80978D01*
X234793D01*
Y134318D01*
D02*
G37*
G36*
X234180D02*
X233567D01*
Y80978D01*
X234180D01*
Y134318D01*
D02*
G37*
G36*
X233261D02*
X232954D01*
Y80978D01*
X233261D01*
Y134318D01*
D02*
G37*
G36*
X232341D02*
X232035D01*
Y80978D01*
X232341D01*
Y134318D01*
D02*
G37*
G36*
X231728D02*
X231422D01*
Y80978D01*
X231728D01*
Y134318D01*
D02*
G37*
G36*
X230808D02*
X230502D01*
Y80978D01*
X230808D01*
Y134318D01*
D02*
G37*
G36*
X229889D02*
X229582D01*
Y80978D01*
X229889D01*
Y134318D01*
D02*
G37*
G36*
X229276D02*
X228969D01*
Y80978D01*
X229276D01*
Y134318D01*
D02*
G37*
G36*
X228662D02*
X228049D01*
Y80978D01*
X228662D01*
Y134318D01*
D02*
G37*
G36*
X227743D02*
X227436D01*
Y80978D01*
X227743D01*
Y134318D01*
D02*
G37*
G36*
X226823D02*
X226517D01*
Y80978D01*
X226823D01*
Y134318D01*
D02*
G37*
G36*
X226210D02*
X225597D01*
Y80978D01*
X226210D01*
Y134318D01*
D02*
G37*
G36*
X225290D02*
X224677D01*
Y80978D01*
X225290D01*
Y134318D01*
D02*
G37*
G36*
X224064D02*
X223758D01*
Y80978D01*
X224064D01*
Y134318D01*
D02*
G37*
G36*
X223451D02*
X223144D01*
Y80978D01*
X223451D01*
Y134318D01*
D02*
G37*
G36*
X222838D02*
X222225D01*
Y80978D01*
X222838D01*
Y134318D01*
D02*
G37*
G36*
X221918D02*
X221612D01*
Y80978D01*
X221918D01*
Y134318D01*
D02*
G37*
G36*
X221305D02*
X220999D01*
Y80978D01*
X221305D01*
Y134318D01*
D02*
G37*
G36*
X220386D02*
X220079D01*
Y80978D01*
X220386D01*
Y134318D01*
D02*
G37*
G36*
X219772D02*
X219466D01*
Y80978D01*
X219772D01*
Y134318D01*
D02*
G37*
G36*
X218853D02*
X218546D01*
Y80978D01*
X218853D01*
Y134318D01*
D02*
G37*
G36*
X217933D02*
X217627D01*
Y80978D01*
X217933D01*
Y134318D01*
D02*
G37*
G36*
X217320D02*
X216707D01*
Y80978D01*
X217320D01*
Y134318D01*
D02*
G37*
G36*
X216400D02*
X215787D01*
Y80978D01*
X216400D01*
Y134318D01*
D02*
G37*
G36*
X215481D02*
X215174D01*
Y80978D01*
X215481D01*
Y134318D01*
D02*
G37*
G36*
X214561D02*
X214254D01*
Y80978D01*
X214561D01*
Y134318D01*
D02*
G37*
G36*
X213948D02*
X213641D01*
Y80978D01*
X213948D01*
Y134318D01*
D02*
G37*
G36*
X213335D02*
X213028D01*
Y80978D01*
X213335D01*
Y134318D01*
D02*
G37*
G36*
X212415D02*
X212109D01*
Y80978D01*
X212415D01*
Y134318D01*
D02*
G37*
G36*
X211802D02*
X211495D01*
Y80978D01*
X211802D01*
Y134318D01*
D02*
G37*
G36*
X210882D02*
X210576D01*
Y80978D01*
X210882D01*
Y134318D01*
D02*
G37*
G36*
X209963D02*
X209656D01*
Y80978D01*
X209963D01*
Y134318D01*
D02*
G37*
G36*
X209350D02*
X208737D01*
Y80978D01*
X209350D01*
Y134318D01*
D02*
G37*
G36*
X208430D02*
X208123D01*
Y80978D01*
X208430D01*
Y134318D01*
D02*
G37*
G36*
X207817D02*
X207204D01*
Y80978D01*
X207817D01*
Y134318D01*
D02*
G37*
G36*
X206897D02*
X206591D01*
Y80978D01*
X206897D01*
Y134318D01*
D02*
G37*
G36*
X205978D02*
X205671D01*
Y80978D01*
X205978D01*
Y134318D01*
D02*
G37*
G36*
X205364D02*
X205058D01*
Y80978D01*
X205364D01*
Y134318D01*
D02*
G37*
G36*
X204445D02*
X204138D01*
Y80978D01*
X204445D01*
Y134318D01*
D02*
G37*
G36*
X203832D02*
X203525D01*
Y80978D01*
X203832D01*
Y134318D01*
D02*
G37*
G36*
X202912D02*
X202605D01*
Y80978D01*
X202912D01*
Y134318D01*
D02*
G37*
G36*
X201992D02*
X201686D01*
Y80978D01*
X201992D01*
Y134318D01*
D02*
G37*
G36*
X201379D02*
X200766D01*
Y80978D01*
X201379D01*
Y134318D01*
D02*
G37*
G36*
X200460D02*
X199846D01*
Y80978D01*
X200460D01*
Y134318D01*
D02*
G37*
G36*
X199540D02*
X199233D01*
Y80978D01*
X199540D01*
Y134318D01*
D02*
G37*
G36*
X198927D02*
X198620D01*
Y80978D01*
X198927D01*
Y134318D01*
D02*
G37*
G36*
X198007D02*
X197701D01*
Y80978D01*
X198007D01*
Y134318D01*
D02*
G37*
G36*
X197394D02*
X197088D01*
Y80978D01*
X197394D01*
Y134318D01*
D02*
G37*
G36*
X196474D02*
X196168D01*
Y80978D01*
X196474D01*
Y134318D01*
D02*
G37*
G36*
X195555D02*
X195248D01*
Y80978D01*
X195555D01*
Y134318D01*
D02*
G37*
G36*
X194942D02*
X194635D01*
Y80978D01*
X194942D01*
Y134318D01*
D02*
G37*
G36*
X194022D02*
X193715D01*
Y80978D01*
X194022D01*
Y134318D01*
D02*
G37*
G36*
X193409D02*
X192796D01*
Y80978D01*
X193409D01*
Y134318D01*
D02*
G37*
G36*
X192489D02*
X192183D01*
Y80978D01*
X192489D01*
Y134318D01*
D02*
G37*
G36*
X191876D02*
X191263D01*
Y80978D01*
X191876D01*
Y134318D01*
D02*
G37*
G36*
X190956D02*
X190650D01*
Y80978D01*
X190956D01*
Y134318D01*
D02*
G37*
G36*
X190037D02*
X189730D01*
Y80978D01*
X190037D01*
Y134318D01*
D02*
G37*
G36*
X189424D02*
X189117D01*
Y80978D01*
X189424D01*
Y134318D01*
D02*
G37*
G36*
X188504D02*
X188197D01*
Y80978D01*
X188504D01*
Y134318D01*
D02*
G37*
G36*
X187891D02*
X187584D01*
Y80978D01*
X187891D01*
Y134318D01*
D02*
G37*
G36*
X186971D02*
X186665D01*
Y80978D01*
X186971D01*
Y134318D01*
D02*
G37*
G36*
X186052D02*
X185745D01*
Y80978D01*
X186052D01*
Y134318D01*
D02*
G37*
G36*
X185439D02*
X184825D01*
Y80978D01*
X185439D01*
Y134318D01*
D02*
G37*
G36*
X184519D02*
X183906D01*
Y80978D01*
X184519D01*
Y134318D01*
D02*
G37*
G36*
X183599D02*
X183293D01*
Y80978D01*
X183599D01*
Y134318D01*
D02*
G37*
G36*
X182986D02*
X182680D01*
Y80978D01*
X182986D01*
Y134318D01*
D02*
G37*
G36*
X182066D02*
X181760D01*
Y80978D01*
X182066D01*
Y134318D01*
D02*
G37*
G36*
X181453D02*
X181147D01*
Y80978D01*
X181453D01*
Y134318D01*
D02*
G37*
G36*
X180534D02*
X180227D01*
Y80978D01*
X180534D01*
Y134318D01*
D02*
G37*
G36*
X179921D02*
X179614D01*
Y80978D01*
X179921D01*
Y134318D01*
D02*
G37*
G36*
X179001D02*
X178694D01*
Y80978D01*
X179001D01*
Y134318D01*
D02*
G37*
G36*
X178081D02*
X177775D01*
Y80978D01*
X178081D01*
Y134318D01*
D02*
G37*
G36*
X177468D02*
X176855D01*
Y80978D01*
X177468D01*
Y134318D01*
D02*
G37*
G36*
X176549D02*
X176242D01*
Y80978D01*
X176549D01*
Y134318D01*
D02*
G37*
G36*
X175935D02*
X175322D01*
Y80978D01*
X175935D01*
Y134318D01*
D02*
G37*
G36*
X174709D02*
X174403D01*
Y80978D01*
X174709D01*
Y134318D01*
D02*
G37*
G36*
X174096D02*
X173790D01*
Y80978D01*
X174096D01*
Y134318D01*
D02*
G37*
G36*
X173483D02*
X173176D01*
Y80978D01*
X173483D01*
Y134318D01*
D02*
G37*
G36*
X172563D02*
X172257D01*
Y80978D01*
X172563D01*
Y134318D01*
D02*
G37*
G36*
X171950D02*
X171644D01*
Y80978D01*
X171950D01*
Y134318D01*
D02*
G37*
G36*
X171031D02*
X170724D01*
Y80978D01*
X171031D01*
Y134318D01*
D02*
G37*
G36*
X170111D02*
X169804D01*
Y80978D01*
X170111D01*
Y134318D01*
D02*
G37*
G36*
X169498D02*
X169191D01*
Y80978D01*
X169498D01*
Y134318D01*
D02*
G37*
G36*
X168885D02*
X168272D01*
Y80978D01*
X168885D01*
Y134318D01*
D02*
G37*
G36*
X167965D02*
X167659D01*
Y80978D01*
X167965D01*
Y134318D01*
D02*
G37*
G36*
X167352D02*
X167045D01*
Y80978D01*
X167352D01*
Y134318D01*
D02*
G37*
G36*
X166432D02*
X165819D01*
Y80978D01*
X166432D01*
Y134318D01*
D02*
G37*
G36*
X165513D02*
X165206D01*
Y80978D01*
X165513D01*
Y134318D01*
D02*
G37*
G36*
X164593D02*
X164286D01*
Y80978D01*
X164593D01*
Y134318D01*
D02*
G37*
G36*
X163980D02*
X163673D01*
Y80978D01*
X163980D01*
Y134318D01*
D02*
G37*
G36*
X163060D02*
X162754D01*
Y80978D01*
X163060D01*
Y134318D01*
D02*
G37*
G36*
X162141D02*
X161834D01*
Y80978D01*
X162141D01*
Y134318D01*
D02*
G37*
G36*
X161528D02*
X160914D01*
Y80978D01*
X161528D01*
Y134318D01*
D02*
G37*
G36*
X160608D02*
X160301D01*
Y80978D01*
X160608D01*
Y134318D01*
D02*
G37*
G36*
X159995D02*
X159688D01*
Y80978D01*
X159995D01*
Y134318D01*
D02*
G37*
G36*
X159075D02*
X158769D01*
Y80978D01*
X159075D01*
Y134318D01*
D02*
G37*
G36*
X158462D02*
X157849D01*
Y80978D01*
X158462D01*
Y134318D01*
D02*
G37*
G36*
X157542D02*
X157236D01*
Y80978D01*
X157542D01*
Y134318D01*
D02*
G37*
G36*
X156623D02*
X156316D01*
Y80978D01*
X156623D01*
Y134318D01*
D02*
G37*
G36*
X156010D02*
X155703D01*
Y80978D01*
X156010D01*
Y134318D01*
D02*
G37*
G36*
X155090D02*
X154783D01*
Y80978D01*
X155090D01*
Y134318D01*
D02*
G37*
G36*
X154170D02*
X153864D01*
Y80978D01*
X154170D01*
Y134318D01*
D02*
G37*
G36*
X153557D02*
X153251D01*
Y80978D01*
X153557D01*
Y134318D01*
D02*
G37*
G36*
X152944D02*
X152637D01*
Y80978D01*
X152944D01*
Y134318D01*
D02*
G37*
G36*
X152331D02*
X151718D01*
Y80978D01*
X152331D01*
Y134318D01*
D02*
G37*
G36*
X151105D02*
X150798D01*
Y80978D01*
X151105D01*
Y134318D01*
D02*
G37*
G36*
X150492D02*
X149879D01*
Y80978D01*
X150492D01*
Y134318D01*
D02*
G37*
G36*
X149572D02*
X149265D01*
Y80978D01*
X149572D01*
Y134318D01*
D02*
G37*
G36*
X148652D02*
X148346D01*
Y80978D01*
X148652D01*
Y134318D01*
D02*
G37*
G36*
X148039D02*
X147733D01*
Y80978D01*
X148039D01*
Y134318D01*
D02*
G37*
G36*
X147120D02*
X146813D01*
Y80978D01*
X147120D01*
Y134318D01*
D02*
G37*
G36*
X146200D02*
X145893D01*
Y80978D01*
X146200D01*
Y134318D01*
D02*
G37*
G36*
X145587D02*
X144974D01*
Y80978D01*
X145587D01*
Y134318D01*
D02*
G37*
G36*
X144667D02*
X144361D01*
Y80978D01*
X144667D01*
Y134318D01*
D02*
G37*
G36*
X144054D02*
X143747D01*
Y80978D01*
X144054D01*
Y134318D01*
D02*
G37*
G36*
X143134D02*
X142828D01*
Y80978D01*
X143134D01*
Y134318D01*
D02*
G37*
G36*
X142521D02*
X141908D01*
Y80978D01*
X142521D01*
Y134318D01*
D02*
G37*
G36*
X141601D02*
X141295D01*
Y80978D01*
X141601D01*
Y134318D01*
D02*
G37*
G36*
X140682D02*
X140375D01*
Y80978D01*
X140682D01*
Y134318D01*
D02*
G37*
G36*
X140069D02*
X139762D01*
Y80978D01*
X140069D01*
Y134318D01*
D02*
G37*
G36*
X139149D02*
X138843D01*
Y80978D01*
X139149D01*
Y134318D01*
D02*
G37*
G36*
X138230D02*
X137923D01*
Y80978D01*
X138230D01*
Y134318D01*
D02*
G37*
G36*
X137616D02*
X137003D01*
Y80978D01*
X137616D01*
Y134318D01*
D02*
G37*
G36*
X136697D02*
X136390D01*
Y80978D01*
X136697D01*
Y134318D01*
D02*
G37*
G36*
X136084D02*
X135777D01*
Y80978D01*
X136084D01*
Y134318D01*
D02*
G37*
G36*
X135471D02*
X134857D01*
Y80978D01*
X135471D01*
Y134318D01*
D02*
G37*
G36*
X134244D02*
X133938D01*
Y80978D01*
X134244D01*
Y134318D01*
D02*
G37*
G36*
X133631D02*
X133325D01*
Y80978D01*
X133631D01*
Y134318D01*
D02*
G37*
G36*
X132711D02*
X132405D01*
Y80978D01*
X132711D01*
Y134318D01*
D02*
G37*
G36*
X132098D02*
X131792D01*
Y80978D01*
X132098D01*
Y134318D01*
D02*
G37*
G36*
X131179D02*
X130872D01*
Y80978D01*
X131179D01*
Y134318D01*
D02*
G37*
G36*
X130259D02*
X129952D01*
Y80978D01*
X130259D01*
Y134318D01*
D02*
G37*
G36*
X129646D02*
X129033D01*
Y80978D01*
X129646D01*
Y134318D01*
D02*
G37*
G36*
X128726D02*
X128420D01*
Y80978D01*
X128726D01*
Y134318D01*
D02*
G37*
G36*
X128113D02*
X127807D01*
Y80978D01*
X128113D01*
Y134318D01*
D02*
G37*
G36*
X127500D02*
X127194D01*
Y80978D01*
X127500D01*
Y134318D01*
D02*
G37*
G36*
X126580D02*
X125967D01*
Y80978D01*
X126580D01*
Y134318D01*
D02*
G37*
G36*
X125661D02*
X125354D01*
Y80978D01*
X125661D01*
Y134318D01*
D02*
G37*
G36*
X124741D02*
X124435D01*
Y80978D01*
X124741D01*
Y134318D01*
D02*
G37*
G36*
X123821D02*
X123515D01*
Y80978D01*
X123821D01*
Y134318D01*
D02*
G37*
G36*
X123208D02*
X122902D01*
Y80978D01*
X123208D01*
Y134318D01*
D02*
G37*
G36*
X122289D02*
X121982D01*
Y80978D01*
X122289D01*
Y134318D01*
D02*
G37*
G36*
X121676D02*
X121062D01*
Y80978D01*
X121676D01*
Y134318D01*
D02*
G37*
G36*
X120756D02*
X120449D01*
Y80978D01*
X120756D01*
Y134318D01*
D02*
G37*
G36*
X120143D02*
X119530D01*
Y80978D01*
X120143D01*
Y134318D01*
D02*
G37*
G36*
X119223D02*
X118917D01*
Y80978D01*
X119223D01*
Y134318D01*
D02*
G37*
G36*
X118303D02*
X117997D01*
Y80978D01*
X118303D01*
Y134318D01*
D02*
G37*
G36*
X117690D02*
X117384D01*
Y80978D01*
X117690D01*
Y134318D01*
D02*
G37*
G36*
X117077D02*
X116464D01*
Y80978D01*
X117077D01*
Y134318D01*
D02*
G37*
G36*
X116158D02*
X115851D01*
Y80978D01*
X116158D01*
Y134318D01*
D02*
G37*
G36*
X115545D02*
X114931D01*
Y80978D01*
X115545D01*
Y134318D01*
D02*
G37*
G36*
X114318D02*
X114012D01*
Y80978D01*
X114318D01*
Y134318D01*
D02*
G37*
G36*
X113705D02*
X113399D01*
Y80978D01*
X113705D01*
Y134318D01*
D02*
G37*
G36*
X112786D02*
X112479D01*
Y80978D01*
X112786D01*
Y134318D01*
D02*
G37*
G36*
X112172D02*
X111866D01*
Y80978D01*
X112172D01*
Y134318D01*
D02*
G37*
G36*
X111253D02*
X110946D01*
Y80978D01*
X111253D01*
Y134318D01*
D02*
G37*
G36*
X110333D02*
X110027D01*
Y80978D01*
X110333D01*
Y134318D01*
D02*
G37*
G36*
X109720D02*
X109107D01*
Y80978D01*
X109720D01*
Y134318D01*
D02*
G37*
G36*
X108800D02*
X108494D01*
Y80978D01*
X108800D01*
Y134318D01*
D02*
G37*
G36*
X108187D02*
X107574D01*
Y80978D01*
X108187D01*
Y134318D01*
D02*
G37*
G36*
X106961D02*
X106655D01*
Y80978D01*
X106961D01*
Y134318D01*
D02*
G37*
G36*
X106348D02*
X106041D01*
Y80978D01*
X106348D01*
Y134318D01*
D02*
G37*
G36*
X105735D02*
X105428D01*
Y80978D01*
X105735D01*
Y134318D01*
D02*
G37*
G36*
X104815D02*
X104509D01*
Y80978D01*
X104815D01*
Y134318D01*
D02*
G37*
G36*
X104202D02*
X103896D01*
Y80978D01*
X104202D01*
Y134318D01*
D02*
G37*
G36*
X103282D02*
X102976D01*
Y80978D01*
X103282D01*
Y134318D01*
D02*
G37*
G36*
X102363D02*
X102056D01*
Y80978D01*
X102363D01*
Y134318D01*
D02*
G37*
G36*
X101750D02*
X101137D01*
Y80978D01*
X101750D01*
Y134318D01*
D02*
G37*
G36*
X100830D02*
X100217D01*
Y80978D01*
X100830D01*
Y134318D01*
D02*
G37*
G36*
X99910D02*
X99604D01*
Y80978D01*
X99910D01*
Y134318D01*
D02*
G37*
G36*
X98991D02*
X98684D01*
Y80978D01*
X98991D01*
Y134318D01*
D02*
G37*
G36*
X98378D02*
X98071D01*
Y80978D01*
X98378D01*
Y134318D01*
D02*
G37*
G36*
X97765D02*
X97458D01*
Y80978D01*
X97765D01*
Y134318D01*
D02*
G37*
G36*
X97151D02*
X96538D01*
Y80978D01*
X97151D01*
Y134318D01*
D02*
G37*
G36*
X96232D02*
X95925D01*
Y80978D01*
X96232D01*
Y134318D01*
D02*
G37*
G36*
X95619D02*
X95312D01*
Y80978D01*
X95619D01*
Y134318D01*
D02*
G37*
G36*
X94699D02*
X94086D01*
Y80978D01*
X94699D01*
Y134318D01*
D02*
G37*
G36*
X93779D02*
X93473D01*
Y80978D01*
X93779D01*
Y134318D01*
D02*
G37*
G36*
X92860D02*
X92553D01*
Y80978D01*
X92860D01*
Y134318D01*
D02*
G37*
G36*
X92247D02*
X91940D01*
Y80978D01*
X92247D01*
Y134318D01*
D02*
G37*
G36*
X91327D02*
X91020D01*
Y80978D01*
X91327D01*
Y134318D01*
D02*
G37*
G36*
X90407D02*
X90101D01*
Y80978D01*
X90407D01*
Y134318D01*
D02*
G37*
G36*
X89794D02*
X89181D01*
Y80978D01*
X89794D01*
Y134318D01*
D02*
G37*
G36*
X88875D02*
X88568D01*
Y80978D01*
X88875D01*
Y134318D01*
D02*
G37*
G36*
X88261D02*
X87648D01*
Y80978D01*
X88261D01*
Y134318D01*
D02*
G37*
G36*
X87342D02*
X87035D01*
Y80978D01*
X87342D01*
Y134318D01*
D02*
G37*
G36*
X86422D02*
X86116D01*
Y80978D01*
X86422D01*
Y134318D01*
D02*
G37*
G36*
X85809D02*
X85196D01*
Y80978D01*
X85809D01*
Y134318D01*
D02*
G37*
G36*
X84889D02*
X84583D01*
Y80978D01*
X84889D01*
Y134318D01*
D02*
G37*
G36*
X84276D02*
X83970D01*
Y80978D01*
X84276D01*
Y134318D01*
D02*
G37*
G36*
X83663D02*
X83050D01*
Y80978D01*
X83663D01*
Y134318D01*
D02*
G37*
G36*
X82437D02*
X82130D01*
Y80978D01*
X82437D01*
Y134318D01*
D02*
G37*
G36*
X81824D02*
X81517D01*
Y80978D01*
X81824D01*
Y134318D01*
D02*
G37*
G36*
X80904D02*
X80598D01*
Y80978D01*
X80904D01*
Y134318D01*
D02*
G37*
G36*
X80291D02*
X79984D01*
Y80978D01*
X80291D01*
Y134318D01*
D02*
G37*
G36*
X79371D02*
X79065D01*
Y80978D01*
X79371D01*
Y134318D01*
D02*
G37*
G36*
X78452D02*
X78145D01*
Y80978D01*
X78452D01*
Y134318D01*
D02*
G37*
G36*
X77839D02*
X77225D01*
Y80978D01*
X77839D01*
Y134318D01*
D02*
G37*
G36*
X76919D02*
X76612D01*
Y80978D01*
X76919D01*
Y134318D01*
D02*
G37*
G36*
X76306D02*
X75999D01*
Y80978D01*
X76306D01*
Y134318D01*
D02*
G37*
G36*
X75386D02*
X75080D01*
Y80978D01*
X75386D01*
Y134318D01*
D02*
G37*
G36*
X74773D02*
X74160D01*
Y80978D01*
X74773D01*
Y134318D01*
D02*
G37*
G36*
X73853D02*
X73240D01*
Y80978D01*
X73853D01*
Y134318D01*
D02*
G37*
G36*
X72934D02*
X72627D01*
Y80978D01*
X72934D01*
Y134318D01*
D02*
G37*
G36*
X72321D02*
X72014D01*
Y80978D01*
X72321D01*
Y134318D01*
D02*
G37*
G36*
X71401D02*
X71094D01*
Y80978D01*
X71401D01*
Y134318D01*
D02*
G37*
G36*
X70788D02*
X70175D01*
Y80978D01*
X70788D01*
Y134318D01*
D02*
G37*
G36*
X69868D02*
X69562D01*
Y80978D01*
X69868D01*
Y134318D01*
D02*
G37*
G36*
X69255D02*
X68949D01*
Y80978D01*
X69255D01*
Y134318D01*
D02*
G37*
G36*
X68642D02*
X68029D01*
Y80978D01*
X68642D01*
Y134318D01*
D02*
G37*
G36*
X67722D02*
X67109D01*
Y80978D01*
X67722D01*
Y134318D01*
D02*
G37*
G36*
X66496D02*
X66190D01*
Y80978D01*
X66496D01*
Y134318D01*
D02*
G37*
G36*
X65883D02*
X65270D01*
Y80978D01*
X65883D01*
Y134318D01*
D02*
G37*
G36*
X64963D02*
X64350D01*
Y80978D01*
X64963D01*
Y134318D01*
D02*
G37*
G36*
X64044D02*
X63737D01*
Y80978D01*
X64044D01*
Y134318D01*
D02*
G37*
G36*
X63431D02*
X63124D01*
Y80978D01*
X63431D01*
Y134318D01*
D02*
G37*
G36*
X62511D02*
X62204D01*
Y80978D01*
X62511D01*
Y134318D01*
D02*
G37*
G36*
X61898D02*
X61591D01*
Y80978D01*
X61898D01*
Y134318D01*
D02*
G37*
G36*
X60978D02*
X60672D01*
Y80978D01*
X60978D01*
Y134318D01*
D02*
G37*
G36*
X60365D02*
X59752D01*
Y80978D01*
X60365D01*
Y134318D01*
D02*
G37*
G36*
X59445D02*
X58832D01*
Y80978D01*
X59445D01*
Y134318D01*
D02*
G37*
G36*
X58526D02*
X58219D01*
Y80978D01*
X58526D01*
Y134318D01*
D02*
G37*
G36*
X258798Y78988D02*
X258008D01*
Y78091D01*
X258798D01*
Y78988D01*
D02*
G37*
G36*
X232237D02*
X231446D01*
Y76706D01*
X231437Y76715D01*
X231427Y76735D01*
X231398Y76764D01*
X231359Y76803D01*
X231310Y76852D01*
X231252Y76901D01*
X231105Y77018D01*
X230930Y77135D01*
X230705Y77232D01*
X230588Y77271D01*
X230461Y77301D01*
X230325Y77320D01*
X230188Y77330D01*
X230110D01*
X230032Y77320D01*
X229925Y77311D01*
X229798Y77291D01*
X229662Y77252D01*
X229525Y77213D01*
X229379Y77154D01*
X229359Y77145D01*
X229310Y77125D01*
X229242Y77086D01*
X229154Y77028D01*
X229057Y76959D01*
X228959Y76872D01*
X228852Y76774D01*
X228755Y76667D01*
X228745Y76657D01*
X228715Y76608D01*
X228667Y76540D01*
X228608Y76452D01*
X228550Y76345D01*
X228481Y76218D01*
X228423Y76072D01*
X228364Y75906D01*
X228355Y75887D01*
X228345Y75828D01*
X228316Y75740D01*
X228286Y75623D01*
X228267Y75487D01*
X228238Y75331D01*
X228228Y75155D01*
X228218Y74970D01*
Y74960D01*
Y74921D01*
Y74853D01*
X228228Y74775D01*
X228238Y74667D01*
X228247Y74560D01*
X228267Y74423D01*
X228296Y74287D01*
X228364Y73994D01*
X228413Y73838D01*
X228472Y73682D01*
X228540Y73526D01*
X228618Y73380D01*
X228706Y73243D01*
X228813Y73116D01*
X228823Y73107D01*
X228842Y73087D01*
X228872Y73058D01*
X228920Y73019D01*
X228969Y72970D01*
X229037Y72912D01*
X229115Y72853D01*
X229213Y72795D01*
X229418Y72677D01*
X229652Y72570D01*
X229788Y72531D01*
X229925Y72502D01*
X230071Y72483D01*
X230227Y72473D01*
X230305D01*
X230364Y72483D01*
X230432Y72492D01*
X230510Y72512D01*
X230695Y72561D01*
X230793Y72590D01*
X230900Y72639D01*
X231008Y72697D01*
X231115Y72765D01*
X231212Y72843D01*
X231320Y72931D01*
X231417Y73038D01*
X231505Y73155D01*
Y72580D01*
X232237D01*
Y78988D01*
D02*
G37*
G36*
X323466D02*
X322676D01*
Y76696D01*
X322666Y76706D01*
X322647Y76725D01*
X322617Y76754D01*
X322579Y76793D01*
X322520Y76842D01*
X322461Y76901D01*
X322383Y76950D01*
X322296Y77018D01*
X322198Y77076D01*
X322100Y77125D01*
X321857Y77232D01*
X321730Y77271D01*
X321593Y77301D01*
X321447Y77320D01*
X321291Y77330D01*
X321203D01*
X321106Y77320D01*
X320989Y77301D01*
X320852Y77281D01*
X320706Y77242D01*
X320550Y77193D01*
X320403Y77125D01*
X320384Y77115D01*
X320345Y77086D01*
X320277Y77037D01*
X320189Y76979D01*
X320101Y76901D01*
X320013Y76803D01*
X319925Y76686D01*
X319857Y76560D01*
X319847Y76540D01*
X319828Y76491D01*
X319808Y76413D01*
X319769Y76296D01*
X319740Y76150D01*
X319721Y75964D01*
X319701Y75760D01*
X319691Y75516D01*
Y72580D01*
X320481D01*
Y75526D01*
Y75535D01*
Y75555D01*
Y75584D01*
Y75623D01*
X320491Y75721D01*
X320511Y75857D01*
X320550Y75994D01*
X320589Y76130D01*
X320657Y76267D01*
X320745Y76384D01*
X320755Y76394D01*
X320793Y76423D01*
X320852Y76472D01*
X320930Y76520D01*
X321028Y76569D01*
X321154Y76618D01*
X321291Y76647D01*
X321457Y76657D01*
X321515D01*
X321584Y76647D01*
X321671Y76638D01*
X321769Y76608D01*
X321886Y76579D01*
X322003Y76530D01*
X322120Y76472D01*
X322130Y76462D01*
X322169Y76442D01*
X322218Y76394D01*
X322286Y76345D01*
X322354Y76267D01*
X322432Y76189D01*
X322491Y76082D01*
X322549Y75974D01*
X322559Y75964D01*
X322569Y75916D01*
X322588Y75847D01*
X322608Y75750D01*
X322637Y75623D01*
X322657Y75477D01*
X322666Y75311D01*
X322676Y75116D01*
Y72580D01*
X323466D01*
Y78988D01*
D02*
G37*
G36*
X246264D02*
X245474D01*
Y76696D01*
X245464Y76706D01*
X245444Y76725D01*
X245415Y76754D01*
X245376Y76793D01*
X245317Y76842D01*
X245259Y76901D01*
X245181Y76950D01*
X245093Y77018D01*
X244996Y77076D01*
X244898Y77125D01*
X244654Y77232D01*
X244527Y77271D01*
X244391Y77301D01*
X244245Y77320D01*
X244089Y77330D01*
X244001D01*
X243903Y77320D01*
X243786Y77301D01*
X243650Y77281D01*
X243503Y77242D01*
X243347Y77193D01*
X243201Y77125D01*
X243181Y77115D01*
X243143Y77086D01*
X243074Y77037D01*
X242986Y76979D01*
X242899Y76901D01*
X242811Y76803D01*
X242723Y76686D01*
X242655Y76560D01*
X242645Y76540D01*
X242626Y76491D01*
X242606Y76413D01*
X242567Y76296D01*
X242538Y76150D01*
X242518Y75964D01*
X242499Y75760D01*
X242489Y75516D01*
Y72580D01*
X243279D01*
Y75526D01*
Y75535D01*
Y75555D01*
Y75584D01*
Y75623D01*
X243289Y75721D01*
X243308Y75857D01*
X243347Y75994D01*
X243386Y76130D01*
X243455Y76267D01*
X243542Y76384D01*
X243552Y76394D01*
X243591Y76423D01*
X243650Y76472D01*
X243728Y76520D01*
X243825Y76569D01*
X243952Y76618D01*
X244089Y76647D01*
X244254Y76657D01*
X244313D01*
X244381Y76647D01*
X244469Y76638D01*
X244566Y76608D01*
X244683Y76579D01*
X244801Y76530D01*
X244918Y76472D01*
X244927Y76462D01*
X244966Y76442D01*
X245015Y76394D01*
X245083Y76345D01*
X245152Y76267D01*
X245230Y76189D01*
X245288Y76082D01*
X245347Y75974D01*
X245357Y75964D01*
X245366Y75916D01*
X245386Y75847D01*
X245405Y75750D01*
X245435Y75623D01*
X245454Y75477D01*
X245464Y75311D01*
X245474Y75116D01*
Y72580D01*
X246264D01*
Y78988D01*
D02*
G37*
G36*
X265612Y77330D02*
X265534D01*
X265475Y77320D01*
X265407Y77311D01*
X265319Y77291D01*
X265134Y77242D01*
X265027Y77213D01*
X264919Y77164D01*
X264802Y77115D01*
X264685Y77047D01*
X264578Y76969D01*
X264461Y76881D01*
X264354Y76774D01*
X264256Y76657D01*
Y77223D01*
X263534D01*
Y73204D01*
Y73194D01*
Y73155D01*
Y73107D01*
Y73029D01*
X263544Y72941D01*
Y72843D01*
X263554Y72726D01*
X263564Y72609D01*
X263593Y72365D01*
X263632Y72112D01*
X263681Y71878D01*
X263720Y71770D01*
X263759Y71683D01*
Y71673D01*
X263769Y71663D01*
X263798Y71605D01*
X263856Y71527D01*
X263925Y71419D01*
X264022Y71302D01*
X264139Y71185D01*
X264286Y71068D01*
X264451Y70961D01*
X264461D01*
X264471Y70951D01*
X264500Y70941D01*
X264539Y70922D01*
X264637Y70873D01*
X264773Y70834D01*
X264949Y70785D01*
X265154Y70737D01*
X265378Y70707D01*
X265631Y70697D01*
X265709D01*
X265768Y70707D01*
X265836D01*
X265924Y70717D01*
X266109Y70746D01*
X266324Y70795D01*
X266548Y70854D01*
X266773Y70951D01*
X266977Y71078D01*
X266987D01*
X266997Y71097D01*
X267055Y71146D01*
X267134Y71234D01*
X267231Y71361D01*
X267319Y71517D01*
X267397Y71712D01*
X267446Y71936D01*
X267465Y72063D01*
Y72200D01*
X266704Y72092D01*
Y72073D01*
X266695Y72034D01*
X266675Y71975D01*
X266656Y71897D01*
X266617Y71810D01*
X266568Y71722D01*
X266509Y71644D01*
X266431Y71575D01*
X266422Y71566D01*
X266373Y71536D01*
X266314Y71507D01*
X266217Y71468D01*
X266109Y71419D01*
X265973Y71390D01*
X265807Y71361D01*
X265631Y71351D01*
X265544D01*
X265446Y71361D01*
X265319Y71380D01*
X265183Y71410D01*
X265046Y71449D01*
X264910Y71497D01*
X264793Y71575D01*
X264783Y71585D01*
X264744Y71614D01*
X264695Y71663D01*
X264627Y71731D01*
X264559Y71819D01*
X264500Y71917D01*
X264442Y72043D01*
X264393Y72180D01*
Y72190D01*
X264383Y72229D01*
X264373Y72297D01*
X264363Y72395D01*
X264344Y72531D01*
Y72619D01*
X264334Y72707D01*
Y72814D01*
Y72921D01*
Y73048D01*
Y73185D01*
X264344Y73175D01*
X264354Y73155D01*
X264383Y73126D01*
X264422Y73087D01*
X264480Y73048D01*
X264539Y72990D01*
X264685Y72882D01*
X264871Y72775D01*
X265095Y72677D01*
X265212Y72639D01*
X265339Y72609D01*
X265475Y72590D01*
X265612Y72580D01*
X265700D01*
X265768Y72590D01*
X265846Y72600D01*
X265944Y72619D01*
X266041Y72639D01*
X266158Y72668D01*
X266275Y72697D01*
X266392Y72746D01*
X266519Y72804D01*
X266636Y72873D01*
X266763Y72951D01*
X266880Y73038D01*
X266987Y73146D01*
X267094Y73263D01*
X267104Y73273D01*
X267114Y73292D01*
X267143Y73331D01*
X267173Y73390D01*
X267211Y73458D01*
X267260Y73536D01*
X267309Y73624D01*
X267358Y73731D01*
X267407Y73848D01*
X267455Y73975D01*
X267494Y74111D01*
X267543Y74258D01*
X267602Y74570D01*
X267611Y74745D01*
X267621Y74921D01*
Y74931D01*
Y74950D01*
Y74989D01*
Y75038D01*
X267611Y75096D01*
Y75165D01*
X267592Y75321D01*
X267563Y75516D01*
X267524Y75721D01*
X267465Y75935D01*
X267387Y76150D01*
Y76160D01*
X267377Y76179D01*
X267358Y76208D01*
X267338Y76247D01*
X267290Y76345D01*
X267211Y76472D01*
X267104Y76608D01*
X266987Y76754D01*
X266851Y76891D01*
X266685Y77018D01*
X266675D01*
X266665Y77028D01*
X266636Y77047D01*
X266607Y77067D01*
X266509Y77115D01*
X266383Y77174D01*
X266217Y77232D01*
X266041Y77281D01*
X265836Y77320D01*
X265612Y77330D01*
D02*
G37*
G36*
X203275D02*
X203188D01*
X203090Y77320D01*
X202973Y77301D01*
X202846Y77281D01*
X202700Y77242D01*
X202563Y77184D01*
X202437Y77115D01*
X202417Y77106D01*
X202378Y77076D01*
X202320Y77028D01*
X202251Y76959D01*
X202173Y76872D01*
X202095Y76774D01*
X202027Y76647D01*
X201968Y76511D01*
X201959Y76520D01*
X201939Y76550D01*
X201910Y76589D01*
X201871Y76638D01*
X201812Y76706D01*
X201744Y76774D01*
X201666Y76842D01*
X201578Y76920D01*
X201481Y76998D01*
X201373Y77067D01*
X201120Y77203D01*
X200983Y77252D01*
X200837Y77291D01*
X200691Y77320D01*
X200525Y77330D01*
X200457D01*
X200408Y77320D01*
X200349D01*
X200281Y77311D01*
X200135Y77281D01*
X199959Y77232D01*
X199784Y77164D01*
X199618Y77067D01*
X199462Y76940D01*
X199442Y76920D01*
X199403Y76872D01*
X199345Y76774D01*
X199267Y76647D01*
X199198Y76481D01*
X199140Y76286D01*
X199101Y76042D01*
X199081Y75906D01*
Y75760D01*
Y72580D01*
X199871D01*
Y75496D01*
Y75506D01*
Y75516D01*
Y75574D01*
Y75662D01*
X199881Y75760D01*
X199901Y75984D01*
X199920Y76091D01*
X199949Y76179D01*
Y76189D01*
X199969Y76218D01*
X199988Y76257D01*
X200018Y76306D01*
X200057Y76355D01*
X200105Y76413D01*
X200164Y76472D01*
X200232Y76520D01*
X200242Y76530D01*
X200271Y76540D01*
X200310Y76560D01*
X200359Y76589D01*
X200427Y76608D01*
X200515Y76628D01*
X200603Y76638D01*
X200700Y76647D01*
X200779D01*
X200876Y76628D01*
X200983Y76608D01*
X201110Y76569D01*
X201247Y76511D01*
X201393Y76423D01*
X201520Y76316D01*
X201530Y76296D01*
X201569Y76257D01*
X201617Y76179D01*
X201676Y76062D01*
X201744Y75916D01*
X201793Y75740D01*
X201832Y75526D01*
X201842Y75272D01*
Y72580D01*
X202632D01*
Y75594D01*
Y75604D01*
Y75613D01*
Y75643D01*
Y75682D01*
X202641Y75779D01*
X202651Y75887D01*
X202680Y76023D01*
X202710Y76150D01*
X202758Y76277D01*
X202827Y76384D01*
X202836Y76394D01*
X202866Y76423D01*
X202905Y76472D01*
X202973Y76520D01*
X203061Y76560D01*
X203168Y76608D01*
X203295Y76638D01*
X203451Y76647D01*
X203510D01*
X203568Y76638D01*
X203656Y76628D01*
X203744Y76608D01*
X203851Y76569D01*
X203958Y76530D01*
X204065Y76472D01*
X204075Y76462D01*
X204114Y76442D01*
X204163Y76394D01*
X204221Y76345D01*
X204290Y76267D01*
X204358Y76179D01*
X204417Y76072D01*
X204475Y75955D01*
X204485Y75935D01*
X204495Y75896D01*
X204514Y75818D01*
X204534Y75711D01*
X204563Y75574D01*
X204582Y75409D01*
X204592Y75213D01*
X204602Y74989D01*
Y72580D01*
X205392D01*
Y77223D01*
X204690D01*
Y76569D01*
X204680Y76589D01*
X204651Y76628D01*
X204602Y76686D01*
X204534Y76764D01*
X204456Y76852D01*
X204358Y76940D01*
X204241Y77037D01*
X204114Y77115D01*
X204095Y77125D01*
X204046Y77145D01*
X203968Y77184D01*
X203870Y77223D01*
X203744Y77262D01*
X203607Y77301D01*
X203441Y77320D01*
X203275Y77330D01*
D02*
G37*
G36*
X189239D02*
X189151D01*
X189053Y77320D01*
X188936Y77301D01*
X188809Y77281D01*
X188663Y77242D01*
X188527Y77184D01*
X188400Y77115D01*
X188380Y77106D01*
X188341Y77076D01*
X188283Y77028D01*
X188214Y76959D01*
X188136Y76872D01*
X188058Y76774D01*
X187990Y76647D01*
X187932Y76511D01*
X187922Y76520D01*
X187902Y76550D01*
X187873Y76589D01*
X187834Y76638D01*
X187775Y76706D01*
X187707Y76774D01*
X187629Y76842D01*
X187542Y76920D01*
X187444Y76998D01*
X187337Y77067D01*
X187083Y77203D01*
X186947Y77252D01*
X186800Y77291D01*
X186654Y77320D01*
X186488Y77330D01*
X186420D01*
X186371Y77320D01*
X186313D01*
X186244Y77311D01*
X186098Y77281D01*
X185922Y77232D01*
X185747Y77164D01*
X185581Y77067D01*
X185425Y76940D01*
X185405Y76920D01*
X185366Y76872D01*
X185308Y76774D01*
X185230Y76647D01*
X185162Y76481D01*
X185103Y76286D01*
X185064Y76042D01*
X185044Y75906D01*
Y75760D01*
Y72580D01*
X185835D01*
Y75496D01*
Y75506D01*
Y75516D01*
Y75574D01*
Y75662D01*
X185844Y75760D01*
X185864Y75984D01*
X185883Y76091D01*
X185913Y76179D01*
Y76189D01*
X185932Y76218D01*
X185952Y76257D01*
X185981Y76306D01*
X186020Y76355D01*
X186069Y76413D01*
X186127Y76472D01*
X186196Y76520D01*
X186205Y76530D01*
X186234Y76540D01*
X186273Y76560D01*
X186322Y76589D01*
X186390Y76608D01*
X186478Y76628D01*
X186566Y76638D01*
X186664Y76647D01*
X186742D01*
X186839Y76628D01*
X186947Y76608D01*
X187073Y76569D01*
X187210Y76511D01*
X187356Y76423D01*
X187483Y76316D01*
X187493Y76296D01*
X187532Y76257D01*
X187581Y76179D01*
X187639Y76062D01*
X187707Y75916D01*
X187756Y75740D01*
X187795Y75526D01*
X187805Y75272D01*
Y72580D01*
X188595D01*
Y75594D01*
Y75604D01*
Y75613D01*
Y75643D01*
Y75682D01*
X188605Y75779D01*
X188614Y75887D01*
X188644Y76023D01*
X188673Y76150D01*
X188722Y76277D01*
X188790Y76384D01*
X188800Y76394D01*
X188829Y76423D01*
X188868Y76472D01*
X188936Y76520D01*
X189024Y76560D01*
X189131Y76608D01*
X189258Y76638D01*
X189414Y76647D01*
X189473D01*
X189531Y76638D01*
X189619Y76628D01*
X189707Y76608D01*
X189814Y76569D01*
X189921Y76530D01*
X190029Y76472D01*
X190038Y76462D01*
X190077Y76442D01*
X190126Y76394D01*
X190185Y76345D01*
X190253Y76267D01*
X190321Y76179D01*
X190380Y76072D01*
X190438Y75955D01*
X190448Y75935D01*
X190458Y75896D01*
X190477Y75818D01*
X190497Y75711D01*
X190526Y75574D01*
X190546Y75409D01*
X190555Y75213D01*
X190565Y74989D01*
Y72580D01*
X191355D01*
Y77223D01*
X190653D01*
Y76569D01*
X190643Y76589D01*
X190614Y76628D01*
X190565Y76686D01*
X190497Y76764D01*
X190419Y76852D01*
X190321Y76940D01*
X190204Y77037D01*
X190077Y77115D01*
X190058Y77125D01*
X190009Y77145D01*
X189931Y77184D01*
X189834Y77223D01*
X189707Y77262D01*
X189570Y77301D01*
X189404Y77320D01*
X189239Y77330D01*
D02*
G37*
G36*
X286906Y77223D02*
X286009D01*
Y76325D01*
X286906D01*
Y77223D01*
D02*
G37*
G36*
X167101Y77330D02*
X167003D01*
X166896Y77320D01*
X166759Y77311D01*
X166603Y77291D01*
X166437Y77271D01*
X166281Y77232D01*
X166135Y77184D01*
X166116Y77174D01*
X166077Y77164D01*
X166008Y77125D01*
X165930Y77086D01*
X165842Y77037D01*
X165745Y76979D01*
X165667Y76911D01*
X165589Y76833D01*
X165579Y76823D01*
X165560Y76793D01*
X165530Y76754D01*
X165491Y76686D01*
X165452Y76608D01*
X165413Y76520D01*
X165374Y76413D01*
X165345Y76296D01*
Y76286D01*
X165335Y76257D01*
X165326Y76208D01*
X165316Y76130D01*
Y76033D01*
X165306Y75906D01*
X165296Y75760D01*
Y75574D01*
Y74521D01*
Y74511D01*
Y74472D01*
Y74414D01*
Y74345D01*
Y74258D01*
Y74160D01*
X165287Y73936D01*
Y73692D01*
X165277Y73468D01*
X165267Y73360D01*
Y73273D01*
X165257Y73194D01*
X165247Y73126D01*
Y73116D01*
X165238Y73077D01*
X165228Y73019D01*
X165208Y72951D01*
X165179Y72873D01*
X165140Y72775D01*
X165053Y72580D01*
X165872D01*
X165882Y72590D01*
X165891Y72619D01*
X165911Y72677D01*
X165940Y72746D01*
X165969Y72834D01*
X165989Y72931D01*
X166008Y73038D01*
X166028Y73165D01*
X166047Y73146D01*
X166106Y73107D01*
X166184Y73038D01*
X166301Y72960D01*
X166428Y72863D01*
X166574Y72775D01*
X166720Y72697D01*
X166876Y72629D01*
X166896Y72619D01*
X166945Y72609D01*
X167023Y72580D01*
X167130Y72551D01*
X167267Y72522D01*
X167413Y72502D01*
X167569Y72483D01*
X167745Y72473D01*
X167813D01*
X167871Y72483D01*
X167930D01*
X168008Y72492D01*
X168174Y72522D01*
X168369Y72561D01*
X168554Y72629D01*
X168749Y72716D01*
X168915Y72843D01*
X168934Y72863D01*
X168983Y72912D01*
X169042Y72990D01*
X169120Y73107D01*
X169198Y73243D01*
X169256Y73399D01*
X169305Y73594D01*
X169325Y73799D01*
Y73819D01*
Y73858D01*
X169315Y73926D01*
X169305Y74004D01*
X169286Y74102D01*
X169266Y74209D01*
X169227Y74316D01*
X169178Y74423D01*
X169168Y74433D01*
X169149Y74472D01*
X169120Y74521D01*
X169071Y74589D01*
X169012Y74658D01*
X168934Y74735D01*
X168856Y74804D01*
X168769Y74872D01*
X168759Y74882D01*
X168720Y74901D01*
X168671Y74931D01*
X168603Y74970D01*
X168515Y75018D01*
X168427Y75057D01*
X168320Y75096D01*
X168203Y75135D01*
X168193D01*
X168154Y75145D01*
X168105Y75155D01*
X168027Y75174D01*
X167930Y75194D01*
X167803Y75213D01*
X167666Y75233D01*
X167501Y75252D01*
X167491D01*
X167462Y75262D01*
X167413D01*
X167345Y75272D01*
X167267Y75282D01*
X167179Y75292D01*
X166964Y75331D01*
X166740Y75370D01*
X166506Y75409D01*
X166281Y75467D01*
X166184Y75496D01*
X166096Y75526D01*
Y75535D01*
Y75555D01*
X166086Y75613D01*
Y75682D01*
Y75711D01*
Y75730D01*
Y75740D01*
Y75750D01*
Y75808D01*
X166096Y75896D01*
X166116Y75994D01*
X166145Y76101D01*
X166184Y76218D01*
X166233Y76316D01*
X166311Y76403D01*
X166320Y76413D01*
X166369Y76442D01*
X166437Y76491D01*
X166535Y76540D01*
X166662Y76589D01*
X166818Y76638D01*
X167003Y76667D01*
X167208Y76677D01*
X167296D01*
X167393Y76667D01*
X167520Y76657D01*
X167657Y76628D01*
X167784Y76599D01*
X167920Y76550D01*
X168027Y76481D01*
X168037Y76472D01*
X168066Y76442D01*
X168115Y76394D01*
X168174Y76325D01*
X168242Y76228D01*
X168300Y76111D01*
X168369Y75964D01*
X168417Y75799D01*
X169188Y75906D01*
Y75916D01*
X169178Y75925D01*
X169168Y75984D01*
X169139Y76072D01*
X169110Y76189D01*
X169061Y76316D01*
X169003Y76442D01*
X168934Y76579D01*
X168847Y76696D01*
X168837Y76706D01*
X168798Y76745D01*
X168749Y76803D01*
X168671Y76872D01*
X168573Y76940D01*
X168447Y77018D01*
X168310Y77096D01*
X168154Y77164D01*
X168144D01*
X168135Y77174D01*
X168105Y77184D01*
X168076Y77193D01*
X167979Y77213D01*
X167852Y77252D01*
X167696Y77281D01*
X167520Y77301D01*
X167315Y77320D01*
X167101Y77330D01*
D02*
G37*
G36*
X153064D02*
X152966D01*
X152859Y77320D01*
X152723Y77311D01*
X152566Y77291D01*
X152401Y77271D01*
X152245Y77232D01*
X152098Y77184D01*
X152079Y77174D01*
X152040Y77164D01*
X151972Y77125D01*
X151894Y77086D01*
X151806Y77037D01*
X151708Y76979D01*
X151630Y76911D01*
X151552Y76833D01*
X151542Y76823D01*
X151523Y76793D01*
X151494Y76754D01*
X151455Y76686D01*
X151416Y76608D01*
X151377Y76520D01*
X151337Y76413D01*
X151308Y76296D01*
Y76286D01*
X151299Y76257D01*
X151289Y76208D01*
X151279Y76130D01*
Y76033D01*
X151269Y75906D01*
X151259Y75760D01*
Y75574D01*
Y74521D01*
Y74511D01*
Y74472D01*
Y74414D01*
Y74345D01*
Y74258D01*
Y74160D01*
X151250Y73936D01*
Y73692D01*
X151240Y73468D01*
X151230Y73360D01*
Y73273D01*
X151221Y73194D01*
X151211Y73126D01*
Y73116D01*
X151201Y73077D01*
X151191Y73019D01*
X151172Y72951D01*
X151143Y72873D01*
X151103Y72775D01*
X151016Y72580D01*
X151835D01*
X151845Y72590D01*
X151854Y72619D01*
X151874Y72677D01*
X151903Y72746D01*
X151932Y72834D01*
X151952Y72931D01*
X151972Y73038D01*
X151991Y73165D01*
X152010Y73146D01*
X152069Y73107D01*
X152147Y73038D01*
X152264Y72960D01*
X152391Y72863D01*
X152537Y72775D01*
X152683Y72697D01*
X152840Y72629D01*
X152859Y72619D01*
X152908Y72609D01*
X152986Y72580D01*
X153093Y72551D01*
X153230Y72522D01*
X153376Y72502D01*
X153532Y72483D01*
X153708Y72473D01*
X153776D01*
X153834Y72483D01*
X153893D01*
X153971Y72492D01*
X154137Y72522D01*
X154332Y72561D01*
X154517Y72629D01*
X154712Y72716D01*
X154878Y72843D01*
X154898Y72863D01*
X154946Y72912D01*
X155005Y72990D01*
X155083Y73107D01*
X155161Y73243D01*
X155219Y73399D01*
X155268Y73594D01*
X155288Y73799D01*
Y73819D01*
Y73858D01*
X155278Y73926D01*
X155268Y74004D01*
X155249Y74102D01*
X155229Y74209D01*
X155190Y74316D01*
X155141Y74423D01*
X155132Y74433D01*
X155112Y74472D01*
X155083Y74521D01*
X155034Y74589D01*
X154976Y74658D01*
X154898Y74735D01*
X154820Y74804D01*
X154732Y74872D01*
X154722Y74882D01*
X154683Y74901D01*
X154634Y74931D01*
X154566Y74970D01*
X154478Y75018D01*
X154390Y75057D01*
X154283Y75096D01*
X154166Y75135D01*
X154156D01*
X154117Y75145D01*
X154069Y75155D01*
X153990Y75174D01*
X153893Y75194D01*
X153766Y75213D01*
X153630Y75233D01*
X153464Y75252D01*
X153454D01*
X153425Y75262D01*
X153376D01*
X153308Y75272D01*
X153230Y75282D01*
X153142Y75292D01*
X152927Y75331D01*
X152703Y75370D01*
X152469Y75409D01*
X152245Y75467D01*
X152147Y75496D01*
X152059Y75526D01*
Y75535D01*
Y75555D01*
X152050Y75613D01*
Y75682D01*
Y75711D01*
Y75730D01*
Y75740D01*
Y75750D01*
Y75808D01*
X152059Y75896D01*
X152079Y75994D01*
X152108Y76101D01*
X152147Y76218D01*
X152196Y76316D01*
X152274Y76403D01*
X152284Y76413D01*
X152332Y76442D01*
X152401Y76491D01*
X152498Y76540D01*
X152625Y76589D01*
X152781Y76638D01*
X152966Y76667D01*
X153171Y76677D01*
X153259D01*
X153357Y76667D01*
X153483Y76657D01*
X153620Y76628D01*
X153747Y76599D01*
X153883Y76550D01*
X153990Y76481D01*
X154000Y76472D01*
X154030Y76442D01*
X154078Y76394D01*
X154137Y76325D01*
X154205Y76228D01*
X154264Y76111D01*
X154332Y75964D01*
X154381Y75799D01*
X155151Y75906D01*
Y75916D01*
X155141Y75925D01*
X155132Y75984D01*
X155102Y76072D01*
X155073Y76189D01*
X155024Y76316D01*
X154966Y76442D01*
X154898Y76579D01*
X154810Y76696D01*
X154800Y76706D01*
X154761Y76745D01*
X154712Y76803D01*
X154634Y76872D01*
X154537Y76940D01*
X154410Y77018D01*
X154273Y77096D01*
X154117Y77164D01*
X154108D01*
X154098Y77174D01*
X154069Y77184D01*
X154039Y77193D01*
X153942Y77213D01*
X153815Y77252D01*
X153659Y77281D01*
X153483Y77301D01*
X153279Y77320D01*
X153064Y77330D01*
D02*
G37*
G36*
X82880D02*
X82782D01*
X82675Y77320D01*
X82538Y77311D01*
X82382Y77291D01*
X82217Y77271D01*
X82061Y77232D01*
X81914Y77184D01*
X81895Y77174D01*
X81856Y77164D01*
X81788Y77125D01*
X81709Y77086D01*
X81622Y77037D01*
X81524Y76979D01*
X81446Y76911D01*
X81368Y76833D01*
X81358Y76823D01*
X81339Y76793D01*
X81310Y76754D01*
X81271Y76686D01*
X81232Y76608D01*
X81193Y76520D01*
X81153Y76413D01*
X81124Y76296D01*
Y76286D01*
X81115Y76257D01*
X81105Y76208D01*
X81095Y76130D01*
Y76033D01*
X81085Y75906D01*
X81075Y75760D01*
Y75574D01*
Y74521D01*
Y74511D01*
Y74472D01*
Y74414D01*
Y74345D01*
Y74258D01*
Y74160D01*
X81066Y73936D01*
Y73692D01*
X81056Y73468D01*
X81046Y73360D01*
Y73273D01*
X81037Y73194D01*
X81027Y73126D01*
Y73116D01*
X81017Y73077D01*
X81007Y73019D01*
X80988Y72951D01*
X80958Y72873D01*
X80919Y72775D01*
X80832Y72580D01*
X81651D01*
X81661Y72590D01*
X81671Y72619D01*
X81690Y72677D01*
X81719Y72746D01*
X81749Y72834D01*
X81768Y72931D01*
X81788Y73038D01*
X81807Y73165D01*
X81826Y73146D01*
X81885Y73107D01*
X81963Y73038D01*
X82080Y72960D01*
X82207Y72863D01*
X82353Y72775D01*
X82500Y72697D01*
X82656Y72629D01*
X82675Y72619D01*
X82724Y72609D01*
X82802Y72580D01*
X82909Y72551D01*
X83046Y72522D01*
X83192Y72502D01*
X83348Y72483D01*
X83524Y72473D01*
X83592D01*
X83651Y72483D01*
X83709D01*
X83787Y72492D01*
X83953Y72522D01*
X84148Y72561D01*
X84333Y72629D01*
X84528Y72716D01*
X84694Y72843D01*
X84714Y72863D01*
X84762Y72912D01*
X84821Y72990D01*
X84899Y73107D01*
X84977Y73243D01*
X85035Y73399D01*
X85084Y73594D01*
X85104Y73799D01*
Y73819D01*
Y73858D01*
X85094Y73926D01*
X85084Y74004D01*
X85065Y74102D01*
X85045Y74209D01*
X85006Y74316D01*
X84957Y74423D01*
X84948Y74433D01*
X84928Y74472D01*
X84899Y74521D01*
X84850Y74589D01*
X84792Y74658D01*
X84714Y74735D01*
X84636Y74804D01*
X84548Y74872D01*
X84538Y74882D01*
X84499Y74901D01*
X84450Y74931D01*
X84382Y74970D01*
X84294Y75018D01*
X84206Y75057D01*
X84099Y75096D01*
X83982Y75135D01*
X83972D01*
X83933Y75145D01*
X83884Y75155D01*
X83806Y75174D01*
X83709Y75194D01*
X83582Y75213D01*
X83446Y75233D01*
X83280Y75252D01*
X83270D01*
X83241Y75262D01*
X83192D01*
X83124Y75272D01*
X83046Y75282D01*
X82958Y75292D01*
X82743Y75331D01*
X82519Y75370D01*
X82285Y75409D01*
X82061Y75467D01*
X81963Y75496D01*
X81875Y75526D01*
Y75535D01*
Y75555D01*
X81866Y75613D01*
Y75682D01*
Y75711D01*
Y75730D01*
Y75740D01*
Y75750D01*
Y75808D01*
X81875Y75896D01*
X81895Y75994D01*
X81924Y76101D01*
X81963Y76218D01*
X82012Y76316D01*
X82090Y76403D01*
X82100Y76413D01*
X82148Y76442D01*
X82217Y76491D01*
X82314Y76540D01*
X82441Y76589D01*
X82597Y76638D01*
X82782Y76667D01*
X82987Y76677D01*
X83075D01*
X83173Y76667D01*
X83299Y76657D01*
X83436Y76628D01*
X83563Y76599D01*
X83699Y76550D01*
X83806Y76481D01*
X83816Y76472D01*
X83846Y76442D01*
X83894Y76394D01*
X83953Y76325D01*
X84021Y76228D01*
X84080Y76111D01*
X84148Y75964D01*
X84197Y75799D01*
X84967Y75906D01*
Y75916D01*
X84957Y75925D01*
X84948Y75984D01*
X84918Y76072D01*
X84889Y76189D01*
X84840Y76316D01*
X84782Y76442D01*
X84714Y76579D01*
X84626Y76696D01*
X84616Y76706D01*
X84577Y76745D01*
X84528Y76803D01*
X84450Y76872D01*
X84353Y76940D01*
X84226Y77018D01*
X84089Y77096D01*
X83933Y77164D01*
X83924D01*
X83914Y77174D01*
X83884Y77184D01*
X83855Y77193D01*
X83758Y77213D01*
X83631Y77252D01*
X83475Y77281D01*
X83299Y77301D01*
X83095Y77320D01*
X82880Y77330D01*
D02*
G37*
G36*
X140739Y78988D02*
X139949D01*
Y75340D01*
X138086Y77223D01*
X137062D01*
X138837Y75496D01*
X136886Y72580D01*
X137862D01*
X139403Y74950D01*
X139949Y74423D01*
Y72580D01*
X140739D01*
Y78988D01*
D02*
G37*
G36*
X64946D02*
X63678D01*
X62156Y74453D01*
Y74443D01*
X62147Y74423D01*
X62137Y74394D01*
X62127Y74345D01*
X62088Y74238D01*
X62039Y74102D01*
X61990Y73945D01*
X61942Y73789D01*
X61893Y73633D01*
X61854Y73507D01*
X61844Y73526D01*
X61835Y73575D01*
X61805Y73653D01*
X61766Y73760D01*
X61727Y73906D01*
X61669Y74082D01*
X61591Y74287D01*
X61513Y74531D01*
X59981Y78988D01*
X58830D01*
Y72580D01*
X59650D01*
Y77944D01*
X61522Y72580D01*
X62283D01*
X64127Y78032D01*
Y72580D01*
X64946D01*
Y78988D01*
D02*
G37*
G36*
X314277Y78842D02*
Y77223D01*
X313487D01*
Y76608D01*
X314277D01*
Y73887D01*
Y73877D01*
Y73838D01*
Y73780D01*
X314268Y73711D01*
X314258Y73565D01*
X314248Y73507D01*
X314238Y73458D01*
X314229Y73438D01*
X314209Y73399D01*
X314170Y73351D01*
X314112Y73302D01*
X314092Y73292D01*
X314043Y73282D01*
X313956Y73263D01*
X313839Y73253D01*
X313741D01*
X313692Y73263D01*
X313634D01*
X313487Y73282D01*
X313380Y72590D01*
X313400D01*
X313439Y72580D01*
X313497Y72570D01*
X313585Y72561D01*
X313673Y72541D01*
X313770Y72531D01*
X313975Y72522D01*
X314043D01*
X314121Y72531D01*
X314219Y72541D01*
X314326Y72551D01*
X314443Y72580D01*
X314551Y72609D01*
X314648Y72648D01*
X314658Y72658D01*
X314687Y72677D01*
X314726Y72707D01*
X314775Y72746D01*
X314833Y72795D01*
X314882Y72853D01*
X314941Y72921D01*
X314980Y72999D01*
Y73009D01*
X314989Y73048D01*
X315009Y73107D01*
X315019Y73204D01*
X315038Y73331D01*
X315048Y73399D01*
X315058Y73487D01*
Y73585D01*
X315068Y73692D01*
Y73809D01*
Y73936D01*
Y76608D01*
X315653D01*
Y77223D01*
X315068D01*
Y78364D01*
X314277Y78842D01*
D02*
G37*
G36*
X307259D02*
Y77223D01*
X306469D01*
Y76608D01*
X307259D01*
Y73887D01*
Y73877D01*
Y73838D01*
Y73780D01*
X307249Y73711D01*
X307239Y73565D01*
X307230Y73507D01*
X307220Y73458D01*
X307210Y73438D01*
X307191Y73399D01*
X307152Y73351D01*
X307093Y73302D01*
X307074Y73292D01*
X307025Y73282D01*
X306937Y73263D01*
X306820Y73253D01*
X306723D01*
X306674Y73263D01*
X306615D01*
X306469Y73282D01*
X306362Y72590D01*
X306381D01*
X306420Y72580D01*
X306479Y72570D01*
X306567Y72561D01*
X306654Y72541D01*
X306752Y72531D01*
X306957Y72522D01*
X307025D01*
X307103Y72531D01*
X307201Y72541D01*
X307308Y72551D01*
X307425Y72580D01*
X307532Y72609D01*
X307630Y72648D01*
X307639Y72658D01*
X307669Y72677D01*
X307708Y72707D01*
X307757Y72746D01*
X307815Y72795D01*
X307864Y72853D01*
X307922Y72921D01*
X307961Y72999D01*
Y73009D01*
X307971Y73048D01*
X307991Y73107D01*
X308000Y73204D01*
X308020Y73331D01*
X308030Y73399D01*
X308039Y73487D01*
Y73585D01*
X308049Y73692D01*
Y73809D01*
Y73936D01*
Y76608D01*
X308634D01*
Y77223D01*
X308049D01*
Y78364D01*
X307259Y78842D01*
D02*
G37*
G36*
X251112D02*
Y77223D01*
X250322D01*
Y76608D01*
X251112D01*
Y73887D01*
Y73877D01*
Y73838D01*
Y73780D01*
X251102Y73711D01*
X251092Y73565D01*
X251083Y73507D01*
X251073Y73458D01*
X251063Y73438D01*
X251044Y73399D01*
X251005Y73351D01*
X250946Y73302D01*
X250926Y73292D01*
X250878Y73282D01*
X250790Y73263D01*
X250673Y73253D01*
X250575D01*
X250527Y73263D01*
X250468D01*
X250322Y73282D01*
X250215Y72590D01*
X250234D01*
X250273Y72580D01*
X250332Y72570D01*
X250419Y72561D01*
X250507Y72541D01*
X250605Y72531D01*
X250809Y72522D01*
X250878D01*
X250956Y72531D01*
X251053Y72541D01*
X251161Y72551D01*
X251278Y72580D01*
X251385Y72609D01*
X251483Y72648D01*
X251492Y72658D01*
X251521Y72677D01*
X251560Y72707D01*
X251609Y72746D01*
X251668Y72795D01*
X251717Y72853D01*
X251775Y72921D01*
X251814Y72999D01*
Y73009D01*
X251824Y73048D01*
X251843Y73107D01*
X251853Y73204D01*
X251873Y73331D01*
X251882Y73399D01*
X251892Y73487D01*
Y73585D01*
X251902Y73692D01*
Y73809D01*
Y73936D01*
Y76608D01*
X252487D01*
Y77223D01*
X251902D01*
Y78364D01*
X251112Y78842D01*
D02*
G37*
G36*
X239255Y77223D02*
X238465D01*
Y74638D01*
Y74628D01*
Y74609D01*
Y74580D01*
Y74541D01*
Y74433D01*
X238455Y74306D01*
Y74170D01*
X238445Y74033D01*
X238436Y73906D01*
X238426Y73809D01*
Y73799D01*
X238406Y73760D01*
X238387Y73702D01*
X238358Y73633D01*
X238319Y73555D01*
X238260Y73468D01*
X238192Y73390D01*
X238114Y73321D01*
X238104Y73312D01*
X238065Y73292D01*
X238016Y73263D01*
X237948Y73233D01*
X237860Y73204D01*
X237763Y73175D01*
X237646Y73155D01*
X237519Y73146D01*
X237460D01*
X237392Y73155D01*
X237304Y73165D01*
X237207Y73185D01*
X237099Y73224D01*
X236982Y73263D01*
X236865Y73321D01*
X236856Y73331D01*
X236817Y73360D01*
X236758Y73399D01*
X236690Y73458D01*
X236621Y73526D01*
X236544Y73614D01*
X236485Y73711D01*
X236426Y73819D01*
X236417Y73838D01*
X236407Y73877D01*
X236387Y73945D01*
X236358Y74053D01*
X236329Y74180D01*
X236309Y74336D01*
X236300Y74521D01*
X236290Y74726D01*
Y77223D01*
X235500D01*
Y72580D01*
X236202D01*
Y73253D01*
X236212Y73243D01*
X236231Y73224D01*
X236261Y73185D01*
X236300Y73136D01*
X236358Y73068D01*
X236426Y73009D01*
X236504Y72931D01*
X236592Y72863D01*
X236690Y72795D01*
X236797Y72716D01*
X236924Y72658D01*
X237051Y72600D01*
X237197Y72541D01*
X237343Y72502D01*
X237509Y72483D01*
X237675Y72473D01*
X237743D01*
X237821Y72483D01*
X237929Y72492D01*
X238046Y72512D01*
X238172Y72541D01*
X238309Y72580D01*
X238445Y72629D01*
X238465Y72639D01*
X238504Y72658D01*
X238563Y72687D01*
X238640Y72736D01*
X238728Y72795D01*
X238816Y72863D01*
X238894Y72931D01*
X238972Y73019D01*
X238982Y73029D01*
X239001Y73058D01*
X239031Y73116D01*
X239060Y73185D01*
X239109Y73273D01*
X239148Y73370D01*
X239187Y73477D01*
X239216Y73604D01*
Y73614D01*
X239226Y73653D01*
Y73702D01*
X239235Y73780D01*
X239245Y73887D01*
Y74014D01*
X239255Y74160D01*
Y74336D01*
Y77223D01*
D02*
G37*
G36*
X216069Y77330D02*
X215991D01*
X215942Y77320D01*
X215874D01*
X215805Y77311D01*
X215630Y77281D01*
X215435Y77232D01*
X215220Y77164D01*
X215015Y77067D01*
X214830Y76940D01*
X214820D01*
X214810Y76920D01*
X214752Y76872D01*
X214674Y76784D01*
X214576Y76667D01*
X214469Y76511D01*
X214371Y76325D01*
X214284Y76101D01*
X214215Y75857D01*
X214976Y75740D01*
Y75750D01*
X214986Y75760D01*
X214996Y75818D01*
X215025Y75896D01*
X215064Y76003D01*
X215123Y76121D01*
X215191Y76238D01*
X215269Y76345D01*
X215366Y76442D01*
X215376Y76452D01*
X215415Y76481D01*
X215474Y76520D01*
X215552Y76569D01*
X215649Y76608D01*
X215756Y76647D01*
X215893Y76677D01*
X216030Y76686D01*
X216088D01*
X216127Y76677D01*
X216234Y76667D01*
X216371Y76638D01*
X216527Y76579D01*
X216683Y76501D01*
X216849Y76403D01*
X216927Y76335D01*
X216995Y76257D01*
X217015Y76238D01*
X217024Y76208D01*
X217054Y76179D01*
X217083Y76130D01*
X217112Y76072D01*
X217141Y76003D01*
X217171Y75925D01*
X217210Y75838D01*
X217239Y75740D01*
X217268Y75623D01*
X217298Y75506D01*
X217327Y75370D01*
X217337Y75223D01*
X217356Y75067D01*
Y74901D01*
Y74892D01*
Y74862D01*
Y74814D01*
X217346Y74745D01*
Y74667D01*
X217337Y74580D01*
X217307Y74384D01*
X217268Y74160D01*
X217210Y73926D01*
X217122Y73721D01*
X217064Y73624D01*
X217005Y73536D01*
X216985Y73516D01*
X216937Y73468D01*
X216859Y73399D01*
X216751Y73331D01*
X216625Y73253D01*
X216459Y73185D01*
X216283Y73136D01*
X216186Y73126D01*
X216078Y73116D01*
X216000D01*
X215912Y73136D01*
X215805Y73155D01*
X215688Y73185D01*
X215552Y73233D01*
X215425Y73302D01*
X215308Y73399D01*
X215298Y73409D01*
X215259Y73458D01*
X215201Y73516D01*
X215142Y73614D01*
X215074Y73741D01*
X215005Y73887D01*
X214947Y74072D01*
X214908Y74277D01*
X214137Y74170D01*
Y74160D01*
X214147Y74131D01*
X214157Y74092D01*
X214167Y74043D01*
X214186Y73975D01*
X214206Y73897D01*
X214264Y73711D01*
X214352Y73516D01*
X214469Y73302D01*
X214615Y73107D01*
X214791Y72921D01*
X214801D01*
X214810Y72902D01*
X214840Y72882D01*
X214879Y72853D01*
X214937Y72814D01*
X214996Y72775D01*
X215142Y72697D01*
X215327Y72619D01*
X215552Y72541D01*
X215795Y72492D01*
X215932Y72483D01*
X216069Y72473D01*
X216156D01*
X216225Y72483D01*
X216303Y72492D01*
X216400Y72502D01*
X216498Y72522D01*
X216615Y72551D01*
X216859Y72619D01*
X216985Y72677D01*
X217112Y72736D01*
X217239Y72804D01*
X217356Y72882D01*
X217473Y72980D01*
X217590Y73087D01*
X217600Y73097D01*
X217619Y73116D01*
X217639Y73155D01*
X217678Y73204D01*
X217727Y73273D01*
X217775Y73351D01*
X217824Y73438D01*
X217873Y73546D01*
X217931Y73663D01*
X217980Y73799D01*
X218029Y73945D01*
X218078Y74111D01*
X218117Y74277D01*
X218136Y74472D01*
X218156Y74667D01*
X218166Y74882D01*
Y74892D01*
Y74911D01*
Y74960D01*
Y75009D01*
X218156Y75077D01*
Y75145D01*
X218136Y75331D01*
X218107Y75535D01*
X218058Y75750D01*
X218000Y75984D01*
X217922Y76199D01*
Y76208D01*
X217912Y76228D01*
X217892Y76257D01*
X217873Y76296D01*
X217815Y76394D01*
X217736Y76520D01*
X217629Y76657D01*
X217502Y76793D01*
X217346Y76930D01*
X217171Y77047D01*
X217161D01*
X217151Y77057D01*
X217122Y77076D01*
X217083Y77096D01*
X216976Y77135D01*
X216839Y77193D01*
X216683Y77242D01*
X216488Y77291D01*
X216283Y77320D01*
X216069Y77330D01*
D02*
G37*
G36*
X181196D02*
X181108D01*
X181040Y77320D01*
X180962Y77311D01*
X180864Y77301D01*
X180767Y77281D01*
X180650Y77252D01*
X180416Y77174D01*
X180289Y77125D01*
X180162Y77057D01*
X180035Y76989D01*
X179909Y76901D01*
X179792Y76803D01*
X179674Y76686D01*
X179665Y76677D01*
X179645Y76657D01*
X179616Y76618D01*
X179577Y76569D01*
X179538Y76501D01*
X179489Y76423D01*
X179431Y76335D01*
X179372Y76228D01*
X179323Y76101D01*
X179265Y75974D01*
X179216Y75828D01*
X179167Y75662D01*
X179138Y75496D01*
X179109Y75311D01*
X179089Y75116D01*
X179079Y74901D01*
Y74892D01*
Y74853D01*
Y74784D01*
X179089Y74696D01*
X182542D01*
Y74687D01*
Y74667D01*
X182532Y74619D01*
Y74570D01*
X182523Y74502D01*
X182513Y74433D01*
X182474Y74258D01*
X182415Y74072D01*
X182347Y73877D01*
X182240Y73682D01*
X182113Y73516D01*
X182093Y73497D01*
X182045Y73458D01*
X181957Y73390D01*
X181849Y73321D01*
X181703Y73243D01*
X181537Y73175D01*
X181352Y73136D01*
X181147Y73116D01*
X181069D01*
X180991Y73126D01*
X180894Y73146D01*
X180777Y73175D01*
X180650Y73214D01*
X180523Y73263D01*
X180406Y73341D01*
X180396Y73351D01*
X180357Y73390D01*
X180299Y73438D01*
X180230Y73526D01*
X180152Y73624D01*
X180074Y73750D01*
X179996Y73906D01*
X179918Y74082D01*
X179109Y73975D01*
Y73965D01*
X179118Y73945D01*
X179128Y73906D01*
X179148Y73858D01*
X179167Y73799D01*
X179197Y73731D01*
X179275Y73565D01*
X179372Y73390D01*
X179489Y73204D01*
X179645Y73019D01*
X179821Y72863D01*
X179831D01*
X179840Y72843D01*
X179870Y72824D01*
X179918Y72804D01*
X179967Y72775D01*
X180026Y72736D01*
X180094Y72707D01*
X180182Y72668D01*
X180367Y72600D01*
X180601Y72531D01*
X180855Y72492D01*
X181147Y72473D01*
X181245D01*
X181313Y72483D01*
X181401Y72492D01*
X181498Y72502D01*
X181606Y72522D01*
X181733Y72551D01*
X181986Y72629D01*
X182123Y72677D01*
X182249Y72736D01*
X182386Y72804D01*
X182513Y72892D01*
X182640Y72990D01*
X182757Y73097D01*
X182766Y73107D01*
X182786Y73126D01*
X182815Y73165D01*
X182844Y73214D01*
X182893Y73273D01*
X182942Y73351D01*
X183001Y73448D01*
X183049Y73555D01*
X183108Y73672D01*
X183166Y73799D01*
X183215Y73945D01*
X183254Y74102D01*
X183293Y74267D01*
X183322Y74453D01*
X183342Y74648D01*
X183352Y74853D01*
Y74862D01*
Y74901D01*
Y74970D01*
X183342Y75048D01*
X183332Y75145D01*
X183322Y75262D01*
X183303Y75389D01*
X183274Y75526D01*
X183205Y75818D01*
X183157Y75964D01*
X183098Y76121D01*
X183030Y76267D01*
X182952Y76413D01*
X182864Y76550D01*
X182757Y76677D01*
X182747Y76686D01*
X182727Y76706D01*
X182698Y76735D01*
X182649Y76784D01*
X182591Y76833D01*
X182513Y76881D01*
X182435Y76940D01*
X182337Y77008D01*
X182230Y77067D01*
X182113Y77125D01*
X181986Y77174D01*
X181840Y77232D01*
X181693Y77271D01*
X181537Y77301D01*
X181372Y77320D01*
X181196Y77330D01*
D02*
G37*
G36*
X118030D02*
X117943D01*
X117874Y77320D01*
X117796Y77311D01*
X117699Y77301D01*
X117601Y77281D01*
X117484Y77252D01*
X117250Y77174D01*
X117123Y77125D01*
X116997Y77057D01*
X116870Y76989D01*
X116743Y76901D01*
X116626Y76803D01*
X116509Y76686D01*
X116499Y76677D01*
X116480Y76657D01*
X116450Y76618D01*
X116411Y76569D01*
X116372Y76501D01*
X116324Y76423D01*
X116265Y76335D01*
X116207Y76228D01*
X116158Y76101D01*
X116099Y75974D01*
X116051Y75828D01*
X116002Y75662D01*
X115972Y75496D01*
X115943Y75311D01*
X115924Y75116D01*
X115914Y74901D01*
Y74892D01*
Y74853D01*
Y74784D01*
X115924Y74696D01*
X119376D01*
Y74687D01*
Y74667D01*
X119367Y74619D01*
Y74570D01*
X119357Y74502D01*
X119347Y74433D01*
X119308Y74258D01*
X119250Y74072D01*
X119181Y73877D01*
X119074Y73682D01*
X118947Y73516D01*
X118928Y73497D01*
X118879Y73458D01*
X118791Y73390D01*
X118684Y73321D01*
X118538Y73243D01*
X118372Y73175D01*
X118187Y73136D01*
X117982Y73116D01*
X117904D01*
X117826Y73126D01*
X117728Y73146D01*
X117611Y73175D01*
X117484Y73214D01*
X117357Y73263D01*
X117240Y73341D01*
X117231Y73351D01*
X117192Y73390D01*
X117133Y73438D01*
X117065Y73526D01*
X116987Y73624D01*
X116909Y73750D01*
X116831Y73906D01*
X116753Y74082D01*
X115943Y73975D01*
Y73965D01*
X115953Y73945D01*
X115963Y73906D01*
X115982Y73858D01*
X116002Y73799D01*
X116031Y73731D01*
X116109Y73565D01*
X116207Y73390D01*
X116324Y73204D01*
X116480Y73019D01*
X116655Y72863D01*
X116665D01*
X116675Y72843D01*
X116704Y72824D01*
X116753Y72804D01*
X116802Y72775D01*
X116860Y72736D01*
X116928Y72707D01*
X117016Y72668D01*
X117201Y72600D01*
X117436Y72531D01*
X117689Y72492D01*
X117982Y72473D01*
X118079D01*
X118147Y72483D01*
X118235Y72492D01*
X118333Y72502D01*
X118440Y72522D01*
X118567Y72551D01*
X118820Y72629D01*
X118957Y72677D01*
X119084Y72736D01*
X119220Y72804D01*
X119347Y72892D01*
X119474Y72990D01*
X119591Y73097D01*
X119601Y73107D01*
X119620Y73126D01*
X119649Y73165D01*
X119679Y73214D01*
X119728Y73273D01*
X119776Y73351D01*
X119835Y73448D01*
X119884Y73555D01*
X119942Y73672D01*
X120001Y73799D01*
X120049Y73945D01*
X120089Y74102D01*
X120127Y74267D01*
X120157Y74453D01*
X120176Y74648D01*
X120186Y74853D01*
Y74862D01*
Y74901D01*
Y74970D01*
X120176Y75048D01*
X120167Y75145D01*
X120157Y75262D01*
X120137Y75389D01*
X120108Y75526D01*
X120040Y75818D01*
X119991Y75964D01*
X119932Y76121D01*
X119864Y76267D01*
X119786Y76413D01*
X119698Y76550D01*
X119591Y76677D01*
X119581Y76686D01*
X119562Y76706D01*
X119532Y76735D01*
X119484Y76784D01*
X119425Y76833D01*
X119347Y76881D01*
X119269Y76940D01*
X119172Y77008D01*
X119064Y77067D01*
X118947Y77125D01*
X118820Y77174D01*
X118674Y77232D01*
X118528Y77271D01*
X118372Y77301D01*
X118206Y77320D01*
X118030Y77330D01*
D02*
G37*
G36*
X110793D02*
X110715D01*
X110666Y77320D01*
X110597D01*
X110529Y77311D01*
X110354Y77281D01*
X110159Y77232D01*
X109944Y77164D01*
X109739Y77067D01*
X109554Y76940D01*
X109544D01*
X109534Y76920D01*
X109476Y76872D01*
X109398Y76784D01*
X109300Y76667D01*
X109193Y76511D01*
X109095Y76325D01*
X109008Y76101D01*
X108939Y75857D01*
X109700Y75740D01*
Y75750D01*
X109710Y75760D01*
X109720Y75818D01*
X109749Y75896D01*
X109788Y76003D01*
X109846Y76121D01*
X109915Y76238D01*
X109993Y76345D01*
X110090Y76442D01*
X110100Y76452D01*
X110139Y76481D01*
X110198Y76520D01*
X110276Y76569D01*
X110373Y76608D01*
X110480Y76647D01*
X110617Y76677D01*
X110754Y76686D01*
X110812D01*
X110851Y76677D01*
X110958Y76667D01*
X111095Y76638D01*
X111251Y76579D01*
X111407Y76501D01*
X111573Y76403D01*
X111651Y76335D01*
X111719Y76257D01*
X111739Y76238D01*
X111748Y76208D01*
X111778Y76179D01*
X111807Y76130D01*
X111836Y76072D01*
X111866Y76003D01*
X111895Y75925D01*
X111934Y75838D01*
X111963Y75740D01*
X111992Y75623D01*
X112022Y75506D01*
X112051Y75370D01*
X112061Y75223D01*
X112080Y75067D01*
Y74901D01*
Y74892D01*
Y74862D01*
Y74814D01*
X112070Y74745D01*
Y74667D01*
X112061Y74580D01*
X112031Y74384D01*
X111992Y74160D01*
X111934Y73926D01*
X111846Y73721D01*
X111788Y73624D01*
X111729Y73536D01*
X111709Y73516D01*
X111661Y73468D01*
X111583Y73399D01*
X111475Y73331D01*
X111348Y73253D01*
X111183Y73185D01*
X111007Y73136D01*
X110910Y73126D01*
X110802Y73116D01*
X110724D01*
X110637Y73136D01*
X110529Y73155D01*
X110412Y73185D01*
X110276Y73233D01*
X110149Y73302D01*
X110032Y73399D01*
X110022Y73409D01*
X109983Y73458D01*
X109924Y73516D01*
X109866Y73614D01*
X109798Y73741D01*
X109729Y73887D01*
X109671Y74072D01*
X109632Y74277D01*
X108861Y74170D01*
Y74160D01*
X108871Y74131D01*
X108881Y74092D01*
X108891Y74043D01*
X108910Y73975D01*
X108930Y73897D01*
X108988Y73711D01*
X109076Y73516D01*
X109193Y73302D01*
X109339Y73107D01*
X109515Y72921D01*
X109525D01*
X109534Y72902D01*
X109564Y72882D01*
X109603Y72853D01*
X109661Y72814D01*
X109720Y72775D01*
X109866Y72697D01*
X110051Y72619D01*
X110276Y72541D01*
X110520Y72492D01*
X110656Y72483D01*
X110793Y72473D01*
X110880D01*
X110949Y72483D01*
X111027Y72492D01*
X111124Y72502D01*
X111222Y72522D01*
X111339Y72551D01*
X111583Y72619D01*
X111709Y72677D01*
X111836Y72736D01*
X111963Y72804D01*
X112080Y72882D01*
X112197Y72980D01*
X112314Y73087D01*
X112324Y73097D01*
X112343Y73116D01*
X112363Y73155D01*
X112402Y73204D01*
X112451Y73273D01*
X112500Y73351D01*
X112548Y73438D01*
X112597Y73546D01*
X112655Y73663D01*
X112704Y73799D01*
X112753Y73945D01*
X112802Y74111D01*
X112841Y74277D01*
X112860Y74472D01*
X112880Y74667D01*
X112890Y74882D01*
Y74892D01*
Y74911D01*
Y74960D01*
Y75009D01*
X112880Y75077D01*
Y75145D01*
X112860Y75331D01*
X112831Y75535D01*
X112782Y75750D01*
X112724Y75984D01*
X112646Y76199D01*
Y76208D01*
X112636Y76228D01*
X112617Y76257D01*
X112597Y76296D01*
X112538Y76394D01*
X112460Y76520D01*
X112353Y76657D01*
X112226Y76793D01*
X112070Y76930D01*
X111895Y77047D01*
X111885D01*
X111875Y77057D01*
X111846Y77076D01*
X111807Y77096D01*
X111700Y77135D01*
X111563Y77193D01*
X111407Y77242D01*
X111212Y77291D01*
X111007Y77320D01*
X110793Y77330D01*
D02*
G37*
G36*
X286906Y73477D02*
X286009D01*
Y72580D01*
X286906D01*
Y73477D01*
D02*
G37*
G36*
X258798Y77223D02*
X258008D01*
Y72580D01*
X258798D01*
Y77223D01*
D02*
G37*
G36*
X223741Y73477D02*
X222843D01*
Y72580D01*
X223741D01*
Y73477D01*
D02*
G37*
G36*
X174597Y78988D02*
X173807D01*
Y72580D01*
X174597D01*
Y78988D01*
D02*
G37*
G36*
X145299Y77330D02*
X145231D01*
X145153Y77320D01*
X145046Y77301D01*
X144929Y77262D01*
X144792Y77223D01*
X144646Y77154D01*
X144490Y77067D01*
X144773Y76345D01*
X144782Y76355D01*
X144822Y76374D01*
X144880Y76403D01*
X144948Y76433D01*
X145036Y76462D01*
X145134Y76491D01*
X145241Y76511D01*
X145348Y76520D01*
X145387D01*
X145436Y76511D01*
X145504Y76501D01*
X145573Y76481D01*
X145651Y76452D01*
X145729Y76413D01*
X145807Y76364D01*
X145816Y76355D01*
X145836Y76335D01*
X145875Y76296D01*
X145914Y76247D01*
X145963Y76189D01*
X146011Y76111D01*
X146050Y76023D01*
X146089Y75925D01*
X146099Y75906D01*
X146109Y75857D01*
X146128Y75769D01*
X146148Y75652D01*
X146177Y75516D01*
X146197Y75360D01*
X146207Y75194D01*
X146216Y75009D01*
Y72580D01*
X147006D01*
Y77223D01*
X146294D01*
Y76530D01*
X146285Y76540D01*
X146245Y76599D01*
X146197Y76686D01*
X146138Y76784D01*
X146060Y76891D01*
X145972Y76998D01*
X145894Y77096D01*
X145807Y77164D01*
X145797Y77174D01*
X145768Y77193D01*
X145719Y77213D01*
X145651Y77252D01*
X145582Y77281D01*
X145494Y77301D01*
X145397Y77320D01*
X145299Y77330D01*
D02*
G37*
G36*
X105827Y78988D02*
X104979D01*
Y73331D01*
X101828D01*
Y72580D01*
X105827D01*
Y78988D01*
D02*
G37*
G36*
X92483D02*
X89508D01*
X89430Y78978D01*
X89352D01*
X89157Y78969D01*
X88952Y78949D01*
X88738Y78910D01*
X88533Y78871D01*
X88435Y78842D01*
X88348Y78812D01*
X88338D01*
X88328Y78803D01*
X88270Y78783D01*
X88191Y78734D01*
X88094Y78666D01*
X87977Y78588D01*
X87860Y78481D01*
X87743Y78354D01*
X87635Y78198D01*
X87626Y78179D01*
X87597Y78120D01*
X87548Y78032D01*
X87499Y77915D01*
X87450Y77769D01*
X87401Y77603D01*
X87372Y77428D01*
X87362Y77232D01*
Y77223D01*
Y77203D01*
Y77164D01*
X87372Y77115D01*
Y77057D01*
X87382Y76989D01*
X87421Y76833D01*
X87470Y76647D01*
X87548Y76462D01*
X87665Y76267D01*
X87733Y76169D01*
X87811Y76082D01*
X87831Y76062D01*
X87860Y76042D01*
X87889Y76003D01*
X87938Y75974D01*
X87996Y75925D01*
X88065Y75887D01*
X88143Y75838D01*
X88230Y75789D01*
X88338Y75740D01*
X88445Y75691D01*
X88572Y75643D01*
X88699Y75594D01*
X88845Y75555D01*
X89001Y75526D01*
X89167Y75496D01*
X89147Y75487D01*
X89108Y75467D01*
X89050Y75438D01*
X88982Y75399D01*
X88816Y75292D01*
X88728Y75233D01*
X88660Y75174D01*
X88640Y75155D01*
X88591Y75116D01*
X88523Y75038D01*
X88435Y74940D01*
X88328Y74814D01*
X88211Y74667D01*
X88084Y74502D01*
X87957Y74316D01*
X86845Y72580D01*
X87909D01*
X88757Y73906D01*
Y73916D01*
X88777Y73936D01*
X88796Y73965D01*
X88816Y74004D01*
X88884Y74102D01*
X88972Y74228D01*
X89069Y74375D01*
X89177Y74521D01*
X89274Y74658D01*
X89372Y74784D01*
X89381Y74794D01*
X89411Y74833D01*
X89459Y74892D01*
X89508Y74960D01*
X89655Y75096D01*
X89723Y75165D01*
X89801Y75213D01*
X89810Y75223D01*
X89830Y75233D01*
X89869Y75252D01*
X89918Y75282D01*
X90035Y75340D01*
X90181Y75389D01*
X90191D01*
X90210Y75399D01*
X90250D01*
X90298Y75409D01*
X90366Y75418D01*
X90444D01*
X90542Y75428D01*
X91635D01*
Y72580D01*
X92483D01*
Y78988D01*
D02*
G37*
G36*
X76466D02*
X75540D01*
X72935Y72580D01*
X73891D01*
X74633Y74521D01*
X77325D01*
X78017Y72580D01*
X78914D01*
X76466Y78988D01*
D02*
G37*
G36*
X71418D02*
X66356D01*
Y78237D01*
X68463D01*
Y72580D01*
X69311D01*
Y78237D01*
X71418D01*
Y78988D01*
D02*
G37*
G36*
X293759Y77330D02*
X293534D01*
X293427Y77320D01*
X293300Y77311D01*
X293144Y77291D01*
X292988Y77262D01*
X292822Y77223D01*
X292666Y77164D01*
X292656D01*
X292647Y77154D01*
X292598Y77135D01*
X292520Y77096D01*
X292432Y77057D01*
X292335Y76989D01*
X292227Y76920D01*
X292130Y76833D01*
X292052Y76735D01*
X292042Y76725D01*
X292023Y76686D01*
X291984Y76628D01*
X291935Y76550D01*
X291896Y76452D01*
X291847Y76325D01*
X291808Y76189D01*
X291769Y76033D01*
X292540Y75925D01*
Y75945D01*
X292549Y75984D01*
X292569Y76052D01*
X292598Y76130D01*
X292637Y76218D01*
X292696Y76306D01*
X292764Y76403D01*
X292852Y76481D01*
X292861Y76491D01*
X292900Y76511D01*
X292959Y76550D01*
X293037Y76589D01*
X293134Y76618D01*
X293261Y76657D01*
X293398Y76677D01*
X293564Y76686D01*
X293651D01*
X293749Y76677D01*
X293866Y76667D01*
X293993Y76638D01*
X294120Y76608D01*
X294246Y76560D01*
X294344Y76501D01*
X294354Y76491D01*
X294383Y76472D01*
X294412Y76433D01*
X294451Y76384D01*
X294500Y76325D01*
X294529Y76247D01*
X294559Y76169D01*
X294568Y76082D01*
Y76072D01*
Y76052D01*
X294559Y76023D01*
Y75984D01*
X294529Y75896D01*
X294480Y75799D01*
X294471Y75789D01*
X294461Y75779D01*
X294402Y75730D01*
X294363Y75691D01*
X294315Y75662D01*
X294246Y75623D01*
X294178Y75594D01*
X294168D01*
X294149Y75584D01*
X294110Y75574D01*
X294042Y75555D01*
X293954Y75526D01*
X293827Y75487D01*
X293671Y75448D01*
X293583Y75418D01*
X293476Y75389D01*
X293466D01*
X293437Y75379D01*
X293398Y75370D01*
X293339Y75350D01*
X293271Y75331D01*
X293193Y75311D01*
X293017Y75262D01*
X292822Y75204D01*
X292627Y75135D01*
X292452Y75077D01*
X292374Y75048D01*
X292305Y75018D01*
X292286Y75009D01*
X292247Y74989D01*
X292188Y74960D01*
X292120Y74921D01*
X292032Y74862D01*
X291945Y74784D01*
X291866Y74706D01*
X291789Y74609D01*
X291779Y74599D01*
X291759Y74560D01*
X291730Y74502D01*
X291691Y74423D01*
X291652Y74326D01*
X291623Y74209D01*
X291603Y74082D01*
X291593Y73936D01*
Y73916D01*
Y73868D01*
X291603Y73789D01*
X291623Y73702D01*
X291652Y73585D01*
X291691Y73458D01*
X291749Y73331D01*
X291828Y73194D01*
X291837Y73175D01*
X291866Y73136D01*
X291925Y73077D01*
X292003Y72999D01*
X292091Y72912D01*
X292208Y72824D01*
X292344Y72736D01*
X292500Y72658D01*
X292520Y72648D01*
X292579Y72629D01*
X292666Y72600D01*
X292783Y72570D01*
X292930Y72531D01*
X293095Y72502D01*
X293281Y72483D01*
X293476Y72473D01*
X293564D01*
X293622Y72483D01*
X293700D01*
X293788Y72492D01*
X293993Y72522D01*
X294217Y72561D01*
X294441Y72629D01*
X294666Y72716D01*
X294763Y72775D01*
X294861Y72843D01*
X294871D01*
X294880Y72863D01*
X294939Y72912D01*
X295017Y72999D01*
X295114Y73126D01*
X295212Y73282D01*
X295310Y73477D01*
X295397Y73702D01*
X295456Y73965D01*
X294676Y74092D01*
Y74082D01*
Y74072D01*
X294666Y74014D01*
X294636Y73926D01*
X294607Y73819D01*
X294559Y73702D01*
X294500Y73585D01*
X294412Y73468D01*
X294315Y73360D01*
X294305Y73351D01*
X294256Y73321D01*
X294188Y73282D01*
X294100Y73243D01*
X293973Y73194D01*
X293837Y73155D01*
X293661Y73126D01*
X293476Y73116D01*
X293388D01*
X293291Y73126D01*
X293174Y73146D01*
X293037Y73165D01*
X292900Y73204D01*
X292774Y73263D01*
X292666Y73331D01*
X292656Y73341D01*
X292627Y73370D01*
X292579Y73419D01*
X292530Y73477D01*
X292491Y73555D01*
X292442Y73653D01*
X292413Y73750D01*
X292403Y73858D01*
Y73868D01*
Y73906D01*
X292413Y73945D01*
X292432Y74014D01*
X292461Y74072D01*
X292500Y74150D01*
X292559Y74219D01*
X292637Y74277D01*
X292647Y74287D01*
X292676Y74297D01*
X292725Y74316D01*
X292803Y74355D01*
X292910Y74384D01*
X293047Y74433D01*
X293134Y74462D01*
X293222Y74482D01*
X293330Y74511D01*
X293447Y74541D01*
X293456D01*
X293486Y74550D01*
X293525Y74560D01*
X293583Y74580D01*
X293661Y74599D01*
X293739Y74619D01*
X293925Y74677D01*
X294120Y74735D01*
X294324Y74794D01*
X294510Y74862D01*
X294588Y74892D01*
X294656Y74921D01*
X294666Y74931D01*
X294715Y74950D01*
X294773Y74989D01*
X294841Y75038D01*
X294929Y75096D01*
X295007Y75174D01*
X295095Y75262D01*
X295163Y75360D01*
X295173Y75370D01*
X295193Y75409D01*
X295212Y75467D01*
X295241Y75545D01*
X295280Y75633D01*
X295300Y75740D01*
X295319Y75857D01*
X295329Y75984D01*
Y75994D01*
Y76033D01*
X295319Y76101D01*
X295310Y76169D01*
X295300Y76257D01*
X295271Y76355D01*
X295241Y76462D01*
X295193Y76560D01*
X295183Y76569D01*
X295163Y76608D01*
X295134Y76657D01*
X295085Y76715D01*
X295036Y76784D01*
X294968Y76852D01*
X294890Y76930D01*
X294802Y76998D01*
X294793Y77008D01*
X294763Y77018D01*
X294724Y77047D01*
X294666Y77076D01*
X294597Y77115D01*
X294510Y77154D01*
X294412Y77193D01*
X294305Y77232D01*
X294285D01*
X294246Y77252D01*
X294188Y77262D01*
X294100Y77281D01*
X293993Y77301D01*
X293885Y77311D01*
X293759Y77330D01*
D02*
G37*
G36*
X278844Y79095D02*
X278220D01*
X280073Y72473D01*
X280697D01*
X278844Y79095D01*
D02*
G37*
G36*
X271826D02*
X271201D01*
X273055Y72473D01*
X273679D01*
X271826Y79095D01*
D02*
G37*
G36*
X209289Y77330D02*
X209201D01*
X209133Y77320D01*
X209045Y77311D01*
X208958Y77301D01*
X208850Y77281D01*
X208733Y77252D01*
X208489Y77174D01*
X208363Y77125D01*
X208226Y77067D01*
X208099Y76989D01*
X207972Y76901D01*
X207846Y76803D01*
X207729Y76696D01*
X207719Y76686D01*
X207699Y76667D01*
X207670Y76628D01*
X207631Y76579D01*
X207582Y76520D01*
X207533Y76442D01*
X207475Y76345D01*
X207416Y76247D01*
X207368Y76130D01*
X207309Y75994D01*
X207260Y75857D01*
X207212Y75701D01*
X207173Y75535D01*
X207143Y75350D01*
X207124Y75165D01*
X207114Y74960D01*
Y74950D01*
Y74921D01*
Y74872D01*
Y74814D01*
X207124Y74735D01*
Y74648D01*
X207134Y74550D01*
X207143Y74443D01*
X207182Y74219D01*
X207231Y73984D01*
X207299Y73750D01*
X207387Y73546D01*
Y73536D01*
X207397Y73526D01*
X207436Y73458D01*
X207504Y73370D01*
X207592Y73253D01*
X207699Y73126D01*
X207836Y72999D01*
X207992Y72873D01*
X208177Y72756D01*
X208187D01*
X208197Y72746D01*
X208226Y72726D01*
X208265Y72716D01*
X208372Y72668D01*
X208509Y72619D01*
X208675Y72561D01*
X208860Y72522D01*
X209065Y72483D01*
X209289Y72473D01*
X209387D01*
X209455Y72483D01*
X209533Y72492D01*
X209631Y72502D01*
X209738Y72522D01*
X209855Y72551D01*
X210099Y72629D01*
X210235Y72677D01*
X210362Y72736D01*
X210499Y72804D01*
X210625Y72892D01*
X210752Y72990D01*
X210869Y73097D01*
X210879Y73107D01*
X210898Y73126D01*
X210928Y73165D01*
X210957Y73214D01*
X211006Y73282D01*
X211055Y73360D01*
X211113Y73448D01*
X211162Y73555D01*
X211220Y73682D01*
X211279Y73809D01*
X211328Y73965D01*
X211367Y74121D01*
X211406Y74297D01*
X211435Y74482D01*
X211455Y74687D01*
X211464Y74901D01*
Y74921D01*
Y74960D01*
X211455Y75028D01*
Y75116D01*
X211445Y75223D01*
X211425Y75340D01*
X211406Y75477D01*
X211376Y75623D01*
X211337Y75779D01*
X211289Y75935D01*
X211230Y76091D01*
X211162Y76247D01*
X211084Y76403D01*
X210986Y76550D01*
X210879Y76686D01*
X210752Y76813D01*
X210742Y76823D01*
X210723Y76833D01*
X210694Y76862D01*
X210645Y76891D01*
X210586Y76930D01*
X210518Y76979D01*
X210440Y77028D01*
X210343Y77076D01*
X210245Y77115D01*
X210138Y77164D01*
X209884Y77252D01*
X209601Y77311D01*
X209445Y77320D01*
X209289Y77330D01*
D02*
G37*
G36*
X194623Y79095D02*
X193999D01*
X195852Y72473D01*
X196476D01*
X194623Y79095D01*
D02*
G37*
G36*
X159097Y78988D02*
X158307D01*
Y72580D01*
X159039D01*
Y73155D01*
X159048Y73146D01*
X159058Y73126D01*
X159087Y73097D01*
X159127Y73048D01*
X159165Y72999D01*
X159224Y72941D01*
X159292Y72882D01*
X159370Y72814D01*
X159458Y72756D01*
X159556Y72687D01*
X159663Y72629D01*
X159770Y72580D01*
X159897Y72531D01*
X160034Y72502D01*
X160180Y72483D01*
X160336Y72473D01*
X160394D01*
X160434Y72483D01*
X160541Y72492D01*
X160667Y72512D01*
X160833Y72551D01*
X160999Y72600D01*
X161185Y72677D01*
X161360Y72775D01*
X161370D01*
X161380Y72785D01*
X161438Y72834D01*
X161516Y72902D01*
X161623Y72999D01*
X161731Y73116D01*
X161857Y73263D01*
X161965Y73429D01*
X162072Y73624D01*
Y73633D01*
X162082Y73653D01*
X162092Y73682D01*
X162111Y73721D01*
X162131Y73770D01*
X162150Y73838D01*
X162199Y73994D01*
X162248Y74180D01*
X162287Y74394D01*
X162316Y74628D01*
X162326Y74892D01*
Y74901D01*
Y74921D01*
Y74960D01*
Y75009D01*
X162316Y75067D01*
Y75145D01*
X162296Y75311D01*
X162267Y75506D01*
X162228Y75711D01*
X162179Y75935D01*
X162101Y76150D01*
Y76160D01*
X162092Y76179D01*
X162072Y76208D01*
X162053Y76247D01*
X162004Y76345D01*
X161926Y76472D01*
X161828Y76618D01*
X161711Y76764D01*
X161575Y76901D01*
X161409Y77028D01*
X161399D01*
X161389Y77037D01*
X161331Y77076D01*
X161233Y77125D01*
X161106Y77184D01*
X160950Y77232D01*
X160775Y77281D01*
X160580Y77320D01*
X160375Y77330D01*
X160307D01*
X160229Y77320D01*
X160121Y77311D01*
X160014Y77281D01*
X159887Y77252D01*
X159761Y77203D01*
X159634Y77145D01*
X159614Y77135D01*
X159575Y77115D01*
X159517Y77076D01*
X159439Y77018D01*
X159361Y76959D01*
X159263Y76881D01*
X159175Y76784D01*
X159097Y76686D01*
Y78988D01*
D02*
G37*
G36*
X131458Y79095D02*
X130833D01*
X132687Y72473D01*
X133311D01*
X131458Y79095D01*
D02*
G37*
G36*
X125137D02*
X125020D01*
X124951Y79086D01*
X124883D01*
X124717Y79066D01*
X124522Y79037D01*
X124308Y78998D01*
X124093Y78939D01*
X123888Y78861D01*
X123878D01*
X123869Y78852D01*
X123839Y78842D01*
X123800Y78822D01*
X123703Y78764D01*
X123576Y78696D01*
X123440Y78598D01*
X123303Y78481D01*
X123166Y78344D01*
X123049Y78188D01*
X123040Y78169D01*
X123001Y78110D01*
X122952Y78013D01*
X122903Y77896D01*
X122844Y77749D01*
X122786Y77574D01*
X122747Y77389D01*
X122727Y77184D01*
X123537Y77125D01*
Y77135D01*
Y77154D01*
X123547Y77184D01*
X123556Y77223D01*
X123576Y77330D01*
X123615Y77467D01*
X123674Y77613D01*
X123752Y77759D01*
X123859Y77906D01*
X123986Y78032D01*
X124005Y78042D01*
X124054Y78081D01*
X124142Y78130D01*
X124259Y78188D01*
X124415Y78247D01*
X124610Y78296D01*
X124834Y78335D01*
X125098Y78344D01*
X125224D01*
X125283Y78335D01*
X125361D01*
X125527Y78305D01*
X125712Y78276D01*
X125897Y78227D01*
X126073Y78159D01*
X126151Y78110D01*
X126219Y78061D01*
X126229Y78052D01*
X126268Y78013D01*
X126327Y77954D01*
X126385Y77866D01*
X126453Y77769D01*
X126502Y77652D01*
X126541Y77525D01*
X126561Y77379D01*
Y77359D01*
Y77320D01*
X126551Y77252D01*
X126531Y77174D01*
X126502Y77086D01*
X126453Y76989D01*
X126395Y76901D01*
X126317Y76813D01*
X126307Y76803D01*
X126258Y76774D01*
X126229Y76754D01*
X126190Y76725D01*
X126131Y76706D01*
X126063Y76677D01*
X125985Y76638D01*
X125897Y76599D01*
X125800Y76569D01*
X125683Y76530D01*
X125546Y76481D01*
X125400Y76442D01*
X125234Y76403D01*
X125049Y76355D01*
X125039D01*
X125000Y76345D01*
X124951Y76335D01*
X124883Y76316D01*
X124795Y76296D01*
X124698Y76267D01*
X124483Y76218D01*
X124249Y76150D01*
X124015Y76082D01*
X123898Y76052D01*
X123800Y76013D01*
X123703Y75974D01*
X123625Y75945D01*
X123615D01*
X123596Y75935D01*
X123576Y75916D01*
X123537Y75896D01*
X123440Y75838D01*
X123313Y75769D01*
X123176Y75672D01*
X123040Y75555D01*
X122913Y75428D01*
X122806Y75292D01*
X122796Y75272D01*
X122767Y75223D01*
X122718Y75145D01*
X122669Y75028D01*
X122620Y74901D01*
X122571Y74745D01*
X122542Y74570D01*
X122532Y74384D01*
Y74375D01*
Y74365D01*
Y74336D01*
Y74297D01*
X122552Y74199D01*
X122571Y74072D01*
X122601Y73926D01*
X122659Y73760D01*
X122727Y73585D01*
X122825Y73419D01*
X122835Y73399D01*
X122884Y73341D01*
X122942Y73263D01*
X123040Y73165D01*
X123157Y73048D01*
X123303Y72931D01*
X123478Y72824D01*
X123674Y72716D01*
X123683D01*
X123703Y72707D01*
X123732Y72697D01*
X123771Y72677D01*
X123820Y72658D01*
X123878Y72639D01*
X124035Y72600D01*
X124210Y72551D01*
X124425Y72512D01*
X124649Y72483D01*
X124902Y72473D01*
X125049D01*
X125117Y72483D01*
X125205D01*
X125302Y72492D01*
X125410Y72502D01*
X125634Y72531D01*
X125878Y72580D01*
X126122Y72639D01*
X126356Y72716D01*
X126366D01*
X126385Y72726D01*
X126414Y72746D01*
X126453Y72765D01*
X126561Y72824D01*
X126687Y72912D01*
X126844Y73019D01*
X126990Y73146D01*
X127146Y73302D01*
X127282Y73477D01*
Y73487D01*
X127292Y73497D01*
X127312Y73526D01*
X127331Y73565D01*
X127360Y73614D01*
X127390Y73672D01*
X127448Y73819D01*
X127507Y73984D01*
X127565Y74189D01*
X127604Y74404D01*
X127624Y74638D01*
X126824Y74706D01*
Y74696D01*
Y74687D01*
X126814Y74628D01*
X126795Y74541D01*
X126775Y74423D01*
X126736Y74297D01*
X126697Y74160D01*
X126639Y74033D01*
X126570Y73906D01*
X126561Y73897D01*
X126531Y73858D01*
X126483Y73799D01*
X126405Y73731D01*
X126317Y73653D01*
X126209Y73565D01*
X126073Y73487D01*
X125927Y73409D01*
X125917D01*
X125907Y73399D01*
X125849Y73380D01*
X125761Y73351D01*
X125634Y73321D01*
X125498Y73282D01*
X125322Y73253D01*
X125137Y73233D01*
X124942Y73224D01*
X124864D01*
X124766Y73233D01*
X124659Y73243D01*
X124522Y73253D01*
X124386Y73282D01*
X124239Y73312D01*
X124093Y73360D01*
X124073Y73370D01*
X124035Y73390D01*
X123966Y73419D01*
X123888Y73468D01*
X123791Y73526D01*
X123703Y73594D01*
X123615Y73672D01*
X123537Y73760D01*
X123527Y73770D01*
X123508Y73809D01*
X123478Y73858D01*
X123440Y73926D01*
X123410Y74004D01*
X123381Y74102D01*
X123362Y74199D01*
X123352Y74306D01*
Y74316D01*
Y74355D01*
X123362Y74414D01*
X123371Y74482D01*
X123391Y74570D01*
X123430Y74658D01*
X123469Y74745D01*
X123527Y74833D01*
X123537Y74843D01*
X123556Y74872D01*
X123605Y74911D01*
X123664Y74970D01*
X123742Y75028D01*
X123839Y75087D01*
X123966Y75155D01*
X124103Y75213D01*
X124113Y75223D01*
X124151Y75233D01*
X124229Y75252D01*
X124278Y75272D01*
X124337Y75292D01*
X124415Y75311D01*
X124493Y75331D01*
X124590Y75360D01*
X124688Y75389D01*
X124805Y75418D01*
X124942Y75448D01*
X125088Y75487D01*
X125244Y75526D01*
X125254D01*
X125283Y75535D01*
X125332Y75545D01*
X125390Y75565D01*
X125458Y75584D01*
X125536Y75604D01*
X125722Y75652D01*
X125927Y75721D01*
X126131Y75789D01*
X126317Y75857D01*
X126405Y75887D01*
X126473Y75925D01*
X126483D01*
X126492Y75935D01*
X126551Y75974D01*
X126629Y76023D01*
X126727Y76091D01*
X126844Y76179D01*
X126951Y76277D01*
X127058Y76394D01*
X127156Y76520D01*
X127165Y76540D01*
X127195Y76589D01*
X127224Y76657D01*
X127263Y76754D01*
X127312Y76872D01*
X127341Y77008D01*
X127370Y77164D01*
X127380Y77320D01*
Y77330D01*
Y77340D01*
Y77369D01*
Y77408D01*
X127360Y77496D01*
X127341Y77613D01*
X127312Y77759D01*
X127263Y77906D01*
X127195Y78071D01*
X127107Y78227D01*
Y78237D01*
X127097Y78247D01*
X127058Y78296D01*
X126990Y78374D01*
X126902Y78471D01*
X126795Y78569D01*
X126658Y78676D01*
X126492Y78783D01*
X126307Y78871D01*
X126297D01*
X126288Y78881D01*
X126258Y78891D01*
X126209Y78910D01*
X126161Y78920D01*
X126102Y78939D01*
X125966Y78988D01*
X125790Y79027D01*
X125595Y79056D01*
X125371Y79086D01*
X125137Y79095D01*
D02*
G37*
G36*
X96995Y77330D02*
X96907D01*
X96839Y77320D01*
X96751Y77311D01*
X96663Y77301D01*
X96556Y77281D01*
X96439Y77252D01*
X96195Y77174D01*
X96068Y77125D01*
X95932Y77067D01*
X95805Y76989D01*
X95678Y76901D01*
X95551Y76803D01*
X95434Y76696D01*
X95424Y76686D01*
X95405Y76667D01*
X95376Y76628D01*
X95337Y76579D01*
X95288Y76520D01*
X95239Y76442D01*
X95181Y76345D01*
X95122Y76247D01*
X95073Y76130D01*
X95015Y75994D01*
X94966Y75857D01*
X94917Y75701D01*
X94878Y75535D01*
X94849Y75350D01*
X94830Y75165D01*
X94820Y74960D01*
Y74950D01*
Y74921D01*
Y74872D01*
Y74814D01*
X94830Y74735D01*
Y74648D01*
X94839Y74550D01*
X94849Y74443D01*
X94888Y74219D01*
X94937Y73984D01*
X95005Y73750D01*
X95093Y73546D01*
Y73536D01*
X95103Y73526D01*
X95142Y73458D01*
X95210Y73370D01*
X95298Y73253D01*
X95405Y73126D01*
X95541Y72999D01*
X95697Y72873D01*
X95883Y72756D01*
X95893D01*
X95902Y72746D01*
X95932Y72726D01*
X95971Y72716D01*
X96078Y72668D01*
X96215Y72619D01*
X96380Y72561D01*
X96566Y72522D01*
X96770Y72483D01*
X96995Y72473D01*
X97092D01*
X97161Y72483D01*
X97239Y72492D01*
X97336Y72502D01*
X97443Y72522D01*
X97561Y72551D01*
X97804Y72629D01*
X97941Y72677D01*
X98068Y72736D01*
X98204Y72804D01*
X98331Y72892D01*
X98458Y72990D01*
X98575Y73097D01*
X98585Y73107D01*
X98604Y73126D01*
X98633Y73165D01*
X98663Y73214D01*
X98711Y73282D01*
X98760Y73360D01*
X98819Y73448D01*
X98867Y73555D01*
X98926Y73682D01*
X98984Y73809D01*
X99033Y73965D01*
X99072Y74121D01*
X99111Y74297D01*
X99141Y74482D01*
X99160Y74687D01*
X99170Y74901D01*
Y74921D01*
Y74960D01*
X99160Y75028D01*
Y75116D01*
X99150Y75223D01*
X99131Y75340D01*
X99111Y75477D01*
X99082Y75623D01*
X99043Y75779D01*
X98994Y75935D01*
X98936Y76091D01*
X98867Y76247D01*
X98789Y76403D01*
X98692Y76550D01*
X98585Y76686D01*
X98458Y76813D01*
X98448Y76823D01*
X98428Y76833D01*
X98399Y76862D01*
X98350Y76891D01*
X98292Y76930D01*
X98224Y76979D01*
X98146Y77028D01*
X98048Y77076D01*
X97951Y77115D01*
X97843Y77164D01*
X97590Y77252D01*
X97307Y77311D01*
X97151Y77320D01*
X96995Y77330D01*
D02*
G37*
G36*
X300353D02*
X300255D01*
X300138Y77311D01*
X300002Y77291D01*
X299836Y77252D01*
X299660Y77203D01*
X299485Y77125D01*
X299309Y77018D01*
X299299D01*
X299290Y77008D01*
X299231Y76959D01*
X299153Y76891D01*
X299046Y76793D01*
X298939Y76677D01*
X298822Y76520D01*
X298714Y76355D01*
X298617Y76150D01*
Y76140D01*
X298607Y76121D01*
X298597Y76091D01*
X298578Y76052D01*
X298558Y76003D01*
X298539Y75935D01*
X298500Y75789D01*
X298461Y75604D01*
X298422Y75399D01*
X298392Y75174D01*
X298383Y74931D01*
Y74921D01*
Y74901D01*
Y74862D01*
Y74814D01*
X298392Y74745D01*
Y74677D01*
X298412Y74502D01*
X298451Y74306D01*
X298490Y74092D01*
X298558Y73868D01*
X298646Y73643D01*
Y73633D01*
X298656Y73614D01*
X298675Y73585D01*
X298695Y73546D01*
X298753Y73448D01*
X298831Y73321D01*
X298939Y73185D01*
X299065Y73038D01*
X299212Y72902D01*
X299387Y72775D01*
X299397D01*
X299407Y72765D01*
X299436Y72746D01*
X299475Y72726D01*
X299573Y72677D01*
X299699Y72629D01*
X299855Y72570D01*
X300021Y72522D01*
X300216Y72483D01*
X300411Y72473D01*
X300480D01*
X300548Y72483D01*
X300645Y72492D01*
X300753Y72512D01*
X300870Y72541D01*
X300997Y72580D01*
X301114Y72629D01*
X301123Y72639D01*
X301162Y72658D01*
X301221Y72697D01*
X301289Y72746D01*
X301377Y72804D01*
X301455Y72873D01*
X301543Y72960D01*
X301621Y73048D01*
Y70805D01*
X302411D01*
Y77223D01*
X301689D01*
Y76618D01*
X301679Y76638D01*
X301650Y76677D01*
X301591Y76735D01*
X301523Y76813D01*
X301445Y76901D01*
X301348Y76989D01*
X301240Y77076D01*
X301123Y77145D01*
X301104Y77154D01*
X301065Y77174D01*
X300997Y77203D01*
X300909Y77242D01*
X300792Y77271D01*
X300665Y77301D01*
X300519Y77320D01*
X300353Y77330D01*
D02*
G37*
%LPD*%
G36*
X230354Y76677D02*
X230452Y76667D01*
X230569Y76628D01*
X230705Y76579D01*
X230861Y76491D01*
X231008Y76384D01*
X231086Y76306D01*
X231154Y76228D01*
Y76218D01*
X231173Y76208D01*
X231183Y76179D01*
X231212Y76140D01*
X231242Y76101D01*
X231271Y76042D01*
X231300Y75974D01*
X231339Y75896D01*
X231378Y75808D01*
X231408Y75711D01*
X231437Y75604D01*
X231466Y75496D01*
X231505Y75233D01*
X231525Y74931D01*
Y74921D01*
Y74892D01*
Y74853D01*
Y74794D01*
X231515Y74726D01*
Y74648D01*
X231495Y74462D01*
X231466Y74267D01*
X231427Y74062D01*
X231378Y73877D01*
X231339Y73799D01*
X231300Y73721D01*
Y73711D01*
X231281Y73692D01*
X231261Y73663D01*
X231232Y73624D01*
X231154Y73526D01*
X231037Y73419D01*
X230891Y73312D01*
X230715Y73214D01*
X230627Y73175D01*
X230520Y73146D01*
X230413Y73126D01*
X230296Y73116D01*
X230247D01*
X230208Y73126D01*
X230110Y73136D01*
X229993Y73175D01*
X229847Y73224D01*
X229701Y73302D01*
X229554Y73419D01*
X229476Y73487D01*
X229408Y73565D01*
Y73575D01*
X229389Y73585D01*
X229369Y73614D01*
X229349Y73653D01*
X229320Y73692D01*
X229291Y73750D01*
X229252Y73819D01*
X229213Y73897D01*
X229184Y73994D01*
X229145Y74092D01*
X229115Y74199D01*
X229086Y74316D01*
X229067Y74453D01*
X229047Y74589D01*
X229028Y74735D01*
Y74901D01*
Y74911D01*
Y74940D01*
Y74989D01*
X229037Y75048D01*
Y75126D01*
X229047Y75213D01*
X229076Y75409D01*
X229115Y75633D01*
X229184Y75847D01*
X229272Y76062D01*
X229320Y76160D01*
X229389Y76247D01*
Y76257D01*
X229408Y76267D01*
X229457Y76316D01*
X229525Y76384D01*
X229632Y76472D01*
X229759Y76550D01*
X229915Y76618D01*
X230081Y76667D01*
X230169Y76686D01*
X230315D01*
X230354Y76677D01*
D02*
G37*
G36*
X265641Y76667D02*
X265739Y76657D01*
X265865Y76628D01*
X266002Y76569D01*
X266158Y76491D01*
X266304Y76394D01*
X266383Y76325D01*
X266451Y76247D01*
X266470Y76228D01*
X266480Y76199D01*
X266509Y76169D01*
X266539Y76121D01*
X266568Y76072D01*
X266597Y76003D01*
X266626Y75925D01*
X266665Y75847D01*
X266695Y75750D01*
X266724Y75643D01*
X266753Y75535D01*
X266792Y75272D01*
X266812Y74979D01*
Y74970D01*
Y74940D01*
Y74892D01*
X266802Y74833D01*
Y74755D01*
X266792Y74667D01*
X266763Y74472D01*
X266724Y74258D01*
X266656Y74033D01*
X266568Y73829D01*
X266509Y73741D01*
X266451Y73653D01*
X266431Y73633D01*
X266383Y73585D01*
X266304Y73516D01*
X266197Y73448D01*
X266070Y73370D01*
X265914Y73302D01*
X265739Y73253D01*
X265641Y73243D01*
X265544Y73233D01*
X265495D01*
X265456Y73243D01*
X265349Y73253D01*
X265222Y73282D01*
X265085Y73331D01*
X264929Y73409D01*
X264783Y73507D01*
X264637Y73643D01*
Y73653D01*
X264617Y73663D01*
X264598Y73692D01*
X264578Y73721D01*
X264549Y73770D01*
X264520Y73819D01*
X264490Y73887D01*
X264451Y73965D01*
X264412Y74053D01*
X264383Y74150D01*
X264354Y74258D01*
X264324Y74375D01*
X264295Y74502D01*
X264286Y74638D01*
X264266Y74794D01*
Y74950D01*
Y74960D01*
Y74989D01*
Y75028D01*
X264276Y75087D01*
Y75165D01*
X264286Y75243D01*
X264315Y75438D01*
X264354Y75643D01*
X264422Y75857D01*
X264520Y76062D01*
X264578Y76150D01*
X264646Y76238D01*
Y76247D01*
X264666Y76257D01*
X264715Y76306D01*
X264793Y76374D01*
X264900Y76462D01*
X265027Y76540D01*
X265183Y76608D01*
X265358Y76657D01*
X265456Y76677D01*
X265602D01*
X265641Y76667D01*
D02*
G37*
G36*
X166116Y74901D02*
X166145Y74892D01*
X166174Y74882D01*
X166223Y74862D01*
X166281Y74853D01*
X166340Y74833D01*
X166418Y74804D01*
X166506Y74784D01*
X166603Y74765D01*
X166701Y74735D01*
X166818Y74706D01*
X166945Y74687D01*
X167081Y74658D01*
X167227Y74638D01*
X167384Y74609D01*
X167403D01*
X167462Y74599D01*
X167549Y74580D01*
X167657Y74560D01*
X167881Y74511D01*
X167988Y74482D01*
X168076Y74453D01*
X168086D01*
X168105Y74433D01*
X168144Y74414D01*
X168183Y74384D01*
X168281Y74306D01*
X168379Y74189D01*
Y74180D01*
X168398Y74160D01*
X168408Y74131D01*
X168427Y74082D01*
X168466Y73965D01*
X168476Y73897D01*
X168486Y73819D01*
Y73809D01*
Y73770D01*
X168476Y73711D01*
X168456Y73633D01*
X168427Y73555D01*
X168388Y73468D01*
X168330Y73380D01*
X168252Y73292D01*
X168242Y73282D01*
X168203Y73263D01*
X168154Y73224D01*
X168076Y73194D01*
X167979Y73155D01*
X167852Y73116D01*
X167715Y73097D01*
X167549Y73087D01*
X167471D01*
X167393Y73097D01*
X167276Y73116D01*
X167159Y73136D01*
X167023Y73165D01*
X166886Y73214D01*
X166750Y73282D01*
X166730Y73292D01*
X166691Y73321D01*
X166623Y73360D01*
X166545Y73429D01*
X166467Y73497D01*
X166379Y73594D01*
X166291Y73702D01*
X166223Y73829D01*
X166213Y73838D01*
X166203Y73877D01*
X166184Y73936D01*
X166155Y74023D01*
X166135Y74141D01*
X166116Y74277D01*
X166106Y74433D01*
X166096Y74619D01*
Y74911D01*
X166116Y74901D01*
D02*
G37*
G36*
X152079D02*
X152108Y74892D01*
X152137Y74882D01*
X152186Y74862D01*
X152245Y74853D01*
X152303Y74833D01*
X152381Y74804D01*
X152469Y74784D01*
X152566Y74765D01*
X152664Y74735D01*
X152781Y74706D01*
X152908Y74687D01*
X153044Y74658D01*
X153191Y74638D01*
X153347Y74609D01*
X153366D01*
X153425Y74599D01*
X153513Y74580D01*
X153620Y74560D01*
X153844Y74511D01*
X153952Y74482D01*
X154039Y74453D01*
X154049D01*
X154069Y74433D01*
X154108Y74414D01*
X154147Y74384D01*
X154244Y74306D01*
X154342Y74189D01*
Y74180D01*
X154361Y74160D01*
X154371Y74131D01*
X154390Y74082D01*
X154429Y73965D01*
X154439Y73897D01*
X154449Y73819D01*
Y73809D01*
Y73770D01*
X154439Y73711D01*
X154420Y73633D01*
X154390Y73555D01*
X154351Y73468D01*
X154293Y73380D01*
X154215Y73292D01*
X154205Y73282D01*
X154166Y73263D01*
X154117Y73224D01*
X154039Y73194D01*
X153942Y73155D01*
X153815Y73116D01*
X153678Y73097D01*
X153513Y73087D01*
X153435D01*
X153357Y73097D01*
X153239Y73116D01*
X153123Y73136D01*
X152986Y73165D01*
X152849Y73214D01*
X152713Y73282D01*
X152693Y73292D01*
X152654Y73321D01*
X152586Y73360D01*
X152508Y73429D01*
X152430Y73497D01*
X152342Y73594D01*
X152254Y73702D01*
X152186Y73829D01*
X152176Y73838D01*
X152167Y73877D01*
X152147Y73936D01*
X152118Y74023D01*
X152098Y74141D01*
X152079Y74277D01*
X152069Y74433D01*
X152059Y74619D01*
Y74911D01*
X152079Y74901D01*
D02*
G37*
G36*
X81895D02*
X81924Y74892D01*
X81953Y74882D01*
X82002Y74862D01*
X82061Y74853D01*
X82119Y74833D01*
X82197Y74804D01*
X82285Y74784D01*
X82382Y74765D01*
X82480Y74735D01*
X82597Y74706D01*
X82724Y74687D01*
X82860Y74658D01*
X83007Y74638D01*
X83163Y74609D01*
X83182D01*
X83241Y74599D01*
X83329Y74580D01*
X83436Y74560D01*
X83660Y74511D01*
X83767Y74482D01*
X83855Y74453D01*
X83865D01*
X83884Y74433D01*
X83924Y74414D01*
X83963Y74384D01*
X84060Y74306D01*
X84158Y74189D01*
Y74180D01*
X84177Y74160D01*
X84187Y74131D01*
X84206Y74082D01*
X84245Y73965D01*
X84255Y73897D01*
X84265Y73819D01*
Y73809D01*
Y73770D01*
X84255Y73711D01*
X84236Y73633D01*
X84206Y73555D01*
X84167Y73468D01*
X84109Y73380D01*
X84031Y73292D01*
X84021Y73282D01*
X83982Y73263D01*
X83933Y73224D01*
X83855Y73194D01*
X83758Y73155D01*
X83631Y73116D01*
X83494Y73097D01*
X83329Y73087D01*
X83251D01*
X83173Y73097D01*
X83055Y73116D01*
X82938Y73136D01*
X82802Y73165D01*
X82665Y73214D01*
X82529Y73282D01*
X82509Y73292D01*
X82470Y73321D01*
X82402Y73360D01*
X82324Y73429D01*
X82246Y73497D01*
X82158Y73594D01*
X82070Y73702D01*
X82002Y73829D01*
X81992Y73838D01*
X81983Y73877D01*
X81963Y73936D01*
X81934Y74023D01*
X81914Y74141D01*
X81895Y74277D01*
X81885Y74433D01*
X81875Y74619D01*
Y74911D01*
X81895Y74901D01*
D02*
G37*
G36*
X181274Y76677D02*
X181381Y76667D01*
X181508Y76638D01*
X181654Y76599D01*
X181801Y76530D01*
X181957Y76442D01*
X182103Y76316D01*
X182123Y76296D01*
X182162Y76247D01*
X182220Y76169D01*
X182288Y76052D01*
X182357Y75916D01*
X182425Y75750D01*
X182474Y75555D01*
X182503Y75340D01*
X179909D01*
Y75350D01*
Y75370D01*
X179918Y75399D01*
Y75438D01*
X179938Y75545D01*
X179967Y75672D01*
X180006Y75808D01*
X180065Y75955D01*
X180123Y76101D01*
X180211Y76218D01*
Y76228D01*
X180230Y76238D01*
X180279Y76296D01*
X180367Y76364D01*
X180474Y76452D01*
X180621Y76540D01*
X180786Y76618D01*
X180972Y76667D01*
X181079Y76677D01*
X181186Y76686D01*
X181235D01*
X181274Y76677D01*
D02*
G37*
G36*
X118109D02*
X118216Y76667D01*
X118343Y76638D01*
X118489Y76599D01*
X118635Y76530D01*
X118791Y76442D01*
X118938Y76316D01*
X118957Y76296D01*
X118996Y76247D01*
X119055Y76169D01*
X119123Y76052D01*
X119191Y75916D01*
X119259Y75750D01*
X119308Y75555D01*
X119337Y75340D01*
X116743D01*
Y75350D01*
Y75370D01*
X116753Y75399D01*
Y75438D01*
X116772Y75545D01*
X116802Y75672D01*
X116840Y75808D01*
X116899Y75955D01*
X116958Y76101D01*
X117045Y76218D01*
Y76228D01*
X117065Y76238D01*
X117114Y76296D01*
X117201Y76364D01*
X117309Y76452D01*
X117455Y76540D01*
X117621Y76618D01*
X117806Y76667D01*
X117913Y76677D01*
X118021Y76686D01*
X118069D01*
X118109Y76677D01*
D02*
G37*
G36*
X91635Y76160D02*
X89723D01*
X89615Y76169D01*
X89489Y76179D01*
X89342Y76189D01*
X89186Y76208D01*
X89040Y76238D01*
X88913Y76277D01*
X88894Y76286D01*
X88855Y76296D01*
X88796Y76325D01*
X88728Y76364D01*
X88650Y76423D01*
X88562Y76491D01*
X88484Y76569D01*
X88416Y76657D01*
X88406Y76667D01*
X88386Y76706D01*
X88357Y76754D01*
X88328Y76833D01*
X88299Y76911D01*
X88270Y77008D01*
X88250Y77115D01*
X88240Y77232D01*
Y77242D01*
Y77252D01*
Y77311D01*
X88260Y77389D01*
X88279Y77496D01*
X88318Y77613D01*
X88377Y77740D01*
X88464Y77866D01*
X88572Y77983D01*
X88591Y77993D01*
X88630Y78032D01*
X88718Y78081D01*
X88825Y78130D01*
X88972Y78188D01*
X89147Y78227D01*
X89362Y78266D01*
X89615Y78276D01*
X91635D01*
Y76160D01*
D02*
G37*
G36*
X76027Y78315D02*
X76037Y78296D01*
Y78266D01*
X76047Y78218D01*
X76066Y78159D01*
X76086Y78091D01*
X76125Y77935D01*
X76174Y77740D01*
X76232Y77535D01*
X76300Y77311D01*
X76378Y77086D01*
X77081Y75213D01*
X74906D01*
X75569Y76979D01*
Y76989D01*
X75579Y77018D01*
X75598Y77057D01*
X75618Y77115D01*
X75647Y77184D01*
X75676Y77262D01*
X75735Y77447D01*
X75813Y77662D01*
X75891Y77886D01*
X75959Y78110D01*
X76027Y78325D01*
Y78315D01*
D02*
G37*
G36*
X209387Y76667D02*
X209494Y76657D01*
X209631Y76618D01*
X209787Y76569D01*
X209952Y76491D01*
X210118Y76374D01*
X210196Y76306D01*
X210274Y76228D01*
X210294Y76208D01*
X210313Y76179D01*
X210333Y76150D01*
X210362Y76101D01*
X210391Y76042D01*
X210430Y75974D01*
X210460Y75896D01*
X210499Y75808D01*
X210538Y75711D01*
X210567Y75604D01*
X210596Y75477D01*
X210616Y75350D01*
X210635Y75204D01*
X210655Y75057D01*
Y74892D01*
Y74882D01*
Y74853D01*
Y74804D01*
X210645Y74745D01*
Y74677D01*
X210635Y74589D01*
X210606Y74394D01*
X210557Y74180D01*
X210499Y73955D01*
X210401Y73741D01*
X210343Y73643D01*
X210274Y73555D01*
X210255Y73536D01*
X210206Y73487D01*
X210118Y73419D01*
X210001Y73341D01*
X209865Y73253D01*
X209689Y73185D01*
X209504Y73136D01*
X209396Y73126D01*
X209289Y73116D01*
X209231D01*
X209192Y73126D01*
X209084Y73136D01*
X208948Y73175D01*
X208792Y73224D01*
X208626Y73302D01*
X208470Y73409D01*
X208392Y73477D01*
X208314Y73555D01*
Y73565D01*
X208294Y73575D01*
X208275Y73604D01*
X208255Y73643D01*
X208226Y73692D01*
X208187Y73750D01*
X208158Y73819D01*
X208119Y73897D01*
X208080Y73984D01*
X208050Y74082D01*
X208011Y74199D01*
X207982Y74326D01*
X207963Y74453D01*
X207943Y74599D01*
X207924Y74755D01*
Y74921D01*
Y74931D01*
Y74960D01*
Y74999D01*
X207933Y75067D01*
Y75135D01*
X207943Y75213D01*
X207972Y75409D01*
X208021Y75613D01*
X208090Y75838D01*
X208187Y76042D01*
X208324Y76228D01*
Y76238D01*
X208343Y76247D01*
X208392Y76296D01*
X208480Y76374D01*
X208587Y76452D01*
X208733Y76530D01*
X208899Y76608D01*
X209084Y76657D01*
X209182Y76677D01*
X209348D01*
X209387Y76667D01*
D02*
G37*
G36*
X160385D02*
X160482Y76657D01*
X160599Y76628D01*
X160736Y76569D01*
X160882Y76491D01*
X161028Y76394D01*
X161097Y76325D01*
X161165Y76247D01*
X161185Y76228D01*
X161194Y76199D01*
X161224Y76169D01*
X161243Y76121D01*
X161272Y76062D01*
X161311Y75994D01*
X161341Y75916D01*
X161370Y75828D01*
X161409Y75730D01*
X161438Y75613D01*
X161458Y75496D01*
X161487Y75360D01*
X161497Y75213D01*
X161516Y75057D01*
Y74892D01*
Y74882D01*
Y74853D01*
Y74804D01*
X161506Y74745D01*
Y74667D01*
X161497Y74589D01*
X161467Y74384D01*
X161428Y74170D01*
X161360Y73945D01*
X161272Y73741D01*
X161214Y73643D01*
X161145Y73555D01*
X161126Y73536D01*
X161077Y73487D01*
X160999Y73419D01*
X160892Y73341D01*
X160765Y73253D01*
X160619Y73185D01*
X160443Y73136D01*
X160355Y73126D01*
X160258Y73116D01*
X160209D01*
X160170Y73126D01*
X160073Y73136D01*
X159956Y73165D01*
X159819Y73224D01*
X159673Y73292D01*
X159517Y73399D01*
X159448Y73458D01*
X159380Y73536D01*
Y73546D01*
X159361Y73555D01*
X159351Y73585D01*
X159322Y73614D01*
X159292Y73663D01*
X159263Y73711D01*
X159234Y73780D01*
X159195Y73858D01*
X159165Y73936D01*
X159136Y74033D01*
X159107Y74141D01*
X159078Y74258D01*
X159048Y74384D01*
X159039Y74521D01*
X159019Y74667D01*
Y74823D01*
Y74833D01*
Y74862D01*
Y74911D01*
X159029Y74979D01*
Y75057D01*
X159039Y75145D01*
X159068Y75360D01*
X159107Y75584D01*
X159175Y75818D01*
X159263Y76042D01*
X159322Y76140D01*
X159390Y76228D01*
Y76238D01*
X159409Y76247D01*
X159458Y76296D01*
X159536Y76374D01*
X159643Y76452D01*
X159770Y76530D01*
X159926Y76608D01*
X160102Y76657D01*
X160199Y76677D01*
X160346D01*
X160385Y76667D01*
D02*
G37*
G36*
X97092D02*
X97200Y76657D01*
X97336Y76618D01*
X97492Y76569D01*
X97658Y76491D01*
X97824Y76374D01*
X97902Y76306D01*
X97980Y76228D01*
X97999Y76208D01*
X98019Y76179D01*
X98038Y76150D01*
X98068Y76101D01*
X98097Y76042D01*
X98136Y75974D01*
X98165Y75896D01*
X98204Y75808D01*
X98243Y75711D01*
X98272Y75604D01*
X98302Y75477D01*
X98321Y75350D01*
X98341Y75204D01*
X98360Y75057D01*
Y74892D01*
Y74882D01*
Y74853D01*
Y74804D01*
X98350Y74745D01*
Y74677D01*
X98341Y74589D01*
X98312Y74394D01*
X98263Y74180D01*
X98204Y73955D01*
X98107Y73741D01*
X98048Y73643D01*
X97980Y73555D01*
X97960Y73536D01*
X97912Y73487D01*
X97824Y73419D01*
X97707Y73341D01*
X97570Y73253D01*
X97395Y73185D01*
X97209Y73136D01*
X97102Y73126D01*
X96995Y73116D01*
X96936D01*
X96897Y73126D01*
X96790Y73136D01*
X96653Y73175D01*
X96497Y73224D01*
X96332Y73302D01*
X96175Y73409D01*
X96097Y73477D01*
X96019Y73555D01*
Y73565D01*
X96000Y73575D01*
X95980Y73604D01*
X95961Y73643D01*
X95932Y73692D01*
X95893Y73750D01*
X95863Y73819D01*
X95824Y73897D01*
X95785Y73984D01*
X95756Y74082D01*
X95717Y74199D01*
X95688Y74326D01*
X95668Y74453D01*
X95649Y74599D01*
X95629Y74755D01*
Y74921D01*
Y74931D01*
Y74960D01*
Y74999D01*
X95639Y75067D01*
Y75135D01*
X95649Y75213D01*
X95678Y75409D01*
X95727Y75613D01*
X95795Y75838D01*
X95893Y76042D01*
X96029Y76228D01*
Y76238D01*
X96049Y76247D01*
X96097Y76296D01*
X96185Y76374D01*
X96292Y76452D01*
X96439Y76530D01*
X96605Y76608D01*
X96790Y76657D01*
X96888Y76677D01*
X97053D01*
X97092Y76667D01*
D02*
G37*
G36*
X300509Y76706D02*
X300597Y76686D01*
X300723Y76657D01*
X300860Y76599D01*
X301006Y76511D01*
X301084Y76462D01*
X301162Y76394D01*
X301240Y76325D01*
X301309Y76238D01*
Y76228D01*
X301328Y76218D01*
X301348Y76189D01*
X301367Y76150D01*
X301397Y76101D01*
X301426Y76042D01*
X301465Y75974D01*
X301494Y75896D01*
X301533Y75799D01*
X301572Y75701D01*
X301601Y75584D01*
X301630Y75467D01*
X301650Y75331D01*
X301670Y75184D01*
X301689Y75038D01*
Y74872D01*
Y74862D01*
Y74833D01*
Y74784D01*
X301679Y74726D01*
Y74648D01*
X301670Y74570D01*
X301640Y74375D01*
X301601Y74150D01*
X301543Y73936D01*
X301455Y73731D01*
X301397Y73633D01*
X301338Y73546D01*
X301318Y73526D01*
X301270Y73477D01*
X301192Y73409D01*
X301094Y73331D01*
X300967Y73253D01*
X300811Y73185D01*
X300645Y73136D01*
X300558Y73126D01*
X300460Y73116D01*
X300411D01*
X300372Y73126D01*
X300275Y73136D01*
X300158Y73175D01*
X300011Y73224D01*
X299865Y73302D01*
X299719Y73409D01*
X299641Y73477D01*
X299573Y73555D01*
Y73565D01*
X299553Y73575D01*
X299534Y73604D01*
X299514Y73643D01*
X299485Y73692D01*
X299456Y73750D01*
X299417Y73819D01*
X299377Y73897D01*
X299348Y73984D01*
X299309Y74092D01*
X299280Y74199D01*
X299251Y74326D01*
X299231Y74462D01*
X299212Y74609D01*
X299192Y74765D01*
Y74931D01*
Y74940D01*
Y74970D01*
Y75018D01*
X299202Y75077D01*
Y75155D01*
X299212Y75243D01*
X299241Y75438D01*
X299280Y75652D01*
X299348Y75877D01*
X299436Y76082D01*
X299494Y76179D01*
X299563Y76267D01*
Y76277D01*
X299582Y76286D01*
X299631Y76335D01*
X299699Y76413D01*
X299807Y76491D01*
X299933Y76569D01*
X300080Y76647D01*
X300245Y76696D01*
X300333Y76715D01*
X300470D01*
X300509Y76706D01*
D02*
G37*
D50*
X487500Y57725D02*
D03*
Y232275D02*
D03*
D51*
Y63180D02*
D03*
D52*
X572045Y68635D02*
D03*
Y172275D02*
D03*
X484775D02*
D03*
X572045Y199545D02*
D03*
D53*
X525680Y68635D02*
D03*
X476590D02*
D03*
X427500D02*
D03*
X449320Y172275D02*
D03*
X558410Y199545D02*
D03*
X536590D02*
D03*
X449320D02*
D03*
X416590D02*
D03*
D54*
X514775Y68635D02*
D03*
Y172275D02*
D03*
D55*
X503865Y68635D02*
D03*
X492955D02*
D03*
X503865Y172275D02*
D03*
X471135D02*
D03*
Y199545D02*
D03*
D56*
X465680Y68635D02*
D03*
X487500Y199545D02*
D03*
X438410D02*
D03*
D57*
X452045Y68635D02*
D03*
X555685Y172275D02*
D03*
X402955D02*
D03*
X522955Y199545D02*
D03*
X402955D02*
D03*
D58*
X408410Y68635D02*
D03*
D59*
X572045Y74090D02*
D03*
Y85000D02*
D03*
X468405D02*
D03*
X512045Y134090D02*
D03*
X572045Y166820D02*
D03*
Y194090D02*
D03*
Y205000D02*
D03*
Y215910D02*
D03*
D60*
X547500Y74090D02*
D03*
X487500Y134090D02*
D03*
X547500Y194090D02*
D03*
X427500D02*
D03*
X547500Y215910D02*
D03*
X427500D02*
D03*
D61*
X525680Y74090D02*
D03*
X558410Y85000D02*
D03*
X536590D02*
D03*
X525680D02*
D03*
Y134090D02*
D03*
X547500Y155910D02*
D03*
X536590D02*
D03*
X525680Y194090D02*
D03*
X509320D02*
D03*
X449320D02*
D03*
X558410Y205000D02*
D03*
X536590D02*
D03*
X525680D02*
D03*
X476590D02*
D03*
X416590D02*
D03*
X525680Y215910D02*
D03*
D62*
X514775Y74090D02*
D03*
Y215910D02*
D03*
D63*
X503865Y74090D02*
D03*
X443865D02*
D03*
X432955D02*
D03*
X422045D02*
D03*
X482045Y85000D02*
D03*
X460225Y106820D02*
D03*
X454775Y134090D02*
D03*
X443865D02*
D03*
X432955D02*
D03*
X503865Y155910D02*
D03*
X492955D02*
D03*
X552955Y166820D02*
D03*
X460225D02*
D03*
Y183180D02*
D03*
X492955Y194090D02*
D03*
X503865Y205000D02*
D03*
X492955D02*
D03*
X471135Y215910D02*
D03*
D64*
X487500Y74090D02*
D03*
X465680Y134090D02*
D03*
Y155910D02*
D03*
Y205000D02*
D03*
X438410D02*
D03*
D65*
X465680Y74090D02*
D03*
X405680D02*
D03*
X509320Y85000D02*
D03*
X465680Y194090D02*
D03*
D66*
X572045Y79545D02*
D03*
Y90455D02*
D03*
Y101365D02*
D03*
X490225D02*
D03*
X572045Y112275D02*
D03*
Y117725D02*
D03*
Y128635D02*
D03*
Y139545D02*
D03*
X468405Y150455D02*
D03*
X572045Y177725D02*
D03*
Y188635D02*
D03*
Y210455D02*
D03*
X490225D02*
D03*
X572045Y221365D02*
D03*
D67*
X558410Y79545D02*
D03*
X536590D02*
D03*
X525680D02*
D03*
X558410Y90455D02*
D03*
X536590D02*
D03*
X525680D02*
D03*
X427500D02*
D03*
X525680Y101365D02*
D03*
X509320D02*
D03*
X449320D02*
D03*
X525680Y112275D02*
D03*
X427500D02*
D03*
X558410Y117725D02*
D03*
X427500Y128635D02*
D03*
X416590D02*
D03*
X509320Y139545D02*
D03*
X536590Y177725D02*
D03*
X509320D02*
D03*
X476590D02*
D03*
X525680Y188635D02*
D03*
X449320D02*
D03*
X558410Y210455D02*
D03*
X536590D02*
D03*
X449320D02*
D03*
X416590D02*
D03*
X449320Y221365D02*
D03*
D68*
X503865Y79545D02*
D03*
X422045Y150455D02*
D03*
D69*
X405680Y79545D02*
D03*
X509320Y112275D02*
D03*
X465680Y117725D02*
D03*
X405680D02*
D03*
Y139545D02*
D03*
X569320Y161365D02*
D03*
X509320D02*
D03*
X405680D02*
D03*
X460230Y177725D02*
D03*
X405680D02*
D03*
X520230Y221365D02*
D03*
D70*
X441140Y85000D02*
D03*
X495680Y106820D02*
D03*
X408410Y134090D02*
D03*
X566590Y155910D02*
D03*
X408410D02*
D03*
D71*
X402955Y85000D02*
D03*
Y106820D02*
D03*
X501135Y166820D02*
D03*
X473865D02*
D03*
X495685Y183180D02*
D03*
X473865D02*
D03*
X402955Y194090D02*
D03*
X452045Y205000D02*
D03*
X402955D02*
D03*
Y215910D02*
D03*
D72*
X514775Y90455D02*
D03*
X542045Y112275D02*
D03*
Y117725D02*
D03*
Y128635D02*
D03*
X514775Y188635D02*
D03*
D73*
X492955Y90455D02*
D03*
Y177725D02*
D03*
D74*
X468410Y90455D02*
D03*
X408410D02*
D03*
Y101365D02*
D03*
X430230Y117725D02*
D03*
X566590Y150455D02*
D03*
X441140Y161365D02*
D03*
X468410Y210455D02*
D03*
D75*
X572045Y95910D02*
D03*
Y123180D02*
D03*
X490225Y145000D02*
D03*
X441135D02*
D03*
D76*
X547500Y95910D02*
D03*
D77*
X520230D02*
D03*
D78*
X495685D02*
D03*
X424775D02*
D03*
X402955D02*
D03*
D79*
X473860D02*
D03*
X506590Y123180D02*
D03*
X408410D02*
D03*
Y145000D02*
D03*
D80*
X443865Y95910D02*
D03*
D81*
X465680Y101365D02*
D03*
X438410D02*
D03*
X487500Y117725D02*
D03*
X438410Y210455D02*
D03*
D82*
X550225Y106820D02*
D03*
X424775Y183180D02*
D03*
D83*
X443865Y106820D02*
D03*
Y166820D02*
D03*
D84*
X555685Y112275D02*
D03*
X479315D02*
D03*
X402955D02*
D03*
X506595Y117725D02*
D03*
X555685Y128635D02*
D03*
X402955D02*
D03*
X550225Y139545D02*
D03*
X495685D02*
D03*
X424775D02*
D03*
X402955Y150455D02*
D03*
X550225Y161365D02*
D03*
X528405D02*
D03*
X402955Y188635D02*
D03*
Y210455D02*
D03*
Y221365D02*
D03*
D85*
X492955Y112275D02*
D03*
X531135Y117725D02*
D03*
X520225D02*
D03*
X531135Y128635D02*
D03*
X503865D02*
D03*
X482045D02*
D03*
X454775D02*
D03*
X531135Y139545D02*
D03*
X482045D02*
D03*
X471135D02*
D03*
X422045Y161365D02*
D03*
X443865Y177725D02*
D03*
X432955D02*
D03*
X422045D02*
D03*
X503865Y188635D02*
D03*
X492955D02*
D03*
X482045D02*
D03*
X471135D02*
D03*
X460225D02*
D03*
X503865Y221365D02*
D03*
X492955D02*
D03*
X471135D02*
D03*
D86*
X558410Y123180D02*
D03*
X525680D02*
D03*
X476590D02*
D03*
X449320D02*
D03*
X427500D02*
D03*
X536590Y145000D02*
D03*
X509320D02*
D03*
D87*
X460225Y123180D02*
D03*
Y145000D02*
D03*
D88*
X558410Y134090D02*
D03*
D89*
X561135Y145000D02*
D03*
D90*
X512045Y150455D02*
D03*
D91*
X443865Y155910D02*
D03*
D92*
X473865Y161365D02*
D03*
D93*
X517500Y166820D02*
D03*
D94*
X413865D02*
D03*
D95*
X531135Y172275D02*
D03*
X422045D02*
D03*
X503865Y199545D02*
D03*
D96*
X547500Y183180D02*
D03*
D97*
X514775Y210455D02*
D03*
D98*
X498410Y215910D02*
D03*
X454770D02*
D03*
D99*
X487500Y226820D02*
D03*
M02*
