G04*
G04 #@! TF.GenerationSoftware,Altium Limited,Altium Designer,19.1.5 (86)*
G04*
G04 Layer_Color=8388736*
%FSLAX44Y44*%
%MOMM*%
G71*
G01*
G75*
%ADD21R,0.6000X2.0000*%
%ADD27R,2.0000X1.2000*%
%ADD29R,0.9400X0.9900*%
%ADD30R,0.9900X0.9400*%
%ADD31R,0.9032X1.0532*%
%ADD32R,2.3832X1.8032*%
%ADD33R,2.4384X1.4224*%
%ADD34R,2.4032X3.8032*%
%ADD35R,1.4032X1.2032*%
%ADD36R,0.8032X1.2032*%
%ADD37O,1.2032X1.0032*%
%ADD38R,1.0532X0.9032*%
%ADD39P,2.8330X4X90.0*%
%ADD40C,2.0032*%
%ADD41C,2.1400*%
%ADD42R,2.1400X2.1400*%
%ADD43C,1.7032*%
%ADD44R,1.7032X1.7032*%
%ADD45O,3.2000X1.3000*%
%ADD46C,1.1000*%
%ADD47C,0.8032*%
D21*
X375920Y247960D02*
D03*
X388620D02*
D03*
X401320D02*
D03*
X414020D02*
D03*
X426720D02*
D03*
X439420D02*
D03*
X452120D02*
D03*
X464820D02*
D03*
X477520D02*
D03*
X490220D02*
D03*
X502920D02*
D03*
X515620D02*
D03*
X528320D02*
D03*
X541020D02*
D03*
Y153960D02*
D03*
X528320D02*
D03*
X515620D02*
D03*
X502920D02*
D03*
X490220D02*
D03*
X477520D02*
D03*
X464820D02*
D03*
X452120D02*
D03*
X439420D02*
D03*
X426720D02*
D03*
X414020D02*
D03*
X401320D02*
D03*
X388620D02*
D03*
X375920D02*
D03*
D27*
X53870Y239770D02*
D03*
Y214770D02*
D03*
Y194770D02*
D03*
Y169770D02*
D03*
D29*
X43560Y120950D02*
D03*
X27560D02*
D03*
X506350Y118410D02*
D03*
X522350D02*
D03*
X551560D02*
D03*
X535560D02*
D03*
D30*
X146050Y51100D02*
D03*
Y67100D02*
D03*
X474980Y93010D02*
D03*
Y77010D02*
D03*
X104140Y169590D02*
D03*
Y153590D02*
D03*
X375920Y282620D02*
D03*
Y266620D02*
D03*
D31*
X518800Y70150D02*
D03*
X535300D02*
D03*
X357500Y153970D02*
D03*
X341000D02*
D03*
X107310Y194610D02*
D03*
X90810D02*
D03*
X107310Y214770D02*
D03*
X90810D02*
D03*
D32*
X395960Y43480D02*
D03*
X487960D02*
D03*
D33*
X110998Y55926D02*
D03*
Y79040D02*
D03*
Y102154D02*
D03*
D34*
X49020Y79040D02*
D03*
D35*
X475370Y118560D02*
D03*
X492370D02*
D03*
Y105560D02*
D03*
X475370D02*
D03*
D36*
X114910Y287100D02*
D03*
X105410D02*
D03*
X95910D02*
D03*
Y259600D02*
D03*
X105410D02*
D03*
X114910D02*
D03*
D37*
X159390Y115890D02*
D03*
X179390D02*
D03*
X199390D02*
D03*
X219320D02*
D03*
X239390D02*
D03*
X259390D02*
D03*
X279390D02*
D03*
X299390D02*
D03*
Y275890D02*
D03*
X279390D02*
D03*
X259390D02*
D03*
X239390D02*
D03*
X219390D02*
D03*
X199390D02*
D03*
X179390D02*
D03*
X159390D02*
D03*
D38*
X85090Y146350D02*
D03*
Y129850D02*
D03*
D39*
X34645Y302645D02*
D03*
D40*
X52322Y320322D02*
D03*
X70000Y338000D02*
D03*
X88385Y356385D02*
D03*
D41*
X215030Y40940D02*
D03*
D42*
X240030D02*
D03*
D43*
X323850D02*
D03*
X298750D02*
D03*
Y66340D02*
D03*
X323850D02*
D03*
X349250D02*
D03*
D44*
Y40940D02*
D03*
D45*
X27870Y263270D02*
D03*
Y146270D02*
D03*
D46*
Y227270D02*
D03*
Y182270D02*
D03*
D47*
X70000Y222000D02*
D03*
X74000Y158000D02*
D03*
X554000Y86000D02*
D03*
X528000Y36000D02*
D03*
X450000Y80000D02*
D03*
X408000Y78000D02*
D03*
X26670Y82850D02*
D03*
X356870Y300020D02*
D03*
X485140Y274620D02*
D03*
X433070Y272080D02*
D03*
X346710Y263190D02*
D03*
X361950Y282240D02*
D03*
X391160Y272080D02*
D03*
X407670Y269540D02*
D03*
X458470Y170480D02*
D03*
X402590Y171750D02*
D03*
X382270Y186990D02*
D03*
X374650Y206040D02*
D03*
X440690Y212390D02*
D03*
X384810Y230170D02*
D03*
X424180Y226360D02*
D03*
X401320Y214930D02*
D03*
X459740Y228900D02*
D03*
X513080Y218740D02*
D03*
X529590Y198420D02*
D03*
X278130Y66340D02*
D03*
X168910Y57450D02*
D03*
X271780Y104440D02*
D03*
X234950Y101900D02*
D03*
X204470Y100630D02*
D03*
X224790Y232710D02*
D03*
X213360Y221280D02*
D03*
X200660Y209850D02*
D03*
X187960Y198420D02*
D03*
X175260Y186990D02*
D03*
X161290Y174290D02*
D03*
X303530Y298750D02*
D03*
X255270D02*
D03*
X224790Y297480D02*
D03*
X207010Y292400D02*
D03*
X149860Y320340D02*
D03*
X112000Y304000D02*
D03*
X71120Y287320D02*
D03*
X72390Y269540D02*
D03*
Y231440D02*
D03*
X73660Y204770D02*
D03*
X121920D02*
D03*
X123190Y184450D02*
D03*
X138430Y152700D02*
D03*
Y94280D02*
D03*
X102870Y132380D02*
D03*
X290830Y289860D02*
D03*
X264160Y287320D02*
D03*
X267970Y126030D02*
D03*
X465455Y276525D02*
D03*
X453390Y275890D02*
D03*
X458470Y343200D02*
D03*
X467360Y333040D02*
D03*
X500380Y317800D02*
D03*
X91440Y245410D02*
D03*
X105410Y230170D02*
D03*
X125730Y169210D02*
D03*
X340360Y128570D02*
D03*
X391160Y220010D02*
D03*
X466090Y183180D02*
D03*
X218440Y98090D02*
D03*
X350520Y193340D02*
D03*
X283210Y140000D02*
D03*
X284480Y228900D02*
D03*
X328930Y218740D02*
D03*
X414020Y184450D02*
D03*
X433070Y181910D02*
D03*
X427990Y110790D02*
D03*
X502920Y280970D02*
D03*
X129540Y195880D02*
D03*
M02*
