G04*
G04 #@! TF.GenerationSoftware,Altium Limited,Altium Designer,19.1.5 (86)*
G04*
G04 Layer_Color=16711935*
%FSLAX44Y44*%
%MOMM*%
G71*
G01*
G75*
%ADD14C,0.2540*%
%ADD16C,0.1000*%
%ADD103C,0.0500*%
D14*
X538480Y300D02*
X571500Y33320D01*
Y350820D01*
X539750Y382570D02*
X571500Y350820D01*
X27940Y382570D02*
X539750D01*
X0Y354630D02*
X27940Y382570D01*
X0Y33320D02*
Y354630D01*
Y33320D02*
X33020Y300D01*
X538480D01*
D16*
X183520Y145100D02*
G03*
X183520Y145100I-15000J0D01*
G01*
X43560Y116950D02*
Y124950D01*
X27560Y116950D02*
Y124950D01*
Y116950D02*
X43560D01*
X27560Y124950D02*
X43560D01*
X142050Y51100D02*
X150050D01*
X142050Y67100D02*
X150050D01*
X142050Y51100D02*
Y67100D01*
X150050Y51100D02*
Y67100D01*
X506350Y114410D02*
Y122410D01*
X522350Y114410D02*
Y122410D01*
X506350D02*
X522350D01*
X506350Y114410D02*
X522350D01*
X519050Y74150D02*
X535050D01*
X519050Y66150D02*
X535050D01*
X519050D02*
Y74150D01*
X535050Y66150D02*
Y74150D01*
X470980Y93010D02*
X478980D01*
X470980Y77010D02*
X478980D01*
Y93010D01*
X470980Y77010D02*
Y93010D01*
X100140Y169590D02*
X108140D01*
X100140Y153590D02*
X108140D01*
Y169590D01*
X100140Y153590D02*
Y169590D01*
X379920Y266620D02*
Y282620D01*
X371920Y266620D02*
Y282620D01*
X379920D01*
X371920Y266620D02*
X379920D01*
X535560Y114410D02*
X551560D01*
X535560Y122410D02*
X551560D01*
Y114410D02*
Y122410D01*
X535560Y114410D02*
Y122410D01*
X357250Y149970D02*
Y157970D01*
X341250Y149970D02*
Y157970D01*
Y149970D02*
X357250D01*
X341250Y157970D02*
X357250D01*
X90160Y282100D02*
X120660D01*
X90160Y264600D02*
X120660D01*
Y282100D01*
X90160Y264600D02*
Y282100D01*
X107060Y190610D02*
Y198610D01*
X91060Y190610D02*
Y198610D01*
Y190610D02*
X107060D01*
X91060Y198610D02*
X107060D01*
Y210770D02*
Y218770D01*
X91060Y210770D02*
Y218770D01*
Y210770D02*
X107060D01*
X91060Y218770D02*
X107060D01*
X81090Y146100D02*
X89090D01*
X81090Y130100D02*
X89090D01*
Y146100D01*
X81090Y130100D02*
Y146100D01*
D103*
X190573Y74849D02*
X264487D01*
X198193Y67229D02*
X256867D01*
X210004Y25065D02*
X245056D01*
X210004Y17445D02*
X245056D01*
X246465Y25065D02*
X264487D01*
X246465Y17445D02*
X264487D01*
X190573Y25065D02*
X208595D01*
X190573Y17445D02*
X208595D01*
X264487Y35225D02*
Y74849D01*
X256867Y35225D02*
Y67229D01*
X264487Y17445D02*
Y25065D01*
X241500Y17445D02*
Y25065D01*
X213560Y17445D02*
Y25065D01*
X198193Y35225D02*
Y67229D01*
X190573Y35225D02*
Y74849D01*
Y17445D02*
Y25065D01*
X256867Y35225D02*
X264487D01*
X256867Y25065D02*
X264487D01*
Y35225D01*
X256867Y25065D02*
Y35225D01*
X264487D01*
X241500Y25065D02*
X246465D01*
X241500Y17445D02*
X246465D01*
X208595Y25065D02*
X213560D01*
X208595Y17445D02*
X213560D01*
X190573Y35225D02*
X198193D01*
X190573Y25065D02*
Y35225D01*
X198193Y25065D02*
Y35225D01*
X190573D02*
X198193D01*
X190573Y25065D02*
X198193D01*
M02*
