G04*
G04 #@! TF.GenerationSoftware,Altium Limited,Altium Designer,19.1.5 (86)*
G04*
G04 Layer_Color=32896*
%FSLAX44Y44*%
%MOMM*%
G71*
G01*
G75*
%ADD61R,20.0000X0.6060*%
%ADD62R,20.0000X0.6060*%
%ADD63R,1.2120X0.6060*%
%ADD64R,0.6060X0.6060*%
%ADD65R,0.6060X0.6060*%
%ADD66R,1.2120X0.6060*%
%ADD67R,2.4240X0.6060*%
%ADD68R,3.0300X0.6060*%
%ADD69R,1.8180X0.6060*%
%ADD70R,0.6070X0.6060*%
%ADD71R,1.2120X0.6060*%
%ADD72R,0.6060X0.6060*%
%ADD73R,1.8180X0.6060*%
%ADD74R,2.4250X0.6060*%
%ADD75R,3.0300X0.6060*%
%ADD76R,2.4240X0.6060*%
%ADD77R,1.8190X0.6060*%
%ADD78R,1.2120X0.6060*%
%ADD79R,1.2120X0.6070*%
%ADD80R,0.6060X0.6070*%
%ADD81R,1.2120X0.6070*%
%ADD82R,0.6060X0.6070*%
%ADD83R,2.4240X0.6070*%
%ADD84R,6.0610X0.6060*%
%ADD85R,2.4240X0.6060*%
%ADD86R,0.6070X0.6060*%
%ADD87R,2.4240X0.6060*%
%ADD88R,0.6070X0.6060*%
%ADD89R,0.6060X0.6060*%
%ADD90R,4.2420X0.6060*%
%ADD91R,3.6360X0.6060*%
%ADD92R,1.2130X0.6060*%
%ADD93R,6.0610X0.6060*%
%ADD94R,3.0310X0.6060*%
%ADD95R,2.4250X0.6060*%
%ADD96R,1.8190X0.6060*%
%ADD97R,3.6360X0.6060*%
%ADD98R,1.8190X0.6060*%
%ADD99R,1.8180X0.6060*%
%ADD100R,0.6070X0.6060*%
%ADD101R,6.6670X0.6060*%
%ADD102R,1.2120X0.6070*%
%ADD103R,0.6060X0.6070*%
%ADD104R,0.6060X0.6070*%
%ADD105R,1.2120X0.6070*%
%ADD106R,3.0300X0.6060*%
G36*
X538000Y49140D02*
X461706D01*
Y326000D01*
X538000D01*
Y49140D01*
D02*
G37*
%LPC*%
G36*
X520126Y320920D02*
X466786D01*
Y320614D01*
X520126D01*
Y320920D01*
D02*
G37*
G36*
Y320000D02*
X466786D01*
Y319694D01*
X520126D01*
Y320000D01*
D02*
G37*
G36*
Y319387D02*
X466786D01*
Y318774D01*
X520126D01*
Y319387D01*
D02*
G37*
G36*
Y318468D02*
X466786D01*
Y317854D01*
X520126D01*
Y318468D01*
D02*
G37*
G36*
Y317548D02*
X466786D01*
Y317241D01*
X520126D01*
Y317548D01*
D02*
G37*
G36*
Y316935D02*
X466786D01*
Y316628D01*
X520126D01*
Y316935D01*
D02*
G37*
G36*
Y316015D02*
X466786D01*
Y315709D01*
X520126D01*
Y316015D01*
D02*
G37*
G36*
Y315402D02*
X466786D01*
Y315096D01*
X520126D01*
Y315402D01*
D02*
G37*
G36*
X532920Y320462D02*
X523158D01*
Y319258D01*
X526650D01*
X526635Y319243D01*
X526605Y319213D01*
X526560Y319169D01*
X526501Y319109D01*
X526427Y319020D01*
X526338Y318931D01*
X526263Y318812D01*
X526159Y318678D01*
X526070Y318530D01*
X525996Y318381D01*
X525832Y318010D01*
X525773Y317817D01*
X525728Y317609D01*
X525699Y317386D01*
X525684Y317148D01*
Y317014D01*
X525699Y316866D01*
X525728Y316687D01*
X525758Y316479D01*
X525817Y316257D01*
X525892Y316019D01*
X525996Y315796D01*
X526011Y315766D01*
X526055Y315707D01*
X526129Y315603D01*
X526219Y315469D01*
X526338Y315335D01*
X526486Y315201D01*
X526664Y315068D01*
X526857Y314964D01*
X526887Y314949D01*
X526962Y314919D01*
X527080Y314890D01*
X527259Y314830D01*
X527482Y314785D01*
X527764Y314756D01*
X528076Y314726D01*
X528447Y314711D01*
X532920D01*
Y315915D01*
X528284D01*
X528135Y315930D01*
X527927Y315959D01*
X527719Y316019D01*
X527511Y316078D01*
X527303Y316182D01*
X527125Y316316D01*
X527110Y316331D01*
X527066Y316390D01*
X526991Y316479D01*
X526917Y316598D01*
X526843Y316747D01*
X526768Y316940D01*
X526724Y317148D01*
X526709Y317401D01*
Y317490D01*
X526724Y317594D01*
X526739Y317728D01*
X526783Y317876D01*
X526828Y318054D01*
X526902Y318233D01*
X526991Y318411D01*
X527006Y318426D01*
X527036Y318485D01*
X527110Y318560D01*
X527184Y318664D01*
X527303Y318768D01*
X527422Y318887D01*
X527586Y318976D01*
X527749Y319065D01*
X527764Y319080D01*
X527838Y319095D01*
X527942Y319124D01*
X528091Y319154D01*
X528284Y319199D01*
X528507Y319228D01*
X528759Y319243D01*
X529057Y319258D01*
X532920D01*
Y320462D01*
D02*
G37*
G36*
X520126Y314482D02*
X466786D01*
Y314176D01*
X520126D01*
Y314482D01*
D02*
G37*
G36*
Y313563D02*
X466786D01*
Y313256D01*
X520126D01*
Y313563D01*
D02*
G37*
G36*
Y312950D02*
X466786D01*
Y312643D01*
X520126D01*
Y312950D01*
D02*
G37*
G36*
Y312337D02*
X466786D01*
Y312030D01*
X520126D01*
Y312337D01*
D02*
G37*
G36*
Y311723D02*
X466786D01*
Y311110D01*
X520126D01*
Y311723D01*
D02*
G37*
G36*
Y310804D02*
X466786D01*
Y310191D01*
X520126D01*
Y310804D01*
D02*
G37*
G36*
Y309578D02*
X466786D01*
Y309271D01*
X520126D01*
Y309578D01*
D02*
G37*
G36*
X526783Y312232D02*
X525847D01*
Y311341D01*
X524109D01*
X523381Y310137D01*
X525847D01*
Y308934D01*
X526783D01*
Y310137D01*
X531092D01*
X531196Y310122D01*
X531419Y310107D01*
X531508Y310093D01*
X531583Y310078D01*
X531612Y310063D01*
X531672Y310033D01*
X531746Y309974D01*
X531820Y309884D01*
X531835Y309855D01*
X531850Y309780D01*
X531880Y309647D01*
X531895Y309468D01*
Y309320D01*
X531880Y309245D01*
Y309156D01*
X531850Y308934D01*
X532905Y308770D01*
Y308800D01*
X532920Y308859D01*
X532935Y308948D01*
X532950Y309082D01*
X532979Y309216D01*
X532994Y309364D01*
X533009Y309676D01*
Y309780D01*
X532994Y309899D01*
X532979Y310048D01*
X532965Y310211D01*
X532920Y310390D01*
X532875Y310553D01*
X532816Y310702D01*
X532801Y310716D01*
X532771Y310761D01*
X532727Y310821D01*
X532667Y310895D01*
X532593Y310984D01*
X532504Y311058D01*
X532400Y311147D01*
X532281Y311207D01*
X532266D01*
X532207Y311222D01*
X532118Y311252D01*
X531969Y311266D01*
X531776Y311296D01*
X531672Y311311D01*
X531538Y311326D01*
X531390D01*
X531226Y311341D01*
X526783D01*
Y312232D01*
D02*
G37*
G36*
X520126Y308965D02*
X466786D01*
Y308658D01*
X520126D01*
Y308965D01*
D02*
G37*
G36*
Y308045D02*
X466786D01*
Y307738D01*
X520126D01*
Y308045D01*
D02*
G37*
G36*
Y307432D02*
X466786D01*
Y307125D01*
X520126D01*
Y307432D01*
D02*
G37*
G36*
Y306512D02*
X466786D01*
Y306206D01*
X520126D01*
Y306512D01*
D02*
G37*
G36*
Y305592D02*
X466786D01*
Y305286D01*
X520126D01*
Y305592D01*
D02*
G37*
G36*
Y304979D02*
X466786D01*
Y304673D01*
X520126D01*
Y304979D01*
D02*
G37*
G36*
Y304366D02*
X466786D01*
Y304060D01*
X520126D01*
Y304366D01*
D02*
G37*
G36*
Y303753D02*
X466786D01*
Y303140D01*
X520126D01*
Y303753D01*
D02*
G37*
G36*
Y302833D02*
X466786D01*
Y302220D01*
X520126D01*
Y302833D01*
D02*
G37*
G36*
X526783Y305214D02*
X525847D01*
Y304322D01*
X524109D01*
X523381Y303119D01*
X525847D01*
Y301915D01*
X526783D01*
Y303119D01*
X531092D01*
X531196Y303104D01*
X531419Y303089D01*
X531508Y303074D01*
X531583Y303059D01*
X531612Y303044D01*
X531672Y303015D01*
X531746Y302955D01*
X531820Y302866D01*
X531835Y302836D01*
X531850Y302762D01*
X531880Y302628D01*
X531895Y302450D01*
Y302301D01*
X531880Y302227D01*
Y302138D01*
X531850Y301915D01*
X532905Y301752D01*
Y301781D01*
X532920Y301841D01*
X532935Y301930D01*
X532950Y302064D01*
X532979Y302197D01*
X532994Y302346D01*
X533009Y302658D01*
Y302762D01*
X532994Y302881D01*
X532979Y303029D01*
X532965Y303193D01*
X532920Y303371D01*
X532875Y303535D01*
X532816Y303683D01*
X532801Y303698D01*
X532771Y303743D01*
X532727Y303802D01*
X532667Y303876D01*
X532593Y303966D01*
X532504Y304040D01*
X532400Y304129D01*
X532281Y304188D01*
X532266D01*
X532207Y304203D01*
X532118Y304233D01*
X531969Y304248D01*
X531776Y304278D01*
X531672Y304293D01*
X531538Y304307D01*
X531390D01*
X531226Y304322D01*
X526783D01*
Y305214D01*
D02*
G37*
G36*
X520126Y301607D02*
X466786D01*
Y301301D01*
X520126D01*
Y301607D01*
D02*
G37*
G36*
Y300994D02*
X466786D01*
Y300688D01*
X520126D01*
Y300994D01*
D02*
G37*
G36*
Y300074D02*
X466786D01*
Y299768D01*
X520126D01*
Y300074D01*
D02*
G37*
G36*
Y299461D02*
X466786D01*
Y299155D01*
X520126D01*
Y299461D01*
D02*
G37*
G36*
Y298542D02*
X466786D01*
Y298235D01*
X520126D01*
Y298542D01*
D02*
G37*
G36*
Y297622D02*
X466786D01*
Y297316D01*
X520126D01*
Y297622D01*
D02*
G37*
G36*
Y297009D02*
X466786D01*
Y296702D01*
X520126D01*
Y297009D01*
D02*
G37*
G36*
Y296396D02*
X466786D01*
Y295783D01*
X520126D01*
Y296396D01*
D02*
G37*
G36*
Y295476D02*
X466786D01*
Y294863D01*
X520126D01*
Y295476D01*
D02*
G37*
G36*
Y294557D02*
X466786D01*
Y294250D01*
X520126D01*
Y294557D01*
D02*
G37*
G36*
Y293637D02*
X466786D01*
Y293330D01*
X520126D01*
Y293637D01*
D02*
G37*
G36*
X535624Y299406D02*
X525847D01*
Y298307D01*
X526768D01*
X526739Y298292D01*
X526679Y298247D01*
X526590Y298158D01*
X526471Y298054D01*
X526338Y297935D01*
X526204Y297787D01*
X526070Y297623D01*
X525966Y297445D01*
X525951Y297415D01*
X525921Y297356D01*
X525877Y297252D01*
X525817Y297118D01*
X525773Y296940D01*
X525728Y296747D01*
X525699Y296524D01*
X525684Y296271D01*
Y296122D01*
X525713Y295944D01*
X525743Y295736D01*
X525802Y295484D01*
X525877Y295216D01*
X525996Y294949D01*
X526159Y294681D01*
Y294666D01*
X526174Y294652D01*
X526248Y294562D01*
X526352Y294443D01*
X526501Y294280D01*
X526679Y294117D01*
X526917Y293938D01*
X527170Y293775D01*
X527482Y293626D01*
X527496D01*
X527526Y293611D01*
X527571Y293596D01*
X527630Y293567D01*
X527705Y293537D01*
X527808Y293507D01*
X528031Y293448D01*
X528314Y293389D01*
X528626Y293329D01*
X528968Y293284D01*
X529339Y293270D01*
X529517D01*
X529621Y293284D01*
X529725D01*
X529993Y293314D01*
X530290Y293374D01*
X530617Y293433D01*
X530959Y293537D01*
X531300Y293671D01*
X531315D01*
X531345Y293686D01*
X531390Y293715D01*
X531449Y293745D01*
X531598Y293834D01*
X531791Y293953D01*
X531999Y294117D01*
X532222Y294310D01*
X532430Y294533D01*
X532623Y294800D01*
Y294815D01*
X532638Y294830D01*
X532667Y294874D01*
X532697Y294934D01*
X532771Y295082D01*
X532846Y295276D01*
X532935Y295513D01*
X533009Y295766D01*
X533069Y296063D01*
X533083Y296360D01*
Y296464D01*
X533069Y296568D01*
X533054Y296717D01*
X533024Y296880D01*
X532979Y297059D01*
X532920Y297252D01*
X532846Y297430D01*
X532831Y297445D01*
X532801Y297504D01*
X532742Y297594D01*
X532667Y297698D01*
X532578Y297831D01*
X532474Y297950D01*
X532341Y298084D01*
X532207Y298203D01*
X535624D01*
Y299406D01*
D02*
G37*
G36*
X520126Y293024D02*
X466786D01*
Y292717D01*
X520126D01*
Y293024D01*
D02*
G37*
G36*
Y292104D02*
X466786D01*
Y291798D01*
X520126D01*
Y292104D01*
D02*
G37*
G36*
Y291491D02*
X466786D01*
Y291184D01*
X520126D01*
Y291491D01*
D02*
G37*
G36*
Y290571D02*
X466786D01*
Y290265D01*
X520126D01*
Y290571D01*
D02*
G37*
G36*
Y289652D02*
X466786D01*
Y289345D01*
X520126D01*
Y289652D01*
D02*
G37*
G36*
Y289039D02*
X466786D01*
Y288732D01*
X520126D01*
Y289039D01*
D02*
G37*
G36*
X530810Y292485D02*
X530617Y291296D01*
X530647D01*
X530736Y291281D01*
X530869Y291236D01*
X531033Y291192D01*
X531211Y291117D01*
X531390Y291028D01*
X531568Y290895D01*
X531731Y290746D01*
X531746Y290731D01*
X531791Y290657D01*
X531850Y290553D01*
X531910Y290419D01*
X531984Y290226D01*
X532043Y290018D01*
X532088Y289750D01*
X532103Y289468D01*
Y289334D01*
X532088Y289186D01*
X532058Y289008D01*
X532029Y288799D01*
X531969Y288591D01*
X531880Y288398D01*
X531776Y288235D01*
X531761Y288220D01*
X531716Y288175D01*
X531642Y288101D01*
X531553Y288027D01*
X531434Y287967D01*
X531286Y287893D01*
X531137Y287848D01*
X530974Y287834D01*
X530899D01*
X530840Y287848D01*
X530736Y287878D01*
X530647Y287923D01*
X530528Y287982D01*
X530424Y288071D01*
X530335Y288190D01*
X530320Y288205D01*
X530305Y288250D01*
X530275Y288324D01*
X530216Y288443D01*
X530171Y288606D01*
X530097Y288814D01*
X530052Y288948D01*
X530023Y289082D01*
X529978Y289245D01*
X529933Y289424D01*
Y289438D01*
X529919Y289483D01*
X529904Y289543D01*
X529874Y289632D01*
X529844Y289750D01*
X529814Y289869D01*
X529725Y290152D01*
X529636Y290449D01*
X529547Y290761D01*
X529443Y291043D01*
X529398Y291162D01*
X529354Y291266D01*
X529339Y291281D01*
X529309Y291355D01*
X529250Y291444D01*
X529175Y291548D01*
X529086Y291682D01*
X528968Y291801D01*
X528834Y291935D01*
X528685Y292039D01*
X528670Y292054D01*
X528611Y292083D01*
X528522Y292113D01*
X528403Y292158D01*
X528269Y292217D01*
X528106Y292247D01*
X527927Y292276D01*
X527734Y292291D01*
X527660D01*
X527556Y292276D01*
X527452Y292262D01*
X527318Y292247D01*
X527170Y292202D01*
X527006Y292158D01*
X526857Y292083D01*
X526843Y292069D01*
X526783Y292039D01*
X526709Y291994D01*
X526620Y291920D01*
X526516Y291846D01*
X526412Y291742D01*
X526293Y291623D01*
X526189Y291489D01*
X526174Y291474D01*
X526159Y291430D01*
X526115Y291370D01*
X526070Y291281D01*
X526011Y291177D01*
X525951Y291043D01*
X525892Y290895D01*
X525832Y290731D01*
Y290702D01*
X525802Y290642D01*
X525788Y290553D01*
X525758Y290419D01*
X525728Y290256D01*
X525713Y290092D01*
X525684Y289899D01*
Y289557D01*
X525699Y289394D01*
X525713Y289201D01*
X525743Y288963D01*
X525788Y288725D01*
X525847Y288473D01*
X525936Y288235D01*
Y288220D01*
X525951Y288205D01*
X525981Y288131D01*
X526040Y288012D01*
X526100Y287878D01*
X526204Y287730D01*
X526308Y287566D01*
X526441Y287418D01*
X526590Y287299D01*
X526605Y287284D01*
X526664Y287254D01*
X526754Y287195D01*
X526872Y287120D01*
X527021Y287061D01*
X527214Y286987D01*
X527422Y286927D01*
X527660Y286868D01*
X527823Y288042D01*
X527794D01*
X527734Y288057D01*
X527630Y288086D01*
X527511Y288131D01*
X527378Y288190D01*
X527244Y288279D01*
X527095Y288384D01*
X526976Y288517D01*
X526962Y288532D01*
X526932Y288591D01*
X526872Y288681D01*
X526813Y288799D01*
X526768Y288948D01*
X526709Y289141D01*
X526679Y289349D01*
X526664Y289602D01*
Y289736D01*
X526679Y289884D01*
X526694Y290063D01*
X526739Y290256D01*
X526783Y290449D01*
X526857Y290642D01*
X526947Y290791D01*
X526962Y290805D01*
X526991Y290850D01*
X527051Y290895D01*
X527125Y290954D01*
X527214Y291028D01*
X527333Y291073D01*
X527452Y291117D01*
X527586Y291132D01*
X527630D01*
X527675Y291117D01*
X527734D01*
X527868Y291073D01*
X528017Y290999D01*
X528031Y290984D01*
X528046Y290969D01*
X528120Y290880D01*
X528180Y290820D01*
X528224Y290746D01*
X528284Y290642D01*
X528329Y290538D01*
Y290523D01*
X528343Y290494D01*
X528358Y290434D01*
X528388Y290330D01*
X528433Y290196D01*
X528492Y290003D01*
X528551Y289765D01*
X528596Y289632D01*
X528641Y289468D01*
Y289453D01*
X528656Y289409D01*
X528670Y289349D01*
X528700Y289260D01*
X528730Y289156D01*
X528759Y289037D01*
X528834Y288770D01*
X528923Y288473D01*
X529027Y288175D01*
X529116Y287908D01*
X529161Y287789D01*
X529205Y287685D01*
X529220Y287655D01*
X529250Y287596D01*
X529294Y287507D01*
X529354Y287403D01*
X529443Y287269D01*
X529562Y287135D01*
X529681Y287016D01*
X529829Y286898D01*
X529844Y286883D01*
X529904Y286853D01*
X529993Y286808D01*
X530112Y286749D01*
X530260Y286689D01*
X530438Y286645D01*
X530632Y286615D01*
X530855Y286600D01*
X530959D01*
X531077Y286615D01*
X531211Y286645D01*
X531390Y286689D01*
X531583Y286749D01*
X531776Y286838D01*
X531984Y286957D01*
X532014Y286972D01*
X532073Y287016D01*
X532162Y287106D01*
X532281Y287225D01*
X532415Y287358D01*
X532548Y287537D01*
X532682Y287745D01*
X532801Y287982D01*
X532816Y288012D01*
X532846Y288101D01*
X532890Y288235D01*
X532935Y288413D01*
X532994Y288636D01*
X533039Y288889D01*
X533069Y289171D01*
X533083Y289468D01*
Y289602D01*
X533069Y289691D01*
Y289810D01*
X533054Y289944D01*
X533009Y290256D01*
X532950Y290597D01*
X532846Y290939D01*
X532712Y291281D01*
X532623Y291430D01*
X532519Y291578D01*
Y291593D01*
X532489Y291608D01*
X532415Y291697D01*
X532281Y291816D01*
X532088Y291964D01*
X531850Y292113D01*
X531553Y292262D01*
X531211Y292395D01*
X530810Y292485D01*
D02*
G37*
G36*
X520126Y288425D02*
X466786D01*
Y287812D01*
X520126D01*
Y288425D01*
D02*
G37*
G36*
Y287506D02*
X466786D01*
Y287199D01*
X520126D01*
Y287506D01*
D02*
G37*
G36*
Y286893D02*
X466786D01*
Y286280D01*
X520126D01*
Y286893D01*
D02*
G37*
G36*
Y285667D02*
X466786D01*
Y285360D01*
X520126D01*
Y285667D01*
D02*
G37*
G36*
Y285053D02*
X466786D01*
Y284747D01*
X520126D01*
Y285053D01*
D02*
G37*
G36*
Y284134D02*
X466786D01*
Y283827D01*
X520126D01*
Y284134D01*
D02*
G37*
G36*
Y283214D02*
X466786D01*
Y282908D01*
X520126D01*
Y283214D01*
D02*
G37*
G36*
Y282601D02*
X466786D01*
Y282294D01*
X520126D01*
Y282601D01*
D02*
G37*
G36*
X532920Y283133D02*
X531553D01*
Y281766D01*
X532920D01*
Y283133D01*
D02*
G37*
G36*
X527214D02*
X525847D01*
Y281766D01*
X527214D01*
Y283133D01*
D02*
G37*
G36*
X520126Y281681D02*
X466786D01*
Y281375D01*
X520126D01*
Y281681D01*
D02*
G37*
G36*
Y281068D02*
X466786D01*
Y280762D01*
X520126D01*
Y281068D01*
D02*
G37*
G36*
Y280149D02*
X466786D01*
Y279535D01*
X520126D01*
Y280149D01*
D02*
G37*
G36*
Y279229D02*
X466786D01*
Y278616D01*
X520126D01*
Y279229D01*
D02*
G37*
G36*
Y278309D02*
X466786D01*
Y278003D01*
X520126D01*
Y278309D01*
D02*
G37*
G36*
Y277696D02*
X466786D01*
Y277390D01*
X520126D01*
Y277696D01*
D02*
G37*
G36*
Y277083D02*
X466786D01*
Y276776D01*
X520126D01*
Y277083D01*
D02*
G37*
G36*
Y276163D02*
X466786D01*
Y275857D01*
X520126D01*
Y276163D01*
D02*
G37*
G36*
Y275244D02*
X466786D01*
Y274937D01*
X520126D01*
Y275244D01*
D02*
G37*
G36*
Y274631D02*
X466786D01*
Y274324D01*
X520126D01*
Y274631D01*
D02*
G37*
G36*
X533083Y277348D02*
X522994Y274525D01*
Y273574D01*
X533083Y276397D01*
Y277348D01*
D02*
G37*
G36*
X520126Y273711D02*
X466786D01*
Y273404D01*
X520126D01*
Y273711D01*
D02*
G37*
G36*
Y273098D02*
X466786D01*
Y272485D01*
X520126D01*
Y273098D01*
D02*
G37*
G36*
Y272178D02*
X466786D01*
Y271872D01*
X520126D01*
Y272178D01*
D02*
G37*
G36*
Y271565D02*
X466786D01*
Y270952D01*
X520126D01*
Y271565D01*
D02*
G37*
G36*
Y270645D02*
X466786D01*
Y270339D01*
X520126D01*
Y270645D01*
D02*
G37*
G36*
Y269726D02*
X466786D01*
Y269419D01*
X520126D01*
Y269726D01*
D02*
G37*
G36*
Y269113D02*
X466786D01*
Y268806D01*
X520126D01*
Y269113D01*
D02*
G37*
G36*
Y268193D02*
X466786D01*
Y267886D01*
X520126D01*
Y268193D01*
D02*
G37*
G36*
Y267273D02*
X466786D01*
Y266967D01*
X520126D01*
Y267273D01*
D02*
G37*
G36*
X533083Y270330D02*
X522994Y267507D01*
Y266556D01*
X533083Y269379D01*
Y270330D01*
D02*
G37*
G36*
X520126Y266660D02*
X466786D01*
Y266354D01*
X520126D01*
Y266660D01*
D02*
G37*
G36*
Y265741D02*
X466786D01*
Y265434D01*
X520126D01*
Y265741D01*
D02*
G37*
G36*
Y265127D02*
X466786D01*
Y264514D01*
X520126D01*
Y265127D01*
D02*
G37*
G36*
Y264208D02*
X466786D01*
Y263901D01*
X520126D01*
Y264208D01*
D02*
G37*
G36*
Y263595D02*
X466786D01*
Y262982D01*
X520126D01*
Y263595D01*
D02*
G37*
G36*
Y262675D02*
X466786D01*
Y262369D01*
X520126D01*
Y262675D01*
D02*
G37*
G36*
Y261755D02*
X466786D01*
Y261449D01*
X520126D01*
Y261755D01*
D02*
G37*
G36*
Y261142D02*
X466786D01*
Y260836D01*
X520126D01*
Y261142D01*
D02*
G37*
G36*
Y260223D02*
X466786D01*
Y259916D01*
X520126D01*
Y260223D01*
D02*
G37*
G36*
Y259610D02*
X466786D01*
Y259303D01*
X520126D01*
Y259610D01*
D02*
G37*
G36*
X529354Y264775D02*
X529175D01*
X529086Y264760D01*
X528982D01*
X528745Y264730D01*
X528447Y264686D01*
X528135Y264626D01*
X527808Y264537D01*
X527482Y264418D01*
X527467D01*
X527437Y264403D01*
X527392Y264374D01*
X527333Y264344D01*
X527184Y264270D01*
X526991Y264151D01*
X526783Y263988D01*
X526560Y263809D01*
X526352Y263601D01*
X526159Y263349D01*
Y263334D01*
X526144Y263319D01*
X526115Y263274D01*
X526085Y263230D01*
X526011Y263081D01*
X525921Y262888D01*
X525832Y262635D01*
X525758Y262368D01*
X525699Y262056D01*
X525684Y261714D01*
Y261595D01*
X525699Y261506D01*
X525713Y261402D01*
X525743Y261268D01*
X525817Y260986D01*
X525862Y260823D01*
X525936Y260659D01*
X526011Y260481D01*
X526115Y260303D01*
X526233Y260139D01*
X526367Y259961D01*
X526531Y259797D01*
X526709Y259649D01*
X525847D01*
Y258549D01*
X532237D01*
X532370Y258564D01*
X532519D01*
X532697Y258579D01*
X532875Y258594D01*
X533247Y258638D01*
X533633Y258698D01*
X533990Y258772D01*
X534153Y258831D01*
X534287Y258891D01*
X534302D01*
X534317Y258906D01*
X534406Y258950D01*
X534525Y259039D01*
X534688Y259143D01*
X534866Y259292D01*
X535045Y259470D01*
X535223Y259693D01*
X535387Y259946D01*
Y259961D01*
X535401Y259976D01*
X535416Y260020D01*
X535446Y260080D01*
X535520Y260228D01*
X535580Y260436D01*
X535654Y260704D01*
X535728Y261016D01*
X535773Y261357D01*
X535788Y261744D01*
Y261863D01*
X535773Y261952D01*
Y262056D01*
X535758Y262190D01*
X535714Y262472D01*
X535639Y262799D01*
X535550Y263141D01*
X535401Y263482D01*
X535208Y263794D01*
Y263809D01*
X535179Y263824D01*
X535104Y263913D01*
X534971Y264032D01*
X534777Y264181D01*
X534540Y264314D01*
X534242Y264433D01*
X533901Y264508D01*
X533708Y264537D01*
X533499D01*
X533663Y263378D01*
X533693D01*
X533752Y263363D01*
X533841Y263334D01*
X533960Y263304D01*
X534094Y263244D01*
X534228Y263170D01*
X534347Y263081D01*
X534450Y262962D01*
X534465Y262947D01*
X534510Y262873D01*
X534554Y262784D01*
X534614Y262635D01*
X534688Y262472D01*
X534733Y262264D01*
X534777Y262011D01*
X534792Y261744D01*
Y261610D01*
X534777Y261462D01*
X534748Y261268D01*
X534703Y261060D01*
X534644Y260852D01*
X534569Y260644D01*
X534450Y260466D01*
X534436Y260451D01*
X534391Y260392D01*
X534317Y260317D01*
X534213Y260213D01*
X534079Y260109D01*
X533930Y260020D01*
X533737Y259931D01*
X533529Y259857D01*
X533514D01*
X533455Y259842D01*
X533351Y259827D01*
X533202Y259812D01*
X532994Y259782D01*
X532861D01*
X532727Y259767D01*
X531999D01*
X532014Y259782D01*
X532043Y259797D01*
X532088Y259842D01*
X532147Y259901D01*
X532207Y259990D01*
X532296Y260080D01*
X532459Y260303D01*
X532623Y260585D01*
X532771Y260926D01*
X532831Y261105D01*
X532875Y261298D01*
X532905Y261506D01*
X532920Y261714D01*
Y261848D01*
X532905Y261952D01*
X532890Y262071D01*
X532861Y262219D01*
X532831Y262368D01*
X532786Y262546D01*
X532742Y262724D01*
X532667Y262903D01*
X532578Y263096D01*
X532474Y263274D01*
X532355Y263467D01*
X532222Y263646D01*
X532058Y263809D01*
X531880Y263973D01*
X531865Y263988D01*
X531835Y264002D01*
X531776Y264047D01*
X531687Y264091D01*
X531583Y264151D01*
X531464Y264225D01*
X531330Y264300D01*
X531167Y264374D01*
X530988Y264448D01*
X530795Y264522D01*
X530587Y264582D01*
X530364Y264656D01*
X529889Y264745D01*
X529621Y264760D01*
X529354Y264775D01*
D02*
G37*
G36*
X520126Y258690D02*
X466786D01*
Y258383D01*
X520126D01*
Y258690D01*
D02*
G37*
G36*
Y257770D02*
X466786D01*
Y257464D01*
X520126D01*
Y257770D01*
D02*
G37*
G36*
Y257157D02*
X466786D01*
Y256850D01*
X520126D01*
Y257157D01*
D02*
G37*
G36*
Y256544D02*
X466786D01*
Y256237D01*
X520126D01*
Y256544D01*
D02*
G37*
G36*
Y255931D02*
X466786D01*
Y255624D01*
X520126D01*
Y255931D01*
D02*
G37*
G36*
Y255011D02*
X466786D01*
Y254398D01*
X520126D01*
Y255011D01*
D02*
G37*
G36*
X532920Y255008D02*
X525847D01*
Y253804D01*
X532920D01*
Y255008D01*
D02*
G37*
G36*
X524525D02*
X523158D01*
Y253804D01*
X524525D01*
Y255008D01*
D02*
G37*
G36*
X520126Y254091D02*
X466786D01*
Y253478D01*
X520126D01*
Y254091D01*
D02*
G37*
G36*
Y253172D02*
X466786D01*
Y252865D01*
X520126D01*
Y253172D01*
D02*
G37*
G36*
Y252252D02*
X466786D01*
Y251946D01*
X520126D01*
Y252252D01*
D02*
G37*
G36*
Y251639D02*
X466786D01*
Y251333D01*
X520126D01*
Y251639D01*
D02*
G37*
G36*
Y250720D02*
X466786D01*
Y250413D01*
X520126D01*
Y250720D01*
D02*
G37*
G36*
Y249800D02*
X466786D01*
Y249493D01*
X520126D01*
Y249800D01*
D02*
G37*
G36*
Y249187D02*
X466786D01*
Y248880D01*
X520126D01*
Y249187D01*
D02*
G37*
G36*
Y248574D02*
X466786D01*
Y247960D01*
X520126D01*
Y248574D01*
D02*
G37*
G36*
Y247654D02*
X466786D01*
Y247347D01*
X520126D01*
Y247654D01*
D02*
G37*
G36*
Y246734D02*
X466786D01*
Y246121D01*
X520126D01*
Y246734D01*
D02*
G37*
G36*
X526783Y249067D02*
X525847D01*
Y248175D01*
X524109D01*
X523381Y246971D01*
X525847D01*
Y245768D01*
X526783D01*
Y246971D01*
X531092D01*
X531196Y246957D01*
X531419Y246942D01*
X531508Y246927D01*
X531583Y246912D01*
X531612Y246897D01*
X531672Y246867D01*
X531746Y246808D01*
X531820Y246719D01*
X531835Y246689D01*
X531850Y246615D01*
X531880Y246481D01*
X531895Y246303D01*
Y246154D01*
X531880Y246080D01*
Y245991D01*
X531850Y245768D01*
X532905Y245604D01*
Y245634D01*
X532920Y245694D01*
X532935Y245783D01*
X532950Y245916D01*
X532979Y246050D01*
X532994Y246199D01*
X533009Y246511D01*
Y246615D01*
X532994Y246734D01*
X532979Y246882D01*
X532965Y247046D01*
X532920Y247224D01*
X532875Y247388D01*
X532816Y247536D01*
X532801Y247551D01*
X532771Y247596D01*
X532727Y247655D01*
X532667Y247729D01*
X532593Y247818D01*
X532504Y247893D01*
X532400Y247982D01*
X532281Y248041D01*
X532266D01*
X532207Y248056D01*
X532118Y248086D01*
X531969Y248101D01*
X531776Y248130D01*
X531672Y248145D01*
X531538Y248160D01*
X531390D01*
X531226Y248175D01*
X526783D01*
Y249067D01*
D02*
G37*
G36*
X520126Y245815D02*
X466786D01*
Y245508D01*
X520126D01*
Y245815D01*
D02*
G37*
G36*
Y245201D02*
X466786D01*
Y244895D01*
X520126D01*
Y245201D01*
D02*
G37*
G36*
Y244282D02*
X466786D01*
Y243975D01*
X520126D01*
Y244282D01*
D02*
G37*
G36*
Y243669D02*
X466786D01*
Y243362D01*
X520126D01*
Y243669D01*
D02*
G37*
G36*
Y242749D02*
X466786D01*
Y242442D01*
X520126D01*
Y242749D01*
D02*
G37*
G36*
Y241829D02*
X466786D01*
Y241523D01*
X520126D01*
Y241829D01*
D02*
G37*
G36*
Y241216D02*
X466786D01*
Y240910D01*
X520126D01*
Y241216D01*
D02*
G37*
G36*
Y240603D02*
X466786D01*
Y240297D01*
X520126D01*
Y240603D01*
D02*
G37*
G36*
Y239990D02*
X466786D01*
Y239377D01*
X520126D01*
Y239990D01*
D02*
G37*
G36*
Y239070D02*
X466786D01*
Y238457D01*
X520126D01*
Y239070D01*
D02*
G37*
G36*
Y237844D02*
X466786D01*
Y237538D01*
X520126D01*
Y237844D01*
D02*
G37*
G36*
X532920Y243259D02*
X523158D01*
Y242056D01*
X526650D01*
X526635Y242041D01*
X526605Y242011D01*
X526560Y241966D01*
X526501Y241907D01*
X526427Y241818D01*
X526338Y241729D01*
X526263Y241610D01*
X526159Y241476D01*
X526070Y241327D01*
X525996Y241179D01*
X525832Y240807D01*
X525773Y240614D01*
X525728Y240406D01*
X525699Y240183D01*
X525684Y239946D01*
Y239812D01*
X525699Y239663D01*
X525728Y239485D01*
X525758Y239277D01*
X525817Y239054D01*
X525892Y238816D01*
X525996Y238594D01*
X526011Y238564D01*
X526055Y238504D01*
X526129Y238400D01*
X526219Y238267D01*
X526338Y238133D01*
X526486Y237999D01*
X526664Y237865D01*
X526857Y237761D01*
X526887Y237747D01*
X526962Y237717D01*
X527080Y237687D01*
X527259Y237628D01*
X527482Y237583D01*
X527764Y237553D01*
X528076Y237524D01*
X528447Y237509D01*
X532920D01*
Y238712D01*
X528284D01*
X528135Y238727D01*
X527927Y238757D01*
X527719Y238816D01*
X527511Y238876D01*
X527303Y238980D01*
X527125Y239114D01*
X527110Y239128D01*
X527066Y239188D01*
X526991Y239277D01*
X526917Y239396D01*
X526843Y239544D01*
X526768Y239738D01*
X526724Y239946D01*
X526709Y240198D01*
Y240287D01*
X526724Y240391D01*
X526739Y240525D01*
X526783Y240674D01*
X526828Y240852D01*
X526902Y241030D01*
X526991Y241209D01*
X527006Y241224D01*
X527036Y241283D01*
X527110Y241357D01*
X527184Y241461D01*
X527303Y241565D01*
X527422Y241684D01*
X527586Y241773D01*
X527749Y241862D01*
X527764Y241877D01*
X527838Y241892D01*
X527942Y241922D01*
X528091Y241952D01*
X528284Y241996D01*
X528507Y242026D01*
X528759Y242041D01*
X529057Y242056D01*
X532920D01*
Y243259D01*
D02*
G37*
G36*
X520126Y237231D02*
X466786D01*
Y236925D01*
X520126D01*
Y237231D01*
D02*
G37*
G36*
Y236311D02*
X466786D01*
Y236005D01*
X520126D01*
Y236311D01*
D02*
G37*
G36*
Y235698D02*
X466786D01*
Y235392D01*
X520126D01*
Y235698D01*
D02*
G37*
G36*
Y234779D02*
X466786D01*
Y234472D01*
X520126D01*
Y234779D01*
D02*
G37*
G36*
Y233859D02*
X466786D01*
Y233552D01*
X520126D01*
Y233859D01*
D02*
G37*
G36*
Y233246D02*
X466786D01*
Y232633D01*
X520126D01*
Y233246D01*
D02*
G37*
G36*
Y232020D02*
X466786D01*
Y231713D01*
X520126D01*
Y232020D01*
D02*
G37*
G36*
Y231407D02*
X466786D01*
Y231100D01*
X520126D01*
Y231407D01*
D02*
G37*
G36*
X530513Y236256D02*
X525847D01*
Y235052D01*
X530097D01*
X530290Y235037D01*
X530498D01*
X530706Y235022D01*
X530899Y235007D01*
X531048Y234993D01*
X531063D01*
X531122Y234963D01*
X531211Y234933D01*
X531315Y234889D01*
X531434Y234829D01*
X531568Y234740D01*
X531687Y234636D01*
X531791Y234517D01*
X531806Y234502D01*
X531835Y234443D01*
X531880Y234368D01*
X531924Y234265D01*
X531969Y234131D01*
X532014Y233982D01*
X532043Y233804D01*
X532058Y233611D01*
Y233522D01*
X532043Y233418D01*
X532029Y233284D01*
X531999Y233135D01*
X531939Y232972D01*
X531880Y232794D01*
X531791Y232615D01*
X531776Y232600D01*
X531731Y232541D01*
X531672Y232452D01*
X531583Y232348D01*
X531479Y232244D01*
X531345Y232125D01*
X531196Y232036D01*
X531033Y231947D01*
X531003Y231932D01*
X530944Y231917D01*
X530840Y231887D01*
X530676Y231842D01*
X530483Y231798D01*
X530245Y231768D01*
X529963Y231753D01*
X529651Y231738D01*
X525847D01*
Y230535D01*
X532920D01*
Y231605D01*
X531895D01*
X531910Y231620D01*
X531939Y231649D01*
X531999Y231694D01*
X532073Y231753D01*
X532177Y231842D01*
X532266Y231947D01*
X532385Y232065D01*
X532489Y232199D01*
X532593Y232348D01*
X532712Y232511D01*
X532801Y232704D01*
X532890Y232897D01*
X532979Y233120D01*
X533039Y233343D01*
X533069Y233596D01*
X533083Y233848D01*
Y233953D01*
X533069Y234071D01*
X533054Y234235D01*
X533024Y234413D01*
X532979Y234606D01*
X532920Y234814D01*
X532846Y235022D01*
X532831Y235052D01*
X532801Y235112D01*
X532757Y235201D01*
X532682Y235319D01*
X532593Y235453D01*
X532489Y235587D01*
X532385Y235706D01*
X532251Y235825D01*
X532237Y235840D01*
X532192Y235869D01*
X532103Y235914D01*
X531999Y235958D01*
X531865Y236033D01*
X531716Y236092D01*
X531553Y236152D01*
X531360Y236196D01*
X531345D01*
X531286Y236211D01*
X531211D01*
X531092Y236226D01*
X530929Y236241D01*
X530736D01*
X530513Y236256D01*
D02*
G37*
G36*
X520126Y230793D02*
X466786D01*
Y230487D01*
X520126D01*
Y230793D01*
D02*
G37*
G36*
Y230180D02*
X466786D01*
Y229567D01*
X520126D01*
Y230180D01*
D02*
G37*
G36*
Y229261D02*
X466786D01*
Y228954D01*
X520126D01*
Y229261D01*
D02*
G37*
G36*
Y228341D02*
X466786D01*
Y228035D01*
X520126D01*
Y228341D01*
D02*
G37*
G36*
Y227728D02*
X466786D01*
Y227421D01*
X520126D01*
Y227728D01*
D02*
G37*
G36*
Y226808D02*
X466786D01*
Y226502D01*
X520126D01*
Y226808D01*
D02*
G37*
G36*
Y225889D02*
X466786D01*
Y225582D01*
X520126D01*
Y225889D01*
D02*
G37*
G36*
Y225276D02*
X466786D01*
Y224969D01*
X520126D01*
Y225276D01*
D02*
G37*
G36*
Y224662D02*
X466786D01*
Y224049D01*
X520126D01*
Y224662D01*
D02*
G37*
G36*
Y223743D02*
X466786D01*
Y223436D01*
X520126D01*
Y223743D01*
D02*
G37*
G36*
X532920Y229237D02*
X523158D01*
Y228034D01*
X526635D01*
X526620Y228019D01*
X526590Y228004D01*
X526545Y227959D01*
X526486Y227900D01*
X526412Y227826D01*
X526338Y227736D01*
X526159Y227514D01*
X525981Y227246D01*
X525832Y226904D01*
X525773Y226726D01*
X525728Y226533D01*
X525699Y226325D01*
X525684Y226117D01*
Y225998D01*
X525699Y225879D01*
X525713Y225716D01*
X525743Y225522D01*
X525802Y225315D01*
X525862Y225106D01*
X525951Y224883D01*
X525966Y224854D01*
X525996Y224779D01*
X526055Y224676D01*
X526144Y224542D01*
X526248Y224393D01*
X526382Y224245D01*
X526531Y224081D01*
X526694Y223933D01*
X526709Y223918D01*
X526783Y223873D01*
X526887Y223799D01*
X527021Y223710D01*
X527184Y223620D01*
X527378Y223517D01*
X527601Y223427D01*
X527853Y223338D01*
X527883Y223323D01*
X527972Y223309D01*
X528106Y223264D01*
X528284Y223219D01*
X528492Y223190D01*
X528730Y223145D01*
X528997Y223130D01*
X529280Y223115D01*
X529458D01*
X529577Y223130D01*
X529740Y223145D01*
X529904Y223160D01*
X530112Y223190D01*
X530320Y223234D01*
X530765Y223338D01*
X531003Y223412D01*
X531241Y223502D01*
X531479Y223606D01*
X531702Y223724D01*
X531910Y223858D01*
X532103Y224022D01*
X532118Y224037D01*
X532147Y224066D01*
X532192Y224111D01*
X532251Y224185D01*
X532326Y224259D01*
X532415Y224363D01*
X532504Y224482D01*
X532593Y224631D01*
X532771Y224943D01*
X532935Y225300D01*
X532994Y225508D01*
X533039Y225716D01*
X533069Y225938D01*
X533083Y226176D01*
Y226295D01*
X533069Y226384D01*
X533054Y226488D01*
X533024Y226607D01*
X532950Y226889D01*
X532905Y227038D01*
X532831Y227202D01*
X532742Y227365D01*
X532638Y227528D01*
X532519Y227677D01*
X532385Y227840D01*
X532222Y227989D01*
X532043Y228123D01*
X532920D01*
Y229237D01*
D02*
G37*
G36*
X520126Y222823D02*
X466786D01*
Y222517D01*
X520126D01*
Y222823D01*
D02*
G37*
G36*
Y222210D02*
X466786D01*
Y221597D01*
X520126D01*
Y222210D01*
D02*
G37*
G36*
Y221290D02*
X466786D01*
Y220677D01*
X520126D01*
Y221290D01*
D02*
G37*
G36*
Y220064D02*
X466786D01*
Y219758D01*
X520126D01*
Y220064D01*
D02*
G37*
G36*
Y219451D02*
X466786D01*
Y219144D01*
X520126D01*
Y219451D01*
D02*
G37*
G36*
X532920Y219968D02*
X531553D01*
Y218601D01*
X532920D01*
Y219968D01*
D02*
G37*
G36*
X520126Y218838D02*
X466786D01*
Y218225D01*
X520126D01*
Y218838D01*
D02*
G37*
G36*
Y217918D02*
X466786D01*
Y217612D01*
X520126D01*
Y217918D01*
D02*
G37*
G36*
Y217305D02*
X466786D01*
Y216999D01*
X520126D01*
Y217305D01*
D02*
G37*
G36*
Y216386D02*
X466786D01*
Y216079D01*
X520126D01*
Y216386D01*
D02*
G37*
G36*
Y215772D02*
X466786D01*
Y215466D01*
X520126D01*
Y215772D01*
D02*
G37*
G36*
Y214853D02*
X466786D01*
Y214546D01*
X520126D01*
Y214853D01*
D02*
G37*
G36*
Y213933D02*
X466786D01*
Y213627D01*
X520126D01*
Y213933D01*
D02*
G37*
G36*
Y213320D02*
X466786D01*
Y212707D01*
X520126D01*
Y213320D01*
D02*
G37*
G36*
Y212400D02*
X466786D01*
Y211787D01*
X520126D01*
Y212400D01*
D02*
G37*
G36*
Y211481D02*
X466786D01*
Y211174D01*
X520126D01*
Y211481D01*
D02*
G37*
G36*
Y210561D02*
X466786D01*
Y210254D01*
X520126D01*
Y210561D01*
D02*
G37*
G36*
Y209948D02*
X466786D01*
Y209641D01*
X520126D01*
Y209948D01*
D02*
G37*
G36*
Y209335D02*
X466786D01*
Y209028D01*
X520126D01*
Y209335D01*
D02*
G37*
G36*
X529413Y215148D02*
X529220D01*
X529116Y215134D01*
X529012D01*
X528730Y215104D01*
X528418Y215059D01*
X528091Y214985D01*
X527734Y214896D01*
X527407Y214777D01*
X527392D01*
X527363Y214762D01*
X527318Y214732D01*
X527259Y214703D01*
X527110Y214613D01*
X526917Y214495D01*
X526709Y214331D01*
X526501Y214138D01*
X526293Y213900D01*
X526115Y213633D01*
Y213618D01*
X526100Y213603D01*
X526070Y213559D01*
X526040Y213499D01*
X525981Y213336D01*
X525892Y213128D01*
X525817Y212890D01*
X525743Y212593D01*
X525699Y212281D01*
X525684Y211954D01*
Y211835D01*
X525699Y211761D01*
Y211656D01*
X525713Y211553D01*
X525758Y211285D01*
X525832Y210988D01*
X525936Y210661D01*
X526085Y210349D01*
X526278Y210067D01*
Y210052D01*
X526308Y210037D01*
X526382Y209948D01*
X526516Y209829D01*
X526694Y209680D01*
X526932Y209517D01*
X527214Y209368D01*
X527556Y209235D01*
X527927Y209130D01*
X528106Y210289D01*
X528091D01*
X528076Y210304D01*
X527987Y210319D01*
X527868Y210364D01*
X527705Y210423D01*
X527526Y210512D01*
X527348Y210616D01*
X527184Y210735D01*
X527036Y210884D01*
X527021Y210899D01*
X526976Y210958D01*
X526917Y211047D01*
X526843Y211166D01*
X526783Y211315D01*
X526724Y211478D01*
X526679Y211686D01*
X526664Y211894D01*
Y211983D01*
X526679Y212043D01*
X526694Y212206D01*
X526739Y212414D01*
X526828Y212652D01*
X526947Y212890D01*
X527095Y213142D01*
X527199Y213261D01*
X527318Y213365D01*
X527348Y213395D01*
X527392Y213410D01*
X527437Y213454D01*
X527511Y213499D01*
X527601Y213544D01*
X527705Y213588D01*
X527823Y213633D01*
X527957Y213692D01*
X528106Y213737D01*
X528284Y213781D01*
X528462Y213826D01*
X528670Y213871D01*
X528893Y213885D01*
X529131Y213915D01*
X529517D01*
X529621Y213900D01*
X529740D01*
X529874Y213885D01*
X530171Y213841D01*
X530513Y213781D01*
X530869Y213692D01*
X531181Y213559D01*
X531330Y213469D01*
X531464Y213380D01*
X531493Y213351D01*
X531568Y213276D01*
X531672Y213157D01*
X531776Y212994D01*
X531895Y212801D01*
X531999Y212548D01*
X532073Y212281D01*
X532088Y212132D01*
X532103Y211969D01*
Y211850D01*
X532073Y211716D01*
X532043Y211553D01*
X531999Y211374D01*
X531924Y211166D01*
X531820Y210973D01*
X531672Y210795D01*
X531657Y210780D01*
X531583Y210720D01*
X531493Y210631D01*
X531345Y210542D01*
X531152Y210438D01*
X530929Y210334D01*
X530647Y210245D01*
X530335Y210186D01*
X530498Y209012D01*
X530513D01*
X530557Y209027D01*
X530617Y209041D01*
X530691Y209056D01*
X530795Y209086D01*
X530914Y209116D01*
X531196Y209205D01*
X531493Y209338D01*
X531820Y209517D01*
X532118Y209740D01*
X532400Y210007D01*
Y210022D01*
X532430Y210037D01*
X532459Y210082D01*
X532504Y210141D01*
X532563Y210230D01*
X532623Y210319D01*
X532742Y210542D01*
X532861Y210824D01*
X532979Y211166D01*
X533054Y211538D01*
X533069Y211746D01*
X533083Y211954D01*
Y212087D01*
X533069Y212192D01*
X533054Y212310D01*
X533039Y212459D01*
X533009Y212607D01*
X532965Y212786D01*
X532861Y213157D01*
X532771Y213351D01*
X532682Y213544D01*
X532578Y213737D01*
X532459Y213915D01*
X532311Y214093D01*
X532147Y214272D01*
X532132Y214287D01*
X532103Y214316D01*
X532043Y214346D01*
X531969Y214405D01*
X531865Y214480D01*
X531746Y214554D01*
X531612Y214628D01*
X531449Y214703D01*
X531271Y214792D01*
X531063Y214866D01*
X530840Y214940D01*
X530587Y215015D01*
X530335Y215074D01*
X530037Y215104D01*
X529740Y215134D01*
X529413Y215148D01*
D02*
G37*
G36*
X520126Y208415D02*
X466786D01*
Y208109D01*
X520126D01*
Y208415D01*
D02*
G37*
G36*
Y207802D02*
X466786D01*
Y207495D01*
X520126D01*
Y207802D01*
D02*
G37*
G36*
Y206882D02*
X466786D01*
Y206576D01*
X520126D01*
Y206882D01*
D02*
G37*
G36*
Y205963D02*
X466786D01*
Y205656D01*
X520126D01*
Y205963D01*
D02*
G37*
G36*
Y205350D02*
X466786D01*
Y204737D01*
X520126D01*
Y205350D01*
D02*
G37*
G36*
Y204430D02*
X466786D01*
Y204123D01*
X520126D01*
Y204430D01*
D02*
G37*
G36*
Y203817D02*
X466786D01*
Y203204D01*
X520126D01*
Y203817D01*
D02*
G37*
G36*
Y202897D02*
X466786D01*
Y202591D01*
X520126D01*
Y202897D01*
D02*
G37*
G36*
Y201978D02*
X466786D01*
Y201671D01*
X520126D01*
Y201978D01*
D02*
G37*
G36*
Y201364D02*
X466786D01*
Y201058D01*
X520126D01*
Y201364D01*
D02*
G37*
G36*
Y200445D02*
X466786D01*
Y200138D01*
X520126D01*
Y200445D01*
D02*
G37*
G36*
Y199832D02*
X466786D01*
Y199525D01*
X520126D01*
Y199832D01*
D02*
G37*
G36*
Y198912D02*
X466786D01*
Y198605D01*
X520126D01*
Y198912D01*
D02*
G37*
G36*
Y197992D02*
X466786D01*
Y197686D01*
X520126D01*
Y197992D01*
D02*
G37*
G36*
Y197379D02*
X466786D01*
Y196766D01*
X520126D01*
Y197379D01*
D02*
G37*
G36*
Y196460D02*
X466786D01*
Y195847D01*
X520126D01*
Y196460D01*
D02*
G37*
G36*
Y195540D02*
X466786D01*
Y195233D01*
X520126D01*
Y195540D01*
D02*
G37*
G36*
Y194927D02*
X466786D01*
Y194620D01*
X520126D01*
Y194927D01*
D02*
G37*
G36*
Y194007D02*
X466786D01*
Y193701D01*
X520126D01*
Y194007D01*
D02*
G37*
G36*
X529384Y208613D02*
X529294D01*
X529190Y208598D01*
X529057D01*
X528893Y208583D01*
X528715Y208554D01*
X528507Y208524D01*
X528284Y208479D01*
X528046Y208420D01*
X527808Y208346D01*
X527571Y208256D01*
X527333Y208152D01*
X527095Y208033D01*
X526872Y207885D01*
X526664Y207721D01*
X526471Y207528D01*
X526456Y207513D01*
X526441Y207484D01*
X526397Y207439D01*
X526352Y207365D01*
X526293Y207276D01*
X526219Y207172D01*
X526144Y207053D01*
X526070Y206904D01*
X526011Y206756D01*
X525936Y206592D01*
X525802Y206206D01*
X525713Y205775D01*
X525699Y205537D01*
X525684Y205299D01*
Y205166D01*
X525699Y205062D01*
X525713Y204928D01*
X525728Y204794D01*
X525758Y204631D01*
X525802Y204452D01*
X525921Y204081D01*
X525996Y203888D01*
X526085Y203680D01*
X526204Y203487D01*
X526338Y203293D01*
X526486Y203100D01*
X526545Y203036D01*
X525847D01*
Y201966D01*
X526843D01*
X526813Y201951D01*
X526754Y201907D01*
X526664Y201832D01*
X526545Y201728D01*
X526412Y201609D01*
X526278Y201461D01*
X526129Y201283D01*
X526011Y201089D01*
X525996Y201060D01*
X525966Y200985D01*
X525906Y200867D01*
X525847Y200718D01*
X525788Y200525D01*
X525728Y200317D01*
X525699Y200064D01*
X525684Y199811D01*
Y199678D01*
X525699Y199529D01*
X525728Y199351D01*
X525758Y199158D01*
X525817Y198935D01*
X525906Y198727D01*
X526011Y198534D01*
X526025Y198504D01*
X526070Y198444D01*
X526144Y198355D01*
X526248Y198251D01*
X526382Y198132D01*
X526531Y198013D01*
X526724Y197910D01*
X526932Y197820D01*
X526917Y197806D01*
X526872Y197776D01*
X526813Y197731D01*
X526739Y197672D01*
X526635Y197583D01*
X526531Y197479D01*
X526427Y197360D01*
X526308Y197226D01*
X526189Y197077D01*
X526085Y196914D01*
X525877Y196528D01*
X525802Y196320D01*
X525743Y196097D01*
X525699Y195874D01*
X525684Y195621D01*
Y195517D01*
X525699Y195443D01*
Y195354D01*
X525713Y195250D01*
X525758Y195027D01*
X525832Y194759D01*
X525936Y194492D01*
X526085Y194239D01*
X526278Y194002D01*
X526308Y193972D01*
X526382Y193912D01*
X526531Y193823D01*
X526724Y193704D01*
X526976Y193600D01*
X527274Y193511D01*
X527645Y193452D01*
X527853Y193422D01*
X532920D01*
Y194626D01*
X528224D01*
X528076Y194641D01*
X527734Y194670D01*
X527571Y194700D01*
X527437Y194744D01*
X527422D01*
X527378Y194774D01*
X527318Y194804D01*
X527244Y194849D01*
X527170Y194908D01*
X527080Y194982D01*
X526991Y195071D01*
X526917Y195175D01*
X526902Y195190D01*
X526887Y195235D01*
X526857Y195294D01*
X526813Y195369D01*
X526783Y195473D01*
X526754Y195606D01*
X526739Y195740D01*
X526724Y195889D01*
Y196008D01*
X526754Y196156D01*
X526783Y196320D01*
X526843Y196513D01*
X526932Y196721D01*
X527066Y196944D01*
X527229Y197137D01*
X527259Y197152D01*
X527318Y197211D01*
X527437Y197285D01*
X527615Y197375D01*
X527838Y197479D01*
X528106Y197553D01*
X528433Y197612D01*
X528819Y197627D01*
X532920D01*
Y198831D01*
X528195D01*
X528046Y198846D01*
X527883Y198860D01*
X527675Y198905D01*
X527482Y198950D01*
X527288Y199024D01*
X527125Y199128D01*
X527110Y199143D01*
X527066Y199187D01*
X526991Y199247D01*
X526917Y199351D01*
X526857Y199485D01*
X526783Y199648D01*
X526739Y199841D01*
X526724Y200079D01*
Y200168D01*
X526739Y200257D01*
X526754Y200391D01*
X526783Y200525D01*
X526843Y200688D01*
X526902Y200852D01*
X526991Y201015D01*
X527006Y201030D01*
X527036Y201089D01*
X527110Y201164D01*
X527184Y201253D01*
X527303Y201357D01*
X527437Y201461D01*
X527601Y201550D01*
X527779Y201639D01*
X527808Y201654D01*
X527868Y201669D01*
X527987Y201699D01*
X528150Y201728D01*
X528358Y201773D01*
X528611Y201803D01*
X528908Y201817D01*
X529250Y201832D01*
X532920D01*
Y203036D01*
X532235D01*
X532281Y203085D01*
X532474Y203323D01*
X532653Y203605D01*
Y203620D01*
X532667Y203635D01*
X532697Y203680D01*
X532712Y203739D01*
X532786Y203903D01*
X532861Y204111D01*
X532950Y204363D01*
X533009Y204646D01*
X533069Y204958D01*
X533083Y205299D01*
Y205448D01*
X533069Y205552D01*
X533054Y205671D01*
X533039Y205819D01*
X533009Y205983D01*
X532965Y206161D01*
X532846Y206533D01*
X532771Y206741D01*
X532682Y206934D01*
X532578Y207142D01*
X532444Y207335D01*
X532296Y207528D01*
X532132Y207707D01*
X532118Y207721D01*
X532088Y207751D01*
X532029Y207796D01*
X531954Y207840D01*
X531850Y207915D01*
X531731Y207989D01*
X531598Y208078D01*
X531434Y208152D01*
X531241Y208242D01*
X531048Y208331D01*
X530810Y208405D01*
X530572Y208464D01*
X530305Y208524D01*
X530023Y208568D01*
X529710Y208598D01*
X529384Y208613D01*
D02*
G37*
G36*
X520126Y193394D02*
X466786D01*
Y193088D01*
X520126D01*
Y193394D01*
D02*
G37*
G36*
Y192474D02*
X466786D01*
Y192168D01*
X520126D01*
Y192474D01*
D02*
G37*
G36*
Y191555D02*
X466786D01*
Y191248D01*
X520126D01*
Y191555D01*
D02*
G37*
G36*
Y190942D02*
X466786D01*
Y190635D01*
X520126D01*
Y190942D01*
D02*
G37*
G36*
Y190022D02*
X466786D01*
Y189715D01*
X520126D01*
Y190022D01*
D02*
G37*
G36*
X533083Y193127D02*
X522994Y190304D01*
Y189353D01*
X533083Y192176D01*
Y193127D01*
D02*
G37*
G36*
X520126Y189409D02*
X466786D01*
Y188796D01*
X520126D01*
Y189409D01*
D02*
G37*
G36*
Y188489D02*
X466786D01*
Y188183D01*
X520126D01*
Y188489D01*
D02*
G37*
G36*
Y187876D02*
X466786D01*
Y187263D01*
X520126D01*
Y187876D01*
D02*
G37*
G36*
Y186957D02*
X466786D01*
Y186650D01*
X520126D01*
Y186957D01*
D02*
G37*
G36*
Y186037D02*
X466786D01*
Y185730D01*
X520126D01*
Y186037D01*
D02*
G37*
G36*
Y185424D02*
X466786D01*
Y185117D01*
X520126D01*
Y185424D01*
D02*
G37*
G36*
Y184504D02*
X466786D01*
Y184198D01*
X520126D01*
Y184504D01*
D02*
G37*
G36*
Y183891D02*
X466786D01*
Y183584D01*
X520126D01*
Y183891D01*
D02*
G37*
G36*
Y182971D02*
X466786D01*
Y182665D01*
X520126D01*
Y182971D01*
D02*
G37*
G36*
Y182052D02*
X466786D01*
Y181745D01*
X520126D01*
Y182052D01*
D02*
G37*
G36*
Y181439D02*
X466786D01*
Y180826D01*
X520126D01*
Y181439D01*
D02*
G37*
G36*
Y180519D02*
X466786D01*
Y179906D01*
X520126D01*
Y180519D01*
D02*
G37*
G36*
Y179599D02*
X466786D01*
Y179293D01*
X520126D01*
Y179599D01*
D02*
G37*
G36*
Y178986D02*
X466786D01*
Y178680D01*
X520126D01*
Y178986D01*
D02*
G37*
G36*
Y178067D02*
X466786D01*
Y177760D01*
X520126D01*
Y178067D01*
D02*
G37*
G36*
Y177453D02*
X466786D01*
Y177147D01*
X520126D01*
Y177453D01*
D02*
G37*
G36*
Y176534D02*
X466786D01*
Y176227D01*
X520126D01*
Y176534D01*
D02*
G37*
G36*
Y175921D02*
X466786D01*
Y175614D01*
X520126D01*
Y175921D01*
D02*
G37*
G36*
Y175001D02*
X466786D01*
Y174694D01*
X520126D01*
Y175001D01*
D02*
G37*
G36*
X532920Y188999D02*
X525847D01*
Y187929D01*
X526843D01*
X526813Y187914D01*
X526754Y187870D01*
X526664Y187796D01*
X526545Y187691D01*
X526412Y187573D01*
X526278Y187424D01*
X526129Y187246D01*
X526011Y187052D01*
X525996Y187023D01*
X525966Y186949D01*
X525906Y186830D01*
X525847Y186681D01*
X525788Y186488D01*
X525728Y186280D01*
X525699Y186027D01*
X525684Y185775D01*
Y185641D01*
X525699Y185492D01*
X525728Y185314D01*
X525758Y185121D01*
X525817Y184898D01*
X525906Y184690D01*
X526011Y184497D01*
X526025Y184467D01*
X526070Y184408D01*
X526144Y184319D01*
X526248Y184214D01*
X526382Y184096D01*
X526531Y183977D01*
X526724Y183873D01*
X526932Y183784D01*
X526917Y183769D01*
X526872Y183739D01*
X526813Y183694D01*
X526739Y183635D01*
X526635Y183546D01*
X526531Y183442D01*
X526427Y183323D01*
X526308Y183189D01*
X526189Y183041D01*
X526085Y182877D01*
X525877Y182491D01*
X525802Y182283D01*
X525743Y182060D01*
X525699Y181837D01*
X525684Y181584D01*
Y181480D01*
X525699Y181406D01*
Y181317D01*
X525713Y181213D01*
X525758Y180990D01*
X525832Y180723D01*
X525936Y180455D01*
X526085Y180203D01*
X526278Y179965D01*
X526308Y179935D01*
X526382Y179876D01*
X526531Y179786D01*
X526724Y179668D01*
X526769Y179649D01*
X526679Y179573D01*
X526664Y179559D01*
X526635Y179529D01*
X526590Y179484D01*
X526516Y179410D01*
X526441Y179321D01*
X526367Y179202D01*
X526278Y179083D01*
X526174Y178935D01*
X526085Y178771D01*
X525996Y178593D01*
X525921Y178400D01*
X525832Y178177D01*
X525773Y177954D01*
X525728Y177716D01*
X525699Y177463D01*
X525684Y177196D01*
Y177062D01*
X525699Y176958D01*
X525713Y176839D01*
X525728Y176691D01*
X525758Y176542D01*
X525802Y176364D01*
X525921Y176007D01*
X525996Y175814D01*
X526100Y175621D01*
X526204Y175428D01*
X526338Y175235D01*
X526486Y175056D01*
X526664Y174878D01*
X526679Y174863D01*
X526709Y174834D01*
X526768Y174789D01*
X526843Y174729D01*
X526947Y174670D01*
X527066Y174596D01*
X527199Y174507D01*
X527363Y174417D01*
X527556Y174343D01*
X527749Y174254D01*
X527972Y174180D01*
X528224Y174105D01*
X528477Y174061D01*
X528759Y174016D01*
X529057Y173986D01*
X529384Y173972D01*
X529562D01*
X529696Y173986D01*
Y179247D01*
X529740D01*
X529814Y179232D01*
X529889D01*
X529993Y179217D01*
X530097Y179202D01*
X530364Y179143D01*
X530647Y179053D01*
X530944Y178949D01*
X531241Y178786D01*
X531493Y178593D01*
X531523Y178563D01*
X531583Y178489D01*
X531687Y178355D01*
X531791Y178192D01*
X531910Y177969D01*
X532014Y177716D01*
X532073Y177434D01*
X532103Y177122D01*
Y177003D01*
X532088Y176884D01*
X532058Y176735D01*
X532014Y176557D01*
X531954Y176364D01*
X531880Y176171D01*
X531761Y175993D01*
X531746Y175978D01*
X531687Y175918D01*
X531612Y175829D01*
X531479Y175725D01*
X531330Y175606D01*
X531137Y175487D01*
X530899Y175368D01*
X530632Y175250D01*
X530795Y174016D01*
X530810D01*
X530840Y174031D01*
X530899Y174046D01*
X530974Y174076D01*
X531063Y174105D01*
X531167Y174150D01*
X531419Y174269D01*
X531687Y174417D01*
X531969Y174596D01*
X532251Y174834D01*
X532489Y175101D01*
Y175116D01*
X532519Y175131D01*
X532548Y175175D01*
X532578Y175250D01*
X532623Y175324D01*
X532682Y175413D01*
X532727Y175517D01*
X532786Y175651D01*
X532890Y175933D01*
X532994Y176290D01*
X533054Y176676D01*
X533083Y177122D01*
Y177270D01*
X533069Y177374D01*
X533054Y177508D01*
X533039Y177657D01*
X533009Y177820D01*
X532965Y178013D01*
X532846Y178400D01*
X532771Y178608D01*
X532682Y178801D01*
X532578Y179009D01*
X532444Y179202D01*
X532304Y179385D01*
X532920D01*
Y180589D01*
X528224D01*
X528076Y180604D01*
X527734Y180633D01*
X527571Y180663D01*
X527437Y180708D01*
X527422D01*
X527378Y180737D01*
X527318Y180767D01*
X527244Y180812D01*
X527170Y180871D01*
X527080Y180945D01*
X526991Y181035D01*
X526917Y181139D01*
X526902Y181154D01*
X526887Y181198D01*
X526857Y181257D01*
X526813Y181332D01*
X526783Y181436D01*
X526754Y181570D01*
X526739Y181703D01*
X526724Y181852D01*
Y181971D01*
X526754Y182119D01*
X526783Y182283D01*
X526843Y182476D01*
X526932Y182684D01*
X527066Y182907D01*
X527229Y183100D01*
X527259Y183115D01*
X527318Y183174D01*
X527437Y183249D01*
X527615Y183338D01*
X527838Y183442D01*
X528106Y183516D01*
X528433Y183575D01*
X528819Y183590D01*
X532920D01*
Y184794D01*
X528195D01*
X528046Y184809D01*
X527883Y184824D01*
X527675Y184868D01*
X527482Y184913D01*
X527288Y184987D01*
X527125Y185091D01*
X527110Y185106D01*
X527066Y185151D01*
X526991Y185210D01*
X526917Y185314D01*
X526857Y185448D01*
X526783Y185611D01*
X526739Y185804D01*
X526724Y186042D01*
Y186131D01*
X526739Y186220D01*
X526754Y186354D01*
X526783Y186488D01*
X526843Y186651D01*
X526902Y186815D01*
X526991Y186978D01*
X527006Y186993D01*
X527036Y187052D01*
X527110Y187127D01*
X527184Y187216D01*
X527303Y187320D01*
X527437Y187424D01*
X527601Y187513D01*
X527779Y187602D01*
X527808Y187617D01*
X527868Y187632D01*
X527987Y187662D01*
X528150Y187691D01*
X528358Y187736D01*
X528611Y187766D01*
X528908Y187781D01*
X529250Y187796D01*
X532920D01*
Y188999D01*
D02*
G37*
G36*
X520126Y174081D02*
X466786D01*
Y173775D01*
X520126D01*
Y174081D01*
D02*
G37*
G36*
Y173468D02*
X466786D01*
Y172855D01*
X520126D01*
Y173468D01*
D02*
G37*
G36*
Y172549D02*
X466786D01*
Y172242D01*
X520126D01*
Y172549D01*
D02*
G37*
G36*
Y171935D02*
X466786D01*
Y171322D01*
X520126D01*
Y171935D01*
D02*
G37*
G36*
Y170709D02*
X466786D01*
Y170403D01*
X520126D01*
Y170709D01*
D02*
G37*
G36*
Y170096D02*
X466786D01*
Y169790D01*
X520126D01*
Y170096D01*
D02*
G37*
G36*
X532920Y170817D02*
X523158D01*
Y169613D01*
X532920D01*
Y170817D01*
D02*
G37*
G36*
X520126Y169483D02*
X466786D01*
Y169177D01*
X520126D01*
Y169483D01*
D02*
G37*
G36*
Y168563D02*
X466786D01*
Y168257D01*
X520126D01*
Y168563D01*
D02*
G37*
G36*
Y167950D02*
X466786D01*
Y167644D01*
X520126D01*
Y167950D01*
D02*
G37*
G36*
Y167031D02*
X466786D01*
Y166724D01*
X520126D01*
Y167031D01*
D02*
G37*
G36*
Y166111D02*
X466786D01*
Y165804D01*
X520126D01*
Y166111D01*
D02*
G37*
G36*
Y165498D02*
X466786D01*
Y165191D01*
X520126D01*
Y165498D01*
D02*
G37*
G36*
Y164885D02*
X466786D01*
Y164272D01*
X520126D01*
Y164885D01*
D02*
G37*
G36*
Y163965D02*
X466786D01*
Y163659D01*
X520126D01*
Y163965D01*
D02*
G37*
G36*
Y163352D02*
X466786D01*
Y163045D01*
X520126D01*
Y163352D01*
D02*
G37*
G36*
Y162432D02*
X466786D01*
Y161819D01*
X520126D01*
Y162432D01*
D02*
G37*
G36*
X531063Y166458D02*
X530974D01*
X530869Y166443D01*
X530751Y166428D01*
X530602Y166399D01*
X530438Y166369D01*
X530275Y166309D01*
X530112Y166235D01*
X530097Y166220D01*
X530037Y166190D01*
X529963Y166146D01*
X529859Y166072D01*
X529755Y165982D01*
X529636Y165864D01*
X529532Y165745D01*
X529428Y165611D01*
X529413Y165596D01*
X529384Y165537D01*
X529339Y165462D01*
X529280Y165358D01*
X529205Y165225D01*
X529146Y165091D01*
X529086Y164928D01*
X529027Y164749D01*
Y164734D01*
X529012Y164675D01*
X528997Y164601D01*
X528968Y164482D01*
X528938Y164333D01*
X528908Y164140D01*
X528878Y163932D01*
X528849Y163679D01*
Y163664D01*
X528834Y163620D01*
Y163546D01*
X528819Y163442D01*
X528804Y163323D01*
X528789Y163189D01*
X528730Y162862D01*
X528670Y162520D01*
X528611Y162164D01*
X528522Y161822D01*
X528477Y161673D01*
X528433Y161540D01*
X528388D01*
X528299Y161525D01*
X528002D01*
X527868Y161540D01*
X527719Y161569D01*
X527556Y161614D01*
X527378Y161673D01*
X527229Y161748D01*
X527095Y161866D01*
X527080Y161881D01*
X527036Y161956D01*
X526962Y162060D01*
X526887Y162208D01*
X526813Y162402D01*
X526739Y162639D01*
X526694Y162922D01*
X526679Y163234D01*
Y163367D01*
X526694Y163516D01*
X526709Y163709D01*
X526754Y163917D01*
X526798Y164110D01*
X526872Y164318D01*
X526976Y164482D01*
X526991Y164497D01*
X527036Y164541D01*
X527110Y164615D01*
X527214Y164705D01*
X527363Y164809D01*
X527541Y164898D01*
X527764Y165002D01*
X528017Y165076D01*
X527853Y166250D01*
X527838D01*
X527823Y166235D01*
X527734Y166220D01*
X527601Y166176D01*
X527422Y166131D01*
X527229Y166057D01*
X527036Y165968D01*
X526828Y165864D01*
X526650Y165730D01*
X526635Y165715D01*
X526575Y165656D01*
X526486Y165581D01*
X526382Y165462D01*
X526278Y165314D01*
X526159Y165121D01*
X526040Y164913D01*
X525936Y164675D01*
Y164660D01*
X525921Y164645D01*
X525906Y164601D01*
X525892Y164556D01*
X525862Y164407D01*
X525802Y164214D01*
X525758Y163976D01*
X525728Y163709D01*
X525699Y163397D01*
X525684Y163070D01*
Y162922D01*
X525699Y162758D01*
X525713Y162550D01*
X525743Y162312D01*
X525773Y162060D01*
X525832Y161822D01*
X525906Y161599D01*
X525921Y161569D01*
X525936Y161510D01*
X525996Y161406D01*
X526055Y161287D01*
X526129Y161153D01*
X526219Y161005D01*
X526323Y160886D01*
X526441Y160767D01*
X526456Y160752D01*
X526501Y160722D01*
X526560Y160678D01*
X526664Y160618D01*
X526783Y160559D01*
X526917Y160499D01*
X527080Y160440D01*
X527259Y160396D01*
X527274D01*
X527318Y160381D01*
X527392Y160366D01*
X527511Y160351D01*
X527660D01*
X527853Y160336D01*
X528076Y160321D01*
X530513D01*
X530855Y160306D01*
X531226D01*
X531568Y160292D01*
X531731Y160277D01*
X531865D01*
X531984Y160262D01*
X532088Y160247D01*
X532103D01*
X532162Y160232D01*
X532251Y160217D01*
X532355Y160187D01*
X532474Y160143D01*
X532623Y160083D01*
X532920Y159950D01*
Y161198D01*
X532905Y161213D01*
X532861Y161228D01*
X532771Y161257D01*
X532667Y161302D01*
X532534Y161346D01*
X532385Y161376D01*
X532222Y161406D01*
X532029Y161436D01*
X532058Y161465D01*
X532118Y161555D01*
X532222Y161673D01*
X532341Y161852D01*
X532489Y162045D01*
X532623Y162268D01*
X532742Y162491D01*
X532846Y162728D01*
X532861Y162758D01*
X532875Y162832D01*
X532920Y162951D01*
X532965Y163115D01*
X533009Y163323D01*
X533039Y163546D01*
X533069Y163783D01*
X533083Y164051D01*
Y164155D01*
X533069Y164244D01*
Y164333D01*
X533054Y164452D01*
X533009Y164705D01*
X532950Y165002D01*
X532846Y165284D01*
X532712Y165581D01*
X532519Y165834D01*
X532489Y165864D01*
X532415Y165938D01*
X532296Y166027D01*
X532118Y166146D01*
X531910Y166265D01*
X531672Y166354D01*
X531375Y166428D01*
X531063Y166458D01*
D02*
G37*
G36*
X520126Y161513D02*
X466786D01*
Y161206D01*
X520126D01*
Y161513D01*
D02*
G37*
G36*
Y160593D02*
X466786D01*
Y160286D01*
X520126D01*
Y160593D01*
D02*
G37*
G36*
Y159980D02*
X466786D01*
Y159673D01*
X520126D01*
Y159980D01*
D02*
G37*
G36*
Y159060D02*
X466786D01*
Y158754D01*
X520126D01*
Y159060D01*
D02*
G37*
G36*
Y158141D02*
X466786D01*
Y157834D01*
X520126D01*
Y158141D01*
D02*
G37*
G36*
Y157528D02*
X466786D01*
Y156914D01*
X520126D01*
Y157528D01*
D02*
G37*
G36*
Y156608D02*
X466786D01*
Y156301D01*
X520126D01*
Y156608D01*
D02*
G37*
G36*
Y155995D02*
X466786D01*
Y155688D01*
X520126D01*
Y155995D01*
D02*
G37*
G36*
Y155075D02*
X466786D01*
Y154768D01*
X520126D01*
Y155075D01*
D02*
G37*
G36*
Y154462D02*
X466786D01*
Y153849D01*
X520126D01*
Y154462D01*
D02*
G37*
G36*
X529398Y159469D02*
X529220D01*
X529131Y159454D01*
X529012D01*
X528759Y159425D01*
X528462Y159380D01*
X528150Y159321D01*
X527808Y159246D01*
X527482Y159128D01*
X527467D01*
X527437Y159113D01*
X527392Y159083D01*
X527333Y159053D01*
X527184Y158979D01*
X526991Y158860D01*
X526768Y158712D01*
X526545Y158533D01*
X526338Y158325D01*
X526144Y158073D01*
Y158058D01*
X526129Y158043D01*
X526070Y157954D01*
X525996Y157805D01*
X525906Y157612D01*
X525832Y157374D01*
X525758Y157107D01*
X525699Y156810D01*
X525684Y156497D01*
Y156393D01*
X525699Y156275D01*
X525713Y156111D01*
X525758Y155948D01*
X525802Y155754D01*
X525877Y155561D01*
X525966Y155368D01*
X525981Y155338D01*
X526011Y155279D01*
X526070Y155190D01*
X526159Y155071D01*
X526248Y154952D01*
X526367Y154804D01*
X526516Y154670D01*
X526664Y154551D01*
X523158D01*
Y153347D01*
X532920D01*
Y154462D01*
X532043D01*
X532058Y154477D01*
X532088Y154492D01*
X532132Y154536D01*
X532207Y154595D01*
X532281Y154655D01*
X532370Y154744D01*
X532459Y154848D01*
X532563Y154967D01*
X532653Y155101D01*
X532757Y155249D01*
X532846Y155413D01*
X532920Y155576D01*
X532994Y155769D01*
X533039Y155977D01*
X533069Y156200D01*
X533083Y156438D01*
Y156527D01*
X533069Y156587D01*
X533054Y156750D01*
X533024Y156943D01*
X532965Y157196D01*
X532890Y157449D01*
X532771Y157731D01*
X532623Y157998D01*
Y158013D01*
X532608Y158028D01*
X532534Y158117D01*
X532430Y158236D01*
X532281Y158399D01*
X532103Y158563D01*
X531880Y158756D01*
X531627Y158919D01*
X531330Y159083D01*
X531315D01*
X531286Y159098D01*
X531241Y159113D01*
X531181Y159142D01*
X531107Y159172D01*
X531003Y159202D01*
X530765Y159276D01*
X530483Y159350D01*
X530156Y159410D01*
X529800Y159454D01*
X529398Y159469D01*
D02*
G37*
G36*
X520126Y153542D02*
X466786D01*
Y153236D01*
X520126D01*
Y153542D01*
D02*
G37*
G36*
Y152623D02*
X466786D01*
Y152316D01*
X520126D01*
Y152623D01*
D02*
G37*
G36*
Y152009D02*
X466786D01*
Y151703D01*
X520126D01*
Y152009D01*
D02*
G37*
G36*
Y151090D02*
X466786D01*
Y150783D01*
X520126D01*
Y151090D01*
D02*
G37*
G36*
Y150170D02*
X466786D01*
Y149864D01*
X520126D01*
Y150170D01*
D02*
G37*
G36*
Y149557D02*
X466786D01*
Y149251D01*
X520126D01*
Y149557D01*
D02*
G37*
G36*
Y148944D02*
X466786D01*
Y148637D01*
X520126D01*
Y148944D01*
D02*
G37*
G36*
Y148331D02*
X466786D01*
Y147718D01*
X520126D01*
Y148331D01*
D02*
G37*
G36*
X531063Y152421D02*
X530974D01*
X530869Y152406D01*
X530751Y152391D01*
X530602Y152362D01*
X530438Y152332D01*
X530275Y152273D01*
X530112Y152198D01*
X530097Y152183D01*
X530037Y152154D01*
X529963Y152109D01*
X529859Y152035D01*
X529755Y151946D01*
X529636Y151827D01*
X529532Y151708D01*
X529428Y151574D01*
X529413Y151559D01*
X529384Y151500D01*
X529339Y151426D01*
X529280Y151322D01*
X529205Y151188D01*
X529146Y151054D01*
X529086Y150891D01*
X529027Y150712D01*
Y150697D01*
X529012Y150638D01*
X528997Y150564D01*
X528968Y150445D01*
X528938Y150296D01*
X528908Y150103D01*
X528878Y149895D01*
X528849Y149642D01*
Y149628D01*
X528834Y149583D01*
Y149509D01*
X528819Y149405D01*
X528804Y149286D01*
X528789Y149152D01*
X528730Y148825D01*
X528670Y148483D01*
X528611Y148127D01*
X528522Y147785D01*
X528477Y147637D01*
X528433Y147503D01*
X528388D01*
X528299Y147488D01*
X528002D01*
X527868Y147503D01*
X527719Y147533D01*
X527556Y147577D01*
X527378Y147637D01*
X527229Y147711D01*
X527095Y147830D01*
X527080Y147845D01*
X527036Y147919D01*
X526962Y148023D01*
X526887Y148172D01*
X526813Y148365D01*
X526739Y148602D01*
X526694Y148885D01*
X526679Y149197D01*
Y149331D01*
X526694Y149479D01*
X526709Y149672D01*
X526754Y149880D01*
X526798Y150073D01*
X526872Y150281D01*
X526976Y150445D01*
X526991Y150460D01*
X527036Y150504D01*
X527110Y150579D01*
X527214Y150668D01*
X527363Y150772D01*
X527541Y150861D01*
X527764Y150965D01*
X528017Y151039D01*
X527853Y152213D01*
X527838D01*
X527823Y152198D01*
X527734Y152183D01*
X527601Y152139D01*
X527422Y152094D01*
X527229Y152020D01*
X527036Y151931D01*
X526828Y151827D01*
X526650Y151693D01*
X526635Y151678D01*
X526575Y151619D01*
X526486Y151545D01*
X526382Y151426D01*
X526278Y151277D01*
X526159Y151084D01*
X526040Y150876D01*
X525936Y150638D01*
Y150623D01*
X525921Y150608D01*
X525906Y150564D01*
X525892Y150519D01*
X525862Y150371D01*
X525802Y150177D01*
X525758Y149940D01*
X525728Y149672D01*
X525699Y149360D01*
X525684Y149033D01*
Y148885D01*
X525699Y148721D01*
X525713Y148513D01*
X525743Y148275D01*
X525773Y148023D01*
X525832Y147785D01*
X525906Y147562D01*
X525921Y147533D01*
X525936Y147473D01*
X525996Y147369D01*
X526055Y147250D01*
X526129Y147116D01*
X526219Y146968D01*
X526323Y146849D01*
X526441Y146730D01*
X526456Y146715D01*
X526501Y146686D01*
X526560Y146641D01*
X526664Y146582D01*
X526783Y146522D01*
X526917Y146463D01*
X527080Y146403D01*
X527259Y146359D01*
X527274D01*
X527318Y146344D01*
X527392Y146329D01*
X527511Y146314D01*
X527660D01*
X527853Y146299D01*
X528076Y146284D01*
X530513D01*
X530855Y146270D01*
X531226D01*
X531568Y146255D01*
X531731Y146240D01*
X531865D01*
X531984Y146225D01*
X532088Y146210D01*
X532103D01*
X532162Y146195D01*
X532251Y146180D01*
X532355Y146151D01*
X532474Y146106D01*
X532623Y146047D01*
X532920Y145913D01*
Y147161D01*
X532905Y147176D01*
X532861Y147191D01*
X532771Y147220D01*
X532667Y147265D01*
X532534Y147310D01*
X532385Y147339D01*
X532222Y147369D01*
X532029Y147399D01*
X532058Y147429D01*
X532118Y147518D01*
X532222Y147637D01*
X532341Y147815D01*
X532489Y148008D01*
X532623Y148231D01*
X532742Y148454D01*
X532846Y148692D01*
X532861Y148721D01*
X532875Y148796D01*
X532920Y148914D01*
X532965Y149078D01*
X533009Y149286D01*
X533039Y149509D01*
X533069Y149747D01*
X533083Y150014D01*
Y150118D01*
X533069Y150207D01*
Y150296D01*
X533054Y150415D01*
X533009Y150668D01*
X532950Y150965D01*
X532846Y151247D01*
X532712Y151545D01*
X532519Y151797D01*
X532489Y151827D01*
X532415Y151901D01*
X532296Y151990D01*
X532118Y152109D01*
X531910Y152228D01*
X531672Y152317D01*
X531375Y152391D01*
X531063Y152421D01*
D02*
G37*
G36*
X520126Y147105D02*
X466786D01*
Y146798D01*
X520126D01*
Y147105D01*
D02*
G37*
G36*
Y146492D02*
X466786D01*
Y145878D01*
X520126D01*
Y146492D01*
D02*
G37*
G36*
Y145572D02*
X466786D01*
Y145265D01*
X520126D01*
Y145572D01*
D02*
G37*
G36*
Y144652D02*
X466786D01*
Y144346D01*
X520126D01*
Y144652D01*
D02*
G37*
G36*
Y144039D02*
X466786D01*
Y143733D01*
X520126D01*
Y144039D01*
D02*
G37*
G36*
Y143119D02*
X466786D01*
Y142813D01*
X520126D01*
Y143119D01*
D02*
G37*
G36*
Y142200D02*
X466786D01*
Y141893D01*
X520126D01*
Y142200D01*
D02*
G37*
G36*
Y141587D02*
X466786D01*
Y140974D01*
X520126D01*
Y141587D01*
D02*
G37*
G36*
Y140667D02*
X466786D01*
Y140360D01*
X520126D01*
Y140667D01*
D02*
G37*
G36*
Y140054D02*
X466786D01*
Y139747D01*
X520126D01*
Y140054D01*
D02*
G37*
G36*
X532920Y143478D02*
X525847D01*
Y142394D01*
X526902D01*
X526887Y142379D01*
X526798Y142319D01*
X526664Y142245D01*
X526516Y142156D01*
X526352Y142037D01*
X526189Y141903D01*
X526040Y141785D01*
X525936Y141651D01*
X525921Y141636D01*
X525892Y141591D01*
X525862Y141517D01*
X525802Y141413D01*
X525758Y141309D01*
X525728Y141175D01*
X525699Y141027D01*
X525684Y140878D01*
Y140774D01*
X525699Y140655D01*
X525728Y140492D01*
X525788Y140314D01*
X525847Y140105D01*
X525951Y139883D01*
X526085Y139645D01*
X527184Y140076D01*
X527170Y140091D01*
X527140Y140150D01*
X527095Y140239D01*
X527051Y140343D01*
X527006Y140477D01*
X526962Y140626D01*
X526932Y140789D01*
X526917Y140953D01*
Y141012D01*
X526932Y141086D01*
X526947Y141190D01*
X526976Y141294D01*
X527021Y141413D01*
X527080Y141532D01*
X527155Y141651D01*
X527170Y141666D01*
X527199Y141695D01*
X527259Y141755D01*
X527333Y141814D01*
X527422Y141889D01*
X527541Y141963D01*
X527675Y142022D01*
X527823Y142082D01*
X527853Y142097D01*
X527927Y142112D01*
X528061Y142141D01*
X528239Y142171D01*
X528447Y142215D01*
X528685Y142245D01*
X528938Y142260D01*
X529220Y142275D01*
X532920D01*
Y143478D01*
D02*
G37*
G36*
X520126Y139134D02*
X466786D01*
Y138828D01*
X520126D01*
Y139134D01*
D02*
G37*
G36*
Y138521D02*
X466786D01*
Y137908D01*
X520126D01*
Y138521D01*
D02*
G37*
G36*
Y137602D02*
X466786D01*
Y137295D01*
X520126D01*
Y137602D01*
D02*
G37*
G36*
Y136682D02*
X466786D01*
Y136375D01*
X520126D01*
Y136682D01*
D02*
G37*
G36*
Y136069D02*
X466786D01*
Y135762D01*
X520126D01*
Y136069D01*
D02*
G37*
G36*
Y135149D02*
X466786D01*
Y134843D01*
X520126D01*
Y135149D01*
D02*
G37*
G36*
Y134229D02*
X466786D01*
Y133923D01*
X520126D01*
Y134229D01*
D02*
G37*
G36*
Y133616D02*
X466786D01*
Y133003D01*
X520126D01*
Y133616D01*
D02*
G37*
G36*
Y132697D02*
X466786D01*
Y132390D01*
X520126D01*
Y132697D01*
D02*
G37*
G36*
Y132084D02*
X466786D01*
Y131777D01*
X520126D01*
Y132084D01*
D02*
G37*
G36*
X532920Y137604D02*
X523158D01*
Y136401D01*
X528715D01*
X525847Y133563D01*
Y132002D01*
X528477Y134707D01*
X532920Y131735D01*
Y133221D01*
X529309Y135569D01*
X530112Y136401D01*
X532920D01*
Y137604D01*
D02*
G37*
G36*
X520126Y131470D02*
X466786D01*
Y130857D01*
X520126D01*
Y131470D01*
D02*
G37*
G36*
Y130244D02*
X466786D01*
Y129938D01*
X520126D01*
Y130244D01*
D02*
G37*
G36*
Y129631D02*
X466786D01*
Y129325D01*
X520126D01*
Y129631D01*
D02*
G37*
G36*
Y128712D02*
X466786D01*
Y128405D01*
X520126D01*
Y128712D01*
D02*
G37*
G36*
Y128098D02*
X466786D01*
Y127792D01*
X520126D01*
Y128098D01*
D02*
G37*
G36*
Y127179D02*
X466786D01*
Y126872D01*
X520126D01*
Y127179D01*
D02*
G37*
G36*
X533083Y129962D02*
X522994Y127139D01*
Y126188D01*
X533083Y129011D01*
Y129962D01*
D02*
G37*
G36*
X520126Y126259D02*
X466786D01*
Y125953D01*
X520126D01*
Y126259D01*
D02*
G37*
G36*
Y125646D02*
X466786D01*
Y125033D01*
X520126D01*
Y125646D01*
D02*
G37*
G36*
Y124726D02*
X466786D01*
Y124420D01*
X520126D01*
Y124726D01*
D02*
G37*
G36*
Y124113D02*
X466786D01*
Y123807D01*
X520126D01*
Y124113D01*
D02*
G37*
G36*
Y123500D02*
X466786D01*
Y123194D01*
X520126D01*
Y123500D01*
D02*
G37*
G36*
Y122580D02*
X466786D01*
Y121967D01*
X520126D01*
Y122580D01*
D02*
G37*
G36*
Y121661D02*
X466786D01*
Y121354D01*
X520126D01*
Y121661D01*
D02*
G37*
G36*
Y120741D02*
X466786D01*
Y120435D01*
X520126D01*
Y120741D01*
D02*
G37*
G36*
Y119822D02*
X466786D01*
Y119515D01*
X520126D01*
Y119822D01*
D02*
G37*
G36*
Y119208D02*
X466786D01*
Y118902D01*
X520126D01*
Y119208D01*
D02*
G37*
G36*
X529785Y124972D02*
X529681Y123753D01*
X529710D01*
X529800Y123738D01*
X529933Y123709D01*
X530112Y123679D01*
X530305Y123619D01*
X530513Y123560D01*
X530706Y123471D01*
X530899Y123367D01*
X530914Y123352D01*
X530974Y123307D01*
X531063Y123233D01*
X531167Y123114D01*
X531286Y122980D01*
X531419Y122817D01*
X531538Y122609D01*
X531657Y122386D01*
Y122371D01*
X531672Y122356D01*
X531702Y122267D01*
X531746Y122134D01*
X531791Y121940D01*
X531850Y121732D01*
X531895Y121465D01*
X531924Y121183D01*
X531939Y120885D01*
Y120766D01*
X531924Y120618D01*
X531910Y120455D01*
X531895Y120246D01*
X531850Y120038D01*
X531806Y119816D01*
X531731Y119593D01*
X531716Y119563D01*
X531687Y119503D01*
X531642Y119399D01*
X531568Y119281D01*
X531479Y119132D01*
X531375Y118998D01*
X531256Y118865D01*
X531122Y118746D01*
X531107Y118731D01*
X531048Y118701D01*
X530974Y118657D01*
X530869Y118597D01*
X530751Y118553D01*
X530602Y118508D01*
X530453Y118478D01*
X530290Y118463D01*
X530216D01*
X530126Y118478D01*
X530023Y118493D01*
X529889Y118523D01*
X529755Y118582D01*
X529621Y118642D01*
X529488Y118731D01*
X529473Y118746D01*
X529428Y118775D01*
X529369Y118850D01*
X529280Y118939D01*
X529190Y119058D01*
X529101Y119206D01*
X528997Y119399D01*
X528908Y119607D01*
X528893Y119622D01*
X528878Y119682D01*
X528849Y119801D01*
X528819Y119875D01*
X528789Y119964D01*
X528759Y120083D01*
X528730Y120202D01*
X528685Y120351D01*
X528641Y120499D01*
X528596Y120677D01*
X528551Y120885D01*
X528492Y121108D01*
X528433Y121346D01*
Y121361D01*
X528418Y121405D01*
X528403Y121480D01*
X528373Y121569D01*
X528343Y121673D01*
X528314Y121792D01*
X528239Y122074D01*
X528135Y122386D01*
X528031Y122698D01*
X527927Y122980D01*
X527883Y123114D01*
X527823Y123218D01*
Y123233D01*
X527808Y123248D01*
X527749Y123337D01*
X527675Y123456D01*
X527571Y123605D01*
X527437Y123783D01*
X527288Y123946D01*
X527110Y124110D01*
X526917Y124258D01*
X526887Y124273D01*
X526813Y124318D01*
X526709Y124362D01*
X526560Y124422D01*
X526382Y124496D01*
X526174Y124541D01*
X525936Y124585D01*
X525699Y124600D01*
X525565D01*
X525431Y124570D01*
X525253Y124541D01*
X525030Y124496D01*
X524807Y124422D01*
X524554Y124318D01*
X524317Y124184D01*
X524302D01*
X524287Y124169D01*
X524213Y124110D01*
X524094Y124006D01*
X523945Y123872D01*
X523797Y123709D01*
X523633Y123501D01*
X523470Y123248D01*
X523336Y122966D01*
Y122951D01*
X523321Y122936D01*
X523306Y122891D01*
X523276Y122817D01*
X523262Y122743D01*
X523232Y122654D01*
X523158Y122446D01*
X523098Y122178D01*
X523054Y121881D01*
X523009Y121539D01*
X522994Y121183D01*
Y121004D01*
X523009Y120900D01*
Y120796D01*
X523039Y120544D01*
X523083Y120246D01*
X523143Y119920D01*
X523232Y119593D01*
X523351Y119281D01*
Y119266D01*
X523366Y119251D01*
X523381Y119206D01*
X523410Y119147D01*
X523499Y118998D01*
X523603Y118805D01*
X523752Y118597D01*
X523930Y118389D01*
X524138Y118181D01*
X524376Y118003D01*
X524406Y117988D01*
X524495Y117928D01*
X524644Y117854D01*
X524822Y117780D01*
X525045Y117691D01*
X525312Y117602D01*
X525594Y117542D01*
X525906Y117512D01*
X525996Y118746D01*
X525951D01*
X525906Y118761D01*
X525847Y118775D01*
X525684Y118805D01*
X525476Y118865D01*
X525253Y118954D01*
X525030Y119073D01*
X524807Y119236D01*
X524614Y119429D01*
X524599Y119459D01*
X524539Y119533D01*
X524465Y119667D01*
X524376Y119845D01*
X524287Y120083D01*
X524213Y120380D01*
X524153Y120722D01*
X524138Y121123D01*
Y121316D01*
X524153Y121405D01*
Y121524D01*
X524198Y121777D01*
X524242Y122059D01*
X524317Y122342D01*
X524421Y122609D01*
X524495Y122728D01*
X524569Y122832D01*
X524584Y122847D01*
X524644Y122906D01*
X524733Y122995D01*
X524866Y123084D01*
X525015Y123189D01*
X525193Y123263D01*
X525387Y123322D01*
X525609Y123352D01*
X525699D01*
X525802Y123337D01*
X525921Y123307D01*
X526055Y123263D01*
X526204Y123189D01*
X526338Y123099D01*
X526471Y122980D01*
X526486Y122966D01*
X526531Y122891D01*
X526560Y122847D01*
X526605Y122787D01*
X526635Y122698D01*
X526679Y122594D01*
X526739Y122475D01*
X526798Y122342D01*
X526843Y122193D01*
X526902Y122015D01*
X526976Y121807D01*
X527036Y121584D01*
X527095Y121331D01*
X527170Y121049D01*
Y121034D01*
X527184Y120975D01*
X527199Y120900D01*
X527229Y120796D01*
X527259Y120662D01*
X527303Y120514D01*
X527378Y120187D01*
X527482Y119830D01*
X527586Y119474D01*
X527630Y119296D01*
X527690Y119147D01*
X527749Y118998D01*
X527794Y118879D01*
Y118865D01*
X527808Y118835D01*
X527838Y118805D01*
X527868Y118746D01*
X527957Y118597D01*
X528061Y118404D01*
X528210Y118196D01*
X528388Y117988D01*
X528581Y117795D01*
X528789Y117631D01*
X528819Y117616D01*
X528893Y117572D01*
X529012Y117498D01*
X529190Y117423D01*
X529384Y117349D01*
X529501Y117312D01*
X529458Y117314D01*
X529280D01*
X529161Y117299D01*
X529012Y117285D01*
X528834Y117270D01*
X528641Y117240D01*
X528433Y117195D01*
X527987Y117091D01*
X527764Y117017D01*
X527526Y116928D01*
X527303Y116824D01*
X527080Y116705D01*
X526872Y116571D01*
X526679Y116408D01*
X526664Y116393D01*
X526635Y116363D01*
X526590Y116319D01*
X526516Y116244D01*
X526441Y116155D01*
X526367Y116036D01*
X526278Y115918D01*
X526174Y115769D01*
X526085Y115605D01*
X525996Y115427D01*
X525921Y115234D01*
X525832Y115011D01*
X525773Y114788D01*
X525728Y114551D01*
X525699Y114298D01*
X525684Y114031D01*
Y113897D01*
X525699Y113793D01*
X525713Y113674D01*
X525728Y113525D01*
X525758Y113377D01*
X525802Y113198D01*
X525921Y112842D01*
X525996Y112649D01*
X526100Y112455D01*
X526204Y112262D01*
X526338Y112069D01*
X526486Y111891D01*
X526664Y111713D01*
X526679Y111698D01*
X526709Y111668D01*
X526768Y111623D01*
X526843Y111564D01*
X526947Y111504D01*
X527066Y111430D01*
X527199Y111341D01*
X527363Y111252D01*
X527556Y111178D01*
X527749Y111088D01*
X527972Y111014D01*
X528224Y110940D01*
X528477Y110895D01*
X528759Y110851D01*
X529057Y110821D01*
X529384Y110806D01*
X529562D01*
X529696Y110821D01*
Y116081D01*
X529740D01*
X529814Y116066D01*
X529889D01*
X529993Y116051D01*
X530097Y116036D01*
X530364Y115977D01*
X530647Y115888D01*
X530944Y115784D01*
X531241Y115620D01*
X531493Y115427D01*
X531523Y115398D01*
X531583Y115323D01*
X531687Y115190D01*
X531791Y115026D01*
X531910Y114803D01*
X532014Y114551D01*
X532073Y114268D01*
X532103Y113956D01*
Y113837D01*
X532088Y113718D01*
X532058Y113570D01*
X532014Y113392D01*
X531954Y113198D01*
X531880Y113005D01*
X531761Y112827D01*
X531746Y112812D01*
X531687Y112753D01*
X531612Y112663D01*
X531479Y112559D01*
X531330Y112441D01*
X531137Y112322D01*
X530899Y112203D01*
X530632Y112084D01*
X530795Y110851D01*
X530810D01*
X530840Y110865D01*
X530899Y110880D01*
X530974Y110910D01*
X531063Y110940D01*
X531167Y110984D01*
X531419Y111103D01*
X531687Y111252D01*
X531969Y111430D01*
X532251Y111668D01*
X532489Y111935D01*
Y111950D01*
X532519Y111965D01*
X532548Y112010D01*
X532578Y112084D01*
X532623Y112158D01*
X532682Y112247D01*
X532727Y112351D01*
X532786Y112485D01*
X532890Y112767D01*
X532994Y113124D01*
X533054Y113510D01*
X533083Y113956D01*
Y114105D01*
X533069Y114209D01*
X533054Y114342D01*
X533039Y114491D01*
X533009Y114655D01*
X532965Y114848D01*
X532846Y115234D01*
X532771Y115442D01*
X532682Y115635D01*
X532578Y115843D01*
X532444Y116036D01*
X532296Y116230D01*
X532132Y116408D01*
X532118Y116423D01*
X532088Y116453D01*
X532029Y116497D01*
X531954Y116542D01*
X531865Y116616D01*
X531746Y116690D01*
X531598Y116779D01*
X531434Y116854D01*
X531256Y116943D01*
X531063Y117032D01*
X530840Y117106D01*
X530602Y117166D01*
X530352Y117225D01*
X530453Y117245D01*
X530647Y117275D01*
X530869Y117319D01*
X531122Y117408D01*
X531390Y117512D01*
X531642Y117661D01*
X531672Y117676D01*
X531761Y117750D01*
X531880Y117839D01*
X532029Y117988D01*
X532207Y118166D01*
X532385Y118389D01*
X532548Y118657D01*
X532712Y118954D01*
Y118969D01*
X532727Y118998D01*
X532742Y119043D01*
X532771Y119102D01*
X532801Y119177D01*
X532831Y119266D01*
X532890Y119503D01*
X532965Y119771D01*
X533024Y120098D01*
X533069Y120440D01*
X533083Y120826D01*
Y121049D01*
X533069Y121153D01*
Y121287D01*
X533054Y121435D01*
X533039Y121599D01*
X532994Y121940D01*
X532920Y122312D01*
X532831Y122683D01*
X532712Y123040D01*
Y123055D01*
X532697Y123084D01*
X532667Y123129D01*
X532638Y123189D01*
X532548Y123352D01*
X532415Y123545D01*
X532251Y123783D01*
X532058Y124006D01*
X531820Y124243D01*
X531553Y124452D01*
X531538D01*
X531523Y124466D01*
X531479Y124496D01*
X531419Y124526D01*
X531345Y124570D01*
X531256Y124615D01*
X531033Y124704D01*
X530780Y124793D01*
X530468Y124882D01*
X530141Y124942D01*
X529785Y124972D01*
D02*
G37*
G36*
X520126Y118289D02*
X466786D01*
Y117982D01*
X520126D01*
Y118289D01*
D02*
G37*
G36*
Y117676D02*
X466786D01*
Y117063D01*
X520126D01*
Y117676D01*
D02*
G37*
G36*
Y116756D02*
X466786D01*
Y116449D01*
X520126D01*
Y116756D01*
D02*
G37*
G36*
Y116143D02*
X466786D01*
Y115530D01*
X520126D01*
Y116143D01*
D02*
G37*
G36*
Y115223D02*
X466786D01*
Y114917D01*
X520126D01*
Y115223D01*
D02*
G37*
G36*
Y114304D02*
X466786D01*
Y113997D01*
X520126D01*
Y114304D01*
D02*
G37*
G36*
Y113691D02*
X466786D01*
Y113384D01*
X520126D01*
Y113691D01*
D02*
G37*
G36*
Y113077D02*
X466786D01*
Y112464D01*
X520126D01*
Y113077D01*
D02*
G37*
G36*
Y112158D02*
X466786D01*
Y111851D01*
X520126D01*
Y112158D01*
D02*
G37*
G36*
Y111545D02*
X466786D01*
Y110932D01*
X520126D01*
Y111545D01*
D02*
G37*
G36*
Y110318D02*
X466786D01*
Y110012D01*
X520126D01*
Y110318D01*
D02*
G37*
G36*
Y109705D02*
X466786D01*
Y109399D01*
X520126D01*
Y109705D01*
D02*
G37*
G36*
Y108786D02*
X466786D01*
Y108479D01*
X520126D01*
Y108786D01*
D02*
G37*
G36*
Y108173D02*
X466786D01*
Y107866D01*
X520126D01*
Y108173D01*
D02*
G37*
G36*
Y107253D02*
X466786D01*
Y106946D01*
X520126D01*
Y107253D01*
D02*
G37*
G36*
Y106333D02*
X466786D01*
Y106027D01*
X520126D01*
Y106333D01*
D02*
G37*
G36*
Y105720D02*
X466786D01*
Y105107D01*
X520126D01*
Y105720D01*
D02*
G37*
G36*
Y104800D02*
X466786D01*
Y104494D01*
X520126D01*
Y104800D01*
D02*
G37*
G36*
X529413Y109872D02*
X529220D01*
X529116Y109858D01*
X529012D01*
X528730Y109828D01*
X528418Y109783D01*
X528091Y109709D01*
X527734Y109620D01*
X527407Y109501D01*
X527392D01*
X527363Y109486D01*
X527318Y109456D01*
X527259Y109427D01*
X527110Y109338D01*
X526917Y109219D01*
X526709Y109055D01*
X526501Y108862D01*
X526293Y108624D01*
X526115Y108357D01*
Y108342D01*
X526100Y108327D01*
X526070Y108282D01*
X526040Y108223D01*
X525981Y108060D01*
X525892Y107852D01*
X525817Y107614D01*
X525743Y107317D01*
X525699Y107005D01*
X525684Y106678D01*
Y106559D01*
X525699Y106484D01*
Y106381D01*
X525713Y106277D01*
X525758Y106009D01*
X525832Y105712D01*
X525936Y105385D01*
X526085Y105073D01*
X526278Y104791D01*
Y104776D01*
X526308Y104761D01*
X526382Y104672D01*
X526516Y104553D01*
X526694Y104404D01*
X526932Y104241D01*
X527214Y104092D01*
X527556Y103959D01*
X527927Y103855D01*
X528106Y105014D01*
X528091D01*
X528076Y105028D01*
X527987Y105043D01*
X527868Y105088D01*
X527705Y105147D01*
X527526Y105236D01*
X527348Y105340D01*
X527184Y105459D01*
X527036Y105608D01*
X527021Y105623D01*
X526976Y105682D01*
X526917Y105771D01*
X526843Y105890D01*
X526783Y106039D01*
X526724Y106202D01*
X526679Y106410D01*
X526664Y106618D01*
Y106707D01*
X526679Y106767D01*
X526694Y106930D01*
X526739Y107138D01*
X526828Y107376D01*
X526947Y107614D01*
X527095Y107866D01*
X527199Y107985D01*
X527318Y108089D01*
X527348Y108119D01*
X527392Y108134D01*
X527437Y108179D01*
X527511Y108223D01*
X527601Y108268D01*
X527705Y108312D01*
X527823Y108357D01*
X527957Y108416D01*
X528106Y108461D01*
X528284Y108505D01*
X528462Y108550D01*
X528670Y108595D01*
X528893Y108609D01*
X529131Y108639D01*
X529517D01*
X529621Y108624D01*
X529740D01*
X529874Y108609D01*
X530171Y108565D01*
X530513Y108505D01*
X530869Y108416D01*
X531181Y108282D01*
X531330Y108193D01*
X531464Y108104D01*
X531493Y108075D01*
X531568Y108000D01*
X531672Y107881D01*
X531776Y107718D01*
X531895Y107525D01*
X531999Y107272D01*
X532073Y107005D01*
X532088Y106856D01*
X532103Y106693D01*
Y106574D01*
X532073Y106440D01*
X532043Y106277D01*
X531999Y106098D01*
X531924Y105890D01*
X531820Y105697D01*
X531672Y105519D01*
X531657Y105504D01*
X531583Y105444D01*
X531493Y105355D01*
X531345Y105266D01*
X531152Y105162D01*
X530929Y105058D01*
X530647Y104969D01*
X530335Y104909D01*
X530498Y103736D01*
X530513D01*
X530557Y103750D01*
X530617Y103765D01*
X530691Y103780D01*
X530795Y103810D01*
X530914Y103840D01*
X531196Y103929D01*
X531493Y104062D01*
X531820Y104241D01*
X532118Y104464D01*
X532400Y104731D01*
Y104746D01*
X532430Y104761D01*
X532459Y104805D01*
X532504Y104865D01*
X532563Y104954D01*
X532623Y105043D01*
X532742Y105266D01*
X532861Y105548D01*
X532979Y105890D01*
X533054Y106262D01*
X533069Y106470D01*
X533083Y106678D01*
Y106811D01*
X533069Y106916D01*
X533054Y107034D01*
X533039Y107183D01*
X533009Y107331D01*
X532965Y107510D01*
X532861Y107881D01*
X532771Y108075D01*
X532682Y108268D01*
X532578Y108461D01*
X532459Y108639D01*
X532311Y108817D01*
X532147Y108996D01*
X532132Y109011D01*
X532103Y109040D01*
X532043Y109070D01*
X531969Y109129D01*
X531865Y109204D01*
X531746Y109278D01*
X531612Y109352D01*
X531449Y109427D01*
X531271Y109516D01*
X531063Y109590D01*
X530840Y109664D01*
X530587Y109739D01*
X530335Y109798D01*
X530037Y109828D01*
X529740Y109858D01*
X529413Y109872D01*
D02*
G37*
G36*
X520126Y104187D02*
X466786D01*
Y103574D01*
X520126D01*
Y104187D01*
D02*
G37*
G36*
Y102961D02*
X466786D01*
Y102655D01*
X520126D01*
Y102961D01*
D02*
G37*
G36*
Y102348D02*
X466786D01*
Y102042D01*
X520126D01*
Y102348D01*
D02*
G37*
G36*
Y101735D02*
X466786D01*
Y101428D01*
X520126D01*
Y101735D01*
D02*
G37*
G36*
Y100815D02*
X466786D01*
Y100509D01*
X520126D01*
Y100815D01*
D02*
G37*
G36*
Y100202D02*
X466786D01*
Y99896D01*
X520126D01*
Y100202D01*
D02*
G37*
G36*
Y99283D02*
X466786D01*
Y98976D01*
X520126D01*
Y99283D01*
D02*
G37*
G36*
Y98363D02*
X466786D01*
Y98056D01*
X520126D01*
Y98363D01*
D02*
G37*
G36*
Y97750D02*
X466786D01*
Y97137D01*
X520126D01*
Y97750D01*
D02*
G37*
G36*
X532920Y102787D02*
X523158D01*
Y101494D01*
X531776D01*
Y96695D01*
X532920D01*
Y102787D01*
D02*
G37*
G36*
X520126Y96830D02*
X466786D01*
Y96217D01*
X520126D01*
Y96830D01*
D02*
G37*
G36*
Y95910D02*
X466786D01*
Y95604D01*
X520126D01*
Y95910D01*
D02*
G37*
G36*
Y94991D02*
X466786D01*
Y94684D01*
X520126D01*
Y94991D01*
D02*
G37*
G36*
Y94378D02*
X466786D01*
Y94071D01*
X520126D01*
Y94378D01*
D02*
G37*
G36*
Y93764D02*
X466786D01*
Y93458D01*
X520126D01*
Y93764D01*
D02*
G37*
G36*
Y93151D02*
X466786D01*
Y92538D01*
X520126D01*
Y93151D01*
D02*
G37*
G36*
Y92232D02*
X466786D01*
Y91925D01*
X520126D01*
Y92232D01*
D02*
G37*
G36*
Y91619D02*
X466786D01*
Y91312D01*
X520126D01*
Y91619D01*
D02*
G37*
G36*
Y90699D02*
X466786D01*
Y90086D01*
X520126D01*
Y90699D01*
D02*
G37*
G36*
Y89779D02*
X466786D01*
Y89473D01*
X520126D01*
Y89779D01*
D02*
G37*
G36*
Y88860D02*
X466786D01*
Y88553D01*
X520126D01*
Y88860D01*
D02*
G37*
G36*
Y88247D02*
X466786D01*
Y87940D01*
X520126D01*
Y88247D01*
D02*
G37*
G36*
Y87327D02*
X466786D01*
Y87020D01*
X520126D01*
Y87327D01*
D02*
G37*
G36*
Y86407D02*
X466786D01*
Y86101D01*
X520126D01*
Y86407D01*
D02*
G37*
G36*
Y85794D02*
X466786D01*
Y85181D01*
X520126D01*
Y85794D01*
D02*
G37*
G36*
Y84874D02*
X466786D01*
Y84568D01*
X520126D01*
Y84874D01*
D02*
G37*
G36*
Y84261D02*
X466786D01*
Y83648D01*
X520126D01*
Y84261D01*
D02*
G37*
G36*
Y83342D02*
X466786D01*
Y83035D01*
X520126D01*
Y83342D01*
D02*
G37*
G36*
X529384Y96319D02*
X529294D01*
X529190Y96304D01*
X529057D01*
X528893Y96289D01*
X528715Y96259D01*
X528507Y96229D01*
X528284Y96185D01*
X528046Y96125D01*
X527808Y96051D01*
X527571Y95962D01*
X527333Y95858D01*
X527095Y95739D01*
X526872Y95590D01*
X526664Y95427D01*
X526471Y95234D01*
X526456Y95219D01*
X526441Y95189D01*
X526397Y95145D01*
X526352Y95070D01*
X526293Y94981D01*
X526219Y94877D01*
X526144Y94758D01*
X526070Y94610D01*
X526011Y94461D01*
X525936Y94298D01*
X525802Y93911D01*
X525713Y93481D01*
X525699Y93243D01*
X525684Y93005D01*
Y92871D01*
X525699Y92767D01*
X525713Y92633D01*
X525728Y92500D01*
X525758Y92336D01*
X525802Y92158D01*
X525921Y91786D01*
X525996Y91593D01*
X526085Y91385D01*
X526204Y91192D01*
X526338Y90999D01*
X526486Y90806D01*
X526650Y90627D01*
X526664Y90613D01*
X526694Y90583D01*
X526754Y90538D01*
X526828Y90479D01*
X526917Y90405D01*
X527036Y90330D01*
X527184Y90241D01*
X527333Y90152D01*
X527511Y90078D01*
X527719Y89989D01*
X527927Y89914D01*
X528165Y89840D01*
X528312Y89805D01*
X523158D01*
Y85273D01*
X523172Y85154D01*
Y85036D01*
X523187Y84738D01*
X523217Y84426D01*
X523276Y84100D01*
X523336Y83787D01*
X523381Y83639D01*
X523425Y83505D01*
Y83490D01*
X523440Y83475D01*
X523470Y83386D01*
X523544Y83267D01*
X523648Y83119D01*
X523767Y82941D01*
X523930Y82762D01*
X524123Y82584D01*
X524361Y82420D01*
X524391Y82406D01*
X524480Y82361D01*
X524614Y82287D01*
X524792Y82212D01*
X525015Y82138D01*
X525268Y82064D01*
X525535Y82019D01*
X525832Y82004D01*
X525936D01*
X526011Y82019D01*
X526100D01*
X526204Y82034D01*
X526441Y82093D01*
X526724Y82168D01*
X527006Y82287D01*
X527303Y82465D01*
X527452Y82569D01*
X527586Y82688D01*
X527615Y82718D01*
X527645Y82762D01*
X527705Y82807D01*
X527749Y82881D01*
X527823Y82970D01*
X527883Y83074D01*
X527957Y83193D01*
X528031Y83327D01*
X528106Y83490D01*
X528180Y83654D01*
X528254Y83847D01*
X528329Y84040D01*
X528388Y84263D01*
X528433Y84501D01*
X528477Y84753D01*
X528492Y84724D01*
X528522Y84664D01*
X528566Y84575D01*
X528626Y84471D01*
X528789Y84218D01*
X528878Y84085D01*
X528968Y83981D01*
X528997Y83951D01*
X529057Y83877D01*
X529175Y83773D01*
X529324Y83639D01*
X529517Y83475D01*
X529740Y83297D01*
X529993Y83104D01*
X530275Y82911D01*
X531373Y82208D01*
X531063Y82237D01*
X530974D01*
X530869Y82222D01*
X530751Y82207D01*
X530602Y82178D01*
X530438Y82148D01*
X530275Y82089D01*
X530112Y82014D01*
X530097Y81999D01*
X530037Y81970D01*
X529963Y81925D01*
X529859Y81851D01*
X529755Y81762D01*
X529636Y81643D01*
X529532Y81524D01*
X529428Y81390D01*
X529413Y81375D01*
X529384Y81316D01*
X529339Y81242D01*
X529280Y81138D01*
X529205Y81004D01*
X529146Y80870D01*
X529086Y80707D01*
X529027Y80528D01*
Y80513D01*
X529012Y80454D01*
X528997Y80380D01*
X528968Y80261D01*
X528938Y80112D01*
X528908Y79919D01*
X528878Y79711D01*
X528849Y79458D01*
Y79444D01*
X528834Y79399D01*
Y79325D01*
X528819Y79221D01*
X528804Y79102D01*
X528789Y78968D01*
X528730Y78641D01*
X528670Y78299D01*
X528611Y77943D01*
X528522Y77601D01*
X528477Y77453D01*
X528433Y77319D01*
X528388D01*
X528299Y77304D01*
X528002D01*
X527868Y77319D01*
X527719Y77348D01*
X527556Y77393D01*
X527378Y77453D01*
X527229Y77527D01*
X527095Y77646D01*
X527080Y77661D01*
X527036Y77735D01*
X526962Y77839D01*
X526887Y77987D01*
X526813Y78181D01*
X526739Y78418D01*
X526694Y78701D01*
X526679Y79013D01*
Y79146D01*
X526694Y79295D01*
X526709Y79488D01*
X526754Y79696D01*
X526798Y79889D01*
X526872Y80098D01*
X526976Y80261D01*
X526991Y80276D01*
X527036Y80320D01*
X527110Y80395D01*
X527214Y80484D01*
X527363Y80588D01*
X527541Y80677D01*
X527764Y80781D01*
X528017Y80855D01*
X527853Y82029D01*
X527838D01*
X527823Y82014D01*
X527734Y81999D01*
X527601Y81955D01*
X527422Y81910D01*
X527229Y81836D01*
X527036Y81747D01*
X526828Y81643D01*
X526650Y81509D01*
X526635Y81494D01*
X526575Y81435D01*
X526486Y81361D01*
X526382Y81242D01*
X526278Y81093D01*
X526159Y80900D01*
X526040Y80692D01*
X525936Y80454D01*
Y80439D01*
X525921Y80424D01*
X525906Y80380D01*
X525892Y80335D01*
X525862Y80187D01*
X525802Y79993D01*
X525758Y79756D01*
X525728Y79488D01*
X525699Y79176D01*
X525684Y78849D01*
Y78701D01*
X525699Y78537D01*
X525713Y78329D01*
X525743Y78092D01*
X525773Y77839D01*
X525832Y77601D01*
X525906Y77378D01*
X525921Y77348D01*
X525936Y77289D01*
X525996Y77185D01*
X526055Y77066D01*
X526129Y76933D01*
X526219Y76784D01*
X526323Y76665D01*
X526441Y76546D01*
X526456Y76531D01*
X526501Y76502D01*
X526560Y76457D01*
X526664Y76398D01*
X526783Y76338D01*
X526917Y76279D01*
X527080Y76219D01*
X527259Y76175D01*
X527274D01*
X527318Y76160D01*
X527392Y76145D01*
X527511Y76130D01*
X527660D01*
X527853Y76115D01*
X528076Y76100D01*
X530513D01*
X530855Y76086D01*
X531226D01*
X531568Y76071D01*
X531731Y76056D01*
X531805D01*
X523158Y72752D01*
Y71340D01*
X532920Y67373D01*
Y68829D01*
X529963Y69959D01*
Y74060D01*
X532920Y75115D01*
Y75729D01*
Y76977D01*
X532905Y76992D01*
X532861Y77007D01*
X532771Y77036D01*
X532667Y77081D01*
X532534Y77126D01*
X532385Y77155D01*
X532222Y77185D01*
X532029Y77215D01*
X532058Y77245D01*
X532118Y77334D01*
X532222Y77453D01*
X532341Y77631D01*
X532489Y77824D01*
X532623Y78047D01*
X532742Y78270D01*
X532846Y78507D01*
X532861Y78537D01*
X532875Y78612D01*
X532920Y78730D01*
X532965Y78894D01*
X533009Y79102D01*
X533039Y79325D01*
X533069Y79563D01*
X533083Y79830D01*
Y79934D01*
X533069Y80023D01*
Y80112D01*
X533054Y80231D01*
X533009Y80484D01*
X532950Y80781D01*
X532846Y81063D01*
X532719Y81346D01*
X532920Y81217D01*
Y82837D01*
X530899Y84129D01*
X530884D01*
X530855Y84159D01*
X530810Y84189D01*
X530751Y84218D01*
X530602Y84322D01*
X530409Y84456D01*
X530186Y84605D01*
X529963Y84768D01*
X529755Y84917D01*
X529562Y85065D01*
X529547Y85080D01*
X529488Y85125D01*
X529398Y85199D01*
X529294Y85273D01*
X529086Y85496D01*
X528982Y85600D01*
X528908Y85719D01*
X528893Y85734D01*
X528878Y85764D01*
X528849Y85823D01*
X528804Y85897D01*
X528715Y86076D01*
X528641Y86299D01*
Y86313D01*
X528626Y86343D01*
Y86403D01*
X528611Y86477D01*
X528596Y86581D01*
Y86700D01*
X528581Y86848D01*
Y88513D01*
X532920D01*
Y89805D01*
X530471D01*
X530780Y89870D01*
X531137Y89974D01*
X531449Y90107D01*
X531464D01*
X531479Y90122D01*
X531583Y90182D01*
X531716Y90286D01*
X531895Y90420D01*
X532088Y90583D01*
X532281Y90791D01*
X532474Y91029D01*
X532653Y91311D01*
Y91326D01*
X532667Y91341D01*
X532697Y91385D01*
X532712Y91445D01*
X532786Y91608D01*
X532861Y91816D01*
X532950Y92069D01*
X533009Y92351D01*
X533069Y92663D01*
X533083Y93005D01*
Y93154D01*
X533069Y93258D01*
X533054Y93376D01*
X533039Y93525D01*
X533009Y93688D01*
X532965Y93867D01*
X532846Y94238D01*
X532771Y94446D01*
X532682Y94640D01*
X532578Y94847D01*
X532444Y95041D01*
X532296Y95234D01*
X532132Y95412D01*
X532118Y95427D01*
X532088Y95457D01*
X532029Y95501D01*
X531954Y95546D01*
X531850Y95620D01*
X531731Y95694D01*
X531598Y95784D01*
X531434Y95858D01*
X531241Y95947D01*
X531048Y96036D01*
X530810Y96110D01*
X530572Y96170D01*
X530305Y96229D01*
X530023Y96274D01*
X529710Y96304D01*
X529384Y96319D01*
D02*
G37*
G36*
X520126Y82422D02*
X466786D01*
Y82115D01*
X520126D01*
Y82422D01*
D02*
G37*
G36*
Y81809D02*
X466786D01*
Y81196D01*
X520126D01*
Y81809D01*
D02*
G37*
G36*
Y80889D02*
X466786D01*
Y80583D01*
X520126D01*
Y80889D01*
D02*
G37*
G36*
Y80276D02*
X466786D01*
Y79970D01*
X520126D01*
Y80276D01*
D02*
G37*
G36*
Y79663D02*
X466786D01*
Y79050D01*
X520126D01*
Y79663D01*
D02*
G37*
G36*
Y78437D02*
X466786D01*
Y78130D01*
X520126D01*
Y78437D01*
D02*
G37*
G36*
Y77824D02*
X466786D01*
Y77517D01*
X520126D01*
Y77824D01*
D02*
G37*
G36*
Y76904D02*
X466786D01*
Y76598D01*
X520126D01*
Y76904D01*
D02*
G37*
G36*
Y76291D02*
X466786D01*
Y75985D01*
X520126D01*
Y76291D01*
D02*
G37*
G36*
Y75371D02*
X466786D01*
Y75065D01*
X520126D01*
Y75371D01*
D02*
G37*
G36*
Y74452D02*
X466786D01*
Y74145D01*
X520126D01*
Y74452D01*
D02*
G37*
G36*
Y73839D02*
X466786D01*
Y73225D01*
X520126D01*
Y73839D01*
D02*
G37*
G36*
Y72919D02*
X466786D01*
Y72612D01*
X520126D01*
Y72919D01*
D02*
G37*
G36*
Y72306D02*
X466786D01*
Y71999D01*
X520126D01*
Y72306D01*
D02*
G37*
G36*
Y71386D02*
X466786D01*
Y71080D01*
X520126D01*
Y71386D01*
D02*
G37*
G36*
Y70773D02*
X466786D01*
Y70160D01*
X520126D01*
Y70773D01*
D02*
G37*
G36*
Y69853D02*
X466786D01*
Y69240D01*
X520126D01*
Y69853D01*
D02*
G37*
G36*
Y68934D02*
X466786D01*
Y68627D01*
X520126D01*
Y68934D01*
D02*
G37*
G36*
Y68321D02*
X466786D01*
Y68014D01*
X520126D01*
Y68321D01*
D02*
G37*
G36*
Y67401D02*
X466786D01*
Y67094D01*
X520126D01*
Y67401D01*
D02*
G37*
G36*
Y66788D02*
X466786D01*
Y66175D01*
X520126D01*
Y66788D01*
D02*
G37*
G36*
Y65868D02*
X466786D01*
Y65562D01*
X520126D01*
Y65868D01*
D02*
G37*
G36*
Y65255D02*
X466786D01*
Y64949D01*
X520126D01*
Y65255D01*
D02*
G37*
G36*
Y64642D02*
X466786D01*
Y64029D01*
X520126D01*
Y64642D01*
D02*
G37*
G36*
Y63722D02*
X466786D01*
Y63109D01*
X520126D01*
Y63722D01*
D02*
G37*
G36*
Y62496D02*
X466786D01*
Y62190D01*
X520126D01*
Y62496D01*
D02*
G37*
G36*
Y61883D02*
X466786D01*
Y61270D01*
X520126D01*
Y61883D01*
D02*
G37*
G36*
Y60963D02*
X466786D01*
Y60350D01*
X520126D01*
Y60963D01*
D02*
G37*
G36*
Y60044D02*
X466786D01*
Y59737D01*
X520126D01*
Y60044D01*
D02*
G37*
G36*
Y59431D02*
X466786D01*
Y59124D01*
X520126D01*
Y59431D01*
D02*
G37*
G36*
Y58511D02*
X466786D01*
Y58204D01*
X520126D01*
Y58511D01*
D02*
G37*
G36*
Y57898D02*
X466786D01*
Y57591D01*
X520126D01*
Y57898D01*
D02*
G37*
G36*
Y56978D02*
X466786D01*
Y56672D01*
X520126D01*
Y56978D01*
D02*
G37*
G36*
Y56365D02*
X466786D01*
Y55752D01*
X520126D01*
Y56365D01*
D02*
G37*
G36*
Y55445D02*
X466786D01*
Y54832D01*
X520126D01*
Y55445D01*
D02*
G37*
G36*
Y54526D02*
X466786D01*
Y54219D01*
X520126D01*
Y54526D01*
D02*
G37*
G36*
X524302Y68735D02*
X523158D01*
Y61023D01*
Y60617D01*
X530067Y58299D01*
X530082D01*
X530112Y58284D01*
X530156Y58270D01*
X530230Y58255D01*
X530394Y58195D01*
X530602Y58121D01*
X530840Y58047D01*
X531077Y57972D01*
X531315Y57898D01*
X531508Y57839D01*
X531479Y57824D01*
X531404Y57809D01*
X531286Y57764D01*
X531122Y57705D01*
X530899Y57646D01*
X530632Y57556D01*
X530320Y57438D01*
X529948Y57319D01*
X523158Y54986D01*
Y53232D01*
X532920D01*
Y54481D01*
X524748D01*
X532920Y57333D01*
Y58492D01*
X524614Y61301D01*
X532920D01*
Y62549D01*
X524302D01*
Y64233D01*
X532920D01*
Y65526D01*
X524302D01*
Y68735D01*
D02*
G37*
%LPD*%
G36*
X529651Y298292D02*
X529770D01*
X529889Y298277D01*
X530186Y298232D01*
X530528Y298173D01*
X530855Y298084D01*
X531167Y297950D01*
X531315Y297861D01*
X531449Y297772D01*
X531479Y297742D01*
X531553Y297668D01*
X531657Y297549D01*
X531776Y297400D01*
X531895Y297207D01*
X531999Y296970D01*
X532073Y296717D01*
X532088Y296583D01*
X532103Y296435D01*
Y296360D01*
X532088Y296301D01*
X532073Y296152D01*
X532014Y295974D01*
X531939Y295751D01*
X531820Y295528D01*
X531657Y295305D01*
X531553Y295186D01*
X531434Y295082D01*
X531419D01*
X531404Y295053D01*
X531360Y295023D01*
X531300Y294993D01*
X531226Y294949D01*
X531137Y294904D01*
X531033Y294845D01*
X530914Y294785D01*
X530780Y294741D01*
X530617Y294681D01*
X530453Y294637D01*
X530260Y294592D01*
X530052Y294562D01*
X529829Y294533D01*
X529592Y294503D01*
X529205D01*
X529116Y294518D01*
X528997D01*
X528863Y294533D01*
X528566Y294577D01*
X528239Y294637D01*
X527898Y294741D01*
X527586Y294874D01*
X527437Y294963D01*
X527303Y295068D01*
X527288D01*
X527274Y295097D01*
X527199Y295172D01*
X527080Y295276D01*
X526962Y295439D01*
X526843Y295632D01*
X526724Y295855D01*
X526650Y296108D01*
X526620Y296241D01*
Y296449D01*
X526635Y296509D01*
X526664Y296643D01*
X526709Y296836D01*
X526798Y297044D01*
X526932Y297267D01*
X527006Y297386D01*
X527110Y297504D01*
X527214Y297623D01*
X527348Y297727D01*
X527363D01*
X527378Y297757D01*
X527422Y297787D01*
X527482Y297817D01*
X527556Y297861D01*
X527645Y297906D01*
X527749Y297965D01*
X527868Y298010D01*
X528017Y298069D01*
X528165Y298129D01*
X528343Y298173D01*
X528522Y298218D01*
X528730Y298247D01*
X528953Y298277D01*
X529175Y298307D01*
X529562D01*
X529651Y298292D01*
D02*
G37*
G36*
X529488Y263527D02*
X529606D01*
X529740Y263512D01*
X530037Y263467D01*
X530364Y263408D01*
X530706Y263304D01*
X531018Y263170D01*
X531152Y263081D01*
X531286Y262992D01*
X531315Y262962D01*
X531390Y262888D01*
X531493Y262769D01*
X531598Y262606D01*
X531716Y262412D01*
X531820Y262175D01*
X531895Y261907D01*
X531910Y261759D01*
X531924Y261610D01*
Y261536D01*
X531910Y261476D01*
X531895Y261313D01*
X531850Y261120D01*
X531776Y260912D01*
X531657Y260674D01*
X531508Y260451D01*
X531300Y260228D01*
X531286D01*
X531271Y260198D01*
X531226Y260169D01*
X531181Y260139D01*
X531107Y260094D01*
X531033Y260050D01*
X530929Y260005D01*
X530810Y259946D01*
X530676Y259886D01*
X530528Y259842D01*
X530364Y259797D01*
X530186Y259753D01*
X529993Y259708D01*
X529785Y259693D01*
X529547Y259664D01*
X529190D01*
X529101Y259678D01*
X528982D01*
X528863Y259693D01*
X528566Y259738D01*
X528254Y259797D01*
X527927Y259901D01*
X527615Y260050D01*
X527482Y260139D01*
X527348Y260243D01*
X527333D01*
X527318Y260273D01*
X527244Y260347D01*
X527140Y260466D01*
X527006Y260629D01*
X526887Y260823D01*
X526783Y261060D01*
X526709Y261328D01*
X526679Y261476D01*
Y261699D01*
X526694Y261759D01*
X526709Y261907D01*
X526754Y262100D01*
X526843Y262308D01*
X526962Y262546D01*
X527110Y262769D01*
X527214Y262888D01*
X527333Y262992D01*
X527363Y263022D01*
X527407Y263036D01*
X527452Y263081D01*
X527526Y263126D01*
X527601Y263170D01*
X527705Y263215D01*
X527823Y263259D01*
X527942Y263319D01*
X528091Y263363D01*
X528254Y263408D01*
X528418Y263453D01*
X528819Y263512D01*
X529265Y263542D01*
X529398D01*
X529488Y263527D01*
D02*
G37*
G36*
X529651Y228138D02*
X529770D01*
X530052Y228108D01*
X530349Y228063D01*
X530661Y228004D01*
X530944Y227930D01*
X531063Y227870D01*
X531181Y227811D01*
X531196D01*
X531226Y227781D01*
X531271Y227751D01*
X531330Y227707D01*
X531479Y227588D01*
X531642Y227410D01*
X531806Y227187D01*
X531954Y226919D01*
X532014Y226786D01*
X532058Y226622D01*
X532088Y226459D01*
X532103Y226280D01*
Y226206D01*
X532088Y226147D01*
X532073Y225998D01*
X532014Y225820D01*
X531939Y225597D01*
X531820Y225374D01*
X531642Y225151D01*
X531538Y225032D01*
X531419Y224928D01*
X531404D01*
X531390Y224898D01*
X531345Y224869D01*
X531286Y224839D01*
X531226Y224794D01*
X531137Y224750D01*
X531033Y224690D01*
X530914Y224631D01*
X530765Y224586D01*
X530617Y224527D01*
X530453Y224482D01*
X530275Y224438D01*
X530067Y224408D01*
X529859Y224378D01*
X529636Y224349D01*
X529250D01*
X529161Y224363D01*
X529042D01*
X528908Y224378D01*
X528611Y224423D01*
X528269Y224482D01*
X527942Y224586D01*
X527615Y224720D01*
X527467Y224794D01*
X527333Y224898D01*
X527318D01*
X527303Y224928D01*
X527229Y225002D01*
X527125Y225106D01*
X526991Y225270D01*
X526872Y225463D01*
X526768Y225701D01*
X526694Y225953D01*
X526664Y226087D01*
Y226310D01*
X526679Y226369D01*
X526694Y226518D01*
X526754Y226696D01*
X526828Y226904D01*
X526962Y227142D01*
X527125Y227365D01*
X527244Y227484D01*
X527363Y227588D01*
X527378D01*
X527392Y227618D01*
X527437Y227633D01*
X527496Y227677D01*
X527556Y227722D01*
X527645Y227766D01*
X527749Y227811D01*
X527868Y227870D01*
X528002Y227930D01*
X528150Y227974D01*
X528314Y228019D01*
X528477Y228063D01*
X528878Y228123D01*
X529339Y228153D01*
X529547D01*
X529651Y228138D01*
D02*
G37*
G36*
X529621Y207365D02*
X529725D01*
X529859Y207350D01*
X530156Y207305D01*
X530483Y207231D01*
X530825Y207142D01*
X531152Y206993D01*
X531300Y206904D01*
X531434Y206800D01*
X531464Y206770D01*
X531538Y206696D01*
X531642Y206562D01*
X531761Y206384D01*
X531895Y206176D01*
X531999Y205909D01*
X532073Y205626D01*
X532088Y205463D01*
X532103Y205299D01*
Y205210D01*
X532088Y205151D01*
X532073Y204987D01*
X532014Y204779D01*
X531939Y204542D01*
X531820Y204289D01*
X531657Y204051D01*
X531553Y203932D01*
X531434Y203813D01*
X531419D01*
X531404Y203784D01*
X531360Y203754D01*
X531300Y203724D01*
X531226Y203680D01*
X531137Y203620D01*
X531033Y203576D01*
X530914Y203516D01*
X530780Y203457D01*
X530632Y203412D01*
X530453Y203353D01*
X530260Y203308D01*
X530067Y203279D01*
X529844Y203249D01*
X529606Y203219D01*
X529235D01*
X529131Y203234D01*
X529027D01*
X528908Y203249D01*
X528611Y203293D01*
X528299Y203368D01*
X527957Y203472D01*
X527645Y203620D01*
X527363Y203828D01*
X527348D01*
X527333Y203858D01*
X527259Y203932D01*
X527140Y204066D01*
X527021Y204230D01*
X526902Y204452D01*
X526783Y204705D01*
X526709Y204987D01*
X526679Y205136D01*
Y205389D01*
X526694Y205448D01*
X526709Y205611D01*
X526768Y205819D01*
X526843Y206057D01*
X526962Y206310D01*
X527140Y206562D01*
X527244Y206681D01*
X527363Y206800D01*
X527392Y206830D01*
X527437Y206860D01*
X527482Y206889D01*
X527556Y206934D01*
X527645Y206978D01*
X527749Y207038D01*
X527868Y207083D01*
X528002Y207142D01*
X528150Y207201D01*
X528314Y207246D01*
X528507Y207290D01*
X528700Y207320D01*
X528923Y207350D01*
X529146Y207380D01*
X529532D01*
X529621Y207365D01*
D02*
G37*
G36*
X528715Y175235D02*
X528670D01*
X528626Y175250D01*
X528566D01*
X528403Y175279D01*
X528210Y175324D01*
X528002Y175383D01*
X527779Y175472D01*
X527556Y175562D01*
X527378Y175695D01*
X527363D01*
X527348Y175725D01*
X527259Y175799D01*
X527155Y175933D01*
X527021Y176096D01*
X526887Y176319D01*
X526768Y176572D01*
X526694Y176854D01*
X526679Y177018D01*
X526664Y177181D01*
Y177255D01*
X526679Y177315D01*
X526694Y177478D01*
X526739Y177672D01*
X526798Y177894D01*
X526902Y178117D01*
X527036Y178355D01*
X527229Y178578D01*
X527259Y178608D01*
X527333Y178667D01*
X527452Y178756D01*
X527630Y178860D01*
X527838Y178964D01*
X528091Y179068D01*
X528388Y179143D01*
X528715Y179187D01*
Y175235D01*
D02*
G37*
G36*
X531196Y165165D02*
X531315Y165135D01*
X531434Y165091D01*
X531568Y165032D01*
X531702Y164942D01*
X531835Y164823D01*
X531850Y164809D01*
X531880Y164749D01*
X531939Y164675D01*
X531984Y164556D01*
X532043Y164407D01*
X532103Y164214D01*
X532132Y164006D01*
X532147Y163754D01*
Y163635D01*
X532132Y163516D01*
X532103Y163338D01*
X532073Y163159D01*
X532029Y162951D01*
X531954Y162743D01*
X531850Y162535D01*
X531835Y162505D01*
X531791Y162446D01*
X531731Y162342D01*
X531627Y162223D01*
X531523Y162104D01*
X531375Y161971D01*
X531211Y161837D01*
X531018Y161733D01*
X531003Y161718D01*
X530944Y161703D01*
X530855Y161673D01*
X530721Y161629D01*
X530543Y161599D01*
X530335Y161569D01*
X530097Y161555D01*
X529814Y161540D01*
X529369D01*
X529384Y161569D01*
X529398Y161614D01*
X529413Y161658D01*
X529443Y161733D01*
X529458Y161822D01*
X529488Y161911D01*
X529532Y162030D01*
X529562Y162164D01*
X529592Y162312D01*
X529636Y162461D01*
X529681Y162639D01*
X529710Y162832D01*
X529755Y163040D01*
X529785Y163263D01*
X529829Y163501D01*
Y163531D01*
X529844Y163620D01*
X529874Y163754D01*
X529904Y163917D01*
X529978Y164259D01*
X530023Y164422D01*
X530067Y164556D01*
Y164571D01*
X530097Y164601D01*
X530126Y164660D01*
X530171Y164720D01*
X530290Y164868D01*
X530468Y165017D01*
X530483D01*
X530513Y165046D01*
X530557Y165061D01*
X530632Y165091D01*
X530810Y165150D01*
X530914Y165165D01*
X531033Y165180D01*
X531107D01*
X531196Y165165D01*
D02*
G37*
G36*
X529621Y158221D02*
X529740D01*
X529859Y158206D01*
X530171Y158162D01*
X530498Y158102D01*
X530840Y157998D01*
X531152Y157865D01*
X531300Y157775D01*
X531434Y157671D01*
X531464Y157642D01*
X531538Y157567D01*
X531642Y157449D01*
X531761Y157285D01*
X531895Y157092D01*
X531999Y156869D01*
X532073Y156601D01*
X532088Y156468D01*
X532103Y156319D01*
Y156245D01*
X532088Y156185D01*
X532073Y156037D01*
X532029Y155858D01*
X531939Y155651D01*
X531835Y155428D01*
X531672Y155190D01*
X531583Y155086D01*
X531464Y154982D01*
X531449D01*
X531434Y154952D01*
X531390Y154937D01*
X531345Y154893D01*
X531271Y154848D01*
X531196Y154804D01*
X531092Y154759D01*
X530974Y154699D01*
X530855Y154655D01*
X530706Y154610D01*
X530543Y154566D01*
X530364Y154521D01*
X530171Y154477D01*
X529963Y154462D01*
X529740Y154432D01*
X529369D01*
X529265Y154447D01*
X529146D01*
X529012Y154462D01*
X528685Y154506D01*
X528343Y154566D01*
X527987Y154670D01*
X527645Y154804D01*
X527496Y154893D01*
X527363Y154997D01*
X527348D01*
X527333Y155026D01*
X527259Y155101D01*
X527140Y155220D01*
X527021Y155383D01*
X526902Y155576D01*
X526783Y155814D01*
X526709Y156081D01*
X526679Y156230D01*
Y156453D01*
X526694Y156512D01*
X526709Y156661D01*
X526754Y156839D01*
X526843Y157047D01*
X526962Y157270D01*
X527110Y157493D01*
X527214Y157597D01*
X527333Y157701D01*
X527363Y157731D01*
X527407Y157746D01*
X527452Y157790D01*
X527526Y157820D01*
X527615Y157865D01*
X527719Y157924D01*
X527838Y157969D01*
X527972Y158013D01*
X528120Y158073D01*
X528299Y158117D01*
X528477Y158147D01*
X528685Y158191D01*
X528908Y158206D01*
X529146Y158236D01*
X529532D01*
X529621Y158221D01*
D02*
G37*
G36*
X531196Y151128D02*
X531315Y151099D01*
X531434Y151054D01*
X531568Y150995D01*
X531702Y150906D01*
X531835Y150787D01*
X531850Y150772D01*
X531880Y150712D01*
X531939Y150638D01*
X531984Y150519D01*
X532043Y150371D01*
X532103Y150177D01*
X532132Y149969D01*
X532147Y149717D01*
Y149598D01*
X532132Y149479D01*
X532103Y149301D01*
X532073Y149122D01*
X532029Y148914D01*
X531954Y148706D01*
X531850Y148498D01*
X531835Y148469D01*
X531791Y148409D01*
X531731Y148305D01*
X531627Y148186D01*
X531523Y148068D01*
X531375Y147934D01*
X531211Y147800D01*
X531018Y147696D01*
X531003Y147681D01*
X530944Y147666D01*
X530855Y147637D01*
X530721Y147592D01*
X530543Y147562D01*
X530335Y147533D01*
X530097Y147518D01*
X529814Y147503D01*
X529369D01*
X529384Y147533D01*
X529398Y147577D01*
X529413Y147622D01*
X529443Y147696D01*
X529458Y147785D01*
X529488Y147874D01*
X529532Y147993D01*
X529562Y148127D01*
X529592Y148275D01*
X529636Y148424D01*
X529681Y148602D01*
X529710Y148796D01*
X529755Y149004D01*
X529785Y149227D01*
X529829Y149464D01*
Y149494D01*
X529844Y149583D01*
X529874Y149717D01*
X529904Y149880D01*
X529978Y150222D01*
X530023Y150386D01*
X530067Y150519D01*
Y150534D01*
X530097Y150564D01*
X530126Y150623D01*
X530171Y150683D01*
X530290Y150831D01*
X530468Y150980D01*
X530483D01*
X530513Y151010D01*
X530557Y151024D01*
X530632Y151054D01*
X530810Y151114D01*
X530914Y151128D01*
X531033Y151143D01*
X531107D01*
X531196Y151128D01*
D02*
G37*
G36*
X528715Y112069D02*
X528670D01*
X528626Y112084D01*
X528566D01*
X528403Y112114D01*
X528210Y112158D01*
X528002Y112218D01*
X527779Y112307D01*
X527556Y112396D01*
X527378Y112530D01*
X527363D01*
X527348Y112559D01*
X527259Y112634D01*
X527155Y112767D01*
X527021Y112931D01*
X526887Y113154D01*
X526768Y113406D01*
X526694Y113689D01*
X526679Y113852D01*
X526664Y114016D01*
Y114090D01*
X526679Y114149D01*
X526694Y114313D01*
X526739Y114506D01*
X526798Y114729D01*
X526902Y114952D01*
X527036Y115190D01*
X527229Y115412D01*
X527259Y115442D01*
X527333Y115501D01*
X527452Y115591D01*
X527630Y115695D01*
X527838Y115799D01*
X528091Y115903D01*
X528388Y115977D01*
X528715Y116022D01*
Y112069D01*
D02*
G37*
G36*
X529621Y95070D02*
X529725D01*
X529859Y95056D01*
X530156Y95011D01*
X530483Y94937D01*
X530825Y94847D01*
X531152Y94699D01*
X531300Y94610D01*
X531434Y94506D01*
X531464Y94476D01*
X531538Y94402D01*
X531642Y94268D01*
X531761Y94090D01*
X531895Y93882D01*
X531999Y93614D01*
X532073Y93332D01*
X532088Y93168D01*
X532103Y93005D01*
Y92916D01*
X532088Y92856D01*
X532073Y92693D01*
X532014Y92485D01*
X531939Y92247D01*
X531820Y91995D01*
X531657Y91757D01*
X531553Y91638D01*
X531434Y91519D01*
X531419D01*
X531404Y91489D01*
X531360Y91460D01*
X531300Y91430D01*
X531226Y91385D01*
X531137Y91326D01*
X531033Y91281D01*
X530914Y91222D01*
X530780Y91163D01*
X530632Y91118D01*
X530453Y91058D01*
X530260Y91014D01*
X530067Y90984D01*
X529844Y90954D01*
X529606Y90925D01*
X529235D01*
X529131Y90940D01*
X529027D01*
X528908Y90954D01*
X528611Y90999D01*
X528299Y91073D01*
X527957Y91177D01*
X527645Y91326D01*
X527363Y91534D01*
X527348D01*
X527333Y91564D01*
X527259Y91638D01*
X527140Y91772D01*
X527021Y91935D01*
X526902Y92158D01*
X526783Y92411D01*
X526709Y92693D01*
X526679Y92842D01*
Y93094D01*
X526694Y93154D01*
X526709Y93317D01*
X526768Y93525D01*
X526843Y93763D01*
X526962Y94015D01*
X527140Y94268D01*
X527244Y94387D01*
X527363Y94506D01*
X527392Y94535D01*
X527437Y94565D01*
X527482Y94595D01*
X527556Y94640D01*
X527645Y94684D01*
X527749Y94743D01*
X527868Y94788D01*
X528002Y94847D01*
X528150Y94907D01*
X528314Y94951D01*
X528507Y94996D01*
X528700Y95026D01*
X528923Y95056D01*
X529146Y95085D01*
X529532D01*
X529621Y95070D01*
D02*
G37*
G36*
X527467Y85600D02*
X527452Y85437D01*
X527437Y85244D01*
X527422Y85021D01*
X527392Y84783D01*
X527348Y84560D01*
X527288Y84367D01*
X527274Y84337D01*
X527259Y84278D01*
X527214Y84189D01*
X527155Y84085D01*
X527066Y83966D01*
X526962Y83832D01*
X526843Y83713D01*
X526709Y83609D01*
X526694Y83594D01*
X526635Y83565D01*
X526560Y83520D01*
X526441Y83475D01*
X526323Y83431D01*
X526174Y83386D01*
X526011Y83357D01*
X525832Y83342D01*
X525713D01*
X525594Y83371D01*
X525431Y83401D01*
X525253Y83461D01*
X525060Y83550D01*
X524866Y83683D01*
X524688Y83847D01*
X524673Y83877D01*
X524614Y83936D01*
X524539Y84070D01*
X524465Y84233D01*
X524376Y84456D01*
X524317Y84724D01*
X524257Y85050D01*
X524242Y85437D01*
Y88513D01*
X527467D01*
Y85600D01*
D02*
G37*
G36*
X531196Y80944D02*
X531315Y80915D01*
X531434Y80870D01*
X531568Y80811D01*
X531702Y80722D01*
X531835Y80603D01*
X531850Y80588D01*
X531880Y80528D01*
X531939Y80454D01*
X531984Y80335D01*
X532043Y80187D01*
X532103Y79993D01*
X532132Y79785D01*
X532147Y79533D01*
Y79414D01*
X532132Y79295D01*
X532103Y79117D01*
X532073Y78938D01*
X532029Y78730D01*
X531954Y78522D01*
X531850Y78314D01*
X531835Y78285D01*
X531791Y78225D01*
X531731Y78121D01*
X531627Y78002D01*
X531523Y77884D01*
X531375Y77750D01*
X531211Y77616D01*
X531018Y77512D01*
X531003Y77497D01*
X530944Y77482D01*
X530855Y77453D01*
X530721Y77408D01*
X530543Y77378D01*
X530335Y77348D01*
X530097Y77334D01*
X529814Y77319D01*
X529369D01*
X529384Y77348D01*
X529398Y77393D01*
X529413Y77438D01*
X529443Y77512D01*
X529458Y77601D01*
X529488Y77690D01*
X529532Y77809D01*
X529562Y77943D01*
X529592Y78092D01*
X529636Y78240D01*
X529681Y78418D01*
X529710Y78612D01*
X529755Y78820D01*
X529785Y79043D01*
X529829Y79280D01*
Y79310D01*
X529844Y79399D01*
X529874Y79533D01*
X529904Y79696D01*
X529978Y80038D01*
X530023Y80202D01*
X530067Y80335D01*
Y80350D01*
X530097Y80380D01*
X530126Y80439D01*
X530171Y80499D01*
X530290Y80647D01*
X530468Y80796D01*
X530483D01*
X530513Y80826D01*
X530557Y80840D01*
X530632Y80870D01*
X530810Y80930D01*
X530914Y80944D01*
X531033Y80959D01*
X531107D01*
X531196Y80944D01*
D02*
G37*
G36*
X528908Y70375D02*
X526219Y71385D01*
X526204D01*
X526159Y71400D01*
X526100Y71430D01*
X526011Y71459D01*
X525906Y71504D01*
X525788Y71549D01*
X525505Y71638D01*
X525178Y71757D01*
X524837Y71876D01*
X524495Y71979D01*
X524168Y72084D01*
X524183D01*
X524213Y72098D01*
X524257D01*
X524332Y72113D01*
X524421Y72143D01*
X524525Y72173D01*
X524762Y72232D01*
X525060Y72306D01*
X525372Y72396D01*
X525713Y72500D01*
X526055Y72618D01*
X528908Y73688D01*
Y70375D01*
D02*
G37*
D61*
X228000Y97030D02*
D03*
Y284910D02*
D03*
Y290970D02*
D03*
D62*
Y103090D02*
D03*
D63*
X321940Y109150D02*
D03*
Y115210D02*
D03*
Y127330D02*
D03*
Y133390D02*
D03*
Y157640D02*
D03*
X303760D02*
D03*
X218910D02*
D03*
X321940Y163700D02*
D03*
Y169760D02*
D03*
X255270Y181880D02*
D03*
X321940Y187940D02*
D03*
X237090D02*
D03*
X321940Y218240D02*
D03*
Y224300D02*
D03*
X303760D02*
D03*
X237090Y236420D02*
D03*
X321940Y248550D02*
D03*
Y254610D02*
D03*
Y266730D02*
D03*
Y272790D02*
D03*
D64*
X270420Y109150D02*
D03*
X258300D02*
D03*
X234060D02*
D03*
X215880D02*
D03*
X203760D02*
D03*
X161330D02*
D03*
X270420Y115210D02*
D03*
X258300D02*
D03*
X167390D02*
D03*
X306790Y127330D02*
D03*
X282550D02*
D03*
X270420D02*
D03*
X221940D02*
D03*
X306790Y133390D02*
D03*
X282550D02*
D03*
X270420D02*
D03*
X258300D02*
D03*
X161330D02*
D03*
X288610Y157640D02*
D03*
X270420D02*
D03*
X234060D02*
D03*
X161330D02*
D03*
X306790Y163700D02*
D03*
X288610D02*
D03*
X306790Y169760D02*
D03*
X270420D02*
D03*
X215880D02*
D03*
X197700D02*
D03*
X161330D02*
D03*
X270420Y181880D02*
D03*
X203760D02*
D03*
X191640D02*
D03*
X167390D02*
D03*
X252240Y187940D02*
D03*
X221940D02*
D03*
X282550Y206120D02*
D03*
X234060D02*
D03*
X203760D02*
D03*
X300730Y218240D02*
D03*
X197700D02*
D03*
X258300Y224300D02*
D03*
X197700Y236420D02*
D03*
X270420Y248550D02*
D03*
X252240D02*
D03*
X234060D02*
D03*
X306790Y254610D02*
D03*
X282550D02*
D03*
X149210D02*
D03*
X306790Y266730D02*
D03*
X282550D02*
D03*
X149210D02*
D03*
X270420Y272790D02*
D03*
X258300D02*
D03*
D65*
X246180Y109150D02*
D03*
Y115210D02*
D03*
X228000D02*
D03*
X155270D02*
D03*
X264360Y163700D02*
D03*
X228000D02*
D03*
X185580Y169760D02*
D03*
X209820Y187940D02*
D03*
X294670Y206120D02*
D03*
X246180D02*
D03*
Y224300D02*
D03*
X209820D02*
D03*
X185580D02*
D03*
Y248550D02*
D03*
X228000Y254610D02*
D03*
X209820D02*
D03*
X185580D02*
D03*
X173450D02*
D03*
X185580Y266730D02*
D03*
X173450D02*
D03*
X209820Y272790D02*
D03*
D66*
X188610Y109150D02*
D03*
X206790Y127330D02*
D03*
X134060D02*
D03*
Y157640D02*
D03*
X249210Y163700D02*
D03*
X297700Y187940D02*
D03*
X158300D02*
D03*
X206790Y200060D02*
D03*
X134060D02*
D03*
X261330Y218240D02*
D03*
X243150D02*
D03*
X212850D02*
D03*
X224970Y224300D02*
D03*
X134060D02*
D03*
X212850Y236420D02*
D03*
X134060Y248550D02*
D03*
X267390Y254610D02*
D03*
X134060D02*
D03*
X231030Y266730D02*
D03*
X134060D02*
D03*
Y272790D02*
D03*
D67*
X140120Y109150D02*
D03*
X206790Y133390D02*
D03*
X140120D02*
D03*
X249210Y169760D02*
D03*
X140120D02*
D03*
Y181880D02*
D03*
X315880Y200060D02*
D03*
Y206120D02*
D03*
X140120D02*
D03*
X206790Y266730D02*
D03*
D68*
X294670Y115210D02*
D03*
X228000Y181880D02*
D03*
X294670Y248550D02*
D03*
Y272790D02*
D03*
D69*
X203760Y115210D02*
D03*
X137090D02*
D03*
X252240Y127330D02*
D03*
X234060Y133390D02*
D03*
X252240Y157640D02*
D03*
X203760Y163700D02*
D03*
X137090D02*
D03*
Y187940D02*
D03*
X155270Y200060D02*
D03*
Y224300D02*
D03*
X203760Y248550D02*
D03*
X246180Y254610D02*
D03*
X240120Y272790D02*
D03*
X191640D02*
D03*
D70*
X179515Y115210D02*
D03*
Y181880D02*
D03*
D71*
X321940Y121270D02*
D03*
Y139450D02*
D03*
X237090D02*
D03*
X321940Y175820D02*
D03*
X303760D02*
D03*
X321940Y230360D02*
D03*
Y260670D02*
D03*
Y278850D02*
D03*
D72*
X306790Y121270D02*
D03*
X282550D02*
D03*
X270420D02*
D03*
X197700Y151580D02*
D03*
X288610Y175820D02*
D03*
X221940D02*
D03*
X191640D02*
D03*
X161330D02*
D03*
X149210D02*
D03*
X282550Y194000D02*
D03*
X252240D02*
D03*
X197700D02*
D03*
X282550Y230360D02*
D03*
X252240D02*
D03*
X215880D02*
D03*
X167390D02*
D03*
X306790Y260670D02*
D03*
X282550D02*
D03*
X270420D02*
D03*
X234060D02*
D03*
X215880D02*
D03*
X203760D02*
D03*
X149210D02*
D03*
X234060Y278850D02*
D03*
D73*
X246180Y121270D02*
D03*
X137090D02*
D03*
X264360Y139450D02*
D03*
X318910Y212180D02*
D03*
X252240D02*
D03*
X137090D02*
D03*
X234060Y230360D02*
D03*
X137090D02*
D03*
X264360Y278850D02*
D03*
D74*
X176485Y127330D02*
D03*
D75*
X294670Y139450D02*
D03*
D76*
X212850D02*
D03*
X140120Y194000D02*
D03*
D77*
X179515Y139450D02*
D03*
Y151580D02*
D03*
D78*
X158300Y139450D02*
D03*
X134060D02*
D03*
Y151580D02*
D03*
Y175820D02*
D03*
X231030Y194000D02*
D03*
X297700Y212180D02*
D03*
X188610Y260670D02*
D03*
X134060D02*
D03*
Y278850D02*
D03*
D79*
X321940Y145515D02*
D03*
D80*
X270420D02*
D03*
X252240D02*
D03*
X203760D02*
D03*
D81*
X231030D02*
D03*
D82*
X185580D02*
D03*
X173450D02*
D03*
D83*
X140120D02*
D03*
D84*
X297695Y151580D02*
D03*
D85*
X237090D02*
D03*
D86*
X276485Y163700D02*
D03*
Y187940D02*
D03*
D87*
X164360Y163700D02*
D03*
D88*
X276485Y175820D02*
D03*
D89*
X246180D02*
D03*
X155270Y212180D02*
D03*
Y230360D02*
D03*
X246180Y260670D02*
D03*
X173450D02*
D03*
X246180Y278850D02*
D03*
X209820D02*
D03*
X185580D02*
D03*
D90*
X306790Y181880D02*
D03*
D91*
X309820Y194000D02*
D03*
X212850Y212180D02*
D03*
D92*
X176485Y194000D02*
D03*
X273455Y212180D02*
D03*
D93*
X255275Y200060D02*
D03*
X158305Y236420D02*
D03*
D94*
X179515Y206120D02*
D03*
D95*
X176485Y212180D02*
D03*
D96*
X179515Y218240D02*
D03*
D97*
X146180D02*
D03*
D98*
X276485Y224300D02*
D03*
D99*
X197700Y230360D02*
D03*
D100*
X179515D02*
D03*
D101*
X294665Y236420D02*
D03*
D102*
X321940Y242485D02*
D03*
D103*
X270420D02*
D03*
X258300D02*
D03*
X234060D02*
D03*
X221940D02*
D03*
X197700D02*
D03*
D104*
X246180D02*
D03*
X209820D02*
D03*
X185580D02*
D03*
D105*
X134060D02*
D03*
D106*
X161330Y248550D02*
D03*
X258300Y266730D02*
D03*
X161330Y272790D02*
D03*
M02*
