M48
;Layer_Color=9474304
;FILE_FORMAT=4:4
METRIC,LZ
;TYPE=PLATED
T1F00S00C0.3000
T3F00S00C1.2000
%
T01
X00554Y00086
X00528Y00036
X0045Y0008
X00408Y00078
X0042799Y0011079
X0045847Y0017048
X0034036Y0012857
X0028321Y0014
X0026797Y0012603
X0027178Y0010444
X0023495Y001019
X0021844Y0009809
X0020447Y0010063
X0016891Y0005745
X0027813Y0006634
X0013843Y0009428
Y001527
X0012573Y0016921
X0010287Y0013238
X00074Y00158
X0002667Y0008285
X0007366Y0020477
X0007Y00222
X0007239Y0023144
X0009144Y0024541
X0010541Y0023017
X0012192Y0020477
X0012954Y0019588
X0012319Y0018445
X00112Y00304
X0007112Y0028732
X0007239Y0026954
X0014986Y0032034
X0020701Y002924
X0022479Y0029748
X0025527Y0029875
X0026416Y0028732
X0029083Y0028986
X0030353Y0029875
X0035687Y0030002
X0036195Y0028224
X0034671Y0026319
X0039116Y0027208
X0040767Y0026954
X0043307Y0027208
X0045339Y0027589
X00465455Y00276525
X0048514Y0027462
X0050292Y0028097
X0050038Y003178
X0046736Y0033304
X0045847Y003432
X0045974Y002289
X0044069Y0021239
X0042418Y0022636
X0040132Y0021493
X0039116Y0022001
X0038481Y0023017
X0037465Y0020604
X0038227Y0018699
X0041402Y0018445
X0043307Y0018191
X0046609Y0018318
X0040259Y0017175
X0035052Y0019334
X0032893Y0021874
X0028448Y002289
X0022479Y0023271
X0021336Y0022128
X0020066Y0020985
X0018796Y0019842
X0017526Y0018699
X0016129Y0017429
X0052959Y0019842
X0051308Y0021874
T03
X0021503Y0004094
X0024003
X0029875
X0032385
Y0006634
X0029875
X0034925
Y0004094
X00034645Y00302645
X00052322Y00320322
X0007Y00338
X00088385Y00356385
M30
