G04*
G04 #@! TF.GenerationSoftware,Altium Limited,Altium Designer,19.1.5 (86)*
G04*
G04 Layer_Color=128*
%FSLAX44Y44*%
%MOMM*%
G71*
G01*
G75*
%ADD108C,0.0508*%
D108*
X28645Y302645D02*
X40645D01*
X34645Y296645D02*
Y308645D01*
X46322Y320322D02*
X58322D01*
X52322Y314322D02*
Y326322D01*
X64000Y338000D02*
X76000D01*
X70000Y332000D02*
Y344000D01*
X82385Y356385D02*
X94385D01*
X88385Y350385D02*
Y362385D01*
X209030Y40940D02*
X221030D01*
X215030Y34940D02*
Y46940D01*
X234030Y40940D02*
X246030D01*
X240030Y34940D02*
Y46940D01*
X317850Y40940D02*
X329850D01*
X323850Y34940D02*
Y46940D01*
X292750Y40940D02*
X304750D01*
X298750Y34940D02*
Y46940D01*
X292750Y66340D02*
X304750D01*
X298750Y60340D02*
Y72340D01*
X317850Y66340D02*
X329850D01*
X323850Y60340D02*
Y72340D01*
X343250Y66340D02*
X355250D01*
X349250Y60340D02*
Y72340D01*
X343250Y40940D02*
X355250D01*
X349250Y34940D02*
Y46940D01*
X15370Y263270D02*
X40370D01*
X27870Y250770D02*
Y275770D01*
X15370Y146270D02*
X40370D01*
X27870Y133770D02*
Y158770D01*
X22370Y227270D02*
X33370D01*
X27870Y221770D02*
Y232770D01*
X22370Y182270D02*
X33370D01*
X27870Y176770D02*
Y187770D01*
X68500Y222000D02*
X71500D01*
X70000Y220500D02*
Y223500D01*
X72500Y158000D02*
X75500D01*
X74000Y156500D02*
Y159500D01*
X552500Y86000D02*
X555500D01*
X554000Y84500D02*
Y87500D01*
X526500Y36000D02*
X529500D01*
X528000Y34500D02*
Y37500D01*
X448500Y80000D02*
X451500D01*
X450000Y78500D02*
Y81500D01*
X406500Y78000D02*
X409500D01*
X408000Y76500D02*
Y79500D01*
X25170Y82850D02*
X28170D01*
X26670Y81350D02*
Y84350D01*
X355370Y300020D02*
X358370D01*
X356870Y298520D02*
Y301520D01*
X483640Y274620D02*
X486640D01*
X485140Y273120D02*
Y276120D01*
X431570Y272080D02*
X434570D01*
X433070Y270580D02*
Y273580D01*
X345210Y263190D02*
X348210D01*
X346710Y261690D02*
Y264690D01*
X360450Y282240D02*
X363450D01*
X361950Y280740D02*
Y283740D01*
X389660Y272080D02*
X392660D01*
X391160Y270580D02*
Y273580D01*
X406170Y269540D02*
X409170D01*
X407670Y268040D02*
Y271040D01*
X456970Y170480D02*
X459970D01*
X458470Y168980D02*
Y171980D01*
X401090Y171750D02*
X404090D01*
X402590Y170250D02*
Y173250D01*
X380770Y186990D02*
X383770D01*
X382270Y185490D02*
Y188490D01*
X373150Y206040D02*
X376150D01*
X374650Y204540D02*
Y207540D01*
X439190Y212390D02*
X442190D01*
X440690Y210890D02*
Y213890D01*
X383310Y230170D02*
X386310D01*
X384810Y228670D02*
Y231670D01*
X422680Y226360D02*
X425680D01*
X424180Y224860D02*
Y227860D01*
X399820Y214930D02*
X402820D01*
X401320Y213430D02*
Y216430D01*
X458240Y228900D02*
X461240D01*
X459740Y227400D02*
Y230400D01*
X511580Y218740D02*
X514580D01*
X513080Y217240D02*
Y220240D01*
X528090Y198420D02*
X531090D01*
X529590Y196920D02*
Y199920D01*
X276630Y66340D02*
X279630D01*
X278130Y64840D02*
Y67840D01*
X167410Y57450D02*
X170410D01*
X168910Y55950D02*
Y58950D01*
X270280Y104440D02*
X273280D01*
X271780Y102940D02*
Y105940D01*
X233450Y101900D02*
X236450D01*
X234950Y100400D02*
Y103400D01*
X202970Y100630D02*
X205970D01*
X204470Y99130D02*
Y102130D01*
X223290Y232710D02*
X226290D01*
X224790Y231210D02*
Y234210D01*
X211860Y221280D02*
X214860D01*
X213360Y219780D02*
Y222780D01*
X199160Y209850D02*
X202160D01*
X200660Y208350D02*
Y211350D01*
X186460Y198420D02*
X189460D01*
X187960Y196920D02*
Y199920D01*
X173760Y186990D02*
X176760D01*
X175260Y185490D02*
Y188490D01*
X159790Y174290D02*
X162790D01*
X161290Y172790D02*
Y175790D01*
X302030Y298750D02*
X305030D01*
X303530Y297250D02*
Y300250D01*
X253770Y298750D02*
X256770D01*
X255270Y297250D02*
Y300250D01*
X223290Y297480D02*
X226290D01*
X224790Y295980D02*
Y298980D01*
X205510Y292400D02*
X208510D01*
X207010Y290900D02*
Y293900D01*
X148360Y320340D02*
X151360D01*
X149860Y318840D02*
Y321840D01*
X110500Y304000D02*
X113500D01*
X112000Y302500D02*
Y305500D01*
X69620Y287320D02*
X72620D01*
X71120Y285820D02*
Y288820D01*
X70890Y269540D02*
X73890D01*
X72390Y268040D02*
Y271040D01*
X70890Y231440D02*
X73890D01*
X72390Y229940D02*
Y232940D01*
X72160Y204770D02*
X75160D01*
X73660Y203270D02*
Y206270D01*
X120420Y204770D02*
X123420D01*
X121920Y203270D02*
Y206270D01*
X121690Y184450D02*
X124690D01*
X123190Y182950D02*
Y185950D01*
X136930Y152700D02*
X139930D01*
X138430Y151200D02*
Y154200D01*
X136930Y94280D02*
X139930D01*
X138430Y92780D02*
Y95780D01*
X101370Y132380D02*
X104370D01*
X102870Y130880D02*
Y133880D01*
X289330Y289860D02*
X292330D01*
X290830Y288360D02*
Y291360D01*
X262660Y287320D02*
X265660D01*
X264160Y285820D02*
Y288820D01*
X266470Y126030D02*
X269470D01*
X267970Y124530D02*
Y127530D01*
X463955Y276525D02*
X466955D01*
X465455Y275025D02*
Y278025D01*
X451890Y275890D02*
X454890D01*
X453390Y274390D02*
Y277390D01*
X456970Y343200D02*
X459970D01*
X458470Y341700D02*
Y344700D01*
X465860Y333040D02*
X468860D01*
X467360Y331540D02*
Y334540D01*
X498880Y317800D02*
X501880D01*
X500380Y316300D02*
Y319300D01*
X89940Y245410D02*
X92940D01*
X91440Y243910D02*
Y246910D01*
X103910Y230170D02*
X106910D01*
X105410Y228670D02*
Y231670D01*
X124230Y169210D02*
X127230D01*
X125730Y167710D02*
Y170710D01*
X338860Y128570D02*
X341860D01*
X340360Y127070D02*
Y130070D01*
X389660Y220010D02*
X392660D01*
X391160Y218510D02*
Y221510D01*
X464590Y183180D02*
X467590D01*
X466090Y181680D02*
Y184680D01*
X216940Y98090D02*
X219940D01*
X218440Y96590D02*
Y99590D01*
X349020Y193340D02*
X352020D01*
X350520Y191840D02*
Y194840D01*
X281710Y140000D02*
X284710D01*
X283210Y138500D02*
Y141500D01*
X282980Y228900D02*
X285980D01*
X284480Y227400D02*
Y230400D01*
X327430Y218740D02*
X330430D01*
X328930Y217240D02*
Y220240D01*
X412520Y184450D02*
X415520D01*
X414020Y182950D02*
Y185950D01*
X431570Y181910D02*
X434570D01*
X433070Y180410D02*
Y183410D01*
X426490Y110790D02*
X429490D01*
X427990Y109290D02*
Y112290D01*
X501420Y280970D02*
X504420D01*
X502920Y279470D02*
Y282470D01*
X128040Y195880D02*
X131040D01*
X129540Y194380D02*
Y197380D01*
M02*
