G04*
G04 #@! TF.GenerationSoftware,Altium Limited,Altium Designer,19.1.5 (86)*
G04*
G04 Layer_Physical_Order=1*
G04 Layer_Color=255*
%FSLAX44Y44*%
%MOMM*%
G71*
G01*
G75*
%ADD20R,2.1800X1.6000*%
%ADD21R,0.6000X2.0000*%
%ADD22R,2.2352X1.2192*%
%ADD23R,2.2000X3.6000*%
%ADD24R,1.2000X1.0000*%
%ADD25R,0.6000X1.0000*%
%ADD26O,1.0000X0.8000*%
%ADD27R,2.0000X1.2000*%
%ADD45O,3.2000X1.3000*%
%ADD46C,1.1000*%
%ADD48R,0.8000X0.8500*%
%ADD49R,0.8500X0.8000*%
%ADD50R,0.7000X0.8500*%
%ADD51R,0.8500X0.7000*%
%ADD52C,0.3500*%
%ADD53P,2.5456X4X90.0*%
%ADD54C,1.8000*%
%ADD55C,2.0000*%
%ADD56R,2.0000X2.0000*%
%ADD57C,1.5000*%
%ADD58R,1.5000X1.5000*%
%ADD59C,0.6000*%
G36*
X566000Y348000D02*
Y36000D01*
X536000Y6000D01*
X40000Y8000D01*
X6000Y42000D01*
X6000D01*
Y137137D01*
X7270Y137569D01*
X8529Y135928D01*
X11558Y133604D01*
X15085Y132143D01*
X18870Y131645D01*
X23892D01*
Y127200D01*
X21560D01*
Y114700D01*
X33560D01*
Y127200D01*
X31538D01*
Y131645D01*
X36870D01*
X40655Y132143D01*
X44183Y133604D01*
X47211Y135928D01*
X49536Y138957D01*
X50994Y142479D01*
X77941Y142517D01*
X78840Y141619D01*
Y140850D01*
X91340D01*
Y151850D01*
X78840D01*
Y150165D01*
X50968Y150126D01*
X49536Y153582D01*
X47211Y156611D01*
X44183Y158936D01*
X40655Y160397D01*
X36870Y160895D01*
X18870D01*
X15085Y160397D01*
X11558Y158936D01*
X8529Y156611D01*
X7270Y154971D01*
X6000Y155402D01*
Y254137D01*
X7270Y254569D01*
X8529Y252929D01*
X11558Y250604D01*
X15085Y249143D01*
X18870Y248645D01*
X36870D01*
X39358Y248972D01*
X40538Y248963D01*
X41318Y248067D01*
X41330Y248048D01*
X41330Y247334D01*
Y241040D01*
X52600D01*
Y248310D01*
X42491Y248310D01*
X42363D01*
X41958Y248334D01*
X41710Y249580D01*
X44183Y250604D01*
X47211Y252929D01*
X49536Y255958D01*
X50997Y259485D01*
X51495Y263270D01*
X50997Y267055D01*
X49536Y270583D01*
X47211Y273612D01*
X44183Y275936D01*
X40655Y277397D01*
X36870Y277895D01*
X18870D01*
X15085Y277397D01*
X11558Y275936D01*
X8529Y273612D01*
X7270Y271971D01*
X6000Y272402D01*
Y352000D01*
X30000Y376000D01*
X538000D01*
X566000Y348000D01*
D02*
G37*
%LPC*%
G36*
X88385Y368024D02*
X85372Y367628D01*
X82565Y366465D01*
X81171Y365395D01*
X88385Y358181D01*
X95599Y365395D01*
X94205Y366465D01*
X91397Y367628D01*
X88385Y368024D01*
D02*
G37*
G36*
X97395Y363599D02*
X90181Y356385D01*
X97395Y349171D01*
X98465Y350565D01*
X99628Y353372D01*
X100024Y356385D01*
X99628Y359397D01*
X98465Y362205D01*
X97395Y363599D01*
D02*
G37*
G36*
X79375Y363599D02*
X78305Y362205D01*
X77142Y359397D01*
X76745Y356385D01*
X77142Y353372D01*
X78305Y350565D01*
X79375Y349171D01*
X86589Y356385D01*
X79375Y363599D01*
D02*
G37*
G36*
X88385Y354589D02*
X81171Y347375D01*
X82565Y346305D01*
X85372Y345142D01*
X88385Y344745D01*
X91397Y345142D01*
X94205Y346305D01*
X95599Y347375D01*
X88385Y354589D01*
D02*
G37*
G36*
X70000Y349095D02*
X67128Y348717D01*
X64453Y347608D01*
X62155Y345845D01*
X60392Y343547D01*
X59283Y340872D01*
X58905Y338000D01*
X59283Y335128D01*
X60392Y332453D01*
X62155Y330155D01*
X64453Y328391D01*
X67128Y327283D01*
X70000Y326905D01*
X72872Y327283D01*
X75547Y328391D01*
X77845Y330155D01*
X79608Y332453D01*
X80717Y335128D01*
X81095Y338000D01*
X80717Y340872D01*
X79608Y343547D01*
X77845Y345845D01*
X75547Y347608D01*
X72872Y348717D01*
X70000Y349095D01*
D02*
G37*
G36*
X155256Y319070D02*
X151130D01*
Y314944D01*
X152022Y315121D01*
X153854Y316346D01*
X155079Y318178D01*
X155256Y319070D01*
D02*
G37*
G36*
X52322Y331417D02*
X49451Y331039D01*
X46775Y329931D01*
X44477Y328168D01*
X42714Y325870D01*
X41606Y323194D01*
X41227Y320322D01*
X41606Y317451D01*
X42714Y314775D01*
X44477Y312477D01*
X46775Y310714D01*
X49451Y309606D01*
X52322Y309227D01*
X55194Y309606D01*
X57870Y310714D01*
X60168Y312477D01*
X61931Y314775D01*
X63039Y317451D01*
X63417Y320322D01*
X63039Y323194D01*
X61931Y325870D01*
X60168Y328168D01*
X57870Y329931D01*
X55194Y331039D01*
X52322Y331417D01*
D02*
G37*
G36*
X304800Y304146D02*
Y300020D01*
X308926D01*
X308749Y300912D01*
X307524Y302744D01*
X305692Y303969D01*
X304800Y304146D01*
D02*
G37*
G36*
X302260D02*
X301368Y303969D01*
X299536Y302744D01*
X298311Y300912D01*
X298134Y300020D01*
X302260D01*
Y304146D01*
D02*
G37*
G36*
X308926Y297480D02*
X304800D01*
Y293354D01*
X305692Y293531D01*
X307524Y294756D01*
X308749Y296588D01*
X308926Y297480D01*
D02*
G37*
G36*
X302260D02*
X298134D01*
X298311Y296588D01*
X299536Y294756D01*
X301368Y293531D01*
X302260Y293354D01*
Y297480D01*
D02*
G37*
G36*
X260666D02*
X256540D01*
Y293354D01*
X257432Y293531D01*
X259264Y294756D01*
X260489Y296588D01*
X260666Y297480D01*
D02*
G37*
G36*
X72390Y292716D02*
Y288590D01*
X76516D01*
X76339Y289482D01*
X75114Y291314D01*
X73282Y292539D01*
X72390Y292716D01*
D02*
G37*
G36*
X69850D02*
X68958Y292539D01*
X67126Y291314D01*
X65901Y289482D01*
X65724Y288590D01*
X69850D01*
Y292716D01*
D02*
G37*
G36*
X34645Y318201D02*
X19088Y302645D01*
X34645Y287088D01*
X50201Y302645D01*
X34645Y318201D01*
D02*
G37*
G36*
X76516Y286050D02*
X72390D01*
Y281924D01*
X73282Y282101D01*
X75114Y283326D01*
X76339Y285158D01*
X76516Y286050D01*
D02*
G37*
G36*
X69850D02*
X65724D01*
X65901Y285158D01*
X67126Y283326D01*
X68958Y282101D01*
X69850Y281924D01*
Y286050D01*
D02*
G37*
G36*
X300660Y282451D02*
Y277160D01*
X306819D01*
X306762Y277597D01*
X306103Y279188D01*
X305054Y280554D01*
X303688Y281603D01*
X302097Y282262D01*
X300660Y282451D01*
D02*
G37*
G36*
X160660D02*
Y277160D01*
X166819D01*
X166762Y277597D01*
X166103Y279188D01*
X165054Y280554D01*
X163688Y281603D01*
X162097Y282262D01*
X160660Y282451D01*
D02*
G37*
G36*
X298120D02*
X296683Y282262D01*
X295092Y281603D01*
X293726Y280554D01*
X292677Y279188D01*
X292018Y277597D01*
X291961Y277160D01*
X298120D01*
Y282451D01*
D02*
G37*
G36*
X158120D02*
X156683Y282262D01*
X155092Y281603D01*
X153726Y280554D01*
X152677Y279188D01*
X152018Y277597D01*
X151961Y277160D01*
X158120D01*
Y282451D01*
D02*
G37*
G36*
X367346Y280970D02*
X363220D01*
Y276844D01*
X364112Y277021D01*
X365944Y278246D01*
X367169Y280078D01*
X367346Y280970D01*
D02*
G37*
G36*
X360680D02*
X356554D01*
X356731Y280078D01*
X357956Y278246D01*
X359788Y277021D01*
X360680Y276844D01*
Y280970D01*
D02*
G37*
G36*
X382710Y281350D02*
X377190D01*
Y276080D01*
X382710D01*
Y281350D01*
D02*
G37*
G36*
X374650D02*
X369130D01*
Y276080D01*
X374650D01*
Y281350D01*
D02*
G37*
G36*
X486410Y280016D02*
Y275890D01*
X490536D01*
X490359Y276782D01*
X489134Y278614D01*
X487302Y279839D01*
X486410Y280016D01*
D02*
G37*
G36*
X483870D02*
X482978Y279839D01*
X481146Y278614D01*
X479921Y276782D01*
X479744Y275890D01*
X483870D01*
Y280016D01*
D02*
G37*
G36*
X362266Y298750D02*
X351474D01*
X351651Y297858D01*
X352876Y296026D01*
X352969Y295963D01*
X352584Y294694D01*
X346450D01*
X344987Y294402D01*
X343746Y293574D01*
X284094Y233921D01*
X282529Y233610D01*
X280875Y232505D01*
X279770Y230851D01*
X279382Y228900D01*
X279770Y226949D01*
X280875Y225295D01*
X282529Y224190D01*
X284480Y223802D01*
X286431Y224190D01*
X288085Y225295D01*
X289190Y226949D01*
X289501Y228514D01*
X348034Y287047D01*
X357060D01*
X357650Y285777D01*
X356731Y284402D01*
X356554Y283510D01*
X367346D01*
X367169Y284402D01*
X366250Y285777D01*
X366840Y287047D01*
X369130D01*
Y283890D01*
X375920D01*
X382710D01*
Y287047D01*
X393646D01*
X397497Y283196D01*
Y274680D01*
X397324Y274613D01*
X396227Y274469D01*
X395154Y276074D01*
X393322Y277299D01*
X392430Y277476D01*
Y272080D01*
Y266684D01*
X393322Y266861D01*
X395154Y268086D01*
X396227Y269691D01*
X397324Y269547D01*
X397497Y269480D01*
Y259960D01*
X396320D01*
Y235960D01*
X406320D01*
Y259960D01*
X405143D01*
Y263154D01*
X406400Y264131D01*
Y269540D01*
Y274949D01*
X405143Y275926D01*
Y284780D01*
X404852Y286243D01*
X404024Y287484D01*
X397934Y293574D01*
X396693Y294402D01*
X395230Y294694D01*
X361156D01*
X360771Y295963D01*
X360864Y296026D01*
X362089Y297858D01*
X362266Y298750D01*
D02*
G37*
G36*
X434340Y277476D02*
Y273350D01*
X438466D01*
X438289Y274242D01*
X437064Y276074D01*
X435232Y277299D01*
X434340Y277476D01*
D02*
G37*
G36*
X431800D02*
X430908Y277299D01*
X429076Y276074D01*
X427851Y274242D01*
X427674Y273350D01*
X431800D01*
Y277476D01*
D02*
G37*
G36*
X389890D02*
X388998Y277299D01*
X387166Y276074D01*
X385941Y274242D01*
X385764Y273350D01*
X389890D01*
Y277476D01*
D02*
G37*
G36*
X73660Y274936D02*
Y270810D01*
X77786D01*
X77609Y271702D01*
X76384Y273534D01*
X74552Y274759D01*
X73660Y274936D01*
D02*
G37*
G36*
X71120D02*
X70228Y274759D01*
X68396Y273534D01*
X67171Y271702D01*
X66994Y270810D01*
X71120D01*
Y274936D01*
D02*
G37*
G36*
X290830Y294958D02*
X288879Y294570D01*
X287225Y293465D01*
X286120Y291811D01*
X285809Y290246D01*
X278069Y282506D01*
X277636Y281857D01*
X276049Y281542D01*
X274064Y280216D01*
X272738Y278231D01*
X272272Y275890D01*
X272738Y273549D01*
X274064Y271564D01*
X276049Y270238D01*
X278390Y269772D01*
X280390D01*
X282731Y270238D01*
X284716Y271564D01*
X286042Y273549D01*
X286508Y275890D01*
X286042Y278231D01*
X285468Y279090D01*
X291216Y284839D01*
X292781Y285150D01*
X294435Y286255D01*
X295540Y287909D01*
X295928Y289860D01*
X295540Y291811D01*
X294435Y293465D01*
X292781Y294570D01*
X290830Y294958D01*
D02*
G37*
G36*
X264160Y292418D02*
X262209Y292030D01*
X260555Y290925D01*
X259450Y289271D01*
X259139Y287706D01*
X257166Y285734D01*
X256338Y284493D01*
X256047Y283030D01*
Y281540D01*
X254064Y280216D01*
X252738Y278231D01*
X252272Y275890D01*
X252738Y273549D01*
X254064Y271564D01*
X256049Y270238D01*
X258390Y269772D01*
X260390D01*
X262731Y270238D01*
X264716Y271564D01*
X266042Y273549D01*
X266507Y275890D01*
X266042Y278231D01*
X264716Y280216D01*
X264361Y280453D01*
X264235Y281987D01*
X264546Y282299D01*
X266111Y282610D01*
X267765Y283715D01*
X268870Y285369D01*
X269258Y287320D01*
X268870Y289271D01*
X267765Y290925D01*
X266111Y292030D01*
X264160Y292418D01*
D02*
G37*
G36*
X306819Y274620D02*
X300660D01*
Y269329D01*
X302097Y269518D01*
X303688Y270177D01*
X305054Y271226D01*
X306103Y272592D01*
X306762Y274183D01*
X306819Y274620D01*
D02*
G37*
G36*
X166819D02*
X160660D01*
Y269329D01*
X162097Y269518D01*
X163688Y270177D01*
X165054Y271226D01*
X166103Y272592D01*
X166762Y274183D01*
X166819Y274620D01*
D02*
G37*
G36*
X298120D02*
X291961D01*
X292018Y274183D01*
X292677Y272592D01*
X293726Y271226D01*
X295092Y270177D01*
X296683Y269518D01*
X298120Y269329D01*
Y274620D01*
D02*
G37*
G36*
X158120D02*
X151961D01*
X152018Y274183D01*
X152677Y272592D01*
X153726Y271226D01*
X155092Y270177D01*
X156683Y269518D01*
X158120Y269329D01*
Y274620D01*
D02*
G37*
G36*
X490536Y273350D02*
X486410D01*
Y269224D01*
X487302Y269401D01*
X489134Y270626D01*
X490359Y272458D01*
X490536Y273350D01*
D02*
G37*
G36*
X483870D02*
X479744D01*
X479921Y272458D01*
X481146Y270626D01*
X482978Y269401D01*
X483870Y269224D01*
Y273350D01*
D02*
G37*
G36*
X438466Y270810D02*
X434340D01*
Y266684D01*
X435232Y266861D01*
X437064Y268086D01*
X438289Y269918D01*
X438466Y270810D01*
D02*
G37*
G36*
X431800D02*
X427674D01*
X427851Y269918D01*
X429076Y268086D01*
X430908Y266861D01*
X431800Y266684D01*
Y270810D01*
D02*
G37*
G36*
X389890D02*
X385764D01*
X385941Y269918D01*
X387166Y268086D01*
X388998Y266861D01*
X389890Y266684D01*
Y270810D01*
D02*
G37*
G36*
X347980Y268586D02*
Y264460D01*
X352106D01*
X351929Y265352D01*
X350704Y267184D01*
X348872Y268409D01*
X347980Y268586D01*
D02*
G37*
G36*
X345440D02*
X344548Y268409D01*
X342716Y267184D01*
X341491Y265352D01*
X341314Y264460D01*
X345440D01*
Y268586D01*
D02*
G37*
G36*
X77786Y268270D02*
X73660D01*
Y264144D01*
X74552Y264321D01*
X76384Y265546D01*
X77609Y267378D01*
X77786Y268270D01*
D02*
G37*
G36*
X71120D02*
X66994D01*
X67171Y267378D01*
X68396Y265546D01*
X70228Y264321D01*
X71120Y264144D01*
Y268270D01*
D02*
G37*
G36*
X352106Y261920D02*
X347980D01*
Y257794D01*
X348872Y257971D01*
X350704Y259196D01*
X351929Y261028D01*
X352106Y261920D01*
D02*
G37*
G36*
X345440D02*
X341314D01*
X341491Y261028D01*
X342716Y259196D01*
X344548Y257971D01*
X345440Y257794D01*
Y261920D01*
D02*
G37*
G36*
X389890Y260500D02*
Y249230D01*
X394160D01*
Y260500D01*
X389890D01*
D02*
G37*
G36*
X55140Y248310D02*
Y241040D01*
X66410D01*
Y248310D01*
X55140D01*
D02*
G37*
G36*
X496671Y353023D02*
X141997D01*
X140534Y352732D01*
X139294Y351904D01*
X81116Y293726D01*
X80288Y292486D01*
X79997Y291023D01*
Y239760D01*
X80288Y238297D01*
X81116Y237056D01*
X90706Y227466D01*
X91947Y226638D01*
X93410Y226347D01*
X102132D01*
X103459Y225460D01*
X105410Y225072D01*
X107361Y225460D01*
X109015Y226565D01*
X110120Y228219D01*
X110508Y230170D01*
X110120Y232121D01*
X109233Y233448D01*
Y252600D01*
X111087D01*
Y248610D01*
X111378Y247147D01*
X112206Y245906D01*
X116827Y241286D01*
Y221118D01*
X115552Y219843D01*
X112810D01*
Y221020D01*
X101810D01*
Y208520D01*
X112810D01*
Y212197D01*
X117135D01*
X118598Y212488D01*
X119839Y213316D01*
X123354Y216831D01*
X124182Y218071D01*
X124473Y219535D01*
Y242870D01*
X124182Y244333D01*
X123354Y245574D01*
X118733Y250194D01*
Y252600D01*
X119910D01*
Y266600D01*
X90910D01*
Y258007D01*
X88913Y256011D01*
X88204Y256150D01*
X87643Y256484D01*
Y289439D01*
X89737Y291532D01*
X90910Y291046D01*
Y280100D01*
X99870D01*
Y279560D01*
X104140D01*
Y287100D01*
X106680D01*
Y279560D01*
X110950D01*
Y280100D01*
X119910D01*
Y294100D01*
X119910Y294100D01*
X119910D01*
X120513Y295106D01*
X143468Y318061D01*
X144938Y317735D01*
X145866Y316346D01*
X147698Y315121D01*
X148590Y314944D01*
Y320340D01*
X149860D01*
Y321610D01*
X155256D01*
X155079Y322502D01*
X153854Y324334D01*
X152465Y325262D01*
X152139Y326732D01*
X154624Y329217D01*
X463211D01*
X463406Y328963D01*
X462781Y327693D01*
X228370D01*
X226907Y327402D01*
X225666Y326574D01*
X180982Y281890D01*
X180390Y282008D01*
X178390D01*
X176049Y281542D01*
X174064Y280216D01*
X172738Y278231D01*
X172272Y275890D01*
X172738Y273549D01*
X174064Y271564D01*
X176049Y270238D01*
X178390Y269772D01*
X180390D01*
X182731Y270238D01*
X184716Y271564D01*
X186042Y273549D01*
X186508Y275890D01*
X186390Y276483D01*
X200566Y290659D01*
X201609Y290342D01*
X201852Y290148D01*
X203016Y288406D01*
X204627Y287330D01*
X205040Y285947D01*
X200982Y281890D01*
X200390Y282008D01*
X198390D01*
X196049Y281542D01*
X194064Y280216D01*
X192738Y278231D01*
X192272Y275890D01*
X192738Y273549D01*
X194064Y271564D01*
X196049Y270238D01*
X198390Y269772D01*
X200390D01*
X202731Y270238D01*
X204716Y271564D01*
X206042Y273549D01*
X206507Y275890D01*
X206390Y276483D01*
X220415Y290508D01*
X221244Y291749D01*
X221812Y292120D01*
X222294Y292319D01*
X222641Y292259D01*
X223520Y292084D01*
Y297480D01*
X224790D01*
Y298750D01*
X230186D01*
X230009Y299642D01*
X228784Y301474D01*
X228016Y301988D01*
X227854Y303623D01*
X239528Y315296D01*
X249547D01*
X250033Y314123D01*
X231322Y295412D01*
X230152Y296038D01*
X230186Y296210D01*
X226060D01*
Y292084D01*
X226952Y292261D01*
X227364Y292537D01*
X228505Y291772D01*
X228317Y290823D01*
Y289224D01*
X220982Y281890D01*
X220390Y282008D01*
X218390D01*
X216049Y281542D01*
X214064Y280216D01*
X212738Y278231D01*
X212272Y275890D01*
X212738Y273549D01*
X214064Y271564D01*
X216049Y270238D01*
X218390Y269772D01*
X220390D01*
X222731Y270238D01*
X224716Y271564D01*
X226042Y273549D01*
X226507Y275890D01*
X226390Y276483D01*
X234297Y284389D01*
X235567Y283863D01*
Y281220D01*
X234064Y280216D01*
X232738Y278231D01*
X232272Y275890D01*
X232738Y273549D01*
X234064Y271564D01*
X236049Y270238D01*
X238390Y269772D01*
X240390D01*
X242731Y270238D01*
X244716Y271564D01*
X246042Y273549D01*
X246507Y275890D01*
X246042Y278231D01*
X244716Y280216D01*
X243213Y281220D01*
Y289772D01*
X249127Y295686D01*
X250762Y295524D01*
X251276Y294756D01*
X253108Y293531D01*
X254000Y293354D01*
Y298750D01*
X255270D01*
Y300020D01*
X260666D01*
X260489Y300912D01*
X259264Y302744D01*
X258496Y303258D01*
X258335Y304893D01*
X259238Y305797D01*
X353257D01*
X353643Y304527D01*
X352876Y304014D01*
X351651Y302182D01*
X351474Y301290D01*
X362266D01*
X362089Y302182D01*
X360864Y304014D01*
X360097Y304527D01*
X360482Y305797D01*
X390136D01*
X410197Y285736D01*
Y275926D01*
X408940Y274949D01*
Y269540D01*
Y264131D01*
X410197Y263154D01*
Y259960D01*
X409020D01*
Y235960D01*
X414654D01*
X415140Y234787D01*
X411806Y231453D01*
X398780D01*
X397317Y231162D01*
X396076Y230334D01*
X390774Y225031D01*
X389209Y224720D01*
X387555Y223615D01*
X386450Y221961D01*
X386062Y220010D01*
X386450Y218059D01*
X387555Y216405D01*
X389209Y215300D01*
X391160Y214912D01*
X393111Y215300D01*
X394655Y216332D01*
X395071Y216204D01*
X395077Y216200D01*
X400050D01*
Y220326D01*
X399158Y220149D01*
X398438Y219667D01*
X397042Y220262D01*
X397008Y220451D01*
X400364Y223807D01*
X413390D01*
X414853Y224098D01*
X416094Y224926D01*
X417287Y226120D01*
X418663Y225700D01*
X418961Y224198D01*
X420186Y222366D01*
X422018Y221141D01*
X422994Y220947D01*
X423412Y219569D01*
X414976Y211133D01*
X406793D01*
X406194Y212253D01*
X406539Y212768D01*
X406716Y213660D01*
X395924D01*
X396101Y212768D01*
X396446Y212253D01*
X395847Y211133D01*
X386394D01*
X379743Y217784D01*
Y225669D01*
X381013Y226044D01*
X382648Y224951D01*
X383540Y224774D01*
Y230170D01*
X384810D01*
Y231440D01*
X390206D01*
X390029Y232332D01*
X388804Y234164D01*
X389211Y235420D01*
X394160D01*
Y246690D01*
X388620D01*
Y247960D01*
X387350D01*
Y260500D01*
X384040D01*
X383506Y260500D01*
X383405Y260504D01*
X383235Y260515D01*
X383044Y260534D01*
X382199Y261341D01*
X382172Y261794D01*
X382170Y261853D01*
Y272620D01*
X369670D01*
Y260620D01*
X369923D01*
X370920Y259960D01*
Y251783D01*
X332460D01*
X330997Y251492D01*
X329756Y250664D01*
X200982Y121890D01*
X200390Y122008D01*
X198390D01*
X196049Y121542D01*
X194064Y120216D01*
X192738Y118231D01*
X192272Y115890D01*
X192390Y115297D01*
X159956Y82863D01*
X124174D01*
Y87136D01*
X97822D01*
Y70944D01*
X124174D01*
Y75217D01*
X142227D01*
Y73100D01*
X139800D01*
Y61100D01*
X152300D01*
Y73100D01*
X149873D01*
Y75217D01*
X161540D01*
X163003Y75508D01*
X164244Y76336D01*
X197798Y109890D01*
X198390Y109772D01*
X200390D01*
X202731Y110238D01*
X204716Y111564D01*
X206042Y113549D01*
X206507Y115890D01*
X206390Y116482D01*
X334044Y244137D01*
X370920D01*
Y235960D01*
X372097D01*
Y216200D01*
X372388Y214737D01*
X373216Y213496D01*
X373882Y212831D01*
X373464Y211453D01*
X372488Y211259D01*
X370656Y210034D01*
X369431Y208202D01*
X369254Y207310D01*
X374650D01*
Y204770D01*
X369241D01*
X368264Y203513D01*
X356870D01*
X355407Y203222D01*
X354166Y202394D01*
X350134Y198361D01*
X348569Y198050D01*
X346915Y196945D01*
X345810Y195291D01*
X345422Y193340D01*
X345810Y191389D01*
X346915Y189735D01*
X348569Y188630D01*
X350520Y188242D01*
X352471Y188630D01*
X354125Y189735D01*
X355230Y191389D01*
X355541Y192954D01*
X358454Y195867D01*
X475306D01*
X503008Y168165D01*
X502590Y166787D01*
X502515Y166772D01*
X483404Y185884D01*
X482163Y186712D01*
X480700Y187003D01*
X469368D01*
X468041Y187890D01*
X466090Y188278D01*
X464139Y187890D01*
X462485Y186785D01*
X461380Y185131D01*
X460992Y183180D01*
X461380Y181229D01*
X462485Y179575D01*
X464139Y178470D01*
X466090Y178082D01*
X468041Y178470D01*
X469368Y179357D01*
X479116D01*
X491339Y167133D01*
X490854Y165960D01*
X485220D01*
Y141960D01*
X486397D01*
Y125560D01*
X484956D01*
X483910Y126100D01*
X483910Y126100D01*
X483910Y126100D01*
X476640D01*
Y118560D01*
X475370D01*
Y117290D01*
X466830D01*
Y111020D01*
X465911Y110173D01*
X461954D01*
X458483Y113644D01*
Y122516D01*
X477927Y141960D01*
X482520D01*
Y165960D01*
X472520D01*
Y147367D01*
X471533Y146381D01*
X470360Y146867D01*
Y152690D01*
X464820D01*
Y153960D01*
X463550D01*
Y167006D01*
X463222Y167620D01*
X463689Y168318D01*
X463866Y169210D01*
X453074D01*
X453251Y168318D01*
X453979Y167230D01*
X453300Y165960D01*
X447120D01*
Y141960D01*
X448297D01*
Y133397D01*
X444513Y129614D01*
X443804Y129754D01*
X443243Y130087D01*
Y141960D01*
X444420D01*
Y165960D01*
X434420D01*
Y141960D01*
X435597D01*
Y123804D01*
X427604Y115811D01*
X426039Y115500D01*
X424385Y114395D01*
X423280Y112741D01*
X422892Y110790D01*
X423280Y108839D01*
X424385Y107185D01*
X426039Y106080D01*
X427990Y105692D01*
X429941Y106080D01*
X431595Y107185D01*
X432700Y108839D01*
X433011Y110404D01*
X441947Y119339D01*
X442656Y119199D01*
X443217Y118866D01*
Y102214D01*
X438976Y97973D01*
X359419D01*
X359021Y99042D01*
X359011Y99243D01*
X401727Y141960D01*
X406320D01*
Y165960D01*
X406182D01*
X405797Y167230D01*
X406584Y167756D01*
X407809Y169588D01*
X407986Y170480D01*
X397194D01*
X397371Y169588D01*
X398596Y167756D01*
X399383Y167230D01*
X398998Y165960D01*
X396320D01*
Y147367D01*
X394793Y145840D01*
X393620Y146327D01*
Y165960D01*
X389027D01*
X377994Y176994D01*
X376753Y177822D01*
X375290Y178113D01*
X343214D01*
X332753Y188574D01*
Y215462D01*
X333640Y216789D01*
X334028Y218740D01*
X333640Y220691D01*
X332535Y222345D01*
X330881Y223450D01*
X328930Y223838D01*
X326979Y223450D01*
X325325Y222345D01*
X324220Y220691D01*
X323832Y218740D01*
X324220Y216789D01*
X325107Y215462D01*
Y186990D01*
X325398Y185527D01*
X326226Y184286D01*
X338926Y171586D01*
X340167Y170758D01*
X341630Y170467D01*
X373706D01*
X377039Y167133D01*
X376553Y165960D01*
X370920D01*
Y157793D01*
X363000D01*
Y160220D01*
X352000D01*
Y147720D01*
X363000D01*
Y150147D01*
X370920D01*
Y141960D01*
X380920D01*
Y161593D01*
X382093Y162080D01*
X383620Y160553D01*
Y141960D01*
X389254D01*
X389739Y140787D01*
X354676Y105723D01*
X312438D01*
X305469Y112692D01*
X306042Y113549D01*
X306507Y115890D01*
X306042Y118231D01*
X304716Y120216D01*
X302731Y121542D01*
X300390Y122008D01*
X298390D01*
X296049Y121542D01*
X294064Y120216D01*
X292738Y118231D01*
X292272Y115890D01*
X292738Y113549D01*
X294064Y111564D01*
X296049Y110238D01*
X297373Y109975D01*
X308104Y99243D01*
X308094Y99042D01*
X307696Y97973D01*
X274177D01*
X273942Y99221D01*
X275774Y100446D01*
X276999Y102278D01*
X277176Y103170D01*
X266384D01*
X266561Y102278D01*
X267786Y100446D01*
X269618Y99221D01*
X269383Y97973D01*
X263714D01*
X246390Y115297D01*
X246507Y115890D01*
X246042Y118231D01*
X244716Y120216D01*
X242731Y121542D01*
X240390Y122008D01*
X238390D01*
X236049Y121542D01*
X234064Y120216D01*
X232738Y118231D01*
X232272Y115890D01*
X232738Y113549D01*
X234064Y111564D01*
X236049Y110238D01*
X238390Y109772D01*
X240390D01*
X240982Y109890D01*
X259426Y91446D01*
X260667Y90618D01*
X262130Y90326D01*
X440560D01*
X442023Y90618D01*
X443264Y91446D01*
X449744Y97926D01*
X450572Y99167D01*
X450863Y100630D01*
Y108706D01*
X451424Y109039D01*
X452133Y109179D01*
X457666Y103646D01*
X458907Y102818D01*
X460370Y102527D01*
X467370D01*
Y98560D01*
X468730D01*
Y87010D01*
X481230D01*
Y98560D01*
X482784D01*
X483830Y98020D01*
X483830Y98020D01*
X483830Y98020D01*
X491100D01*
Y105560D01*
X492370D01*
Y106830D01*
X500910D01*
Y112160D01*
X512350D01*
Y124660D01*
X500370D01*
Y125560D01*
X494043D01*
Y141960D01*
X495220D01*
Y161593D01*
X496393Y162080D01*
X497920Y160553D01*
Y141960D01*
X507920D01*
Y161593D01*
X509093Y162080D01*
X510620Y160553D01*
Y141960D01*
X520620D01*
Y165960D01*
X516027D01*
X479594Y202394D01*
X478353Y203222D01*
X476890Y203513D01*
X419914D01*
X419580Y204074D01*
X419441Y204783D01*
X439420Y224763D01*
X449416Y214766D01*
X450657Y213938D01*
X452120Y213647D01*
X469900D01*
X471363Y213938D01*
X472604Y214766D01*
X477520Y219683D01*
X524497Y172706D01*
Y165960D01*
X523320D01*
Y141960D01*
X524497D01*
Y134920D01*
X524788Y133457D01*
X525616Y132216D01*
X530737Y127096D01*
Y125531D01*
X529467Y124902D01*
X528890Y125200D01*
X528514Y125200D01*
X523620D01*
Y118410D01*
Y111620D01*
X528514D01*
X528890Y111620D01*
X529936Y112160D01*
X530709Y112160D01*
X531607Y111262D01*
Y76400D01*
X529800D01*
Y63900D01*
X540800D01*
Y76400D01*
X539253D01*
Y112160D01*
X541560D01*
Y124660D01*
X538383D01*
Y128680D01*
X538092Y130143D01*
X537263Y131384D01*
X532143Y136504D01*
Y141960D01*
X533320D01*
Y165960D01*
X532143D01*
Y174290D01*
X531852Y175753D01*
X531024Y176994D01*
X481343Y226674D01*
Y235960D01*
X482520D01*
Y259960D01*
X472520D01*
Y235960D01*
X473697D01*
Y226674D01*
X468316Y221293D01*
X453704D01*
X443243Y231754D01*
Y235960D01*
X444420D01*
Y259960D01*
X434420D01*
Y235960D01*
X435597D01*
Y231754D01*
X430971Y227128D01*
X429593Y227546D01*
X429399Y228522D01*
X428174Y230354D01*
X426342Y231579D01*
X424840Y231877D01*
X424420Y233253D01*
X427127Y235960D01*
X431720D01*
Y259960D01*
X421720D01*
Y241367D01*
X420193Y239841D01*
X419020Y240326D01*
Y259960D01*
X417843D01*
Y287320D01*
X417552Y288783D01*
X416724Y290024D01*
X397374Y309373D01*
X397860Y310546D01*
X484271D01*
X511797Y283021D01*
Y259960D01*
X510620D01*
Y235960D01*
X520620D01*
Y259960D01*
X519443D01*
Y280433D01*
X520617Y280919D01*
X524497Y277039D01*
Y259960D01*
X523320D01*
Y235960D01*
X533320D01*
Y259960D01*
X532143D01*
Y278622D01*
X531852Y280086D01*
X531024Y281326D01*
X500849Y311500D01*
X501267Y312878D01*
X502331Y313090D01*
X503985Y314195D01*
X505090Y315849D01*
X505478Y317800D01*
X505090Y319751D01*
X503985Y321405D01*
X502331Y322510D01*
X500380Y322898D01*
X498429Y322510D01*
X497307Y321760D01*
X492494Y326574D01*
X491253Y327402D01*
X489790Y327693D01*
X470644D01*
X470259Y328963D01*
X470965Y329435D01*
X472070Y331089D01*
X472458Y333040D01*
X472070Y334991D01*
X470965Y336645D01*
X469311Y337750D01*
X467360Y338138D01*
X465409Y337750D01*
X464082Y336863D01*
X459463D01*
X459337Y336980D01*
X459724Y338351D01*
X460421Y338490D01*
X462075Y339595D01*
X463180Y341249D01*
X463568Y343200D01*
X463388Y344107D01*
X464430Y345377D01*
X495087D01*
X537197Y303267D01*
Y259960D01*
X536020D01*
Y235960D01*
X546020D01*
Y259960D01*
X544843D01*
Y304851D01*
X544552Y306314D01*
X543724Y307554D01*
X499374Y351904D01*
X498134Y352732D01*
X496671Y353023D01*
D02*
G37*
G36*
X502920Y286068D02*
X500969Y285680D01*
X499315Y284575D01*
X498210Y282921D01*
X497822Y280970D01*
X498210Y279019D01*
X499097Y277692D01*
Y259960D01*
X497920D01*
Y235960D01*
X507920D01*
Y259960D01*
X506743D01*
Y277692D01*
X507630Y279019D01*
X508018Y280970D01*
X507630Y282921D01*
X506525Y284575D01*
X504871Y285680D01*
X502920Y286068D01*
D02*
G37*
G36*
X495220Y259960D02*
X485220D01*
Y235960D01*
X495220D01*
Y259960D01*
D02*
G37*
G36*
X465455Y281623D02*
X463504Y281235D01*
X461850Y280130D01*
X460745Y278476D01*
X460357Y276525D01*
X460745Y274574D01*
X461632Y273247D01*
Y259960D01*
X459820D01*
Y249700D01*
X459727Y249230D01*
X459820Y248760D01*
Y235960D01*
X469820D01*
Y259960D01*
X469278D01*
Y273247D01*
X470165Y274574D01*
X470553Y276525D01*
X470165Y278476D01*
X469060Y280130D01*
X467406Y281235D01*
X465455Y281623D01*
D02*
G37*
G36*
X453390Y280988D02*
X451439Y280600D01*
X449785Y279495D01*
X448680Y277841D01*
X448292Y275890D01*
X448421Y275244D01*
X448297Y274620D01*
Y259960D01*
X447120D01*
Y235960D01*
X457120D01*
Y259960D01*
X455943D01*
Y271583D01*
X456995Y272285D01*
X458100Y273939D01*
X458488Y275890D01*
X458100Y277841D01*
X456995Y279495D01*
X455341Y280600D01*
X453390Y280988D01*
D02*
G37*
G36*
X226060Y238106D02*
Y233980D01*
X230186D01*
X230009Y234872D01*
X228784Y236704D01*
X226952Y237929D01*
X226060Y238106D01*
D02*
G37*
G36*
X223520D02*
X222628Y237929D01*
X220796Y236704D01*
X219571Y234872D01*
X219394Y233980D01*
X223520D01*
Y238106D01*
D02*
G37*
G36*
X73660Y236836D02*
Y232710D01*
X77786D01*
X77609Y233602D01*
X76384Y235434D01*
X74552Y236659D01*
X73660Y236836D01*
D02*
G37*
G36*
X52600Y238500D02*
X41330D01*
Y231230D01*
X52600D01*
Y238500D01*
D02*
G37*
G36*
X461010Y234296D02*
Y230170D01*
X465136D01*
X464959Y231062D01*
X463734Y232894D01*
X461902Y234119D01*
X461010Y234296D01*
D02*
G37*
G36*
X458470D02*
X457578Y234119D01*
X455746Y232894D01*
X454521Y231062D01*
X454344Y230170D01*
X458470D01*
Y234296D01*
D02*
G37*
G36*
X230186Y231440D02*
X226060D01*
Y227314D01*
X226952Y227491D01*
X228784Y228716D01*
X230009Y230548D01*
X230186Y231440D01*
D02*
G37*
G36*
X223520D02*
X219394D01*
X219571Y230548D01*
X220796Y228716D01*
X222628Y227491D01*
X223520Y227314D01*
Y231440D01*
D02*
G37*
G36*
X390206Y228900D02*
X386080D01*
Y224774D01*
X386972Y224951D01*
X388804Y226176D01*
X390029Y228008D01*
X390206Y228900D01*
D02*
G37*
G36*
X465136Y227630D02*
X461010D01*
Y223504D01*
X461902Y223681D01*
X463734Y224906D01*
X464959Y226738D01*
X465136Y227630D01*
D02*
G37*
G36*
X458470D02*
X454344D01*
X454521Y226738D01*
X455746Y224906D01*
X457578Y223681D01*
X458470Y223504D01*
Y227630D01*
D02*
G37*
G36*
X214630Y226676D02*
Y222550D01*
X218756D01*
X218579Y223442D01*
X217354Y225274D01*
X215522Y226499D01*
X214630Y226676D01*
D02*
G37*
G36*
X212090D02*
X211198Y226499D01*
X209366Y225274D01*
X208141Y223442D01*
X207964Y222550D01*
X212090D01*
Y226676D01*
D02*
G37*
G36*
X514350Y224136D02*
Y220010D01*
X518476D01*
X518299Y220902D01*
X517074Y222734D01*
X515242Y223959D01*
X514350Y224136D01*
D02*
G37*
G36*
X511810D02*
X510918Y223959D01*
X509086Y222734D01*
X507861Y220902D01*
X507684Y220010D01*
X511810D01*
Y224136D01*
D02*
G37*
G36*
X27870Y234835D02*
X25912Y234577D01*
X24088Y233821D01*
X22521Y232619D01*
X21319Y231052D01*
X20563Y229228D01*
X20305Y227270D01*
X20563Y225312D01*
X21319Y223488D01*
X22521Y221921D01*
X24088Y220719D01*
X25912Y219963D01*
X27870Y219705D01*
X29828Y219963D01*
X31652Y220719D01*
X33219Y221921D01*
X34421Y223488D01*
X35177Y225312D01*
X35435Y227270D01*
X35177Y229228D01*
X34421Y231052D01*
X33219Y232619D01*
X31652Y233821D01*
X29828Y234577D01*
X27870Y234835D01*
D02*
G37*
G36*
X402590Y220326D02*
Y216200D01*
X406716D01*
X406539Y217092D01*
X405314Y218924D01*
X403482Y220149D01*
X402590Y220326D01*
D02*
G37*
G36*
X218756Y220010D02*
X214630D01*
Y215884D01*
X215522Y216061D01*
X217354Y217286D01*
X218579Y219118D01*
X218756Y220010D01*
D02*
G37*
G36*
X212090D02*
X207964D01*
X208141Y219118D01*
X209366Y217286D01*
X211198Y216061D01*
X212090Y215884D01*
Y220010D01*
D02*
G37*
G36*
X441960Y217786D02*
Y213660D01*
X446086D01*
X445909Y214552D01*
X444684Y216384D01*
X442852Y217609D01*
X441960Y217786D01*
D02*
G37*
G36*
X439420D02*
X438528Y217609D01*
X436696Y216384D01*
X435471Y214552D01*
X435294Y213660D01*
X439420D01*
Y217786D01*
D02*
G37*
G36*
X518476Y217470D02*
X514350D01*
Y213344D01*
X515242Y213521D01*
X517074Y214746D01*
X518299Y216578D01*
X518476Y217470D01*
D02*
G37*
G36*
X511810D02*
X507684D01*
X507861Y216578D01*
X509086Y214746D01*
X510918Y213521D01*
X511810Y213344D01*
Y217470D01*
D02*
G37*
G36*
X201930Y215246D02*
Y211120D01*
X206056D01*
X205879Y212012D01*
X204654Y213844D01*
X202822Y215069D01*
X201930Y215246D01*
D02*
G37*
G36*
X199390D02*
X198498Y215069D01*
X196666Y213844D01*
X195441Y212012D01*
X195264Y211120D01*
X199390D01*
Y215246D01*
D02*
G37*
G36*
X66410Y238500D02*
X55140D01*
Y231230D01*
X65503D01*
X66410Y231230D01*
X66988Y230200D01*
X67171Y229278D01*
X68026Y228000D01*
X68044Y226972D01*
X67653Y226445D01*
X66395Y225605D01*
X65290Y223951D01*
X65055Y222770D01*
X41870D01*
Y206770D01*
X65870D01*
Y210947D01*
X72573D01*
X72698Y209676D01*
X71709Y209480D01*
X70055Y208375D01*
X68950Y206721D01*
X68562Y204770D01*
X68950Y202819D01*
X69837Y201492D01*
Y198513D01*
X65870D01*
Y202770D01*
X41870D01*
Y186770D01*
X65870D01*
Y190867D01*
X85310D01*
Y188360D01*
X96310D01*
Y200860D01*
X85310D01*
Y198513D01*
X77483D01*
Y201492D01*
X78370Y202819D01*
X78758Y204770D01*
X78370Y206721D01*
X77265Y208375D01*
X75611Y209480D01*
X74622Y209676D01*
X74747Y210947D01*
X85310D01*
Y208520D01*
X96310D01*
Y221020D01*
X85310D01*
Y218593D01*
X75265D01*
X74586Y219863D01*
X74710Y220049D01*
X75098Y222000D01*
X74710Y223951D01*
X74116Y224840D01*
X74525Y226136D01*
X74668Y226299D01*
X76384Y227446D01*
X77609Y229278D01*
X77786Y230170D01*
X72390D01*
Y231440D01*
X71120D01*
Y236836D01*
X70228Y236659D01*
X68396Y235434D01*
X67680Y234363D01*
X66410Y234748D01*
Y238500D01*
D02*
G37*
G36*
X446086Y211120D02*
X441960D01*
Y206994D01*
X442852Y207171D01*
X444684Y208396D01*
X445909Y210228D01*
X446086Y211120D01*
D02*
G37*
G36*
X439420D02*
X435294D01*
X435471Y210228D01*
X436696Y208396D01*
X438528Y207171D01*
X439420Y206994D01*
Y211120D01*
D02*
G37*
G36*
X123190Y210166D02*
Y206040D01*
X127316D01*
X127139Y206932D01*
X125914Y208764D01*
X124082Y209989D01*
X123190Y210166D01*
D02*
G37*
G36*
X120650D02*
X119758Y209989D01*
X117926Y208764D01*
X116701Y206932D01*
X116524Y206040D01*
X120650D01*
Y210166D01*
D02*
G37*
G36*
X206056Y208580D02*
X201930D01*
Y204454D01*
X202822Y204631D01*
X204654Y205856D01*
X205879Y207688D01*
X206056Y208580D01*
D02*
G37*
G36*
X199390D02*
X195264D01*
X195441Y207688D01*
X196666Y205856D01*
X198498Y204631D01*
X199390Y204454D01*
Y208580D01*
D02*
G37*
G36*
X530860Y203816D02*
Y199690D01*
X534986D01*
X534809Y200582D01*
X533584Y202414D01*
X531752Y203639D01*
X530860Y203816D01*
D02*
G37*
G36*
X528320D02*
X527428Y203639D01*
X525596Y202414D01*
X524371Y200582D01*
X524194Y199690D01*
X528320D01*
Y203816D01*
D02*
G37*
G36*
X189230D02*
Y199690D01*
X193356D01*
X193179Y200582D01*
X191954Y202414D01*
X190122Y203639D01*
X189230Y203816D01*
D02*
G37*
G36*
X186690D02*
X185798Y203639D01*
X183966Y202414D01*
X182741Y200582D01*
X182564Y199690D01*
X186690D01*
Y203816D01*
D02*
G37*
G36*
X127316Y203500D02*
X116524D01*
X116701Y202608D01*
X117926Y200776D01*
X119531Y199703D01*
X119387Y198606D01*
X119320Y198433D01*
X112810D01*
Y200860D01*
X101810D01*
Y188360D01*
X112810D01*
Y190787D01*
X120590D01*
X120657Y190614D01*
X120801Y189517D01*
X119196Y188444D01*
X117971Y186612D01*
X117794Y185720D01*
X128586D01*
X128409Y186612D01*
X127184Y188444D01*
X125579Y189517D01*
X125723Y190614D01*
X125790Y190787D01*
X128270D01*
X128894Y190911D01*
X129540Y190782D01*
X131491Y191170D01*
X133145Y192275D01*
X134250Y193929D01*
X134638Y195880D01*
X134250Y197831D01*
X133145Y199485D01*
X131491Y200590D01*
X129540Y200978D01*
X127589Y200590D01*
X127098Y200262D01*
X126182Y201177D01*
X127139Y202608D01*
X127316Y203500D01*
D02*
G37*
G36*
X534986Y197150D02*
X530860D01*
Y193024D01*
X531752Y193201D01*
X533584Y194426D01*
X534809Y196258D01*
X534986Y197150D01*
D02*
G37*
G36*
X528320D02*
X524194D01*
X524371Y196258D01*
X525596Y194426D01*
X527428Y193201D01*
X528320Y193024D01*
Y197150D01*
D02*
G37*
G36*
X193356D02*
X189230D01*
Y193024D01*
X190122Y193201D01*
X191954Y194426D01*
X193179Y196258D01*
X193356Y197150D01*
D02*
G37*
G36*
X186690D02*
X182564D01*
X182741Y196258D01*
X183966Y194426D01*
X185798Y193201D01*
X186690Y193024D01*
Y197150D01*
D02*
G37*
G36*
X383540Y192386D02*
Y188260D01*
X387666D01*
X387489Y189152D01*
X386264Y190984D01*
X384432Y192209D01*
X383540Y192386D01*
D02*
G37*
G36*
X381000D02*
X380108Y192209D01*
X378276Y190984D01*
X377051Y189152D01*
X376874Y188260D01*
X381000D01*
Y192386D01*
D02*
G37*
G36*
X176530D02*
Y188260D01*
X180656D01*
X180479Y189152D01*
X179254Y190984D01*
X177422Y192209D01*
X176530Y192386D01*
D02*
G37*
G36*
X173990D02*
X173098Y192209D01*
X171266Y190984D01*
X170041Y189152D01*
X169864Y188260D01*
X173990D01*
Y192386D01*
D02*
G37*
G36*
X387666Y185720D02*
X383540D01*
Y181594D01*
X384432Y181771D01*
X386264Y182996D01*
X387489Y184828D01*
X387666Y185720D01*
D02*
G37*
G36*
X381000D02*
X376874D01*
X377051Y184828D01*
X378276Y182996D01*
X380108Y181771D01*
X381000Y181594D01*
Y185720D01*
D02*
G37*
G36*
X180656D02*
X176530D01*
Y181594D01*
X177422Y181771D01*
X179254Y182996D01*
X180479Y184828D01*
X180656Y185720D01*
D02*
G37*
G36*
X173990D02*
X169864D01*
X170041Y184828D01*
X171266Y182996D01*
X173098Y181771D01*
X173990Y181594D01*
Y185720D01*
D02*
G37*
G36*
X128586Y183180D02*
X124460D01*
Y179054D01*
X125352Y179231D01*
X127184Y180456D01*
X128409Y182288D01*
X128586Y183180D01*
D02*
G37*
G36*
X121920D02*
X117794D01*
X117971Y182288D01*
X119196Y180456D01*
X121028Y179231D01*
X121920Y179054D01*
Y183180D01*
D02*
G37*
G36*
X162560Y179686D02*
Y175560D01*
X166686D01*
X166509Y176452D01*
X165284Y178284D01*
X163452Y179509D01*
X162560Y179686D01*
D02*
G37*
G36*
X160020D02*
X159128Y179509D01*
X157296Y178284D01*
X156071Y176452D01*
X155894Y175560D01*
X160020D01*
Y179686D01*
D02*
G37*
G36*
X27870Y189835D02*
X25912Y189577D01*
X24088Y188821D01*
X22521Y187619D01*
X21319Y186052D01*
X20563Y184228D01*
X20305Y182270D01*
X20563Y180312D01*
X21319Y178488D01*
X22521Y176921D01*
X24088Y175719D01*
X25912Y174963D01*
X27870Y174705D01*
X29828Y174963D01*
X31652Y175719D01*
X33219Y176921D01*
X34421Y178488D01*
X35177Y180312D01*
X35435Y182270D01*
X35177Y184228D01*
X34421Y186052D01*
X33219Y187619D01*
X31652Y188821D01*
X29828Y189577D01*
X27870Y189835D01*
D02*
G37*
G36*
X403860Y177146D02*
Y173020D01*
X407986D01*
X407809Y173912D01*
X406584Y175744D01*
X404752Y176969D01*
X403860Y177146D01*
D02*
G37*
G36*
X401320D02*
X400428Y176969D01*
X398596Y175744D01*
X397371Y173912D01*
X397194Y173020D01*
X401320D01*
Y177146D01*
D02*
G37*
G36*
X459740Y175876D02*
Y171750D01*
X463866D01*
X463689Y172642D01*
X462464Y174474D01*
X460632Y175699D01*
X459740Y175876D01*
D02*
G37*
G36*
X457200D02*
X456308Y175699D01*
X454476Y174474D01*
X453251Y172642D01*
X453074Y171750D01*
X457200D01*
Y175876D01*
D02*
G37*
G36*
X166686Y173020D02*
X162560D01*
Y168894D01*
X163452Y169071D01*
X165284Y170296D01*
X166509Y172128D01*
X166686Y173020D01*
D02*
G37*
G36*
X160020D02*
X155894D01*
X156071Y172128D01*
X157296Y170296D01*
X159128Y169071D01*
X160020Y168894D01*
Y173020D01*
D02*
G37*
G36*
X546560Y166500D02*
X542290D01*
Y155230D01*
X546560D01*
Y166500D01*
D02*
G37*
G36*
X470360D02*
X466090D01*
Y155230D01*
X470360D01*
Y166500D01*
D02*
G37*
G36*
X539750D02*
X535480D01*
Y155230D01*
X539750D01*
Y166500D01*
D02*
G37*
G36*
X110930Y160130D02*
X105410D01*
Y154860D01*
X110930D01*
Y160130D01*
D02*
G37*
G36*
X102870D02*
X97350D01*
Y154860D01*
X102870D01*
Y160130D01*
D02*
G37*
G36*
X139700Y158096D02*
Y153970D01*
X143826D01*
X143649Y154862D01*
X142424Y156694D01*
X140592Y157919D01*
X139700Y158096D01*
D02*
G37*
G36*
X137160D02*
X136268Y157919D01*
X134436Y156694D01*
X133211Y154862D01*
X133034Y153970D01*
X137160D01*
Y158096D01*
D02*
G37*
G36*
X143826Y151430D02*
X139700D01*
Y147304D01*
X140592Y147481D01*
X142424Y148706D01*
X143649Y150538D01*
X143826Y151430D01*
D02*
G37*
G36*
X137160D02*
X133034D01*
X133211Y150538D01*
X134436Y148706D01*
X136268Y147481D01*
X137160Y147304D01*
Y151430D01*
D02*
G37*
G36*
X110930Y152320D02*
X105410D01*
Y147050D01*
X110930D01*
Y152320D01*
D02*
G37*
G36*
X102870D02*
X97350D01*
Y147050D01*
X102870D01*
Y152320D01*
D02*
G37*
G36*
X433070Y187008D02*
X431119Y186620D01*
X429465Y185515D01*
X428360Y183861D01*
X428049Y182296D01*
X424016Y178264D01*
X423188Y177023D01*
X422897Y175560D01*
Y165960D01*
X421720D01*
Y141960D01*
X431720D01*
Y165960D01*
X430543D01*
Y173976D01*
X433456Y176889D01*
X435021Y177200D01*
X436675Y178305D01*
X437780Y179959D01*
X438168Y181910D01*
X437780Y183861D01*
X436675Y185515D01*
X435021Y186620D01*
X433070Y187008D01*
D02*
G37*
G36*
X414020Y189548D02*
X412069Y189160D01*
X410415Y188055D01*
X409310Y186401D01*
X408922Y184450D01*
X409310Y182499D01*
X410197Y181172D01*
Y165960D01*
X409020D01*
Y141960D01*
X419020D01*
Y165960D01*
X417843D01*
Y181172D01*
X418730Y182499D01*
X419118Y184450D01*
X418730Y186401D01*
X417625Y188055D01*
X415971Y189160D01*
X414020Y189548D01*
D02*
G37*
G36*
X546560Y152690D02*
X542290D01*
Y141420D01*
X546560D01*
Y152690D01*
D02*
G37*
G36*
X539750D02*
X535480D01*
Y141420D01*
X539750D01*
Y152690D01*
D02*
G37*
G36*
X104140Y137776D02*
Y133650D01*
X108266D01*
X108089Y134542D01*
X106864Y136374D01*
X105032Y137599D01*
X104140Y137776D01*
D02*
G37*
G36*
X101600D02*
X100708Y137599D01*
X98876Y136374D01*
X97651Y134542D01*
X97474Y133650D01*
X101600D01*
Y137776D01*
D02*
G37*
G36*
X91880Y135890D02*
X86360D01*
Y131120D01*
X91880D01*
Y135890D01*
D02*
G37*
G36*
X83820D02*
X78300D01*
Y131120D01*
X83820D01*
Y135890D01*
D02*
G37*
G36*
X108266Y131110D02*
X104140D01*
Y126984D01*
X105032Y127161D01*
X106864Y128386D01*
X108089Y130218D01*
X108266Y131110D01*
D02*
G37*
G36*
X101600D02*
X97474D01*
X97651Y130218D01*
X98876Y128386D01*
X100708Y127161D01*
X101600Y126984D01*
Y131110D01*
D02*
G37*
G36*
X91880Y128580D02*
X86360D01*
Y123810D01*
X91880D01*
Y128580D01*
D02*
G37*
G36*
X83820D02*
X78300D01*
Y123810D01*
X83820D01*
Y128580D01*
D02*
G37*
G36*
X346500Y160220D02*
X335500D01*
Y147720D01*
X337177D01*
Y132456D01*
X336755Y132175D01*
X335650Y130521D01*
X335262Y128570D01*
X335650Y126619D01*
X336755Y124965D01*
X338409Y123860D01*
X340360Y123472D01*
X342311Y123860D01*
X343965Y124965D01*
X345070Y126619D01*
X345458Y128570D01*
X345070Y130521D01*
X344823Y130890D01*
Y147720D01*
X346500D01*
Y160220D01*
D02*
G37*
G36*
X50100Y127740D02*
X44830D01*
Y122220D01*
X50100D01*
Y127740D01*
D02*
G37*
G36*
X42290D02*
X37020D01*
Y122220D01*
X42290D01*
Y127740D01*
D02*
G37*
G36*
X474100Y126100D02*
X466830D01*
Y119830D01*
X474100D01*
Y126100D01*
D02*
G37*
G36*
X558100Y125200D02*
X552830D01*
Y119680D01*
X558100D01*
Y125200D01*
D02*
G37*
G36*
X550290D02*
X545020D01*
Y119680D01*
X550290D01*
Y125200D01*
D02*
G37*
G36*
X521080D02*
X515810D01*
Y119680D01*
X521080D01*
Y125200D01*
D02*
G37*
G36*
X180660Y122451D02*
Y117160D01*
X186819D01*
X186762Y117597D01*
X186103Y119188D01*
X185054Y120554D01*
X183688Y121603D01*
X182097Y122262D01*
X180660Y122451D01*
D02*
G37*
G36*
X160660Y122451D02*
Y117160D01*
X166819D01*
X166762Y117597D01*
X166103Y119188D01*
X165054Y120554D01*
X163688Y121603D01*
X162097Y122262D01*
X160660Y122451D01*
D02*
G37*
G36*
X158120D02*
X156683Y122262D01*
X155092Y121603D01*
X153726Y120554D01*
X152677Y119188D01*
X152018Y117597D01*
X151961Y117160D01*
X158120D01*
Y122451D01*
D02*
G37*
G36*
X178120D02*
X176683Y122262D01*
X175092Y121603D01*
X173726Y120554D01*
X172677Y119188D01*
X172018Y117597D01*
X171961Y117160D01*
X178120D01*
Y122451D01*
D02*
G37*
G36*
X50100Y119680D02*
X44830D01*
Y114160D01*
X50100D01*
Y119680D01*
D02*
G37*
G36*
X42290D02*
X37020D01*
Y114160D01*
X42290D01*
Y119680D01*
D02*
G37*
G36*
X558100Y117140D02*
X552830D01*
Y111620D01*
X558100D01*
Y117140D01*
D02*
G37*
G36*
X550290D02*
X545020D01*
Y111620D01*
X550290D01*
Y117140D01*
D02*
G37*
G36*
X521080D02*
X515810D01*
Y111620D01*
X521080D01*
Y117140D01*
D02*
G37*
G36*
X283210Y145098D02*
X281259Y144710D01*
X279605Y143605D01*
X278500Y141951D01*
X278112Y140000D01*
X278500Y138049D01*
X279387Y136722D01*
Y122008D01*
X278390D01*
X276049Y121542D01*
X274064Y120216D01*
X272738Y118231D01*
X272272Y115890D01*
X272738Y113549D01*
X274064Y111564D01*
X276049Y110238D01*
X278390Y109772D01*
X280390D01*
X282731Y110238D01*
X284716Y111564D01*
X286042Y113549D01*
X286508Y115890D01*
X286200Y117435D01*
X286742Y118247D01*
X287033Y119710D01*
Y136722D01*
X287920Y138049D01*
X288308Y140000D01*
X287920Y141951D01*
X286815Y143605D01*
X285161Y144710D01*
X283210Y145098D01*
D02*
G37*
G36*
X267970Y131128D02*
X266019Y130740D01*
X264365Y129635D01*
X263260Y127981D01*
X262872Y126030D01*
X263111Y124827D01*
X260292Y122008D01*
X258390D01*
X256049Y121542D01*
X254064Y120216D01*
X252738Y118231D01*
X252272Y115890D01*
X252738Y113549D01*
X254064Y111564D01*
X256049Y110238D01*
X258390Y109772D01*
X260390D01*
X262731Y110238D01*
X264716Y111564D01*
X266042Y113549D01*
X266507Y115890D01*
X266255Y117157D01*
X270674Y121575D01*
X270973Y122023D01*
X271575Y122425D01*
X272680Y124079D01*
X273068Y126030D01*
X272680Y127981D01*
X271575Y129635D01*
X269921Y130740D01*
X267970Y131128D01*
D02*
G37*
G36*
X186819Y114620D02*
X180660D01*
Y109329D01*
X182097Y109518D01*
X183688Y110177D01*
X185054Y111226D01*
X186103Y112592D01*
X186762Y114183D01*
X186819Y114620D01*
D02*
G37*
G36*
X166819D02*
X160660D01*
Y109329D01*
X162097Y109518D01*
X163688Y110177D01*
X165054Y111226D01*
X166103Y112592D01*
X166762Y114183D01*
X166819Y114620D01*
D02*
G37*
G36*
X158120D02*
X151961D01*
X152018Y114183D01*
X152677Y112592D01*
X153726Y111226D01*
X155092Y110177D01*
X156683Y109518D01*
X158120Y109329D01*
Y114620D01*
D02*
G37*
G36*
X178120D02*
X171961D01*
X172018Y114183D01*
X172677Y112592D01*
X173726Y111226D01*
X175092Y110177D01*
X176683Y109518D01*
X178120Y109329D01*
Y114620D01*
D02*
G37*
G36*
X273050Y109836D02*
Y105710D01*
X277176D01*
X276999Y106602D01*
X275774Y108434D01*
X273942Y109659D01*
X273050Y109836D01*
D02*
G37*
G36*
X270510D02*
X269618Y109659D01*
X267786Y108434D01*
X266561Y106602D01*
X266384Y105710D01*
X270510D01*
Y109836D01*
D02*
G37*
G36*
X236220Y107296D02*
Y103170D01*
X240346D01*
X240169Y104062D01*
X238944Y105894D01*
X237112Y107119D01*
X236220Y107296D01*
D02*
G37*
G36*
X233680D02*
X232788Y107119D01*
X230956Y105894D01*
X229731Y104062D01*
X229554Y103170D01*
X233680D01*
Y107296D01*
D02*
G37*
G36*
X205740Y106026D02*
Y101900D01*
X209866D01*
X209689Y102792D01*
X208464Y104624D01*
X206632Y105849D01*
X205740Y106026D01*
D02*
G37*
G36*
X203200D02*
X202308Y105849D01*
X200476Y104624D01*
X199251Y102792D01*
X199074Y101900D01*
X203200D01*
Y106026D01*
D02*
G37*
G36*
X500910Y104290D02*
X493640D01*
Y98020D01*
X500910D01*
Y104290D01*
D02*
G37*
G36*
X240346Y100630D02*
X236220D01*
Y96504D01*
X237112Y96681D01*
X238944Y97906D01*
X240169Y99738D01*
X240346Y100630D01*
D02*
G37*
G36*
X233680D02*
X229554D01*
X229731Y99738D01*
X230956Y97906D01*
X232788Y96681D01*
X233680Y96504D01*
Y100630D01*
D02*
G37*
G36*
X139700Y99676D02*
Y95550D01*
X143826D01*
X143649Y96442D01*
X142424Y98274D01*
X140592Y99499D01*
X139700Y99676D01*
D02*
G37*
G36*
X137160D02*
X136268Y99499D01*
X134436Y98274D01*
X133211Y96442D01*
X133034Y95550D01*
X137160D01*
Y99676D01*
D02*
G37*
G36*
X209866Y99360D02*
X205740D01*
Y95234D01*
X206632Y95411D01*
X208464Y96636D01*
X209689Y98468D01*
X209866Y99360D01*
D02*
G37*
G36*
X203200D02*
X199074D01*
X199251Y98468D01*
X200476Y96636D01*
X202308Y95411D01*
X203200Y95234D01*
Y99360D01*
D02*
G37*
G36*
X65870Y177770D02*
X41870D01*
Y161770D01*
X65870D01*
Y165947D01*
X74880D01*
X75366Y164773D01*
X73614Y163021D01*
X72049Y162710D01*
X70395Y161605D01*
X69290Y159951D01*
X68902Y158000D01*
X69290Y156049D01*
X70395Y154395D01*
X72049Y153290D01*
X74000Y152902D01*
X75951Y153290D01*
X77605Y154395D01*
X78710Y156049D01*
X79021Y157614D01*
X84704Y163296D01*
X85532Y164537D01*
X85813Y165947D01*
X97890D01*
Y163590D01*
X110390D01*
Y165947D01*
X121897D01*
X121907Y165932D01*
Y143810D01*
X122198Y142347D01*
X123026Y141106D01*
X129527Y134606D01*
Y121010D01*
X118767Y110250D01*
X97822D01*
Y94058D01*
X124174D01*
Y104843D01*
X136054Y116722D01*
X136882Y117963D01*
X137173Y119426D01*
Y136190D01*
X136882Y137653D01*
X136054Y138894D01*
X129553Y145394D01*
Y165932D01*
X130440Y167259D01*
X130828Y169210D01*
X130440Y171161D01*
X129335Y172815D01*
X127681Y173920D01*
X125730Y174308D01*
X123779Y173920D01*
X123291Y173593D01*
X110390D01*
Y175590D01*
X97890D01*
Y173593D01*
X65870D01*
Y177770D01*
D02*
G37*
G36*
X220320Y122008D02*
X218320D01*
X215979Y121542D01*
X213994Y120216D01*
X212668Y118231D01*
X212202Y115890D01*
X212668Y113549D01*
X213994Y111564D01*
X215497Y110560D01*
Y102137D01*
X214835Y101695D01*
X213730Y100041D01*
X213342Y98090D01*
X213730Y96139D01*
X214835Y94485D01*
X216489Y93380D01*
X218440Y92992D01*
X220391Y93380D01*
X222045Y94485D01*
X223150Y96139D01*
X223538Y98090D01*
X223150Y100041D01*
X223143Y100050D01*
Y110560D01*
X224646Y111564D01*
X225972Y113549D01*
X226437Y115890D01*
X225972Y118231D01*
X224646Y120216D01*
X222661Y121542D01*
X220320Y122008D01*
D02*
G37*
G36*
X143826Y93010D02*
X139700D01*
Y88884D01*
X140592Y89061D01*
X142424Y90286D01*
X143649Y92118D01*
X143826Y93010D01*
D02*
G37*
G36*
X137160D02*
X133034D01*
X133211Y92118D01*
X134436Y90286D01*
X136268Y89061D01*
X137160Y88884D01*
Y93010D01*
D02*
G37*
G36*
X555270Y91396D02*
Y87270D01*
X559396D01*
X559219Y88162D01*
X557994Y89994D01*
X556162Y91219D01*
X555270Y91396D01*
D02*
G37*
G36*
X552730D02*
X551838Y91219D01*
X550006Y89994D01*
X548782Y88162D01*
X548604Y87270D01*
X552730D01*
Y91396D01*
D02*
G37*
G36*
X27940Y88246D02*
Y84120D01*
X32066D01*
X31889Y85012D01*
X30664Y86844D01*
X28832Y88069D01*
X27940Y88246D01*
D02*
G37*
G36*
X25400D02*
X24508Y88069D01*
X22676Y86844D01*
X21451Y85012D01*
X21274Y84120D01*
X25400D01*
Y88246D01*
D02*
G37*
G36*
X451270Y85396D02*
Y81270D01*
X455396D01*
X455219Y82162D01*
X453994Y83994D01*
X452162Y85218D01*
X451270Y85396D01*
D02*
G37*
G36*
X448730D02*
X447838Y85218D01*
X446006Y83994D01*
X444781Y82162D01*
X444604Y81270D01*
X448730D01*
Y85396D01*
D02*
G37*
G36*
X559396Y84730D02*
X555270D01*
Y80604D01*
X556162Y80781D01*
X557994Y82006D01*
X559219Y83838D01*
X559396Y84730D01*
D02*
G37*
G36*
X552730D02*
X548604D01*
X548782Y83838D01*
X550006Y82006D01*
X551838Y80781D01*
X552730Y80604D01*
Y84730D01*
D02*
G37*
G36*
X409270Y83396D02*
Y79270D01*
X413396D01*
X413219Y80162D01*
X411994Y81994D01*
X410162Y83219D01*
X409270Y83396D01*
D02*
G37*
G36*
X406730D02*
X405838Y83219D01*
X404006Y81994D01*
X402781Y80162D01*
X402604Y79270D01*
X406730D01*
Y83396D01*
D02*
G37*
G36*
X481770Y83550D02*
X476250D01*
Y78280D01*
X481770D01*
Y83550D01*
D02*
G37*
G36*
X473710D02*
X468190D01*
Y78280D01*
X473710D01*
Y83550D01*
D02*
G37*
G36*
X32066Y81580D02*
X27940D01*
Y77454D01*
X28832Y77631D01*
X30664Y78856D01*
X31889Y80688D01*
X32066Y81580D01*
D02*
G37*
G36*
X25400D02*
X21274D01*
X21451Y80688D01*
X22676Y78856D01*
X24508Y77631D01*
X25400Y77454D01*
Y81580D01*
D02*
G37*
G36*
X455396Y78730D02*
X451270D01*
Y74604D01*
X452162Y74781D01*
X453994Y76006D01*
X455219Y77838D01*
X455396Y78730D01*
D02*
G37*
G36*
X448730D02*
X444604D01*
X444781Y77838D01*
X446006Y76006D01*
X447838Y74781D01*
X448730Y74604D01*
Y78730D01*
D02*
G37*
G36*
X413396Y76730D02*
X409270D01*
Y72604D01*
X410162Y72781D01*
X411994Y74006D01*
X413219Y75838D01*
X413396Y76730D01*
D02*
G37*
G36*
X406730D02*
X402604D01*
X402781Y75838D01*
X404006Y74006D01*
X405838Y72781D01*
X406730Y72604D01*
Y76730D01*
D02*
G37*
G36*
X481770Y75740D02*
X476250D01*
Y70470D01*
X481770D01*
Y75740D01*
D02*
G37*
G36*
X473710D02*
X468190D01*
Y70470D01*
X473710D01*
Y75740D01*
D02*
G37*
G36*
X279400Y71736D02*
Y67610D01*
X283526D01*
X283349Y68502D01*
X282124Y70334D01*
X280292Y71559D01*
X279400Y71736D01*
D02*
G37*
G36*
X276860D02*
X275968Y71559D01*
X274136Y70334D01*
X272911Y68502D01*
X272734Y67610D01*
X276860D01*
Y71736D01*
D02*
G37*
G36*
X524300Y76400D02*
X513300D01*
Y73973D01*
X500380D01*
X498917Y73682D01*
X497676Y72854D01*
X488636Y63813D01*
X415370D01*
X413907Y63522D01*
X412666Y62694D01*
X403453Y53480D01*
X383060D01*
Y46033D01*
X358750D01*
Y50440D01*
X339750D01*
Y31440D01*
X358750D01*
Y38387D01*
X383060D01*
Y33480D01*
X408860D01*
Y48073D01*
X416954Y56167D01*
X490220D01*
X491683Y56458D01*
X492924Y57286D01*
X501964Y66327D01*
X513300D01*
Y63900D01*
X524300D01*
Y76400D01*
D02*
G37*
G36*
X283526Y65070D02*
X279400D01*
Y60944D01*
X280292Y61121D01*
X282124Y62346D01*
X283349Y64178D01*
X283526Y65070D01*
D02*
G37*
G36*
X276860D02*
X272734D01*
X272911Y64178D01*
X274136Y62346D01*
X275968Y61121D01*
X276860Y60944D01*
Y65070D01*
D02*
G37*
G36*
X62020Y99040D02*
X36020D01*
Y59040D01*
X62020D01*
Y99040D01*
D02*
G37*
G36*
X170180Y62846D02*
Y58720D01*
X174306D01*
X174129Y59612D01*
X172904Y61444D01*
X171072Y62669D01*
X170180Y62846D01*
D02*
G37*
G36*
X167640D02*
X166748Y62669D01*
X164916Y61444D01*
X163691Y59612D01*
X163514Y58720D01*
X167640D01*
Y62846D01*
D02*
G37*
G36*
X124714Y64562D02*
X112268D01*
Y57196D01*
X124714D01*
Y64562D01*
D02*
G37*
G36*
X109728D02*
X97282D01*
Y57196D01*
X109728D01*
Y64562D01*
D02*
G37*
G36*
X349250Y75922D02*
X346770Y75595D01*
X344459Y74638D01*
X342475Y73115D01*
X340952Y71131D01*
X339995Y68820D01*
X339668Y66340D01*
X339995Y63860D01*
X340952Y61549D01*
X342475Y59564D01*
X344459Y58042D01*
X346770Y57084D01*
X349250Y56758D01*
X351730Y57084D01*
X354041Y58042D01*
X356025Y59564D01*
X357548Y61549D01*
X358506Y63860D01*
X358832Y66340D01*
X358506Y68820D01*
X357548Y71131D01*
X356025Y73115D01*
X354041Y74638D01*
X351730Y75595D01*
X349250Y75922D01*
D02*
G37*
G36*
X323850D02*
X321370Y75595D01*
X319059Y74638D01*
X317075Y73115D01*
X315552Y71131D01*
X314594Y68820D01*
X314268Y66340D01*
X314594Y63860D01*
X315552Y61549D01*
X317075Y59564D01*
X319059Y58042D01*
X321370Y57084D01*
X323850Y56758D01*
X326330Y57084D01*
X328641Y58042D01*
X330625Y59564D01*
X332148Y61549D01*
X333106Y63860D01*
X333432Y66340D01*
X333106Y68820D01*
X332148Y71131D01*
X330625Y73115D01*
X328641Y74638D01*
X326330Y75595D01*
X323850Y75922D01*
D02*
G37*
G36*
X298750D02*
X296270Y75595D01*
X293959Y74638D01*
X291975Y73115D01*
X290452Y71131D01*
X289494Y68820D01*
X289168Y66340D01*
X289494Y63860D01*
X290452Y61549D01*
X291975Y59564D01*
X293959Y58042D01*
X296270Y57084D01*
X298750Y56758D01*
X301230Y57084D01*
X303541Y58042D01*
X305525Y59564D01*
X307048Y61549D01*
X308006Y63860D01*
X308332Y66340D01*
X308006Y68820D01*
X307048Y71131D01*
X305525Y73115D01*
X303541Y74638D01*
X301230Y75595D01*
X298750Y75922D01*
D02*
G37*
G36*
X152840Y57640D02*
X147320D01*
Y52370D01*
X152840D01*
Y57640D01*
D02*
G37*
G36*
X144780D02*
X139260D01*
Y52370D01*
X144780D01*
Y57640D01*
D02*
G37*
G36*
X174306Y56180D02*
X170180D01*
Y52054D01*
X171072Y52231D01*
X172904Y53456D01*
X174129Y55288D01*
X174306Y56180D01*
D02*
G37*
G36*
X167640D02*
X163514D01*
X163691Y55288D01*
X164916Y53456D01*
X166748Y52231D01*
X167640Y52054D01*
Y56180D01*
D02*
G37*
G36*
X124714Y54656D02*
X112268D01*
Y47290D01*
X124714D01*
Y54656D01*
D02*
G37*
G36*
X109728D02*
X97282D01*
Y47290D01*
X109728D01*
Y54656D01*
D02*
G37*
G36*
X501400Y54020D02*
X489230D01*
Y44750D01*
X501400D01*
Y54020D01*
D02*
G37*
G36*
X486690D02*
X474520D01*
Y44750D01*
X486690D01*
Y54020D01*
D02*
G37*
G36*
X152840Y49830D02*
X147320D01*
Y44560D01*
X152840D01*
Y49830D01*
D02*
G37*
G36*
X144780D02*
X139260D01*
Y44560D01*
X144780D01*
Y49830D01*
D02*
G37*
G36*
X213760Y53421D02*
X211756Y53157D01*
X208706Y51894D01*
X206086Y49884D01*
X204076Y47264D01*
X202813Y44214D01*
X202549Y42210D01*
X213760D01*
Y53421D01*
D02*
G37*
G36*
X300020Y50899D02*
Y42210D01*
X308709D01*
X308532Y43561D01*
X307520Y46003D01*
X305911Y48101D01*
X303813Y49710D01*
X301371Y50722D01*
X300020Y50899D01*
D02*
G37*
G36*
X297480D02*
X296129Y50722D01*
X293687Y49710D01*
X291589Y48101D01*
X289980Y46003D01*
X288968Y43561D01*
X288791Y42210D01*
X297480D01*
Y50899D01*
D02*
G37*
G36*
X529270Y41396D02*
Y37270D01*
X533396D01*
X533219Y38162D01*
X531994Y39994D01*
X530162Y41219D01*
X529270Y41396D01*
D02*
G37*
G36*
X526730D02*
X525838Y41219D01*
X524006Y39994D01*
X522781Y38162D01*
X522604Y37270D01*
X526730D01*
Y41396D01*
D02*
G37*
G36*
X501400Y42210D02*
X489230D01*
Y32940D01*
X501400D01*
Y42210D01*
D02*
G37*
G36*
X486690D02*
X474520D01*
Y32940D01*
X486690D01*
Y42210D01*
D02*
G37*
G36*
X323850Y50522D02*
X321370Y50195D01*
X319059Y49238D01*
X317075Y47715D01*
X315552Y45731D01*
X314594Y43420D01*
X314268Y40940D01*
X314594Y38460D01*
X315552Y36149D01*
X317075Y34165D01*
X319059Y32642D01*
X321370Y31685D01*
X323850Y31358D01*
X326330Y31685D01*
X328641Y32642D01*
X330625Y34165D01*
X332148Y36149D01*
X333106Y38460D01*
X333432Y40940D01*
X333106Y43420D01*
X332148Y45731D01*
X330625Y47715D01*
X328641Y49238D01*
X326330Y50195D01*
X323850Y50522D01*
D02*
G37*
G36*
X308709Y39670D02*
X300020D01*
Y30981D01*
X301371Y31158D01*
X303813Y32170D01*
X305911Y33779D01*
X307520Y35877D01*
X308532Y38319D01*
X308709Y39670D01*
D02*
G37*
G36*
X297480D02*
X288791D01*
X288968Y38319D01*
X289980Y35877D01*
X291589Y33779D01*
X293687Y32170D01*
X296129Y31158D01*
X297480Y30981D01*
Y39670D01*
D02*
G37*
G36*
X533396Y34730D02*
X529270D01*
Y30604D01*
X530162Y30781D01*
X531994Y32006D01*
X533219Y33838D01*
X533396Y34730D01*
D02*
G37*
G36*
X526730D02*
X522604D01*
X522781Y33838D01*
X524006Y32006D01*
X525838Y30781D01*
X526730Y30604D01*
Y34730D01*
D02*
G37*
G36*
X216300Y53421D02*
Y40940D01*
Y28459D01*
X218304Y28723D01*
X221354Y29986D01*
X223974Y31996D01*
X225984Y34616D01*
X226760Y36490D01*
X228030Y36237D01*
Y28940D01*
X252030D01*
Y52940D01*
X228030D01*
Y45642D01*
X226760Y45390D01*
X225984Y47264D01*
X223974Y49884D01*
X221354Y51894D01*
X218304Y53157D01*
X216300Y53421D01*
D02*
G37*
G36*
X213760Y39670D02*
X202549D01*
X202813Y37666D01*
X204076Y34616D01*
X206086Y31996D01*
X208706Y29986D01*
X211756Y28723D01*
X213760Y28459D01*
Y39670D01*
D02*
G37*
%LPD*%
G36*
X451526Y344203D02*
X449266Y341943D01*
X141807D01*
X141321Y343117D01*
X143581Y345377D01*
X451040D01*
X451526Y344203D01*
D02*
G37*
G36*
X147716Y333123D02*
X118885Y304292D01*
X117507Y304711D01*
X117219Y306162D01*
X115994Y307994D01*
X115226Y308508D01*
X115064Y310143D01*
X139218Y334297D01*
X147230D01*
X147716Y333123D01*
D02*
G37*
D20*
X395960Y43480D02*
D03*
X487960D02*
D03*
D21*
X375920Y247960D02*
D03*
X388620D02*
D03*
X401320D02*
D03*
X414020D02*
D03*
X426720D02*
D03*
X439420D02*
D03*
X452120D02*
D03*
X464820D02*
D03*
X477520D02*
D03*
X490220D02*
D03*
X502920D02*
D03*
X515620D02*
D03*
X528320D02*
D03*
X541020D02*
D03*
Y153960D02*
D03*
X528320D02*
D03*
X515620D02*
D03*
X502920D02*
D03*
X490220D02*
D03*
X477520D02*
D03*
X464820D02*
D03*
X452120D02*
D03*
X439420D02*
D03*
X426720D02*
D03*
X414020D02*
D03*
X401320D02*
D03*
X388620D02*
D03*
X375920D02*
D03*
D22*
X110998Y55926D02*
D03*
Y79040D02*
D03*
Y102154D02*
D03*
D23*
X49020Y79040D02*
D03*
D24*
X475370Y118560D02*
D03*
X492370D02*
D03*
Y105560D02*
D03*
X475370D02*
D03*
D25*
X114910Y287100D02*
D03*
X105410D02*
D03*
X95910D02*
D03*
Y259600D02*
D03*
X105410D02*
D03*
X114910D02*
D03*
D26*
X159390Y115890D02*
D03*
X179390D02*
D03*
X199390D02*
D03*
X219320D02*
D03*
X239390D02*
D03*
X259390D02*
D03*
X279390D02*
D03*
X299390D02*
D03*
Y275890D02*
D03*
X279390D02*
D03*
X259390D02*
D03*
X239390D02*
D03*
X219390D02*
D03*
X199390D02*
D03*
X179390D02*
D03*
X159390D02*
D03*
D27*
X53870Y239770D02*
D03*
Y214770D02*
D03*
Y194770D02*
D03*
Y169770D02*
D03*
D45*
X27870Y263270D02*
D03*
Y146270D02*
D03*
D46*
Y227270D02*
D03*
Y182270D02*
D03*
D48*
X43560Y120950D02*
D03*
X27560D02*
D03*
X506350Y118410D02*
D03*
X522350D02*
D03*
X551560D02*
D03*
X535560D02*
D03*
D49*
X146050Y51100D02*
D03*
Y67100D02*
D03*
X474980Y93010D02*
D03*
Y77010D02*
D03*
X104140Y169590D02*
D03*
Y153590D02*
D03*
X375920Y282620D02*
D03*
Y266620D02*
D03*
D50*
X518800Y70150D02*
D03*
X535300D02*
D03*
X357500Y153970D02*
D03*
X341000D02*
D03*
X107310Y194610D02*
D03*
X90810D02*
D03*
X107310Y214770D02*
D03*
X90810D02*
D03*
D51*
X85090Y146350D02*
D03*
Y129850D02*
D03*
D52*
X70000Y214770D02*
X90810D01*
X53870D02*
X70000D01*
Y222000D01*
X74000Y194690D02*
X90810D01*
X53950D02*
X74000D01*
X73660Y195030D02*
X74000Y194690D01*
X73660Y195030D02*
Y204770D01*
X90810Y194610D02*
Y194690D01*
X82000Y169770D02*
X125170D01*
X53870D02*
X82000D01*
Y166000D02*
Y169770D01*
X74000Y158000D02*
X82000Y166000D01*
X83820Y239760D02*
Y291023D01*
X153040Y333040D02*
X467360D01*
X114910Y294910D02*
X153040Y333040D01*
X228370Y323870D02*
X489790D01*
X180390Y275890D02*
X228370Y323870D01*
X489790D02*
X495860Y317800D01*
X237945Y319120D02*
X487822D01*
X528320Y278622D01*
X217712Y298887D02*
X237945Y319120D01*
X217712Y293212D02*
Y298887D01*
X255687Y314370D02*
X485855D01*
X515620Y284605D01*
X232140Y290823D02*
X255687Y314370D01*
X232140Y287640D02*
Y290823D01*
X257655Y309620D02*
X391720D01*
X239390Y291355D02*
X257655Y309620D01*
X239390Y275890D02*
Y291355D01*
X496671Y349200D02*
X541020Y304851D01*
X141997Y349200D02*
X496671D01*
X83820Y291023D02*
X141997Y349200D01*
X391720Y309620D02*
X414020Y287320D01*
X137635Y338120D02*
X450850D01*
X95910Y296395D02*
X137635Y338120D01*
X95910Y287100D02*
Y296395D01*
X463550Y249230D02*
X465455Y251135D01*
X114910Y287100D02*
Y294910D01*
X280773Y279803D02*
X290830Y289860D01*
X280773Y276814D02*
Y279803D01*
X259870Y283030D02*
X264160Y287320D01*
X259870Y276370D02*
Y283030D01*
X259581Y115890D02*
X267970Y124279D01*
Y126030D01*
X83820Y239760D02*
X93410Y230170D01*
X105410D01*
X465455Y251135D02*
Y276525D01*
X452120Y247960D02*
Y274620D01*
X453390Y275890D01*
X463550Y249230D02*
X464820Y247960D01*
X455930Y343200D02*
X458470D01*
X450850Y338120D02*
X455930Y343200D01*
X515620Y247960D02*
Y284605D01*
X528320Y247960D02*
Y278622D01*
X495860Y317800D02*
X500380D01*
X91440Y253130D02*
X95910Y257600D01*
X91440Y245410D02*
Y253130D01*
X105410Y230170D02*
Y259600D01*
X125170Y169770D02*
X125730Y169210D01*
Y143810D02*
X133350Y136190D01*
X125730Y143810D02*
Y169210D01*
X133350Y119426D02*
Y136190D01*
X116078Y102154D02*
X133350Y119426D01*
X350520Y42210D02*
X397590D01*
X340360Y128570D02*
X341000Y129210D01*
Y153970D01*
X328930Y186990D02*
X341630Y174290D01*
X328930Y186990D02*
Y218740D01*
X341630Y174290D02*
X375290D01*
X388620Y160960D01*
Y153960D02*
Y160960D01*
X259390Y115890D02*
X259581D01*
X391160Y220010D02*
X398780Y227630D01*
X413390D01*
X426720Y240960D01*
X535430Y70280D02*
Y118540D01*
X384810Y207310D02*
X416560D01*
X375920Y216200D02*
X384810Y207310D01*
X375920Y216200D02*
Y247960D01*
X416560Y207310D02*
X439420Y230170D01*
X426720Y240960D02*
Y247960D01*
X541020D02*
Y304851D01*
X477520Y225090D02*
X528320Y174290D01*
Y153960D02*
Y174290D01*
X415370Y59990D02*
X490220D01*
X397590Y42210D02*
X415370Y59990D01*
X490220D02*
X500380Y70150D01*
X518800D01*
X534560Y119410D02*
X535430Y118540D01*
X535300Y70150D02*
X535430Y70280D01*
X357500Y153970D02*
X375920D01*
Y153960D02*
Y153970D01*
X259390Y275890D02*
X259870Y276370D01*
X466090Y183180D02*
X480700D01*
X502920Y160960D01*
Y153960D02*
Y160960D01*
X218440Y98090D02*
X219320Y98970D01*
Y115890D01*
X350520Y193340D02*
X356870Y199690D01*
X476890D01*
X515620Y160960D01*
Y153960D02*
Y160960D01*
X283210Y119710D02*
Y140000D01*
X280773Y117273D02*
X283210Y119710D01*
X280773Y116814D02*
Y117273D01*
X279849Y115890D02*
X280773Y116814D01*
X279390Y115890D02*
X279849D01*
X161540Y79040D02*
X198390Y115890D01*
X146050Y79040D02*
X161540D01*
X146050Y67100D02*
X146940Y67990D01*
X198390Y115890D02*
X199390D01*
X200390D01*
X284480Y228900D02*
X346450Y290870D01*
X395230D01*
X401320Y284780D01*
Y247960D02*
Y284780D01*
X375920Y247960D02*
Y266620D01*
X528320Y134920D02*
Y153960D01*
Y134920D02*
X534560Y128680D01*
Y119410D02*
Y128680D01*
X179390Y275890D02*
X180390D01*
X200390D02*
X217712Y293212D01*
X439420Y230170D02*
X452120Y217470D01*
X469900D01*
X477520Y225090D01*
Y247960D01*
X439420Y230170D02*
Y247960D01*
X279849Y275890D02*
X280773Y276814D01*
X279390Y275890D02*
X279849D01*
X332460Y247960D02*
X375920D01*
X200390Y115890D02*
X332460Y247960D01*
X388620Y146960D02*
Y153960D01*
X299849Y112906D02*
Y115890D01*
Y112906D02*
X310855Y101900D01*
X299390Y115890D02*
X299849D01*
X310855Y101900D02*
X356260D01*
X401320Y146960D01*
Y153960D01*
X414020D02*
Y184450D01*
X426720Y175560D02*
X433070Y181910D01*
X426720Y153960D02*
Y175560D01*
X439420Y122220D02*
Y153960D01*
X427990Y110790D02*
X439420Y122220D01*
X440560Y94150D02*
X447040Y100630D01*
X262130Y94150D02*
X440560D01*
X240390Y115890D02*
X262130Y94150D01*
X239390Y115890D02*
X240390D01*
X447040Y100630D02*
Y126733D01*
X452120Y131813D01*
Y153960D01*
X110998Y79040D02*
X146050D01*
Y67100D02*
Y79040D01*
X110870Y102282D02*
X110998Y102154D01*
X27715Y146115D02*
X27870Y146270D01*
X27715Y121105D02*
Y146115D01*
X27560Y120950D02*
X27715Y121105D01*
X502920Y247960D02*
Y280970D01*
X199390Y275890D02*
X200390D01*
X414020Y247960D02*
Y287320D01*
X220390Y275890D02*
X232140Y287640D01*
X219390Y275890D02*
X220390D01*
X349250Y40940D02*
X350520Y42210D01*
X474190Y106350D02*
X475175Y105365D01*
X454660Y112060D02*
X460370Y106350D01*
X474190D01*
X454660Y112060D02*
Y124100D01*
X477520Y146960D01*
Y153960D01*
X490220Y120560D02*
Y153960D01*
Y120560D02*
X492220Y118560D01*
X492370D01*
X474980Y93010D02*
X475175Y93205D01*
Y105365D01*
X506275Y118485D02*
X506350Y118410D01*
X492445Y118485D02*
X506275D01*
X492370Y118560D02*
X492445Y118485D01*
X95910Y257600D02*
Y259600D01*
X128270Y194610D02*
X129540Y195880D01*
X107310Y194610D02*
X128270D01*
X110998Y102154D02*
X116078D01*
X114910Y248610D02*
X120650Y242870D01*
X114910Y248610D02*
Y259600D01*
X120650Y219535D02*
Y242870D01*
X117135Y216020D02*
X120650Y219535D01*
X107810Y216020D02*
X117135D01*
X107310Y215520D02*
X107810Y216020D01*
X107310Y214770D02*
Y215520D01*
X53870Y194770D02*
X53950Y194690D01*
X53870Y214770D02*
X53870Y214770D01*
X27870Y146270D02*
X85090Y146350D01*
D53*
X34645Y302645D02*
D03*
D54*
X52322Y320322D02*
D03*
X70000Y338000D02*
D03*
X88385Y356385D02*
D03*
D55*
X215030Y40940D02*
D03*
D56*
X240030D02*
D03*
D57*
X323850D02*
D03*
X298750D02*
D03*
Y66340D02*
D03*
X323850D02*
D03*
X349250D02*
D03*
D58*
Y40940D02*
D03*
D59*
X70000Y222000D02*
D03*
X74000Y158000D02*
D03*
X554000Y86000D02*
D03*
X528000Y36000D02*
D03*
X450000Y80000D02*
D03*
X408000Y78000D02*
D03*
X26670Y82850D02*
D03*
X356870Y300020D02*
D03*
X485140Y274620D02*
D03*
X433070Y272080D02*
D03*
X346710Y263190D02*
D03*
X361950Y282240D02*
D03*
X391160Y272080D02*
D03*
X407670Y269540D02*
D03*
X458470Y170480D02*
D03*
X402590Y171750D02*
D03*
X382270Y186990D02*
D03*
X374650Y206040D02*
D03*
X440690Y212390D02*
D03*
X384810Y230170D02*
D03*
X424180Y226360D02*
D03*
X401320Y214930D02*
D03*
X459740Y228900D02*
D03*
X513080Y218740D02*
D03*
X529590Y198420D02*
D03*
X278130Y66340D02*
D03*
X168910Y57450D02*
D03*
X271780Y104440D02*
D03*
X234950Y101900D02*
D03*
X204470Y100630D02*
D03*
X224790Y232710D02*
D03*
X213360Y221280D02*
D03*
X200660Y209850D02*
D03*
X187960Y198420D02*
D03*
X175260Y186990D02*
D03*
X161290Y174290D02*
D03*
X303530Y298750D02*
D03*
X255270D02*
D03*
X224790Y297480D02*
D03*
X207010Y292400D02*
D03*
X149860Y320340D02*
D03*
X112000Y304000D02*
D03*
X71120Y287320D02*
D03*
X72390Y269540D02*
D03*
Y231440D02*
D03*
X73660Y204770D02*
D03*
X121920D02*
D03*
X123190Y184450D02*
D03*
X138430Y152700D02*
D03*
Y94280D02*
D03*
X102870Y132380D02*
D03*
X290830Y289860D02*
D03*
X264160Y287320D02*
D03*
X267970Y126030D02*
D03*
X465455Y276525D02*
D03*
X453390Y275890D02*
D03*
X458470Y343200D02*
D03*
X467360Y333040D02*
D03*
X500380Y317800D02*
D03*
X91440Y245410D02*
D03*
X105410Y230170D02*
D03*
X125730Y169210D02*
D03*
X340360Y128570D02*
D03*
X391160Y220010D02*
D03*
X466090Y183180D02*
D03*
X218440Y98090D02*
D03*
X350520Y193340D02*
D03*
X283210Y140000D02*
D03*
X284480Y228900D02*
D03*
X328930Y218740D02*
D03*
X414020Y184450D02*
D03*
X433070Y181910D02*
D03*
X427990Y110790D02*
D03*
X502920Y280970D02*
D03*
X129540Y195880D02*
D03*
M02*
