G04*
G04 #@! TF.GenerationSoftware,Altium Limited,Altium Designer,19.1.5 (86)*
G04*
G04 Layer_Color=16711935*
%FSLAX44Y44*%
%MOMM*%
G71*
G01*
G75*
%ADD39P,2.8330X4X90.0*%
%ADD40C,2.0032*%
%ADD41C,2.1400*%
%ADD42R,2.1400X2.1400*%
%ADD43C,1.7032*%
%ADD44R,1.7032X1.7032*%
%ADD45O,3.2000X1.3000*%
%ADD46C,1.1000*%
%ADD47C,0.8032*%
D39*
X34645Y302645D02*
D03*
D40*
X52322Y320322D02*
D03*
X70000Y338000D02*
D03*
X88385Y356385D02*
D03*
D41*
X215030Y40940D02*
D03*
D42*
X240030D02*
D03*
D43*
X323850D02*
D03*
X298750D02*
D03*
Y66340D02*
D03*
X323850D02*
D03*
X349250D02*
D03*
D44*
Y40940D02*
D03*
D45*
X27870Y263270D02*
D03*
Y146270D02*
D03*
D46*
Y227270D02*
D03*
Y182270D02*
D03*
D47*
X70000Y222000D02*
D03*
X74000Y158000D02*
D03*
X554000Y86000D02*
D03*
X528000Y36000D02*
D03*
X450000Y80000D02*
D03*
X408000Y78000D02*
D03*
X26670Y82850D02*
D03*
X356870Y300020D02*
D03*
X485140Y274620D02*
D03*
X433070Y272080D02*
D03*
X346710Y263190D02*
D03*
X361950Y282240D02*
D03*
X391160Y272080D02*
D03*
X407670Y269540D02*
D03*
X458470Y170480D02*
D03*
X402590Y171750D02*
D03*
X382270Y186990D02*
D03*
X374650Y206040D02*
D03*
X440690Y212390D02*
D03*
X384810Y230170D02*
D03*
X424180Y226360D02*
D03*
X401320Y214930D02*
D03*
X459740Y228900D02*
D03*
X513080Y218740D02*
D03*
X529590Y198420D02*
D03*
X278130Y66340D02*
D03*
X168910Y57450D02*
D03*
X271780Y104440D02*
D03*
X234950Y101900D02*
D03*
X204470Y100630D02*
D03*
X224790Y232710D02*
D03*
X213360Y221280D02*
D03*
X200660Y209850D02*
D03*
X187960Y198420D02*
D03*
X175260Y186990D02*
D03*
X161290Y174290D02*
D03*
X303530Y298750D02*
D03*
X255270D02*
D03*
X224790Y297480D02*
D03*
X207010Y292400D02*
D03*
X149860Y320340D02*
D03*
X112000Y304000D02*
D03*
X71120Y287320D02*
D03*
X72390Y269540D02*
D03*
Y231440D02*
D03*
X73660Y204770D02*
D03*
X121920D02*
D03*
X123190Y184450D02*
D03*
X138430Y152700D02*
D03*
Y94280D02*
D03*
X102870Y132380D02*
D03*
X290830Y289860D02*
D03*
X264160Y287320D02*
D03*
X267970Y126030D02*
D03*
X465455Y276525D02*
D03*
X453390Y275890D02*
D03*
X458470Y343200D02*
D03*
X467360Y333040D02*
D03*
X500380Y317800D02*
D03*
X91440Y245410D02*
D03*
X105410Y230170D02*
D03*
X125730Y169210D02*
D03*
X340360Y128570D02*
D03*
X391160Y220010D02*
D03*
X466090Y183180D02*
D03*
X218440Y98090D02*
D03*
X350520Y193340D02*
D03*
X283210Y140000D02*
D03*
X284480Y228900D02*
D03*
X328930Y218740D02*
D03*
X414020Y184450D02*
D03*
X433070Y181910D02*
D03*
X427990Y110790D02*
D03*
X502920Y280970D02*
D03*
X129540Y195880D02*
D03*
M02*
