G04*
G04 #@! TF.GenerationSoftware,Altium Limited,Altium Designer,19.1.5 (86)*
G04*
G04 Layer_Color=8421504*
%FSLAX44Y44*%
%MOMM*%
G71*
G01*
G75*
%ADD17R,0.7000X0.7500*%
%ADD18R,0.7500X0.7000*%
%ADD19R,0.6000X0.7500*%
%ADD20R,2.1800X1.6000*%
%ADD21R,0.6000X2.0000*%
%ADD22R,2.2352X1.2192*%
%ADD23R,2.2000X3.6000*%
%ADD24R,1.2000X1.0000*%
%ADD25R,0.6000X1.0000*%
%ADD26O,1.0000X0.8000*%
%ADD27R,2.0000X1.2000*%
%ADD28R,0.7500X0.6000*%
D17*
X43560Y120950D02*
D03*
X27560D02*
D03*
X506350Y118410D02*
D03*
X522350D02*
D03*
X551560D02*
D03*
X535560D02*
D03*
D18*
X146050Y51100D02*
D03*
Y67100D02*
D03*
X474980Y93010D02*
D03*
Y77010D02*
D03*
X104140Y169590D02*
D03*
Y153590D02*
D03*
X375920Y282620D02*
D03*
Y266620D02*
D03*
D19*
X518800Y70150D02*
D03*
X535300D02*
D03*
X357500Y153970D02*
D03*
X341000D02*
D03*
X107310Y194610D02*
D03*
X90810D02*
D03*
X107310Y214770D02*
D03*
X90810D02*
D03*
D20*
X395960Y43480D02*
D03*
X487960D02*
D03*
D21*
X375920Y247960D02*
D03*
X388620D02*
D03*
X401320D02*
D03*
X414020D02*
D03*
X426720D02*
D03*
X439420D02*
D03*
X452120D02*
D03*
X464820D02*
D03*
X477520D02*
D03*
X490220D02*
D03*
X502920D02*
D03*
X515620D02*
D03*
X528320D02*
D03*
X541020D02*
D03*
Y153960D02*
D03*
X528320D02*
D03*
X515620D02*
D03*
X502920D02*
D03*
X490220D02*
D03*
X477520D02*
D03*
X464820D02*
D03*
X452120D02*
D03*
X439420D02*
D03*
X426720D02*
D03*
X414020D02*
D03*
X401320D02*
D03*
X388620D02*
D03*
X375920D02*
D03*
D22*
X110998Y55926D02*
D03*
Y79040D02*
D03*
Y102154D02*
D03*
D23*
X49020Y79040D02*
D03*
D24*
X475370Y118560D02*
D03*
X492370D02*
D03*
Y105560D02*
D03*
X475370D02*
D03*
D25*
X114910Y287100D02*
D03*
X105410D02*
D03*
X95910D02*
D03*
Y259600D02*
D03*
X105410D02*
D03*
X114910D02*
D03*
D26*
X159390Y115890D02*
D03*
X179390D02*
D03*
X199390D02*
D03*
X219320D02*
D03*
X239390D02*
D03*
X259390D02*
D03*
X279390D02*
D03*
X299390D02*
D03*
Y275890D02*
D03*
X279390D02*
D03*
X259390D02*
D03*
X239390D02*
D03*
X219390D02*
D03*
X199390D02*
D03*
X179390D02*
D03*
X159390D02*
D03*
D27*
X53870Y239770D02*
D03*
Y214770D02*
D03*
Y194770D02*
D03*
Y169770D02*
D03*
D28*
X85090Y146350D02*
D03*
Y129850D02*
D03*
M02*
