G04*
G04 #@! TF.GenerationSoftware,Altium Limited,Altium Designer,19.1.5 (86)*
G04*
G04 Layer_Color=2752767*
%FSLAX44Y44*%
%MOMM*%
G71*
G01*
G75*
%ADD108C,0.0508*%
%ADD109C,0.0677*%
D108*
X32613Y300613D02*
Y304677D01*
X36677D01*
Y300613D01*
X32613D01*
X50290Y318290D02*
Y322354D01*
X54354D01*
Y318290D01*
X50290D01*
X67968Y335968D02*
Y340032D01*
X72032D01*
Y335968D01*
X67968D01*
X86353Y354353D02*
Y358417D01*
X90417D01*
Y354353D01*
X86353D01*
X212998Y38908D02*
Y42972D01*
X217062D01*
Y38908D01*
X212998D01*
X237998D02*
Y42972D01*
X242062D01*
Y38908D01*
X237998D01*
X321818D02*
Y42972D01*
X325882D01*
Y38908D01*
X321818D01*
X296718D02*
Y42972D01*
X300782D01*
Y38908D01*
X296718D01*
Y64308D02*
Y68372D01*
X300782D01*
Y64308D01*
X296718D01*
X321818D02*
Y68372D01*
X325882D01*
Y64308D01*
X321818D01*
X347218D02*
Y68372D01*
X351282D01*
Y64308D01*
X347218D01*
Y38908D02*
Y42972D01*
X351282D01*
Y38908D01*
X347218D01*
X27870Y225238D02*
X25838Y229302D01*
X29902D01*
X27870Y225238D01*
Y180238D02*
X25838Y184302D01*
X29902D01*
X27870Y180238D01*
X70000Y219968D02*
X71016Y220984D01*
X72032D01*
X71016Y222000D01*
X72032Y223016D01*
X71016D01*
X70000Y224032D01*
X68984Y223016D01*
X67968D01*
X68984Y222000D01*
X67968Y220984D01*
X68984D01*
X70000Y219968D01*
X74000Y155968D02*
X75016Y156984D01*
X76032D01*
X75016Y158000D01*
X76032Y159016D01*
X75016D01*
X74000Y160032D01*
X72984Y159016D01*
X71968D01*
X72984Y158000D01*
X71968Y156984D01*
X72984D01*
X74000Y155968D01*
X554000Y83968D02*
X555016Y84984D01*
X556032D01*
X555016Y86000D01*
X556032Y87016D01*
X555016D01*
X554000Y88032D01*
X552984Y87016D01*
X551968D01*
X552984Y86000D01*
X551968Y84984D01*
X552984D01*
X554000Y83968D01*
X528000Y33968D02*
X529016Y34984D01*
X530032D01*
X529016Y36000D01*
X530032Y37016D01*
X529016D01*
X528000Y38032D01*
X526984Y37016D01*
X525968D01*
X526984Y36000D01*
X525968Y34984D01*
X526984D01*
X528000Y33968D01*
X450000Y77968D02*
X451016Y78984D01*
X452032D01*
X451016Y80000D01*
X452032Y81016D01*
X451016D01*
X450000Y82032D01*
X448984Y81016D01*
X447968D01*
X448984Y80000D01*
X447968Y78984D01*
X448984D01*
X450000Y77968D01*
X408000Y75968D02*
X409016Y76984D01*
X410032D01*
X409016Y78000D01*
X410032Y79016D01*
X409016D01*
X408000Y80032D01*
X406984Y79016D01*
X405968D01*
X406984Y78000D01*
X405968Y76984D01*
X406984D01*
X408000Y75968D01*
X26670Y80818D02*
X27686Y81834D01*
X28702D01*
X27686Y82850D01*
X28702Y83866D01*
X27686D01*
X26670Y84882D01*
X25654Y83866D01*
X24638D01*
X25654Y82850D01*
X24638Y81834D01*
X25654D01*
X26670Y80818D01*
X356870Y297988D02*
X357886Y299004D01*
X358902D01*
X357886Y300020D01*
X358902Y301036D01*
X357886D01*
X356870Y302052D01*
X355854Y301036D01*
X354838D01*
X355854Y300020D01*
X354838Y299004D01*
X355854D01*
X356870Y297988D01*
X485140Y272588D02*
X486156Y273604D01*
X487172D01*
X486156Y274620D01*
X487172Y275636D01*
X486156D01*
X485140Y276652D01*
X484124Y275636D01*
X483108D01*
X484124Y274620D01*
X483108Y273604D01*
X484124D01*
X485140Y272588D01*
X433070Y270048D02*
X434086Y271064D01*
X435102D01*
X434086Y272080D01*
X435102Y273096D01*
X434086D01*
X433070Y274112D01*
X432054Y273096D01*
X431038D01*
X432054Y272080D01*
X431038Y271064D01*
X432054D01*
X433070Y270048D01*
X346710Y261158D02*
X347726Y262174D01*
X348742D01*
X347726Y263190D01*
X348742Y264206D01*
X347726D01*
X346710Y265222D01*
X345694Y264206D01*
X344678D01*
X345694Y263190D01*
X344678Y262174D01*
X345694D01*
X346710Y261158D01*
X361950Y280208D02*
X362966Y281224D01*
X363982D01*
X362966Y282240D01*
X363982Y283256D01*
X362966D01*
X361950Y284272D01*
X360934Y283256D01*
X359918D01*
X360934Y282240D01*
X359918Y281224D01*
X360934D01*
X361950Y280208D01*
X391160Y270048D02*
X392176Y271064D01*
X393192D01*
X392176Y272080D01*
X393192Y273096D01*
X392176D01*
X391160Y274112D01*
X390144Y273096D01*
X389128D01*
X390144Y272080D01*
X389128Y271064D01*
X390144D01*
X391160Y270048D01*
X407670Y267508D02*
X408686Y268524D01*
X409702D01*
X408686Y269540D01*
X409702Y270556D01*
X408686D01*
X407670Y271572D01*
X406654Y270556D01*
X405638D01*
X406654Y269540D01*
X405638Y268524D01*
X406654D01*
X407670Y267508D01*
X458470Y168448D02*
X459486Y169464D01*
X460502D01*
X459486Y170480D01*
X460502Y171496D01*
X459486D01*
X458470Y172512D01*
X457454Y171496D01*
X456438D01*
X457454Y170480D01*
X456438Y169464D01*
X457454D01*
X458470Y168448D01*
X402590Y169718D02*
X403606Y170734D01*
X404622D01*
X403606Y171750D01*
X404622Y172766D01*
X403606D01*
X402590Y173782D01*
X401574Y172766D01*
X400558D01*
X401574Y171750D01*
X400558Y170734D01*
X401574D01*
X402590Y169718D01*
X382270Y184958D02*
X383286Y185974D01*
X384302D01*
X383286Y186990D01*
X384302Y188006D01*
X383286D01*
X382270Y189022D01*
X381254Y188006D01*
X380238D01*
X381254Y186990D01*
X380238Y185974D01*
X381254D01*
X382270Y184958D01*
X374650Y204008D02*
X375666Y205024D01*
X376682D01*
X375666Y206040D01*
X376682Y207056D01*
X375666D01*
X374650Y208072D01*
X373634Y207056D01*
X372618D01*
X373634Y206040D01*
X372618Y205024D01*
X373634D01*
X374650Y204008D01*
X440690Y210358D02*
X441706Y211374D01*
X442722D01*
X441706Y212390D01*
X442722Y213406D01*
X441706D01*
X440690Y214422D01*
X439674Y213406D01*
X438658D01*
X439674Y212390D01*
X438658Y211374D01*
X439674D01*
X440690Y210358D01*
X384810Y228138D02*
X385826Y229154D01*
X386842D01*
X385826Y230170D01*
X386842Y231186D01*
X385826D01*
X384810Y232202D01*
X383794Y231186D01*
X382778D01*
X383794Y230170D01*
X382778Y229154D01*
X383794D01*
X384810Y228138D01*
X424180Y224328D02*
X425196Y225344D01*
X426212D01*
X425196Y226360D01*
X426212Y227376D01*
X425196D01*
X424180Y228392D01*
X423164Y227376D01*
X422148D01*
X423164Y226360D01*
X422148Y225344D01*
X423164D01*
X424180Y224328D01*
X401320Y212898D02*
X402336Y213914D01*
X403352D01*
X402336Y214930D01*
X403352Y215946D01*
X402336D01*
X401320Y216962D01*
X400304Y215946D01*
X399288D01*
X400304Y214930D01*
X399288Y213914D01*
X400304D01*
X401320Y212898D01*
X459740Y226868D02*
X460756Y227884D01*
X461772D01*
X460756Y228900D01*
X461772Y229916D01*
X460756D01*
X459740Y230932D01*
X458724Y229916D01*
X457708D01*
X458724Y228900D01*
X457708Y227884D01*
X458724D01*
X459740Y226868D01*
X513080Y216708D02*
X514096Y217724D01*
X515112D01*
X514096Y218740D01*
X515112Y219756D01*
X514096D01*
X513080Y220772D01*
X512064Y219756D01*
X511048D01*
X512064Y218740D01*
X511048Y217724D01*
X512064D01*
X513080Y216708D01*
X529590Y196388D02*
X530606Y197404D01*
X531622D01*
X530606Y198420D01*
X531622Y199436D01*
X530606D01*
X529590Y200452D01*
X528574Y199436D01*
X527558D01*
X528574Y198420D01*
X527558Y197404D01*
X528574D01*
X529590Y196388D01*
X278130Y64308D02*
X279146Y65324D01*
X280162D01*
X279146Y66340D01*
X280162Y67356D01*
X279146D01*
X278130Y68372D01*
X277114Y67356D01*
X276098D01*
X277114Y66340D01*
X276098Y65324D01*
X277114D01*
X278130Y64308D01*
X168910Y55418D02*
X169926Y56434D01*
X170942D01*
X169926Y57450D01*
X170942Y58466D01*
X169926D01*
X168910Y59482D01*
X167894Y58466D01*
X166878D01*
X167894Y57450D01*
X166878Y56434D01*
X167894D01*
X168910Y55418D01*
X271780Y102408D02*
X272796Y103424D01*
X273812D01*
X272796Y104440D01*
X273812Y105456D01*
X272796D01*
X271780Y106472D01*
X270764Y105456D01*
X269748D01*
X270764Y104440D01*
X269748Y103424D01*
X270764D01*
X271780Y102408D01*
X234950Y99868D02*
X235966Y100884D01*
X236982D01*
X235966Y101900D01*
X236982Y102916D01*
X235966D01*
X234950Y103932D01*
X233934Y102916D01*
X232918D01*
X233934Y101900D01*
X232918Y100884D01*
X233934D01*
X234950Y99868D01*
X204470Y98598D02*
X205486Y99614D01*
X206502D01*
X205486Y100630D01*
X206502Y101646D01*
X205486D01*
X204470Y102662D01*
X203454Y101646D01*
X202438D01*
X203454Y100630D01*
X202438Y99614D01*
X203454D01*
X204470Y98598D01*
X224790Y230678D02*
X225806Y231694D01*
X226822D01*
X225806Y232710D01*
X226822Y233726D01*
X225806D01*
X224790Y234742D01*
X223774Y233726D01*
X222758D01*
X223774Y232710D01*
X222758Y231694D01*
X223774D01*
X224790Y230678D01*
X213360Y219248D02*
X214376Y220264D01*
X215392D01*
X214376Y221280D01*
X215392Y222296D01*
X214376D01*
X213360Y223312D01*
X212344Y222296D01*
X211328D01*
X212344Y221280D01*
X211328Y220264D01*
X212344D01*
X213360Y219248D01*
X200660Y207818D02*
X201676Y208834D01*
X202692D01*
X201676Y209850D01*
X202692Y210866D01*
X201676D01*
X200660Y211882D01*
X199644Y210866D01*
X198628D01*
X199644Y209850D01*
X198628Y208834D01*
X199644D01*
X200660Y207818D01*
X187960Y196388D02*
X188976Y197404D01*
X189992D01*
X188976Y198420D01*
X189992Y199436D01*
X188976D01*
X187960Y200452D01*
X186944Y199436D01*
X185928D01*
X186944Y198420D01*
X185928Y197404D01*
X186944D01*
X187960Y196388D01*
X175260Y184958D02*
X176276Y185974D01*
X177292D01*
X176276Y186990D01*
X177292Y188006D01*
X176276D01*
X175260Y189022D01*
X174244Y188006D01*
X173228D01*
X174244Y186990D01*
X173228Y185974D01*
X174244D01*
X175260Y184958D01*
X161290Y172258D02*
X162306Y173274D01*
X163322D01*
X162306Y174290D01*
X163322Y175306D01*
X162306D01*
X161290Y176322D01*
X160274Y175306D01*
X159258D01*
X160274Y174290D01*
X159258Y173274D01*
X160274D01*
X161290Y172258D01*
X303530Y296718D02*
X304546Y297734D01*
X305562D01*
X304546Y298750D01*
X305562Y299766D01*
X304546D01*
X303530Y300782D01*
X302514Y299766D01*
X301498D01*
X302514Y298750D01*
X301498Y297734D01*
X302514D01*
X303530Y296718D01*
X255270D02*
X256286Y297734D01*
X257302D01*
X256286Y298750D01*
X257302Y299766D01*
X256286D01*
X255270Y300782D01*
X254254Y299766D01*
X253238D01*
X254254Y298750D01*
X253238Y297734D01*
X254254D01*
X255270Y296718D01*
X224790Y295448D02*
X225806Y296464D01*
X226822D01*
X225806Y297480D01*
X226822Y298496D01*
X225806D01*
X224790Y299512D01*
X223774Y298496D01*
X222758D01*
X223774Y297480D01*
X222758Y296464D01*
X223774D01*
X224790Y295448D01*
X207010Y290368D02*
X208026Y291384D01*
X209042D01*
X208026Y292400D01*
X209042Y293416D01*
X208026D01*
X207010Y294432D01*
X205994Y293416D01*
X204978D01*
X205994Y292400D01*
X204978Y291384D01*
X205994D01*
X207010Y290368D01*
X149860Y318308D02*
X150876Y319324D01*
X151892D01*
X150876Y320340D01*
X151892Y321356D01*
X150876D01*
X149860Y322372D01*
X148844Y321356D01*
X147828D01*
X148844Y320340D01*
X147828Y319324D01*
X148844D01*
X149860Y318308D01*
X112000Y301968D02*
X113016Y302984D01*
X114032D01*
X113016Y304000D01*
X114032Y305016D01*
X113016D01*
X112000Y306032D01*
X110984Y305016D01*
X109968D01*
X110984Y304000D01*
X109968Y302984D01*
X110984D01*
X112000Y301968D01*
X71120Y285288D02*
X72136Y286304D01*
X73152D01*
X72136Y287320D01*
X73152Y288336D01*
X72136D01*
X71120Y289352D01*
X70104Y288336D01*
X69088D01*
X70104Y287320D01*
X69088Y286304D01*
X70104D01*
X71120Y285288D01*
X72390Y267508D02*
X73406Y268524D01*
X74422D01*
X73406Y269540D01*
X74422Y270556D01*
X73406D01*
X72390Y271572D01*
X71374Y270556D01*
X70358D01*
X71374Y269540D01*
X70358Y268524D01*
X71374D01*
X72390Y267508D01*
Y229408D02*
X73406Y230424D01*
X74422D01*
X73406Y231440D01*
X74422Y232456D01*
X73406D01*
X72390Y233472D01*
X71374Y232456D01*
X70358D01*
X71374Y231440D01*
X70358Y230424D01*
X71374D01*
X72390Y229408D01*
X73660Y202738D02*
X74676Y203754D01*
X75692D01*
X74676Y204770D01*
X75692Y205786D01*
X74676D01*
X73660Y206802D01*
X72644Y205786D01*
X71628D01*
X72644Y204770D01*
X71628Y203754D01*
X72644D01*
X73660Y202738D01*
X121920D02*
X122936Y203754D01*
X123952D01*
X122936Y204770D01*
X123952Y205786D01*
X122936D01*
X121920Y206802D01*
X120904Y205786D01*
X119888D01*
X120904Y204770D01*
X119888Y203754D01*
X120904D01*
X121920Y202738D01*
X123190Y182418D02*
X124206Y183434D01*
X125222D01*
X124206Y184450D01*
X125222Y185466D01*
X124206D01*
X123190Y186482D01*
X122174Y185466D01*
X121158D01*
X122174Y184450D01*
X121158Y183434D01*
X122174D01*
X123190Y182418D01*
X138430Y150668D02*
X139446Y151684D01*
X140462D01*
X139446Y152700D01*
X140462Y153716D01*
X139446D01*
X138430Y154732D01*
X137414Y153716D01*
X136398D01*
X137414Y152700D01*
X136398Y151684D01*
X137414D01*
X138430Y150668D01*
Y92248D02*
X139446Y93264D01*
X140462D01*
X139446Y94280D01*
X140462Y95296D01*
X139446D01*
X138430Y96312D01*
X137414Y95296D01*
X136398D01*
X137414Y94280D01*
X136398Y93264D01*
X137414D01*
X138430Y92248D01*
X102870Y130348D02*
X103886Y131364D01*
X104902D01*
X103886Y132380D01*
X104902Y133396D01*
X103886D01*
X102870Y134412D01*
X101854Y133396D01*
X100838D01*
X101854Y132380D01*
X100838Y131364D01*
X101854D01*
X102870Y130348D01*
X290830Y287828D02*
X291846Y288844D01*
X292862D01*
X291846Y289860D01*
X292862Y290876D01*
X291846D01*
X290830Y291892D01*
X289814Y290876D01*
X288798D01*
X289814Y289860D01*
X288798Y288844D01*
X289814D01*
X290830Y287828D01*
X264160Y285288D02*
X265176Y286304D01*
X266192D01*
X265176Y287320D01*
X266192Y288336D01*
X265176D01*
X264160Y289352D01*
X263144Y288336D01*
X262128D01*
X263144Y287320D01*
X262128Y286304D01*
X263144D01*
X264160Y285288D01*
X267970Y123998D02*
X268986Y125014D01*
X270002D01*
X268986Y126030D01*
X270002Y127046D01*
X268986D01*
X267970Y128062D01*
X266954Y127046D01*
X265938D01*
X266954Y126030D01*
X265938Y125014D01*
X266954D01*
X267970Y123998D01*
X465455Y274493D02*
X466471Y275509D01*
X467487D01*
X466471Y276525D01*
X467487Y277541D01*
X466471D01*
X465455Y278557D01*
X464439Y277541D01*
X463423D01*
X464439Y276525D01*
X463423Y275509D01*
X464439D01*
X465455Y274493D01*
X453390Y273858D02*
X454406Y274874D01*
X455422D01*
X454406Y275890D01*
X455422Y276906D01*
X454406D01*
X453390Y277922D01*
X452374Y276906D01*
X451358D01*
X452374Y275890D01*
X451358Y274874D01*
X452374D01*
X453390Y273858D01*
X458470Y341168D02*
X459486Y342184D01*
X460502D01*
X459486Y343200D01*
X460502Y344216D01*
X459486D01*
X458470Y345232D01*
X457454Y344216D01*
X456438D01*
X457454Y343200D01*
X456438Y342184D01*
X457454D01*
X458470Y341168D01*
X467360Y331008D02*
X468376Y332024D01*
X469392D01*
X468376Y333040D01*
X469392Y334056D01*
X468376D01*
X467360Y335072D01*
X466344Y334056D01*
X465328D01*
X466344Y333040D01*
X465328Y332024D01*
X466344D01*
X467360Y331008D01*
X500380Y315768D02*
X501396Y316784D01*
X502412D01*
X501396Y317800D01*
X502412Y318816D01*
X501396D01*
X500380Y319832D01*
X499364Y318816D01*
X498348D01*
X499364Y317800D01*
X498348Y316784D01*
X499364D01*
X500380Y315768D01*
X91440Y243378D02*
X92456Y244394D01*
X93472D01*
X92456Y245410D01*
X93472Y246426D01*
X92456D01*
X91440Y247442D01*
X90424Y246426D01*
X89408D01*
X90424Y245410D01*
X89408Y244394D01*
X90424D01*
X91440Y243378D01*
X105410Y228138D02*
X106426Y229154D01*
X107442D01*
X106426Y230170D01*
X107442Y231186D01*
X106426D01*
X105410Y232202D01*
X104394Y231186D01*
X103378D01*
X104394Y230170D01*
X103378Y229154D01*
X104394D01*
X105410Y228138D01*
X125730Y167178D02*
X126746Y168194D01*
X127762D01*
X126746Y169210D01*
X127762Y170226D01*
X126746D01*
X125730Y171242D01*
X124714Y170226D01*
X123698D01*
X124714Y169210D01*
X123698Y168194D01*
X124714D01*
X125730Y167178D01*
X340360Y126538D02*
X341376Y127554D01*
X342392D01*
X341376Y128570D01*
X342392Y129586D01*
X341376D01*
X340360Y130602D01*
X339344Y129586D01*
X338328D01*
X339344Y128570D01*
X338328Y127554D01*
X339344D01*
X340360Y126538D01*
X391160Y217978D02*
X392176Y218994D01*
X393192D01*
X392176Y220010D01*
X393192Y221026D01*
X392176D01*
X391160Y222042D01*
X390144Y221026D01*
X389128D01*
X390144Y220010D01*
X389128Y218994D01*
X390144D01*
X391160Y217978D01*
X466090Y181148D02*
X467106Y182164D01*
X468122D01*
X467106Y183180D01*
X468122Y184196D01*
X467106D01*
X466090Y185212D01*
X465074Y184196D01*
X464058D01*
X465074Y183180D01*
X464058Y182164D01*
X465074D01*
X466090Y181148D01*
X218440Y96058D02*
X219456Y97074D01*
X220472D01*
X219456Y98090D01*
X220472Y99106D01*
X219456D01*
X218440Y100122D01*
X217424Y99106D01*
X216408D01*
X217424Y98090D01*
X216408Y97074D01*
X217424D01*
X218440Y96058D01*
X350520Y191308D02*
X351536Y192324D01*
X352552D01*
X351536Y193340D01*
X352552Y194356D01*
X351536D01*
X350520Y195372D01*
X349504Y194356D01*
X348488D01*
X349504Y193340D01*
X348488Y192324D01*
X349504D01*
X350520Y191308D01*
X283210Y137968D02*
X284226Y138984D01*
X285242D01*
X284226Y140000D01*
X285242Y141016D01*
X284226D01*
X283210Y142032D01*
X282194Y141016D01*
X281178D01*
X282194Y140000D01*
X281178Y138984D01*
X282194D01*
X283210Y137968D01*
X284480Y226868D02*
X285496Y227884D01*
X286512D01*
X285496Y228900D01*
X286512Y229916D01*
X285496D01*
X284480Y230932D01*
X283464Y229916D01*
X282448D01*
X283464Y228900D01*
X282448Y227884D01*
X283464D01*
X284480Y226868D01*
X328930Y216708D02*
X329946Y217724D01*
X330962D01*
X329946Y218740D01*
X330962Y219756D01*
X329946D01*
X328930Y220772D01*
X327914Y219756D01*
X326898D01*
X327914Y218740D01*
X326898Y217724D01*
X327914D01*
X328930Y216708D01*
X414020Y182418D02*
X415036Y183434D01*
X416052D01*
X415036Y184450D01*
X416052Y185466D01*
X415036D01*
X414020Y186482D01*
X413004Y185466D01*
X411988D01*
X413004Y184450D01*
X411988Y183434D01*
X413004D01*
X414020Y182418D01*
X433070Y179878D02*
X434086Y180894D01*
X435102D01*
X434086Y181910D01*
X435102Y182926D01*
X434086D01*
X433070Y183942D01*
X432054Y182926D01*
X431038D01*
X432054Y181910D01*
X431038Y180894D01*
X432054D01*
X433070Y179878D01*
X427990Y108758D02*
X429006Y109774D01*
X430022D01*
X429006Y110790D01*
X430022Y111806D01*
X429006D01*
X427990Y112822D01*
X426974Y111806D01*
X425958D01*
X426974Y110790D01*
X425958Y109774D01*
X426974D01*
X427990Y108758D01*
X502920Y278938D02*
X503936Y279954D01*
X504952D01*
X503936Y280970D01*
X504952Y281986D01*
X503936D01*
X502920Y283002D01*
X501904Y281986D01*
X500888D01*
X501904Y280970D01*
X500888Y279954D01*
X501904D01*
X502920Y278938D01*
X129540Y193848D02*
X130556Y194864D01*
X131572D01*
X130556Y195880D01*
X131572Y196896D01*
X130556D01*
X129540Y197912D01*
X128524Y196896D01*
X127508D01*
X128524Y195880D01*
X127508Y194864D01*
X128524D01*
X129540Y193848D01*
D109*
X29902Y263270D02*
G03*
X29902Y263270I-2032J0D01*
G01*
Y146270D02*
G03*
X29902Y146270I-2032J0D01*
G01*
M02*
