G04*
G04 #@! TF.GenerationSoftware,Altium Limited,Altium Designer,19.1.5 (86)*
G04*
G04 Layer_Color=8388736*
%FSLAX44Y44*%
%MOMM*%
G71*
G01*
G75*
%ADD16R,1.4000X1.2000*%
%ADD18R,2.0000X1.2000*%
%ADD31R,0.9400X0.9900*%
%ADD32R,2.3832X1.8032*%
%ADD33R,1.2032X0.8032*%
%ADD34O,1.2032X1.0032*%
%ADD35R,1.4332X2.0032*%
%ADD36R,0.9900X0.9400*%
%ADD37R,1.0532X0.9032*%
%ADD38R,0.9032X1.0532*%
%ADD39R,2.0032X1.4332*%
%ADD40R,0.4832X1.7632*%
%ADD41R,1.7632X0.4832*%
%ADD42R,1.4224X2.4384*%
%ADD43R,3.8032X2.4032*%
%ADD44C,1.1000*%
%ADD45O,3.2000X1.3000*%
%ADD46R,2.0032X2.0032*%
%ADD47C,2.0032*%
%ADD48C,0.8032*%
D16*
X594750Y290750D02*
D03*
X572750D02*
D03*
Y306750D02*
D03*
X594750D02*
D03*
D18*
X54750Y130000D02*
D03*
Y155000D02*
D03*
Y175000D02*
D03*
Y200000D02*
D03*
D31*
X105750Y135000D02*
D03*
X121750D02*
D03*
X634250Y306250D02*
D03*
X618250D02*
D03*
X689250Y218750D02*
D03*
X673250D02*
D03*
X193500Y118750D02*
D03*
X177500D02*
D03*
X513000Y132500D02*
D03*
X497000D02*
D03*
X79750Y81250D02*
D03*
X63750D02*
D03*
X518250Y276250D02*
D03*
X534250D02*
D03*
X551950Y291250D02*
D03*
X535950D02*
D03*
D32*
X649250Y95000D02*
D03*
X741250D02*
D03*
D33*
X197500Y236500D02*
D03*
Y227000D02*
D03*
Y217500D02*
D03*
X170000D02*
D03*
Y227000D02*
D03*
Y236500D02*
D03*
D34*
X292500Y290000D02*
D03*
X312500D02*
D03*
X332500D02*
D03*
X352500D02*
D03*
X372500D02*
D03*
X392500D02*
D03*
X412500D02*
D03*
X432500D02*
D03*
Y130000D02*
D03*
X412500D02*
D03*
X392500D02*
D03*
X372500D02*
D03*
X352430D02*
D03*
X332500D02*
D03*
X312500D02*
D03*
X292500D02*
D03*
D35*
X660000Y290600D02*
D03*
Y264400D02*
D03*
D36*
X638750Y258250D02*
D03*
Y274250D02*
D03*
D37*
X708750Y204250D02*
D03*
Y220750D02*
D03*
X647500Y220500D02*
D03*
Y237000D02*
D03*
X63750Y60750D02*
D03*
Y44250D02*
D03*
D38*
X722000Y166250D02*
D03*
X705500D02*
D03*
X662000Y203750D02*
D03*
X645500D02*
D03*
X688500Y145000D02*
D03*
X705000D02*
D03*
X722000Y188750D02*
D03*
X705500D02*
D03*
X123250Y237500D02*
D03*
X106750D02*
D03*
X123250Y217500D02*
D03*
X106750D02*
D03*
D39*
X486900Y166250D02*
D03*
X513100D02*
D03*
D40*
X610000Y168200D02*
D03*
X605000D02*
D03*
X600000D02*
D03*
X595000D02*
D03*
X590000D02*
D03*
X585000D02*
D03*
X580000D02*
D03*
X575000D02*
D03*
X570000D02*
D03*
X565000D02*
D03*
X560000D02*
D03*
X555000D02*
D03*
Y251800D02*
D03*
X560000D02*
D03*
X565000D02*
D03*
X570000D02*
D03*
X575000D02*
D03*
X580000D02*
D03*
X585000D02*
D03*
X590000D02*
D03*
X595000D02*
D03*
X600000D02*
D03*
X605000D02*
D03*
X610000D02*
D03*
D41*
X624300Y237500D02*
D03*
Y232500D02*
D03*
Y227500D02*
D03*
Y222500D02*
D03*
Y217500D02*
D03*
Y212500D02*
D03*
Y207500D02*
D03*
Y202500D02*
D03*
Y197500D02*
D03*
Y192500D02*
D03*
Y187500D02*
D03*
Y182500D02*
D03*
X540700D02*
D03*
Y187500D02*
D03*
Y192500D02*
D03*
Y197500D02*
D03*
Y202500D02*
D03*
Y207500D02*
D03*
Y212500D02*
D03*
Y217500D02*
D03*
Y222500D02*
D03*
Y227500D02*
D03*
Y232500D02*
D03*
Y237500D02*
D03*
D42*
X200614Y89738D02*
D03*
X177500D02*
D03*
X154386D02*
D03*
D43*
X177500Y27760D02*
D03*
D44*
X28750Y142500D02*
D03*
Y187500D02*
D03*
D45*
Y106500D02*
D03*
Y223500D02*
D03*
D46*
X82500Y127500D02*
D03*
X770000Y223750D02*
D03*
D47*
X82500Y152500D02*
D03*
Y177500D02*
D03*
Y203500D02*
D03*
X770000Y198750D02*
D03*
Y173750D02*
D03*
Y147750D02*
D03*
D48*
X736250Y173250D02*
D03*
X121351Y82601D02*
D03*
X518750Y252500D02*
D03*
X583125Y231247D02*
D03*
X615959Y153458D02*
D03*
X722500Y220500D02*
D03*
X400000Y277500D02*
D03*
X533750Y260000D02*
D03*
X551250Y307500D02*
D03*
X122500Y162500D02*
D03*
X152500Y161250D02*
D03*
X243750Y156250D02*
D03*
X262500Y136250D02*
D03*
X286250Y115000D02*
D03*
X318750Y82500D02*
D03*
X550000Y145000D02*
D03*
X535000Y130000D02*
D03*
X518750Y115000D02*
D03*
X717500Y236250D02*
D03*
X621250Y266250D02*
D03*
X601250Y233750D02*
D03*
X593750Y201250D02*
D03*
X558750Y221250D02*
D03*
X665000Y242500D02*
D03*
X673750Y172500D02*
D03*
X463750Y272500D02*
D03*
X480000Y240000D02*
D03*
X291250Y266250D02*
D03*
X313750Y246250D02*
D03*
X312500Y266250D02*
D03*
X335000D02*
D03*
Y246250D02*
D03*
Y226250D02*
D03*
X375000Y201250D02*
D03*
Y177500D02*
D03*
Y155000D02*
D03*
X505000Y186250D02*
D03*
X470000Y133750D02*
D03*
X482500Y115000D02*
D03*
X458750D02*
D03*
X438750D02*
D03*
X417500D02*
D03*
X395000Y113750D02*
D03*
X371250D02*
D03*
X483750Y81250D02*
D03*
X461250D02*
D03*
X436250D02*
D03*
X412500D02*
D03*
X388750Y81250D02*
D03*
X365000D02*
D03*
X731250Y241250D02*
D03*
Y261250D02*
D03*
Y281250D02*
D03*
X708750D02*
D03*
X710000Y261250D02*
D03*
X687500Y281250D02*
D03*
X500000Y278750D02*
D03*
Y298750D02*
D03*
X482500Y316250D02*
D03*
X460000D02*
D03*
X478750Y298750D02*
D03*
X438750Y316250D02*
D03*
X587281Y91181D02*
D03*
X571250Y77500D02*
D03*
Y57500D02*
D03*
Y37500D02*
D03*
X548750D02*
D03*
X550000Y57500D02*
D03*
X527500Y37500D02*
D03*
X261250Y240000D02*
D03*
Y260000D02*
D03*
Y280000D02*
D03*
X238750D02*
D03*
X240000Y260000D02*
D03*
X217500Y280000D02*
D03*
X218750Y312500D02*
D03*
X196250Y292500D02*
D03*
X197500Y312500D02*
D03*
X175000D02*
D03*
Y292500D02*
D03*
Y272500D02*
D03*
X133750Y187500D02*
D03*
X656250Y159250D02*
D03*
X413750Y271250D02*
D03*
X585000Y187500D02*
D03*
X601250D02*
D03*
X568600Y185268D02*
D03*
X642507Y175000D02*
D03*
X348750Y113750D02*
D03*
X645750Y188750D02*
D03*
X587500Y272500D02*
D03*
X137503Y230007D02*
D03*
X150000Y212500D02*
D03*
Y241250D02*
D03*
M02*
