G04*
G04 #@! TF.GenerationSoftware,Altium Limited,Altium Designer,19.1.5 (86)*
G04*
G04 Layer_Color=8421504*
%FSLAX44Y44*%
%MOMM*%
G71*
G01*
G75*
%ADD16R,1.4000X1.2000*%
%ADD17R,0.7000X0.7500*%
%ADD18R,2.0000X1.2000*%
%ADD19R,2.1800X1.6000*%
%ADD20R,1.0000X0.6000*%
%ADD21O,1.0000X0.8000*%
%ADD22R,1.2300X1.8000*%
%ADD23R,0.7500X0.7000*%
%ADD24R,0.7500X0.6000*%
%ADD25R,0.6000X0.7500*%
%ADD26R,1.8000X1.2300*%
%ADD27R,0.2800X1.5600*%
%ADD28R,1.5600X0.2800*%
%ADD29R,1.2192X2.2352*%
%ADD30R,3.6000X2.2000*%
D16*
X594750Y290750D02*
D03*
X572750D02*
D03*
Y306750D02*
D03*
X594750D02*
D03*
D17*
X105750Y135000D02*
D03*
X121750D02*
D03*
X634250Y306250D02*
D03*
X618250D02*
D03*
X689250Y218750D02*
D03*
X673250D02*
D03*
X193500Y118750D02*
D03*
X177500D02*
D03*
X513000Y132500D02*
D03*
X497000D02*
D03*
X79750Y81250D02*
D03*
X63750D02*
D03*
X518250Y276250D02*
D03*
X534250D02*
D03*
X551950Y291250D02*
D03*
X535950D02*
D03*
D18*
X54750Y130000D02*
D03*
Y155000D02*
D03*
Y175000D02*
D03*
Y200000D02*
D03*
D19*
X649250Y95000D02*
D03*
X741250D02*
D03*
D20*
X197500Y236500D02*
D03*
Y227000D02*
D03*
Y217500D02*
D03*
X170000D02*
D03*
Y227000D02*
D03*
Y236500D02*
D03*
D21*
X292500Y290000D02*
D03*
X312500D02*
D03*
X332500D02*
D03*
X352500D02*
D03*
X372500D02*
D03*
X392500D02*
D03*
X412500D02*
D03*
X432500D02*
D03*
Y130000D02*
D03*
X412500D02*
D03*
X392500D02*
D03*
X372500D02*
D03*
X352430D02*
D03*
X332500D02*
D03*
X312500D02*
D03*
X292500D02*
D03*
D22*
X660000Y290600D02*
D03*
Y264400D02*
D03*
D23*
X638750Y258250D02*
D03*
Y274250D02*
D03*
D24*
X708750Y204250D02*
D03*
Y220750D02*
D03*
X647500Y220500D02*
D03*
Y237000D02*
D03*
X63750Y60750D02*
D03*
Y44250D02*
D03*
D25*
X722000Y166250D02*
D03*
X705500D02*
D03*
X662000Y203750D02*
D03*
X645500D02*
D03*
X688500Y145000D02*
D03*
X705000D02*
D03*
X722000Y188750D02*
D03*
X705500D02*
D03*
X123250Y237500D02*
D03*
X106750D02*
D03*
X123250Y217500D02*
D03*
X106750D02*
D03*
D26*
X486900Y166250D02*
D03*
X513100D02*
D03*
D27*
X610000Y168200D02*
D03*
X605000D02*
D03*
X600000D02*
D03*
X595000D02*
D03*
X590000D02*
D03*
X585000D02*
D03*
X580000D02*
D03*
X575000D02*
D03*
X570000D02*
D03*
X565000D02*
D03*
X560000D02*
D03*
X555000D02*
D03*
Y251800D02*
D03*
X560000D02*
D03*
X565000D02*
D03*
X570000D02*
D03*
X575000D02*
D03*
X580000D02*
D03*
X585000D02*
D03*
X590000D02*
D03*
X595000D02*
D03*
X600000D02*
D03*
X605000D02*
D03*
X610000D02*
D03*
D28*
X624300Y237500D02*
D03*
Y232500D02*
D03*
Y227500D02*
D03*
Y222500D02*
D03*
Y217500D02*
D03*
Y212500D02*
D03*
Y207500D02*
D03*
Y202500D02*
D03*
Y197500D02*
D03*
Y192500D02*
D03*
Y187500D02*
D03*
Y182500D02*
D03*
X540700D02*
D03*
Y187500D02*
D03*
Y192500D02*
D03*
Y197500D02*
D03*
Y202500D02*
D03*
Y207500D02*
D03*
Y212500D02*
D03*
Y217500D02*
D03*
Y222500D02*
D03*
Y227500D02*
D03*
Y232500D02*
D03*
Y237500D02*
D03*
D29*
X200614Y89738D02*
D03*
X177500D02*
D03*
X154386D02*
D03*
D30*
X177500Y27760D02*
D03*
M02*
