M48
;Layer_Color=9474304
;FILE_FORMAT=4:4
METRIC,LZ
;TYPE=PLATED
T1F00S00C0.3000
T3F00S00C1.2000
%
T01
X0054875Y000375
X0055Y000575
X0057125
Y000375
Y000775
X00587281Y00091181
X00615959Y00153458
X0065625Y0015925
X0055Y00145
X00535Y0013
X0051875Y00115
X004825
X0045875
X0043875
X004175
X00395Y0011375
X0037125
X0034875
X00365Y0008125
X0038875
X004125Y0008125
X0043625
X0046125
X0048375
X0047Y0013375
X00375Y00155
X0028625Y00115
X002625Y0013625
X0024375Y0015625
X001525Y0016125
X0031875Y000825
X005275Y000375
X00121351Y00082601
X001225Y001625
X0013375Y001875
X00137503Y00230007
X0015Y0024125
Y002125
X00175Y002725
Y002925
Y003125
X001975
X0021875
X002175Y0028
X0023875
X0024Y0026
X0026125
Y0028
Y0024
X0029125Y0026625
X003125
X0031375Y0024625
X00335
Y0026625
Y0022625
X00375Y0020125
Y001775
X004Y002775
X0041375Y0027125
X0046375Y002725
X0047875Y0029875
X005
Y0027875
X0051875Y002525
X0053375Y0026
X0048Y0024
X00505Y0018625
X004825Y0031625
X0046
X0043875
X0019625Y002925
X0055125Y003075
X005875Y002725
X0062125Y0026625
X0060125Y0023375
X00583125Y00231247
X0055875Y0022125
X005686Y00185268
X00585Y001875
X0060125
X0059375Y0020125
X0064575Y0018875
X00642507Y00175
X0067375Y001725
X0073625Y0017325
X007225Y002205
X007175Y0023625
X0073125Y0024125
Y0026125
Y0028125
X0070875
X0071Y0026125
X006875Y0028125
X00665Y002425
T03
X0077Y0014775
X000825Y001525
Y001275
Y001775
Y002035
X0077Y0019875
Y0022375
Y0017375
M30
