G04*
G04 #@! TF.GenerationSoftware,Altium Limited,Altium Designer,19.1.5 (86)*
G04*
G04 Layer_Color=16711935*
%FSLAX44Y44*%
%MOMM*%
G71*
G01*
G75*
%ADD10C,0.2500*%
%ADD11C,0.2000*%
%ADD12C,0.1000*%
%ADD14C,0.2540*%
%ADD105R,1.8000X0.4573*%
%ADD106R,0.4573X1.8000*%
D10*
X772500Y332500D02*
X808763Y296237D01*
X769556Y1250D02*
X808750Y40444D01*
X33750Y1250D02*
X769556D01*
X1250Y33750D02*
X33750Y1250D01*
X1250Y33750D02*
Y297500D01*
X36250Y332500D01*
X772500D01*
D11*
X105750Y131000D02*
Y139000D01*
X121750Y131000D02*
Y139000D01*
X105750D02*
X121750D01*
X105750Y131000D02*
X121750D01*
X175000Y211750D02*
X192500D01*
X175000Y242250D02*
X192500D01*
Y211750D02*
Y242250D01*
X175000Y211750D02*
Y242250D01*
X634250Y302250D02*
Y310250D01*
X618250Y302250D02*
Y310250D01*
Y302250D02*
X634250D01*
X618250Y310250D02*
X634250D01*
X669000Y260500D02*
Y294500D01*
X651000Y260500D02*
Y294500D01*
X669000D01*
X651000Y260500D02*
X669000D01*
X634750Y258250D02*
X642750D01*
X634750Y274250D02*
X642750D01*
X634750Y258250D02*
Y274250D01*
X642750Y258250D02*
Y274250D01*
X689250Y214750D02*
Y222750D01*
X673250Y214750D02*
Y222750D01*
Y214750D02*
X689250D01*
X673250Y222750D02*
X689250D01*
X704750Y204500D02*
Y220500D01*
X712750Y204500D02*
Y220500D01*
X704750Y204500D02*
X712750D01*
X704750Y220500D02*
X712750D01*
X705750Y162250D02*
X721750D01*
X705750Y170250D02*
X721750D01*
Y162250D02*
Y170250D01*
X705750Y162250D02*
Y170250D01*
X193500Y114750D02*
Y122750D01*
X177500Y114750D02*
Y122750D01*
Y114750D02*
X193500D01*
X177500Y122750D02*
X193500D01*
X513000Y128500D02*
Y136500D01*
X497000Y128500D02*
Y136500D01*
Y128500D02*
X513000D01*
X497000Y136500D02*
X513000D01*
X483000Y175250D02*
X517000D01*
X483000Y157250D02*
X517000D01*
X483000D02*
Y175250D01*
X517000Y157250D02*
Y175250D01*
X643500Y220750D02*
Y236750D01*
X651500Y220750D02*
Y236750D01*
X643500Y220750D02*
X651500D01*
X643500Y236750D02*
X651500D01*
X645750Y199750D02*
X661750D01*
X645750Y207750D02*
X661750D01*
Y199750D02*
Y207750D01*
X645750Y199750D02*
Y207750D01*
X688750Y149000D02*
X704750D01*
X688750Y141000D02*
X704750D01*
X688750D02*
Y149000D01*
X704750Y141000D02*
Y149000D01*
X705750Y184750D02*
X721750D01*
X705750Y192750D02*
X721750D01*
Y184750D02*
Y192750D01*
X705750Y184750D02*
Y192750D01*
X79750Y77250D02*
Y85250D01*
X63750Y77250D02*
Y85250D01*
Y77250D02*
X79750D01*
X63750Y85250D02*
X79750D01*
X67750Y44500D02*
Y60500D01*
X59750Y44500D02*
Y60500D01*
X67750D01*
X59750Y44500D02*
X67750D01*
X123000Y233500D02*
Y241500D01*
X107000Y233500D02*
Y241500D01*
Y233500D02*
X123000D01*
X107000Y241500D02*
X123000D01*
Y213500D02*
Y221500D01*
X107000Y213500D02*
Y221500D01*
Y213500D02*
X123000D01*
X107000Y221500D02*
X123000D01*
X518250Y280250D02*
X534250D01*
X518250Y272250D02*
X534250D01*
X518250D02*
Y280250D01*
X534250Y272250D02*
Y280250D01*
X535950Y287250D02*
X551950D01*
X535950Y295250D02*
X551950D01*
Y287250D02*
Y295250D01*
X535950Y287250D02*
Y295250D01*
D12*
X316630Y159210D02*
G03*
X316630Y159210I-15000J0D01*
G01*
D14*
X808750Y40444D02*
X808763Y296237D01*
D105*
X660000Y262791D02*
D03*
D106*
X514711Y166250D02*
D03*
M02*
