G04*
G04 #@! TF.GenerationSoftware,Altium Limited,Altium Designer,19.1.5 (86)*
G04*
G04 Layer_Physical_Order=2*
G04 Layer_Color=16711680*
%FSLAX44Y44*%
%MOMM*%
G71*
G01*
G75*
%ADD10C,0.2500*%
%ADD44C,1.1000*%
%ADD45O,3.2000X1.3000*%
%ADD53C,0.6000*%
%ADD54C,0.3500*%
%ADD56R,1.8000X1.8000*%
%ADD57C,1.8000*%
%ADD58C,0.6000*%
G36*
X7739Y216566D02*
X9943Y213693D01*
X12334Y211859D01*
X12801Y211341D01*
X12687Y210168D01*
X12247Y209509D01*
X11917Y207850D01*
Y122150D01*
X12247Y120491D01*
X12687Y119832D01*
X12801Y118659D01*
X12334Y118141D01*
X9943Y116307D01*
X7739Y113434D01*
X7520Y112905D01*
X6250Y113157D01*
Y216843D01*
X7520Y217095D01*
X7739Y216566D01*
D02*
G37*
G36*
X805000Y292500D02*
Y43750D01*
X766250Y5000D01*
X37500Y6250D01*
X6250Y37500D01*
Y99843D01*
X7520Y100095D01*
X7739Y99566D01*
X9943Y96693D01*
X12816Y94489D01*
X16161Y93104D01*
X19750Y92631D01*
X37750D01*
X41340Y93104D01*
X44684Y94489D01*
X47557Y96693D01*
X49761Y99566D01*
X51146Y102910D01*
X51619Y106500D01*
X51146Y110090D01*
X49761Y113434D01*
X47557Y116307D01*
X44684Y118511D01*
X41340Y119896D01*
X37750Y120369D01*
X24159D01*
X20583Y123945D01*
Y206056D01*
X24159Y209631D01*
X37750D01*
X41340Y210104D01*
X44684Y211489D01*
X47557Y213693D01*
X49761Y216566D01*
X51146Y219911D01*
X51619Y223500D01*
X51146Y227090D01*
X49761Y230434D01*
X47557Y233307D01*
X44684Y235511D01*
X41340Y236896D01*
X37750Y237369D01*
X19750D01*
X16161Y236896D01*
X12816Y235511D01*
X9943Y233307D01*
X7739Y230434D01*
X7520Y229905D01*
X6250Y230157D01*
Y296250D01*
X38750Y328750D01*
X768750D01*
X805000Y292500D01*
D02*
G37*
%LPC*%
G36*
X483770Y321646D02*
Y317520D01*
X487896D01*
X487719Y318412D01*
X486494Y320244D01*
X484662Y321469D01*
X483770Y321646D01*
D02*
G37*
G36*
X481230D02*
X480338Y321469D01*
X478506Y320244D01*
X477281Y318412D01*
X477104Y317520D01*
X481230D01*
Y321646D01*
D02*
G37*
G36*
X461270D02*
Y317520D01*
X465396D01*
X465219Y318412D01*
X463994Y320244D01*
X462162Y321469D01*
X461270Y321646D01*
D02*
G37*
G36*
X458730D02*
X457838Y321469D01*
X456006Y320244D01*
X454781Y318412D01*
X454604Y317520D01*
X458730D01*
Y321646D01*
D02*
G37*
G36*
X440020D02*
Y317520D01*
X444146D01*
X443969Y318412D01*
X442744Y320244D01*
X440912Y321469D01*
X440020Y321646D01*
D02*
G37*
G36*
X437480D02*
X436588Y321469D01*
X434756Y320244D01*
X433531Y318412D01*
X433354Y317520D01*
X437480D01*
Y321646D01*
D02*
G37*
G36*
X220020Y317896D02*
Y313770D01*
X224146D01*
X223969Y314662D01*
X222744Y316494D01*
X220912Y317719D01*
X220020Y317896D01*
D02*
G37*
G36*
X217480D02*
X216588Y317719D01*
X214756Y316494D01*
X213531Y314662D01*
X213354Y313770D01*
X217480D01*
Y317896D01*
D02*
G37*
G36*
X198770D02*
Y313770D01*
X202896D01*
X202719Y314662D01*
X201494Y316494D01*
X199662Y317719D01*
X198770Y317896D01*
D02*
G37*
G36*
X196230D02*
X195338Y317719D01*
X193506Y316494D01*
X192281Y314662D01*
X192104Y313770D01*
X196230D01*
Y317896D01*
D02*
G37*
G36*
X176270D02*
Y313770D01*
X180396D01*
X180219Y314662D01*
X178994Y316494D01*
X177162Y317719D01*
X176270Y317896D01*
D02*
G37*
G36*
X173730D02*
X172838Y317719D01*
X171006Y316494D01*
X169781Y314662D01*
X169604Y313770D01*
X173730D01*
Y317896D01*
D02*
G37*
G36*
X487896Y314980D02*
X483770D01*
Y310854D01*
X484662Y311031D01*
X486494Y312256D01*
X487719Y314088D01*
X487896Y314980D01*
D02*
G37*
G36*
X481230D02*
X477104D01*
X477281Y314088D01*
X478506Y312256D01*
X480338Y311031D01*
X481230Y310854D01*
Y314980D01*
D02*
G37*
G36*
X465396D02*
X461270D01*
Y310854D01*
X462162Y311031D01*
X463994Y312256D01*
X465219Y314088D01*
X465396Y314980D01*
D02*
G37*
G36*
X458730D02*
X454604D01*
X454781Y314088D01*
X456006Y312256D01*
X457838Y311031D01*
X458730Y310854D01*
Y314980D01*
D02*
G37*
G36*
X444146D02*
X440020D01*
Y310854D01*
X440912Y311031D01*
X442744Y312256D01*
X443969Y314088D01*
X444146Y314980D01*
D02*
G37*
G36*
X437480D02*
X433354D01*
X433531Y314088D01*
X434756Y312256D01*
X436588Y311031D01*
X437480Y310854D01*
Y314980D01*
D02*
G37*
G36*
X552520Y312896D02*
Y308770D01*
X556646D01*
X556469Y309662D01*
X555244Y311494D01*
X553412Y312719D01*
X552520Y312896D01*
D02*
G37*
G36*
X549980D02*
X549088Y312719D01*
X547256Y311494D01*
X546031Y309662D01*
X545854Y308770D01*
X549980D01*
Y312896D01*
D02*
G37*
G36*
X224146Y311230D02*
X220020D01*
Y307104D01*
X220912Y307281D01*
X222744Y308506D01*
X223969Y310338D01*
X224146Y311230D01*
D02*
G37*
G36*
X217480D02*
X213354D01*
X213531Y310338D01*
X214756Y308506D01*
X216588Y307281D01*
X217480Y307104D01*
Y311230D01*
D02*
G37*
G36*
X202896D02*
X198770D01*
Y307104D01*
X199662Y307281D01*
X201494Y308506D01*
X202719Y310338D01*
X202896Y311230D01*
D02*
G37*
G36*
X196230D02*
X192104D01*
X192281Y310338D01*
X193506Y308506D01*
X195338Y307281D01*
X196230Y307104D01*
Y311230D01*
D02*
G37*
G36*
X180396D02*
X176270D01*
Y307104D01*
X177162Y307281D01*
X178994Y308506D01*
X180219Y310338D01*
X180396Y311230D01*
D02*
G37*
G36*
X173730D02*
X169604D01*
X169781Y310338D01*
X171006Y308506D01*
X172838Y307281D01*
X173730Y307104D01*
Y311230D01*
D02*
G37*
G36*
X556646Y306230D02*
X552520D01*
Y302104D01*
X553412Y302281D01*
X555244Y303506D01*
X556469Y305338D01*
X556646Y306230D01*
D02*
G37*
G36*
X549980D02*
X545854D01*
X546031Y305338D01*
X547256Y303506D01*
X549088Y302281D01*
X549980Y302104D01*
Y306230D01*
D02*
G37*
G36*
X501270Y304146D02*
Y300020D01*
X505396D01*
X505219Y300912D01*
X503994Y302744D01*
X502162Y303969D01*
X501270Y304146D01*
D02*
G37*
G36*
X498730D02*
X497838Y303969D01*
X496006Y302744D01*
X494781Y300912D01*
X494604Y300020D01*
X498730D01*
Y304146D01*
D02*
G37*
G36*
X480020D02*
Y300020D01*
X484146D01*
X483969Y300912D01*
X482744Y302744D01*
X480912Y303969D01*
X480020Y304146D01*
D02*
G37*
G36*
X477480D02*
X476588Y303969D01*
X474756Y302744D01*
X473531Y300912D01*
X473354Y300020D01*
X477480D01*
Y304146D01*
D02*
G37*
G36*
X197520Y297896D02*
Y293770D01*
X201646D01*
X201469Y294662D01*
X200244Y296494D01*
X198412Y297719D01*
X197520Y297896D01*
D02*
G37*
G36*
X194980D02*
X194088Y297719D01*
X192256Y296494D01*
X191031Y294662D01*
X190854Y293770D01*
X194980D01*
Y297896D01*
D02*
G37*
G36*
X176270D02*
Y293770D01*
X180396D01*
X180219Y294662D01*
X178994Y296494D01*
X177162Y297719D01*
X176270Y297896D01*
D02*
G37*
G36*
X173730D02*
X172838Y297719D01*
X171006Y296494D01*
X169781Y294662D01*
X169604Y293770D01*
X173730D01*
Y297896D01*
D02*
G37*
G36*
X505396Y297480D02*
X501270D01*
Y293354D01*
X502162Y293531D01*
X503994Y294756D01*
X505219Y296588D01*
X505396Y297480D01*
D02*
G37*
G36*
X498730D02*
X494604D01*
X494781Y296588D01*
X496006Y294756D01*
X497838Y293531D01*
X498730Y293354D01*
Y297480D01*
D02*
G37*
G36*
X484146D02*
X480020D01*
Y293354D01*
X480912Y293531D01*
X482744Y294756D01*
X483969Y296588D01*
X484146Y297480D01*
D02*
G37*
G36*
X477480D02*
X473354D01*
X473531Y296588D01*
X474756Y294756D01*
X476588Y293531D01*
X477480Y293354D01*
Y297480D01*
D02*
G37*
G36*
X201646Y291230D02*
X197520D01*
Y287104D01*
X198412Y287281D01*
X200244Y288506D01*
X201469Y290338D01*
X201646Y291230D01*
D02*
G37*
G36*
X194980D02*
X190854D01*
X191031Y290338D01*
X192256Y288506D01*
X194088Y287281D01*
X194980Y287104D01*
Y291230D01*
D02*
G37*
G36*
X180396D02*
X176270D01*
Y287104D01*
X177162Y287281D01*
X178994Y288506D01*
X180219Y290338D01*
X180396Y291230D01*
D02*
G37*
G36*
X173730D02*
X169604D01*
X169781Y290338D01*
X171006Y288506D01*
X172838Y287281D01*
X173730Y287104D01*
Y291230D01*
D02*
G37*
G36*
X732520Y286646D02*
Y282520D01*
X736646D01*
X736469Y283412D01*
X735244Y285244D01*
X733412Y286469D01*
X732520Y286646D01*
D02*
G37*
G36*
X729980D02*
X729088Y286469D01*
X727256Y285244D01*
X726031Y283412D01*
X725854Y282520D01*
X729980D01*
Y286646D01*
D02*
G37*
G36*
X710020D02*
Y282520D01*
X714146D01*
X713969Y283412D01*
X712744Y285244D01*
X710912Y286469D01*
X710020Y286646D01*
D02*
G37*
G36*
X707480D02*
X706588Y286469D01*
X704756Y285244D01*
X703531Y283412D01*
X703354Y282520D01*
X707480D01*
Y286646D01*
D02*
G37*
G36*
X688770D02*
Y282520D01*
X692896D01*
X692719Y283412D01*
X691494Y285244D01*
X689662Y286469D01*
X688770Y286646D01*
D02*
G37*
G36*
X686230D02*
X685338Y286469D01*
X683506Y285244D01*
X682281Y283412D01*
X682104Y282520D01*
X686230D01*
Y286646D01*
D02*
G37*
G36*
X262520Y285396D02*
Y281270D01*
X266646D01*
X266469Y282162D01*
X265244Y283994D01*
X263412Y285219D01*
X262520Y285396D01*
D02*
G37*
G36*
X259980D02*
X259088Y285219D01*
X257256Y283994D01*
X256031Y282162D01*
X255854Y281270D01*
X259980D01*
Y285396D01*
D02*
G37*
G36*
X240020D02*
Y281270D01*
X244146D01*
X243969Y282162D01*
X242744Y283994D01*
X240912Y285219D01*
X240020Y285396D01*
D02*
G37*
G36*
X237480D02*
X236588Y285219D01*
X234756Y283994D01*
X233531Y282162D01*
X233354Y281270D01*
X237480D01*
Y285396D01*
D02*
G37*
G36*
X218770D02*
Y281270D01*
X222896D01*
X222719Y282162D01*
X221494Y283994D01*
X219662Y285219D01*
X218770Y285396D01*
D02*
G37*
G36*
X216230D02*
X215338Y285219D01*
X213506Y283994D01*
X212281Y282162D01*
X212104Y281270D01*
X216230D01*
Y285396D01*
D02*
G37*
G36*
X426350Y282959D02*
X426350Y282959D01*
X410167D01*
X408997Y282726D01*
X408004Y282063D01*
X408004Y282063D01*
X406500Y280559D01*
X403068D01*
X403064Y280564D01*
X401658Y281503D01*
X400000Y281833D01*
X398342Y281503D01*
X396936Y280564D01*
X395997Y279158D01*
X395667Y277500D01*
X395997Y275842D01*
X396936Y274436D01*
X398342Y273497D01*
X400000Y273167D01*
X401658Y273497D01*
X403064Y274436D01*
X403068Y274441D01*
X407767D01*
X407767Y274441D01*
X408938Y274674D01*
X409930Y275337D01*
X411434Y276841D01*
X425083D01*
X442937Y258987D01*
X443929Y258324D01*
X445100Y258091D01*
X445100Y258091D01*
X529914D01*
X530686Y256936D01*
X532092Y255996D01*
X533750Y255667D01*
X535408Y255996D01*
X536814Y256936D01*
X537753Y258342D01*
X538083Y260000D01*
X537753Y261658D01*
X536814Y263064D01*
X535408Y264003D01*
X533750Y264333D01*
X532862Y264157D01*
X532600Y264209D01*
X532600Y264209D01*
X446367D01*
X428513Y282063D01*
X427520Y282726D01*
X426350Y282959D01*
D02*
G37*
G36*
X501270Y284146D02*
Y280020D01*
X505396D01*
X505219Y280912D01*
X503994Y282744D01*
X502162Y283969D01*
X501270Y284146D01*
D02*
G37*
G36*
X498730D02*
X497838Y283969D01*
X496006Y282744D01*
X494781Y280912D01*
X494604Y280020D01*
X498730D01*
Y284146D01*
D02*
G37*
G36*
X736646Y279980D02*
X732520D01*
Y275854D01*
X733412Y276031D01*
X735244Y277256D01*
X736469Y279088D01*
X736646Y279980D01*
D02*
G37*
G36*
X729980D02*
X725854D01*
X726031Y279088D01*
X727256Y277256D01*
X729088Y276031D01*
X729980Y275854D01*
Y279980D01*
D02*
G37*
G36*
X714146D02*
X710020D01*
Y275854D01*
X710912Y276031D01*
X712744Y277256D01*
X713969Y279088D01*
X714146Y279980D01*
D02*
G37*
G36*
X707480D02*
X703354D01*
X703531Y279088D01*
X704756Y277256D01*
X706588Y276031D01*
X707480Y275854D01*
Y279980D01*
D02*
G37*
G36*
X692896D02*
X688770D01*
Y275854D01*
X689662Y276031D01*
X691494Y277256D01*
X692719Y279088D01*
X692896Y279980D01*
D02*
G37*
G36*
X686230D02*
X682104D01*
X682281Y279088D01*
X683506Y277256D01*
X685338Y276031D01*
X686230Y275854D01*
Y279980D01*
D02*
G37*
G36*
X266646Y278730D02*
X262520D01*
Y274604D01*
X263412Y274781D01*
X265244Y276006D01*
X266469Y277838D01*
X266646Y278730D01*
D02*
G37*
G36*
X259980D02*
X255854D01*
X256031Y277838D01*
X257256Y276006D01*
X259088Y274781D01*
X259980Y274604D01*
Y278730D01*
D02*
G37*
G36*
X244146D02*
X240020D01*
Y274604D01*
X240912Y274781D01*
X242744Y276006D01*
X243969Y277838D01*
X244146Y278730D01*
D02*
G37*
G36*
X237480D02*
X233354D01*
X233531Y277838D01*
X234756Y276006D01*
X236588Y274781D01*
X237480Y274604D01*
Y278730D01*
D02*
G37*
G36*
X222896D02*
X218770D01*
Y274604D01*
X219662Y274781D01*
X221494Y276006D01*
X222719Y277838D01*
X222896Y278730D01*
D02*
G37*
G36*
X216230D02*
X212104D01*
X212281Y277838D01*
X213506Y276006D01*
X215338Y274781D01*
X216230Y274604D01*
Y278730D01*
D02*
G37*
G36*
X588770Y277896D02*
Y273770D01*
X592896D01*
X592719Y274662D01*
X591494Y276494D01*
X589662Y277719D01*
X588770Y277896D01*
D02*
G37*
G36*
X586230D02*
X585338Y277719D01*
X583506Y276494D01*
X582281Y274662D01*
X582104Y273770D01*
X586230D01*
Y277896D01*
D02*
G37*
G36*
X465020D02*
Y273770D01*
X469146D01*
X468969Y274662D01*
X467744Y276494D01*
X465912Y277719D01*
X465020Y277896D01*
D02*
G37*
G36*
X462480D02*
X461588Y277719D01*
X459756Y276494D01*
X458531Y274662D01*
X458354Y273770D01*
X462480D01*
Y277896D01*
D02*
G37*
G36*
X176270D02*
Y273770D01*
X180396D01*
X180219Y274662D01*
X178994Y276494D01*
X177162Y277719D01*
X176270Y277896D01*
D02*
G37*
G36*
X173730D02*
X172838Y277719D01*
X171006Y276494D01*
X169781Y274662D01*
X169604Y273770D01*
X173730D01*
Y277896D01*
D02*
G37*
G36*
X505396Y277480D02*
X501270D01*
Y273354D01*
X502162Y273531D01*
X503994Y274756D01*
X505219Y276588D01*
X505396Y277480D01*
D02*
G37*
G36*
X498730D02*
X494604D01*
X494781Y276588D01*
X496006Y274756D01*
X497838Y273531D01*
X498730Y273354D01*
Y277480D01*
D02*
G37*
G36*
X622520Y271646D02*
Y267520D01*
X626646D01*
X626469Y268412D01*
X625244Y270244D01*
X623412Y271469D01*
X622520Y271646D01*
D02*
G37*
G36*
X619980D02*
X619088Y271469D01*
X617256Y270244D01*
X616031Y268412D01*
X615854Y267520D01*
X619980D01*
Y271646D01*
D02*
G37*
G36*
X336270Y271646D02*
Y267520D01*
X340396D01*
X340219Y268412D01*
X338994Y270244D01*
X337162Y271469D01*
X336270Y271646D01*
D02*
G37*
G36*
X333730D02*
X332838Y271469D01*
X331006Y270244D01*
X329781Y268412D01*
X329604Y267520D01*
X333730D01*
Y271646D01*
D02*
G37*
G36*
X313770D02*
Y267520D01*
X317896D01*
X317719Y268412D01*
X316494Y270244D01*
X314662Y271469D01*
X313770Y271646D01*
D02*
G37*
G36*
X311230D02*
X310338Y271469D01*
X308506Y270244D01*
X307281Y268412D01*
X307104Y267520D01*
X311230D01*
Y271646D01*
D02*
G37*
G36*
X292520D02*
Y267520D01*
X296646D01*
X296469Y268412D01*
X295244Y270244D01*
X293412Y271469D01*
X292520Y271646D01*
D02*
G37*
G36*
X289980D02*
X289088Y271469D01*
X287256Y270244D01*
X286031Y268412D01*
X285854Y267520D01*
X289980D01*
Y271646D01*
D02*
G37*
G36*
X592896Y271230D02*
X588770D01*
Y267104D01*
X589662Y267281D01*
X591494Y268506D01*
X592719Y270338D01*
X592896Y271230D01*
D02*
G37*
G36*
X586230D02*
X582104D01*
X582281Y270338D01*
X583506Y268506D01*
X585338Y267281D01*
X586230Y267104D01*
Y271230D01*
D02*
G37*
G36*
X469146D02*
X465020D01*
Y267104D01*
X465912Y267281D01*
X467744Y268506D01*
X468969Y270338D01*
X469146Y271230D01*
D02*
G37*
G36*
X462480D02*
X458354D01*
X458531Y270338D01*
X459756Y268506D01*
X461588Y267281D01*
X462480Y267104D01*
Y271230D01*
D02*
G37*
G36*
X180396D02*
X176270D01*
Y267104D01*
X177162Y267281D01*
X178994Y268506D01*
X180219Y270338D01*
X180396Y271230D01*
D02*
G37*
G36*
X173730D02*
X169604D01*
X169781Y270338D01*
X171006Y268506D01*
X172838Y267281D01*
X173730Y267104D01*
Y271230D01*
D02*
G37*
G36*
X732520Y266646D02*
Y262520D01*
X736646D01*
X736469Y263412D01*
X735244Y265244D01*
X733412Y266469D01*
X732520Y266646D01*
D02*
G37*
G36*
X729980D02*
X729088Y266469D01*
X727256Y265244D01*
X726031Y263412D01*
X725854Y262520D01*
X729980D01*
Y266646D01*
D02*
G37*
G36*
X711270D02*
Y262520D01*
X715396D01*
X715219Y263412D01*
X713994Y265244D01*
X712162Y266469D01*
X711270Y266646D01*
D02*
G37*
G36*
X708730D02*
X707838Y266469D01*
X706006Y265244D01*
X704781Y263412D01*
X704604Y262520D01*
X708730D01*
Y266646D01*
D02*
G37*
G36*
X262520Y265396D02*
Y261270D01*
X266646D01*
X266469Y262162D01*
X265244Y263994D01*
X263412Y265219D01*
X262520Y265396D01*
D02*
G37*
G36*
X259980D02*
X259088Y265219D01*
X257256Y263994D01*
X256031Y262162D01*
X255854Y261270D01*
X259980D01*
Y265396D01*
D02*
G37*
G36*
X241270D02*
Y261270D01*
X245396D01*
X245219Y262162D01*
X243994Y263994D01*
X242162Y265219D01*
X241270Y265396D01*
D02*
G37*
G36*
X238730D02*
X237838Y265219D01*
X236006Y263994D01*
X234781Y262162D01*
X234604Y261270D01*
X238730D01*
Y265396D01*
D02*
G37*
G36*
X626646Y264980D02*
X622520D01*
Y260854D01*
X623412Y261031D01*
X625244Y262256D01*
X626469Y264088D01*
X626646Y264980D01*
D02*
G37*
G36*
X619980D02*
X615854D01*
X616031Y264088D01*
X617256Y262256D01*
X619088Y261031D01*
X619980Y260854D01*
Y264980D01*
D02*
G37*
G36*
X340396Y264980D02*
X336270D01*
Y260854D01*
X337162Y261031D01*
X338994Y262256D01*
X340219Y264088D01*
X340396Y264980D01*
D02*
G37*
G36*
X333730D02*
X329604D01*
X329781Y264088D01*
X331006Y262256D01*
X332838Y261031D01*
X333730Y260854D01*
Y264980D01*
D02*
G37*
G36*
X317896D02*
X313770D01*
Y260854D01*
X314662Y261031D01*
X316494Y262256D01*
X317719Y264088D01*
X317896Y264980D01*
D02*
G37*
G36*
X311230D02*
X307104D01*
X307281Y264088D01*
X308506Y262256D01*
X310338Y261031D01*
X311230Y260854D01*
Y264980D01*
D02*
G37*
G36*
X296646D02*
X292520D01*
Y260854D01*
X293412Y261031D01*
X295244Y262256D01*
X296469Y264088D01*
X296646Y264980D01*
D02*
G37*
G36*
X289980D02*
X285854D01*
X286031Y264088D01*
X287256Y262256D01*
X289088Y261031D01*
X289980Y260854D01*
Y264980D01*
D02*
G37*
G36*
X736646Y259980D02*
X732520D01*
Y255854D01*
X733412Y256031D01*
X735244Y257256D01*
X736469Y259088D01*
X736646Y259980D01*
D02*
G37*
G36*
X729980D02*
X725854D01*
X726031Y259088D01*
X727256Y257256D01*
X729088Y256031D01*
X729980Y255854D01*
Y259980D01*
D02*
G37*
G36*
X715396D02*
X711270D01*
Y255854D01*
X712162Y256031D01*
X713994Y257256D01*
X715219Y259088D01*
X715396Y259980D01*
D02*
G37*
G36*
X708730D02*
X704604D01*
X704781Y259088D01*
X706006Y257256D01*
X707838Y256031D01*
X708730Y255854D01*
Y259980D01*
D02*
G37*
G36*
X266646Y258730D02*
X262520D01*
Y254604D01*
X263412Y254781D01*
X265244Y256006D01*
X266469Y257838D01*
X266646Y258730D01*
D02*
G37*
G36*
X259980D02*
X255854D01*
X256031Y257838D01*
X257256Y256006D01*
X259088Y254781D01*
X259980Y254604D01*
Y258730D01*
D02*
G37*
G36*
X245396D02*
X241270D01*
Y254604D01*
X242162Y254781D01*
X243994Y256006D01*
X245219Y257838D01*
X245396Y258730D01*
D02*
G37*
G36*
X238730D02*
X234604D01*
X234781Y257838D01*
X236006Y256006D01*
X237838Y254781D01*
X238730Y254604D01*
Y258730D01*
D02*
G37*
G36*
X413750Y275583D02*
X412092Y275253D01*
X410686Y274314D01*
X409747Y272908D01*
X409417Y271250D01*
X409747Y269592D01*
X410686Y268186D01*
X412092Y267246D01*
X413750Y266917D01*
X413756Y266918D01*
X430337Y250337D01*
X431329Y249674D01*
X432500Y249441D01*
X432500Y249441D01*
X515682D01*
X515686Y249436D01*
X517092Y248496D01*
X518750Y248167D01*
X520408Y248496D01*
X521814Y249436D01*
X522753Y250842D01*
X523083Y252500D01*
X522753Y254158D01*
X521814Y255564D01*
X520408Y256503D01*
X518750Y256833D01*
X517092Y256503D01*
X515686Y255564D01*
X515682Y255559D01*
X433767D01*
X418082Y271244D01*
X418083Y271250D01*
X417753Y272908D01*
X416814Y274314D01*
X415408Y275253D01*
X413750Y275583D01*
D02*
G37*
G36*
X336270Y251646D02*
Y247520D01*
X340396D01*
X340219Y248412D01*
X338994Y250244D01*
X337162Y251469D01*
X336270Y251646D01*
D02*
G37*
G36*
X333730D02*
X332838Y251469D01*
X331006Y250244D01*
X329781Y248412D01*
X329604Y247520D01*
X333730D01*
Y251646D01*
D02*
G37*
G36*
X315020D02*
Y247520D01*
X319146D01*
X318969Y248412D01*
X317744Y250244D01*
X315912Y251469D01*
X315020Y251646D01*
D02*
G37*
G36*
X312480D02*
X311588Y251469D01*
X309756Y250244D01*
X308531Y248412D01*
X308354Y247520D01*
X312480D01*
Y251646D01*
D02*
G37*
G36*
X666270Y247896D02*
Y243770D01*
X670396D01*
X670219Y244662D01*
X668994Y246494D01*
X667162Y247719D01*
X666270Y247896D01*
D02*
G37*
G36*
X663730D02*
X662838Y247719D01*
X661006Y246494D01*
X659781Y244662D01*
X659604Y243770D01*
X663730D01*
Y247896D01*
D02*
G37*
G36*
X732520Y246646D02*
Y242520D01*
X736646D01*
X736469Y243412D01*
X735244Y245244D01*
X733412Y246469D01*
X732520Y246646D01*
D02*
G37*
G36*
X729980D02*
X729088Y246469D01*
X727256Y245244D01*
X726031Y243412D01*
X725854Y242520D01*
X729980D01*
Y246646D01*
D02*
G37*
G36*
X481270Y245396D02*
Y241270D01*
X485396D01*
X485219Y242162D01*
X483994Y243994D01*
X482162Y245219D01*
X481270Y245396D01*
D02*
G37*
G36*
X478730D02*
X477838Y245219D01*
X476006Y243994D01*
X474781Y242162D01*
X474604Y241270D01*
X478730D01*
Y245396D01*
D02*
G37*
G36*
X262520D02*
Y241270D01*
X266646D01*
X266469Y242162D01*
X265244Y243994D01*
X263412Y245219D01*
X262520Y245396D01*
D02*
G37*
G36*
X259980D02*
X259088Y245219D01*
X257256Y243994D01*
X256031Y242162D01*
X255854Y241270D01*
X259980D01*
Y245396D01*
D02*
G37*
G36*
X340396Y244980D02*
X336270D01*
Y240854D01*
X337162Y241031D01*
X338994Y242256D01*
X340219Y244088D01*
X340396Y244980D01*
D02*
G37*
G36*
X333730D02*
X329604D01*
X329781Y244088D01*
X331006Y242256D01*
X332838Y241031D01*
X333730Y240854D01*
Y244980D01*
D02*
G37*
G36*
X319146D02*
X315020D01*
Y240854D01*
X315912Y241031D01*
X317744Y242256D01*
X318969Y244088D01*
X319146Y244980D01*
D02*
G37*
G36*
X312480D02*
X308354D01*
X308531Y244088D01*
X309756Y242256D01*
X311588Y241031D01*
X312480Y240854D01*
Y244980D01*
D02*
G37*
G36*
X718770Y241646D02*
Y237520D01*
X722896D01*
X722719Y238412D01*
X721494Y240244D01*
X719662Y241469D01*
X718770Y241646D01*
D02*
G37*
G36*
X716230D02*
X715338Y241469D01*
X713506Y240244D01*
X712281Y238412D01*
X712104Y237520D01*
X716230D01*
Y241646D01*
D02*
G37*
G36*
X670396Y241230D02*
X666270D01*
Y237104D01*
X667162Y237281D01*
X668994Y238506D01*
X670219Y240338D01*
X670396Y241230D01*
D02*
G37*
G36*
X663730D02*
X659604D01*
X659781Y240338D01*
X661006Y238506D01*
X662838Y237281D01*
X663730Y237104D01*
Y241230D01*
D02*
G37*
G36*
X736646Y239980D02*
X732520D01*
Y235854D01*
X733412Y236031D01*
X735244Y237256D01*
X736469Y239088D01*
X736646Y239980D01*
D02*
G37*
G36*
X729980D02*
X725854D01*
X726031Y239088D01*
X727256Y237256D01*
X729088Y236031D01*
X729980Y235854D01*
Y239980D01*
D02*
G37*
G36*
X602520Y239146D02*
Y235020D01*
X606646D01*
X606469Y235912D01*
X605244Y237744D01*
X603412Y238969D01*
X602520Y239146D01*
D02*
G37*
G36*
X599980D02*
X599088Y238969D01*
X597256Y237744D01*
X596031Y235912D01*
X595854Y235020D01*
X599980D01*
Y239146D01*
D02*
G37*
G36*
X485396Y238730D02*
X481270D01*
Y234604D01*
X482162Y234781D01*
X483994Y236006D01*
X485219Y237838D01*
X485396Y238730D01*
D02*
G37*
G36*
X478730D02*
X474604D01*
X474781Y237838D01*
X476006Y236006D01*
X477838Y234781D01*
X478730Y234604D01*
Y238730D01*
D02*
G37*
G36*
X266646D02*
X262520D01*
Y234604D01*
X263412Y234781D01*
X265244Y236006D01*
X266469Y237838D01*
X266646Y238730D01*
D02*
G37*
G36*
X259980D02*
X255854D01*
X256031Y237838D01*
X257256Y236006D01*
X259088Y234781D01*
X259980Y234604D01*
Y238730D01*
D02*
G37*
G36*
X138773Y235403D02*
Y231277D01*
X142899D01*
X142722Y232169D01*
X141497Y234001D01*
X139665Y235226D01*
X138773Y235403D01*
D02*
G37*
G36*
X136233D02*
X135341Y235226D01*
X133509Y234001D01*
X132284Y232169D01*
X132107Y231277D01*
X136233D01*
Y235403D01*
D02*
G37*
G36*
X722896Y234980D02*
X718770D01*
Y230854D01*
X719662Y231031D01*
X721494Y232256D01*
X722719Y234088D01*
X722896Y234980D01*
D02*
G37*
G36*
X716230D02*
X712104D01*
X712281Y234088D01*
X713506Y232256D01*
X715338Y231031D01*
X716230Y230854D01*
Y234980D01*
D02*
G37*
G36*
X606646Y232480D02*
X602520D01*
Y228354D01*
X603412Y228531D01*
X605244Y229756D01*
X606469Y231588D01*
X606646Y232480D01*
D02*
G37*
G36*
X599980D02*
X595854D01*
X596031Y231588D01*
X597256Y229756D01*
X599088Y228531D01*
X599980Y228354D01*
Y232480D01*
D02*
G37*
G36*
X336270Y231646D02*
Y227520D01*
X340396D01*
X340219Y228412D01*
X338994Y230244D01*
X337162Y231469D01*
X336270Y231646D01*
D02*
G37*
G36*
X333730D02*
X332838Y231469D01*
X331006Y230244D01*
X329781Y228412D01*
X329604Y227520D01*
X333730D01*
Y231646D01*
D02*
G37*
G36*
X142899Y228737D02*
X138773D01*
Y224611D01*
X139665Y224788D01*
X141497Y226013D01*
X142722Y227845D01*
X142899Y228737D01*
D02*
G37*
G36*
X136233D02*
X132107D01*
X132284Y227845D01*
X133509Y226013D01*
X135341Y224788D01*
X136233Y224611D01*
Y228737D01*
D02*
G37*
G36*
X560020Y226646D02*
Y222520D01*
X564146D01*
X563969Y223412D01*
X562744Y225244D01*
X560912Y226469D01*
X560020Y226646D01*
D02*
G37*
G36*
X557480D02*
X556588Y226469D01*
X554756Y225244D01*
X553531Y223412D01*
X553354Y222520D01*
X557480D01*
Y226646D01*
D02*
G37*
G36*
X340396Y224980D02*
X336270D01*
Y220854D01*
X337162Y221031D01*
X338994Y222256D01*
X340219Y224088D01*
X340396Y224980D01*
D02*
G37*
G36*
X333730D02*
X329604D01*
X329781Y224088D01*
X331006Y222256D01*
X332838Y221031D01*
X333730Y220854D01*
Y224980D01*
D02*
G37*
G36*
X564146Y219980D02*
X560020D01*
Y215854D01*
X560912Y216031D01*
X562744Y217256D01*
X563969Y219088D01*
X564146Y219980D01*
D02*
G37*
G36*
X557480D02*
X553354D01*
X553531Y219088D01*
X554756Y217256D01*
X556588Y216031D01*
X557480Y215854D01*
Y219980D01*
D02*
G37*
G36*
X780250Y234000D02*
X759750D01*
Y213500D01*
X780250D01*
Y234000D01*
D02*
G37*
G36*
X83770Y214972D02*
Y204770D01*
X93972D01*
X93743Y206513D01*
X92580Y209320D01*
X90730Y211730D01*
X88320Y213580D01*
X85513Y214743D01*
X83770Y214972D01*
D02*
G37*
G36*
X81230D02*
X79487Y214743D01*
X76680Y213580D01*
X74270Y211730D01*
X72420Y209320D01*
X71257Y206513D01*
X71028Y204770D01*
X81230D01*
Y214972D01*
D02*
G37*
G36*
X595020Y206646D02*
Y202520D01*
X599146D01*
X598969Y203412D01*
X597744Y205244D01*
X595912Y206469D01*
X595020Y206646D01*
D02*
G37*
G36*
X592480D02*
X591588Y206469D01*
X589756Y205244D01*
X588531Y203412D01*
X588354Y202520D01*
X592480D01*
Y206646D01*
D02*
G37*
G36*
X376270D02*
Y202520D01*
X380396D01*
X380219Y203412D01*
X378994Y205244D01*
X377162Y206469D01*
X376270Y206646D01*
D02*
G37*
G36*
X373730D02*
X372838Y206469D01*
X371006Y205244D01*
X369781Y203412D01*
X369604Y202520D01*
X373730D01*
Y206646D01*
D02*
G37*
G36*
X599146Y199980D02*
X595020D01*
Y195854D01*
X595912Y196031D01*
X597744Y197256D01*
X598969Y199088D01*
X599146Y199980D01*
D02*
G37*
G36*
X592480D02*
X588354D01*
X588531Y199088D01*
X589756Y197256D01*
X591588Y196031D01*
X592480Y195854D01*
Y199980D01*
D02*
G37*
G36*
X380396D02*
X376270D01*
Y195854D01*
X377162Y196031D01*
X378994Y197256D01*
X380219Y199088D01*
X380396Y199980D01*
D02*
G37*
G36*
X373730D02*
X369604D01*
X369781Y199088D01*
X371006Y197256D01*
X372838Y196031D01*
X373730Y195854D01*
Y199980D01*
D02*
G37*
G36*
X93972Y202230D02*
X83770D01*
Y192028D01*
X85513Y192257D01*
X88320Y193420D01*
X90730Y195270D01*
X92580Y197680D01*
X93743Y200487D01*
X93972Y202230D01*
D02*
G37*
G36*
X81230D02*
X71028D01*
X71257Y200487D01*
X72420Y197680D01*
X74270Y195270D01*
X76680Y193420D01*
X79487Y192257D01*
X81230Y192028D01*
Y202230D01*
D02*
G37*
G36*
X135020Y192896D02*
Y188770D01*
X139146D01*
X138969Y189662D01*
X137744Y191494D01*
X135912Y192719D01*
X135020Y192896D01*
D02*
G37*
G36*
X132480D02*
X131588Y192719D01*
X129756Y191494D01*
X128531Y189662D01*
X128354Y188770D01*
X132480D01*
Y192896D01*
D02*
G37*
G36*
X770000Y209088D02*
X767324Y208736D01*
X764831Y207703D01*
X762690Y206060D01*
X761047Y203919D01*
X760014Y201426D01*
X759661Y198750D01*
X760014Y196074D01*
X761047Y193581D01*
X762690Y191440D01*
X764831Y189797D01*
X767324Y188764D01*
X770000Y188412D01*
X772676Y188764D01*
X775169Y189797D01*
X777310Y191440D01*
X778953Y193581D01*
X779986Y196074D01*
X780338Y198750D01*
X779986Y201426D01*
X778953Y203919D01*
X777310Y206060D01*
X775169Y207703D01*
X772676Y208736D01*
X770000Y209088D01*
D02*
G37*
G36*
X506270Y191646D02*
Y187520D01*
X510396D01*
X510219Y188412D01*
X508994Y190244D01*
X507162Y191469D01*
X506270Y191646D01*
D02*
G37*
G36*
X503730D02*
X502838Y191469D01*
X501006Y190244D01*
X499781Y188412D01*
X499604Y187520D01*
X503730D01*
Y191646D01*
D02*
G37*
G36*
X583125Y235581D02*
X581467Y235251D01*
X580061Y234311D01*
X579122Y232906D01*
X578792Y231247D01*
X579122Y229589D01*
X580061Y228183D01*
X581467Y227244D01*
X582357Y227067D01*
X602437Y206987D01*
Y197750D01*
X602437Y197750D01*
X602670Y196579D01*
X603333Y195587D01*
X608441Y190479D01*
Y189750D01*
X608441Y189750D01*
X608674Y188579D01*
X609337Y187587D01*
X610337Y186587D01*
X610337Y186587D01*
X611329Y185924D01*
X612500Y185691D01*
X612500Y185691D01*
X642682D01*
X642686Y185686D01*
X644092Y184746D01*
X645750Y184417D01*
X647408Y184746D01*
X648814Y185686D01*
X649753Y187092D01*
X650083Y188750D01*
X649753Y190408D01*
X648814Y191814D01*
X647408Y192753D01*
X645750Y193083D01*
X644092Y192753D01*
X642686Y191814D01*
X642682Y191809D01*
X614546D01*
X614326Y192916D01*
X613663Y193909D01*
X613663Y193909D01*
X608554Y199017D01*
Y208254D01*
X608322Y209425D01*
X607659Y210417D01*
X607659Y210417D01*
X587354Y230722D01*
X587458Y231247D01*
X587128Y232906D01*
X586189Y234311D01*
X584783Y235251D01*
X583125Y235581D01*
D02*
G37*
G36*
X139146Y186230D02*
X135020D01*
Y182104D01*
X135912Y182281D01*
X137744Y183506D01*
X138969Y185338D01*
X139146Y186230D01*
D02*
G37*
G36*
X132480D02*
X128354D01*
X128531Y185338D01*
X129756Y183506D01*
X131588Y182281D01*
X132480Y182104D01*
Y186230D01*
D02*
G37*
G36*
X510396Y184980D02*
X506270D01*
Y180854D01*
X507162Y181031D01*
X508994Y182256D01*
X510219Y184088D01*
X510396Y184980D01*
D02*
G37*
G36*
X503730D02*
X499604D01*
X499781Y184088D01*
X501006Y182256D01*
X502838Y181031D01*
X503730Y180854D01*
Y184980D01*
D02*
G37*
G36*
X28750Y194308D02*
X26988Y194076D01*
X25346Y193396D01*
X23936Y192314D01*
X22854Y190904D01*
X22174Y189262D01*
X21942Y187500D01*
X22174Y185738D01*
X22854Y184096D01*
X23936Y182686D01*
X25346Y181604D01*
X26988Y180924D01*
X28750Y180692D01*
X30512Y180924D01*
X32154Y181604D01*
X33564Y182686D01*
X34646Y184096D01*
X35326Y185738D01*
X35558Y187500D01*
X35326Y189262D01*
X34646Y190904D01*
X33564Y192314D01*
X32154Y193396D01*
X30512Y194076D01*
X28750Y194308D01*
D02*
G37*
G36*
X376270Y182896D02*
Y178770D01*
X380396D01*
X380219Y179662D01*
X378994Y181494D01*
X377162Y182719D01*
X376270Y182896D01*
D02*
G37*
G36*
X373730D02*
X372838Y182719D01*
X371006Y181494D01*
X369781Y179662D01*
X369604Y178770D01*
X373730D01*
Y182896D01*
D02*
G37*
G36*
X675020Y177896D02*
Y173770D01*
X679146D01*
X678969Y174662D01*
X677744Y176494D01*
X675912Y177719D01*
X675020Y177896D01*
D02*
G37*
G36*
X672480D02*
X671588Y177719D01*
X669756Y176494D01*
X668531Y174662D01*
X668354Y173770D01*
X672480D01*
Y177896D01*
D02*
G37*
G36*
X380396Y176230D02*
X376270D01*
Y172104D01*
X377162Y172281D01*
X378994Y173506D01*
X380219Y175338D01*
X380396Y176230D01*
D02*
G37*
G36*
X373730D02*
X369604D01*
X369781Y175338D01*
X371006Y173506D01*
X372838Y172281D01*
X373730Y172104D01*
Y176230D01*
D02*
G37*
G36*
X722500Y224833D02*
X720842Y224503D01*
X719436Y223564D01*
X718497Y222158D01*
X718167Y220500D01*
X718497Y218842D01*
X719436Y217436D01*
X720842Y216497D01*
X722500Y216167D01*
X722506Y216168D01*
X733191Y205483D01*
Y176318D01*
X733186Y176314D01*
X732247Y174908D01*
X731917Y173250D01*
X732247Y171592D01*
X733186Y170186D01*
X734592Y169247D01*
X736250Y168917D01*
X737908Y169247D01*
X739314Y170186D01*
X740253Y171592D01*
X740583Y173250D01*
X740253Y174908D01*
X739314Y176314D01*
X739309Y176318D01*
Y206750D01*
X739309Y206750D01*
X739076Y207921D01*
X738413Y208913D01*
X726832Y220494D01*
X726833Y220500D01*
X726503Y222158D01*
X725564Y223564D01*
X724158Y224503D01*
X722500Y224833D01*
D02*
G37*
G36*
X82500Y187838D02*
X79824Y187486D01*
X77331Y186453D01*
X75190Y184810D01*
X73547Y182669D01*
X72514Y180176D01*
X72162Y177500D01*
X72514Y174824D01*
X73547Y172331D01*
X75190Y170190D01*
X77331Y168547D01*
X79824Y167514D01*
X82500Y167162D01*
X85176Y167514D01*
X87669Y168547D01*
X89810Y170190D01*
X91453Y172331D01*
X92486Y174824D01*
X92838Y177500D01*
X92486Y180176D01*
X91453Y182669D01*
X89810Y184810D01*
X87669Y186453D01*
X85176Y187486D01*
X82500Y187838D01*
D02*
G37*
G36*
X679146Y171230D02*
X675020D01*
Y167104D01*
X675912Y167281D01*
X677744Y168506D01*
X678969Y170338D01*
X679146Y171230D01*
D02*
G37*
G36*
X672480D02*
X668354D01*
X668531Y170338D01*
X669756Y168506D01*
X671588Y167281D01*
X672480Y167104D01*
Y171230D01*
D02*
G37*
G36*
X123770Y167896D02*
Y163770D01*
X127896D01*
X127718Y164662D01*
X126494Y166494D01*
X124662Y167719D01*
X123770Y167896D01*
D02*
G37*
G36*
X121230D02*
X120338Y167719D01*
X118506Y166494D01*
X117281Y164662D01*
X117104Y163770D01*
X121230D01*
Y167896D01*
D02*
G37*
G36*
X770000Y184088D02*
X767324Y183736D01*
X764831Y182703D01*
X762690Y181060D01*
X761047Y178919D01*
X760014Y176426D01*
X759661Y173750D01*
X760014Y171074D01*
X761047Y168581D01*
X762690Y166440D01*
X764831Y164797D01*
X767324Y163764D01*
X770000Y163412D01*
X772676Y163764D01*
X775169Y164797D01*
X777310Y166440D01*
X778953Y168581D01*
X779986Y171074D01*
X780338Y173750D01*
X779986Y176426D01*
X778953Y178919D01*
X777310Y181060D01*
X775169Y182703D01*
X772676Y183736D01*
X770000Y184088D01*
D02*
G37*
G36*
X153770Y166646D02*
Y162520D01*
X157896D01*
X157719Y163412D01*
X156494Y165244D01*
X154662Y166469D01*
X153770Y166646D01*
D02*
G37*
G36*
X151230D02*
X150338Y166469D01*
X148506Y165244D01*
X147281Y163412D01*
X147104Y162520D01*
X151230D01*
Y166646D01*
D02*
G37*
G36*
X245020Y161646D02*
Y157520D01*
X249146D01*
X248969Y158412D01*
X247744Y160244D01*
X245912Y161469D01*
X245020Y161646D01*
D02*
G37*
G36*
X242480D02*
X241588Y161469D01*
X239756Y160244D01*
X238531Y158412D01*
X238354Y157520D01*
X242480D01*
Y161646D01*
D02*
G37*
G36*
X127896Y161230D02*
X123770D01*
Y157104D01*
X124662Y157281D01*
X126494Y158506D01*
X127718Y160338D01*
X127896Y161230D01*
D02*
G37*
G36*
X121230D02*
X117104D01*
X117281Y160338D01*
X118506Y158506D01*
X120338Y157281D01*
X121230Y157104D01*
Y161230D01*
D02*
G37*
G36*
X376270Y160396D02*
Y156270D01*
X380396D01*
X380219Y157162D01*
X378994Y158994D01*
X377162Y160219D01*
X376270Y160396D01*
D02*
G37*
G36*
X373730D02*
X372838Y160219D01*
X371006Y158994D01*
X369781Y157162D01*
X369604Y156270D01*
X373730D01*
Y160396D01*
D02*
G37*
G36*
X642507Y179333D02*
X640849Y179003D01*
X639443Y178064D01*
X638504Y176658D01*
X638174Y175000D01*
X638504Y173342D01*
X639443Y171936D01*
X639736Y171740D01*
X640344Y170830D01*
X651918Y159256D01*
X651917Y159250D01*
X652247Y157592D01*
X653186Y156186D01*
X654592Y155247D01*
X656250Y154917D01*
X657908Y155247D01*
X659314Y156186D01*
X659318Y156191D01*
X688750D01*
X688750Y156191D01*
X689921Y156424D01*
X690913Y157087D01*
X707913Y174087D01*
X708576Y175079D01*
X708809Y176250D01*
X708576Y177421D01*
X707913Y178413D01*
X706920Y179076D01*
X705750Y179309D01*
X704579Y179076D01*
X703587Y178413D01*
X687483Y162309D01*
X659318D01*
X659314Y162314D01*
X657908Y163253D01*
X656250Y163583D01*
X656244Y163582D01*
X646500Y173326D01*
X646511Y173342D01*
X646840Y175000D01*
X646511Y176658D01*
X645571Y178064D01*
X644165Y179003D01*
X642507Y179333D01*
D02*
G37*
G36*
X157896Y159980D02*
X153770D01*
Y155854D01*
X154662Y156031D01*
X156494Y157256D01*
X157719Y159088D01*
X157896Y159980D01*
D02*
G37*
G36*
X151230D02*
X147104D01*
X147281Y159088D01*
X148506Y157256D01*
X150338Y156031D01*
X151230Y155854D01*
Y159980D01*
D02*
G37*
G36*
X249146Y154980D02*
X245020D01*
Y150854D01*
X245912Y151031D01*
X247744Y152256D01*
X248969Y154088D01*
X249146Y154980D01*
D02*
G37*
G36*
X242480D02*
X238354D01*
X238531Y154088D01*
X239756Y152256D01*
X241588Y151031D01*
X242480Y150854D01*
Y154980D01*
D02*
G37*
G36*
X380396Y153730D02*
X376270D01*
Y149604D01*
X377162Y149781D01*
X378994Y151006D01*
X380219Y152838D01*
X380396Y153730D01*
D02*
G37*
G36*
X373730D02*
X369604D01*
X369781Y152838D01*
X371006Y151006D01*
X372838Y149781D01*
X373730Y149604D01*
Y153730D01*
D02*
G37*
G36*
X150000Y245583D02*
X148342Y245253D01*
X146936Y244314D01*
X145997Y242908D01*
X145667Y241250D01*
X145791Y240628D01*
X145659Y239968D01*
X145659Y239968D01*
Y227476D01*
X137237Y219053D01*
X136574Y218061D01*
X136341Y216891D01*
X136341Y216891D01*
Y208109D01*
X136341Y208109D01*
X136574Y206939D01*
X137237Y205946D01*
X285951Y57232D01*
X285466Y56059D01*
X152220D01*
X125683Y82595D01*
X125685Y82601D01*
X125355Y84260D01*
X124416Y85666D01*
X123010Y86605D01*
X121351Y86935D01*
X119693Y86605D01*
X118287Y85666D01*
X117348Y84260D01*
X117018Y82601D01*
X117348Y80943D01*
X118287Y79537D01*
X119693Y78598D01*
X121351Y78268D01*
X121358Y78270D01*
X148790Y50837D01*
X148790Y50837D01*
X149782Y50174D01*
X150953Y49941D01*
X150953Y49941D01*
X507470D01*
X507471Y49941D01*
X508641Y50174D01*
X509633Y50837D01*
X609196Y150399D01*
X612891D01*
X612894Y150394D01*
X614300Y149454D01*
X615959Y149125D01*
X617617Y149454D01*
X619022Y150394D01*
X619962Y151800D01*
X620292Y153458D01*
X619962Y155116D01*
X619022Y156522D01*
X617617Y157461D01*
X615959Y157791D01*
X614300Y157461D01*
X612894Y156522D01*
X612891Y156517D01*
X607929D01*
X606758Y156284D01*
X605766Y155621D01*
X605766Y155621D01*
X605482Y155337D01*
X604309Y155823D01*
Y184432D01*
X604314Y184436D01*
X605253Y185842D01*
X605583Y187500D01*
X605253Y189158D01*
X604314Y190564D01*
X602908Y191503D01*
X601250Y191833D01*
X599592Y191503D01*
X598186Y190564D01*
X597247Y189158D01*
X596917Y187500D01*
X597247Y185842D01*
X598186Y184436D01*
X598191Y184432D01*
Y154764D01*
X588541Y145114D01*
X587555Y145923D01*
X587826Y146329D01*
X588059Y147500D01*
X588059Y147500D01*
Y184432D01*
X588064Y184436D01*
X589003Y185842D01*
X589333Y187500D01*
X589003Y189158D01*
X588064Y190564D01*
X586658Y191503D01*
X585000Y191833D01*
X583342Y191503D01*
X581936Y190564D01*
X580997Y189158D01*
X580667Y187500D01*
X580997Y185842D01*
X581936Y184436D01*
X581941Y184432D01*
Y148767D01*
X498733Y65559D01*
X490237D01*
X490009Y65882D01*
X489754Y66829D01*
X570763Y147837D01*
X570763Y147837D01*
X571426Y148829D01*
X571659Y150000D01*
X571659Y150000D01*
Y182200D01*
X571664Y182204D01*
X572603Y183610D01*
X572933Y185268D01*
X572603Y186926D01*
X571664Y188332D01*
X570258Y189271D01*
X568600Y189601D01*
X566942Y189271D01*
X565536Y188332D01*
X564597Y186926D01*
X564267Y185268D01*
X564597Y183610D01*
X565536Y182204D01*
X565541Y182200D01*
Y151267D01*
X556008Y141733D01*
X555021Y142543D01*
X555219Y142838D01*
X555396Y143730D01*
X551270D01*
Y139604D01*
X552162Y139781D01*
X552457Y139979D01*
X553266Y138992D01*
X541008Y126733D01*
X540021Y127543D01*
X540219Y127838D01*
X540396Y128730D01*
X536270D01*
Y124604D01*
X537162Y124781D01*
X537457Y124979D01*
X538266Y123992D01*
X486083Y71809D01*
X351809D01*
Y110682D01*
X351814Y110686D01*
X352753Y112092D01*
X353083Y113750D01*
X352753Y115408D01*
X351814Y116814D01*
X350408Y117753D01*
X348750Y118083D01*
X347092Y117753D01*
X345686Y116814D01*
X344747Y115408D01*
X344417Y113750D01*
X344747Y112092D01*
X345686Y110686D01*
X345691Y110682D01*
Y70390D01*
X345691Y70390D01*
X345924Y69220D01*
X346587Y68227D01*
X347986Y66829D01*
X347731Y65882D01*
X347503Y65559D01*
X301267D01*
X154332Y212494D01*
X154333Y212500D01*
X154003Y214158D01*
X153064Y215564D01*
X151658Y216503D01*
X150000Y216833D01*
X148342Y216503D01*
X146936Y215564D01*
X145997Y214158D01*
X145667Y212500D01*
X145997Y210842D01*
X146936Y209436D01*
X148342Y208496D01*
X150000Y208167D01*
X150006Y208168D01*
X296192Y61982D01*
X295706Y60809D01*
X291026D01*
X142459Y209376D01*
Y215624D01*
X150881Y224046D01*
X151544Y225038D01*
X151777Y226209D01*
Y237326D01*
X153064Y238186D01*
X154003Y239592D01*
X154333Y241250D01*
X154003Y242908D01*
X153064Y244314D01*
X151658Y245253D01*
X150000Y245583D01*
D02*
G37*
G36*
X771270Y159222D02*
Y149020D01*
X781472D01*
X781243Y150763D01*
X780080Y153570D01*
X778230Y155980D01*
X775820Y157830D01*
X773012Y158993D01*
X771270Y159222D01*
D02*
G37*
G36*
X768730Y159222D02*
X766987Y158993D01*
X764180Y157830D01*
X761770Y155980D01*
X759920Y153570D01*
X758757Y150763D01*
X758528Y149020D01*
X768730D01*
Y159222D01*
D02*
G37*
G36*
X551270Y150396D02*
Y146270D01*
X555396D01*
X555219Y147162D01*
X553994Y148994D01*
X552162Y150218D01*
X551270Y150396D01*
D02*
G37*
G36*
X548730D02*
X547838Y150218D01*
X546006Y148994D01*
X544781Y147162D01*
X544604Y146270D01*
X548730D01*
Y150396D01*
D02*
G37*
G36*
X82500Y162838D02*
X79824Y162486D01*
X77331Y161453D01*
X75190Y159810D01*
X73547Y157669D01*
X72514Y155176D01*
X72162Y152500D01*
X72514Y149824D01*
X73547Y147331D01*
X75190Y145190D01*
X77331Y143547D01*
X79824Y142514D01*
X82500Y142162D01*
X85176Y142514D01*
X87669Y143547D01*
X89810Y145190D01*
X91453Y147331D01*
X92486Y149824D01*
X92838Y152500D01*
X92486Y155176D01*
X91453Y157669D01*
X89810Y159810D01*
X87669Y161453D01*
X85176Y162486D01*
X82500Y162838D01*
D02*
G37*
G36*
X548730Y143730D02*
X544604D01*
X544781Y142838D01*
X546006Y141006D01*
X547838Y139781D01*
X548730Y139604D01*
Y143730D01*
D02*
G37*
G36*
X263770Y141646D02*
Y137520D01*
X267896D01*
X267719Y138412D01*
X266494Y140244D01*
X264662Y141468D01*
X263770Y141646D01*
D02*
G37*
G36*
X261230D02*
X260338Y141468D01*
X258506Y140244D01*
X257281Y138412D01*
X257104Y137520D01*
X261230D01*
Y141646D01*
D02*
G37*
G36*
X768730Y146480D02*
X758528D01*
X758757Y144737D01*
X759920Y141930D01*
X761770Y139520D01*
X764180Y137670D01*
X766987Y136507D01*
X768730Y136278D01*
Y146480D01*
D02*
G37*
G36*
X781472D02*
X771270D01*
Y136278D01*
X773012Y136507D01*
X775820Y137670D01*
X778230Y139520D01*
X780080Y141930D01*
X781243Y144737D01*
X781472Y146480D01*
D02*
G37*
G36*
X28750Y149308D02*
X26988Y149076D01*
X25346Y148396D01*
X23936Y147314D01*
X22854Y145904D01*
X22174Y144262D01*
X21942Y142500D01*
X22174Y140738D01*
X22854Y139096D01*
X23936Y137686D01*
X25346Y136604D01*
X26988Y135924D01*
X28750Y135692D01*
X30512Y135924D01*
X32154Y136604D01*
X33564Y137686D01*
X34646Y139096D01*
X35326Y140738D01*
X35558Y142500D01*
X35326Y144262D01*
X34646Y145904D01*
X33564Y147314D01*
X32154Y148396D01*
X30512Y149076D01*
X28750Y149308D01*
D02*
G37*
G36*
X471270Y139146D02*
Y135020D01*
X475396D01*
X475219Y135912D01*
X473994Y137744D01*
X472162Y138968D01*
X471270Y139146D01*
D02*
G37*
G36*
X468730D02*
X467838Y138968D01*
X466006Y137744D01*
X464781Y135912D01*
X464604Y135020D01*
X468730D01*
Y139146D01*
D02*
G37*
G36*
X536270Y135396D02*
Y131270D01*
X540396D01*
X540219Y132162D01*
X538994Y133994D01*
X537162Y135218D01*
X536270Y135396D01*
D02*
G37*
G36*
X533730D02*
X532838Y135218D01*
X531006Y133994D01*
X529781Y132162D01*
X529604Y131270D01*
X533730D01*
Y135396D01*
D02*
G37*
G36*
X267896Y134980D02*
X263770D01*
Y130854D01*
X264662Y131031D01*
X266494Y132256D01*
X267719Y134088D01*
X267896Y134980D01*
D02*
G37*
G36*
X261230D02*
X257104D01*
X257281Y134088D01*
X258506Y132256D01*
X260338Y131031D01*
X261230Y130854D01*
Y134980D01*
D02*
G37*
G36*
X475396Y132480D02*
X471270D01*
Y128354D01*
X472162Y128531D01*
X473994Y129756D01*
X475219Y131588D01*
X475396Y132480D01*
D02*
G37*
G36*
X468730D02*
X464604D01*
X464781Y131588D01*
X466006Y129756D01*
X467838Y128531D01*
X468730Y128354D01*
Y132480D01*
D02*
G37*
G36*
X533730Y128730D02*
X529604D01*
X529781Y127838D01*
X531006Y126006D01*
X532838Y124781D01*
X533730Y124604D01*
Y128730D01*
D02*
G37*
G36*
X92750Y137750D02*
X72250D01*
Y117250D01*
X92750D01*
Y137750D01*
D02*
G37*
G36*
X520020Y120396D02*
Y116270D01*
X524146D01*
X523969Y117162D01*
X522744Y118994D01*
X520912Y120218D01*
X520020Y120396D01*
D02*
G37*
G36*
X517480D02*
X516588Y120218D01*
X514756Y118994D01*
X513531Y117162D01*
X513354Y116270D01*
X517480D01*
Y120396D01*
D02*
G37*
G36*
X483770D02*
Y116270D01*
X487896D01*
X487719Y117162D01*
X486494Y118994D01*
X484662Y120218D01*
X483770Y120396D01*
D02*
G37*
G36*
X481230D02*
X480338Y120218D01*
X478506Y118994D01*
X477281Y117162D01*
X477104Y116270D01*
X481230D01*
Y120396D01*
D02*
G37*
G36*
X460020D02*
Y116270D01*
X464146D01*
X463969Y117162D01*
X462744Y118994D01*
X460912Y120218D01*
X460020Y120396D01*
D02*
G37*
G36*
X457480D02*
X456588Y120218D01*
X454756Y118994D01*
X453531Y117162D01*
X453354Y116270D01*
X457480D01*
Y120396D01*
D02*
G37*
G36*
X440020D02*
Y116270D01*
X444146D01*
X443969Y117162D01*
X442744Y118994D01*
X440912Y120218D01*
X440020Y120396D01*
D02*
G37*
G36*
X437480D02*
X436588Y120218D01*
X434756Y118994D01*
X433531Y117162D01*
X433354Y116270D01*
X437480D01*
Y120396D01*
D02*
G37*
G36*
X418770D02*
Y116270D01*
X422896D01*
X422719Y117162D01*
X421494Y118994D01*
X419662Y120218D01*
X418770Y120396D01*
D02*
G37*
G36*
X416230D02*
X415338Y120218D01*
X413506Y118994D01*
X412281Y117162D01*
X412104Y116270D01*
X416230D01*
Y120396D01*
D02*
G37*
G36*
X287520D02*
Y116270D01*
X291646D01*
X291469Y117162D01*
X290244Y118994D01*
X288412Y120218D01*
X287520Y120396D01*
D02*
G37*
G36*
X284980D02*
X284088Y120218D01*
X282256Y118994D01*
X281031Y117162D01*
X280854Y116270D01*
X284980D01*
Y120396D01*
D02*
G37*
G36*
X396270Y119146D02*
Y115020D01*
X400396D01*
X400219Y115912D01*
X398994Y117744D01*
X397162Y118968D01*
X396270Y119146D01*
D02*
G37*
G36*
X393730D02*
X392838Y118968D01*
X391006Y117744D01*
X389781Y115912D01*
X389604Y115020D01*
X393730D01*
Y119146D01*
D02*
G37*
G36*
X372520D02*
Y115020D01*
X376646D01*
X376469Y115912D01*
X375244Y117744D01*
X373412Y118968D01*
X372520Y119146D01*
D02*
G37*
G36*
X369980D02*
X369088Y118968D01*
X367256Y117744D01*
X366031Y115912D01*
X365854Y115020D01*
X369980D01*
Y119146D01*
D02*
G37*
G36*
X524146Y113730D02*
X520020D01*
Y109604D01*
X520912Y109781D01*
X522744Y111006D01*
X523969Y112838D01*
X524146Y113730D01*
D02*
G37*
G36*
X517480D02*
X513354D01*
X513531Y112838D01*
X514756Y111006D01*
X516588Y109781D01*
X517480Y109604D01*
Y113730D01*
D02*
G37*
G36*
X487896D02*
X483770D01*
Y109604D01*
X484662Y109781D01*
X486494Y111006D01*
X487719Y112838D01*
X487896Y113730D01*
D02*
G37*
G36*
X481230D02*
X477104D01*
X477281Y112838D01*
X478506Y111006D01*
X480338Y109781D01*
X481230Y109604D01*
Y113730D01*
D02*
G37*
G36*
X464146D02*
X460020D01*
Y109604D01*
X460912Y109781D01*
X462744Y111006D01*
X463969Y112838D01*
X464146Y113730D01*
D02*
G37*
G36*
X457480D02*
X453354D01*
X453531Y112838D01*
X454756Y111006D01*
X456588Y109781D01*
X457480Y109604D01*
Y113730D01*
D02*
G37*
G36*
X444146D02*
X440020D01*
Y109604D01*
X440912Y109781D01*
X442744Y111006D01*
X443969Y112838D01*
X444146Y113730D01*
D02*
G37*
G36*
X437480D02*
X433354D01*
X433531Y112838D01*
X434756Y111006D01*
X436588Y109781D01*
X437480Y109604D01*
Y113730D01*
D02*
G37*
G36*
X422896D02*
X418770D01*
Y109604D01*
X419662Y109781D01*
X421494Y111006D01*
X422719Y112838D01*
X422896Y113730D01*
D02*
G37*
G36*
X416230D02*
X412104D01*
X412281Y112838D01*
X413506Y111006D01*
X415338Y109781D01*
X416230Y109604D01*
Y113730D01*
D02*
G37*
G36*
X291646D02*
X287520D01*
Y109604D01*
X288412Y109781D01*
X290244Y111006D01*
X291469Y112838D01*
X291646Y113730D01*
D02*
G37*
G36*
X284980D02*
X280854D01*
X281031Y112838D01*
X282256Y111006D01*
X284088Y109781D01*
X284980Y109604D01*
Y113730D01*
D02*
G37*
G36*
X400396Y112480D02*
X396270D01*
Y108354D01*
X397162Y108531D01*
X398994Y109756D01*
X400219Y111588D01*
X400396Y112480D01*
D02*
G37*
G36*
X393730D02*
X389604D01*
X389781Y111588D01*
X391006Y109756D01*
X392838Y108531D01*
X393730Y108354D01*
Y112480D01*
D02*
G37*
G36*
X376646D02*
X372520D01*
Y108354D01*
X373412Y108531D01*
X375244Y109756D01*
X376469Y111588D01*
X376646Y112480D01*
D02*
G37*
G36*
X369980D02*
X365854D01*
X366031Y111588D01*
X367256Y109756D01*
X369088Y108531D01*
X369980Y108354D01*
Y112480D01*
D02*
G37*
G36*
X588551Y96577D02*
Y92451D01*
X592677D01*
X592500Y93343D01*
X591276Y95176D01*
X589443Y96400D01*
X588551Y96577D01*
D02*
G37*
G36*
X586012D02*
X585120Y96400D01*
X583287Y95176D01*
X582063Y93343D01*
X581886Y92451D01*
X586012D01*
Y96577D01*
D02*
G37*
G36*
X592677Y89911D02*
X588551D01*
Y85786D01*
X589443Y85963D01*
X591276Y87187D01*
X592500Y89020D01*
X592677Y89911D01*
D02*
G37*
G36*
X586012D02*
X581886D01*
X582063Y89020D01*
X583287Y87187D01*
X585120Y85963D01*
X586012Y85786D01*
Y89911D01*
D02*
G37*
G36*
X320020Y87896D02*
Y83770D01*
X324146D01*
X323969Y84662D01*
X322744Y86494D01*
X320912Y87718D01*
X320020Y87896D01*
D02*
G37*
G36*
X317480D02*
X316588Y87718D01*
X314756Y86494D01*
X313531Y84662D01*
X313354Y83770D01*
X317480D01*
Y87896D01*
D02*
G37*
G36*
X485020Y86646D02*
Y82520D01*
X489146D01*
X488969Y83412D01*
X487744Y85244D01*
X485912Y86468D01*
X485020Y86646D01*
D02*
G37*
G36*
X482480D02*
X481588Y86468D01*
X479756Y85244D01*
X478531Y83412D01*
X478354Y82520D01*
X482480D01*
Y86646D01*
D02*
G37*
G36*
X462520D02*
Y82520D01*
X466646D01*
X466469Y83412D01*
X465244Y85244D01*
X463412Y86468D01*
X462520Y86646D01*
D02*
G37*
G36*
X459980D02*
X459088Y86468D01*
X457256Y85244D01*
X456031Y83412D01*
X455854Y82520D01*
X459980D01*
Y86646D01*
D02*
G37*
G36*
X437520D02*
Y82520D01*
X441646D01*
X441469Y83412D01*
X440244Y85244D01*
X438412Y86468D01*
X437520Y86646D01*
D02*
G37*
G36*
X434980D02*
X434088Y86468D01*
X432256Y85244D01*
X431031Y83412D01*
X430854Y82520D01*
X434980D01*
Y86646D01*
D02*
G37*
G36*
X413770D02*
Y82520D01*
X417896D01*
X417719Y83412D01*
X416494Y85244D01*
X414662Y86468D01*
X413770Y86646D01*
D02*
G37*
G36*
X411230D02*
X410338Y86468D01*
X408506Y85244D01*
X407281Y83412D01*
X407104Y82520D01*
X411230D01*
Y86646D01*
D02*
G37*
G36*
X390020Y86646D02*
Y82520D01*
X394146D01*
X393969Y83412D01*
X392744Y85244D01*
X390912Y86468D01*
X390020Y86646D01*
D02*
G37*
G36*
X387480D02*
X386588Y86468D01*
X384756Y85244D01*
X383531Y83412D01*
X383354Y82520D01*
X387480D01*
Y86646D01*
D02*
G37*
G36*
X366270D02*
Y82520D01*
X370396D01*
X370219Y83412D01*
X368994Y85244D01*
X367162Y86468D01*
X366270Y86646D01*
D02*
G37*
G36*
X363730D02*
X362838Y86468D01*
X361006Y85244D01*
X359781Y83412D01*
X359604Y82520D01*
X363730D01*
Y86646D01*
D02*
G37*
G36*
X572520Y82896D02*
Y78770D01*
X576646D01*
X576469Y79662D01*
X575244Y81494D01*
X573412Y82718D01*
X572520Y82896D01*
D02*
G37*
G36*
X569980D02*
X569088Y82718D01*
X567256Y81494D01*
X566031Y79662D01*
X565854Y78770D01*
X569980D01*
Y82896D01*
D02*
G37*
G36*
X324146Y81230D02*
X320020D01*
Y77104D01*
X320912Y77281D01*
X322744Y78506D01*
X323969Y80338D01*
X324146Y81230D01*
D02*
G37*
G36*
X317480D02*
X313354D01*
X313531Y80338D01*
X314756Y78506D01*
X316588Y77281D01*
X317480Y77104D01*
Y81230D01*
D02*
G37*
G36*
X489146Y79980D02*
X485020D01*
Y75854D01*
X485912Y76031D01*
X487744Y77256D01*
X488969Y79088D01*
X489146Y79980D01*
D02*
G37*
G36*
X482480D02*
X478354D01*
X478531Y79088D01*
X479756Y77256D01*
X481588Y76031D01*
X482480Y75854D01*
Y79980D01*
D02*
G37*
G36*
X466646D02*
X462520D01*
Y75854D01*
X463412Y76031D01*
X465244Y77256D01*
X466469Y79088D01*
X466646Y79980D01*
D02*
G37*
G36*
X459980D02*
X455854D01*
X456031Y79088D01*
X457256Y77256D01*
X459088Y76031D01*
X459980Y75854D01*
Y79980D01*
D02*
G37*
G36*
X441646D02*
X437520D01*
Y75854D01*
X438412Y76031D01*
X440244Y77256D01*
X441469Y79088D01*
X441646Y79980D01*
D02*
G37*
G36*
X434980D02*
X430854D01*
X431031Y79088D01*
X432256Y77256D01*
X434088Y76031D01*
X434980Y75854D01*
Y79980D01*
D02*
G37*
G36*
X417896D02*
X413770D01*
Y75854D01*
X414662Y76031D01*
X416494Y77256D01*
X417719Y79088D01*
X417896Y79980D01*
D02*
G37*
G36*
X411230D02*
X407104D01*
X407281Y79088D01*
X408506Y77256D01*
X410338Y76031D01*
X411230Y75854D01*
Y79980D01*
D02*
G37*
G36*
X394146Y79980D02*
X390020D01*
Y75854D01*
X390912Y76031D01*
X392744Y77256D01*
X393969Y79088D01*
X394146Y79980D01*
D02*
G37*
G36*
X387480D02*
X383354D01*
X383531Y79088D01*
X384756Y77256D01*
X386588Y76031D01*
X387480Y75854D01*
Y79980D01*
D02*
G37*
G36*
X370396D02*
X366270D01*
Y75854D01*
X367162Y76031D01*
X368994Y77256D01*
X370219Y79088D01*
X370396Y79980D01*
D02*
G37*
G36*
X363730D02*
X359604D01*
X359781Y79088D01*
X361006Y77256D01*
X362838Y76031D01*
X363730Y75854D01*
Y79980D01*
D02*
G37*
G36*
X576646Y76230D02*
X572520D01*
Y72104D01*
X573412Y72281D01*
X575244Y73506D01*
X576469Y75338D01*
X576646Y76230D01*
D02*
G37*
G36*
X569980D02*
X565854D01*
X566031Y75338D01*
X567256Y73506D01*
X569088Y72281D01*
X569980Y72104D01*
Y76230D01*
D02*
G37*
G36*
X572520Y62896D02*
Y58770D01*
X576646D01*
X576469Y59662D01*
X575244Y61494D01*
X573412Y62719D01*
X572520Y62896D01*
D02*
G37*
G36*
X569980D02*
X569088Y62719D01*
X567256Y61494D01*
X566031Y59662D01*
X565854Y58770D01*
X569980D01*
Y62896D01*
D02*
G37*
G36*
X551270D02*
Y58770D01*
X555396D01*
X555219Y59662D01*
X553994Y61494D01*
X552162Y62719D01*
X551270Y62896D01*
D02*
G37*
G36*
X548730D02*
X547838Y62719D01*
X546006Y61494D01*
X544781Y59662D01*
X544604Y58770D01*
X548730D01*
Y62896D01*
D02*
G37*
G36*
X576646Y56230D02*
X572520D01*
Y52104D01*
X573412Y52281D01*
X575244Y53506D01*
X576469Y55338D01*
X576646Y56230D01*
D02*
G37*
G36*
X569980D02*
X565854D01*
X566031Y55338D01*
X567256Y53506D01*
X569088Y52281D01*
X569980Y52104D01*
Y56230D01*
D02*
G37*
G36*
X555396D02*
X551270D01*
Y52104D01*
X552162Y52281D01*
X553994Y53506D01*
X555219Y55338D01*
X555396Y56230D01*
D02*
G37*
G36*
X548730D02*
X544604D01*
X544781Y55338D01*
X546006Y53506D01*
X547838Y52281D01*
X548730Y52104D01*
Y56230D01*
D02*
G37*
G36*
X572520Y42896D02*
Y38770D01*
X576646D01*
X576469Y39662D01*
X575244Y41494D01*
X573412Y42719D01*
X572520Y42896D01*
D02*
G37*
G36*
X569980D02*
X569088Y42719D01*
X567256Y41494D01*
X566031Y39662D01*
X565854Y38770D01*
X569980D01*
Y42896D01*
D02*
G37*
G36*
X550020D02*
Y38770D01*
X554146D01*
X553969Y39662D01*
X552744Y41494D01*
X550912Y42719D01*
X550020Y42896D01*
D02*
G37*
G36*
X547480D02*
X546588Y42719D01*
X544756Y41494D01*
X543531Y39662D01*
X543354Y38770D01*
X547480D01*
Y42896D01*
D02*
G37*
G36*
X528770D02*
Y38770D01*
X532896D01*
X532719Y39662D01*
X531494Y41494D01*
X529662Y42719D01*
X528770Y42896D01*
D02*
G37*
G36*
X526230D02*
X525338Y42719D01*
X523506Y41494D01*
X522281Y39662D01*
X522104Y38770D01*
X526230D01*
Y42896D01*
D02*
G37*
G36*
X576646Y36230D02*
X572520D01*
Y32104D01*
X573412Y32281D01*
X575244Y33506D01*
X576469Y35338D01*
X576646Y36230D01*
D02*
G37*
G36*
X569980D02*
X565854D01*
X566031Y35338D01*
X567256Y33506D01*
X569088Y32281D01*
X569980Y32104D01*
Y36230D01*
D02*
G37*
G36*
X554146D02*
X550020D01*
Y32104D01*
X550912Y32281D01*
X552744Y33506D01*
X553969Y35338D01*
X554146Y36230D01*
D02*
G37*
G36*
X547480D02*
X543354D01*
X543531Y35338D01*
X544756Y33506D01*
X546588Y32281D01*
X547480Y32104D01*
Y36230D01*
D02*
G37*
G36*
X532896D02*
X528770D01*
Y32104D01*
X529662Y32281D01*
X531494Y33506D01*
X532719Y35338D01*
X532896Y36230D01*
D02*
G37*
G36*
X526230D02*
X522104D01*
X522281Y35338D01*
X523506Y33506D01*
X525338Y32281D01*
X526230Y32104D01*
Y36230D01*
D02*
G37*
%LPD*%
D10*
X28750Y223500D02*
X31900D01*
X28750Y106500D02*
X31900D01*
D44*
X28750Y142500D02*
D03*
Y187500D02*
D03*
D45*
Y106500D02*
D03*
Y223500D02*
D03*
D53*
X16250Y207850D02*
X31900Y223500D01*
X16250Y122150D02*
X31900Y106500D01*
X16250Y122150D02*
Y207850D01*
D54*
X722500Y220000D02*
X723000D01*
X736250Y173250D02*
Y206750D01*
X723000Y220000D02*
X736250Y206750D01*
X507471Y53000D02*
X607929Y153458D01*
X615959D01*
X150953Y53000D02*
X507471D01*
X121351Y82601D02*
X150953Y53000D01*
X505503Y57750D02*
X601250Y153497D01*
X289759Y57750D02*
X505503D01*
X139400Y208109D02*
X289759Y57750D01*
X688750Y159250D02*
X705750Y176250D01*
X432500Y252500D02*
X518750D01*
X407767Y277500D02*
X410167Y279900D01*
X400000Y277500D02*
X407767D01*
X426350Y279900D02*
X445100Y261150D01*
X583125Y230625D02*
Y231247D01*
Y230625D02*
X605496Y208254D01*
X410167Y279900D02*
X426350D01*
X445100Y261150D02*
X532600D01*
X533750Y260000D01*
X656250Y159250D02*
X688750D01*
X413750Y271250D02*
X432500Y252500D01*
X612500Y188750D02*
X645750D01*
X568600Y150000D02*
Y185268D01*
X487350Y68750D02*
X568600Y150000D01*
X348750Y70390D02*
Y113750D01*
Y70390D02*
X350390Y68750D01*
X487350D01*
X601250Y153497D02*
Y187500D01*
X605496Y197750D02*
Y208254D01*
Y197750D02*
X611500Y191746D01*
Y189750D02*
Y191746D01*
Y189750D02*
X612500Y188750D01*
X150000Y212500D02*
X300000Y62500D01*
X500000D02*
X585000Y147500D01*
X300000Y62500D02*
X500000D01*
X585000Y147500D02*
Y187500D01*
X642507Y172993D02*
X656250Y159250D01*
X642507Y172993D02*
Y175000D01*
X139400Y208109D02*
Y216891D01*
X148718Y226209D01*
Y239968D01*
X150000Y241250D01*
D56*
X82500Y127500D02*
D03*
X770000Y223750D02*
D03*
D57*
X82500Y152500D02*
D03*
Y177500D02*
D03*
Y203500D02*
D03*
X770000Y198750D02*
D03*
Y173750D02*
D03*
Y147750D02*
D03*
D58*
X736250Y173250D02*
D03*
X121351Y82601D02*
D03*
X518750Y252500D02*
D03*
X583125Y231247D02*
D03*
X615959Y153458D02*
D03*
X722500Y220500D02*
D03*
X400000Y277500D02*
D03*
X533750Y260000D02*
D03*
X551250Y307500D02*
D03*
X122500Y162500D02*
D03*
X152500Y161250D02*
D03*
X243750Y156250D02*
D03*
X262500Y136250D02*
D03*
X286250Y115000D02*
D03*
X318750Y82500D02*
D03*
X550000Y145000D02*
D03*
X535000Y130000D02*
D03*
X518750Y115000D02*
D03*
X717500Y236250D02*
D03*
X621250Y266250D02*
D03*
X601250Y233750D02*
D03*
X593750Y201250D02*
D03*
X558750Y221250D02*
D03*
X665000Y242500D02*
D03*
X673750Y172500D02*
D03*
X463750Y272500D02*
D03*
X480000Y240000D02*
D03*
X291250Y266250D02*
D03*
X313750Y246250D02*
D03*
X312500Y266250D02*
D03*
X335000D02*
D03*
Y246250D02*
D03*
Y226250D02*
D03*
X375000Y201250D02*
D03*
Y177500D02*
D03*
Y155000D02*
D03*
X505000Y186250D02*
D03*
X470000Y133750D02*
D03*
X482500Y115000D02*
D03*
X458750D02*
D03*
X438750D02*
D03*
X417500D02*
D03*
X395000Y113750D02*
D03*
X371250D02*
D03*
X483750Y81250D02*
D03*
X461250D02*
D03*
X436250D02*
D03*
X412500D02*
D03*
X388750Y81250D02*
D03*
X365000D02*
D03*
X731250Y241250D02*
D03*
Y261250D02*
D03*
Y281250D02*
D03*
X708750D02*
D03*
X710000Y261250D02*
D03*
X687500Y281250D02*
D03*
X500000Y278750D02*
D03*
Y298750D02*
D03*
X482500Y316250D02*
D03*
X460000D02*
D03*
X478750Y298750D02*
D03*
X438750Y316250D02*
D03*
X587281Y91181D02*
D03*
X571250Y77500D02*
D03*
Y57500D02*
D03*
Y37500D02*
D03*
X548750D02*
D03*
X550000Y57500D02*
D03*
X527500Y37500D02*
D03*
X261250Y240000D02*
D03*
Y260000D02*
D03*
Y280000D02*
D03*
X238750D02*
D03*
X240000Y260000D02*
D03*
X217500Y280000D02*
D03*
X218750Y312500D02*
D03*
X196250Y292500D02*
D03*
X197500Y312500D02*
D03*
X175000D02*
D03*
Y292500D02*
D03*
Y272500D02*
D03*
X133750Y187500D02*
D03*
X656250Y159250D02*
D03*
X413750Y271250D02*
D03*
X585000Y187500D02*
D03*
X601250D02*
D03*
X568600Y185268D02*
D03*
X642507Y175000D02*
D03*
X348750Y113750D02*
D03*
X645750Y188750D02*
D03*
X587500Y272500D02*
D03*
X137503Y230007D02*
D03*
X150000Y212500D02*
D03*
Y241250D02*
D03*
M02*
