G04*
G04 #@! TF.GenerationSoftware,Altium Limited,Altium Designer,19.1.5 (86)*
G04*
G04 Layer_Color=16711935*
%FSLAX44Y44*%
%MOMM*%
G71*
G01*
G75*
%ADD34R,2.0032X2.0032*%
%ADD35C,2.0032*%
%ADD36R,2.1400X2.1400*%
%ADD37C,2.1400*%
%ADD38R,1.7032X1.7032*%
%ADD39C,1.7032*%
%ADD40C,0.8032*%
D34*
X564000Y259740D02*
D03*
Y44000D02*
D03*
D35*
X234000Y259740D02*
D03*
X539000D02*
D03*
X208000D02*
D03*
X514000D02*
D03*
X183000D02*
D03*
X488000D02*
D03*
X158000D02*
D03*
X464000D02*
D03*
X132000D02*
D03*
X437000D02*
D03*
X285000D02*
D03*
X310000D02*
D03*
X335000D02*
D03*
X361000D02*
D03*
X386000D02*
D03*
X412000D02*
D03*
X107000D02*
D03*
X81000D02*
D03*
Y44000D02*
D03*
X107000D02*
D03*
X412000D02*
D03*
X386000D02*
D03*
X361000D02*
D03*
X335000D02*
D03*
X310000D02*
D03*
X285000D02*
D03*
X437000D02*
D03*
X132000D02*
D03*
X464000D02*
D03*
X158000D02*
D03*
X488000D02*
D03*
X183000D02*
D03*
X514000D02*
D03*
X208000D02*
D03*
X539000D02*
D03*
X234000D02*
D03*
X259000D02*
D03*
D36*
X684000Y135000D02*
D03*
D37*
Y110000D02*
D03*
D38*
X664600Y184600D02*
D03*
D39*
X690000D02*
D03*
Y210000D02*
D03*
Y235100D02*
D03*
X664600D02*
D03*
Y210000D02*
D03*
D40*
X482000Y92000D02*
D03*
X586000Y152000D02*
D03*
X504000Y112000D02*
D03*
X611875Y135875D02*
D03*
X340000Y110000D02*
D03*
X358000Y122000D02*
D03*
X394000Y78000D02*
D03*
X382000Y90000D02*
D03*
X362000D02*
D03*
X568000Y240000D02*
D03*
X546000D02*
D03*
X330000Y238000D02*
D03*
X284000D02*
D03*
X260000D02*
D03*
X258000Y266000D02*
D03*
X170000Y66000D02*
D03*
X146000Y74000D02*
D03*
X234000Y78000D02*
D03*
X250000Y108000D02*
D03*
X262000Y82000D02*
D03*
X216000Y94000D02*
D03*
X192000D02*
D03*
X222000Y144000D02*
D03*
X290000D02*
D03*
X272000D02*
D03*
X242000Y166000D02*
D03*
X272000D02*
D03*
X300000Y176000D02*
D03*
X266000Y192000D02*
D03*
X188000Y198000D02*
D03*
X220000D02*
D03*
X292000D02*
D03*
X380000Y174000D02*
D03*
X392000Y186000D02*
D03*
X434000Y144000D02*
D03*
X678000Y198000D02*
D03*
X624000Y36000D02*
D03*
Y66000D02*
D03*
X592000Y46000D02*
D03*
X686000Y72000D02*
D03*
X672000D02*
D03*
X658000D02*
D03*
X636000Y106000D02*
D03*
Y120000D02*
D03*
Y148000D02*
D03*
X578000Y96000D02*
D03*
X598000D02*
D03*
Y120000D02*
D03*
X602000Y208000D02*
D03*
Y228000D02*
D03*
X578000D02*
D03*
X500000Y178000D02*
D03*
X520000D02*
D03*
Y202000D02*
D03*
X524000Y130000D02*
D03*
X544000D02*
D03*
Y154000D02*
D03*
X468000Y134000D02*
D03*
Y114000D02*
D03*
X492000D02*
D03*
X478000Y202000D02*
D03*
X458000D02*
D03*
Y178000D02*
D03*
X196150Y170150D02*
D03*
X186150D02*
D03*
X176150D02*
D03*
Y158150D02*
D03*
Y146150D02*
D03*
X88000Y238000D02*
D03*
X68000D02*
D03*
Y214000D02*
D03*
X156000Y208000D02*
D03*
Y228000D02*
D03*
X132000D02*
D03*
X108000Y186000D02*
D03*
X128000D02*
D03*
Y210000D02*
D03*
X132500Y136750D02*
D03*
X152500D02*
D03*
Y160750D02*
D03*
X110000Y98000D02*
D03*
X86000D02*
D03*
Y118000D02*
D03*
X488000Y166000D02*
D03*
X210000Y174000D02*
D03*
X202000Y202000D02*
D03*
X240000Y70000D02*
D03*
X216000D02*
D03*
X590000Y76000D02*
D03*
X501077Y241077D02*
D03*
X214000Y238000D02*
D03*
X424000Y140000D02*
D03*
X226000Y238000D02*
D03*
X516000Y220000D02*
D03*
X398000Y94000D02*
D03*
X362000Y80000D02*
D03*
X308000Y108000D02*
D03*
X368000Y114000D02*
D03*
Y172000D02*
D03*
X428000Y220000D02*
D03*
X412000Y196000D02*
D03*
X240000Y144000D02*
D03*
X252000Y204000D02*
D03*
X214000Y110000D02*
D03*
X252000Y144000D02*
D03*
X264000Y204000D02*
D03*
M02*
