G04*
G04 #@! TF.GenerationSoftware,Altium Limited,Altium Designer,19.1.5 (86)*
G04*
G04 Layer_Color=2752767*
%FSLAX44Y44*%
%MOMM*%
G71*
G01*
G75*
%ADD103C,0.0508*%
%ADD104C,0.0677*%
D103*
X561968Y257708D02*
Y261772D01*
X566032D01*
Y257708D01*
X561968D01*
X231968D02*
Y261772D01*
X236032D01*
Y257708D01*
X231968D01*
X536968D02*
Y261772D01*
X541032D01*
Y257708D01*
X536968D01*
X205968D02*
Y261772D01*
X210032D01*
Y257708D01*
X205968D01*
X511968D02*
Y261772D01*
X516032D01*
Y257708D01*
X511968D01*
X180968D02*
Y261772D01*
X185032D01*
Y257708D01*
X180968D01*
X485968D02*
Y261772D01*
X490032D01*
Y257708D01*
X485968D01*
X155968D02*
Y261772D01*
X160032D01*
Y257708D01*
X155968D01*
X461968D02*
Y261772D01*
X466032D01*
Y257708D01*
X461968D01*
X129968D02*
Y261772D01*
X134032D01*
Y257708D01*
X129968D01*
X434968D02*
Y261772D01*
X439032D01*
Y257708D01*
X434968D01*
X282968D02*
Y261772D01*
X287032D01*
Y257708D01*
X282968D01*
X307968D02*
Y261772D01*
X312032D01*
Y257708D01*
X307968D01*
X332968D02*
Y261772D01*
X337032D01*
Y257708D01*
X332968D01*
X358968D02*
Y261772D01*
X363032D01*
Y257708D01*
X358968D01*
X383968D02*
Y261772D01*
X388032D01*
Y257708D01*
X383968D01*
X409968D02*
Y261772D01*
X414032D01*
Y257708D01*
X409968D01*
X104968D02*
Y261772D01*
X109032D01*
Y257708D01*
X104968D01*
X78968D02*
Y261772D01*
X83032D01*
Y257708D01*
X78968D01*
X681968Y132968D02*
Y137032D01*
X686032D01*
Y132968D01*
X681968D01*
Y107968D02*
Y112032D01*
X686032D01*
Y107968D01*
X681968D01*
X662568Y182568D02*
Y186632D01*
X666632D01*
Y182568D01*
X662568D01*
X687968D02*
Y186632D01*
X692032D01*
Y182568D01*
X687968D01*
Y207968D02*
Y212032D01*
X692032D01*
Y207968D01*
X687968D01*
Y233068D02*
Y237132D01*
X692032D01*
Y233068D01*
X687968D01*
X662568D02*
Y237132D01*
X666632D01*
Y233068D01*
X662568D01*
Y207968D02*
Y212032D01*
X666632D01*
Y207968D01*
X662568D01*
X78968Y41968D02*
Y46032D01*
X83032D01*
Y41968D01*
X78968D01*
X104968D02*
Y46032D01*
X109032D01*
Y41968D01*
X104968D01*
X409968D02*
Y46032D01*
X414032D01*
Y41968D01*
X409968D01*
X383968D02*
Y46032D01*
X388032D01*
Y41968D01*
X383968D01*
X358968D02*
Y46032D01*
X363032D01*
Y41968D01*
X358968D01*
X332968D02*
Y46032D01*
X337032D01*
Y41968D01*
X332968D01*
X307968D02*
Y46032D01*
X312032D01*
Y41968D01*
X307968D01*
X282968D02*
Y46032D01*
X287032D01*
Y41968D01*
X282968D01*
X434968D02*
Y46032D01*
X439032D01*
Y41968D01*
X434968D01*
X129968D02*
Y46032D01*
X134032D01*
Y41968D01*
X129968D01*
X461968D02*
Y46032D01*
X466032D01*
Y41968D01*
X461968D01*
X155968D02*
Y46032D01*
X160032D01*
Y41968D01*
X155968D01*
X485968D02*
Y46032D01*
X490032D01*
Y41968D01*
X485968D01*
X180968D02*
Y46032D01*
X185032D01*
Y41968D01*
X180968D01*
X511968D02*
Y46032D01*
X516032D01*
Y41968D01*
X511968D01*
X205968D02*
Y46032D01*
X210032D01*
Y41968D01*
X205968D01*
X536968D02*
Y46032D01*
X541032D01*
Y41968D01*
X536968D01*
X231968D02*
Y46032D01*
X236032D01*
Y41968D01*
X231968D01*
X561968D02*
Y46032D01*
X566032D01*
Y41968D01*
X561968D01*
X256968D02*
Y46032D01*
X261032D01*
Y41968D01*
X256968D01*
D104*
X484032Y92000D02*
G03*
X484032Y92000I-2032J0D01*
G01*
X588032Y152000D02*
G03*
X588032Y152000I-2032J0D01*
G01*
X506032Y112000D02*
G03*
X506032Y112000I-2032J0D01*
G01*
X613907Y135875D02*
G03*
X613907Y135875I-2032J0D01*
G01*
X342032Y110000D02*
G03*
X342032Y110000I-2032J0D01*
G01*
X360032Y122000D02*
G03*
X360032Y122000I-2032J0D01*
G01*
X396032Y78000D02*
G03*
X396032Y78000I-2032J0D01*
G01*
X384032Y90000D02*
G03*
X384032Y90000I-2032J0D01*
G01*
X364032D02*
G03*
X364032Y90000I-2032J0D01*
G01*
X570032Y240000D02*
G03*
X570032Y240000I-2032J0D01*
G01*
X548032D02*
G03*
X548032Y240000I-2032J0D01*
G01*
X332032Y238000D02*
G03*
X332032Y238000I-2032J0D01*
G01*
X286032D02*
G03*
X286032Y238000I-2032J0D01*
G01*
X262032D02*
G03*
X262032Y238000I-2032J0D01*
G01*
X260032Y266000D02*
G03*
X260032Y266000I-2032J0D01*
G01*
X172032Y66000D02*
G03*
X172032Y66000I-2032J0D01*
G01*
X148032Y74000D02*
G03*
X148032Y74000I-2032J0D01*
G01*
X236032Y78000D02*
G03*
X236032Y78000I-2032J0D01*
G01*
X252032Y108000D02*
G03*
X252032Y108000I-2032J0D01*
G01*
X264032Y82000D02*
G03*
X264032Y82000I-2032J0D01*
G01*
X218032Y94000D02*
G03*
X218032Y94000I-2032J0D01*
G01*
X194032D02*
G03*
X194032Y94000I-2032J0D01*
G01*
X224032Y144000D02*
G03*
X224032Y144000I-2032J0D01*
G01*
X292032D02*
G03*
X292032Y144000I-2032J0D01*
G01*
X274032D02*
G03*
X274032Y144000I-2032J0D01*
G01*
X244032Y166000D02*
G03*
X244032Y166000I-2032J0D01*
G01*
X274032D02*
G03*
X274032Y166000I-2032J0D01*
G01*
X302032Y176000D02*
G03*
X302032Y176000I-2032J0D01*
G01*
X268032Y192000D02*
G03*
X268032Y192000I-2032J0D01*
G01*
X190032Y198000D02*
G03*
X190032Y198000I-2032J0D01*
G01*
X222032D02*
G03*
X222032Y198000I-2032J0D01*
G01*
X294032D02*
G03*
X294032Y198000I-2032J0D01*
G01*
X382032Y174000D02*
G03*
X382032Y174000I-2032J0D01*
G01*
X394032Y186000D02*
G03*
X394032Y186000I-2032J0D01*
G01*
X436032Y144000D02*
G03*
X436032Y144000I-2032J0D01*
G01*
X680032Y198000D02*
G03*
X680032Y198000I-2032J0D01*
G01*
X626032Y36000D02*
G03*
X626032Y36000I-2032J0D01*
G01*
Y66000D02*
G03*
X626032Y66000I-2032J0D01*
G01*
X594032Y46000D02*
G03*
X594032Y46000I-2032J0D01*
G01*
X688032Y72000D02*
G03*
X688032Y72000I-2032J0D01*
G01*
X674032D02*
G03*
X674032Y72000I-2032J0D01*
G01*
X660032D02*
G03*
X660032Y72000I-2032J0D01*
G01*
X638032Y106000D02*
G03*
X638032Y106000I-2032J0D01*
G01*
Y120000D02*
G03*
X638032Y120000I-2032J0D01*
G01*
Y148000D02*
G03*
X638032Y148000I-2032J0D01*
G01*
X580032Y96000D02*
G03*
X580032Y96000I-2032J0D01*
G01*
X600032D02*
G03*
X600032Y96000I-2032J0D01*
G01*
Y120000D02*
G03*
X600032Y120000I-2032J0D01*
G01*
X604032Y208000D02*
G03*
X604032Y208000I-2032J0D01*
G01*
Y228000D02*
G03*
X604032Y228000I-2032J0D01*
G01*
X580032D02*
G03*
X580032Y228000I-2032J0D01*
G01*
X502032Y178000D02*
G03*
X502032Y178000I-2032J0D01*
G01*
X522032D02*
G03*
X522032Y178000I-2032J0D01*
G01*
Y202000D02*
G03*
X522032Y202000I-2032J0D01*
G01*
X526032Y130000D02*
G03*
X526032Y130000I-2032J0D01*
G01*
X546032D02*
G03*
X546032Y130000I-2032J0D01*
G01*
Y154000D02*
G03*
X546032Y154000I-2032J0D01*
G01*
X470032Y134000D02*
G03*
X470032Y134000I-2032J0D01*
G01*
Y114000D02*
G03*
X470032Y114000I-2032J0D01*
G01*
X494032D02*
G03*
X494032Y114000I-2032J0D01*
G01*
X480032Y202000D02*
G03*
X480032Y202000I-2032J0D01*
G01*
X460032D02*
G03*
X460032Y202000I-2032J0D01*
G01*
Y178000D02*
G03*
X460032Y178000I-2032J0D01*
G01*
X198182Y170150D02*
G03*
X198182Y170150I-2032J0D01*
G01*
X188182D02*
G03*
X188182Y170150I-2032J0D01*
G01*
X178182D02*
G03*
X178182Y170150I-2032J0D01*
G01*
Y158150D02*
G03*
X178182Y158150I-2032J0D01*
G01*
Y146150D02*
G03*
X178182Y146150I-2032J0D01*
G01*
X90032Y238000D02*
G03*
X90032Y238000I-2032J0D01*
G01*
X70032D02*
G03*
X70032Y238000I-2032J0D01*
G01*
Y214000D02*
G03*
X70032Y214000I-2032J0D01*
G01*
X158032Y208000D02*
G03*
X158032Y208000I-2032J0D01*
G01*
Y228000D02*
G03*
X158032Y228000I-2032J0D01*
G01*
X134032D02*
G03*
X134032Y228000I-2032J0D01*
G01*
X110032Y186000D02*
G03*
X110032Y186000I-2032J0D01*
G01*
X130032D02*
G03*
X130032Y186000I-2032J0D01*
G01*
Y210000D02*
G03*
X130032Y210000I-2032J0D01*
G01*
X134532Y136750D02*
G03*
X134532Y136750I-2032J0D01*
G01*
X154532D02*
G03*
X154532Y136750I-2032J0D01*
G01*
Y160750D02*
G03*
X154532Y160750I-2032J0D01*
G01*
X112032Y98000D02*
G03*
X112032Y98000I-2032J0D01*
G01*
X88032D02*
G03*
X88032Y98000I-2032J0D01*
G01*
Y118000D02*
G03*
X88032Y118000I-2032J0D01*
G01*
X490032Y166000D02*
G03*
X490032Y166000I-2032J0D01*
G01*
X212032Y174000D02*
G03*
X212032Y174000I-2032J0D01*
G01*
X204032Y202000D02*
G03*
X204032Y202000I-2032J0D01*
G01*
X242032Y70000D02*
G03*
X242032Y70000I-2032J0D01*
G01*
X218032D02*
G03*
X218032Y70000I-2032J0D01*
G01*
X592032Y76000D02*
G03*
X592032Y76000I-2032J0D01*
G01*
X503110Y241077D02*
G03*
X503110Y241077I-2032J0D01*
G01*
X216032Y238000D02*
G03*
X216032Y238000I-2032J0D01*
G01*
X426032Y140000D02*
G03*
X426032Y140000I-2032J0D01*
G01*
X228032Y238000D02*
G03*
X228032Y238000I-2032J0D01*
G01*
X518032Y220000D02*
G03*
X518032Y220000I-2032J0D01*
G01*
X400032Y94000D02*
G03*
X400032Y94000I-2032J0D01*
G01*
X364032Y80000D02*
G03*
X364032Y80000I-2032J0D01*
G01*
X310032Y108000D02*
G03*
X310032Y108000I-2032J0D01*
G01*
X370032Y114000D02*
G03*
X370032Y114000I-2032J0D01*
G01*
Y172000D02*
G03*
X370032Y172000I-2032J0D01*
G01*
X430032Y220000D02*
G03*
X430032Y220000I-2032J0D01*
G01*
X414032Y196000D02*
G03*
X414032Y196000I-2032J0D01*
G01*
X242032Y144000D02*
G03*
X242032Y144000I-2032J0D01*
G01*
X254032Y204000D02*
G03*
X254032Y204000I-2032J0D01*
G01*
X216032Y110000D02*
G03*
X216032Y110000I-2032J0D01*
G01*
X254032Y144000D02*
G03*
X254032Y144000I-2032J0D01*
G01*
X266032Y204000D02*
G03*
X266032Y204000I-2032J0D01*
G01*
M02*
