G04*
G04 #@! TF.GenerationSoftware,Altium Limited,Altium Designer,19.1.5 (86)*
G04*
G04 Layer_Color=128*
%FSLAX44Y44*%
%MOMM*%
G71*
G01*
G75*
%ADD103C,0.0508*%
D103*
X558000Y259740D02*
X570000D01*
X564000Y253740D02*
Y265740D01*
X228000Y259740D02*
X240000D01*
X234000Y253740D02*
Y265740D01*
X533000Y259740D02*
X545000D01*
X539000Y253740D02*
Y265740D01*
X202000Y259740D02*
X214000D01*
X208000Y253740D02*
Y265740D01*
X508000Y259740D02*
X520000D01*
X514000Y253740D02*
Y265740D01*
X177000Y259740D02*
X189000D01*
X183000Y253740D02*
Y265740D01*
X482000Y259740D02*
X494000D01*
X488000Y253740D02*
Y265740D01*
X152000Y259740D02*
X164000D01*
X158000Y253740D02*
Y265740D01*
X458000Y259740D02*
X470000D01*
X464000Y253740D02*
Y265740D01*
X126000Y259740D02*
X138000D01*
X132000Y253740D02*
Y265740D01*
X431000Y259740D02*
X443000D01*
X437000Y253740D02*
Y265740D01*
X279000Y259740D02*
X291000D01*
X285000Y253740D02*
Y265740D01*
X304000Y259740D02*
X316000D01*
X310000Y253740D02*
Y265740D01*
X329000Y259740D02*
X341000D01*
X335000Y253740D02*
Y265740D01*
X355000Y259740D02*
X367000D01*
X361000Y253740D02*
Y265740D01*
X380000Y259740D02*
X392000D01*
X386000Y253740D02*
Y265740D01*
X406000Y259740D02*
X418000D01*
X412000Y253740D02*
Y265740D01*
X101000Y259740D02*
X113000D01*
X107000Y253740D02*
Y265740D01*
X75000Y259740D02*
X87000D01*
X81000Y253740D02*
Y265740D01*
X678000Y135000D02*
X690000D01*
X684000Y129000D02*
Y141000D01*
X678000Y110000D02*
X690000D01*
X684000Y104000D02*
Y116000D01*
X658600Y184600D02*
X670600D01*
X664600Y178600D02*
Y190600D01*
X684000Y184600D02*
X696000D01*
X690000Y178600D02*
Y190600D01*
X684000Y210000D02*
X696000D01*
X690000Y204000D02*
Y216000D01*
X684000Y235100D02*
X696000D01*
X690000Y229100D02*
Y241100D01*
X658600Y235100D02*
X670600D01*
X664600Y229100D02*
Y241100D01*
X658600Y210000D02*
X670600D01*
X664600Y204000D02*
Y216000D01*
X75000Y44000D02*
X87000D01*
X81000Y38000D02*
Y50000D01*
X101000Y44000D02*
X113000D01*
X107000Y38000D02*
Y50000D01*
X406000Y44000D02*
X418000D01*
X412000Y38000D02*
Y50000D01*
X380000Y44000D02*
X392000D01*
X386000Y38000D02*
Y50000D01*
X355000Y44000D02*
X367000D01*
X361000Y38000D02*
Y50000D01*
X329000Y44000D02*
X341000D01*
X335000Y38000D02*
Y50000D01*
X304000Y44000D02*
X316000D01*
X310000Y38000D02*
Y50000D01*
X279000Y44000D02*
X291000D01*
X285000Y38000D02*
Y50000D01*
X431000Y44000D02*
X443000D01*
X437000Y38000D02*
Y50000D01*
X126000Y44000D02*
X138000D01*
X132000Y38000D02*
Y50000D01*
X458000Y44000D02*
X470000D01*
X464000Y38000D02*
Y50000D01*
X152000Y44000D02*
X164000D01*
X158000Y38000D02*
Y50000D01*
X482000Y44000D02*
X494000D01*
X488000Y38000D02*
Y50000D01*
X177000Y44000D02*
X189000D01*
X183000Y38000D02*
Y50000D01*
X508000Y44000D02*
X520000D01*
X514000Y38000D02*
Y50000D01*
X202000Y44000D02*
X214000D01*
X208000Y38000D02*
Y50000D01*
X533000Y44000D02*
X545000D01*
X539000Y38000D02*
Y50000D01*
X228000Y44000D02*
X240000D01*
X234000Y38000D02*
Y50000D01*
X558000Y44000D02*
X570000D01*
X564000Y38000D02*
Y50000D01*
X253000Y44000D02*
X265000D01*
X259000Y38000D02*
Y50000D01*
X480500Y92000D02*
X483500D01*
X482000Y90500D02*
Y93500D01*
X584500Y152000D02*
X587500D01*
X586000Y150500D02*
Y153500D01*
X502500Y112000D02*
X505500D01*
X504000Y110500D02*
Y113500D01*
X610375Y135875D02*
X613375D01*
X611875Y134375D02*
Y137375D01*
X338500Y110000D02*
X341500D01*
X340000Y108500D02*
Y111500D01*
X356500Y122000D02*
X359500D01*
X358000Y120500D02*
Y123500D01*
X392500Y78000D02*
X395500D01*
X394000Y76500D02*
Y79500D01*
X380500Y90000D02*
X383500D01*
X382000Y88500D02*
Y91500D01*
X360500Y90000D02*
X363500D01*
X362000Y88500D02*
Y91500D01*
X566500Y240000D02*
X569500D01*
X568000Y238500D02*
Y241500D01*
X544500Y240000D02*
X547500D01*
X546000Y238500D02*
Y241500D01*
X328500Y238000D02*
X331500D01*
X330000Y236500D02*
Y239500D01*
X282500Y238000D02*
X285500D01*
X284000Y236500D02*
Y239500D01*
X258500Y238000D02*
X261500D01*
X260000Y236500D02*
Y239500D01*
X256500Y266000D02*
X259500D01*
X258000Y264500D02*
Y267500D01*
X168500Y66000D02*
X171500D01*
X170000Y64500D02*
Y67500D01*
X144500Y74000D02*
X147500D01*
X146000Y72500D02*
Y75500D01*
X232500Y78000D02*
X235500D01*
X234000Y76500D02*
Y79500D01*
X248500Y108000D02*
X251500D01*
X250000Y106500D02*
Y109500D01*
X260500Y82000D02*
X263500D01*
X262000Y80500D02*
Y83500D01*
X214500Y94000D02*
X217500D01*
X216000Y92500D02*
Y95500D01*
X190500Y94000D02*
X193500D01*
X192000Y92500D02*
Y95500D01*
X220500Y144000D02*
X223500D01*
X222000Y142500D02*
Y145500D01*
X288500Y144000D02*
X291500D01*
X290000Y142500D02*
Y145500D01*
X270500Y144000D02*
X273500D01*
X272000Y142500D02*
Y145500D01*
X240500Y166000D02*
X243500D01*
X242000Y164500D02*
Y167500D01*
X270500Y166000D02*
X273500D01*
X272000Y164500D02*
Y167500D01*
X298500Y176000D02*
X301500D01*
X300000Y174500D02*
Y177500D01*
X264500Y192000D02*
X267500D01*
X266000Y190500D02*
Y193500D01*
X186500Y198000D02*
X189500D01*
X188000Y196500D02*
Y199500D01*
X218500Y198000D02*
X221500D01*
X220000Y196500D02*
Y199500D01*
X290500Y198000D02*
X293500D01*
X292000Y196500D02*
Y199500D01*
X378500Y174000D02*
X381500D01*
X380000Y172500D02*
Y175500D01*
X390500Y186000D02*
X393500D01*
X392000Y184500D02*
Y187500D01*
X432500Y144000D02*
X435500D01*
X434000Y142500D02*
Y145500D01*
X676500Y198000D02*
X679500D01*
X678000Y196500D02*
Y199500D01*
X622500Y36000D02*
X625500D01*
X624000Y34500D02*
Y37500D01*
X622500Y66000D02*
X625500D01*
X624000Y64500D02*
Y67500D01*
X590500Y46000D02*
X593500D01*
X592000Y44500D02*
Y47500D01*
X684500Y72000D02*
X687500D01*
X686000Y70500D02*
Y73500D01*
X670500Y72000D02*
X673500D01*
X672000Y70500D02*
Y73500D01*
X656500Y72000D02*
X659500D01*
X658000Y70500D02*
Y73500D01*
X634500Y106000D02*
X637500D01*
X636000Y104500D02*
Y107500D01*
X634500Y120000D02*
X637500D01*
X636000Y118500D02*
Y121500D01*
X634500Y148000D02*
X637500D01*
X636000Y146500D02*
Y149500D01*
X576500Y96000D02*
X579500D01*
X578000Y94500D02*
Y97500D01*
X596500Y96000D02*
X599500D01*
X598000Y94500D02*
Y97500D01*
X596500Y120000D02*
X599500D01*
X598000Y118500D02*
Y121500D01*
X600500Y208000D02*
X603500D01*
X602000Y206500D02*
Y209500D01*
X600500Y228000D02*
X603500D01*
X602000Y226500D02*
Y229500D01*
X576500Y228000D02*
X579500D01*
X578000Y226500D02*
Y229500D01*
X498500Y178000D02*
X501500D01*
X500000Y176500D02*
Y179500D01*
X518500Y178000D02*
X521500D01*
X520000Y176500D02*
Y179500D01*
X518500Y202000D02*
X521500D01*
X520000Y200500D02*
Y203500D01*
X522500Y130000D02*
X525500D01*
X524000Y128500D02*
Y131500D01*
X542500Y130000D02*
X545500D01*
X544000Y128500D02*
Y131500D01*
X542500Y154000D02*
X545500D01*
X544000Y152500D02*
Y155500D01*
X466500Y134000D02*
X469500D01*
X468000Y132500D02*
Y135500D01*
X466500Y114000D02*
X469500D01*
X468000Y112500D02*
Y115500D01*
X490500Y114000D02*
X493500D01*
X492000Y112500D02*
Y115500D01*
X476500Y202000D02*
X479500D01*
X478000Y200500D02*
Y203500D01*
X456500Y202000D02*
X459500D01*
X458000Y200500D02*
Y203500D01*
X456500Y178000D02*
X459500D01*
X458000Y176500D02*
Y179500D01*
X194650Y170150D02*
X197650D01*
X196150Y168650D02*
Y171650D01*
X184650Y170150D02*
X187650D01*
X186150Y168650D02*
Y171650D01*
X174650Y170150D02*
X177650D01*
X176150Y168650D02*
Y171650D01*
X174650Y158150D02*
X177650D01*
X176150Y156650D02*
Y159650D01*
X174650Y146150D02*
X177650D01*
X176150Y144650D02*
Y147650D01*
X86500Y238000D02*
X89500D01*
X88000Y236500D02*
Y239500D01*
X66500Y238000D02*
X69500D01*
X68000Y236500D02*
Y239500D01*
X66500Y214000D02*
X69500D01*
X68000Y212500D02*
Y215500D01*
X154500Y208000D02*
X157500D01*
X156000Y206500D02*
Y209500D01*
X154500Y228000D02*
X157500D01*
X156000Y226500D02*
Y229500D01*
X130500Y228000D02*
X133500D01*
X132000Y226500D02*
Y229500D01*
X106500Y186000D02*
X109500D01*
X108000Y184500D02*
Y187500D01*
X126500Y186000D02*
X129500D01*
X128000Y184500D02*
Y187500D01*
X126500Y210000D02*
X129500D01*
X128000Y208500D02*
Y211500D01*
X131000Y136750D02*
X134000D01*
X132500Y135250D02*
Y138250D01*
X151000Y136750D02*
X154000D01*
X152500Y135250D02*
Y138250D01*
X151000Y160750D02*
X154000D01*
X152500Y159250D02*
Y162250D01*
X108500Y98000D02*
X111500D01*
X110000Y96500D02*
Y99500D01*
X84500Y98000D02*
X87500D01*
X86000Y96500D02*
Y99500D01*
X84500Y118000D02*
X87500D01*
X86000Y116500D02*
Y119500D01*
X486500Y166000D02*
X489500D01*
X488000Y164500D02*
Y167500D01*
X208500Y174000D02*
X211500D01*
X210000Y172500D02*
Y175500D01*
X200500Y202000D02*
X203500D01*
X202000Y200500D02*
Y203500D01*
X238500Y70000D02*
X241500D01*
X240000Y68500D02*
Y71500D01*
X214500Y70000D02*
X217500D01*
X216000Y68500D02*
Y71500D01*
X588500Y76000D02*
X591500D01*
X590000Y74500D02*
Y77500D01*
X499577Y241077D02*
X502578D01*
X501077Y239578D02*
Y242577D01*
X212500Y238000D02*
X215500D01*
X214000Y236500D02*
Y239500D01*
X422500Y140000D02*
X425500D01*
X424000Y138500D02*
Y141500D01*
X224500Y238000D02*
X227500D01*
X226000Y236500D02*
Y239500D01*
X514500Y220000D02*
X517500D01*
X516000Y218500D02*
Y221500D01*
X396500Y94000D02*
X399500D01*
X398000Y92500D02*
Y95500D01*
X360500Y80000D02*
X363500D01*
X362000Y78500D02*
Y81500D01*
X306500Y108000D02*
X309500D01*
X308000Y106500D02*
Y109500D01*
X366500Y114000D02*
X369500D01*
X368000Y112500D02*
Y115500D01*
X366500Y172000D02*
X369500D01*
X368000Y170500D02*
Y173500D01*
X426500Y220000D02*
X429500D01*
X428000Y218500D02*
Y221500D01*
X410500Y196000D02*
X413500D01*
X412000Y194500D02*
Y197500D01*
X238500Y144000D02*
X241500D01*
X240000Y142500D02*
Y145500D01*
X250500Y204000D02*
X253500D01*
X252000Y202500D02*
Y205500D01*
X212500Y110000D02*
X215500D01*
X214000Y108500D02*
Y111500D01*
X250500Y144000D02*
X253500D01*
X252000Y142500D02*
Y145500D01*
X262500Y204000D02*
X265500D01*
X264000Y202500D02*
Y205500D01*
M02*
