G04*
G04 #@! TF.GenerationSoftware,Altium Limited,Altium Designer,19.1.5 (86)*
G04*
G04 Layer_Physical_Order=1*
G04 Layer_Color=255*
%FSLAX44Y44*%
%MOMM*%
G71*
G01*
G75*
%ADD17R,2.2352X1.2192*%
%ADD18R,2.2000X3.6000*%
%ADD20R,2.1800X1.6000*%
%ADD22R,1.0000X1.2000*%
%ADD24O,1.0000X0.8000*%
%ADD25R,0.6000X2.0000*%
%ADD41R,0.8500X0.7000*%
%ADD42R,0.8000X0.8500*%
%ADD43R,0.8500X0.8000*%
%ADD44C,0.3500*%
%ADD45R,1.8000X1.8000*%
%ADD46C,1.8000*%
%ADD47R,2.0000X2.0000*%
%ADD48C,2.0000*%
%ADD49R,1.5000X1.5000*%
%ADD50C,1.5000*%
%ADD51C,0.6000*%
G36*
X770000Y280000D02*
Y20000D01*
X760000Y10000D01*
X20000Y10000D01*
Y10000D01*
X10000Y20000D01*
Y280000D01*
X20000Y290000D01*
X760000D01*
X770000Y280000D01*
D02*
G37*
%LPC*%
G36*
X259270Y271396D02*
Y267270D01*
X263396D01*
X263219Y268162D01*
X261994Y269994D01*
X260162Y271219D01*
X259270Y271396D01*
D02*
G37*
G36*
X256730D02*
X255838Y271219D01*
X254006Y269994D01*
X252782Y268162D01*
X252604Y267270D01*
X256730D01*
Y271396D01*
D02*
G37*
G36*
X286270Y271212D02*
Y261010D01*
X296472D01*
X296243Y262752D01*
X295080Y265560D01*
X293230Y267970D01*
X290820Y269820D01*
X288013Y270983D01*
X286270Y271212D01*
D02*
G37*
G36*
X283730Y271212D02*
X281987Y270983D01*
X279180Y269820D01*
X276770Y267970D01*
X274920Y265560D01*
X273757Y262752D01*
X273528Y261010D01*
X283730D01*
Y271212D01*
D02*
G37*
G36*
X263396Y264730D02*
X259270D01*
Y260604D01*
X260162Y260781D01*
X261994Y262006D01*
X263219Y263838D01*
X263396Y264730D01*
D02*
G37*
G36*
X256730D02*
X252604D01*
X252782Y263838D01*
X254006Y262006D01*
X255838Y260781D01*
X256730Y260604D01*
Y264730D01*
D02*
G37*
G36*
X574250Y269990D02*
X553750D01*
Y249490D01*
X574250D01*
Y269990D01*
D02*
G37*
G36*
X539000Y270078D02*
X536324Y269726D01*
X533831Y268693D01*
X531690Y267050D01*
X530047Y264909D01*
X529014Y262416D01*
X528662Y259740D01*
X529014Y257064D01*
X530047Y254571D01*
X531690Y252430D01*
X533831Y250787D01*
X536324Y249754D01*
X539000Y249402D01*
X541676Y249754D01*
X544169Y250787D01*
X546310Y252430D01*
X547953Y254571D01*
X548986Y257064D01*
X549338Y259740D01*
X548986Y262416D01*
X547953Y264909D01*
X546310Y267050D01*
X544169Y268693D01*
X541676Y269726D01*
X539000Y270078D01*
D02*
G37*
G36*
X514000D02*
X511324Y269726D01*
X508831Y268693D01*
X506690Y267050D01*
X505047Y264909D01*
X504014Y262416D01*
X503662Y259740D01*
X504014Y257064D01*
X505047Y254571D01*
X506690Y252430D01*
X508831Y250787D01*
X511324Y249754D01*
X514000Y249402D01*
X516676Y249754D01*
X519169Y250787D01*
X521310Y252430D01*
X522953Y254571D01*
X523986Y257064D01*
X524338Y259740D01*
X523986Y262416D01*
X522953Y264909D01*
X521310Y267050D01*
X519169Y268693D01*
X516676Y269726D01*
X514000Y270078D01*
D02*
G37*
G36*
X488000D02*
X485324Y269726D01*
X482831Y268693D01*
X480690Y267050D01*
X479047Y264909D01*
X478014Y262416D01*
X477662Y259740D01*
X478014Y257064D01*
X479047Y254571D01*
X480690Y252430D01*
X482831Y250787D01*
X485324Y249754D01*
X488000Y249402D01*
X490676Y249754D01*
X493169Y250787D01*
X495310Y252430D01*
X496953Y254571D01*
X497986Y257064D01*
X498338Y259740D01*
X497986Y262416D01*
X496953Y264909D01*
X495310Y267050D01*
X493169Y268693D01*
X490676Y269726D01*
X488000Y270078D01*
D02*
G37*
G36*
X464000D02*
X461324Y269726D01*
X458831Y268693D01*
X456690Y267050D01*
X455047Y264909D01*
X454014Y262416D01*
X453662Y259740D01*
X454014Y257064D01*
X455047Y254571D01*
X456690Y252430D01*
X458831Y250787D01*
X461324Y249754D01*
X464000Y249402D01*
X466676Y249754D01*
X469169Y250787D01*
X471310Y252430D01*
X472953Y254571D01*
X473986Y257064D01*
X474338Y259740D01*
X473986Y262416D01*
X472953Y264909D01*
X471310Y267050D01*
X469169Y268693D01*
X466676Y269726D01*
X464000Y270078D01*
D02*
G37*
G36*
X437000D02*
X434324Y269726D01*
X431831Y268693D01*
X429690Y267050D01*
X428047Y264909D01*
X427014Y262416D01*
X426662Y259740D01*
X427014Y257064D01*
X428047Y254571D01*
X429690Y252430D01*
X431831Y250787D01*
X434324Y249754D01*
X437000Y249402D01*
X439676Y249754D01*
X442169Y250787D01*
X444310Y252430D01*
X445953Y254571D01*
X446986Y257064D01*
X447338Y259740D01*
X446986Y262416D01*
X445953Y264909D01*
X444310Y267050D01*
X442169Y268693D01*
X439676Y269726D01*
X437000Y270078D01*
D02*
G37*
G36*
X412000D02*
X409324Y269726D01*
X406831Y268693D01*
X404690Y267050D01*
X403047Y264909D01*
X402014Y262416D01*
X401662Y259740D01*
X402014Y257064D01*
X403047Y254571D01*
X404690Y252430D01*
X406831Y250787D01*
X409324Y249754D01*
X412000Y249402D01*
X414676Y249754D01*
X417169Y250787D01*
X419310Y252430D01*
X420953Y254571D01*
X421986Y257064D01*
X422338Y259740D01*
X421986Y262416D01*
X420953Y264909D01*
X419310Y267050D01*
X417169Y268693D01*
X414676Y269726D01*
X412000Y270078D01*
D02*
G37*
G36*
X386000D02*
X383324Y269726D01*
X380831Y268693D01*
X378690Y267050D01*
X377047Y264909D01*
X376014Y262416D01*
X375662Y259740D01*
X376014Y257064D01*
X377047Y254571D01*
X378690Y252430D01*
X380831Y250787D01*
X383324Y249754D01*
X386000Y249402D01*
X388676Y249754D01*
X391169Y250787D01*
X393310Y252430D01*
X394953Y254571D01*
X395986Y257064D01*
X396339Y259740D01*
X395986Y262416D01*
X394953Y264909D01*
X393310Y267050D01*
X391169Y268693D01*
X388676Y269726D01*
X386000Y270078D01*
D02*
G37*
G36*
X361000D02*
X358324Y269726D01*
X355831Y268693D01*
X353690Y267050D01*
X352047Y264909D01*
X351014Y262416D01*
X350662Y259740D01*
X351014Y257064D01*
X352047Y254571D01*
X353690Y252430D01*
X355831Y250787D01*
X358324Y249754D01*
X361000Y249402D01*
X363676Y249754D01*
X366169Y250787D01*
X368310Y252430D01*
X369953Y254571D01*
X370986Y257064D01*
X371338Y259740D01*
X370986Y262416D01*
X369953Y264909D01*
X368310Y267050D01*
X366169Y268693D01*
X363676Y269726D01*
X361000Y270078D01*
D02*
G37*
G36*
X335000D02*
X332324Y269726D01*
X329831Y268693D01*
X327690Y267050D01*
X326047Y264909D01*
X325014Y262416D01*
X324662Y259740D01*
X325014Y257064D01*
X326047Y254571D01*
X327690Y252430D01*
X329831Y250787D01*
X332324Y249754D01*
X335000Y249402D01*
X337676Y249754D01*
X340169Y250787D01*
X342310Y252430D01*
X343953Y254571D01*
X344986Y257064D01*
X345339Y259740D01*
X344986Y262416D01*
X343953Y264909D01*
X342310Y267050D01*
X340169Y268693D01*
X337676Y269726D01*
X335000Y270078D01*
D02*
G37*
G36*
X291740Y281217D02*
X133070D01*
X131839Y280972D01*
X130796Y280275D01*
X116880Y266359D01*
X116676Y266054D01*
X115121Y265993D01*
X114310Y267050D01*
X112169Y268693D01*
X109676Y269726D01*
X107000Y270078D01*
X104324Y269726D01*
X101831Y268693D01*
X99690Y267050D01*
X98047Y264909D01*
X97014Y262416D01*
X96662Y259740D01*
X97014Y257064D01*
X98047Y254571D01*
X99690Y252430D01*
X101831Y250787D01*
X104324Y249754D01*
X107000Y249402D01*
X109676Y249754D01*
X112169Y250787D01*
X113339Y251684D01*
X114178Y250727D01*
X85725Y222275D01*
X85028Y221231D01*
X84783Y220000D01*
Y215500D01*
X82750D01*
Y204500D01*
X84783D01*
Y198460D01*
X74562D01*
Y183768D01*
X99414D01*
Y198460D01*
X91217D01*
Y204500D01*
X93250D01*
Y215500D01*
X91217D01*
Y218668D01*
X121430Y248880D01*
X122127Y249924D01*
X122372Y251155D01*
Y253364D01*
X123642Y253795D01*
X124690Y252430D01*
X126831Y250787D01*
X129324Y249754D01*
X132000Y249402D01*
X134676Y249754D01*
X137169Y250787D01*
X139310Y252430D01*
X140953Y254571D01*
X141986Y257064D01*
X142338Y259740D01*
X141986Y262416D01*
X140953Y264909D01*
X139310Y267050D01*
X137169Y268693D01*
X134676Y269726D01*
X132000Y270078D01*
X131307Y269987D01*
X130746Y271126D01*
X134403Y274783D01*
X290408D01*
X300823Y264368D01*
X300014Y262416D01*
X299662Y259740D01*
X300014Y257064D01*
X301047Y254571D01*
X302690Y252430D01*
X304831Y250787D01*
X307324Y249754D01*
X310000Y249402D01*
X312676Y249754D01*
X315169Y250787D01*
X317310Y252430D01*
X318953Y254571D01*
X319986Y257064D01*
X320338Y259740D01*
X319986Y262416D01*
X318953Y264909D01*
X317310Y267050D01*
X315169Y268693D01*
X312676Y269726D01*
X310000Y270078D01*
X307324Y269726D01*
X305372Y268917D01*
X294015Y280275D01*
X292971Y280972D01*
X291740Y281217D01*
D02*
G37*
G36*
X234000Y270078D02*
X231324Y269726D01*
X228831Y268693D01*
X226690Y267050D01*
X225047Y264909D01*
X224014Y262416D01*
X223662Y259740D01*
X224014Y257064D01*
X225047Y254571D01*
X226690Y252430D01*
X228831Y250787D01*
X231324Y249754D01*
X234000Y249402D01*
X236676Y249754D01*
X239169Y250787D01*
X241310Y252430D01*
X242953Y254571D01*
X243986Y257064D01*
X244338Y259740D01*
X243986Y262416D01*
X242953Y264909D01*
X241310Y267050D01*
X239169Y268693D01*
X236676Y269726D01*
X234000Y270078D01*
D02*
G37*
G36*
X208000D02*
X205324Y269726D01*
X202831Y268693D01*
X200690Y267050D01*
X199047Y264909D01*
X198014Y262416D01*
X197662Y259740D01*
X198014Y257064D01*
X199047Y254571D01*
X200690Y252430D01*
X202831Y250787D01*
X205324Y249754D01*
X208000Y249402D01*
X210676Y249754D01*
X213169Y250787D01*
X215310Y252430D01*
X216953Y254571D01*
X217986Y257064D01*
X218339Y259740D01*
X217986Y262416D01*
X216953Y264909D01*
X215310Y267050D01*
X213169Y268693D01*
X210676Y269726D01*
X208000Y270078D01*
D02*
G37*
G36*
X183000D02*
X180324Y269726D01*
X177831Y268693D01*
X175690Y267050D01*
X174047Y264909D01*
X173014Y262416D01*
X172662Y259740D01*
X173014Y257064D01*
X174047Y254571D01*
X175690Y252430D01*
X177831Y250787D01*
X180324Y249754D01*
X183000Y249402D01*
X185676Y249754D01*
X188169Y250787D01*
X190310Y252430D01*
X191953Y254571D01*
X192986Y257064D01*
X193338Y259740D01*
X192986Y262416D01*
X191953Y264909D01*
X190310Y267050D01*
X188169Y268693D01*
X185676Y269726D01*
X183000Y270078D01*
D02*
G37*
G36*
X158000D02*
X155324Y269726D01*
X152831Y268693D01*
X150690Y267050D01*
X149047Y264909D01*
X148014Y262416D01*
X147662Y259740D01*
X148014Y257064D01*
X149047Y254571D01*
X150690Y252430D01*
X152831Y250787D01*
X155324Y249754D01*
X158000Y249402D01*
X160676Y249754D01*
X163169Y250787D01*
X165310Y252430D01*
X166953Y254571D01*
X167986Y257064D01*
X168338Y259740D01*
X167986Y262416D01*
X166953Y264909D01*
X165310Y267050D01*
X163169Y268693D01*
X160676Y269726D01*
X158000Y270078D01*
D02*
G37*
G36*
X81000D02*
X78324Y269726D01*
X75831Y268693D01*
X73690Y267050D01*
X72047Y264909D01*
X71014Y262416D01*
X70662Y259740D01*
X71014Y257064D01*
X72047Y254571D01*
X73690Y252430D01*
X75831Y250787D01*
X78324Y249754D01*
X81000Y249402D01*
X83676Y249754D01*
X86169Y250787D01*
X88310Y252430D01*
X89953Y254571D01*
X90986Y257064D01*
X91339Y259740D01*
X90986Y262416D01*
X89953Y264909D01*
X88310Y267050D01*
X86169Y268693D01*
X83676Y269726D01*
X81000Y270078D01*
D02*
G37*
G36*
X296472Y258470D02*
X286270D01*
Y248268D01*
X288013Y248497D01*
X290820Y249660D01*
X293230Y251510D01*
X295080Y253920D01*
X296243Y256728D01*
X296472Y258470D01*
D02*
G37*
G36*
X283730D02*
X273528D01*
X273757Y256728D01*
X274920Y253920D01*
X276770Y251510D01*
X279180Y249660D01*
X281987Y248497D01*
X283730Y248268D01*
Y258470D01*
D02*
G37*
G36*
X569270Y245396D02*
Y241270D01*
X573396D01*
X573219Y242162D01*
X571994Y243994D01*
X570162Y245219D01*
X569270Y245396D01*
D02*
G37*
G36*
X566730D02*
X565838Y245219D01*
X564006Y243994D01*
X562781Y242162D01*
X562604Y241270D01*
X566730D01*
Y245396D01*
D02*
G37*
G36*
X547270D02*
Y241270D01*
X551396D01*
X551219Y242162D01*
X549994Y243994D01*
X548162Y245219D01*
X547270Y245396D01*
D02*
G37*
G36*
X544730D02*
X543838Y245219D01*
X542006Y243994D01*
X540781Y242162D01*
X540604Y241270D01*
X544730D01*
Y245396D01*
D02*
G37*
G36*
X89270Y243396D02*
Y239270D01*
X93396D01*
X93219Y240162D01*
X91994Y241994D01*
X90162Y243219D01*
X89270Y243396D01*
D02*
G37*
G36*
X86730D02*
X85838Y243219D01*
X84006Y241994D01*
X82781Y240162D01*
X82604Y239270D01*
X86730D01*
Y243396D01*
D02*
G37*
G36*
X69270D02*
Y239270D01*
X73396D01*
X73219Y240162D01*
X71994Y241994D01*
X70162Y243219D01*
X69270Y243396D01*
D02*
G37*
G36*
X66730D02*
X65838Y243219D01*
X64006Y241994D01*
X62782Y240162D01*
X62604Y239270D01*
X66730D01*
Y243396D01*
D02*
G37*
G36*
X331270Y243396D02*
Y239270D01*
X335396D01*
X335219Y240162D01*
X333994Y241994D01*
X332162Y243218D01*
X331270Y243396D01*
D02*
G37*
G36*
X328730D02*
X327838Y243218D01*
X326006Y241994D01*
X324781Y240162D01*
X324604Y239270D01*
X328730D01*
Y243396D01*
D02*
G37*
G36*
X285270D02*
Y239270D01*
X289396D01*
X289219Y240162D01*
X287994Y241994D01*
X286162Y243218D01*
X285270Y243396D01*
D02*
G37*
G36*
X282730D02*
X281838Y243218D01*
X280006Y241994D01*
X278782Y240162D01*
X278604Y239270D01*
X282730D01*
Y243396D01*
D02*
G37*
G36*
X261270D02*
Y239270D01*
X265396D01*
X265219Y240162D01*
X263994Y241994D01*
X262162Y243218D01*
X261270Y243396D01*
D02*
G37*
G36*
X258730D02*
X257838Y243218D01*
X256006Y241994D01*
X254781Y240162D01*
X254604Y239270D01*
X258730D01*
Y243396D01*
D02*
G37*
G36*
X665870Y245059D02*
Y236370D01*
X674559D01*
X674382Y237721D01*
X673370Y240163D01*
X671761Y242261D01*
X669663Y243870D01*
X667221Y244882D01*
X665870Y245059D01*
D02*
G37*
G36*
X663330D02*
X661979Y244882D01*
X659537Y243870D01*
X657439Y242261D01*
X655830Y240163D01*
X654818Y237721D01*
X654641Y236370D01*
X663330D01*
Y245059D01*
D02*
G37*
G36*
X544730Y238730D02*
X540604D01*
X540781Y237838D01*
X541413Y236893D01*
X540498Y235977D01*
X539049Y236945D01*
X537000Y237353D01*
X535000D01*
X532952Y236945D01*
X531215Y235785D01*
X530055Y234048D01*
X529647Y232000D01*
X530055Y229952D01*
X531215Y228215D01*
X532783Y227167D01*
Y183332D01*
X526817Y177367D01*
X525647Y177992D01*
X525648Y178000D01*
X525219Y180162D01*
X523994Y181994D01*
X522162Y183218D01*
X521270Y183396D01*
Y178000D01*
X520000D01*
Y176730D01*
X514604D01*
X514781Y175838D01*
X516006Y174006D01*
X517838Y172781D01*
X520000Y172351D01*
X520008Y172353D01*
X520633Y171182D01*
X510668Y161217D01*
X490777D01*
X490392Y162487D01*
X491064Y162936D01*
X492003Y164342D01*
X492333Y166000D01*
X492003Y167658D01*
X491064Y169064D01*
X489658Y170003D01*
X488000Y170333D01*
X486342Y170003D01*
X484936Y169064D01*
X484934Y169062D01*
X384693D01*
X384212Y170332D01*
X385219Y171838D01*
X385396Y172730D01*
X374604D01*
X374781Y171838D01*
X375788Y170332D01*
X375307Y169062D01*
X372495D01*
X371897Y170182D01*
X372003Y170342D01*
X372333Y172000D01*
X372003Y173658D01*
X371064Y175064D01*
X369658Y176003D01*
X368270Y176280D01*
X358275Y186275D01*
X357231Y186972D01*
X356000Y187217D01*
X281031D01*
X280155Y188487D01*
X280267Y189050D01*
Y209750D01*
X281300D01*
X281300Y231483D01*
X281300Y231692D01*
X281332Y231758D01*
X281594Y231982D01*
X282570Y232636D01*
X282730Y232604D01*
Y236730D01*
X278604D01*
X278782Y235838D01*
X280006Y234006D01*
X280203Y233874D01*
X280469Y232650D01*
X280348Y232250D01*
X280161Y232250D01*
X272800D01*
Y209750D01*
X273833D01*
Y190382D01*
X271652Y188201D01*
X270666Y189011D01*
X271219Y189838D01*
X271396Y190730D01*
X260604D01*
X260781Y189838D01*
X261684Y188487D01*
X261075Y187217D01*
X242998D01*
X242075Y188487D01*
X242167Y188950D01*
Y209750D01*
X243200D01*
Y232250D01*
X234700D01*
Y209750D01*
X235733D01*
Y190282D01*
X232668Y187217D01*
X179163D01*
X178475Y188487D01*
X178667Y189450D01*
Y209750D01*
X179700D01*
Y232250D01*
X171200D01*
Y209750D01*
X172233D01*
Y190782D01*
X168668Y187217D01*
X151500D01*
Y189250D01*
X140500D01*
Y178750D01*
X142783D01*
Y175332D01*
X138668Y171217D01*
X129500D01*
Y173250D01*
X118500D01*
Y171217D01*
X99414D01*
Y175346D01*
X74562D01*
Y160654D01*
X99414D01*
Y164783D01*
X118500D01*
Y162750D01*
X129500D01*
Y164783D01*
X140000D01*
X141231Y165028D01*
X142275Y165725D01*
X148275Y171725D01*
X148972Y172769D01*
X149217Y174000D01*
Y178750D01*
X151500D01*
Y180783D01*
X295075D01*
X295685Y179513D01*
X294781Y178162D01*
X294604Y177270D01*
X305396D01*
X305219Y178162D01*
X304315Y179513D01*
X304925Y180783D01*
X354668D01*
X363720Y171730D01*
X363997Y170342D01*
X364103Y170182D01*
X363505Y169062D01*
X295981D01*
X288768Y176275D01*
X287725Y176972D01*
X286494Y177217D01*
X212836D01*
X211658Y178003D01*
X210000Y178333D01*
X208342Y178003D01*
X206936Y177064D01*
X205997Y175658D01*
X205667Y174000D01*
X205997Y172342D01*
X206936Y170936D01*
X208342Y169997D01*
X210000Y169667D01*
X211658Y169997D01*
X212836Y170783D01*
X237075D01*
X237684Y169513D01*
X236782Y168162D01*
X236604Y167270D01*
X247396D01*
X247219Y168162D01*
X246315Y169513D01*
X246925Y170783D01*
X267075D01*
X267684Y169513D01*
X266782Y168162D01*
X266604Y167270D01*
X277396D01*
X277219Y168162D01*
X276315Y169513D01*
X276925Y170783D01*
X285161D01*
X292374Y163570D01*
X293417Y162873D01*
X294649Y162628D01*
X484324D01*
X484429Y162487D01*
X483789Y161217D01*
X276925D01*
X276315Y162487D01*
X277219Y163838D01*
X277396Y164730D01*
X266604D01*
X266782Y163838D01*
X267685Y162487D01*
X267075Y161217D01*
X246925D01*
X246315Y162487D01*
X247219Y163838D01*
X247396Y164730D01*
X236604D01*
X236782Y163838D01*
X237685Y162487D01*
X237075Y161217D01*
X204000D01*
X202769Y160972D01*
X201725Y160275D01*
X185875Y144425D01*
X185178Y143381D01*
X184933Y142150D01*
Y138250D01*
X183900D01*
Y115750D01*
X192400D01*
Y138250D01*
X191367D01*
Y140818D01*
X205333Y154783D01*
X210667D01*
X211053Y153513D01*
X210785Y153335D01*
X198575Y141125D01*
X197878Y140081D01*
X197633Y138850D01*
Y138250D01*
X196600D01*
Y115750D01*
X205100D01*
Y138250D01*
X205100Y138250D01*
X205100D01*
X205767Y139218D01*
X214393Y147843D01*
X216558D01*
X217157Y146723D01*
X216782Y146162D01*
X216604Y145270D01*
X227396D01*
X227219Y146162D01*
X226843Y146723D01*
X227442Y147843D01*
X235990D01*
X236608Y146573D01*
X235997Y145658D01*
X235667Y144000D01*
X235997Y142342D01*
X236364Y141792D01*
Y138250D01*
X234700D01*
Y115750D01*
X243200D01*
Y138250D01*
X242798D01*
Y140758D01*
X243064Y140936D01*
X244003Y142342D01*
X244333Y144000D01*
X244003Y145658D01*
X243392Y146573D01*
X244010Y147843D01*
X247990D01*
X248608Y146573D01*
X247997Y145658D01*
X247667Y144000D01*
X247997Y142342D01*
X248608Y141426D01*
Y138250D01*
X247400D01*
Y115750D01*
X255900D01*
Y138250D01*
X255042D01*
Y140921D01*
X255064Y140936D01*
X256003Y142342D01*
X256333Y144000D01*
X256003Y145658D01*
X255392Y146573D01*
X256010Y147843D01*
X266558D01*
X267157Y146723D01*
X266782Y146162D01*
X266604Y145270D01*
X277396D01*
X277219Y146162D01*
X276843Y146723D01*
X277442Y147843D01*
X284558D01*
X285157Y146723D01*
X284781Y146162D01*
X284604Y145270D01*
X295396D01*
X295219Y146162D01*
X294843Y146723D01*
X295442Y147843D01*
X317635D01*
X318121Y146670D01*
X312875Y141425D01*
X312178Y140381D01*
X311933Y139150D01*
Y138250D01*
X310900D01*
Y115750D01*
X319400D01*
Y138250D01*
X319400Y138250D01*
X319400D01*
X319881Y139332D01*
X323332Y142783D01*
X399598D01*
X469711Y72670D01*
X469577Y72000D01*
X469985Y69952D01*
X471145Y68215D01*
X471228Y68159D01*
X470843Y66889D01*
X461087D01*
X460702Y68159D01*
X460785Y68215D01*
X461945Y69952D01*
X462353Y72000D01*
X461945Y74048D01*
X460785Y75785D01*
X459048Y76945D01*
X457000Y77353D01*
X455000D01*
X452952Y76945D01*
X451215Y75785D01*
X450055Y74048D01*
X449647Y72000D01*
X450055Y69952D01*
X451215Y68215D01*
X451298Y68159D01*
X450913Y66889D01*
X442923D01*
X442296Y68159D01*
X442713Y68702D01*
X443372Y70293D01*
X443429Y70730D01*
X436000D01*
X428571D01*
X428628Y70293D01*
X429287Y68702D01*
X429704Y68159D01*
X429077Y66889D01*
X422923D01*
X422296Y68159D01*
X422713Y68702D01*
X423372Y70293D01*
X423429Y70730D01*
X416000D01*
X408571D01*
X408628Y70293D01*
X409287Y68702D01*
X409703Y68159D01*
X409077Y66889D01*
X247660D01*
X244280Y70270D01*
X244003Y71658D01*
X243064Y73064D01*
X241658Y74003D01*
X240000Y74333D01*
X239701Y74274D01*
X238937Y75417D01*
X239219Y75838D01*
X239396Y76730D01*
X234000D01*
Y78000D01*
X232730D01*
Y83396D01*
X231838Y83219D01*
X230737Y82483D01*
X229467Y83161D01*
Y115750D01*
X230500D01*
Y138250D01*
X225652D01*
X225267Y139520D01*
X225994Y140006D01*
X227219Y141838D01*
X227396Y142730D01*
X216604D01*
X216782Y141838D01*
X218006Y140006D01*
X219838Y138781D01*
X220865Y138577D01*
X222000Y138250D01*
X222000Y137155D01*
Y115750D01*
X223033D01*
Y71750D01*
X223278Y70519D01*
X223975Y69475D01*
X237725Y55725D01*
X238769Y55028D01*
X240000Y54783D01*
X254930D01*
X255182Y53513D01*
X253831Y52953D01*
X251690Y51310D01*
X250047Y49169D01*
X249014Y46676D01*
X248662Y44000D01*
X249014Y41324D01*
X250047Y38831D01*
X251690Y36690D01*
X253831Y35047D01*
X256324Y34014D01*
X259000Y33662D01*
X261676Y34014D01*
X264169Y35047D01*
X266310Y36690D01*
X267953Y38831D01*
X268986Y41324D01*
X269338Y44000D01*
X268986Y46676D01*
X267953Y49169D01*
X266310Y51310D01*
X264169Y52953D01*
X262818Y53513D01*
X263070Y54783D01*
X280930D01*
X281182Y53513D01*
X279831Y52953D01*
X277690Y51310D01*
X276047Y49169D01*
X275014Y46676D01*
X274662Y44000D01*
X275014Y41324D01*
X276047Y38831D01*
X277690Y36690D01*
X279831Y35047D01*
X282324Y34014D01*
X285000Y33662D01*
X287676Y34014D01*
X290169Y35047D01*
X292310Y36690D01*
X293953Y38831D01*
X294986Y41324D01*
X295338Y44000D01*
X294986Y46676D01*
X293953Y49169D01*
X292310Y51310D01*
X290169Y52953D01*
X288818Y53513D01*
X289070Y54783D01*
X305930D01*
X306182Y53513D01*
X304831Y52953D01*
X302690Y51310D01*
X301047Y49169D01*
X300014Y46676D01*
X299662Y44000D01*
X300014Y41324D01*
X301047Y38831D01*
X302690Y36690D01*
X304831Y35047D01*
X307324Y34014D01*
X310000Y33662D01*
X312676Y34014D01*
X315169Y35047D01*
X317310Y36690D01*
X318953Y38831D01*
X319986Y41324D01*
X320338Y44000D01*
X319986Y46676D01*
X318953Y49169D01*
X317310Y51310D01*
X315169Y52953D01*
X313818Y53513D01*
X314070Y54783D01*
X328010D01*
X328441Y53513D01*
X326770Y52230D01*
X324920Y49820D01*
X323757Y47013D01*
X323528Y45270D01*
X335000D01*
X346472D01*
X346243Y47013D01*
X345080Y49820D01*
X343230Y52230D01*
X341559Y53513D01*
X341990Y54783D01*
X356930D01*
X357182Y53513D01*
X355831Y52953D01*
X353690Y51310D01*
X352047Y49169D01*
X351014Y46676D01*
X350662Y44000D01*
X351014Y41324D01*
X352047Y38831D01*
X353690Y36690D01*
X355831Y35047D01*
X358324Y34014D01*
X361000Y33662D01*
X363676Y34014D01*
X366169Y35047D01*
X368310Y36690D01*
X369953Y38831D01*
X370986Y41324D01*
X371338Y44000D01*
X370986Y46676D01*
X369953Y49169D01*
X368310Y51310D01*
X366169Y52953D01*
X364818Y53513D01*
X365070Y54783D01*
X381930D01*
X382182Y53513D01*
X380831Y52953D01*
X378690Y51310D01*
X377047Y49169D01*
X376014Y46676D01*
X375662Y44000D01*
X376014Y41324D01*
X377047Y38831D01*
X378690Y36690D01*
X380831Y35047D01*
X383324Y34014D01*
X386000Y33662D01*
X388676Y34014D01*
X391169Y35047D01*
X393310Y36690D01*
X394953Y38831D01*
X395986Y41324D01*
X396339Y44000D01*
X395986Y46676D01*
X394953Y49169D01*
X393310Y51310D01*
X391169Y52953D01*
X389818Y53513D01*
X390070Y54783D01*
X407930D01*
X408182Y53513D01*
X406831Y52953D01*
X404690Y51310D01*
X403047Y49169D01*
X402014Y46676D01*
X401662Y44000D01*
X402014Y41324D01*
X403047Y38831D01*
X404690Y36690D01*
X406831Y35047D01*
X409324Y34014D01*
X412000Y33662D01*
X414676Y34014D01*
X417169Y35047D01*
X419310Y36690D01*
X420953Y38831D01*
X421986Y41324D01*
X422338Y44000D01*
X421986Y46676D01*
X420953Y49169D01*
X419310Y51310D01*
X417169Y52953D01*
X415818Y53513D01*
X416070Y54783D01*
X421668D01*
X427823Y48628D01*
X427014Y46676D01*
X426662Y44000D01*
X427014Y41324D01*
X428047Y38831D01*
X429690Y36690D01*
X431831Y35047D01*
X434324Y34014D01*
X437000Y33662D01*
X439676Y34014D01*
X441628Y34822D01*
X450725Y25725D01*
X451769Y25028D01*
X453000Y24783D01*
X664000D01*
X665231Y25028D01*
X666275Y25725D01*
X716275Y75725D01*
X716972Y76769D01*
X717217Y78000D01*
Y186000D01*
X716972Y187231D01*
X716275Y188275D01*
X698029Y206520D01*
X698525Y207716D01*
X698826Y210000D01*
X698525Y212284D01*
X697643Y214413D01*
X696241Y216241D01*
X694413Y217643D01*
X692284Y218525D01*
X690000Y218825D01*
X687716Y218525D01*
X685587Y217643D01*
X683759Y216241D01*
X682357Y214413D01*
X681475Y212284D01*
X681174Y210000D01*
X681475Y207716D01*
X682357Y205587D01*
X683759Y203759D01*
X685587Y202357D01*
X687716Y201475D01*
X690000Y201175D01*
X692284Y201475D01*
X693480Y201971D01*
X710783Y184668D01*
Y79332D01*
X662668Y31217D01*
X628925D01*
X628316Y32487D01*
X629219Y33838D01*
X629396Y34730D01*
X618604D01*
X618782Y33838D01*
X619684Y32487D01*
X619075Y31217D01*
X454332D01*
X446177Y39372D01*
X446986Y41324D01*
X447338Y44000D01*
X446986Y46676D01*
X445953Y49169D01*
X444310Y51310D01*
X442169Y52953D01*
X439676Y53986D01*
X437000Y54338D01*
X434324Y53986D01*
X432372Y53177D01*
X426363Y59186D01*
X426890Y60456D01*
X599995D01*
X604500Y55951D01*
Y51000D01*
X610951D01*
X620225Y41725D01*
X620268Y41697D01*
X620268Y40169D01*
X620006Y39994D01*
X618782Y38162D01*
X618604Y37270D01*
X629396D01*
X629219Y38162D01*
X628316Y39513D01*
X628925Y40783D01*
X633850D01*
Y34750D01*
X658150D01*
Y53250D01*
X649217D01*
Y60000D01*
X648972Y61231D01*
X648275Y62275D01*
X629217Y81332D01*
Y105195D01*
X630487Y105320D01*
X630782Y103838D01*
X632006Y102006D01*
X633838Y100781D01*
X634730Y100604D01*
Y106000D01*
Y111396D01*
X633838Y111219D01*
X632006Y109994D01*
X630782Y108162D01*
X630487Y106680D01*
X629217Y106805D01*
Y119194D01*
X630487Y119320D01*
X630782Y117838D01*
X632006Y116006D01*
X633838Y114781D01*
X634730Y114604D01*
Y120000D01*
Y125396D01*
X633838Y125218D01*
X632006Y123994D01*
X630782Y122162D01*
X630487Y120680D01*
X629217Y120805D01*
Y147194D01*
X630487Y147320D01*
X630782Y145838D01*
X632006Y144006D01*
X633838Y142781D01*
X634730Y142604D01*
Y148000D01*
Y153396D01*
X633838Y153218D01*
X632006Y151994D01*
X630782Y150162D01*
X630487Y148680D01*
X629217Y148805D01*
Y152668D01*
X641332Y164783D01*
X648000D01*
X649231Y165028D01*
X650275Y165725D01*
X660399Y175850D01*
X673350D01*
Y192232D01*
X673350Y192917D01*
X674479Y193689D01*
X674622Y193594D01*
X675838Y192781D01*
X676730Y192604D01*
Y196730D01*
X672604D01*
X672782Y195838D01*
X673594Y194622D01*
X673689Y194479D01*
X672917Y193350D01*
X672260Y193350D01*
X655850D01*
Y180399D01*
X646668Y171217D01*
X640000D01*
X638769Y170972D01*
X637725Y170275D01*
X623725Y156275D01*
X623028Y155231D01*
X622783Y154000D01*
Y80000D01*
X623028Y78769D01*
X623725Y77725D01*
X642783Y58668D01*
Y53250D01*
X633850D01*
Y47217D01*
X623832D01*
X615500Y55549D01*
Y60500D01*
X609049D01*
X603602Y65947D01*
X602559Y66645D01*
X601328Y66889D01*
X561087D01*
X560702Y68159D01*
X560785Y68215D01*
X561945Y69952D01*
X562353Y72000D01*
X561945Y74048D01*
X560785Y75785D01*
X559048Y76945D01*
X557000Y77353D01*
X555000D01*
X554330Y77220D01*
X478215Y153335D01*
X477947Y153513D01*
X478333Y154783D01*
X512000D01*
X513231Y155028D01*
X514275Y155725D01*
X538275Y179725D01*
X538972Y180769D01*
X539217Y182000D01*
Y227167D01*
X540785Y228215D01*
X541945Y229952D01*
X542353Y232000D01*
X541945Y234048D01*
X541377Y234898D01*
X542293Y235814D01*
X543838Y234781D01*
X544730Y234604D01*
Y238730D01*
D02*
G37*
G36*
X573396D02*
X569270D01*
Y234604D01*
X570162Y234781D01*
X571994Y236006D01*
X573219Y237838D01*
X573396Y238730D01*
D02*
G37*
G36*
X566730D02*
X562604D01*
X562781Y237838D01*
X564006Y236006D01*
X565838Y234781D01*
X566730Y234604D01*
Y238730D01*
D02*
G37*
G36*
X417270Y238561D02*
Y233270D01*
X423429D01*
X423372Y233707D01*
X422713Y235298D01*
X421664Y236664D01*
X420298Y237713D01*
X418707Y238372D01*
X417270Y238561D01*
D02*
G37*
G36*
X557270Y238561D02*
Y233270D01*
X563429D01*
X563372Y233707D01*
X562713Y235298D01*
X561664Y236664D01*
X560298Y237713D01*
X558707Y238372D01*
X557270Y238561D01*
D02*
G37*
G36*
X551752Y238730D02*
X547270D01*
Y234604D01*
X547657Y234681D01*
X548567Y233769D01*
X548621Y233686D01*
X548624Y233677D01*
X548571Y233270D01*
X554730D01*
Y238561D01*
X553293Y238372D01*
X552559Y238068D01*
X551752Y238730D01*
D02*
G37*
G36*
X414730Y238561D02*
X413293Y238372D01*
X411702Y237713D01*
X410336Y236664D01*
X409287Y235298D01*
X408628Y233707D01*
X408571Y233270D01*
X414730D01*
Y238561D01*
D02*
G37*
G36*
X93396Y236730D02*
X89270D01*
Y232604D01*
X90162Y232781D01*
X91994Y234006D01*
X93219Y235838D01*
X93396Y236730D01*
D02*
G37*
G36*
X86730D02*
X82604D01*
X82781Y235838D01*
X84006Y234006D01*
X85838Y232781D01*
X86730Y232604D01*
Y236730D01*
D02*
G37*
G36*
X73396D02*
X69270D01*
Y232604D01*
X70162Y232781D01*
X71994Y234006D01*
X73219Y235838D01*
X73396Y236730D01*
D02*
G37*
G36*
X66730D02*
X62604D01*
X62782Y235838D01*
X64006Y234006D01*
X65838Y232781D01*
X66730Y232604D01*
Y236730D01*
D02*
G37*
G36*
X603270Y233396D02*
Y229270D01*
X607396D01*
X607219Y230162D01*
X605994Y231994D01*
X604162Y233219D01*
X603270Y233396D01*
D02*
G37*
G36*
X600730D02*
X599838Y233219D01*
X598006Y231994D01*
X596782Y230162D01*
X596604Y229270D01*
X600730D01*
Y233396D01*
D02*
G37*
G36*
X579270D02*
Y229270D01*
X583396D01*
X583219Y230162D01*
X581994Y231994D01*
X580162Y233219D01*
X579270Y233396D01*
D02*
G37*
G36*
X576730D02*
X575838Y233219D01*
X574006Y231994D01*
X572781Y230162D01*
X572604Y229270D01*
X576730D01*
Y233396D01*
D02*
G37*
G36*
X157270D02*
Y229270D01*
X161396D01*
X161219Y230162D01*
X159994Y231994D01*
X158162Y233219D01*
X157270Y233396D01*
D02*
G37*
G36*
X154730D02*
X153838Y233219D01*
X152006Y231994D01*
X150781Y230162D01*
X150604Y229270D01*
X154730D01*
Y233396D01*
D02*
G37*
G36*
X133270D02*
Y229270D01*
X137396D01*
X137219Y230162D01*
X135994Y231994D01*
X134162Y233219D01*
X133270Y233396D01*
D02*
G37*
G36*
X130730D02*
X129838Y233219D01*
X128006Y231994D01*
X126782Y230162D01*
X126604Y229270D01*
X130730D01*
Y233396D01*
D02*
G37*
G36*
X501077Y245411D02*
X499419Y245081D01*
X498013Y244142D01*
X497074Y242736D01*
X496744Y241077D01*
X497074Y239419D01*
X497793Y238343D01*
X496804Y237353D01*
X495000D01*
X492952Y236945D01*
X491215Y235785D01*
X490055Y234048D01*
X489647Y232000D01*
X490055Y229952D01*
X491215Y228215D01*
X492952Y227055D01*
X495000Y226647D01*
X497000D01*
X499048Y227055D01*
X500785Y228215D01*
X501945Y229952D01*
X502353Y232000D01*
X502054Y233504D01*
X503352Y234803D01*
X504049Y235847D01*
X504294Y237078D01*
Y238242D01*
X505081Y239419D01*
X505411Y241077D01*
X505081Y242736D01*
X504142Y244142D01*
X502736Y245081D01*
X501077Y245411D01*
D02*
G37*
G36*
X477000Y237353D02*
X475000D01*
X472952Y236945D01*
X471215Y235785D01*
X470055Y234048D01*
X469647Y232000D01*
X469781Y231330D01*
X444453Y206002D01*
X435210D01*
X434724Y207175D01*
X454330Y226780D01*
X455000Y226647D01*
X457000D01*
X459048Y227055D01*
X460785Y228215D01*
X461945Y229952D01*
X462353Y232000D01*
X461945Y234048D01*
X460785Y235785D01*
X459048Y236945D01*
X457000Y237353D01*
X455000D01*
X452952Y236945D01*
X451215Y235785D01*
X450055Y234048D01*
X449647Y232000D01*
X449781Y231330D01*
X429513Y211062D01*
X344800D01*
Y232250D01*
X336300D01*
Y211062D01*
X332100D01*
Y231573D01*
X332137Y232300D01*
X332820Y233222D01*
X333994Y234006D01*
X335219Y235838D01*
X335396Y236730D01*
X324604D01*
X324781Y235838D01*
X326006Y234006D01*
X326733Y233520D01*
X326348Y232250D01*
X323600D01*
Y209750D01*
X324713D01*
X324878Y208919D01*
X325575Y207875D01*
X326276Y207175D01*
X325790Y206002D01*
X322547D01*
X319888Y208662D01*
X319400Y209750D01*
X319400D01*
X319400Y209750D01*
Y232250D01*
X310900D01*
Y209750D01*
X311933D01*
Y208850D01*
X312178Y207619D01*
X312875Y206575D01*
X318940Y200510D01*
X318976Y200487D01*
X318590Y199217D01*
X317332D01*
X306700Y209849D01*
Y232250D01*
X298200D01*
Y209750D01*
X299233D01*
Y209550D01*
X299478Y208319D01*
X300175Y207275D01*
X313725Y193725D01*
X314769Y193028D01*
X316000Y192783D01*
X391194D01*
X391320Y191513D01*
X389838Y191218D01*
X388006Y189994D01*
X386781Y188162D01*
X386604Y187270D01*
X397396D01*
X397219Y188162D01*
X395994Y189994D01*
X394162Y191218D01*
X392680Y191513D01*
X392805Y192783D01*
X409165D01*
X410342Y191997D01*
X412000Y191667D01*
X413658Y191997D01*
X415064Y192936D01*
X416003Y194342D01*
X416333Y196000D01*
X416003Y197658D01*
X415576Y198298D01*
X416255Y199568D01*
X445785D01*
X447016Y199813D01*
X448060Y200510D01*
X451431Y203882D01*
X452575Y203270D01*
X456730D01*
Y207425D01*
X456118Y208569D01*
X474330Y226780D01*
X475000Y226647D01*
X477000D01*
X479048Y227055D01*
X480785Y228215D01*
X481945Y229952D01*
X482353Y232000D01*
X481945Y234048D01*
X480785Y235785D01*
X479048Y236945D01*
X477000Y237353D01*
D02*
G37*
G36*
X437000D02*
X435000D01*
X432952Y236945D01*
X431215Y235785D01*
X430055Y234048D01*
X429647Y232000D01*
X429876Y230848D01*
X426144Y227117D01*
X425447Y226073D01*
X425202Y224842D01*
Y223242D01*
X424936Y223064D01*
X423997Y221658D01*
X423667Y220000D01*
X423997Y218342D01*
X424936Y216936D01*
X426342Y215997D01*
X428000Y215667D01*
X429658Y215997D01*
X431064Y216936D01*
X432003Y218342D01*
X432333Y220000D01*
X432003Y221658D01*
X431636Y222208D01*
Y223510D01*
X434811Y226685D01*
X435000Y226647D01*
X437000D01*
X439048Y227055D01*
X440785Y228215D01*
X441945Y229952D01*
X442353Y232000D01*
X441945Y234048D01*
X440785Y235785D01*
X439048Y236945D01*
X437000Y237353D01*
D02*
G37*
G36*
X690000Y243925D02*
X687716Y243625D01*
X685587Y242743D01*
X683759Y241341D01*
X682357Y239513D01*
X681475Y237384D01*
X681174Y235100D01*
X681475Y232816D01*
X682357Y230687D01*
X683759Y228859D01*
X685587Y227457D01*
X687716Y226575D01*
X690000Y226275D01*
X692284Y226575D01*
X694413Y227457D01*
X696241Y228859D01*
X697643Y230687D01*
X698525Y232816D01*
X698826Y235100D01*
X698525Y237384D01*
X697643Y239513D01*
X696241Y241341D01*
X694413Y242743D01*
X692284Y243625D01*
X690000Y243925D01*
D02*
G37*
G36*
X423429Y230730D02*
X417270D01*
Y225439D01*
X418707Y225628D01*
X420298Y226287D01*
X421664Y227336D01*
X422713Y228702D01*
X423372Y230293D01*
X423429Y230730D01*
D02*
G37*
G36*
X554730D02*
X548571D01*
X548628Y230293D01*
X549287Y228702D01*
X550336Y227336D01*
X551702Y226287D01*
X553293Y225628D01*
X554730Y225439D01*
Y230730D01*
D02*
G37*
G36*
X563429D02*
X557270D01*
Y225439D01*
X558707Y225628D01*
X560298Y226287D01*
X561664Y227336D01*
X562713Y228702D01*
X563372Y230293D01*
X563429Y230730D01*
D02*
G37*
G36*
X414730D02*
X408571D01*
X408628Y230293D01*
X409287Y228702D01*
X410336Y227336D01*
X411702Y226287D01*
X413293Y225628D01*
X414730Y225439D01*
Y230730D01*
D02*
G37*
G36*
X674559Y233830D02*
X665870D01*
Y225141D01*
X667221Y225318D01*
X669663Y226330D01*
X671761Y227939D01*
X673370Y230037D01*
X674382Y232479D01*
X674559Y233830D01*
D02*
G37*
G36*
X663330D02*
X654641D01*
X654818Y232479D01*
X655830Y230037D01*
X657439Y227939D01*
X659537Y226330D01*
X661979Y225318D01*
X663330Y225141D01*
Y233830D01*
D02*
G37*
G36*
X607396Y226730D02*
X603270D01*
Y222604D01*
X604162Y222781D01*
X605994Y224006D01*
X607219Y225838D01*
X607396Y226730D01*
D02*
G37*
G36*
X600730D02*
X596604D01*
X596782Y225838D01*
X598006Y224006D01*
X599838Y222781D01*
X600730Y222604D01*
Y226730D01*
D02*
G37*
G36*
X583396D02*
X579270D01*
Y222604D01*
X580162Y222781D01*
X581994Y224006D01*
X583219Y225838D01*
X583396Y226730D01*
D02*
G37*
G36*
X576730D02*
X572604D01*
X572781Y225838D01*
X574006Y224006D01*
X575838Y222781D01*
X576730Y222604D01*
Y226730D01*
D02*
G37*
G36*
X161396D02*
X157270D01*
Y222604D01*
X158162Y222781D01*
X159994Y224006D01*
X161219Y225838D01*
X161396Y226730D01*
D02*
G37*
G36*
X154730D02*
X150604D01*
X150781Y225838D01*
X152006Y224006D01*
X153838Y222781D01*
X154730Y222604D01*
Y226730D01*
D02*
G37*
G36*
X137396D02*
X133270D01*
Y222604D01*
X134162Y222781D01*
X135994Y224006D01*
X137219Y225838D01*
X137396Y226730D01*
D02*
G37*
G36*
X130730D02*
X126604D01*
X126782Y225838D01*
X128006Y224006D01*
X129838Y222781D01*
X130730Y222604D01*
Y226730D01*
D02*
G37*
G36*
X193690Y233540D02*
X189420D01*
Y222270D01*
X193690D01*
Y233540D01*
D02*
G37*
G36*
X186880D02*
X182610D01*
Y222270D01*
X186880D01*
Y233540D01*
D02*
G37*
G36*
X517000Y237353D02*
X515000D01*
X512952Y236945D01*
X511215Y235785D01*
X510055Y234048D01*
X509647Y232000D01*
X510055Y229952D01*
X511215Y228215D01*
X512783Y227167D01*
Y222836D01*
X511997Y221658D01*
X511667Y220000D01*
X511997Y218342D01*
X512936Y216936D01*
X514342Y215997D01*
X516000Y215667D01*
X517658Y215997D01*
X519064Y216936D01*
X520003Y218342D01*
X520333Y220000D01*
X520003Y221658D01*
X519217Y222836D01*
Y227167D01*
X520785Y228215D01*
X521945Y229952D01*
X522353Y232000D01*
X521945Y234048D01*
X520785Y235785D01*
X519048Y236945D01*
X517000Y237353D01*
D02*
G37*
G36*
X69270Y219396D02*
Y215270D01*
X73396D01*
X73219Y216162D01*
X71994Y217994D01*
X70162Y219219D01*
X69270Y219396D01*
D02*
G37*
G36*
X66730D02*
X65838Y219219D01*
X64006Y217994D01*
X62782Y216162D01*
X62604Y215270D01*
X66730D01*
Y219396D01*
D02*
G37*
G36*
X129270Y215396D02*
Y211270D01*
X133396D01*
X133219Y212162D01*
X131994Y213994D01*
X130162Y215219D01*
X129270Y215396D01*
D02*
G37*
G36*
X126730D02*
X125838Y215219D01*
X124006Y213994D01*
X122781Y212162D01*
X122604Y211270D01*
X126730D01*
Y215396D01*
D02*
G37*
G36*
X110540Y216790D02*
X105270D01*
Y211270D01*
X110540D01*
Y216790D01*
D02*
G37*
G36*
X102730D02*
X97460D01*
Y211270D01*
X102730D01*
Y216790D01*
D02*
G37*
G36*
X289396Y236730D02*
X285270D01*
Y231557D01*
X285500Y231355D01*
Y209750D01*
X294000D01*
Y232250D01*
X287652D01*
X287267Y233520D01*
X287994Y234006D01*
X289219Y235838D01*
X289396Y236730D01*
D02*
G37*
G36*
X226000Y242333D02*
X224342Y242003D01*
X222936Y241064D01*
X221997Y239658D01*
X221667Y238000D01*
X221997Y236342D01*
X222783Y235165D01*
Y232250D01*
X222000D01*
Y209750D01*
X230500D01*
Y232250D01*
X229217D01*
Y235165D01*
X230003Y236342D01*
X230333Y238000D01*
X230003Y239658D01*
X229064Y241064D01*
X227658Y242003D01*
X226000Y242333D01*
D02*
G37*
G36*
X214000D02*
X212342Y242003D01*
X210936Y241064D01*
X209997Y239658D01*
X209667Y238000D01*
X209997Y236342D01*
X210783Y235165D01*
Y232250D01*
X209300D01*
Y209750D01*
X217800D01*
Y232250D01*
X217217D01*
Y235165D01*
X218003Y236342D01*
X218333Y238000D01*
X218003Y239658D01*
X217064Y241064D01*
X215658Y242003D01*
X214000Y242333D01*
D02*
G37*
G36*
X603270Y213396D02*
Y209270D01*
X607396D01*
X607219Y210162D01*
X605994Y211994D01*
X604162Y213218D01*
X603270Y213396D01*
D02*
G37*
G36*
X600730D02*
X599838Y213218D01*
X598006Y211994D01*
X596782Y210162D01*
X596604Y209270D01*
X600730D01*
Y213396D01*
D02*
G37*
G36*
X157270D02*
Y209270D01*
X161396D01*
X161219Y210162D01*
X159994Y211994D01*
X158162Y213218D01*
X157270Y213396D01*
D02*
G37*
G36*
X154730D02*
X153838Y213218D01*
X152006Y211994D01*
X150781Y210162D01*
X150604Y209270D01*
X154730D01*
Y213396D01*
D02*
G37*
G36*
X73396Y212730D02*
X69270D01*
Y208604D01*
X70162Y208781D01*
X71994Y210006D01*
X73219Y211838D01*
X73396Y212730D01*
D02*
G37*
G36*
X66730D02*
X62604D01*
X62782Y211838D01*
X64006Y210006D01*
X65838Y208781D01*
X66730Y208604D01*
Y212730D01*
D02*
G37*
G36*
X193690Y219730D02*
X189420D01*
Y208460D01*
X193690D01*
Y219730D01*
D02*
G37*
G36*
X186880D02*
X182610D01*
Y208460D01*
X186880D01*
Y219730D01*
D02*
G37*
G36*
X133396Y208730D02*
X129270D01*
Y204604D01*
X130162Y204781D01*
X131994Y206006D01*
X133219Y207838D01*
X133396Y208730D01*
D02*
G37*
G36*
X126730D02*
X122604D01*
X122781Y207838D01*
X124006Y206006D01*
X125838Y204781D01*
X126730Y204604D01*
Y208730D01*
D02*
G37*
G36*
X479270Y207396D02*
Y203270D01*
X483396D01*
X483219Y204162D01*
X481994Y205994D01*
X480162Y207219D01*
X479270Y207396D01*
D02*
G37*
G36*
X476730D02*
X475838Y207219D01*
X474006Y205994D01*
X472781Y204162D01*
X472604Y203270D01*
X476730D01*
Y207396D01*
D02*
G37*
G36*
X459270D02*
Y203270D01*
X463396D01*
X463219Y204162D01*
X461994Y205994D01*
X460162Y207219D01*
X459270Y207396D01*
D02*
G37*
G36*
X521270Y207396D02*
Y203270D01*
X525396D01*
X525219Y204162D01*
X523994Y205994D01*
X522162Y207218D01*
X521270Y207396D01*
D02*
G37*
G36*
X518730D02*
X517838Y207218D01*
X516006Y205994D01*
X514781Y204162D01*
X514604Y203270D01*
X518730D01*
Y207396D01*
D02*
G37*
G36*
X110540Y208730D02*
X105270D01*
Y203210D01*
X110540D01*
Y208730D01*
D02*
G37*
G36*
X102730D02*
X97460D01*
Y203210D01*
X102730D01*
Y208730D01*
D02*
G37*
G36*
X607396Y206730D02*
X603270D01*
Y202604D01*
X604162Y202781D01*
X605994Y204006D01*
X607219Y205838D01*
X607396Y206730D01*
D02*
G37*
G36*
X600730D02*
X596604D01*
X596782Y205838D01*
X598006Y204006D01*
X599838Y202781D01*
X600730Y202604D01*
Y206730D01*
D02*
G37*
G36*
X161396D02*
X157270D01*
Y202604D01*
X158162Y202781D01*
X159994Y204006D01*
X161219Y205838D01*
X161396Y206730D01*
D02*
G37*
G36*
X154730D02*
X149797D01*
X149641Y206540D01*
X147270D01*
Y201270D01*
X152790D01*
Y202071D01*
X154060Y202737D01*
X154730Y202604D01*
Y206730D01*
D02*
G37*
G36*
X144730Y206540D02*
X139210D01*
Y201270D01*
X144730D01*
Y206540D01*
D02*
G37*
G36*
X664600Y218825D02*
X662316Y218525D01*
X660187Y217643D01*
X658359Y216241D01*
X656957Y214413D01*
X656075Y212284D01*
X655775Y210000D01*
X656075Y207716D01*
X656957Y205587D01*
X658359Y203759D01*
X660187Y202357D01*
X662316Y201475D01*
X664600Y201175D01*
X666884Y201475D01*
X669013Y202357D01*
X670841Y203759D01*
X672243Y205587D01*
X673125Y207716D01*
X673426Y210000D01*
X673125Y212284D01*
X672243Y214413D01*
X670841Y216241D01*
X669013Y217643D01*
X666884Y218525D01*
X664600Y218825D01*
D02*
G37*
G36*
X265396Y236730D02*
X254604D01*
X254781Y235838D01*
X256006Y234006D01*
X257838Y232781D01*
X258958Y232559D01*
X260006Y232275D01*
X260100Y231135D01*
Y209750D01*
X260958D01*
Y207079D01*
X260936Y207064D01*
X259997Y205658D01*
X259667Y204000D01*
X259997Y202342D01*
X260936Y200936D01*
X262342Y199997D01*
X264000Y199667D01*
X265658Y199997D01*
X267064Y200936D01*
X268003Y202342D01*
X268333Y204000D01*
X268003Y205658D01*
X267392Y206574D01*
Y209750D01*
X268600D01*
Y232250D01*
X263652D01*
X263267Y233520D01*
X263994Y234006D01*
X265219Y235838D01*
X265396Y236730D01*
D02*
G37*
G36*
X255900Y232250D02*
X247400D01*
Y209750D01*
X248608D01*
Y206574D01*
X247997Y205658D01*
X247667Y204000D01*
X247997Y202342D01*
X248936Y200936D01*
X250342Y199997D01*
X252000Y199667D01*
X253658Y199997D01*
X255064Y200936D01*
X256003Y202342D01*
X256333Y204000D01*
X256003Y205658D01*
X255064Y207064D01*
X255042Y207079D01*
Y209750D01*
X255900D01*
Y232250D01*
D02*
G37*
G36*
X679270Y203396D02*
Y199270D01*
X683396D01*
X683219Y200162D01*
X681994Y201994D01*
X680162Y203218D01*
X679270Y203396D01*
D02*
G37*
G36*
X676730D02*
X675838Y203218D01*
X674006Y201994D01*
X672782Y200162D01*
X672604Y199270D01*
X676730D01*
Y203396D01*
D02*
G37*
G36*
X293270D02*
Y199270D01*
X297396D01*
X297219Y200162D01*
X295994Y201994D01*
X294162Y203218D01*
X293270Y203396D01*
D02*
G37*
G36*
X290730D02*
X289838Y203218D01*
X288006Y201994D01*
X286781Y200162D01*
X286604Y199270D01*
X290730D01*
Y203396D01*
D02*
G37*
G36*
X221270D02*
Y199270D01*
X225396D01*
X225219Y200162D01*
X223994Y201994D01*
X222162Y203218D01*
X221270Y203396D01*
D02*
G37*
G36*
X218730D02*
X217838Y203218D01*
X216006Y201994D01*
X214781Y200162D01*
X214604Y199270D01*
X218730D01*
Y203396D01*
D02*
G37*
G36*
X189270D02*
Y199270D01*
X193396D01*
X193219Y200162D01*
X191994Y201994D01*
X190162Y203218D01*
X189270Y203396D01*
D02*
G37*
G36*
X186730D02*
X185838Y203218D01*
X184006Y201994D01*
X182781Y200162D01*
X182604Y199270D01*
X186730D01*
Y203396D01*
D02*
G37*
G36*
X205100Y232250D02*
X196600D01*
Y209750D01*
X197633D01*
Y203150D01*
X197764Y202491D01*
X197667Y202000D01*
X197997Y200342D01*
X198936Y198936D01*
X200342Y197997D01*
X202000Y197667D01*
X203658Y197997D01*
X205064Y198936D01*
X206003Y200342D01*
X206333Y202000D01*
X206003Y203658D01*
X205064Y205064D01*
X204067Y205730D01*
Y209750D01*
X205100D01*
Y232250D01*
D02*
G37*
G36*
X483396Y200730D02*
X479270D01*
Y196604D01*
X480162Y196781D01*
X481994Y198006D01*
X483219Y199838D01*
X483396Y200730D01*
D02*
G37*
G36*
X476730D02*
X472604D01*
X472781Y199838D01*
X474006Y198006D01*
X475838Y196781D01*
X476730Y196604D01*
Y200730D01*
D02*
G37*
G36*
X463396D02*
X459270D01*
Y196604D01*
X460162Y196781D01*
X461994Y198006D01*
X463219Y199838D01*
X463396Y200730D01*
D02*
G37*
G36*
X456730D02*
X452604D01*
X452781Y199838D01*
X454006Y198006D01*
X455838Y196781D01*
X456730Y196604D01*
Y200730D01*
D02*
G37*
G36*
X525396Y200730D02*
X521270D01*
Y196604D01*
X522162Y196781D01*
X523994Y198006D01*
X525219Y199838D01*
X525396Y200730D01*
D02*
G37*
G36*
X518730D02*
X514604D01*
X514781Y199838D01*
X516006Y198006D01*
X517838Y196781D01*
X518730Y196604D01*
Y200730D01*
D02*
G37*
G36*
X152790Y198730D02*
X147270D01*
Y193460D01*
X152790D01*
Y198730D01*
D02*
G37*
G36*
X144730D02*
X139210D01*
Y193460D01*
X144730D01*
Y198730D01*
D02*
G37*
G36*
X267270Y197396D02*
Y193270D01*
X271396D01*
X271219Y194162D01*
X269994Y195994D01*
X268162Y197219D01*
X267270Y197396D01*
D02*
G37*
G36*
X264730D02*
X263838Y197219D01*
X262006Y195994D01*
X260781Y194162D01*
X260604Y193270D01*
X264730D01*
Y197396D01*
D02*
G37*
G36*
X683396Y196730D02*
X679270D01*
Y192604D01*
X680162Y192781D01*
X681994Y194006D01*
X683219Y195838D01*
X683396Y196730D01*
D02*
G37*
G36*
X297396D02*
X293270D01*
Y192604D01*
X294162Y192781D01*
X295994Y194006D01*
X297219Y195838D01*
X297396Y196730D01*
D02*
G37*
G36*
X290730D02*
X286604D01*
X286781Y195838D01*
X288006Y194006D01*
X289838Y192781D01*
X290730Y192604D01*
Y196730D01*
D02*
G37*
G36*
X225396D02*
X221270D01*
Y192604D01*
X222162Y192781D01*
X223994Y194006D01*
X225219Y195838D01*
X225396Y196730D01*
D02*
G37*
G36*
X218730D02*
X214604D01*
X214781Y195838D01*
X216006Y194006D01*
X217838Y192781D01*
X218730Y192604D01*
Y196730D01*
D02*
G37*
G36*
X193396D02*
X189270D01*
Y192604D01*
X190162Y192781D01*
X191994Y194006D01*
X193219Y195838D01*
X193396Y196730D01*
D02*
G37*
G36*
X186730D02*
X182604D01*
X182781Y195838D01*
X184006Y194006D01*
X185838Y192781D01*
X186730Y192604D01*
Y196730D01*
D02*
G37*
G36*
X129270Y191396D02*
Y187270D01*
X133396D01*
X133219Y188162D01*
X131994Y189994D01*
X130162Y191218D01*
X129270Y191396D01*
D02*
G37*
G36*
X126730D02*
X125838Y191218D01*
X124006Y189994D01*
X122781Y188162D01*
X122604Y187270D01*
X126730D01*
Y191396D01*
D02*
G37*
G36*
X109270D02*
Y187270D01*
X113396D01*
X113219Y188162D01*
X111994Y189994D01*
X110162Y191218D01*
X109270Y191396D01*
D02*
G37*
G36*
X106730D02*
X105838Y191218D01*
X104006Y189994D01*
X102781Y188162D01*
X102604Y187270D01*
X106730D01*
Y191396D01*
D02*
G37*
G36*
X397396Y184730D02*
X393270D01*
Y180604D01*
X394162Y180781D01*
X395994Y182006D01*
X397219Y183838D01*
X397396Y184730D01*
D02*
G37*
G36*
X390730D02*
X386604D01*
X386781Y183838D01*
X388006Y182006D01*
X389838Y180781D01*
X390730Y180604D01*
Y184730D01*
D02*
G37*
G36*
X133396D02*
X129270D01*
Y180604D01*
X130162Y180781D01*
X131994Y182006D01*
X133219Y183838D01*
X133396Y184730D01*
D02*
G37*
G36*
X126730D02*
X122604D01*
X122781Y183838D01*
X124006Y182006D01*
X125838Y180781D01*
X126730Y180604D01*
Y184730D01*
D02*
G37*
G36*
X113396D02*
X109270D01*
Y180604D01*
X110162Y180781D01*
X111994Y182006D01*
X113219Y183838D01*
X113396Y184730D01*
D02*
G37*
G36*
X106730D02*
X102604D01*
X102781Y183838D01*
X104006Y182006D01*
X105838Y180781D01*
X106730Y180604D01*
Y184730D01*
D02*
G37*
G36*
X459270Y183396D02*
Y179270D01*
X463396D01*
X463219Y180162D01*
X461994Y181994D01*
X460162Y183219D01*
X459270Y183396D01*
D02*
G37*
G36*
X456730D02*
X455838Y183219D01*
X454006Y181994D01*
X452781Y180162D01*
X452604Y179270D01*
X456730D01*
Y183396D01*
D02*
G37*
G36*
X518730Y183396D02*
X517838Y183218D01*
X516006Y181994D01*
X514781Y180162D01*
X514604Y179270D01*
X518730D01*
Y183396D01*
D02*
G37*
G36*
X501270D02*
Y179270D01*
X505396D01*
X505219Y180162D01*
X503994Y181994D01*
X502162Y183218D01*
X501270Y183396D01*
D02*
G37*
G36*
X498730D02*
X497838Y183218D01*
X496006Y181994D01*
X494781Y180162D01*
X494604Y179270D01*
X498730D01*
Y183396D01*
D02*
G37*
G36*
X690000Y193426D02*
X687716Y193125D01*
X685587Y192243D01*
X683759Y190841D01*
X682357Y189013D01*
X681475Y186884D01*
X681174Y184600D01*
X681475Y182316D01*
X682357Y180187D01*
X683759Y178359D01*
X685587Y176957D01*
X687716Y176075D01*
X690000Y175774D01*
X692284Y176075D01*
X694413Y176957D01*
X696241Y178359D01*
X697643Y180187D01*
X698525Y182316D01*
X698826Y184600D01*
X698525Y186884D01*
X697643Y189013D01*
X696241Y190841D01*
X694413Y192243D01*
X692284Y193125D01*
X690000Y193426D01*
D02*
G37*
G36*
X381270Y179396D02*
Y175270D01*
X385396D01*
X385219Y176162D01*
X383994Y177994D01*
X382162Y179219D01*
X381270Y179396D01*
D02*
G37*
G36*
X378730D02*
X377838Y179219D01*
X376006Y177994D01*
X374781Y176162D01*
X374604Y175270D01*
X378730D01*
Y179396D01*
D02*
G37*
G36*
X194880Y175546D02*
X193988Y175369D01*
X192156Y174144D01*
X191785Y173589D01*
X190515D01*
X190144Y174144D01*
X188312Y175369D01*
X187420Y175546D01*
Y170150D01*
Y164754D01*
X188312Y164932D01*
X190144Y166156D01*
X190515Y166711D01*
X191785D01*
X192156Y166156D01*
X193988Y164932D01*
X194880Y164754D01*
Y170150D01*
Y175546D01*
D02*
G37*
G36*
X184880D02*
X183988Y175369D01*
X182156Y174144D01*
X181785Y173589D01*
X180515D01*
X180144Y174144D01*
X178312Y175369D01*
X177420Y175546D01*
Y170150D01*
X176150D01*
Y168880D01*
X170754D01*
X170931Y167988D01*
X172156Y166156D01*
X173988Y164932D01*
X174662Y164797D01*
Y163503D01*
X173988Y163369D01*
X172156Y162144D01*
X170931Y160312D01*
X170754Y159420D01*
X181546D01*
X181369Y160312D01*
X180144Y162144D01*
X178312Y163369D01*
X177638Y163503D01*
Y164797D01*
X178312Y164932D01*
X180144Y166156D01*
X180515Y166711D01*
X181785D01*
X182156Y166156D01*
X183988Y164932D01*
X184880Y164754D01*
Y170150D01*
Y175546D01*
D02*
G37*
G36*
X463396Y176730D02*
X459270D01*
Y172604D01*
X460162Y172781D01*
X461994Y174006D01*
X463219Y175838D01*
X463396Y176730D01*
D02*
G37*
G36*
X456730D02*
X452604D01*
X452781Y175838D01*
X454006Y174006D01*
X455838Y172781D01*
X456730Y172604D01*
Y176730D01*
D02*
G37*
G36*
X505396Y176730D02*
X501270D01*
Y172604D01*
X502162Y172781D01*
X503994Y174006D01*
X505219Y175838D01*
X505396Y176730D01*
D02*
G37*
G36*
X498730D02*
X494604D01*
X494781Y175838D01*
X496006Y174006D01*
X497838Y172781D01*
X498730Y172604D01*
Y176730D01*
D02*
G37*
G36*
X197420Y175546D02*
Y171420D01*
X201546D01*
X201369Y172312D01*
X200144Y174144D01*
X198312Y175369D01*
X197420Y175546D01*
D02*
G37*
G36*
X174880D02*
X173988Y175369D01*
X172156Y174144D01*
X170931Y172312D01*
X170754Y171420D01*
X174880D01*
Y175546D01*
D02*
G37*
G36*
X305396Y174730D02*
X301270D01*
Y170604D01*
X302162Y170781D01*
X303994Y172006D01*
X305219Y173838D01*
X305396Y174730D01*
D02*
G37*
G36*
X298730D02*
X294604D01*
X294781Y173838D01*
X296006Y172006D01*
X297838Y170781D01*
X298730Y170604D01*
Y174730D01*
D02*
G37*
G36*
X201546Y168880D02*
X197420D01*
Y164754D01*
X198312Y164932D01*
X200144Y166156D01*
X201369Y167988D01*
X201546Y168880D01*
D02*
G37*
G36*
X153770Y166146D02*
Y162020D01*
X157896D01*
X157719Y162912D01*
X156494Y164744D01*
X154662Y165968D01*
X153770Y166146D01*
D02*
G37*
G36*
X151230D02*
X150338Y165968D01*
X148506Y164744D01*
X147281Y162912D01*
X147104Y162020D01*
X151230D01*
Y166146D01*
D02*
G37*
G36*
X603500Y157000D02*
X592500D01*
Y155467D01*
X588461D01*
X587658Y156003D01*
X586000Y156333D01*
X584342Y156003D01*
X582936Y155064D01*
X581997Y153658D01*
X581667Y152000D01*
X581997Y150342D01*
X582936Y148936D01*
X584342Y147997D01*
X586000Y147667D01*
X587658Y147997D01*
X589064Y148936D01*
X589129Y149033D01*
X592500D01*
Y147500D01*
X603500D01*
Y157000D01*
D02*
G37*
G36*
X157896Y159480D02*
X153770D01*
Y155354D01*
X154662Y155531D01*
X156494Y156756D01*
X157719Y158588D01*
X157896Y159480D01*
D02*
G37*
G36*
X151230D02*
X147104D01*
X147281Y158588D01*
X148506Y156756D01*
X150338Y155531D01*
X151230Y155354D01*
Y159480D01*
D02*
G37*
G36*
X545270Y159396D02*
Y155270D01*
X549396D01*
X549219Y156162D01*
X547994Y157994D01*
X546162Y159219D01*
X545270Y159396D01*
D02*
G37*
G36*
X542730D02*
X541838Y159219D01*
X540006Y157994D01*
X538781Y156162D01*
X538604Y155270D01*
X542730D01*
Y159396D01*
D02*
G37*
G36*
X130790Y158540D02*
X125270D01*
Y153270D01*
X130790D01*
Y158540D01*
D02*
G37*
G36*
X122730D02*
X117210D01*
Y153270D01*
X122730D01*
Y158540D01*
D02*
G37*
G36*
X637270Y153396D02*
Y149270D01*
X641396D01*
X641219Y150162D01*
X639994Y151994D01*
X638162Y153218D01*
X637270Y153396D01*
D02*
G37*
G36*
X37260Y187250D02*
X12760D01*
Y148750D01*
X37260D01*
Y187250D01*
D02*
G37*
G36*
X549396Y152730D02*
X545270D01*
Y148604D01*
X546162Y148781D01*
X547994Y150006D01*
X549219Y151838D01*
X549396Y152730D01*
D02*
G37*
G36*
X542730D02*
X538604D01*
X538781Y151838D01*
X540006Y150006D01*
X541838Y148781D01*
X542730Y148604D01*
Y152730D01*
D02*
G37*
G36*
X181546Y156880D02*
X170754D01*
X170931Y155988D01*
X172156Y154156D01*
X173988Y152931D01*
X174662Y152797D01*
Y151503D01*
X173988Y151369D01*
X172156Y150144D01*
X170931Y148312D01*
X170754Y147420D01*
X181546D01*
X181369Y148312D01*
X180144Y150144D01*
X178312Y151369D01*
X177638Y151503D01*
Y152797D01*
X178312Y152931D01*
X180144Y154156D01*
X181369Y155988D01*
X181546Y156880D01*
D02*
G37*
G36*
X100704Y153522D02*
X88258D01*
Y146156D01*
X100704D01*
Y153522D01*
D02*
G37*
G36*
X85718D02*
X73272D01*
Y146156D01*
X85718D01*
Y153522D01*
D02*
G37*
G36*
X130790Y150730D02*
X125270D01*
Y145460D01*
X130790D01*
Y150730D01*
D02*
G37*
G36*
X122730D02*
X117210D01*
Y145460D01*
X122730D01*
Y150730D01*
D02*
G37*
G36*
X641396Y146730D02*
X637270D01*
Y142604D01*
X638162Y142781D01*
X639994Y144006D01*
X641219Y145838D01*
X641396Y146730D01*
D02*
G37*
G36*
X181546Y144880D02*
X177420D01*
Y140754D01*
X178312Y140932D01*
X180144Y142156D01*
X181369Y143988D01*
X181546Y144880D01*
D02*
G37*
G36*
X174880D02*
X170754D01*
X170931Y143988D01*
X172156Y142156D01*
X173988Y140932D01*
X174880Y140754D01*
Y144880D01*
D02*
G37*
G36*
X153770Y142146D02*
Y138020D01*
X157896D01*
X157719Y138912D01*
X156494Y140744D01*
X154662Y141968D01*
X153770Y142146D01*
D02*
G37*
G36*
X151230D02*
X150338Y141968D01*
X148506Y140744D01*
X147281Y138912D01*
X147104Y138020D01*
X151230D01*
Y142146D01*
D02*
G37*
G36*
X133770D02*
Y138020D01*
X137896D01*
X137718Y138912D01*
X136494Y140744D01*
X134662Y141968D01*
X133770Y142146D01*
D02*
G37*
G36*
X131230D02*
X130338Y141968D01*
X128506Y140744D01*
X127281Y138912D01*
X127104Y138020D01*
X131230D01*
Y142146D01*
D02*
G37*
G36*
X100704Y143616D02*
X88258D01*
Y136250D01*
X100704D01*
Y143616D01*
D02*
G37*
G36*
X85718D02*
X73272D01*
Y136250D01*
X85718D01*
Y143616D01*
D02*
G37*
G36*
X603500Y140500D02*
X592500D01*
Y131000D01*
X603500D01*
Y132533D01*
X609227D01*
X610217Y131872D01*
X611875Y131542D01*
X613533Y131872D01*
X614939Y132811D01*
X615878Y134217D01*
X616208Y135875D01*
X615878Y137533D01*
X614939Y138939D01*
X613533Y139878D01*
X611875Y140208D01*
X610217Y139878D01*
X608853Y138967D01*
X603500D01*
Y140500D01*
D02*
G37*
G36*
X157896Y135480D02*
X153770D01*
Y131354D01*
X154662Y131531D01*
X156494Y132756D01*
X157719Y134588D01*
X157896Y135480D01*
D02*
G37*
G36*
X151230D02*
X147104D01*
X147281Y134588D01*
X148506Y132756D01*
X150338Y131531D01*
X151230Y131354D01*
Y135480D01*
D02*
G37*
G36*
X137896D02*
X133770D01*
Y131354D01*
X134662Y131531D01*
X136494Y132756D01*
X137718Y134588D01*
X137896Y135480D01*
D02*
G37*
G36*
X131230D02*
X127104D01*
X127281Y134588D01*
X128506Y132756D01*
X130338Y131531D01*
X131230Y131354D01*
Y135480D01*
D02*
G37*
G36*
X545270Y135396D02*
Y131270D01*
X549396D01*
X549219Y132162D01*
X547994Y133994D01*
X546162Y135218D01*
X545270Y135396D01*
D02*
G37*
G36*
X542730D02*
X541838Y135218D01*
X540006Y133994D01*
X538781Y132162D01*
X538604Y131270D01*
X542730D01*
Y135396D01*
D02*
G37*
G36*
X525270D02*
Y131270D01*
X529396D01*
X529219Y132162D01*
X527994Y133994D01*
X526162Y135218D01*
X525270Y135396D01*
D02*
G37*
G36*
X522730D02*
X521838Y135218D01*
X520006Y133994D01*
X518781Y132162D01*
X518604Y131270D01*
X522730D01*
Y135396D01*
D02*
G37*
G36*
X346090Y139540D02*
X341820D01*
Y128270D01*
X346090D01*
Y139540D01*
D02*
G37*
G36*
X339280D02*
X335010D01*
Y128270D01*
X339280D01*
Y139540D01*
D02*
G37*
G36*
X263080D02*
X258810D01*
Y128270D01*
X263080D01*
Y139540D01*
D02*
G37*
G36*
X549396Y128730D02*
X545270D01*
Y124604D01*
X546162Y124781D01*
X547994Y126006D01*
X549219Y127838D01*
X549396Y128730D01*
D02*
G37*
G36*
X542730D02*
X538604D01*
X538781Y127838D01*
X540006Y126006D01*
X541838Y124781D01*
X542730Y124604D01*
Y128730D01*
D02*
G37*
G36*
X529396D02*
X525270D01*
Y124604D01*
X526162Y124781D01*
X527994Y126006D01*
X529219Y127838D01*
X529396Y128730D01*
D02*
G37*
G36*
X522730D02*
X518604D01*
X518781Y127838D01*
X520006Y126006D01*
X521838Y124781D01*
X522730Y124604D01*
Y128730D01*
D02*
G37*
G36*
X359270Y127396D02*
Y123270D01*
X363396D01*
X363219Y124162D01*
X361994Y125994D01*
X360162Y127219D01*
X359270Y127396D01*
D02*
G37*
G36*
X356730D02*
X355838Y127219D01*
X354006Y125994D01*
X352781Y124162D01*
X352604Y123270D01*
X356730D01*
Y127396D01*
D02*
G37*
G36*
X637270Y125396D02*
Y121270D01*
X641396D01*
X641219Y122162D01*
X639994Y123994D01*
X638162Y125218D01*
X637270Y125396D01*
D02*
G37*
G36*
X599270D02*
Y121270D01*
X603396D01*
X603219Y122162D01*
X601994Y123994D01*
X600162Y125218D01*
X599270Y125396D01*
D02*
G37*
G36*
X596730D02*
X595838Y125218D01*
X594006Y123994D01*
X592781Y122162D01*
X592604Y121270D01*
X596730D01*
Y125396D01*
D02*
G37*
G36*
X87270Y123396D02*
Y119270D01*
X91396D01*
X91219Y120162D01*
X89994Y121994D01*
X88162Y123218D01*
X87270Y123396D01*
D02*
G37*
G36*
X84730D02*
X83838Y123218D01*
X82006Y121994D01*
X80781Y120162D01*
X80604Y119270D01*
X84730D01*
Y123396D01*
D02*
G37*
G36*
X363396Y120730D02*
X359270D01*
Y116604D01*
X360162Y116781D01*
X361994Y118006D01*
X363219Y119838D01*
X363396Y120730D01*
D02*
G37*
G36*
X356730D02*
X352604D01*
X352781Y119838D01*
X354006Y118006D01*
X355838Y116781D01*
X356730Y116604D01*
Y120730D01*
D02*
G37*
G36*
X641396Y118730D02*
X637270D01*
Y114604D01*
X638162Y114781D01*
X639994Y116006D01*
X641219Y117838D01*
X641396Y118730D01*
D02*
G37*
G36*
X603396D02*
X599270D01*
Y114604D01*
X600162Y114781D01*
X601994Y116006D01*
X603219Y117838D01*
X603396Y118730D01*
D02*
G37*
G36*
X596730D02*
X592604D01*
X592781Y117838D01*
X594006Y116006D01*
X595838Y114781D01*
X596730Y114604D01*
Y118730D01*
D02*
G37*
G36*
X346090Y125730D02*
X340550D01*
X335010D01*
Y114460D01*
X335010D01*
X335469Y113190D01*
X334781Y112162D01*
X334604Y111270D01*
X345396D01*
X345219Y112162D01*
X344531Y113190D01*
X345210Y114460D01*
X346090D01*
Y125730D01*
D02*
G37*
G36*
X91396Y116730D02*
X87270D01*
Y112604D01*
X88162Y112781D01*
X89994Y114006D01*
X91219Y115838D01*
X91396Y116730D01*
D02*
G37*
G36*
X84730D02*
X80604D01*
X80781Y115838D01*
X82006Y114006D01*
X83838Y112781D01*
X84730Y112604D01*
Y116730D01*
D02*
G37*
G36*
X695250Y146250D02*
X672750D01*
Y123750D01*
X682639D01*
X682722Y122480D01*
X680726Y122217D01*
X677676Y120954D01*
X675056Y118944D01*
X673046Y116324D01*
X671783Y113274D01*
X671519Y111270D01*
X684000D01*
X696481D01*
X696217Y113274D01*
X694954Y116324D01*
X692944Y118944D01*
X690324Y120954D01*
X687274Y122217D01*
X685278Y122480D01*
X685361Y123750D01*
X695250D01*
Y146250D01*
D02*
G37*
G36*
X248730Y113396D02*
X247838Y113218D01*
X246006Y111994D01*
X244781Y110162D01*
X244604Y109270D01*
X248730D01*
Y113396D01*
D02*
G37*
G36*
X637270Y111396D02*
Y107270D01*
X641396D01*
X641219Y108162D01*
X639994Y109994D01*
X638162Y111219D01*
X637270Y111396D01*
D02*
G37*
G36*
X217800Y138250D02*
X209300D01*
Y115750D01*
X210558D01*
Y112499D01*
X209997Y111658D01*
X209667Y110000D01*
X209997Y108342D01*
X210936Y106936D01*
X212342Y105997D01*
X214000Y105667D01*
X215658Y105997D01*
X217064Y106936D01*
X218003Y108342D01*
X218333Y110000D01*
X218003Y111658D01*
X217064Y113064D01*
X216992Y113112D01*
Y115750D01*
X217800D01*
Y138250D01*
D02*
G37*
G36*
X306700D02*
X298200D01*
Y115750D01*
X299233D01*
Y113550D01*
X299478Y112319D01*
X300175Y111275D01*
X303720Y107730D01*
X303997Y106342D01*
X304936Y104936D01*
X306342Y103997D01*
X308000Y103667D01*
X309658Y103997D01*
X311064Y104936D01*
X312003Y106342D01*
X312333Y108000D01*
X312003Y109658D01*
X311064Y111064D01*
X309658Y112003D01*
X308270Y112280D01*
X306069Y114480D01*
X306595Y115750D01*
X306700D01*
Y138250D01*
D02*
G37*
G36*
X248730Y106730D02*
X244604D01*
X244781Y105838D01*
X246006Y104006D01*
X247838Y102781D01*
X248730Y102604D01*
Y106730D01*
D02*
G37*
G36*
X345396Y108730D02*
X334604D01*
X334781Y107838D01*
X336006Y106006D01*
X337460Y105034D01*
Y101270D01*
X344000D01*
X350540D01*
Y106790D01*
X345929D01*
X345263Y108060D01*
X345396Y108730D01*
D02*
G37*
G36*
X641396Y104730D02*
X637270D01*
Y100604D01*
X638162Y100781D01*
X639994Y102006D01*
X641219Y103838D01*
X641396Y104730D01*
D02*
G37*
G36*
X111270Y103396D02*
Y99270D01*
X115396D01*
X115219Y100162D01*
X113994Y101994D01*
X112162Y103218D01*
X111270Y103396D01*
D02*
G37*
G36*
X108730D02*
X107838Y103218D01*
X106006Y101994D01*
X104782Y100162D01*
X104604Y99270D01*
X108730D01*
Y103396D01*
D02*
G37*
G36*
X87270D02*
Y99270D01*
X91396D01*
X91219Y100162D01*
X89994Y101994D01*
X88162Y103218D01*
X87270Y103396D01*
D02*
G37*
G36*
X84730D02*
X83838Y103218D01*
X82006Y101994D01*
X80781Y100162D01*
X80604Y99270D01*
X84730D01*
Y103396D01*
D02*
G37*
G36*
X696481Y108730D02*
X685270D01*
Y97519D01*
X687274Y97783D01*
X690324Y99046D01*
X692944Y101056D01*
X694954Y103676D01*
X696217Y106726D01*
X696481Y108730D01*
D02*
G37*
G36*
X682730D02*
X671519D01*
X671783Y106726D01*
X673046Y103676D01*
X675056Y101056D01*
X677676Y99046D01*
X680726Y97783D01*
X682730Y97519D01*
Y108730D01*
D02*
G37*
G36*
X599270Y101396D02*
Y97270D01*
X603396D01*
X603219Y98162D01*
X601994Y99994D01*
X600162Y101219D01*
X599270Y101396D01*
D02*
G37*
G36*
X596730D02*
X595838Y101219D01*
X594006Y99994D01*
X592781Y98162D01*
X592604Y97270D01*
X596730D01*
Y101396D01*
D02*
G37*
G36*
X579270D02*
Y97270D01*
X583396D01*
X583219Y98162D01*
X581994Y99994D01*
X580162Y101219D01*
X579270Y101396D01*
D02*
G37*
G36*
X576730D02*
X575838Y101219D01*
X574006Y99994D01*
X572781Y98162D01*
X572604Y97270D01*
X576730D01*
Y101396D01*
D02*
G37*
G36*
X248540Y100790D02*
X243270D01*
Y95270D01*
X248540D01*
Y100790D01*
D02*
G37*
G36*
X240730D02*
X235460D01*
Y95270D01*
X240730D01*
Y100790D01*
D02*
G37*
G36*
X217270Y99396D02*
Y95270D01*
X221396D01*
X221219Y96162D01*
X219994Y97994D01*
X218162Y99219D01*
X217270Y99396D01*
D02*
G37*
G36*
X214730D02*
X213838Y99219D01*
X212006Y97994D01*
X210781Y96162D01*
X210604Y95270D01*
X214730D01*
Y99396D01*
D02*
G37*
G36*
X193270D02*
Y95270D01*
X197396D01*
X197219Y96162D01*
X195994Y97994D01*
X194162Y99219D01*
X193270Y99396D01*
D02*
G37*
G36*
X190730D02*
X189838Y99219D01*
X188006Y97994D01*
X186782Y96162D01*
X186604Y95270D01*
X190730D01*
Y99396D01*
D02*
G37*
G36*
X295396Y142730D02*
X284604D01*
X284781Y141838D01*
X286006Y140006D01*
X286733Y139520D01*
X286348Y138250D01*
X285500D01*
Y115750D01*
X286533D01*
Y110250D01*
X286778Y109019D01*
X287475Y107975D01*
X291237Y104213D01*
X290751Y103040D01*
X289770D01*
Y94500D01*
X287230D01*
Y103040D01*
X280960D01*
Y101750D01*
X269250D01*
Y97217D01*
X263250D01*
Y99500D01*
X261217D01*
Y104668D01*
X264333Y107783D01*
X273000D01*
X274231Y108028D01*
X275275Y108725D01*
X279325Y112775D01*
X280022Y113819D01*
X280267Y115050D01*
Y115750D01*
X281300D01*
Y138250D01*
X275652D01*
X275267Y139520D01*
X275994Y140006D01*
X277219Y141838D01*
X277396Y142730D01*
X266604D01*
X266782Y141838D01*
X267469Y140810D01*
X266790Y139540D01*
X265620D01*
Y127000D01*
X264350D01*
Y125730D01*
X258810D01*
Y114460D01*
X260213D01*
X260607Y113549D01*
X260641Y113190D01*
X256696Y109245D01*
X255318Y109663D01*
X255219Y110162D01*
X253994Y111994D01*
X252162Y113218D01*
X251270Y113396D01*
Y108000D01*
Y102604D01*
X252162Y102781D01*
X253513Y103685D01*
X254783Y103075D01*
Y99500D01*
X252750D01*
Y88500D01*
X259771D01*
X259896Y87230D01*
X259838Y87219D01*
X258006Y85994D01*
X256782Y84162D01*
X256604Y83270D01*
X262000D01*
Y82000D01*
X263270D01*
Y76604D01*
X264162Y76781D01*
X265994Y78006D01*
X266690Y79047D01*
X267604Y78770D01*
X275500D01*
Y77500D01*
X276770D01*
Y68960D01*
X283040D01*
Y70250D01*
X294750D01*
Y74783D01*
X300750D01*
Y72500D01*
X311250D01*
Y83500D01*
X309217D01*
Y94000D01*
X308972Y95231D01*
X308275Y96275D01*
X292967Y111582D01*
Y115750D01*
X294000D01*
Y138250D01*
X293652D01*
X293267Y139520D01*
X293994Y140006D01*
X295219Y141838D01*
X295396Y142730D01*
D02*
G37*
G36*
X115396Y96730D02*
X111270D01*
Y92604D01*
X112162Y92781D01*
X113994Y94006D01*
X115219Y95838D01*
X115396Y96730D01*
D02*
G37*
G36*
X108730D02*
X104604D01*
X104782Y95838D01*
X106006Y94006D01*
X107838Y92781D01*
X108730Y92604D01*
Y96730D01*
D02*
G37*
G36*
X91396D02*
X87270D01*
Y92604D01*
X88162Y92781D01*
X89994Y94006D01*
X91219Y95838D01*
X91396Y96730D01*
D02*
G37*
G36*
X84730D02*
X80604D01*
X80781Y95838D01*
X82006Y94006D01*
X83838Y92781D01*
X84730Y92604D01*
Y96730D01*
D02*
G37*
G36*
X179700Y138250D02*
X171200D01*
Y115750D01*
X172508D01*
Y101000D01*
X170500D01*
Y91500D01*
X181500D01*
Y101000D01*
X178942D01*
Y115750D01*
X179700D01*
Y138250D01*
D02*
G37*
G36*
X380730Y95396D02*
X379838Y95219D01*
X378006Y93994D01*
X376782Y92162D01*
X376604Y91270D01*
X380730D01*
Y95396D01*
D02*
G37*
G36*
X603396Y94730D02*
X599270D01*
Y90604D01*
X600162Y90781D01*
X601994Y92006D01*
X603219Y93838D01*
X603396Y94730D01*
D02*
G37*
G36*
X596730D02*
X592604D01*
X592781Y93838D01*
X594006Y92006D01*
X595838Y90781D01*
X596730Y90604D01*
Y94730D01*
D02*
G37*
G36*
X583396D02*
X579270D01*
Y90604D01*
X580162Y90781D01*
X581994Y92006D01*
X583219Y93838D01*
X583396Y94730D01*
D02*
G37*
G36*
X576730D02*
X572604D01*
X572781Y93838D01*
X574006Y92006D01*
X575838Y90781D01*
X576730Y90604D01*
Y94730D01*
D02*
G37*
G36*
X221396Y92730D02*
X217270D01*
Y88604D01*
X218162Y88781D01*
X219994Y90006D01*
X221219Y91838D01*
X221396Y92730D01*
D02*
G37*
G36*
X214730D02*
X210604D01*
X210781Y91838D01*
X212006Y90006D01*
X213838Y88781D01*
X214730Y88604D01*
Y92730D01*
D02*
G37*
G36*
X197396D02*
X193270D01*
Y88604D01*
X194162Y88781D01*
X195994Y90006D01*
X197219Y91838D01*
X197396Y92730D01*
D02*
G37*
G36*
X190730D02*
X186604D01*
X186782Y91838D01*
X188006Y90006D01*
X189838Y88781D01*
X190730Y88604D01*
Y92730D01*
D02*
G37*
G36*
X248540Y92730D02*
X243270D01*
Y87210D01*
X248540D01*
Y92730D01*
D02*
G37*
G36*
X240730D02*
X235460D01*
Y87210D01*
X240730D01*
Y92730D01*
D02*
G37*
G36*
X235270Y83396D02*
Y79270D01*
X239396D01*
X239219Y80162D01*
X237994Y81994D01*
X236162Y83219D01*
X235270Y83396D01*
D02*
G37*
G36*
X328540Y84790D02*
X323270D01*
Y79270D01*
X328540D01*
Y84790D01*
D02*
G37*
G36*
X320730D02*
X315460D01*
Y79270D01*
X320730D01*
Y84790D01*
D02*
G37*
G36*
X260730Y80730D02*
X256604D01*
X256782Y79838D01*
X258006Y78006D01*
X259838Y76781D01*
X260730Y76604D01*
Y80730D01*
D02*
G37*
G36*
X147270Y79396D02*
Y75270D01*
X151396D01*
X151219Y76162D01*
X149994Y77994D01*
X148162Y79219D01*
X147270Y79396D01*
D02*
G37*
G36*
X144730D02*
X143838Y79219D01*
X142006Y77994D01*
X140781Y76162D01*
X140604Y75270D01*
X144730D01*
Y79396D01*
D02*
G37*
G36*
X687270Y77396D02*
Y73270D01*
X691396D01*
X691219Y74162D01*
X689994Y75994D01*
X688162Y77218D01*
X687270Y77396D01*
D02*
G37*
G36*
X684730D02*
X683838Y77218D01*
X682006Y75994D01*
X680781Y74162D01*
X680604Y73270D01*
X684730D01*
Y77396D01*
D02*
G37*
G36*
X673270D02*
Y73270D01*
X677396D01*
X677219Y74162D01*
X675994Y75994D01*
X674162Y77218D01*
X673270Y77396D01*
D02*
G37*
G36*
X670730D02*
X669838Y77218D01*
X668006Y75994D01*
X666781Y74162D01*
X666604Y73270D01*
X670730D01*
Y77396D01*
D02*
G37*
G36*
X659270D02*
Y73270D01*
X663396D01*
X663219Y74162D01*
X661994Y75994D01*
X660162Y77218D01*
X659270Y77396D01*
D02*
G37*
G36*
X656730D02*
X655838Y77218D01*
X654006Y75994D01*
X652781Y74162D01*
X652604Y73270D01*
X656730D01*
Y77396D01*
D02*
G37*
G36*
X417270Y78561D02*
Y73270D01*
X423429D01*
X423372Y73707D01*
X422713Y75298D01*
X421664Y76664D01*
X420298Y77713D01*
X418707Y78372D01*
X417270Y78561D01*
D02*
G37*
G36*
X437270Y78561D02*
Y73270D01*
X443429D01*
X443372Y73707D01*
X442713Y75298D01*
X441664Y76664D01*
X440298Y77713D01*
X438707Y78372D01*
X437270Y78561D01*
D02*
G37*
G36*
X434730D02*
X433293Y78372D01*
X431702Y77713D01*
X430336Y76664D01*
X429287Y75298D01*
X428628Y73707D01*
X428571Y73270D01*
X434730D01*
Y78561D01*
D02*
G37*
G36*
X414730D02*
X413293Y78372D01*
X411702Y77713D01*
X410336Y76664D01*
X409287Y75298D01*
X408628Y73707D01*
X408571Y73270D01*
X414730D01*
Y78561D01*
D02*
G37*
G36*
X399396Y76730D02*
X395270D01*
Y72604D01*
X396162Y72781D01*
X397994Y74006D01*
X399219Y75838D01*
X399396Y76730D01*
D02*
G37*
G36*
X332100Y138250D02*
X323600D01*
Y115750D01*
X324633D01*
Y105500D01*
X322750D01*
Y94500D01*
X324783D01*
Y90000D01*
X325028Y88769D01*
X325725Y87725D01*
X326769Y87028D01*
X328000Y86783D01*
X350000D01*
X351231Y87028D01*
X352275Y87725D01*
X355183Y90633D01*
X356353Y90008D01*
X356352Y90000D01*
X356782Y87838D01*
X358006Y86006D01*
X359529Y84988D01*
X359695Y83919D01*
X359630Y83528D01*
X358936Y83064D01*
X357997Y81658D01*
X357667Y80000D01*
X357997Y78342D01*
X358936Y76936D01*
X360342Y75997D01*
X362000Y75667D01*
X363658Y75997D01*
X364836Y76783D01*
X384000D01*
X385231Y77028D01*
X386275Y77725D01*
X387183Y78633D01*
X388353Y78008D01*
X388352Y78000D01*
X388781Y75838D01*
X390006Y74006D01*
X391838Y72781D01*
X392730Y72604D01*
Y78000D01*
X394000D01*
Y79270D01*
X399396D01*
X399219Y80162D01*
X397994Y81994D01*
X396162Y83219D01*
X394000Y83649D01*
X393992Y83647D01*
X393367Y84817D01*
X398270Y89720D01*
X399658Y89997D01*
X401064Y90936D01*
X402003Y92342D01*
X402333Y94000D01*
X402003Y95658D01*
X401064Y97064D01*
X399658Y98003D01*
X398000Y98333D01*
X396342Y98003D01*
X394936Y97064D01*
X393997Y95658D01*
X393720Y94270D01*
X388817Y89367D01*
X387647Y89992D01*
X387649Y90000D01*
X387219Y92162D01*
X385994Y93994D01*
X384162Y95219D01*
X383270Y95396D01*
Y90000D01*
X382000D01*
Y88730D01*
X376604D01*
X376782Y87838D01*
X378006Y86006D01*
X379838Y84781D01*
X381320Y84487D01*
X381195Y83217D01*
X365251D01*
X364733Y83844D01*
X364949Y85308D01*
X365994Y86006D01*
X367219Y87838D01*
X367396Y88730D01*
X362000D01*
Y91270D01*
X367396D01*
X367219Y92162D01*
X365994Y93994D01*
X364162Y95219D01*
X362000Y95648D01*
X361992Y95647D01*
X361367Y96817D01*
X370275Y105725D01*
X370972Y106769D01*
X371217Y108000D01*
Y111165D01*
X372003Y112342D01*
X372333Y114000D01*
X372003Y115658D01*
X371064Y117064D01*
X369658Y118003D01*
X368000Y118333D01*
X366342Y118003D01*
X364936Y117064D01*
X363997Y115658D01*
X363667Y114000D01*
X363997Y112342D01*
X364783Y111165D01*
Y109332D01*
X351713Y96263D01*
X350540Y96749D01*
Y98730D01*
X344000D01*
X337460D01*
Y93217D01*
X331217D01*
Y94500D01*
X333250D01*
Y105500D01*
X331067D01*
Y115750D01*
X332100D01*
Y138250D01*
D02*
G37*
G36*
X328540Y76730D02*
X323270D01*
Y71210D01*
X328540D01*
Y76730D01*
D02*
G37*
G36*
X320730D02*
X315460D01*
Y71210D01*
X320730D01*
Y76730D01*
D02*
G37*
G36*
X181500Y84500D02*
X170500D01*
Y75000D01*
X172783D01*
Y73500D01*
X173028Y72269D01*
X173151Y72085D01*
X172236Y71169D01*
X172162Y71219D01*
X171270Y71396D01*
Y67270D01*
X175396D01*
X175275Y67880D01*
X176248Y68597D01*
X176322Y68629D01*
X177225Y67725D01*
X178269Y67028D01*
X179500Y66783D01*
X213165D01*
X214342Y65997D01*
X216000Y65667D01*
X217658Y65997D01*
X219064Y66936D01*
X220003Y68342D01*
X220333Y70000D01*
X220003Y71658D01*
X219064Y73064D01*
X217658Y74003D01*
X216000Y74333D01*
X214342Y74003D01*
X213165Y73217D01*
X181465D01*
X181082Y73730D01*
X181500Y75000D01*
X181500D01*
Y84500D01*
D02*
G37*
G36*
X274230Y76230D02*
X267960D01*
Y68960D01*
X274230D01*
Y76230D01*
D02*
G37*
G36*
X151396Y72730D02*
X147270D01*
Y68604D01*
X148162Y68781D01*
X149994Y70006D01*
X151219Y71838D01*
X151396Y72730D01*
D02*
G37*
G36*
X144730D02*
X140604D01*
X140781Y71838D01*
X142006Y70006D01*
X143838Y68781D01*
X144730Y68604D01*
Y72730D01*
D02*
G37*
G36*
X590000Y80333D02*
X588342Y80003D01*
X586936Y79064D01*
X585997Y77658D01*
X585667Y76000D01*
X585997Y74342D01*
X586936Y72936D01*
X588342Y71997D01*
X589730Y71720D01*
X591475Y69975D01*
X592519Y69278D01*
X593750Y69033D01*
X604500D01*
Y67500D01*
X615500D01*
Y77000D01*
X604500D01*
Y75467D01*
X595083D01*
X594280Y76270D01*
X594003Y77658D01*
X593064Y79064D01*
X591658Y80003D01*
X590000Y80333D01*
D02*
G37*
G36*
X625270Y71396D02*
Y67270D01*
X629396D01*
X629219Y68162D01*
X627994Y69994D01*
X626162Y71219D01*
X625270Y71396D01*
D02*
G37*
G36*
X622730D02*
X621838Y71219D01*
X620006Y69994D01*
X618782Y68162D01*
X618604Y67270D01*
X622730D01*
Y71396D01*
D02*
G37*
G36*
X168730D02*
X167838Y71219D01*
X166006Y69994D01*
X164781Y68162D01*
X164604Y67270D01*
X168730D01*
Y71396D01*
D02*
G37*
G36*
X691396Y70730D02*
X687270D01*
Y66604D01*
X688162Y66781D01*
X689994Y68006D01*
X691219Y69838D01*
X691396Y70730D01*
D02*
G37*
G36*
X684730D02*
X680604D01*
X680781Y69838D01*
X682006Y68006D01*
X683838Y66781D01*
X684730Y66604D01*
Y70730D01*
D02*
G37*
G36*
X677396D02*
X673270D01*
Y66604D01*
X674162Y66781D01*
X675994Y68006D01*
X677219Y69838D01*
X677396Y70730D01*
D02*
G37*
G36*
X670730D02*
X666604D01*
X666781Y69838D01*
X668006Y68006D01*
X669838Y66781D01*
X670730Y66604D01*
Y70730D01*
D02*
G37*
G36*
X663396D02*
X659270D01*
Y66604D01*
X660162Y66781D01*
X661994Y68006D01*
X663219Y69838D01*
X663396Y70730D01*
D02*
G37*
G36*
X656730D02*
X652604D01*
X652781Y69838D01*
X654006Y68006D01*
X655838Y66781D01*
X656730Y66604D01*
Y70730D01*
D02*
G37*
G36*
X629396Y64730D02*
X625270D01*
Y60604D01*
X626162Y60781D01*
X627994Y62006D01*
X629219Y63838D01*
X629396Y64730D01*
D02*
G37*
G36*
X622730D02*
X618604D01*
X618782Y63838D01*
X620006Y62006D01*
X621838Y60781D01*
X622730Y60604D01*
Y64730D01*
D02*
G37*
G36*
X175396D02*
X171270D01*
Y60604D01*
X172162Y60781D01*
X173994Y62006D01*
X175219Y63838D01*
X175396Y64730D01*
D02*
G37*
G36*
X168730D02*
X164604D01*
X164781Y63838D01*
X166006Y62006D01*
X167838Y60781D01*
X168730Y60604D01*
Y64730D01*
D02*
G37*
G36*
X593270Y51396D02*
Y47270D01*
X597396D01*
X597219Y48162D01*
X595994Y49994D01*
X594162Y51219D01*
X593270Y51396D01*
D02*
G37*
G36*
X590730D02*
X589838Y51219D01*
X588006Y49994D01*
X586782Y48162D01*
X586604Y47270D01*
X590730D01*
Y51396D01*
D02*
G37*
G36*
X751440Y54540D02*
X739270D01*
Y45270D01*
X751440D01*
Y54540D01*
D02*
G37*
G36*
X736730D02*
X724560D01*
Y45270D01*
X736730D01*
Y54540D01*
D02*
G37*
G36*
X597396Y44730D02*
X593270D01*
Y40604D01*
X594162Y40781D01*
X595994Y42006D01*
X597219Y43838D01*
X597396Y44730D01*
D02*
G37*
G36*
X590730D02*
X586604D01*
X586782Y43838D01*
X588006Y42006D01*
X589838Y40781D01*
X590730Y40604D01*
Y44730D01*
D02*
G37*
G36*
X574250Y54250D02*
X553750D01*
Y33750D01*
X574250D01*
Y54250D01*
D02*
G37*
G36*
X539000Y54338D02*
X536324Y53986D01*
X533831Y52953D01*
X531690Y51310D01*
X530047Y49169D01*
X529014Y46676D01*
X528662Y44000D01*
X529014Y41324D01*
X530047Y38831D01*
X531690Y36690D01*
X533831Y35047D01*
X536324Y34014D01*
X539000Y33662D01*
X541676Y34014D01*
X544169Y35047D01*
X546310Y36690D01*
X547953Y38831D01*
X548986Y41324D01*
X549338Y44000D01*
X548986Y46676D01*
X547953Y49169D01*
X546310Y51310D01*
X544169Y52953D01*
X541676Y53986D01*
X539000Y54338D01*
D02*
G37*
G36*
X514000D02*
X511324Y53986D01*
X508831Y52953D01*
X506690Y51310D01*
X505047Y49169D01*
X504014Y46676D01*
X503662Y44000D01*
X504014Y41324D01*
X505047Y38831D01*
X506690Y36690D01*
X508831Y35047D01*
X511324Y34014D01*
X514000Y33662D01*
X516676Y34014D01*
X519169Y35047D01*
X521310Y36690D01*
X522953Y38831D01*
X523986Y41324D01*
X524338Y44000D01*
X523986Y46676D01*
X522953Y49169D01*
X521310Y51310D01*
X519169Y52953D01*
X516676Y53986D01*
X514000Y54338D01*
D02*
G37*
G36*
X488000D02*
X485324Y53986D01*
X482831Y52953D01*
X480690Y51310D01*
X479047Y49169D01*
X478014Y46676D01*
X477662Y44000D01*
X478014Y41324D01*
X479047Y38831D01*
X480690Y36690D01*
X482831Y35047D01*
X485324Y34014D01*
X488000Y33662D01*
X490676Y34014D01*
X493169Y35047D01*
X495310Y36690D01*
X496953Y38831D01*
X497986Y41324D01*
X498338Y44000D01*
X497986Y46676D01*
X496953Y49169D01*
X495310Y51310D01*
X493169Y52953D01*
X490676Y53986D01*
X488000Y54338D01*
D02*
G37*
G36*
X464000D02*
X461324Y53986D01*
X458831Y52953D01*
X456690Y51310D01*
X455047Y49169D01*
X454014Y46676D01*
X453662Y44000D01*
X454014Y41324D01*
X455047Y38831D01*
X456690Y36690D01*
X458831Y35047D01*
X461324Y34014D01*
X464000Y33662D01*
X466676Y34014D01*
X469169Y35047D01*
X471310Y36690D01*
X472953Y38831D01*
X473986Y41324D01*
X474338Y44000D01*
X473986Y46676D01*
X472953Y49169D01*
X471310Y51310D01*
X469169Y52953D01*
X466676Y53986D01*
X464000Y54338D01*
D02*
G37*
G36*
X234000D02*
X231324Y53986D01*
X228831Y52953D01*
X226690Y51310D01*
X225047Y49169D01*
X224014Y46676D01*
X223662Y44000D01*
X224014Y41324D01*
X225047Y38831D01*
X226690Y36690D01*
X228831Y35047D01*
X231324Y34014D01*
X234000Y33662D01*
X236676Y34014D01*
X239169Y35047D01*
X241310Y36690D01*
X242953Y38831D01*
X243986Y41324D01*
X244338Y44000D01*
X243986Y46676D01*
X242953Y49169D01*
X241310Y51310D01*
X239169Y52953D01*
X236676Y53986D01*
X234000Y54338D01*
D02*
G37*
G36*
X208000D02*
X205324Y53986D01*
X202831Y52953D01*
X200690Y51310D01*
X199047Y49169D01*
X198014Y46676D01*
X197662Y44000D01*
X198014Y41324D01*
X199047Y38831D01*
X200690Y36690D01*
X202831Y35047D01*
X205324Y34014D01*
X208000Y33662D01*
X210676Y34014D01*
X213169Y35047D01*
X215310Y36690D01*
X216953Y38831D01*
X217986Y41324D01*
X218339Y44000D01*
X217986Y46676D01*
X216953Y49169D01*
X215310Y51310D01*
X213169Y52953D01*
X210676Y53986D01*
X208000Y54338D01*
D02*
G37*
G36*
X183000D02*
X180324Y53986D01*
X177831Y52953D01*
X175690Y51310D01*
X174047Y49169D01*
X173014Y46676D01*
X172662Y44000D01*
X173014Y41324D01*
X174047Y38831D01*
X175690Y36690D01*
X177831Y35047D01*
X180324Y34014D01*
X183000Y33662D01*
X185676Y34014D01*
X188169Y35047D01*
X190310Y36690D01*
X191953Y38831D01*
X192986Y41324D01*
X193338Y44000D01*
X192986Y46676D01*
X191953Y49169D01*
X190310Y51310D01*
X188169Y52953D01*
X185676Y53986D01*
X183000Y54338D01*
D02*
G37*
G36*
X158000D02*
X155324Y53986D01*
X152831Y52953D01*
X150690Y51310D01*
X149047Y49169D01*
X148014Y46676D01*
X147662Y44000D01*
X148014Y41324D01*
X149047Y38831D01*
X150690Y36690D01*
X152831Y35047D01*
X155324Y34014D01*
X158000Y33662D01*
X160676Y34014D01*
X163169Y35047D01*
X165310Y36690D01*
X166953Y38831D01*
X167986Y41324D01*
X168338Y44000D01*
X167986Y46676D01*
X166953Y49169D01*
X165310Y51310D01*
X163169Y52953D01*
X160676Y53986D01*
X158000Y54338D01*
D02*
G37*
G36*
X132000D02*
X129324Y53986D01*
X126831Y52953D01*
X124690Y51310D01*
X123047Y49169D01*
X122014Y46676D01*
X121662Y44000D01*
X122014Y41324D01*
X123047Y38831D01*
X124690Y36690D01*
X126831Y35047D01*
X129324Y34014D01*
X132000Y33662D01*
X134676Y34014D01*
X137169Y35047D01*
X139310Y36690D01*
X140953Y38831D01*
X141986Y41324D01*
X142338Y44000D01*
X141986Y46676D01*
X140953Y49169D01*
X139310Y51310D01*
X137169Y52953D01*
X134676Y53986D01*
X132000Y54338D01*
D02*
G37*
G36*
X107000D02*
X104324Y53986D01*
X101831Y52953D01*
X99690Y51310D01*
X98047Y49169D01*
X97014Y46676D01*
X96662Y44000D01*
X97014Y41324D01*
X98047Y38831D01*
X99690Y36690D01*
X101831Y35047D01*
X104324Y34014D01*
X107000Y33662D01*
X109676Y34014D01*
X112169Y35047D01*
X114310Y36690D01*
X115953Y38831D01*
X116986Y41324D01*
X117338Y44000D01*
X116986Y46676D01*
X115953Y49169D01*
X114310Y51310D01*
X112169Y52953D01*
X109676Y53986D01*
X107000Y54338D01*
D02*
G37*
G36*
X81000D02*
X78324Y53986D01*
X75831Y52953D01*
X73690Y51310D01*
X72047Y49169D01*
X71014Y46676D01*
X70662Y44000D01*
X71014Y41324D01*
X72047Y38831D01*
X73690Y36690D01*
X75831Y35047D01*
X78324Y34014D01*
X81000Y33662D01*
X83676Y34014D01*
X86169Y35047D01*
X88310Y36690D01*
X89953Y38831D01*
X90986Y41324D01*
X91339Y44000D01*
X90986Y46676D01*
X89953Y49169D01*
X88310Y51310D01*
X86169Y52953D01*
X83676Y53986D01*
X81000Y54338D01*
D02*
G37*
G36*
X751440Y42730D02*
X739270D01*
Y33460D01*
X751440D01*
Y42730D01*
D02*
G37*
G36*
X736730D02*
X724560D01*
Y33460D01*
X736730D01*
Y42730D01*
D02*
G37*
G36*
X346472D02*
X336270D01*
Y32528D01*
X338013Y32757D01*
X340820Y33920D01*
X343230Y35770D01*
X345080Y38180D01*
X346243Y40987D01*
X346472Y42730D01*
D02*
G37*
G36*
X333730D02*
X323528D01*
X323757Y40987D01*
X324920Y38180D01*
X326770Y35770D01*
X329180Y33920D01*
X331987Y32757D01*
X333730Y32528D01*
Y42730D01*
D02*
G37*
%LPD*%
G36*
X505027Y117424D02*
X504401Y116253D01*
X504000Y116333D01*
X502342Y116003D01*
X500936Y115064D01*
X499997Y113658D01*
X499667Y112000D01*
X499997Y110342D01*
X500783Y109164D01*
Y107000D01*
X501028Y105769D01*
X501725Y104725D01*
X530995Y75456D01*
X530055Y74048D01*
X529647Y72000D01*
X530055Y69952D01*
X531215Y68215D01*
X531298Y68159D01*
X530913Y66889D01*
X521087D01*
X520702Y68159D01*
X520785Y68215D01*
X521945Y69952D01*
X522353Y72000D01*
X521945Y74048D01*
X520785Y75785D01*
X519048Y76945D01*
X517000Y77353D01*
X515196D01*
X490275Y102275D01*
X489231Y102972D01*
X488000Y103217D01*
X465332D01*
X430201Y138348D01*
X431011Y139334D01*
X431838Y138781D01*
X432730Y138604D01*
Y142730D01*
X427431D01*
X427318Y142683D01*
X427064Y143064D01*
X425658Y144003D01*
X424000Y144333D01*
X422342Y144003D01*
X420936Y143064D01*
X419997Y141658D01*
X419667Y140000D01*
X419997Y138342D01*
X420936Y136936D01*
X422342Y135997D01*
X423730Y135720D01*
X461725Y97725D01*
X462769Y97028D01*
X464000Y96783D01*
X479223D01*
X479608Y95513D01*
X478936Y95064D01*
X477997Y93658D01*
X477667Y92000D01*
X477997Y90342D01*
X478936Y88936D01*
X479202Y88758D01*
Y84581D01*
X479447Y83350D01*
X480144Y82306D01*
X489781Y72670D01*
X489647Y72000D01*
X490055Y69952D01*
X491215Y68215D01*
X491298Y68159D01*
X490913Y66889D01*
X481017D01*
X480632Y68159D01*
X480715Y68215D01*
X481875Y69952D01*
X482283Y72000D01*
X481875Y74048D01*
X480715Y75785D01*
X478978Y76945D01*
X476930Y77353D01*
X474930D01*
X474260Y77220D01*
X404809Y146670D01*
X405295Y147843D01*
X428558D01*
X429157Y146723D01*
X428782Y146162D01*
X428604Y145270D01*
X439396D01*
X439219Y146162D01*
X438843Y146723D01*
X439442Y147843D01*
X474608D01*
X505027Y117424D01*
D02*
G37*
G36*
X549781Y72670D02*
X549647Y72000D01*
X550055Y69952D01*
X551215Y68215D01*
X551298Y68159D01*
X550913Y66889D01*
X541087D01*
X540702Y68159D01*
X540785Y68215D01*
X541945Y69952D01*
X542353Y72000D01*
X541945Y74048D01*
X540785Y75785D01*
X539049Y76945D01*
X538410Y77072D01*
X538275Y77275D01*
X507217Y108332D01*
Y109164D01*
X508003Y110342D01*
X508333Y112000D01*
X508254Y112401D01*
X509424Y113027D01*
X549781Y72670D01*
D02*
G37*
G36*
X509946Y73504D02*
X509647Y72000D01*
X510055Y69952D01*
X511215Y68215D01*
X511298Y68159D01*
X510913Y66889D01*
X501087D01*
X500702Y68159D01*
X500785Y68215D01*
X501945Y69952D01*
X502353Y72000D01*
X501945Y74048D01*
X500785Y75785D01*
X499048Y76945D01*
X497000Y77353D01*
X495000D01*
X494330Y77220D01*
X485636Y85913D01*
Y89792D01*
X486003Y90342D01*
X486333Y92000D01*
X486003Y93658D01*
X485064Y95064D01*
X484392Y95513D01*
X484777Y96783D01*
X486668D01*
X509946Y73504D01*
D02*
G37*
%LPC*%
G36*
X439396Y142730D02*
X435270D01*
Y138604D01*
X436162Y138781D01*
X437994Y140006D01*
X439219Y141838D01*
X439396Y142730D01*
D02*
G37*
G36*
X469270Y139396D02*
Y135270D01*
X473396D01*
X473219Y136162D01*
X471994Y137994D01*
X470162Y139219D01*
X469270Y139396D01*
D02*
G37*
G36*
X466730D02*
X465838Y139219D01*
X464006Y137994D01*
X462781Y136162D01*
X462604Y135270D01*
X466730D01*
Y139396D01*
D02*
G37*
G36*
X473396Y132730D02*
X469270D01*
Y128604D01*
X470162Y128781D01*
X471994Y130006D01*
X473219Y131838D01*
X473396Y132730D01*
D02*
G37*
G36*
X466730D02*
X462604D01*
X462781Y131838D01*
X464006Y130006D01*
X465838Y128781D01*
X466730Y128604D01*
Y132730D01*
D02*
G37*
G36*
X493270Y119396D02*
Y115270D01*
X497396D01*
X497219Y116162D01*
X495994Y117994D01*
X494162Y119219D01*
X493270Y119396D01*
D02*
G37*
G36*
X490730D02*
X489838Y119219D01*
X488006Y117994D01*
X486781Y116162D01*
X486604Y115270D01*
X490730D01*
Y119396D01*
D02*
G37*
G36*
X469270D02*
Y115270D01*
X473396D01*
X473219Y116162D01*
X471994Y117994D01*
X470162Y119219D01*
X469270Y119396D01*
D02*
G37*
G36*
X466730D02*
X465838Y119219D01*
X464006Y117994D01*
X462781Y116162D01*
X462604Y115270D01*
X466730D01*
Y119396D01*
D02*
G37*
G36*
X497396Y112730D02*
X493270D01*
Y108604D01*
X494162Y108781D01*
X495994Y110006D01*
X497219Y111838D01*
X497396Y112730D01*
D02*
G37*
G36*
X490730D02*
X486604D01*
X486781Y111838D01*
X488006Y110006D01*
X489838Y108781D01*
X490730Y108604D01*
Y112730D01*
D02*
G37*
G36*
X473396D02*
X469270D01*
Y108604D01*
X470162Y108781D01*
X471994Y110006D01*
X473219Y111838D01*
X473396Y112730D01*
D02*
G37*
G36*
X466730D02*
X462604D01*
X462781Y111838D01*
X464006Y110006D01*
X465838Y108781D01*
X466730Y108604D01*
Y112730D01*
D02*
G37*
%LPD*%
D17*
X86988Y144886D02*
D03*
Y168000D02*
D03*
Y191114D02*
D03*
D18*
X25010Y168000D02*
D03*
D20*
X738000Y44000D02*
D03*
X646000D02*
D03*
D22*
X288500Y94500D02*
D03*
Y77500D02*
D03*
X275500D02*
D03*
Y94500D02*
D03*
D24*
X416000Y72000D02*
D03*
X436000D02*
D03*
X456000D02*
D03*
X475930D02*
D03*
X496000D02*
D03*
X516000D02*
D03*
X536000D02*
D03*
X556000D02*
D03*
Y232000D02*
D03*
X536000D02*
D03*
X516000D02*
D03*
X496000D02*
D03*
X476000D02*
D03*
X456000D02*
D03*
X436000D02*
D03*
X416000D02*
D03*
D25*
X175450Y221000D02*
D03*
X188150D02*
D03*
X200850D02*
D03*
X213550D02*
D03*
X226250D02*
D03*
X238950D02*
D03*
X251650D02*
D03*
X264350D02*
D03*
X277050D02*
D03*
X289750D02*
D03*
X302450D02*
D03*
X315150D02*
D03*
X327850D02*
D03*
X340550D02*
D03*
Y127000D02*
D03*
X327850D02*
D03*
X315150D02*
D03*
X302450D02*
D03*
X289750D02*
D03*
X277050D02*
D03*
X264350D02*
D03*
X251650D02*
D03*
X238950D02*
D03*
X226250D02*
D03*
X213550D02*
D03*
X200850D02*
D03*
X188150D02*
D03*
X175450D02*
D03*
D41*
X598000Y152250D02*
D03*
Y135750D02*
D03*
X610000Y72250D02*
D03*
Y55750D02*
D03*
X176000Y96250D02*
D03*
Y79750D02*
D03*
D42*
X344000Y100000D02*
D03*
X328000D02*
D03*
X242000Y94000D02*
D03*
X258000D02*
D03*
X322000Y78000D02*
D03*
X306000D02*
D03*
X104000Y210000D02*
D03*
X88000D02*
D03*
D43*
X124000Y168000D02*
D03*
Y152000D02*
D03*
X146000Y200000D02*
D03*
Y184000D02*
D03*
D44*
X445785Y202785D02*
X475000Y232000D01*
X321215Y202785D02*
X445785D01*
X315150Y208850D02*
X321215Y202785D01*
X482000Y92000D02*
X482419Y91581D01*
Y84581D02*
Y91581D01*
Y84581D02*
X495000Y72000D01*
X496000D01*
X586000Y152000D02*
X586250Y152250D01*
X598000D01*
X488000Y100000D02*
X516000Y72000D01*
X464000Y100000D02*
X488000D01*
X424000Y140000D02*
X464000Y100000D01*
X504000Y107000D02*
Y112000D01*
Y107000D02*
X536000Y75000D01*
X611875Y135875D02*
X612000Y136000D01*
X611750Y135750D02*
X611875Y135875D01*
X598000Y135750D02*
X611750D01*
X664000Y28000D02*
X714000Y78000D01*
X453000Y28000D02*
X664000D01*
X437000Y44000D02*
X453000Y28000D01*
X487845Y165845D02*
X488000Y166000D01*
X294649Y165845D02*
X487845D01*
X536000Y72000D02*
Y75000D01*
X286494Y174000D02*
X294649Y165845D01*
X210000Y174000D02*
X286494D01*
X536000Y182000D02*
Y232000D01*
X204000Y158000D02*
X512000D01*
X536000Y182000D01*
X200850Y203150D02*
X202000Y202000D01*
X200850Y203150D02*
Y221000D01*
X240000Y70000D02*
X246327Y63672D01*
X179500Y70000D02*
X216000D01*
X176000Y73500D02*
X179500Y70000D01*
X176000Y73500D02*
Y79750D01*
X246327Y63672D02*
X601328D01*
X610000Y55750D02*
X610750D01*
X609250D02*
X610000D01*
X601328Y63672D02*
X609250Y55750D01*
X226250Y71750D02*
Y127000D01*
X226125Y127125D02*
X226250Y127000D01*
X240000Y58000D02*
X423000D01*
X226250Y71750D02*
X240000Y58000D01*
X590000Y76000D02*
X593750Y72250D01*
X610000D01*
X496000Y232000D02*
X501077Y237078D01*
Y241077D01*
X214000Y221450D02*
Y236000D01*
X213550Y221000D02*
X214000Y221450D01*
X226000Y221250D02*
Y236000D01*
Y221250D02*
X226250Y221000D01*
X302450Y113550D02*
Y127000D01*
Y113550D02*
X308000Y108000D01*
X516000Y220000D02*
Y232000D01*
X384000Y80000D02*
X398000Y94000D01*
X362000Y80000D02*
X384000D01*
X119155Y251155D02*
Y264085D01*
X88000Y220000D02*
X119155Y251155D01*
X88000Y210000D02*
Y220000D01*
Y192126D02*
Y210000D01*
X86988Y191114D02*
X88000Y192126D01*
X368000Y108000D02*
Y114000D01*
X350000Y90000D02*
X368000Y108000D01*
X328000Y90000D02*
X350000D01*
X328000D02*
Y100000D01*
X356000Y184000D02*
X368000Y172000D01*
X272000Y184000D02*
X356000D01*
X234000D02*
X272000D01*
X170000D02*
X234000D01*
X238950Y188950D01*
Y221000D01*
X272000Y184000D02*
X277050Y189050D01*
Y221000D01*
X714000Y78000D02*
Y186000D01*
X690000Y210000D02*
X714000Y186000D01*
X291740Y278000D02*
X310000Y259740D01*
X133070Y278000D02*
X291740D01*
X119155Y264085D02*
X133070Y278000D01*
X146000Y174000D02*
Y184000D01*
X140000Y168000D02*
X146000Y174000D01*
X423000Y58000D02*
X437000Y44000D01*
X175450Y127000D02*
X175725Y126725D01*
Y96525D02*
Y126725D01*
Y96525D02*
X176000Y96250D01*
X188150Y142150D02*
X204000Y158000D01*
X188150Y127000D02*
Y142150D01*
X213060Y151060D02*
X475940D01*
X200850Y138850D02*
X213060Y151060D01*
X200850Y127000D02*
Y138850D01*
X322000Y146000D02*
X400930D01*
X315150Y139150D02*
X322000Y146000D01*
X315150Y127000D02*
Y139150D01*
X327850Y102150D02*
Y127000D01*
X277050Y115050D02*
Y127000D01*
X273000Y111000D02*
X277050Y115050D01*
X263000Y111000D02*
X273000D01*
X258000Y106000D02*
X263000Y111000D01*
X258000Y94000D02*
Y106000D01*
X276275Y126225D02*
X277050Y127000D01*
X316000Y196000D02*
X412000D01*
X302450Y209550D02*
X316000Y196000D01*
X302450Y209550D02*
Y221000D01*
X315150Y208850D02*
Y221000D01*
X330155Y207845D02*
X430845D01*
X327850Y210150D02*
X330155Y207845D01*
X327850Y210150D02*
Y221000D01*
X430845Y207845D02*
X455000Y232000D01*
X428000Y220000D02*
X428419Y220419D01*
Y224842D01*
X435577Y232000D01*
X436000D01*
X434198Y230198D02*
X436000Y232000D01*
X302450Y221000D02*
Y228000D01*
X275000Y94000D02*
X275500Y94500D01*
X258000Y94000D02*
X275000D01*
X289750Y110250D02*
Y127000D01*
Y110250D02*
X306000Y94000D01*
Y78000D02*
Y94000D01*
X289000Y78000D02*
X306000D01*
X288500Y77500D02*
X289000Y78000D01*
X175450Y189450D02*
Y221000D01*
X170000Y184000D02*
X175450Y189450D01*
X174450Y222000D02*
X175450Y221000D01*
X146000Y184000D02*
X170000D01*
X124000Y168000D02*
X140000D01*
X86988D02*
X124000D01*
X555000Y72000D02*
X556000D01*
X475940Y151060D02*
X555000Y72000D01*
X239581Y143581D02*
X240000Y144000D01*
X239581Y127631D02*
Y143581D01*
X238950Y127000D02*
X239581Y127631D01*
X400930Y146000D02*
X474930Y72000D01*
X251825Y204175D02*
X252000Y204000D01*
X251650Y221000D02*
X251825Y220825D01*
Y204175D02*
Y220825D01*
X646000Y44000D02*
Y60000D01*
X626000Y80000D02*
X646000Y60000D01*
X626000Y80000D02*
Y154000D01*
X640000Y168000D01*
X648000D01*
X664600Y184600D01*
X251825Y143825D02*
X252000Y144000D01*
X251825Y127175D02*
Y143825D01*
X251650Y127000D02*
X251825Y127175D01*
X213775Y110225D02*
X214000Y110000D01*
X213775Y110225D02*
Y126775D01*
X213550Y127000D02*
X213775Y126775D01*
X264000Y204000D02*
X264175Y204175D01*
Y220825D01*
X264350Y221000D01*
X475000Y232000D02*
X476000D01*
X455000D02*
X456000D01*
X474930Y72000D02*
X475930D01*
X622500Y44000D02*
X646000D01*
X610750Y55750D02*
X622500Y44000D01*
X275500Y94500D02*
X276275Y95275D01*
D45*
X564000Y259740D02*
D03*
Y44000D02*
D03*
D46*
X234000Y259740D02*
D03*
X539000D02*
D03*
X208000D02*
D03*
X514000D02*
D03*
X183000D02*
D03*
X488000D02*
D03*
X158000D02*
D03*
X464000D02*
D03*
X132000D02*
D03*
X437000D02*
D03*
X285000D02*
D03*
X310000D02*
D03*
X335000D02*
D03*
X361000D02*
D03*
X386000D02*
D03*
X412000D02*
D03*
X107000D02*
D03*
X81000D02*
D03*
Y44000D02*
D03*
X107000D02*
D03*
X412000D02*
D03*
X386000D02*
D03*
X361000D02*
D03*
X335000D02*
D03*
X310000D02*
D03*
X285000D02*
D03*
X437000D02*
D03*
X132000D02*
D03*
X464000D02*
D03*
X158000D02*
D03*
X488000D02*
D03*
X183000D02*
D03*
X514000D02*
D03*
X208000D02*
D03*
X539000D02*
D03*
X234000D02*
D03*
X259000D02*
D03*
D47*
X684000Y135000D02*
D03*
D48*
Y110000D02*
D03*
D49*
X664600Y184600D02*
D03*
D50*
X690000D02*
D03*
Y210000D02*
D03*
Y235100D02*
D03*
X664600D02*
D03*
Y210000D02*
D03*
D51*
X482000Y92000D02*
D03*
X586000Y152000D02*
D03*
X504000Y112000D02*
D03*
X611875Y135875D02*
D03*
X340000Y110000D02*
D03*
X358000Y122000D02*
D03*
X394000Y78000D02*
D03*
X382000Y90000D02*
D03*
X362000D02*
D03*
X568000Y240000D02*
D03*
X546000D02*
D03*
X330000Y238000D02*
D03*
X284000D02*
D03*
X260000D02*
D03*
X258000Y266000D02*
D03*
X170000Y66000D02*
D03*
X146000Y74000D02*
D03*
X234000Y78000D02*
D03*
X250000Y108000D02*
D03*
X262000Y82000D02*
D03*
X216000Y94000D02*
D03*
X192000D02*
D03*
X222000Y144000D02*
D03*
X290000D02*
D03*
X272000D02*
D03*
X242000Y166000D02*
D03*
X272000D02*
D03*
X300000Y176000D02*
D03*
X266000Y192000D02*
D03*
X188000Y198000D02*
D03*
X220000D02*
D03*
X292000D02*
D03*
X380000Y174000D02*
D03*
X392000Y186000D02*
D03*
X434000Y144000D02*
D03*
X678000Y198000D02*
D03*
X624000Y36000D02*
D03*
Y66000D02*
D03*
X592000Y46000D02*
D03*
X686000Y72000D02*
D03*
X672000D02*
D03*
X658000D02*
D03*
X636000Y106000D02*
D03*
Y120000D02*
D03*
Y148000D02*
D03*
X578000Y96000D02*
D03*
X598000D02*
D03*
Y120000D02*
D03*
X602000Y208000D02*
D03*
Y228000D02*
D03*
X578000D02*
D03*
X500000Y178000D02*
D03*
X520000D02*
D03*
Y202000D02*
D03*
X524000Y130000D02*
D03*
X544000D02*
D03*
Y154000D02*
D03*
X468000Y134000D02*
D03*
Y114000D02*
D03*
X492000D02*
D03*
X478000Y202000D02*
D03*
X458000D02*
D03*
Y178000D02*
D03*
X196150Y170150D02*
D03*
X186150D02*
D03*
X176150D02*
D03*
Y158150D02*
D03*
Y146150D02*
D03*
X88000Y238000D02*
D03*
X68000D02*
D03*
Y214000D02*
D03*
X156000Y208000D02*
D03*
Y228000D02*
D03*
X132000D02*
D03*
X108000Y186000D02*
D03*
X128000D02*
D03*
Y210000D02*
D03*
X132500Y136750D02*
D03*
X152500D02*
D03*
Y160750D02*
D03*
X110000Y98000D02*
D03*
X86000D02*
D03*
Y118000D02*
D03*
X488000Y166000D02*
D03*
X210000Y174000D02*
D03*
X202000Y202000D02*
D03*
X240000Y70000D02*
D03*
X216000D02*
D03*
X590000Y76000D02*
D03*
X501077Y241077D02*
D03*
X214000Y238000D02*
D03*
X424000Y140000D02*
D03*
X226000Y238000D02*
D03*
X516000Y220000D02*
D03*
X398000Y94000D02*
D03*
X362000Y80000D02*
D03*
X308000Y108000D02*
D03*
X368000Y114000D02*
D03*
Y172000D02*
D03*
X428000Y220000D02*
D03*
X412000Y196000D02*
D03*
X240000Y144000D02*
D03*
X252000Y204000D02*
D03*
X214000Y110000D02*
D03*
X252000Y144000D02*
D03*
X264000Y204000D02*
D03*
M02*
