M48
;Layer_Color=9474304
;FILE_FORMAT=4:4
METRIC,LZ
;TYPE=PLATED
T1F00S00C0.3000
T2F00S00C1.2000
%
T01
X00482Y00092
X00492Y00114
X00504Y00112
X00524Y0013
X00544
X00598Y0012
Y00096
X00578
X0059Y00076
X00592Y00046
X00624Y00036
Y00066
X00658Y00072
X00672
X00686
X00636Y00106
Y0012
X00468Y00114
X00398Y00094
X00382Y0009
X00362
Y0008
X00394Y00078
X00368Y00114
X00358Y00122
X0034Y0011
X00308Y00108
X0025
X00262Y00082
X00234Y00078
X0024Y0007
X00216
Y00094
X00214Y0011
X00192Y00094
X0017Y00066
X00146Y00074
X0011Y00098
X00086
Y00118
X001325Y0013675
X001525
Y0016075
X0017615Y0015815
Y0017015
X0018615
X0019615
X0021Y00174
X0022Y00198
X00202Y00202
X00188Y00198
X00156Y00208
Y00228
X00132
X00128Y0021
Y00186
X00108
X00068Y00214
Y00238
X00088
X00214Y00238
X00226
X0026
X00284
X0033
X00292Y00198
X003Y00176
X00272Y00166
Y00144
X0029
X00252
X0024
X00222
X00242Y00166
X00252Y00204
X00264
X00266Y00192
X00258Y00266
X0017615Y0014615
X00368Y00172
X0038Y00174
X00392Y00186
X00412Y00196
X00428Y0022
X00458Y00202
X00478
X0052Y00202
X00516Y0022
X00501077Y00241077
X00546Y0024
X00568
X00578Y00228
X00602
Y00208
X00586Y00152
X00611875Y00135875
X00636Y00148
X00678Y00198
X0052Y00178
X005
X00488Y00166
X00458Y00178
X00468Y00134
X00434Y00144
X00424Y0014
X00544Y00154
T02
X00412Y00044
X00437
X00464
X00488
X00514
X00539
X00564
X00684Y0011
X00386Y00044
X00361
X00335
X0031
X00285
X00259
X00234
X00208
X00183
X00158
X00132
X00107
X00081
Y0025974
X00107
X00132
X00158
X00183
X00208
X00234
X00285
X0031
X00335
X00361
X00386
X00412
X00437
X00464
X00488
X00514
X00539
X00564
X006646Y002351
Y0021
Y001846
X0069
Y0021
Y002351
X00684Y00135
M30
