G04*
G04 #@! TF.GenerationSoftware,Altium Limited,Altium Designer,19.1.5 (86)*
G04*
G04 Layer_Color=32896*
%FSLAX44Y44*%
%MOMM*%
G71*
G01*
G75*
%ADD52R,18.0000X0.5450*%
%ADD53R,18.0000X0.5460*%
%ADD54R,1.0910X0.5450*%
%ADD55R,0.5460X0.5450*%
%ADD56R,0.5450X0.5450*%
%ADD57R,0.5450X0.5450*%
%ADD58R,0.5460X0.5450*%
%ADD59R,1.0910X0.5450*%
%ADD60R,2.1820X0.5450*%
%ADD61R,1.0910X0.5460*%
%ADD62R,2.7280X0.5460*%
%ADD63R,0.5460X0.5460*%
%ADD64R,0.5450X0.5460*%
%ADD65R,0.5450X0.5460*%
%ADD66R,0.5460X0.5460*%
%ADD67R,1.6360X0.5460*%
%ADD68R,1.0910X0.5450*%
%ADD69R,0.5460X0.5450*%
%ADD70R,1.6370X0.5450*%
%ADD71R,1.6360X0.5450*%
%ADD72R,2.1820X0.5460*%
%ADD73R,1.0910X0.5460*%
%ADD74R,0.5450X0.5450*%
%ADD75R,1.6370X0.5450*%
%ADD76R,2.1820X0.5450*%
%ADD77R,1.0910X0.5460*%
%ADD78R,2.7280X0.5460*%
%ADD79R,1.6360X0.5460*%
%ADD80R,1.0910X0.5460*%
%ADD81R,2.1820X0.5460*%
%ADD82R,1.6370X0.5460*%
%ADD83R,0.5460X0.5450*%
%ADD84R,5.4550X0.5460*%
%ADD85R,1.6370X0.5460*%
%ADD86R,1.0910X0.5450*%
%ADD87R,0.5450X0.5450*%
%ADD88R,0.5460X0.5460*%
%ADD89R,0.5450X0.5460*%
%ADD90R,3.8180X0.5460*%
%ADD91R,3.2730X0.5460*%
%ADD92R,5.4550X0.5450*%
%ADD93R,2.7270X0.5460*%
%ADD94R,3.2730X0.5450*%
%ADD95R,1.0900X0.5460*%
%ADD96R,3.2730X0.5460*%
%ADD97R,1.6370X0.5450*%
%ADD98R,6.0000X0.5460*%
%ADD99R,2.7270X0.5450*%
%ADD100R,1.6360X0.5460*%
%ADD101R,18.0000X0.5460*%
G36*
X652000Y11140D02*
X575706D01*
Y288000D01*
X652000D01*
Y11140D01*
D02*
G37*
%LPC*%
G36*
X634126Y282920D02*
X580786D01*
Y282614D01*
X634126D01*
Y282920D01*
D02*
G37*
G36*
Y282000D02*
X580786D01*
Y281694D01*
X634126D01*
Y282000D01*
D02*
G37*
G36*
Y281387D02*
X580786D01*
Y280774D01*
X634126D01*
Y281387D01*
D02*
G37*
G36*
Y280468D02*
X580786D01*
Y279855D01*
X634126D01*
Y280468D01*
D02*
G37*
G36*
Y279548D02*
X580786D01*
Y279241D01*
X634126D01*
Y279548D01*
D02*
G37*
G36*
Y278935D02*
X580786D01*
Y278628D01*
X634126D01*
Y278935D01*
D02*
G37*
G36*
Y278015D02*
X580786D01*
Y277709D01*
X634126D01*
Y278015D01*
D02*
G37*
G36*
Y277402D02*
X580786D01*
Y277096D01*
X634126D01*
Y277402D01*
D02*
G37*
G36*
X646920Y282462D02*
X637158D01*
Y281258D01*
X640649D01*
X640635Y281243D01*
X640605Y281213D01*
X640560Y281169D01*
X640501Y281109D01*
X640427Y281020D01*
X640338Y280931D01*
X640263Y280812D01*
X640159Y280679D01*
X640070Y280530D01*
X639996Y280381D01*
X639832Y280010D01*
X639773Y279817D01*
X639728Y279609D01*
X639698Y279386D01*
X639684Y279148D01*
Y279014D01*
X639698Y278866D01*
X639728Y278687D01*
X639758Y278479D01*
X639817Y278256D01*
X639892Y278019D01*
X639996Y277796D01*
X640011Y277766D01*
X640055Y277707D01*
X640129Y277603D01*
X640219Y277469D01*
X640338Y277335D01*
X640486Y277201D01*
X640664Y277068D01*
X640857Y276964D01*
X640887Y276949D01*
X640962Y276919D01*
X641080Y276889D01*
X641259Y276830D01*
X641482Y276786D01*
X641764Y276756D01*
X642076Y276726D01*
X642448Y276711D01*
X646920D01*
Y277915D01*
X642284D01*
X642135Y277930D01*
X641927Y277959D01*
X641719Y278019D01*
X641511Y278078D01*
X641303Y278182D01*
X641125Y278316D01*
X641110Y278331D01*
X641066Y278390D01*
X640991Y278479D01*
X640917Y278598D01*
X640843Y278747D01*
X640768Y278940D01*
X640724Y279148D01*
X640709Y279401D01*
Y279490D01*
X640724Y279594D01*
X640739Y279727D01*
X640783Y279876D01*
X640828Y280054D01*
X640902Y280233D01*
X640991Y280411D01*
X641006Y280426D01*
X641036Y280485D01*
X641110Y280560D01*
X641184Y280664D01*
X641303Y280768D01*
X641422Y280886D01*
X641586Y280976D01*
X641749Y281065D01*
X641764Y281080D01*
X641838Y281095D01*
X641942Y281124D01*
X642091Y281154D01*
X642284Y281199D01*
X642507Y281228D01*
X642759Y281243D01*
X643057Y281258D01*
X646920D01*
Y282462D01*
D02*
G37*
G36*
X634126Y276482D02*
X580786D01*
Y276176D01*
X634126D01*
Y276482D01*
D02*
G37*
G36*
Y275563D02*
X580786D01*
Y275256D01*
X634126D01*
Y275563D01*
D02*
G37*
G36*
Y274950D02*
X580786D01*
Y274643D01*
X634126D01*
Y274950D01*
D02*
G37*
G36*
Y274336D02*
X580786D01*
Y274030D01*
X634126D01*
Y274336D01*
D02*
G37*
G36*
Y273723D02*
X580786D01*
Y273110D01*
X634126D01*
Y273723D01*
D02*
G37*
G36*
Y272804D02*
X580786D01*
Y272191D01*
X634126D01*
Y272804D01*
D02*
G37*
G36*
Y271578D02*
X580786D01*
Y271271D01*
X634126D01*
Y271578D01*
D02*
G37*
G36*
X640783Y274232D02*
X639847D01*
Y273341D01*
X638109D01*
X637380Y272137D01*
X639847D01*
Y270933D01*
X640783D01*
Y272137D01*
X645092D01*
X645196Y272122D01*
X645419Y272107D01*
X645508Y272092D01*
X645583Y272078D01*
X645612Y272063D01*
X645672Y272033D01*
X645746Y271974D01*
X645820Y271884D01*
X645835Y271855D01*
X645850Y271780D01*
X645880Y271647D01*
X645895Y271468D01*
Y271320D01*
X645880Y271245D01*
Y271156D01*
X645850Y270933D01*
X646905Y270770D01*
Y270800D01*
X646920Y270859D01*
X646935Y270948D01*
X646950Y271082D01*
X646980Y271216D01*
X646994Y271364D01*
X647009Y271676D01*
Y271780D01*
X646994Y271899D01*
X646980Y272048D01*
X646965Y272211D01*
X646920Y272390D01*
X646875Y272553D01*
X646816Y272702D01*
X646801Y272717D01*
X646771Y272761D01*
X646727Y272821D01*
X646667Y272895D01*
X646593Y272984D01*
X646504Y273058D01*
X646400Y273148D01*
X646281Y273207D01*
X646266D01*
X646207Y273222D01*
X646118Y273251D01*
X645969Y273266D01*
X645776Y273296D01*
X645672Y273311D01*
X645538Y273326D01*
X645389D01*
X645226Y273341D01*
X640783D01*
Y274232D01*
D02*
G37*
G36*
X634126Y270965D02*
X580786D01*
Y270658D01*
X634126D01*
Y270965D01*
D02*
G37*
G36*
Y270045D02*
X580786D01*
Y269738D01*
X634126D01*
Y270045D01*
D02*
G37*
G36*
Y269432D02*
X580786D01*
Y269125D01*
X634126D01*
Y269432D01*
D02*
G37*
G36*
Y268512D02*
X580786D01*
Y268206D01*
X634126D01*
Y268512D01*
D02*
G37*
G36*
Y267592D02*
X580786D01*
Y267286D01*
X634126D01*
Y267592D01*
D02*
G37*
G36*
Y266979D02*
X580786D01*
Y266673D01*
X634126D01*
Y266979D01*
D02*
G37*
G36*
Y266366D02*
X580786D01*
Y266060D01*
X634126D01*
Y266366D01*
D02*
G37*
G36*
Y265753D02*
X580786D01*
Y265140D01*
X634126D01*
Y265753D01*
D02*
G37*
G36*
Y264833D02*
X580786D01*
Y264220D01*
X634126D01*
Y264833D01*
D02*
G37*
G36*
X640783Y267214D02*
X639847D01*
Y266322D01*
X638109D01*
X637380Y265119D01*
X639847D01*
Y263915D01*
X640783D01*
Y265119D01*
X645092D01*
X645196Y265104D01*
X645419Y265089D01*
X645508Y265074D01*
X645583Y265059D01*
X645612Y265044D01*
X645672Y265015D01*
X645746Y264955D01*
X645820Y264866D01*
X645835Y264836D01*
X645850Y264762D01*
X645880Y264628D01*
X645895Y264450D01*
Y264301D01*
X645880Y264227D01*
Y264138D01*
X645850Y263915D01*
X646905Y263752D01*
Y263781D01*
X646920Y263841D01*
X646935Y263930D01*
X646950Y264064D01*
X646980Y264197D01*
X646994Y264346D01*
X647009Y264658D01*
Y264762D01*
X646994Y264881D01*
X646980Y265030D01*
X646965Y265193D01*
X646920Y265371D01*
X646875Y265535D01*
X646816Y265683D01*
X646801Y265698D01*
X646771Y265743D01*
X646727Y265802D01*
X646667Y265877D01*
X646593Y265966D01*
X646504Y266040D01*
X646400Y266129D01*
X646281Y266189D01*
X646266D01*
X646207Y266203D01*
X646118Y266233D01*
X645969Y266248D01*
X645776Y266278D01*
X645672Y266292D01*
X645538Y266307D01*
X645389D01*
X645226Y266322D01*
X640783D01*
Y267214D01*
D02*
G37*
G36*
X634126Y263607D02*
X580786D01*
Y263301D01*
X634126D01*
Y263607D01*
D02*
G37*
G36*
Y262994D02*
X580786D01*
Y262687D01*
X634126D01*
Y262994D01*
D02*
G37*
G36*
Y262074D02*
X580786D01*
Y261768D01*
X634126D01*
Y262074D01*
D02*
G37*
G36*
Y261461D02*
X580786D01*
Y261155D01*
X634126D01*
Y261461D01*
D02*
G37*
G36*
Y260542D02*
X580786D01*
Y260235D01*
X634126D01*
Y260542D01*
D02*
G37*
G36*
Y259622D02*
X580786D01*
Y259315D01*
X634126D01*
Y259622D01*
D02*
G37*
G36*
Y259009D02*
X580786D01*
Y258702D01*
X634126D01*
Y259009D01*
D02*
G37*
G36*
Y258396D02*
X580786D01*
Y257783D01*
X634126D01*
Y258396D01*
D02*
G37*
G36*
Y257476D02*
X580786D01*
Y256863D01*
X634126D01*
Y257476D01*
D02*
G37*
G36*
Y256556D02*
X580786D01*
Y256250D01*
X634126D01*
Y256556D01*
D02*
G37*
G36*
Y255637D02*
X580786D01*
Y255330D01*
X634126D01*
Y255637D01*
D02*
G37*
G36*
X649624Y261406D02*
X639847D01*
Y260307D01*
X640768D01*
X640739Y260292D01*
X640679Y260247D01*
X640590Y260158D01*
X640471Y260054D01*
X640338Y259935D01*
X640204Y259787D01*
X640070Y259623D01*
X639966Y259445D01*
X639951Y259415D01*
X639921Y259356D01*
X639877Y259252D01*
X639817Y259118D01*
X639773Y258940D01*
X639728Y258747D01*
X639698Y258524D01*
X639684Y258271D01*
Y258123D01*
X639713Y257944D01*
X639743Y257736D01*
X639803Y257484D01*
X639877Y257216D01*
X639996Y256949D01*
X640159Y256681D01*
Y256666D01*
X640174Y256651D01*
X640248Y256562D01*
X640352Y256444D01*
X640501Y256280D01*
X640679Y256117D01*
X640917Y255938D01*
X641170Y255775D01*
X641482Y255626D01*
X641497D01*
X641526Y255611D01*
X641571Y255597D01*
X641630Y255567D01*
X641704Y255537D01*
X641808Y255507D01*
X642031Y255448D01*
X642314Y255389D01*
X642626Y255329D01*
X642968Y255285D01*
X643339Y255270D01*
X643517D01*
X643621Y255285D01*
X643725D01*
X643993Y255314D01*
X644290Y255374D01*
X644617Y255433D01*
X644959Y255537D01*
X645300Y255671D01*
X645315D01*
X645345Y255686D01*
X645389Y255715D01*
X645449Y255745D01*
X645598Y255834D01*
X645791Y255953D01*
X645999Y256117D01*
X646222Y256310D01*
X646430Y256533D01*
X646623Y256800D01*
Y256815D01*
X646638Y256830D01*
X646667Y256874D01*
X646697Y256934D01*
X646771Y257082D01*
X646846Y257276D01*
X646935Y257513D01*
X647009Y257766D01*
X647069Y258063D01*
X647084Y258360D01*
Y258464D01*
X647069Y258568D01*
X647054Y258717D01*
X647024Y258880D01*
X646980Y259059D01*
X646920Y259252D01*
X646846Y259430D01*
X646831Y259445D01*
X646801Y259504D01*
X646742Y259594D01*
X646667Y259698D01*
X646578Y259831D01*
X646474Y259950D01*
X646340Y260084D01*
X646207Y260203D01*
X649624D01*
Y261406D01*
D02*
G37*
G36*
X634126Y255024D02*
X580786D01*
Y254717D01*
X634126D01*
Y255024D01*
D02*
G37*
G36*
Y254104D02*
X580786D01*
Y253797D01*
X634126D01*
Y254104D01*
D02*
G37*
G36*
Y253491D02*
X580786D01*
Y253184D01*
X634126D01*
Y253491D01*
D02*
G37*
G36*
Y252571D02*
X580786D01*
Y252265D01*
X634126D01*
Y252571D01*
D02*
G37*
G36*
Y251652D02*
X580786D01*
Y251345D01*
X634126D01*
Y251652D01*
D02*
G37*
G36*
Y251038D02*
X580786D01*
Y250732D01*
X634126D01*
Y251038D01*
D02*
G37*
G36*
X644810Y254485D02*
X644617Y253296D01*
X644647D01*
X644736Y253281D01*
X644870Y253236D01*
X645033Y253192D01*
X645211Y253118D01*
X645389Y253028D01*
X645568Y252895D01*
X645731Y252746D01*
X645746Y252731D01*
X645791Y252657D01*
X645850Y252553D01*
X645910Y252419D01*
X645984Y252226D01*
X646043Y252018D01*
X646088Y251751D01*
X646103Y251468D01*
Y251334D01*
X646088Y251186D01*
X646058Y251007D01*
X646029Y250800D01*
X645969Y250592D01*
X645880Y250398D01*
X645776Y250235D01*
X645761Y250220D01*
X645716Y250175D01*
X645642Y250101D01*
X645553Y250027D01*
X645434Y249967D01*
X645285Y249893D01*
X645137Y249848D01*
X644974Y249834D01*
X644899D01*
X644840Y249848D01*
X644736Y249878D01*
X644647Y249923D01*
X644528Y249982D01*
X644424Y250071D01*
X644335Y250190D01*
X644320Y250205D01*
X644305Y250250D01*
X644275Y250324D01*
X644216Y250443D01*
X644171Y250606D01*
X644097Y250814D01*
X644052Y250948D01*
X644023Y251082D01*
X643978Y251245D01*
X643933Y251424D01*
Y251439D01*
X643919Y251483D01*
X643904Y251542D01*
X643874Y251632D01*
X643844Y251751D01*
X643814Y251869D01*
X643725Y252152D01*
X643636Y252449D01*
X643547Y252761D01*
X643443Y253043D01*
X643398Y253162D01*
X643354Y253266D01*
X643339Y253281D01*
X643309Y253355D01*
X643250Y253444D01*
X643176Y253548D01*
X643086Y253682D01*
X642968Y253801D01*
X642834Y253935D01*
X642685Y254039D01*
X642670Y254054D01*
X642611Y254083D01*
X642522Y254113D01*
X642403Y254158D01*
X642269Y254217D01*
X642106Y254247D01*
X641927Y254277D01*
X641734Y254291D01*
X641660D01*
X641556Y254277D01*
X641452Y254262D01*
X641318Y254247D01*
X641170Y254202D01*
X641006Y254158D01*
X640857Y254083D01*
X640843Y254069D01*
X640783Y254039D01*
X640709Y253994D01*
X640620Y253920D01*
X640516Y253846D01*
X640412Y253742D01*
X640293Y253623D01*
X640189Y253489D01*
X640174Y253474D01*
X640159Y253430D01*
X640115Y253370D01*
X640070Y253281D01*
X640011Y253177D01*
X639951Y253043D01*
X639892Y252895D01*
X639832Y252731D01*
Y252701D01*
X639803Y252642D01*
X639788Y252553D01*
X639758Y252419D01*
X639728Y252256D01*
X639713Y252092D01*
X639684Y251899D01*
Y251557D01*
X639698Y251394D01*
X639713Y251201D01*
X639743Y250963D01*
X639788Y250725D01*
X639847Y250473D01*
X639936Y250235D01*
Y250220D01*
X639951Y250205D01*
X639981Y250131D01*
X640040Y250012D01*
X640100Y249878D01*
X640204Y249730D01*
X640308Y249566D01*
X640442Y249418D01*
X640590Y249299D01*
X640605Y249284D01*
X640664Y249254D01*
X640753Y249195D01*
X640872Y249121D01*
X641021Y249061D01*
X641214Y248987D01*
X641422Y248927D01*
X641660Y248868D01*
X641823Y250042D01*
X641794D01*
X641734Y250057D01*
X641630Y250086D01*
X641511Y250131D01*
X641378Y250190D01*
X641244Y250280D01*
X641095Y250383D01*
X640976Y250517D01*
X640962Y250532D01*
X640932Y250592D01*
X640872Y250681D01*
X640813Y250800D01*
X640768Y250948D01*
X640709Y251141D01*
X640679Y251349D01*
X640664Y251602D01*
Y251736D01*
X640679Y251884D01*
X640694Y252062D01*
X640739Y252256D01*
X640783Y252449D01*
X640857Y252642D01*
X640947Y252791D01*
X640962Y252806D01*
X640991Y252850D01*
X641051Y252895D01*
X641125Y252954D01*
X641214Y253028D01*
X641333Y253073D01*
X641452Y253118D01*
X641586Y253132D01*
X641630D01*
X641675Y253118D01*
X641734D01*
X641868Y253073D01*
X642017Y252999D01*
X642031Y252984D01*
X642046Y252969D01*
X642121Y252880D01*
X642180Y252820D01*
X642225Y252746D01*
X642284Y252642D01*
X642329Y252538D01*
Y252523D01*
X642343Y252493D01*
X642358Y252434D01*
X642388Y252330D01*
X642433Y252196D01*
X642492Y252003D01*
X642551Y251765D01*
X642596Y251632D01*
X642641Y251468D01*
Y251453D01*
X642655Y251409D01*
X642670Y251349D01*
X642700Y251260D01*
X642730Y251156D01*
X642759Y251037D01*
X642834Y250770D01*
X642923Y250473D01*
X643027Y250175D01*
X643116Y249908D01*
X643161Y249789D01*
X643205Y249685D01*
X643220Y249655D01*
X643250Y249596D01*
X643294Y249507D01*
X643354Y249403D01*
X643443Y249269D01*
X643562Y249135D01*
X643681Y249016D01*
X643829Y248898D01*
X643844Y248883D01*
X643904Y248853D01*
X643993Y248808D01*
X644112Y248749D01*
X644260Y248689D01*
X644439Y248645D01*
X644632Y248615D01*
X644855Y248600D01*
X644959D01*
X645078Y248615D01*
X645211Y248645D01*
X645389Y248689D01*
X645583Y248749D01*
X645776Y248838D01*
X645984Y248957D01*
X646014Y248972D01*
X646073Y249016D01*
X646162Y249106D01*
X646281Y249224D01*
X646415Y249358D01*
X646548Y249536D01*
X646682Y249744D01*
X646801Y249982D01*
X646816Y250012D01*
X646846Y250101D01*
X646890Y250235D01*
X646935Y250413D01*
X646994Y250636D01*
X647039Y250889D01*
X647069Y251171D01*
X647084Y251468D01*
Y251602D01*
X647069Y251691D01*
Y251810D01*
X647054Y251944D01*
X647009Y252256D01*
X646950Y252598D01*
X646846Y252939D01*
X646712Y253281D01*
X646623Y253430D01*
X646519Y253578D01*
Y253593D01*
X646489Y253608D01*
X646415Y253697D01*
X646281Y253816D01*
X646088Y253965D01*
X645850Y254113D01*
X645553Y254262D01*
X645211Y254395D01*
X644810Y254485D01*
D02*
G37*
G36*
X634126Y250425D02*
X580786D01*
Y249812D01*
X634126D01*
Y250425D01*
D02*
G37*
G36*
Y249506D02*
X580786D01*
Y249199D01*
X634126D01*
Y249506D01*
D02*
G37*
G36*
Y248893D02*
X580786D01*
Y248280D01*
X634126D01*
Y248893D01*
D02*
G37*
G36*
Y247666D02*
X580786D01*
Y247360D01*
X634126D01*
Y247666D01*
D02*
G37*
G36*
Y247053D02*
X580786D01*
Y246747D01*
X634126D01*
Y247053D01*
D02*
G37*
G36*
Y246134D02*
X580786D01*
Y245827D01*
X634126D01*
Y246134D01*
D02*
G37*
G36*
Y245214D02*
X580786D01*
Y244907D01*
X634126D01*
Y245214D01*
D02*
G37*
G36*
Y244601D02*
X580786D01*
Y244294D01*
X634126D01*
Y244601D01*
D02*
G37*
G36*
X646920Y245133D02*
X645553D01*
Y243766D01*
X646920D01*
Y245133D01*
D02*
G37*
G36*
X641214D02*
X639847D01*
Y243766D01*
X641214D01*
Y245133D01*
D02*
G37*
G36*
X634126Y243681D02*
X580786D01*
Y243375D01*
X634126D01*
Y243681D01*
D02*
G37*
G36*
Y243068D02*
X580786D01*
Y242762D01*
X634126D01*
Y243068D01*
D02*
G37*
G36*
Y242148D02*
X580786D01*
Y241535D01*
X634126D01*
Y242148D01*
D02*
G37*
G36*
Y241229D02*
X580786D01*
Y240616D01*
X634126D01*
Y241229D01*
D02*
G37*
G36*
Y240309D02*
X580786D01*
Y240003D01*
X634126D01*
Y240309D01*
D02*
G37*
G36*
Y239696D02*
X580786D01*
Y239389D01*
X634126D01*
Y239696D01*
D02*
G37*
G36*
Y239083D02*
X580786D01*
Y238776D01*
X634126D01*
Y239083D01*
D02*
G37*
G36*
Y238163D02*
X580786D01*
Y237857D01*
X634126D01*
Y238163D01*
D02*
G37*
G36*
Y237244D02*
X580786D01*
Y236937D01*
X634126D01*
Y237244D01*
D02*
G37*
G36*
Y236631D02*
X580786D01*
Y236324D01*
X634126D01*
Y236631D01*
D02*
G37*
G36*
X647084Y239348D02*
X636994Y236525D01*
Y235574D01*
X647084Y238397D01*
Y239348D01*
D02*
G37*
G36*
X634126Y235711D02*
X580786D01*
Y235404D01*
X634126D01*
Y235711D01*
D02*
G37*
G36*
Y235098D02*
X580786D01*
Y234485D01*
X634126D01*
Y235098D01*
D02*
G37*
G36*
Y234178D02*
X580786D01*
Y233872D01*
X634126D01*
Y234178D01*
D02*
G37*
G36*
Y233565D02*
X580786D01*
Y232952D01*
X634126D01*
Y233565D01*
D02*
G37*
G36*
Y232645D02*
X580786D01*
Y232339D01*
X634126D01*
Y232645D01*
D02*
G37*
G36*
Y231726D02*
X580786D01*
Y231419D01*
X634126D01*
Y231726D01*
D02*
G37*
G36*
Y231113D02*
X580786D01*
Y230806D01*
X634126D01*
Y231113D01*
D02*
G37*
G36*
Y230193D02*
X580786D01*
Y229886D01*
X634126D01*
Y230193D01*
D02*
G37*
G36*
Y229273D02*
X580786D01*
Y228967D01*
X634126D01*
Y229273D01*
D02*
G37*
G36*
X647084Y232330D02*
X636994Y229507D01*
Y228556D01*
X647084Y231379D01*
Y232330D01*
D02*
G37*
G36*
X634126Y228660D02*
X580786D01*
Y228354D01*
X634126D01*
Y228660D01*
D02*
G37*
G36*
Y227740D02*
X580786D01*
Y227434D01*
X634126D01*
Y227740D01*
D02*
G37*
G36*
Y227127D02*
X580786D01*
Y226514D01*
X634126D01*
Y227127D01*
D02*
G37*
G36*
Y226208D02*
X580786D01*
Y225901D01*
X634126D01*
Y226208D01*
D02*
G37*
G36*
Y225595D02*
X580786D01*
Y224982D01*
X634126D01*
Y225595D01*
D02*
G37*
G36*
Y224675D02*
X580786D01*
Y224368D01*
X634126D01*
Y224675D01*
D02*
G37*
G36*
Y223755D02*
X580786D01*
Y223449D01*
X634126D01*
Y223755D01*
D02*
G37*
G36*
Y223142D02*
X580786D01*
Y222836D01*
X634126D01*
Y223142D01*
D02*
G37*
G36*
Y222223D02*
X580786D01*
Y221916D01*
X634126D01*
Y222223D01*
D02*
G37*
G36*
Y221609D02*
X580786D01*
Y221303D01*
X634126D01*
Y221609D01*
D02*
G37*
G36*
X643354Y226775D02*
X643176D01*
X643086Y226760D01*
X642982D01*
X642745Y226730D01*
X642448Y226686D01*
X642135Y226626D01*
X641808Y226537D01*
X641482Y226418D01*
X641467D01*
X641437Y226404D01*
X641393Y226374D01*
X641333Y226344D01*
X641184Y226270D01*
X640991Y226151D01*
X640783Y225987D01*
X640560Y225809D01*
X640352Y225601D01*
X640159Y225348D01*
Y225334D01*
X640144Y225319D01*
X640115Y225274D01*
X640085Y225230D01*
X640011Y225081D01*
X639921Y224888D01*
X639832Y224635D01*
X639758Y224368D01*
X639698Y224056D01*
X639684Y223714D01*
Y223595D01*
X639698Y223506D01*
X639713Y223402D01*
X639743Y223268D01*
X639817Y222986D01*
X639862Y222822D01*
X639936Y222659D01*
X640011Y222481D01*
X640115Y222302D01*
X640234Y222139D01*
X640367Y221961D01*
X640531Y221797D01*
X640709Y221649D01*
X639847D01*
Y220549D01*
X646236D01*
X646370Y220564D01*
X646519D01*
X646697Y220579D01*
X646875Y220594D01*
X647247Y220638D01*
X647633Y220698D01*
X647990Y220772D01*
X648153Y220831D01*
X648287Y220891D01*
X648302D01*
X648317Y220906D01*
X648406Y220950D01*
X648525Y221039D01*
X648688Y221143D01*
X648867Y221292D01*
X649045Y221470D01*
X649223Y221693D01*
X649387Y221946D01*
Y221961D01*
X649401Y221976D01*
X649416Y222020D01*
X649446Y222080D01*
X649520Y222228D01*
X649580Y222436D01*
X649654Y222704D01*
X649728Y223016D01*
X649773Y223357D01*
X649788Y223744D01*
Y223863D01*
X649773Y223952D01*
Y224056D01*
X649758Y224189D01*
X649714Y224472D01*
X649639Y224799D01*
X649550Y225140D01*
X649401Y225482D01*
X649208Y225794D01*
Y225809D01*
X649179Y225824D01*
X649104Y225913D01*
X648971Y226032D01*
X648777Y226181D01*
X648540Y226314D01*
X648242Y226433D01*
X647901Y226507D01*
X647708Y226537D01*
X647499D01*
X647663Y225378D01*
X647693D01*
X647752Y225363D01*
X647841Y225334D01*
X647960Y225304D01*
X648094Y225245D01*
X648228Y225170D01*
X648346Y225081D01*
X648450Y224962D01*
X648465Y224947D01*
X648510Y224873D01*
X648555Y224784D01*
X648614Y224635D01*
X648688Y224472D01*
X648733Y224264D01*
X648777Y224011D01*
X648792Y223744D01*
Y223610D01*
X648777Y223461D01*
X648748Y223268D01*
X648703Y223060D01*
X648644Y222852D01*
X648569Y222644D01*
X648450Y222466D01*
X648436Y222451D01*
X648391Y222392D01*
X648317Y222317D01*
X648213Y222213D01*
X648079Y222109D01*
X647930Y222020D01*
X647737Y221931D01*
X647529Y221857D01*
X647514D01*
X647455Y221842D01*
X647351Y221827D01*
X647202Y221812D01*
X646994Y221782D01*
X646861D01*
X646727Y221768D01*
X645999D01*
X646014Y221782D01*
X646043Y221797D01*
X646088Y221842D01*
X646147Y221901D01*
X646207Y221990D01*
X646296Y222080D01*
X646459Y222302D01*
X646623Y222585D01*
X646771Y222927D01*
X646831Y223105D01*
X646875Y223298D01*
X646905Y223506D01*
X646920Y223714D01*
Y223848D01*
X646905Y223952D01*
X646890Y224071D01*
X646861Y224219D01*
X646831Y224368D01*
X646786Y224546D01*
X646742Y224725D01*
X646667Y224903D01*
X646578Y225096D01*
X646474Y225274D01*
X646355Y225467D01*
X646222Y225646D01*
X646058Y225809D01*
X645880Y225973D01*
X645865Y225987D01*
X645835Y226002D01*
X645776Y226047D01*
X645687Y226091D01*
X645583Y226151D01*
X645464Y226225D01*
X645330Y226299D01*
X645167Y226374D01*
X644988Y226448D01*
X644795Y226522D01*
X644587Y226582D01*
X644364Y226656D01*
X643889Y226745D01*
X643621Y226760D01*
X643354Y226775D01*
D02*
G37*
G36*
X634126Y220690D02*
X580786D01*
Y220383D01*
X634126D01*
Y220690D01*
D02*
G37*
G36*
Y219770D02*
X580786D01*
Y219464D01*
X634126D01*
Y219770D01*
D02*
G37*
G36*
Y219157D02*
X580786D01*
Y218850D01*
X634126D01*
Y219157D01*
D02*
G37*
G36*
Y218544D02*
X580786D01*
Y218237D01*
X634126D01*
Y218544D01*
D02*
G37*
G36*
Y217931D02*
X580786D01*
Y217624D01*
X634126D01*
Y217931D01*
D02*
G37*
G36*
Y217011D02*
X580786D01*
Y216398D01*
X634126D01*
Y217011D01*
D02*
G37*
G36*
X646920Y217008D02*
X639847D01*
Y215804D01*
X646920D01*
Y217008D01*
D02*
G37*
G36*
X638525D02*
X637158D01*
Y215804D01*
X638525D01*
Y217008D01*
D02*
G37*
G36*
X634126Y216091D02*
X580786D01*
Y215478D01*
X634126D01*
Y216091D01*
D02*
G37*
G36*
Y215172D02*
X580786D01*
Y214865D01*
X634126D01*
Y215172D01*
D02*
G37*
G36*
Y214252D02*
X580786D01*
Y213946D01*
X634126D01*
Y214252D01*
D02*
G37*
G36*
Y213639D02*
X580786D01*
Y213333D01*
X634126D01*
Y213639D01*
D02*
G37*
G36*
Y212719D02*
X580786D01*
Y212413D01*
X634126D01*
Y212719D01*
D02*
G37*
G36*
Y211800D02*
X580786D01*
Y211493D01*
X634126D01*
Y211800D01*
D02*
G37*
G36*
Y211187D02*
X580786D01*
Y210880D01*
X634126D01*
Y211187D01*
D02*
G37*
G36*
Y210574D02*
X580786D01*
Y209960D01*
X634126D01*
Y210574D01*
D02*
G37*
G36*
Y209654D02*
X580786D01*
Y209347D01*
X634126D01*
Y209654D01*
D02*
G37*
G36*
Y208734D02*
X580786D01*
Y208121D01*
X634126D01*
Y208734D01*
D02*
G37*
G36*
X640783Y211067D02*
X639847D01*
Y210175D01*
X638109D01*
X637380Y208971D01*
X639847D01*
Y207768D01*
X640783D01*
Y208971D01*
X645092D01*
X645196Y208957D01*
X645419Y208942D01*
X645508Y208927D01*
X645583Y208912D01*
X645612Y208897D01*
X645672Y208867D01*
X645746Y208808D01*
X645820Y208719D01*
X645835Y208689D01*
X645850Y208615D01*
X645880Y208481D01*
X645895Y208303D01*
Y208154D01*
X645880Y208080D01*
Y207991D01*
X645850Y207768D01*
X646905Y207604D01*
Y207634D01*
X646920Y207694D01*
X646935Y207783D01*
X646950Y207916D01*
X646980Y208050D01*
X646994Y208199D01*
X647009Y208511D01*
Y208615D01*
X646994Y208734D01*
X646980Y208882D01*
X646965Y209046D01*
X646920Y209224D01*
X646875Y209387D01*
X646816Y209536D01*
X646801Y209551D01*
X646771Y209596D01*
X646727Y209655D01*
X646667Y209729D01*
X646593Y209818D01*
X646504Y209893D01*
X646400Y209982D01*
X646281Y210041D01*
X646266D01*
X646207Y210056D01*
X646118Y210086D01*
X645969Y210101D01*
X645776Y210130D01*
X645672Y210145D01*
X645538Y210160D01*
X645389D01*
X645226Y210175D01*
X640783D01*
Y211067D01*
D02*
G37*
G36*
X634126Y207815D02*
X580786D01*
Y207508D01*
X634126D01*
Y207815D01*
D02*
G37*
G36*
Y207201D02*
X580786D01*
Y206895D01*
X634126D01*
Y207201D01*
D02*
G37*
G36*
Y206282D02*
X580786D01*
Y205975D01*
X634126D01*
Y206282D01*
D02*
G37*
G36*
Y205669D02*
X580786D01*
Y205362D01*
X634126D01*
Y205669D01*
D02*
G37*
G36*
Y204749D02*
X580786D01*
Y204443D01*
X634126D01*
Y204749D01*
D02*
G37*
G36*
Y203829D02*
X580786D01*
Y203523D01*
X634126D01*
Y203829D01*
D02*
G37*
G36*
Y203216D02*
X580786D01*
Y202910D01*
X634126D01*
Y203216D01*
D02*
G37*
G36*
Y202603D02*
X580786D01*
Y202297D01*
X634126D01*
Y202603D01*
D02*
G37*
G36*
Y201990D02*
X580786D01*
Y201377D01*
X634126D01*
Y201990D01*
D02*
G37*
G36*
Y201070D02*
X580786D01*
Y200457D01*
X634126D01*
Y201070D01*
D02*
G37*
G36*
Y199844D02*
X580786D01*
Y199538D01*
X634126D01*
Y199844D01*
D02*
G37*
G36*
X646920Y205259D02*
X637158D01*
Y204056D01*
X640649D01*
X640635Y204041D01*
X640605Y204011D01*
X640560Y203966D01*
X640501Y203907D01*
X640427Y203818D01*
X640338Y203729D01*
X640263Y203610D01*
X640159Y203476D01*
X640070Y203328D01*
X639996Y203179D01*
X639832Y202807D01*
X639773Y202614D01*
X639728Y202406D01*
X639698Y202183D01*
X639684Y201946D01*
Y201812D01*
X639698Y201663D01*
X639728Y201485D01*
X639758Y201277D01*
X639817Y201054D01*
X639892Y200816D01*
X639996Y200593D01*
X640011Y200564D01*
X640055Y200504D01*
X640129Y200400D01*
X640219Y200267D01*
X640338Y200133D01*
X640486Y199999D01*
X640664Y199865D01*
X640857Y199761D01*
X640887Y199746D01*
X640962Y199717D01*
X641080Y199687D01*
X641259Y199628D01*
X641482Y199583D01*
X641764Y199553D01*
X642076Y199524D01*
X642448Y199509D01*
X646920D01*
Y200712D01*
X642284D01*
X642135Y200727D01*
X641927Y200757D01*
X641719Y200816D01*
X641511Y200876D01*
X641303Y200980D01*
X641125Y201113D01*
X641110Y201128D01*
X641066Y201188D01*
X640991Y201277D01*
X640917Y201396D01*
X640843Y201544D01*
X640768Y201738D01*
X640724Y201946D01*
X640709Y202198D01*
Y202287D01*
X640724Y202391D01*
X640739Y202525D01*
X640783Y202674D01*
X640828Y202852D01*
X640902Y203030D01*
X640991Y203209D01*
X641006Y203223D01*
X641036Y203283D01*
X641110Y203357D01*
X641184Y203461D01*
X641303Y203565D01*
X641422Y203684D01*
X641586Y203773D01*
X641749Y203862D01*
X641764Y203877D01*
X641838Y203892D01*
X641942Y203922D01*
X642091Y203952D01*
X642284Y203996D01*
X642507Y204026D01*
X642759Y204041D01*
X643057Y204056D01*
X646920D01*
Y205259D01*
D02*
G37*
G36*
X634126Y199231D02*
X580786D01*
Y198925D01*
X634126D01*
Y199231D01*
D02*
G37*
G36*
Y198312D02*
X580786D01*
Y198005D01*
X634126D01*
Y198312D01*
D02*
G37*
G36*
Y197698D02*
X580786D01*
Y197392D01*
X634126D01*
Y197698D01*
D02*
G37*
G36*
Y196779D02*
X580786D01*
Y196472D01*
X634126D01*
Y196779D01*
D02*
G37*
G36*
Y195859D02*
X580786D01*
Y195553D01*
X634126D01*
Y195859D01*
D02*
G37*
G36*
Y195246D02*
X580786D01*
Y194633D01*
X634126D01*
Y195246D01*
D02*
G37*
G36*
Y194020D02*
X580786D01*
Y193713D01*
X634126D01*
Y194020D01*
D02*
G37*
G36*
Y193407D02*
X580786D01*
Y193100D01*
X634126D01*
Y193407D01*
D02*
G37*
G36*
X644513Y198256D02*
X639847D01*
Y197052D01*
X644097D01*
X644290Y197037D01*
X644498D01*
X644706Y197022D01*
X644899Y197008D01*
X645048Y196993D01*
X645063D01*
X645122Y196963D01*
X645211Y196933D01*
X645315Y196889D01*
X645434Y196829D01*
X645568Y196740D01*
X645687Y196636D01*
X645791Y196517D01*
X645806Y196502D01*
X645835Y196443D01*
X645880Y196369D01*
X645925Y196264D01*
X645969Y196131D01*
X646014Y195982D01*
X646043Y195804D01*
X646058Y195611D01*
Y195522D01*
X646043Y195418D01*
X646029Y195284D01*
X645999Y195135D01*
X645939Y194972D01*
X645880Y194793D01*
X645791Y194615D01*
X645776Y194600D01*
X645731Y194541D01*
X645672Y194452D01*
X645583Y194348D01*
X645479Y194244D01*
X645345Y194125D01*
X645196Y194036D01*
X645033Y193946D01*
X645003Y193932D01*
X644944Y193917D01*
X644840Y193887D01*
X644676Y193843D01*
X644483Y193798D01*
X644245Y193768D01*
X643963Y193753D01*
X643651Y193738D01*
X639847D01*
Y192535D01*
X646920D01*
Y193605D01*
X645895D01*
X645910Y193620D01*
X645939Y193649D01*
X645999Y193694D01*
X646073Y193753D01*
X646177Y193843D01*
X646266Y193946D01*
X646385Y194065D01*
X646489Y194199D01*
X646593Y194348D01*
X646712Y194511D01*
X646801Y194704D01*
X646890Y194897D01*
X646980Y195120D01*
X647039Y195343D01*
X647069Y195596D01*
X647084Y195849D01*
Y195952D01*
X647069Y196071D01*
X647054Y196235D01*
X647024Y196413D01*
X646980Y196606D01*
X646920Y196814D01*
X646846Y197022D01*
X646831Y197052D01*
X646801Y197111D01*
X646757Y197201D01*
X646682Y197320D01*
X646593Y197453D01*
X646489Y197587D01*
X646385Y197706D01*
X646251Y197825D01*
X646236Y197840D01*
X646192Y197869D01*
X646103Y197914D01*
X645999Y197959D01*
X645865Y198033D01*
X645716Y198092D01*
X645553Y198152D01*
X645360Y198196D01*
X645345D01*
X645285Y198211D01*
X645211D01*
X645092Y198226D01*
X644929Y198241D01*
X644736D01*
X644513Y198256D01*
D02*
G37*
G36*
X634126Y192794D02*
X580786D01*
Y192487D01*
X634126D01*
Y192794D01*
D02*
G37*
G36*
Y192180D02*
X580786D01*
Y191567D01*
X634126D01*
Y192180D01*
D02*
G37*
G36*
Y191261D02*
X580786D01*
Y190954D01*
X634126D01*
Y191261D01*
D02*
G37*
G36*
Y190341D02*
X580786D01*
Y190035D01*
X634126D01*
Y190341D01*
D02*
G37*
G36*
Y189728D02*
X580786D01*
Y189422D01*
X634126D01*
Y189728D01*
D02*
G37*
G36*
Y188808D02*
X580786D01*
Y188502D01*
X634126D01*
Y188808D01*
D02*
G37*
G36*
Y187889D02*
X580786D01*
Y187582D01*
X634126D01*
Y187889D01*
D02*
G37*
G36*
Y187276D02*
X580786D01*
Y186969D01*
X634126D01*
Y187276D01*
D02*
G37*
G36*
Y186663D02*
X580786D01*
Y186049D01*
X634126D01*
Y186663D01*
D02*
G37*
G36*
Y185743D02*
X580786D01*
Y185436D01*
X634126D01*
Y185743D01*
D02*
G37*
G36*
X646920Y191237D02*
X637158D01*
Y190034D01*
X640635D01*
X640620Y190019D01*
X640590Y190004D01*
X640546Y189959D01*
X640486Y189900D01*
X640412Y189826D01*
X640338Y189736D01*
X640159Y189514D01*
X639981Y189246D01*
X639832Y188904D01*
X639773Y188726D01*
X639728Y188533D01*
X639698Y188325D01*
X639684Y188117D01*
Y187998D01*
X639698Y187879D01*
X639713Y187716D01*
X639743Y187523D01*
X639803Y187314D01*
X639862Y187106D01*
X639951Y186884D01*
X639966Y186854D01*
X639996Y186779D01*
X640055Y186675D01*
X640144Y186542D01*
X640248Y186393D01*
X640382Y186245D01*
X640531Y186081D01*
X640694Y185933D01*
X640709Y185918D01*
X640783Y185873D01*
X640887Y185799D01*
X641021Y185710D01*
X641184Y185620D01*
X641378Y185516D01*
X641600Y185427D01*
X641853Y185338D01*
X641883Y185323D01*
X641972Y185308D01*
X642106Y185264D01*
X642284Y185219D01*
X642492Y185190D01*
X642730Y185145D01*
X642997Y185130D01*
X643280Y185115D01*
X643458D01*
X643577Y185130D01*
X643740Y185145D01*
X643904Y185160D01*
X644112Y185190D01*
X644320Y185234D01*
X644765Y185338D01*
X645003Y185413D01*
X645241Y185502D01*
X645479Y185606D01*
X645702Y185725D01*
X645910Y185858D01*
X646103Y186022D01*
X646118Y186037D01*
X646147Y186066D01*
X646192Y186111D01*
X646251Y186185D01*
X646326Y186259D01*
X646415Y186364D01*
X646504Y186482D01*
X646593Y186631D01*
X646771Y186943D01*
X646935Y187300D01*
X646994Y187508D01*
X647039Y187716D01*
X647069Y187938D01*
X647084Y188176D01*
Y188295D01*
X647069Y188384D01*
X647054Y188488D01*
X647024Y188607D01*
X646950Y188890D01*
X646905Y189038D01*
X646831Y189202D01*
X646742Y189365D01*
X646638Y189528D01*
X646519Y189677D01*
X646385Y189841D01*
X646222Y189989D01*
X646043Y190123D01*
X646920D01*
Y191237D01*
D02*
G37*
G36*
X634126Y184823D02*
X580786D01*
Y184517D01*
X634126D01*
Y184823D01*
D02*
G37*
G36*
Y184210D02*
X580786D01*
Y183597D01*
X634126D01*
Y184210D01*
D02*
G37*
G36*
Y183290D02*
X580786D01*
Y182677D01*
X634126D01*
Y183290D01*
D02*
G37*
G36*
Y182064D02*
X580786D01*
Y181758D01*
X634126D01*
Y182064D01*
D02*
G37*
G36*
Y181451D02*
X580786D01*
Y181145D01*
X634126D01*
Y181451D01*
D02*
G37*
G36*
X646920Y181968D02*
X645553D01*
Y180601D01*
X646920D01*
Y181968D01*
D02*
G37*
G36*
X634126Y180838D02*
X580786D01*
Y180225D01*
X634126D01*
Y180838D01*
D02*
G37*
G36*
Y179918D02*
X580786D01*
Y179612D01*
X634126D01*
Y179918D01*
D02*
G37*
G36*
Y179305D02*
X580786D01*
Y178999D01*
X634126D01*
Y179305D01*
D02*
G37*
G36*
Y178386D02*
X580786D01*
Y178079D01*
X634126D01*
Y178386D01*
D02*
G37*
G36*
Y177773D02*
X580786D01*
Y177466D01*
X634126D01*
Y177773D01*
D02*
G37*
G36*
Y176853D02*
X580786D01*
Y176546D01*
X634126D01*
Y176853D01*
D02*
G37*
G36*
Y175933D02*
X580786D01*
Y175627D01*
X634126D01*
Y175933D01*
D02*
G37*
G36*
Y175320D02*
X580786D01*
Y174707D01*
X634126D01*
Y175320D01*
D02*
G37*
G36*
Y174400D02*
X580786D01*
Y173787D01*
X634126D01*
Y174400D01*
D02*
G37*
G36*
Y173481D02*
X580786D01*
Y173174D01*
X634126D01*
Y173481D01*
D02*
G37*
G36*
Y172561D02*
X580786D01*
Y172255D01*
X634126D01*
Y172561D01*
D02*
G37*
G36*
Y171948D02*
X580786D01*
Y171641D01*
X634126D01*
Y171948D01*
D02*
G37*
G36*
Y171335D02*
X580786D01*
Y171028D01*
X634126D01*
Y171335D01*
D02*
G37*
G36*
X643413Y177148D02*
X643220D01*
X643116Y177134D01*
X643012D01*
X642730Y177104D01*
X642418Y177059D01*
X642091Y176985D01*
X641734Y176896D01*
X641407Y176777D01*
X641393D01*
X641363Y176762D01*
X641318Y176732D01*
X641259Y176703D01*
X641110Y176614D01*
X640917Y176495D01*
X640709Y176331D01*
X640501Y176138D01*
X640293Y175900D01*
X640115Y175633D01*
Y175618D01*
X640100Y175603D01*
X640070Y175558D01*
X640040Y175499D01*
X639981Y175336D01*
X639892Y175128D01*
X639817Y174890D01*
X639743Y174593D01*
X639698Y174281D01*
X639684Y173954D01*
Y173835D01*
X639698Y173761D01*
Y173657D01*
X639713Y173552D01*
X639758Y173285D01*
X639832Y172988D01*
X639936Y172661D01*
X640085Y172349D01*
X640278Y172067D01*
Y172052D01*
X640308Y172037D01*
X640382Y171948D01*
X640516Y171829D01*
X640694Y171680D01*
X640932Y171517D01*
X641214Y171368D01*
X641556Y171234D01*
X641927Y171131D01*
X642106Y172290D01*
X642091D01*
X642076Y172304D01*
X641987Y172319D01*
X641868Y172364D01*
X641704Y172423D01*
X641526Y172512D01*
X641348Y172616D01*
X641184Y172735D01*
X641036Y172884D01*
X641021Y172899D01*
X640976Y172958D01*
X640917Y173047D01*
X640843Y173166D01*
X640783Y173315D01*
X640724Y173478D01*
X640679Y173686D01*
X640664Y173894D01*
Y173983D01*
X640679Y174043D01*
X640694Y174206D01*
X640739Y174414D01*
X640828Y174652D01*
X640947Y174890D01*
X641095Y175142D01*
X641199Y175261D01*
X641318Y175365D01*
X641348Y175395D01*
X641393Y175410D01*
X641437Y175455D01*
X641511Y175499D01*
X641600Y175544D01*
X641704Y175588D01*
X641823Y175633D01*
X641957Y175692D01*
X642106Y175737D01*
X642284Y175781D01*
X642462Y175826D01*
X642670Y175870D01*
X642893Y175885D01*
X643131Y175915D01*
X643517D01*
X643621Y175900D01*
X643740D01*
X643874Y175885D01*
X644171Y175841D01*
X644513Y175781D01*
X644870Y175692D01*
X645182Y175558D01*
X645330Y175469D01*
X645464Y175380D01*
X645494Y175350D01*
X645568Y175276D01*
X645672Y175157D01*
X645776Y174994D01*
X645895Y174801D01*
X645999Y174548D01*
X646073Y174281D01*
X646088Y174132D01*
X646103Y173969D01*
Y173850D01*
X646073Y173716D01*
X646043Y173552D01*
X645999Y173374D01*
X645925Y173166D01*
X645820Y172973D01*
X645672Y172795D01*
X645657Y172780D01*
X645583Y172720D01*
X645494Y172631D01*
X645345Y172542D01*
X645152Y172438D01*
X644929Y172334D01*
X644647Y172245D01*
X644335Y172185D01*
X644498Y171012D01*
X644513D01*
X644557Y171026D01*
X644617Y171041D01*
X644691Y171056D01*
X644795Y171086D01*
X644914Y171116D01*
X645196Y171205D01*
X645494Y171339D01*
X645820Y171517D01*
X646118Y171740D01*
X646400Y172007D01*
Y172022D01*
X646430Y172037D01*
X646459Y172082D01*
X646504Y172141D01*
X646563Y172230D01*
X646623Y172319D01*
X646742Y172542D01*
X646861Y172824D01*
X646980Y173166D01*
X647054Y173538D01*
X647069Y173746D01*
X647084Y173954D01*
Y174088D01*
X647069Y174191D01*
X647054Y174310D01*
X647039Y174459D01*
X647009Y174608D01*
X646965Y174786D01*
X646861Y175157D01*
X646771Y175350D01*
X646682Y175544D01*
X646578Y175737D01*
X646459Y175915D01*
X646311Y176093D01*
X646147Y176272D01*
X646133Y176287D01*
X646103Y176316D01*
X646043Y176346D01*
X645969Y176406D01*
X645865Y176480D01*
X645746Y176554D01*
X645612Y176628D01*
X645449Y176703D01*
X645271Y176792D01*
X645063Y176866D01*
X644840Y176940D01*
X644587Y177015D01*
X644335Y177074D01*
X644037Y177104D01*
X643740Y177134D01*
X643413Y177148D01*
D02*
G37*
G36*
X634126Y170415D02*
X580786D01*
Y170109D01*
X634126D01*
Y170415D01*
D02*
G37*
G36*
Y169802D02*
X580786D01*
Y169496D01*
X634126D01*
Y169802D01*
D02*
G37*
G36*
Y168882D02*
X580786D01*
Y168576D01*
X634126D01*
Y168882D01*
D02*
G37*
G36*
Y167963D02*
X580786D01*
Y167656D01*
X634126D01*
Y167963D01*
D02*
G37*
G36*
Y167350D02*
X580786D01*
Y166737D01*
X634126D01*
Y167350D01*
D02*
G37*
G36*
Y166430D02*
X580786D01*
Y166124D01*
X634126D01*
Y166430D01*
D02*
G37*
G36*
Y165817D02*
X580786D01*
Y165204D01*
X634126D01*
Y165817D01*
D02*
G37*
G36*
Y164897D02*
X580786D01*
Y164591D01*
X634126D01*
Y164897D01*
D02*
G37*
G36*
Y163978D02*
X580786D01*
Y163671D01*
X634126D01*
Y163978D01*
D02*
G37*
G36*
Y163365D02*
X580786D01*
Y163058D01*
X634126D01*
Y163365D01*
D02*
G37*
G36*
Y162445D02*
X580786D01*
Y162138D01*
X634126D01*
Y162445D01*
D02*
G37*
G36*
Y161832D02*
X580786D01*
Y161525D01*
X634126D01*
Y161832D01*
D02*
G37*
G36*
Y160912D02*
X580786D01*
Y160606D01*
X634126D01*
Y160912D01*
D02*
G37*
G36*
Y159992D02*
X580786D01*
Y159686D01*
X634126D01*
Y159992D01*
D02*
G37*
G36*
Y159379D02*
X580786D01*
Y158766D01*
X634126D01*
Y159379D01*
D02*
G37*
G36*
Y158460D02*
X580786D01*
Y157846D01*
X634126D01*
Y158460D01*
D02*
G37*
G36*
Y157540D02*
X580786D01*
Y157233D01*
X634126D01*
Y157540D01*
D02*
G37*
G36*
Y156927D02*
X580786D01*
Y156620D01*
X634126D01*
Y156927D01*
D02*
G37*
G36*
Y156007D02*
X580786D01*
Y155701D01*
X634126D01*
Y156007D01*
D02*
G37*
G36*
X643384Y170613D02*
X643294D01*
X643190Y170598D01*
X643057D01*
X642893Y170583D01*
X642715Y170553D01*
X642507Y170524D01*
X642284Y170479D01*
X642046Y170420D01*
X641808Y170345D01*
X641571Y170256D01*
X641333Y170152D01*
X641095Y170033D01*
X640872Y169885D01*
X640664Y169721D01*
X640471Y169528D01*
X640456Y169513D01*
X640442Y169484D01*
X640397Y169439D01*
X640352Y169365D01*
X640293Y169276D01*
X640219Y169172D01*
X640144Y169053D01*
X640070Y168904D01*
X640011Y168756D01*
X639936Y168592D01*
X639803Y168206D01*
X639713Y167775D01*
X639698Y167537D01*
X639684Y167299D01*
Y167166D01*
X639698Y167062D01*
X639713Y166928D01*
X639728Y166794D01*
X639758Y166631D01*
X639803Y166452D01*
X639921Y166081D01*
X639996Y165888D01*
X640085Y165680D01*
X640204Y165487D01*
X640338Y165293D01*
X640486Y165100D01*
X640545Y165036D01*
X639847D01*
Y163966D01*
X640843D01*
X640813Y163951D01*
X640753Y163907D01*
X640664Y163832D01*
X640546Y163728D01*
X640412Y163609D01*
X640278Y163461D01*
X640129Y163283D01*
X640011Y163089D01*
X639996Y163060D01*
X639966Y162985D01*
X639907Y162866D01*
X639847Y162718D01*
X639788Y162525D01*
X639728Y162317D01*
X639698Y162064D01*
X639684Y161812D01*
Y161678D01*
X639698Y161529D01*
X639728Y161351D01*
X639758Y161158D01*
X639817Y160935D01*
X639907Y160727D01*
X640011Y160534D01*
X640025Y160504D01*
X640070Y160444D01*
X640144Y160355D01*
X640248Y160251D01*
X640382Y160132D01*
X640531Y160014D01*
X640724Y159909D01*
X640932Y159820D01*
X640917Y159805D01*
X640872Y159776D01*
X640813Y159731D01*
X640739Y159672D01*
X640635Y159583D01*
X640531Y159479D01*
X640427Y159360D01*
X640308Y159226D01*
X640189Y159077D01*
X640085Y158914D01*
X639877Y158528D01*
X639803Y158320D01*
X639743Y158097D01*
X639698Y157874D01*
X639684Y157621D01*
Y157517D01*
X639698Y157443D01*
Y157354D01*
X639713Y157250D01*
X639758Y157027D01*
X639832Y156759D01*
X639936Y156492D01*
X640085Y156239D01*
X640278Y156002D01*
X640308Y155972D01*
X640382Y155912D01*
X640531Y155823D01*
X640724Y155704D01*
X640976Y155600D01*
X641274Y155511D01*
X641645Y155452D01*
X641853Y155422D01*
X646920D01*
Y156626D01*
X642225D01*
X642076Y156641D01*
X641734Y156670D01*
X641571Y156700D01*
X641437Y156744D01*
X641422D01*
X641378Y156774D01*
X641318Y156804D01*
X641244Y156849D01*
X641170Y156908D01*
X641080Y156982D01*
X640991Y157071D01*
X640917Y157176D01*
X640902Y157190D01*
X640887Y157235D01*
X640857Y157294D01*
X640813Y157369D01*
X640783Y157473D01*
X640753Y157606D01*
X640739Y157740D01*
X640724Y157889D01*
Y158008D01*
X640753Y158156D01*
X640783Y158320D01*
X640843Y158513D01*
X640932Y158721D01*
X641066Y158944D01*
X641229Y159137D01*
X641259Y159152D01*
X641318Y159211D01*
X641437Y159285D01*
X641615Y159375D01*
X641838Y159479D01*
X642106Y159553D01*
X642433Y159612D01*
X642819Y159627D01*
X646920D01*
Y160831D01*
X642195D01*
X642046Y160846D01*
X641883Y160861D01*
X641675Y160905D01*
X641482Y160950D01*
X641289Y161024D01*
X641125Y161128D01*
X641110Y161143D01*
X641066Y161187D01*
X640991Y161247D01*
X640917Y161351D01*
X640857Y161485D01*
X640783Y161648D01*
X640739Y161841D01*
X640724Y162079D01*
Y162168D01*
X640739Y162257D01*
X640753Y162391D01*
X640783Y162525D01*
X640843Y162688D01*
X640902Y162852D01*
X640991Y163015D01*
X641006Y163030D01*
X641036Y163089D01*
X641110Y163164D01*
X641184Y163253D01*
X641303Y163357D01*
X641437Y163461D01*
X641600Y163550D01*
X641779Y163639D01*
X641808Y163654D01*
X641868Y163669D01*
X641987Y163699D01*
X642150Y163728D01*
X642358Y163773D01*
X642611Y163803D01*
X642908Y163817D01*
X643250Y163832D01*
X646920D01*
Y165036D01*
X646235D01*
X646281Y165085D01*
X646474Y165323D01*
X646653Y165606D01*
Y165620D01*
X646667Y165635D01*
X646697Y165680D01*
X646712Y165739D01*
X646786Y165903D01*
X646861Y166111D01*
X646950Y166363D01*
X647009Y166646D01*
X647069Y166958D01*
X647084Y167299D01*
Y167448D01*
X647069Y167552D01*
X647054Y167671D01*
X647039Y167819D01*
X647009Y167983D01*
X646965Y168161D01*
X646846Y168533D01*
X646771Y168741D01*
X646682Y168934D01*
X646578Y169142D01*
X646444Y169335D01*
X646296Y169528D01*
X646133Y169706D01*
X646118Y169721D01*
X646088Y169751D01*
X646029Y169796D01*
X645954Y169840D01*
X645850Y169915D01*
X645731Y169989D01*
X645598Y170078D01*
X645434Y170152D01*
X645241Y170242D01*
X645048Y170331D01*
X644810Y170405D01*
X644572Y170464D01*
X644305Y170524D01*
X644023Y170568D01*
X643710Y170598D01*
X643384Y170613D01*
D02*
G37*
G36*
X634126Y155394D02*
X580786D01*
Y155088D01*
X634126D01*
Y155394D01*
D02*
G37*
G36*
Y154474D02*
X580786D01*
Y154168D01*
X634126D01*
Y154474D01*
D02*
G37*
G36*
Y153555D02*
X580786D01*
Y153248D01*
X634126D01*
Y153555D01*
D02*
G37*
G36*
Y152942D02*
X580786D01*
Y152635D01*
X634126D01*
Y152942D01*
D02*
G37*
G36*
Y152022D02*
X580786D01*
Y151715D01*
X634126D01*
Y152022D01*
D02*
G37*
G36*
X647084Y155127D02*
X636994Y152304D01*
Y151353D01*
X647084Y154176D01*
Y155127D01*
D02*
G37*
G36*
X634126Y151409D02*
X580786D01*
Y150796D01*
X634126D01*
Y151409D01*
D02*
G37*
G36*
Y150489D02*
X580786D01*
Y150183D01*
X634126D01*
Y150489D01*
D02*
G37*
G36*
Y149876D02*
X580786D01*
Y149263D01*
X634126D01*
Y149876D01*
D02*
G37*
G36*
Y148956D02*
X580786D01*
Y148650D01*
X634126D01*
Y148956D01*
D02*
G37*
G36*
Y148037D02*
X580786D01*
Y147730D01*
X634126D01*
Y148037D01*
D02*
G37*
G36*
Y147424D02*
X580786D01*
Y147117D01*
X634126D01*
Y147424D01*
D02*
G37*
G36*
Y146504D02*
X580786D01*
Y146198D01*
X634126D01*
Y146504D01*
D02*
G37*
G36*
Y145891D02*
X580786D01*
Y145584D01*
X634126D01*
Y145891D01*
D02*
G37*
G36*
Y144971D02*
X580786D01*
Y144665D01*
X634126D01*
Y144971D01*
D02*
G37*
G36*
Y144052D02*
X580786D01*
Y143745D01*
X634126D01*
Y144052D01*
D02*
G37*
G36*
Y143439D02*
X580786D01*
Y142825D01*
X634126D01*
Y143439D01*
D02*
G37*
G36*
Y142519D02*
X580786D01*
Y141906D01*
X634126D01*
Y142519D01*
D02*
G37*
G36*
Y141599D02*
X580786D01*
Y141293D01*
X634126D01*
Y141599D01*
D02*
G37*
G36*
Y140986D02*
X580786D01*
Y140680D01*
X634126D01*
Y140986D01*
D02*
G37*
G36*
Y140066D02*
X580786D01*
Y139760D01*
X634126D01*
Y140066D01*
D02*
G37*
G36*
Y139453D02*
X580786D01*
Y139147D01*
X634126D01*
Y139453D01*
D02*
G37*
G36*
Y138534D02*
X580786D01*
Y138227D01*
X634126D01*
Y138534D01*
D02*
G37*
G36*
Y137921D02*
X580786D01*
Y137614D01*
X634126D01*
Y137921D01*
D02*
G37*
G36*
Y137001D02*
X580786D01*
Y136694D01*
X634126D01*
Y137001D01*
D02*
G37*
G36*
X646920Y150999D02*
X639847D01*
Y149929D01*
X640843D01*
X640813Y149914D01*
X640753Y149870D01*
X640664Y149796D01*
X640546Y149691D01*
X640412Y149573D01*
X640278Y149424D01*
X640129Y149246D01*
X640011Y149052D01*
X639996Y149023D01*
X639966Y148948D01*
X639907Y148830D01*
X639847Y148681D01*
X639788Y148488D01*
X639728Y148280D01*
X639698Y148027D01*
X639684Y147775D01*
Y147641D01*
X639698Y147492D01*
X639728Y147314D01*
X639758Y147121D01*
X639817Y146898D01*
X639907Y146690D01*
X640011Y146497D01*
X640025Y146467D01*
X640070Y146408D01*
X640144Y146319D01*
X640248Y146215D01*
X640382Y146096D01*
X640531Y145977D01*
X640724Y145873D01*
X640932Y145784D01*
X640917Y145769D01*
X640872Y145739D01*
X640813Y145694D01*
X640739Y145635D01*
X640635Y145546D01*
X640531Y145442D01*
X640427Y145323D01*
X640308Y145189D01*
X640189Y145041D01*
X640085Y144877D01*
X639877Y144491D01*
X639803Y144283D01*
X639743Y144060D01*
X639698Y143837D01*
X639684Y143584D01*
Y143480D01*
X639698Y143406D01*
Y143317D01*
X639713Y143213D01*
X639758Y142990D01*
X639832Y142723D01*
X639936Y142455D01*
X640085Y142203D01*
X640278Y141965D01*
X640308Y141935D01*
X640382Y141876D01*
X640531Y141786D01*
X640724Y141668D01*
X640769Y141649D01*
X640679Y141573D01*
X640664Y141559D01*
X640635Y141529D01*
X640590Y141484D01*
X640516Y141410D01*
X640442Y141321D01*
X640367Y141202D01*
X640278Y141083D01*
X640174Y140935D01*
X640085Y140771D01*
X639996Y140593D01*
X639921Y140400D01*
X639832Y140177D01*
X639773Y139954D01*
X639728Y139716D01*
X639698Y139464D01*
X639684Y139196D01*
Y139062D01*
X639698Y138958D01*
X639713Y138839D01*
X639728Y138691D01*
X639758Y138542D01*
X639803Y138364D01*
X639921Y138007D01*
X639996Y137814D01*
X640100Y137621D01*
X640204Y137428D01*
X640338Y137235D01*
X640486Y137056D01*
X640664Y136878D01*
X640679Y136863D01*
X640709Y136833D01*
X640768Y136789D01*
X640843Y136729D01*
X640947Y136670D01*
X641066Y136596D01*
X641199Y136507D01*
X641363Y136417D01*
X641556Y136343D01*
X641749Y136254D01*
X641972Y136180D01*
X642225Y136105D01*
X642477Y136061D01*
X642759Y136016D01*
X643057Y135986D01*
X643384Y135972D01*
X643562D01*
X643696Y135986D01*
Y141247D01*
X643740D01*
X643814Y141232D01*
X643889D01*
X643993Y141217D01*
X644097Y141202D01*
X644364Y141143D01*
X644647Y141053D01*
X644944Y140949D01*
X645241Y140786D01*
X645494Y140593D01*
X645523Y140563D01*
X645583Y140489D01*
X645687Y140355D01*
X645791Y140192D01*
X645910Y139969D01*
X646014Y139716D01*
X646073Y139434D01*
X646103Y139122D01*
Y139003D01*
X646088Y138884D01*
X646058Y138735D01*
X646014Y138557D01*
X645954Y138364D01*
X645880Y138171D01*
X645761Y137992D01*
X645746Y137978D01*
X645687Y137918D01*
X645612Y137829D01*
X645479Y137725D01*
X645330Y137606D01*
X645137Y137487D01*
X644899Y137368D01*
X644632Y137249D01*
X644795Y136016D01*
X644810D01*
X644840Y136031D01*
X644899Y136046D01*
X644974Y136076D01*
X645063Y136105D01*
X645167Y136150D01*
X645419Y136269D01*
X645687Y136417D01*
X645969Y136596D01*
X646251Y136833D01*
X646489Y137101D01*
Y137116D01*
X646519Y137131D01*
X646548Y137175D01*
X646578Y137249D01*
X646623Y137324D01*
X646682Y137413D01*
X646727Y137517D01*
X646786Y137651D01*
X646890Y137933D01*
X646994Y138290D01*
X647054Y138676D01*
X647084Y139122D01*
Y139270D01*
X647069Y139374D01*
X647054Y139508D01*
X647039Y139657D01*
X647009Y139820D01*
X646965Y140013D01*
X646846Y140400D01*
X646771Y140608D01*
X646682Y140801D01*
X646578Y141009D01*
X646444Y141202D01*
X646304Y141385D01*
X646920D01*
Y142589D01*
X642225D01*
X642076Y142604D01*
X641734Y142633D01*
X641571Y142663D01*
X641437Y142708D01*
X641422D01*
X641378Y142738D01*
X641318Y142767D01*
X641244Y142812D01*
X641170Y142871D01*
X641080Y142945D01*
X640991Y143035D01*
X640917Y143139D01*
X640902Y143153D01*
X640887Y143198D01*
X640857Y143258D01*
X640813Y143332D01*
X640783Y143436D01*
X640753Y143570D01*
X640739Y143703D01*
X640724Y143852D01*
Y143971D01*
X640753Y144119D01*
X640783Y144283D01*
X640843Y144476D01*
X640932Y144684D01*
X641066Y144907D01*
X641229Y145100D01*
X641259Y145115D01*
X641318Y145174D01*
X641437Y145249D01*
X641615Y145338D01*
X641838Y145442D01*
X642106Y145516D01*
X642433Y145576D01*
X642819Y145590D01*
X646920D01*
Y146794D01*
X642195D01*
X642046Y146809D01*
X641883Y146824D01*
X641675Y146868D01*
X641482Y146913D01*
X641289Y146987D01*
X641125Y147091D01*
X641110Y147106D01*
X641066Y147151D01*
X640991Y147210D01*
X640917Y147314D01*
X640857Y147448D01*
X640783Y147611D01*
X640739Y147804D01*
X640724Y148042D01*
Y148131D01*
X640739Y148220D01*
X640753Y148354D01*
X640783Y148488D01*
X640843Y148651D01*
X640902Y148815D01*
X640991Y148978D01*
X641006Y148993D01*
X641036Y149052D01*
X641110Y149127D01*
X641184Y149216D01*
X641303Y149320D01*
X641437Y149424D01*
X641600Y149513D01*
X641779Y149602D01*
X641808Y149617D01*
X641868Y149632D01*
X641987Y149662D01*
X642150Y149691D01*
X642358Y149736D01*
X642611Y149766D01*
X642908Y149781D01*
X643250Y149796D01*
X646920D01*
Y150999D01*
D02*
G37*
G36*
X634126Y136081D02*
X580786D01*
Y135775D01*
X634126D01*
Y136081D01*
D02*
G37*
G36*
Y135468D02*
X580786D01*
Y134855D01*
X634126D01*
Y135468D01*
D02*
G37*
G36*
Y134549D02*
X580786D01*
Y134242D01*
X634126D01*
Y134549D01*
D02*
G37*
G36*
Y133935D02*
X580786D01*
Y133322D01*
X634126D01*
Y133935D01*
D02*
G37*
G36*
Y132709D02*
X580786D01*
Y132403D01*
X634126D01*
Y132709D01*
D02*
G37*
G36*
Y132096D02*
X580786D01*
Y131790D01*
X634126D01*
Y132096D01*
D02*
G37*
G36*
X646920Y132817D02*
X637158D01*
Y131613D01*
X646920D01*
Y132817D01*
D02*
G37*
G36*
X634126Y131483D02*
X580786D01*
Y131177D01*
X634126D01*
Y131483D01*
D02*
G37*
G36*
Y130563D02*
X580786D01*
Y130257D01*
X634126D01*
Y130563D01*
D02*
G37*
G36*
Y129950D02*
X580786D01*
Y129644D01*
X634126D01*
Y129950D01*
D02*
G37*
G36*
Y129031D02*
X580786D01*
Y128724D01*
X634126D01*
Y129031D01*
D02*
G37*
G36*
Y128111D02*
X580786D01*
Y127804D01*
X634126D01*
Y128111D01*
D02*
G37*
G36*
Y127498D02*
X580786D01*
Y127191D01*
X634126D01*
Y127498D01*
D02*
G37*
G36*
Y126885D02*
X580786D01*
Y126272D01*
X634126D01*
Y126885D01*
D02*
G37*
G36*
Y125965D02*
X580786D01*
Y125659D01*
X634126D01*
Y125965D01*
D02*
G37*
G36*
Y125352D02*
X580786D01*
Y125045D01*
X634126D01*
Y125352D01*
D02*
G37*
G36*
Y124432D02*
X580786D01*
Y123819D01*
X634126D01*
Y124432D01*
D02*
G37*
G36*
X645063Y128458D02*
X644974D01*
X644870Y128443D01*
X644751Y128428D01*
X644602Y128399D01*
X644439Y128369D01*
X644275Y128309D01*
X644112Y128235D01*
X644097Y128220D01*
X644037Y128190D01*
X643963Y128146D01*
X643859Y128072D01*
X643755Y127983D01*
X643636Y127864D01*
X643532Y127745D01*
X643428Y127611D01*
X643413Y127596D01*
X643384Y127537D01*
X643339Y127462D01*
X643280Y127358D01*
X643205Y127225D01*
X643146Y127091D01*
X643086Y126927D01*
X643027Y126749D01*
Y126734D01*
X643012Y126675D01*
X642997Y126601D01*
X642968Y126482D01*
X642938Y126333D01*
X642908Y126140D01*
X642878Y125932D01*
X642849Y125679D01*
Y125665D01*
X642834Y125620D01*
Y125546D01*
X642819Y125442D01*
X642804Y125323D01*
X642789Y125189D01*
X642730Y124862D01*
X642670Y124520D01*
X642611Y124164D01*
X642522Y123822D01*
X642477Y123673D01*
X642433Y123540D01*
X642388D01*
X642299Y123525D01*
X642002D01*
X641868Y123540D01*
X641719Y123569D01*
X641556Y123614D01*
X641378Y123673D01*
X641229Y123748D01*
X641095Y123867D01*
X641080Y123881D01*
X641036Y123956D01*
X640962Y124060D01*
X640887Y124208D01*
X640813Y124402D01*
X640739Y124639D01*
X640694Y124922D01*
X640679Y125234D01*
Y125367D01*
X640694Y125516D01*
X640709Y125709D01*
X640753Y125917D01*
X640798Y126110D01*
X640872Y126318D01*
X640976Y126482D01*
X640991Y126497D01*
X641036Y126541D01*
X641110Y126615D01*
X641214Y126705D01*
X641363Y126809D01*
X641541Y126898D01*
X641764Y127002D01*
X642017Y127076D01*
X641853Y128250D01*
X641838D01*
X641823Y128235D01*
X641734Y128220D01*
X641600Y128176D01*
X641422Y128131D01*
X641229Y128057D01*
X641036Y127968D01*
X640828Y127864D01*
X640649Y127730D01*
X640635Y127715D01*
X640575Y127656D01*
X640486Y127581D01*
X640382Y127462D01*
X640278Y127314D01*
X640159Y127121D01*
X640040Y126913D01*
X639936Y126675D01*
Y126660D01*
X639921Y126645D01*
X639907Y126601D01*
X639892Y126556D01*
X639862Y126407D01*
X639803Y126214D01*
X639758Y125976D01*
X639728Y125709D01*
X639698Y125397D01*
X639684Y125070D01*
Y124922D01*
X639698Y124758D01*
X639713Y124550D01*
X639743Y124312D01*
X639773Y124060D01*
X639832Y123822D01*
X639907Y123599D01*
X639921Y123569D01*
X639936Y123510D01*
X639996Y123406D01*
X640055Y123287D01*
X640129Y123153D01*
X640219Y123005D01*
X640323Y122886D01*
X640442Y122767D01*
X640456Y122752D01*
X640501Y122722D01*
X640560Y122678D01*
X640664Y122618D01*
X640783Y122559D01*
X640917Y122500D01*
X641080Y122440D01*
X641259Y122395D01*
X641274D01*
X641318Y122381D01*
X641393Y122366D01*
X641511Y122351D01*
X641660D01*
X641853Y122336D01*
X642076Y122321D01*
X644513D01*
X644855Y122306D01*
X645226D01*
X645568Y122291D01*
X645731Y122277D01*
X645865D01*
X645984Y122262D01*
X646088Y122247D01*
X646103D01*
X646162Y122232D01*
X646251Y122217D01*
X646355Y122188D01*
X646474Y122143D01*
X646623Y122083D01*
X646920Y121950D01*
Y123198D01*
X646905Y123213D01*
X646861Y123228D01*
X646771Y123257D01*
X646667Y123302D01*
X646534Y123347D01*
X646385Y123376D01*
X646222Y123406D01*
X646029Y123436D01*
X646058Y123465D01*
X646118Y123554D01*
X646222Y123673D01*
X646340Y123852D01*
X646489Y124045D01*
X646623Y124268D01*
X646742Y124491D01*
X646846Y124728D01*
X646861Y124758D01*
X646875Y124832D01*
X646920Y124951D01*
X646965Y125115D01*
X647009Y125323D01*
X647039Y125546D01*
X647069Y125783D01*
X647084Y126051D01*
Y126155D01*
X647069Y126244D01*
Y126333D01*
X647054Y126452D01*
X647009Y126705D01*
X646950Y127002D01*
X646846Y127284D01*
X646712Y127581D01*
X646519Y127834D01*
X646489Y127864D01*
X646415Y127938D01*
X646296Y128027D01*
X646118Y128146D01*
X645910Y128265D01*
X645672Y128354D01*
X645375Y128428D01*
X645063Y128458D01*
D02*
G37*
G36*
X634126Y123513D02*
X580786D01*
Y123206D01*
X634126D01*
Y123513D01*
D02*
G37*
G36*
Y122593D02*
X580786D01*
Y122286D01*
X634126D01*
Y122593D01*
D02*
G37*
G36*
Y121980D02*
X580786D01*
Y121673D01*
X634126D01*
Y121980D01*
D02*
G37*
G36*
Y121060D02*
X580786D01*
Y120754D01*
X634126D01*
Y121060D01*
D02*
G37*
G36*
Y120141D02*
X580786D01*
Y119834D01*
X634126D01*
Y120141D01*
D02*
G37*
G36*
Y119528D02*
X580786D01*
Y118914D01*
X634126D01*
Y119528D01*
D02*
G37*
G36*
Y118608D02*
X580786D01*
Y118301D01*
X634126D01*
Y118608D01*
D02*
G37*
G36*
Y117995D02*
X580786D01*
Y117688D01*
X634126D01*
Y117995D01*
D02*
G37*
G36*
Y117075D02*
X580786D01*
Y116769D01*
X634126D01*
Y117075D01*
D02*
G37*
G36*
Y116462D02*
X580786D01*
Y115849D01*
X634126D01*
Y116462D01*
D02*
G37*
G36*
X643398Y121469D02*
X643220D01*
X643131Y121454D01*
X643012D01*
X642759Y121425D01*
X642462Y121380D01*
X642150Y121321D01*
X641808Y121246D01*
X641482Y121128D01*
X641467D01*
X641437Y121113D01*
X641393Y121083D01*
X641333Y121053D01*
X641184Y120979D01*
X640991Y120860D01*
X640768Y120711D01*
X640546Y120533D01*
X640338Y120325D01*
X640144Y120072D01*
Y120058D01*
X640129Y120043D01*
X640070Y119954D01*
X639996Y119805D01*
X639907Y119612D01*
X639832Y119374D01*
X639758Y119107D01*
X639698Y118809D01*
X639684Y118497D01*
Y118393D01*
X639698Y118275D01*
X639713Y118111D01*
X639758Y117948D01*
X639803Y117754D01*
X639877Y117561D01*
X639966Y117368D01*
X639981Y117338D01*
X640011Y117279D01*
X640070Y117190D01*
X640159Y117071D01*
X640248Y116952D01*
X640367Y116804D01*
X640516Y116670D01*
X640664Y116551D01*
X637158D01*
Y115347D01*
X646920D01*
Y116462D01*
X646043D01*
X646058Y116477D01*
X646088Y116491D01*
X646133Y116536D01*
X646207Y116595D01*
X646281Y116655D01*
X646370Y116744D01*
X646459Y116848D01*
X646563Y116967D01*
X646653Y117101D01*
X646757Y117249D01*
X646846Y117413D01*
X646920Y117576D01*
X646994Y117769D01*
X647039Y117977D01*
X647069Y118200D01*
X647084Y118438D01*
Y118527D01*
X647069Y118587D01*
X647054Y118750D01*
X647024Y118943D01*
X646965Y119196D01*
X646890Y119448D01*
X646771Y119731D01*
X646623Y119998D01*
Y120013D01*
X646608Y120028D01*
X646534Y120117D01*
X646430Y120236D01*
X646281Y120399D01*
X646103Y120563D01*
X645880Y120756D01*
X645627Y120920D01*
X645330Y121083D01*
X645315D01*
X645285Y121098D01*
X645241Y121113D01*
X645182Y121142D01*
X645107Y121172D01*
X645003Y121202D01*
X644765Y121276D01*
X644483Y121350D01*
X644156Y121410D01*
X643800Y121454D01*
X643398Y121469D01*
D02*
G37*
G36*
X634126Y115542D02*
X580786D01*
Y115236D01*
X634126D01*
Y115542D01*
D02*
G37*
G36*
Y114623D02*
X580786D01*
Y114316D01*
X634126D01*
Y114623D01*
D02*
G37*
G36*
Y114010D02*
X580786D01*
Y113703D01*
X634126D01*
Y114010D01*
D02*
G37*
G36*
Y113090D02*
X580786D01*
Y112783D01*
X634126D01*
Y113090D01*
D02*
G37*
G36*
Y112170D02*
X580786D01*
Y111864D01*
X634126D01*
Y112170D01*
D02*
G37*
G36*
Y111557D02*
X580786D01*
Y111251D01*
X634126D01*
Y111557D01*
D02*
G37*
G36*
Y110944D02*
X580786D01*
Y110637D01*
X634126D01*
Y110944D01*
D02*
G37*
G36*
Y110331D02*
X580786D01*
Y109718D01*
X634126D01*
Y110331D01*
D02*
G37*
G36*
X645063Y114421D02*
X644974D01*
X644870Y114406D01*
X644751Y114391D01*
X644602Y114362D01*
X644439Y114332D01*
X644275Y114273D01*
X644112Y114198D01*
X644097Y114183D01*
X644037Y114154D01*
X643963Y114109D01*
X643859Y114035D01*
X643755Y113946D01*
X643636Y113827D01*
X643532Y113708D01*
X643428Y113574D01*
X643413Y113559D01*
X643384Y113500D01*
X643339Y113426D01*
X643280Y113322D01*
X643205Y113188D01*
X643146Y113054D01*
X643086Y112891D01*
X643027Y112712D01*
Y112697D01*
X643012Y112638D01*
X642997Y112564D01*
X642968Y112445D01*
X642938Y112296D01*
X642908Y112103D01*
X642878Y111895D01*
X642849Y111643D01*
Y111628D01*
X642834Y111583D01*
Y111509D01*
X642819Y111405D01*
X642804Y111286D01*
X642789Y111152D01*
X642730Y110825D01*
X642670Y110484D01*
X642611Y110127D01*
X642522Y109785D01*
X642477Y109637D01*
X642433Y109503D01*
X642388D01*
X642299Y109488D01*
X642002D01*
X641868Y109503D01*
X641719Y109532D01*
X641556Y109577D01*
X641378Y109637D01*
X641229Y109711D01*
X641095Y109830D01*
X641080Y109845D01*
X641036Y109919D01*
X640962Y110023D01*
X640887Y110171D01*
X640813Y110365D01*
X640739Y110602D01*
X640694Y110885D01*
X640679Y111197D01*
Y111330D01*
X640694Y111479D01*
X640709Y111672D01*
X640753Y111880D01*
X640798Y112073D01*
X640872Y112282D01*
X640976Y112445D01*
X640991Y112460D01*
X641036Y112504D01*
X641110Y112579D01*
X641214Y112668D01*
X641363Y112772D01*
X641541Y112861D01*
X641764Y112965D01*
X642017Y113039D01*
X641853Y114213D01*
X641838D01*
X641823Y114198D01*
X641734Y114183D01*
X641600Y114139D01*
X641422Y114094D01*
X641229Y114020D01*
X641036Y113931D01*
X640828Y113827D01*
X640649Y113693D01*
X640635Y113678D01*
X640575Y113619D01*
X640486Y113545D01*
X640382Y113426D01*
X640278Y113277D01*
X640159Y113084D01*
X640040Y112876D01*
X639936Y112638D01*
Y112623D01*
X639921Y112608D01*
X639907Y112564D01*
X639892Y112519D01*
X639862Y112371D01*
X639803Y112177D01*
X639758Y111940D01*
X639728Y111672D01*
X639698Y111360D01*
X639684Y111033D01*
Y110885D01*
X639698Y110721D01*
X639713Y110513D01*
X639743Y110275D01*
X639773Y110023D01*
X639832Y109785D01*
X639907Y109562D01*
X639921Y109532D01*
X639936Y109473D01*
X639996Y109369D01*
X640055Y109250D01*
X640129Y109116D01*
X640219Y108968D01*
X640323Y108849D01*
X640442Y108730D01*
X640456Y108715D01*
X640501Y108686D01*
X640560Y108641D01*
X640664Y108582D01*
X640783Y108522D01*
X640917Y108463D01*
X641080Y108403D01*
X641259Y108359D01*
X641274D01*
X641318Y108344D01*
X641393Y108329D01*
X641511Y108314D01*
X641660D01*
X641853Y108299D01*
X642076Y108284D01*
X644513D01*
X644855Y108270D01*
X645226D01*
X645568Y108255D01*
X645731Y108240D01*
X645865D01*
X645984Y108225D01*
X646088Y108210D01*
X646103D01*
X646162Y108195D01*
X646251Y108180D01*
X646355Y108151D01*
X646474Y108106D01*
X646623Y108047D01*
X646920Y107913D01*
Y109161D01*
X646905Y109176D01*
X646861Y109191D01*
X646771Y109221D01*
X646667Y109265D01*
X646534Y109310D01*
X646385Y109339D01*
X646222Y109369D01*
X646029Y109399D01*
X646058Y109429D01*
X646118Y109518D01*
X646222Y109637D01*
X646340Y109815D01*
X646489Y110008D01*
X646623Y110231D01*
X646742Y110454D01*
X646846Y110691D01*
X646861Y110721D01*
X646875Y110796D01*
X646920Y110914D01*
X646965Y111078D01*
X647009Y111286D01*
X647039Y111509D01*
X647069Y111747D01*
X647084Y112014D01*
Y112118D01*
X647069Y112207D01*
Y112296D01*
X647054Y112415D01*
X647009Y112668D01*
X646950Y112965D01*
X646846Y113247D01*
X646712Y113545D01*
X646519Y113797D01*
X646489Y113827D01*
X646415Y113901D01*
X646296Y113990D01*
X646118Y114109D01*
X645910Y114228D01*
X645672Y114317D01*
X645375Y114391D01*
X645063Y114421D01*
D02*
G37*
G36*
X634126Y109105D02*
X580786D01*
Y108798D01*
X634126D01*
Y109105D01*
D02*
G37*
G36*
Y108492D02*
X580786D01*
Y107879D01*
X634126D01*
Y108492D01*
D02*
G37*
G36*
Y107572D02*
X580786D01*
Y107265D01*
X634126D01*
Y107572D01*
D02*
G37*
G36*
Y106652D02*
X580786D01*
Y106346D01*
X634126D01*
Y106652D01*
D02*
G37*
G36*
Y106039D02*
X580786D01*
Y105733D01*
X634126D01*
Y106039D01*
D02*
G37*
G36*
Y105119D02*
X580786D01*
Y104813D01*
X634126D01*
Y105119D01*
D02*
G37*
G36*
Y104200D02*
X580786D01*
Y103893D01*
X634126D01*
Y104200D01*
D02*
G37*
G36*
Y103587D02*
X580786D01*
Y102974D01*
X634126D01*
Y103587D01*
D02*
G37*
G36*
Y102667D02*
X580786D01*
Y102360D01*
X634126D01*
Y102667D01*
D02*
G37*
G36*
Y102054D02*
X580786D01*
Y101747D01*
X634126D01*
Y102054D01*
D02*
G37*
G36*
X646920Y105478D02*
X639847D01*
Y104394D01*
X640902D01*
X640887Y104379D01*
X640798Y104319D01*
X640664Y104245D01*
X640516Y104156D01*
X640352Y104037D01*
X640189Y103903D01*
X640040Y103785D01*
X639936Y103651D01*
X639921Y103636D01*
X639892Y103591D01*
X639862Y103517D01*
X639803Y103413D01*
X639758Y103309D01*
X639728Y103175D01*
X639698Y103027D01*
X639684Y102878D01*
Y102774D01*
X639698Y102655D01*
X639728Y102492D01*
X639788Y102313D01*
X639847Y102106D01*
X639951Y101883D01*
X640085Y101645D01*
X641184Y102076D01*
X641170Y102091D01*
X641140Y102150D01*
X641095Y102239D01*
X641051Y102343D01*
X641006Y102477D01*
X640962Y102626D01*
X640932Y102789D01*
X640917Y102952D01*
Y103012D01*
X640932Y103086D01*
X640947Y103190D01*
X640976Y103294D01*
X641021Y103413D01*
X641080Y103532D01*
X641155Y103651D01*
X641170Y103666D01*
X641199Y103695D01*
X641259Y103755D01*
X641333Y103814D01*
X641422Y103889D01*
X641541Y103963D01*
X641675Y104022D01*
X641823Y104082D01*
X641853Y104097D01*
X641927Y104111D01*
X642061Y104141D01*
X642239Y104171D01*
X642448Y104215D01*
X642685Y104245D01*
X642938Y104260D01*
X643220Y104275D01*
X646920D01*
Y105478D01*
D02*
G37*
G36*
X634126Y101134D02*
X580786D01*
Y100828D01*
X634126D01*
Y101134D01*
D02*
G37*
G36*
Y100521D02*
X580786D01*
Y99908D01*
X634126D01*
Y100521D01*
D02*
G37*
G36*
Y99602D02*
X580786D01*
Y99295D01*
X634126D01*
Y99602D01*
D02*
G37*
G36*
Y98682D02*
X580786D01*
Y98375D01*
X634126D01*
Y98682D01*
D02*
G37*
G36*
Y98069D02*
X580786D01*
Y97762D01*
X634126D01*
Y98069D01*
D02*
G37*
G36*
Y97149D02*
X580786D01*
Y96843D01*
X634126D01*
Y97149D01*
D02*
G37*
G36*
Y96229D02*
X580786D01*
Y95923D01*
X634126D01*
Y96229D01*
D02*
G37*
G36*
Y95616D02*
X580786D01*
Y95003D01*
X634126D01*
Y95616D01*
D02*
G37*
G36*
Y94697D02*
X580786D01*
Y94390D01*
X634126D01*
Y94697D01*
D02*
G37*
G36*
Y94084D02*
X580786D01*
Y93777D01*
X634126D01*
Y94084D01*
D02*
G37*
G36*
X646920Y99604D02*
X637158D01*
Y98401D01*
X642715D01*
X639847Y95563D01*
Y94002D01*
X642477Y96707D01*
X646920Y93735D01*
Y95221D01*
X643309Y97569D01*
X644112Y98401D01*
X646920D01*
Y99604D01*
D02*
G37*
G36*
X634126Y93470D02*
X580786D01*
Y92857D01*
X634126D01*
Y93470D01*
D02*
G37*
G36*
Y92244D02*
X580786D01*
Y91938D01*
X634126D01*
Y92244D01*
D02*
G37*
G36*
Y91631D02*
X580786D01*
Y91325D01*
X634126D01*
Y91631D01*
D02*
G37*
G36*
Y90711D02*
X580786D01*
Y90405D01*
X634126D01*
Y90711D01*
D02*
G37*
G36*
Y90098D02*
X580786D01*
Y89792D01*
X634126D01*
Y90098D01*
D02*
G37*
G36*
Y89179D02*
X580786D01*
Y88872D01*
X634126D01*
Y89179D01*
D02*
G37*
G36*
X647084Y91962D02*
X636994Y89139D01*
Y88188D01*
X647084Y91011D01*
Y91962D01*
D02*
G37*
G36*
X634126Y88259D02*
X580786D01*
Y87953D01*
X634126D01*
Y88259D01*
D02*
G37*
G36*
Y87646D02*
X580786D01*
Y87033D01*
X634126D01*
Y87646D01*
D02*
G37*
G36*
Y86726D02*
X580786D01*
Y86420D01*
X634126D01*
Y86726D01*
D02*
G37*
G36*
Y86113D02*
X580786D01*
Y85807D01*
X634126D01*
Y86113D01*
D02*
G37*
G36*
Y85500D02*
X580786D01*
Y85194D01*
X634126D01*
Y85500D01*
D02*
G37*
G36*
Y84580D02*
X580786D01*
Y83967D01*
X634126D01*
Y84580D01*
D02*
G37*
G36*
Y83661D02*
X580786D01*
Y83354D01*
X634126D01*
Y83661D01*
D02*
G37*
G36*
Y82741D02*
X580786D01*
Y82435D01*
X634126D01*
Y82741D01*
D02*
G37*
G36*
Y81821D02*
X580786D01*
Y81515D01*
X634126D01*
Y81821D01*
D02*
G37*
G36*
Y81208D02*
X580786D01*
Y80902D01*
X634126D01*
Y81208D01*
D02*
G37*
G36*
X643785Y86972D02*
X643681Y85753D01*
X643710D01*
X643800Y85738D01*
X643933Y85709D01*
X644112Y85679D01*
X644305Y85619D01*
X644513Y85560D01*
X644706Y85471D01*
X644899Y85367D01*
X644914Y85352D01*
X644974Y85307D01*
X645063Y85233D01*
X645167Y85114D01*
X645285Y84980D01*
X645419Y84817D01*
X645538Y84609D01*
X645657Y84386D01*
Y84371D01*
X645672Y84356D01*
X645702Y84267D01*
X645746Y84134D01*
X645791Y83940D01*
X645850Y83732D01*
X645895Y83465D01*
X645925Y83183D01*
X645939Y82885D01*
Y82767D01*
X645925Y82618D01*
X645910Y82455D01*
X645895Y82247D01*
X645850Y82038D01*
X645806Y81816D01*
X645731Y81593D01*
X645716Y81563D01*
X645687Y81503D01*
X645642Y81399D01*
X645568Y81281D01*
X645479Y81132D01*
X645375Y80998D01*
X645256Y80865D01*
X645122Y80746D01*
X645107Y80731D01*
X645048Y80701D01*
X644974Y80657D01*
X644870Y80597D01*
X644751Y80553D01*
X644602Y80508D01*
X644453Y80478D01*
X644290Y80463D01*
X644216D01*
X644127Y80478D01*
X644023Y80493D01*
X643889Y80523D01*
X643755Y80582D01*
X643621Y80642D01*
X643488Y80731D01*
X643473Y80746D01*
X643428Y80775D01*
X643369Y80850D01*
X643280Y80939D01*
X643190Y81058D01*
X643101Y81206D01*
X642997Y81399D01*
X642908Y81608D01*
X642893Y81622D01*
X642878Y81682D01*
X642849Y81801D01*
X642819Y81875D01*
X642789Y81964D01*
X642759Y82083D01*
X642730Y82202D01*
X642685Y82351D01*
X642641Y82499D01*
X642596Y82677D01*
X642551Y82885D01*
X642492Y83108D01*
X642433Y83346D01*
Y83361D01*
X642418Y83406D01*
X642403Y83480D01*
X642373Y83569D01*
X642343Y83673D01*
X642314Y83792D01*
X642239Y84074D01*
X642135Y84386D01*
X642031Y84698D01*
X641927Y84980D01*
X641883Y85114D01*
X641823Y85218D01*
Y85233D01*
X641808Y85248D01*
X641749Y85337D01*
X641675Y85456D01*
X641571Y85605D01*
X641437Y85783D01*
X641289Y85946D01*
X641110Y86110D01*
X640917Y86258D01*
X640887Y86273D01*
X640813Y86318D01*
X640709Y86362D01*
X640560Y86422D01*
X640382Y86496D01*
X640174Y86541D01*
X639936Y86585D01*
X639698Y86600D01*
X639565D01*
X639431Y86570D01*
X639253Y86541D01*
X639030Y86496D01*
X638807Y86422D01*
X638554Y86318D01*
X638317Y86184D01*
X638302D01*
X638287Y86169D01*
X638213Y86110D01*
X638094Y86006D01*
X637945Y85872D01*
X637797Y85709D01*
X637633Y85501D01*
X637470Y85248D01*
X637336Y84966D01*
Y84951D01*
X637321Y84936D01*
X637306Y84891D01*
X637276Y84817D01*
X637262Y84743D01*
X637232Y84654D01*
X637158Y84446D01*
X637098Y84178D01*
X637054Y83881D01*
X637009Y83539D01*
X636994Y83183D01*
Y83004D01*
X637009Y82900D01*
Y82796D01*
X637039Y82544D01*
X637083Y82247D01*
X637143Y81920D01*
X637232Y81593D01*
X637351Y81281D01*
Y81266D01*
X637366Y81251D01*
X637380Y81206D01*
X637410Y81147D01*
X637499Y80998D01*
X637603Y80805D01*
X637752Y80597D01*
X637930Y80389D01*
X638138Y80181D01*
X638376Y80003D01*
X638406Y79988D01*
X638495Y79928D01*
X638644Y79854D01*
X638822Y79780D01*
X639045Y79691D01*
X639312Y79602D01*
X639594Y79542D01*
X639907Y79512D01*
X639996Y80746D01*
X639951D01*
X639907Y80761D01*
X639847Y80775D01*
X639684Y80805D01*
X639476Y80865D01*
X639253Y80954D01*
X639030Y81073D01*
X638807Y81236D01*
X638614Y81429D01*
X638599Y81459D01*
X638540Y81533D01*
X638465Y81667D01*
X638376Y81845D01*
X638287Y82083D01*
X638213Y82380D01*
X638153Y82722D01*
X638138Y83123D01*
Y83316D01*
X638153Y83406D01*
Y83524D01*
X638198Y83777D01*
X638242Y84059D01*
X638317Y84342D01*
X638421Y84609D01*
X638495Y84728D01*
X638569Y84832D01*
X638584Y84847D01*
X638644Y84906D01*
X638733Y84995D01*
X638866Y85084D01*
X639015Y85189D01*
X639193Y85263D01*
X639386Y85322D01*
X639609Y85352D01*
X639698D01*
X639803Y85337D01*
X639921Y85307D01*
X640055Y85263D01*
X640204Y85189D01*
X640338Y85099D01*
X640471Y84980D01*
X640486Y84966D01*
X640531Y84891D01*
X640560Y84847D01*
X640605Y84787D01*
X640635Y84698D01*
X640679Y84594D01*
X640739Y84475D01*
X640798Y84342D01*
X640843Y84193D01*
X640902Y84015D01*
X640976Y83807D01*
X641036Y83584D01*
X641095Y83331D01*
X641170Y83049D01*
Y83034D01*
X641184Y82975D01*
X641199Y82900D01*
X641229Y82796D01*
X641259Y82662D01*
X641303Y82514D01*
X641378Y82187D01*
X641482Y81830D01*
X641586Y81474D01*
X641630Y81295D01*
X641690Y81147D01*
X641749Y80998D01*
X641794Y80879D01*
Y80865D01*
X641808Y80835D01*
X641838Y80805D01*
X641868Y80746D01*
X641957Y80597D01*
X642061Y80404D01*
X642210Y80196D01*
X642388Y79988D01*
X642581Y79795D01*
X642789Y79631D01*
X642819Y79616D01*
X642893Y79572D01*
X643012Y79498D01*
X643190Y79423D01*
X643384Y79349D01*
X643501Y79312D01*
X643458Y79314D01*
X643280D01*
X643161Y79299D01*
X643012Y79285D01*
X642834Y79270D01*
X642641Y79240D01*
X642433Y79195D01*
X641987Y79091D01*
X641764Y79017D01*
X641526Y78928D01*
X641303Y78824D01*
X641080Y78705D01*
X640872Y78571D01*
X640679Y78408D01*
X640664Y78393D01*
X640635Y78363D01*
X640590Y78319D01*
X640516Y78244D01*
X640442Y78155D01*
X640367Y78036D01*
X640278Y77917D01*
X640174Y77769D01*
X640085Y77606D01*
X639996Y77427D01*
X639921Y77234D01*
X639832Y77011D01*
X639773Y76788D01*
X639728Y76550D01*
X639698Y76298D01*
X639684Y76031D01*
Y75897D01*
X639698Y75793D01*
X639713Y75674D01*
X639728Y75525D01*
X639758Y75377D01*
X639803Y75198D01*
X639921Y74842D01*
X639996Y74649D01*
X640100Y74455D01*
X640204Y74262D01*
X640338Y74069D01*
X640486Y73891D01*
X640664Y73713D01*
X640679Y73698D01*
X640709Y73668D01*
X640768Y73623D01*
X640843Y73564D01*
X640947Y73504D01*
X641066Y73430D01*
X641199Y73341D01*
X641363Y73252D01*
X641556Y73177D01*
X641749Y73088D01*
X641972Y73014D01*
X642225Y72940D01*
X642477Y72895D01*
X642759Y72851D01*
X643057Y72821D01*
X643384Y72806D01*
X643562D01*
X643696Y72821D01*
Y78081D01*
X643740D01*
X643814Y78066D01*
X643889D01*
X643993Y78051D01*
X644097Y78036D01*
X644364Y77977D01*
X644647Y77888D01*
X644944Y77784D01*
X645241Y77620D01*
X645494Y77427D01*
X645523Y77397D01*
X645583Y77323D01*
X645687Y77189D01*
X645791Y77026D01*
X645910Y76803D01*
X646014Y76550D01*
X646073Y76268D01*
X646103Y75956D01*
Y75837D01*
X646088Y75718D01*
X646058Y75570D01*
X646014Y75392D01*
X645954Y75198D01*
X645880Y75005D01*
X645761Y74827D01*
X645746Y74812D01*
X645687Y74753D01*
X645612Y74663D01*
X645479Y74559D01*
X645330Y74440D01*
X645137Y74322D01*
X644899Y74203D01*
X644632Y74084D01*
X644795Y72851D01*
X644810D01*
X644840Y72866D01*
X644899Y72880D01*
X644974Y72910D01*
X645063Y72940D01*
X645167Y72984D01*
X645419Y73103D01*
X645687Y73252D01*
X645969Y73430D01*
X646251Y73668D01*
X646489Y73935D01*
Y73950D01*
X646519Y73965D01*
X646548Y74010D01*
X646578Y74084D01*
X646623Y74158D01*
X646682Y74247D01*
X646727Y74351D01*
X646786Y74485D01*
X646890Y74767D01*
X646994Y75124D01*
X647054Y75510D01*
X647084Y75956D01*
Y76105D01*
X647069Y76209D01*
X647054Y76343D01*
X647039Y76491D01*
X647009Y76655D01*
X646965Y76848D01*
X646846Y77234D01*
X646771Y77442D01*
X646682Y77635D01*
X646578Y77843D01*
X646444Y78036D01*
X646296Y78230D01*
X646133Y78408D01*
X646118Y78423D01*
X646088Y78453D01*
X646029Y78497D01*
X645954Y78542D01*
X645865Y78616D01*
X645746Y78690D01*
X645598Y78779D01*
X645434Y78854D01*
X645256Y78943D01*
X645063Y79032D01*
X644840Y79106D01*
X644602Y79166D01*
X644352Y79225D01*
X644453Y79245D01*
X644647Y79275D01*
X644870Y79319D01*
X645122Y79408D01*
X645389Y79512D01*
X645642Y79661D01*
X645672Y79676D01*
X645761Y79750D01*
X645880Y79839D01*
X646029Y79988D01*
X646207Y80166D01*
X646385Y80389D01*
X646548Y80657D01*
X646712Y80954D01*
Y80969D01*
X646727Y80998D01*
X646742Y81043D01*
X646771Y81102D01*
X646801Y81177D01*
X646831Y81266D01*
X646890Y81503D01*
X646965Y81771D01*
X647024Y82098D01*
X647069Y82440D01*
X647084Y82826D01*
Y83049D01*
X647069Y83153D01*
Y83287D01*
X647054Y83435D01*
X647039Y83599D01*
X646994Y83940D01*
X646920Y84312D01*
X646831Y84683D01*
X646712Y85040D01*
Y85055D01*
X646697Y85084D01*
X646667Y85129D01*
X646638Y85189D01*
X646548Y85352D01*
X646415Y85545D01*
X646251Y85783D01*
X646058Y86006D01*
X645820Y86243D01*
X645553Y86452D01*
X645538D01*
X645523Y86466D01*
X645479Y86496D01*
X645419Y86526D01*
X645345Y86570D01*
X645256Y86615D01*
X645033Y86704D01*
X644780Y86793D01*
X644468Y86882D01*
X644141Y86942D01*
X643785Y86972D01*
D02*
G37*
G36*
X634126Y80289D02*
X580786D01*
Y79982D01*
X634126D01*
Y80289D01*
D02*
G37*
G36*
Y79676D02*
X580786D01*
Y79062D01*
X634126D01*
Y79676D01*
D02*
G37*
G36*
Y78756D02*
X580786D01*
Y78449D01*
X634126D01*
Y78756D01*
D02*
G37*
G36*
Y78143D02*
X580786D01*
Y77530D01*
X634126D01*
Y78143D01*
D02*
G37*
G36*
Y77223D02*
X580786D01*
Y76917D01*
X634126D01*
Y77223D01*
D02*
G37*
G36*
Y76304D02*
X580786D01*
Y75997D01*
X634126D01*
Y76304D01*
D02*
G37*
G36*
Y75690D02*
X580786D01*
Y75384D01*
X634126D01*
Y75690D01*
D02*
G37*
G36*
Y75077D02*
X580786D01*
Y74464D01*
X634126D01*
Y75077D01*
D02*
G37*
G36*
Y74158D02*
X580786D01*
Y73851D01*
X634126D01*
Y74158D01*
D02*
G37*
G36*
Y73545D02*
X580786D01*
Y72931D01*
X634126D01*
Y73545D01*
D02*
G37*
G36*
Y72318D02*
X580786D01*
Y72012D01*
X634126D01*
Y72318D01*
D02*
G37*
G36*
Y71705D02*
X580786D01*
Y71399D01*
X634126D01*
Y71705D01*
D02*
G37*
G36*
Y70786D02*
X580786D01*
Y70479D01*
X634126D01*
Y70786D01*
D02*
G37*
G36*
Y70173D02*
X580786D01*
Y69866D01*
X634126D01*
Y70173D01*
D02*
G37*
G36*
Y69253D02*
X580786D01*
Y68946D01*
X634126D01*
Y69253D01*
D02*
G37*
G36*
Y68333D02*
X580786D01*
Y68027D01*
X634126D01*
Y68333D01*
D02*
G37*
G36*
Y67720D02*
X580786D01*
Y67107D01*
X634126D01*
Y67720D01*
D02*
G37*
G36*
Y66800D02*
X580786D01*
Y66494D01*
X634126D01*
Y66800D01*
D02*
G37*
G36*
X643413Y71872D02*
X643220D01*
X643116Y71858D01*
X643012D01*
X642730Y71828D01*
X642418Y71783D01*
X642091Y71709D01*
X641734Y71620D01*
X641407Y71501D01*
X641393D01*
X641363Y71486D01*
X641318Y71456D01*
X641259Y71427D01*
X641110Y71337D01*
X640917Y71219D01*
X640709Y71055D01*
X640501Y70862D01*
X640293Y70624D01*
X640115Y70357D01*
Y70342D01*
X640100Y70327D01*
X640070Y70283D01*
X640040Y70223D01*
X639981Y70060D01*
X639892Y69852D01*
X639817Y69614D01*
X639743Y69317D01*
X639698Y69005D01*
X639684Y68678D01*
Y68559D01*
X639698Y68485D01*
Y68380D01*
X639713Y68277D01*
X639758Y68009D01*
X639832Y67712D01*
X639936Y67385D01*
X640085Y67073D01*
X640278Y66791D01*
Y66776D01*
X640308Y66761D01*
X640382Y66672D01*
X640516Y66553D01*
X640694Y66404D01*
X640932Y66241D01*
X641214Y66092D01*
X641556Y65958D01*
X641927Y65855D01*
X642106Y67014D01*
X642091D01*
X642076Y67028D01*
X641987Y67043D01*
X641868Y67088D01*
X641704Y67147D01*
X641526Y67236D01*
X641348Y67340D01*
X641184Y67459D01*
X641036Y67608D01*
X641021Y67623D01*
X640976Y67682D01*
X640917Y67771D01*
X640843Y67890D01*
X640783Y68039D01*
X640724Y68202D01*
X640679Y68410D01*
X640664Y68618D01*
Y68707D01*
X640679Y68767D01*
X640694Y68930D01*
X640739Y69138D01*
X640828Y69376D01*
X640947Y69614D01*
X641095Y69866D01*
X641199Y69985D01*
X641318Y70089D01*
X641348Y70119D01*
X641393Y70134D01*
X641437Y70178D01*
X641511Y70223D01*
X641600Y70268D01*
X641704Y70312D01*
X641823Y70357D01*
X641957Y70416D01*
X642106Y70461D01*
X642284Y70505D01*
X642462Y70550D01*
X642670Y70595D01*
X642893Y70609D01*
X643131Y70639D01*
X643517D01*
X643621Y70624D01*
X643740D01*
X643874Y70609D01*
X644171Y70565D01*
X644513Y70505D01*
X644870Y70416D01*
X645182Y70283D01*
X645330Y70193D01*
X645464Y70104D01*
X645494Y70075D01*
X645568Y70000D01*
X645672Y69881D01*
X645776Y69718D01*
X645895Y69525D01*
X645999Y69272D01*
X646073Y69005D01*
X646088Y68856D01*
X646103Y68693D01*
Y68574D01*
X646073Y68440D01*
X646043Y68277D01*
X645999Y68098D01*
X645925Y67890D01*
X645820Y67697D01*
X645672Y67519D01*
X645657Y67504D01*
X645583Y67444D01*
X645494Y67355D01*
X645345Y67266D01*
X645152Y67162D01*
X644929Y67058D01*
X644647Y66969D01*
X644335Y66909D01*
X644498Y65736D01*
X644513D01*
X644557Y65750D01*
X644617Y65765D01*
X644691Y65780D01*
X644795Y65810D01*
X644914Y65840D01*
X645196Y65929D01*
X645494Y66062D01*
X645820Y66241D01*
X646118Y66464D01*
X646400Y66731D01*
Y66746D01*
X646430Y66761D01*
X646459Y66806D01*
X646504Y66865D01*
X646563Y66954D01*
X646623Y67043D01*
X646742Y67266D01*
X646861Y67548D01*
X646980Y67890D01*
X647054Y68262D01*
X647069Y68470D01*
X647084Y68678D01*
Y68811D01*
X647069Y68916D01*
X647054Y69034D01*
X647039Y69183D01*
X647009Y69331D01*
X646965Y69510D01*
X646861Y69881D01*
X646771Y70075D01*
X646682Y70268D01*
X646578Y70461D01*
X646459Y70639D01*
X646311Y70817D01*
X646147Y70996D01*
X646133Y71011D01*
X646103Y71040D01*
X646043Y71070D01*
X645969Y71129D01*
X645865Y71204D01*
X645746Y71278D01*
X645612Y71352D01*
X645449Y71427D01*
X645271Y71516D01*
X645063Y71590D01*
X644840Y71664D01*
X644587Y71739D01*
X644335Y71798D01*
X644037Y71828D01*
X643740Y71858D01*
X643413Y71872D01*
D02*
G37*
G36*
X634126Y66187D02*
X580786D01*
Y65574D01*
X634126D01*
Y66187D01*
D02*
G37*
G36*
Y64961D02*
X580786D01*
Y64655D01*
X634126D01*
Y64961D01*
D02*
G37*
G36*
Y64348D02*
X580786D01*
Y64042D01*
X634126D01*
Y64348D01*
D02*
G37*
G36*
Y63735D02*
X580786D01*
Y63428D01*
X634126D01*
Y63735D01*
D02*
G37*
G36*
Y62815D02*
X580786D01*
Y62509D01*
X634126D01*
Y62815D01*
D02*
G37*
G36*
Y62202D02*
X580786D01*
Y61896D01*
X634126D01*
Y62202D01*
D02*
G37*
G36*
Y61283D02*
X580786D01*
Y60976D01*
X634126D01*
Y61283D01*
D02*
G37*
G36*
Y60363D02*
X580786D01*
Y60056D01*
X634126D01*
Y60363D01*
D02*
G37*
G36*
Y59750D02*
X580786D01*
Y59137D01*
X634126D01*
Y59750D01*
D02*
G37*
G36*
X646920Y64787D02*
X637158D01*
Y63494D01*
X645776D01*
Y58695D01*
X646920D01*
Y64787D01*
D02*
G37*
G36*
X634126Y58830D02*
X580786D01*
Y58217D01*
X634126D01*
Y58830D01*
D02*
G37*
G36*
Y57910D02*
X580786D01*
Y57604D01*
X634126D01*
Y57910D01*
D02*
G37*
G36*
Y56991D02*
X580786D01*
Y56684D01*
X634126D01*
Y56991D01*
D02*
G37*
G36*
Y56378D02*
X580786D01*
Y56071D01*
X634126D01*
Y56378D01*
D02*
G37*
G36*
Y55764D02*
X580786D01*
Y55458D01*
X634126D01*
Y55764D01*
D02*
G37*
G36*
Y55151D02*
X580786D01*
Y54538D01*
X634126D01*
Y55151D01*
D02*
G37*
G36*
Y54232D02*
X580786D01*
Y53925D01*
X634126D01*
Y54232D01*
D02*
G37*
G36*
Y53619D02*
X580786D01*
Y53312D01*
X634126D01*
Y53619D01*
D02*
G37*
G36*
Y52699D02*
X580786D01*
Y52086D01*
X634126D01*
Y52699D01*
D02*
G37*
G36*
Y51779D02*
X580786D01*
Y51473D01*
X634126D01*
Y51779D01*
D02*
G37*
G36*
Y50860D02*
X580786D01*
Y50553D01*
X634126D01*
Y50860D01*
D02*
G37*
G36*
Y50247D02*
X580786D01*
Y49940D01*
X634126D01*
Y50247D01*
D02*
G37*
G36*
Y49327D02*
X580786D01*
Y49020D01*
X634126D01*
Y49327D01*
D02*
G37*
G36*
Y48407D02*
X580786D01*
Y48101D01*
X634126D01*
Y48407D01*
D02*
G37*
G36*
Y47794D02*
X580786D01*
Y47181D01*
X634126D01*
Y47794D01*
D02*
G37*
G36*
Y46874D02*
X580786D01*
Y46568D01*
X634126D01*
Y46874D01*
D02*
G37*
G36*
Y46261D02*
X580786D01*
Y45648D01*
X634126D01*
Y46261D01*
D02*
G37*
G36*
Y45342D02*
X580786D01*
Y45035D01*
X634126D01*
Y45342D01*
D02*
G37*
G36*
X643384Y58319D02*
X643294D01*
X643190Y58304D01*
X643057D01*
X642893Y58289D01*
X642715Y58259D01*
X642507Y58229D01*
X642284Y58185D01*
X642046Y58125D01*
X641808Y58051D01*
X641571Y57962D01*
X641333Y57858D01*
X641095Y57739D01*
X640872Y57590D01*
X640664Y57427D01*
X640471Y57234D01*
X640456Y57219D01*
X640442Y57189D01*
X640397Y57145D01*
X640352Y57070D01*
X640293Y56981D01*
X640219Y56877D01*
X640144Y56758D01*
X640070Y56610D01*
X640011Y56461D01*
X639936Y56298D01*
X639803Y55911D01*
X639713Y55480D01*
X639698Y55243D01*
X639684Y55005D01*
Y54871D01*
X639698Y54767D01*
X639713Y54633D01*
X639728Y54500D01*
X639758Y54336D01*
X639803Y54158D01*
X639921Y53787D01*
X639996Y53593D01*
X640085Y53385D01*
X640204Y53192D01*
X640338Y52999D01*
X640486Y52806D01*
X640649Y52628D01*
X640664Y52613D01*
X640694Y52583D01*
X640753Y52538D01*
X640828Y52479D01*
X640917Y52405D01*
X641036Y52330D01*
X641184Y52241D01*
X641333Y52152D01*
X641511Y52078D01*
X641719Y51989D01*
X641927Y51914D01*
X642165Y51840D01*
X642312Y51805D01*
X637158D01*
Y47273D01*
X637173Y47154D01*
Y47036D01*
X637187Y46738D01*
X637217Y46426D01*
X637276Y46100D01*
X637336Y45787D01*
X637380Y45639D01*
X637425Y45505D01*
Y45490D01*
X637440Y45475D01*
X637470Y45386D01*
X637544Y45267D01*
X637648Y45119D01*
X637767Y44941D01*
X637930Y44762D01*
X638124Y44584D01*
X638361Y44420D01*
X638391Y44405D01*
X638480Y44361D01*
X638614Y44287D01*
X638792Y44212D01*
X639015Y44138D01*
X639268Y44064D01*
X639535Y44019D01*
X639832Y44004D01*
X639936D01*
X640011Y44019D01*
X640100D01*
X640204Y44034D01*
X640442Y44093D01*
X640724Y44168D01*
X641006Y44287D01*
X641303Y44465D01*
X641452Y44569D01*
X641586Y44688D01*
X641615Y44718D01*
X641645Y44762D01*
X641704Y44807D01*
X641749Y44881D01*
X641823Y44970D01*
X641883Y45074D01*
X641957Y45193D01*
X642031Y45327D01*
X642106Y45490D01*
X642180Y45654D01*
X642254Y45847D01*
X642329Y46040D01*
X642388Y46263D01*
X642433Y46501D01*
X642477Y46753D01*
X642492Y46724D01*
X642522Y46664D01*
X642566Y46575D01*
X642626Y46471D01*
X642789Y46218D01*
X642878Y46085D01*
X642968Y45981D01*
X642997Y45951D01*
X643057Y45877D01*
X643176Y45773D01*
X643324Y45639D01*
X643517Y45475D01*
X643740Y45297D01*
X643993Y45104D01*
X644275Y44911D01*
X645373Y44208D01*
X645063Y44237D01*
X644974D01*
X644870Y44222D01*
X644751Y44207D01*
X644602Y44178D01*
X644439Y44148D01*
X644275Y44089D01*
X644112Y44014D01*
X644097Y43999D01*
X644037Y43970D01*
X643963Y43925D01*
X643859Y43851D01*
X643755Y43762D01*
X643636Y43643D01*
X643532Y43524D01*
X643428Y43390D01*
X643413Y43375D01*
X643384Y43316D01*
X643339Y43242D01*
X643280Y43138D01*
X643205Y43004D01*
X643146Y42870D01*
X643086Y42707D01*
X643027Y42528D01*
Y42513D01*
X643012Y42454D01*
X642997Y42380D01*
X642968Y42261D01*
X642938Y42112D01*
X642908Y41919D01*
X642878Y41711D01*
X642849Y41459D01*
Y41444D01*
X642834Y41399D01*
Y41325D01*
X642819Y41221D01*
X642804Y41102D01*
X642789Y40968D01*
X642730Y40641D01*
X642670Y40300D01*
X642611Y39943D01*
X642522Y39601D01*
X642477Y39453D01*
X642433Y39319D01*
X642388D01*
X642299Y39304D01*
X642002D01*
X641868Y39319D01*
X641719Y39348D01*
X641556Y39393D01*
X641378Y39453D01*
X641229Y39527D01*
X641095Y39646D01*
X641080Y39661D01*
X641036Y39735D01*
X640962Y39839D01*
X640887Y39987D01*
X640813Y40181D01*
X640739Y40418D01*
X640694Y40701D01*
X640679Y41013D01*
Y41146D01*
X640694Y41295D01*
X640709Y41488D01*
X640753Y41696D01*
X640798Y41889D01*
X640872Y42098D01*
X640976Y42261D01*
X640991Y42276D01*
X641036Y42320D01*
X641110Y42395D01*
X641214Y42484D01*
X641363Y42588D01*
X641541Y42677D01*
X641764Y42781D01*
X642017Y42855D01*
X641853Y44029D01*
X641838D01*
X641823Y44014D01*
X641734Y43999D01*
X641600Y43955D01*
X641422Y43910D01*
X641229Y43836D01*
X641036Y43747D01*
X640828Y43643D01*
X640649Y43509D01*
X640635Y43494D01*
X640575Y43435D01*
X640486Y43361D01*
X640382Y43242D01*
X640278Y43093D01*
X640159Y42900D01*
X640040Y42692D01*
X639936Y42454D01*
Y42439D01*
X639921Y42424D01*
X639907Y42380D01*
X639892Y42335D01*
X639862Y42187D01*
X639803Y41993D01*
X639758Y41756D01*
X639728Y41488D01*
X639698Y41176D01*
X639684Y40849D01*
Y40701D01*
X639698Y40537D01*
X639713Y40329D01*
X639743Y40092D01*
X639773Y39839D01*
X639832Y39601D01*
X639907Y39378D01*
X639921Y39348D01*
X639936Y39289D01*
X639996Y39185D01*
X640055Y39066D01*
X640129Y38932D01*
X640219Y38784D01*
X640323Y38665D01*
X640442Y38546D01*
X640456Y38531D01*
X640501Y38502D01*
X640560Y38457D01*
X640664Y38398D01*
X640783Y38338D01*
X640917Y38279D01*
X641080Y38219D01*
X641259Y38175D01*
X641274D01*
X641318Y38160D01*
X641393Y38145D01*
X641511Y38130D01*
X641660D01*
X641853Y38115D01*
X642076Y38100D01*
X644513D01*
X644855Y38085D01*
X645226D01*
X645568Y38071D01*
X645731Y38056D01*
X645805D01*
X637158Y34752D01*
Y33340D01*
X646920Y29373D01*
Y30829D01*
X643963Y31959D01*
Y36060D01*
X646920Y37115D01*
Y37729D01*
Y38977D01*
X646905Y38992D01*
X646861Y39007D01*
X646771Y39037D01*
X646667Y39081D01*
X646534Y39126D01*
X646385Y39155D01*
X646222Y39185D01*
X646029Y39215D01*
X646058Y39244D01*
X646118Y39334D01*
X646222Y39453D01*
X646340Y39631D01*
X646489Y39824D01*
X646623Y40047D01*
X646742Y40270D01*
X646846Y40507D01*
X646861Y40537D01*
X646875Y40612D01*
X646920Y40730D01*
X646965Y40894D01*
X647009Y41102D01*
X647039Y41325D01*
X647069Y41562D01*
X647084Y41830D01*
Y41934D01*
X647069Y42023D01*
Y42112D01*
X647054Y42231D01*
X647009Y42484D01*
X646950Y42781D01*
X646846Y43063D01*
X646719Y43346D01*
X646920Y43217D01*
Y44837D01*
X644899Y46129D01*
X644884D01*
X644855Y46159D01*
X644810Y46189D01*
X644751Y46218D01*
X644602Y46322D01*
X644409Y46456D01*
X644186Y46605D01*
X643963Y46768D01*
X643755Y46917D01*
X643562Y47065D01*
X643547Y47080D01*
X643488Y47125D01*
X643398Y47199D01*
X643294Y47273D01*
X643086Y47496D01*
X642982Y47600D01*
X642908Y47719D01*
X642893Y47734D01*
X642878Y47764D01*
X642849Y47823D01*
X642804Y47897D01*
X642715Y48076D01*
X642641Y48299D01*
Y48313D01*
X642626Y48343D01*
Y48403D01*
X642611Y48477D01*
X642596Y48581D01*
Y48700D01*
X642581Y48848D01*
Y50513D01*
X646920D01*
Y51805D01*
X644471D01*
X644780Y51870D01*
X645137Y51974D01*
X645449Y52108D01*
X645464D01*
X645479Y52122D01*
X645583Y52182D01*
X645716Y52286D01*
X645895Y52420D01*
X646088Y52583D01*
X646281Y52791D01*
X646474Y53029D01*
X646653Y53311D01*
Y53326D01*
X646667Y53341D01*
X646697Y53385D01*
X646712Y53445D01*
X646786Y53608D01*
X646861Y53816D01*
X646950Y54069D01*
X647009Y54351D01*
X647069Y54663D01*
X647084Y55005D01*
Y55154D01*
X647069Y55258D01*
X647054Y55376D01*
X647039Y55525D01*
X647009Y55689D01*
X646965Y55867D01*
X646846Y56238D01*
X646771Y56446D01*
X646682Y56639D01*
X646578Y56848D01*
X646444Y57041D01*
X646296Y57234D01*
X646133Y57412D01*
X646118Y57427D01*
X646088Y57457D01*
X646029Y57501D01*
X645954Y57546D01*
X645850Y57620D01*
X645731Y57694D01*
X645598Y57784D01*
X645434Y57858D01*
X645241Y57947D01*
X645048Y58036D01*
X644810Y58110D01*
X644572Y58170D01*
X644305Y58229D01*
X644023Y58274D01*
X643710Y58304D01*
X643384Y58319D01*
D02*
G37*
G36*
X634126Y44422D02*
X580786D01*
Y44116D01*
X634126D01*
Y44422D01*
D02*
G37*
G36*
Y43809D02*
X580786D01*
Y43196D01*
X634126D01*
Y43809D01*
D02*
G37*
G36*
Y42889D02*
X580786D01*
Y42583D01*
X634126D01*
Y42889D01*
D02*
G37*
G36*
Y42276D02*
X580786D01*
Y41970D01*
X634126D01*
Y42276D01*
D02*
G37*
G36*
Y41663D02*
X580786D01*
Y41050D01*
X634126D01*
Y41663D01*
D02*
G37*
G36*
Y40437D02*
X580786D01*
Y40130D01*
X634126D01*
Y40437D01*
D02*
G37*
G36*
Y39824D02*
X580786D01*
Y39517D01*
X634126D01*
Y39824D01*
D02*
G37*
G36*
Y38904D02*
X580786D01*
Y38598D01*
X634126D01*
Y38904D01*
D02*
G37*
G36*
Y38291D02*
X580786D01*
Y37984D01*
X634126D01*
Y38291D01*
D02*
G37*
G36*
Y37371D02*
X580786D01*
Y37065D01*
X634126D01*
Y37371D01*
D02*
G37*
G36*
Y36452D02*
X580786D01*
Y36145D01*
X634126D01*
Y36452D01*
D02*
G37*
G36*
Y35839D02*
X580786D01*
Y35226D01*
X634126D01*
Y35839D01*
D02*
G37*
G36*
Y34919D02*
X580786D01*
Y34612D01*
X634126D01*
Y34919D01*
D02*
G37*
G36*
Y34306D02*
X580786D01*
Y33999D01*
X634126D01*
Y34306D01*
D02*
G37*
G36*
Y33386D02*
X580786D01*
Y33080D01*
X634126D01*
Y33386D01*
D02*
G37*
G36*
Y32773D02*
X580786D01*
Y32160D01*
X634126D01*
Y32773D01*
D02*
G37*
G36*
Y31853D02*
X580786D01*
Y31240D01*
X634126D01*
Y31853D01*
D02*
G37*
G36*
Y30934D02*
X580786D01*
Y30627D01*
X634126D01*
Y30934D01*
D02*
G37*
G36*
Y30321D02*
X580786D01*
Y30014D01*
X634126D01*
Y30321D01*
D02*
G37*
G36*
Y29401D02*
X580786D01*
Y29095D01*
X634126D01*
Y29401D01*
D02*
G37*
G36*
Y28788D02*
X580786D01*
Y28175D01*
X634126D01*
Y28788D01*
D02*
G37*
G36*
Y27868D02*
X580786D01*
Y27562D01*
X634126D01*
Y27868D01*
D02*
G37*
G36*
Y27255D02*
X580786D01*
Y26949D01*
X634126D01*
Y27255D01*
D02*
G37*
G36*
Y26642D02*
X580786D01*
Y26029D01*
X634126D01*
Y26642D01*
D02*
G37*
G36*
Y25722D02*
X580786D01*
Y25109D01*
X634126D01*
Y25722D01*
D02*
G37*
G36*
Y24496D02*
X580786D01*
Y24190D01*
X634126D01*
Y24496D01*
D02*
G37*
G36*
Y23883D02*
X580786D01*
Y23270D01*
X634126D01*
Y23883D01*
D02*
G37*
G36*
Y22963D02*
X580786D01*
Y22350D01*
X634126D01*
Y22963D01*
D02*
G37*
G36*
Y22044D02*
X580786D01*
Y21737D01*
X634126D01*
Y22044D01*
D02*
G37*
G36*
Y21431D02*
X580786D01*
Y21124D01*
X634126D01*
Y21431D01*
D02*
G37*
G36*
Y20511D02*
X580786D01*
Y20204D01*
X634126D01*
Y20511D01*
D02*
G37*
G36*
Y19898D02*
X580786D01*
Y19591D01*
X634126D01*
Y19898D01*
D02*
G37*
G36*
Y18978D02*
X580786D01*
Y18672D01*
X634126D01*
Y18978D01*
D02*
G37*
G36*
Y18365D02*
X580786D01*
Y17752D01*
X634126D01*
Y18365D01*
D02*
G37*
G36*
Y17445D02*
X580786D01*
Y16832D01*
X634126D01*
Y17445D01*
D02*
G37*
G36*
Y16526D02*
X580786D01*
Y16219D01*
X634126D01*
Y16526D01*
D02*
G37*
G36*
X638302Y30735D02*
X637158D01*
Y23023D01*
Y22617D01*
X644067Y20299D01*
X644082D01*
X644112Y20284D01*
X644156Y20270D01*
X644230Y20255D01*
X644394Y20195D01*
X644602Y20121D01*
X644840Y20047D01*
X645078Y19972D01*
X645315Y19898D01*
X645508Y19839D01*
X645479Y19824D01*
X645404Y19809D01*
X645285Y19764D01*
X645122Y19705D01*
X644899Y19646D01*
X644632Y19556D01*
X644320Y19438D01*
X643948Y19319D01*
X637158Y16986D01*
Y15232D01*
X646920D01*
Y16480D01*
X638748D01*
X646920Y19333D01*
Y20492D01*
X638614Y23301D01*
X646920D01*
Y24549D01*
X638302D01*
Y26233D01*
X646920D01*
Y27526D01*
X638302D01*
Y30735D01*
D02*
G37*
%LPD*%
G36*
X643651Y260292D02*
X643770D01*
X643889Y260277D01*
X644186Y260233D01*
X644528Y260173D01*
X644855Y260084D01*
X645167Y259950D01*
X645315Y259861D01*
X645449Y259772D01*
X645479Y259742D01*
X645553Y259668D01*
X645657Y259549D01*
X645776Y259400D01*
X645895Y259207D01*
X645999Y258969D01*
X646073Y258717D01*
X646088Y258583D01*
X646103Y258435D01*
Y258360D01*
X646088Y258301D01*
X646073Y258152D01*
X646014Y257974D01*
X645939Y257751D01*
X645820Y257528D01*
X645657Y257305D01*
X645553Y257186D01*
X645434Y257082D01*
X645419D01*
X645404Y257053D01*
X645360Y257023D01*
X645300Y256993D01*
X645226Y256949D01*
X645137Y256904D01*
X645033Y256845D01*
X644914Y256785D01*
X644780Y256741D01*
X644617Y256681D01*
X644453Y256637D01*
X644260Y256592D01*
X644052Y256562D01*
X643829Y256533D01*
X643592Y256503D01*
X643205D01*
X643116Y256518D01*
X642997D01*
X642863Y256533D01*
X642566Y256577D01*
X642239Y256637D01*
X641898Y256741D01*
X641586Y256874D01*
X641437Y256964D01*
X641303Y257068D01*
X641289D01*
X641274Y257097D01*
X641199Y257172D01*
X641080Y257276D01*
X640962Y257439D01*
X640843Y257632D01*
X640724Y257855D01*
X640649Y258108D01*
X640620Y258241D01*
Y258449D01*
X640635Y258509D01*
X640664Y258643D01*
X640709Y258836D01*
X640798Y259044D01*
X640932Y259267D01*
X641006Y259386D01*
X641110Y259504D01*
X641214Y259623D01*
X641348Y259727D01*
X641363D01*
X641378Y259757D01*
X641422Y259787D01*
X641482Y259816D01*
X641556Y259861D01*
X641645Y259906D01*
X641749Y259965D01*
X641868Y260010D01*
X642017Y260069D01*
X642165Y260128D01*
X642343Y260173D01*
X642522Y260218D01*
X642730Y260247D01*
X642953Y260277D01*
X643176Y260307D01*
X643562D01*
X643651Y260292D01*
D02*
G37*
G36*
X643488Y225527D02*
X643606D01*
X643740Y225512D01*
X644037Y225467D01*
X644364Y225408D01*
X644706Y225304D01*
X645018Y225170D01*
X645152Y225081D01*
X645285Y224992D01*
X645315Y224962D01*
X645389Y224888D01*
X645494Y224769D01*
X645598Y224606D01*
X645716Y224412D01*
X645820Y224175D01*
X645895Y223907D01*
X645910Y223759D01*
X645925Y223610D01*
Y223536D01*
X645910Y223476D01*
X645895Y223313D01*
X645850Y223120D01*
X645776Y222912D01*
X645657Y222674D01*
X645508Y222451D01*
X645300Y222228D01*
X645285D01*
X645271Y222198D01*
X645226Y222169D01*
X645182Y222139D01*
X645107Y222094D01*
X645033Y222050D01*
X644929Y222005D01*
X644810Y221946D01*
X644676Y221886D01*
X644528Y221842D01*
X644364Y221797D01*
X644186Y221753D01*
X643993Y221708D01*
X643785Y221693D01*
X643547Y221663D01*
X643190D01*
X643101Y221678D01*
X642982D01*
X642863Y221693D01*
X642566Y221738D01*
X642254Y221797D01*
X641927Y221901D01*
X641615Y222050D01*
X641482Y222139D01*
X641348Y222243D01*
X641333D01*
X641318Y222273D01*
X641244Y222347D01*
X641140Y222466D01*
X641006Y222629D01*
X640887Y222822D01*
X640783Y223060D01*
X640709Y223328D01*
X640679Y223476D01*
Y223699D01*
X640694Y223759D01*
X640709Y223907D01*
X640753Y224100D01*
X640843Y224308D01*
X640962Y224546D01*
X641110Y224769D01*
X641214Y224888D01*
X641333Y224992D01*
X641363Y225022D01*
X641407Y225037D01*
X641452Y225081D01*
X641526Y225126D01*
X641600Y225170D01*
X641704Y225215D01*
X641823Y225259D01*
X641942Y225319D01*
X642091Y225363D01*
X642254Y225408D01*
X642418Y225453D01*
X642819Y225512D01*
X643265Y225542D01*
X643398D01*
X643488Y225527D01*
D02*
G37*
G36*
X643651Y190138D02*
X643770D01*
X644052Y190108D01*
X644349Y190063D01*
X644661Y190004D01*
X644944Y189930D01*
X645063Y189870D01*
X645182Y189811D01*
X645196D01*
X645226Y189781D01*
X645271Y189751D01*
X645330Y189707D01*
X645479Y189588D01*
X645642Y189410D01*
X645806Y189187D01*
X645954Y188919D01*
X646014Y188785D01*
X646058Y188622D01*
X646088Y188459D01*
X646103Y188280D01*
Y188206D01*
X646088Y188147D01*
X646073Y187998D01*
X646014Y187820D01*
X645939Y187597D01*
X645820Y187374D01*
X645642Y187151D01*
X645538Y187032D01*
X645419Y186928D01*
X645404D01*
X645389Y186898D01*
X645345Y186869D01*
X645285Y186839D01*
X645226Y186794D01*
X645137Y186750D01*
X645033Y186690D01*
X644914Y186631D01*
X644765Y186586D01*
X644617Y186527D01*
X644453Y186482D01*
X644275Y186438D01*
X644067Y186408D01*
X643859Y186378D01*
X643636Y186349D01*
X643250D01*
X643161Y186364D01*
X643042D01*
X642908Y186378D01*
X642611Y186423D01*
X642269Y186482D01*
X641942Y186586D01*
X641615Y186720D01*
X641467Y186794D01*
X641333Y186898D01*
X641318D01*
X641303Y186928D01*
X641229Y187002D01*
X641125Y187106D01*
X640991Y187270D01*
X640872Y187463D01*
X640768Y187701D01*
X640694Y187953D01*
X640664Y188087D01*
Y188310D01*
X640679Y188369D01*
X640694Y188518D01*
X640753Y188696D01*
X640828Y188904D01*
X640962Y189142D01*
X641125Y189365D01*
X641244Y189484D01*
X641363Y189588D01*
X641378D01*
X641393Y189618D01*
X641437Y189632D01*
X641497Y189677D01*
X641556Y189722D01*
X641645Y189766D01*
X641749Y189811D01*
X641868Y189870D01*
X642002Y189930D01*
X642150Y189974D01*
X642314Y190019D01*
X642477Y190063D01*
X642878Y190123D01*
X643339Y190152D01*
X643547D01*
X643651Y190138D01*
D02*
G37*
G36*
X643621Y169365D02*
X643725D01*
X643859Y169350D01*
X644156Y169305D01*
X644483Y169231D01*
X644825Y169142D01*
X645152Y168993D01*
X645300Y168904D01*
X645434Y168800D01*
X645464Y168770D01*
X645538Y168696D01*
X645642Y168562D01*
X645761Y168384D01*
X645895Y168176D01*
X645999Y167909D01*
X646073Y167626D01*
X646088Y167463D01*
X646103Y167299D01*
Y167210D01*
X646088Y167151D01*
X646073Y166987D01*
X646014Y166779D01*
X645939Y166542D01*
X645820Y166289D01*
X645657Y166051D01*
X645553Y165932D01*
X645434Y165814D01*
X645419D01*
X645404Y165784D01*
X645360Y165754D01*
X645300Y165724D01*
X645226Y165680D01*
X645137Y165620D01*
X645033Y165576D01*
X644914Y165516D01*
X644780Y165457D01*
X644632Y165412D01*
X644453Y165353D01*
X644260Y165308D01*
X644067Y165279D01*
X643844Y165249D01*
X643606Y165219D01*
X643235D01*
X643131Y165234D01*
X643027D01*
X642908Y165249D01*
X642611Y165293D01*
X642299Y165368D01*
X641957Y165472D01*
X641645Y165620D01*
X641363Y165828D01*
X641348D01*
X641333Y165858D01*
X641259Y165932D01*
X641140Y166066D01*
X641021Y166229D01*
X640902Y166452D01*
X640783Y166705D01*
X640709Y166987D01*
X640679Y167136D01*
Y167388D01*
X640694Y167448D01*
X640709Y167611D01*
X640768Y167819D01*
X640843Y168057D01*
X640962Y168310D01*
X641140Y168562D01*
X641244Y168681D01*
X641363Y168800D01*
X641393Y168830D01*
X641437Y168860D01*
X641482Y168889D01*
X641556Y168934D01*
X641645Y168979D01*
X641749Y169038D01*
X641868Y169083D01*
X642002Y169142D01*
X642150Y169201D01*
X642314Y169246D01*
X642507Y169291D01*
X642700Y169320D01*
X642923Y169350D01*
X643146Y169380D01*
X643532D01*
X643621Y169365D01*
D02*
G37*
G36*
X642715Y137235D02*
X642670D01*
X642626Y137249D01*
X642566D01*
X642403Y137279D01*
X642210Y137324D01*
X642002Y137383D01*
X641779Y137472D01*
X641556Y137562D01*
X641378Y137695D01*
X641363D01*
X641348Y137725D01*
X641259Y137799D01*
X641155Y137933D01*
X641021Y138097D01*
X640887Y138319D01*
X640768Y138572D01*
X640694Y138854D01*
X640679Y139018D01*
X640664Y139181D01*
Y139256D01*
X640679Y139315D01*
X640694Y139478D01*
X640739Y139672D01*
X640798Y139894D01*
X640902Y140117D01*
X641036Y140355D01*
X641229Y140578D01*
X641259Y140608D01*
X641333Y140667D01*
X641452Y140756D01*
X641630Y140860D01*
X641838Y140964D01*
X642091Y141068D01*
X642388Y141143D01*
X642715Y141187D01*
Y137235D01*
D02*
G37*
G36*
X645196Y127165D02*
X645315Y127135D01*
X645434Y127091D01*
X645568Y127031D01*
X645702Y126942D01*
X645835Y126824D01*
X645850Y126809D01*
X645880Y126749D01*
X645939Y126675D01*
X645984Y126556D01*
X646043Y126407D01*
X646103Y126214D01*
X646133Y126006D01*
X646147Y125754D01*
Y125635D01*
X646133Y125516D01*
X646103Y125338D01*
X646073Y125159D01*
X646029Y124951D01*
X645954Y124743D01*
X645850Y124535D01*
X645835Y124506D01*
X645791Y124446D01*
X645731Y124342D01*
X645627Y124223D01*
X645523Y124104D01*
X645375Y123970D01*
X645211Y123837D01*
X645018Y123733D01*
X645003Y123718D01*
X644944Y123703D01*
X644855Y123673D01*
X644721Y123629D01*
X644543Y123599D01*
X644335Y123569D01*
X644097Y123554D01*
X643814Y123540D01*
X643369D01*
X643384Y123569D01*
X643398Y123614D01*
X643413Y123659D01*
X643443Y123733D01*
X643458Y123822D01*
X643488Y123911D01*
X643532Y124030D01*
X643562Y124164D01*
X643592Y124312D01*
X643636Y124461D01*
X643681Y124639D01*
X643710Y124832D01*
X643755Y125040D01*
X643785Y125263D01*
X643829Y125501D01*
Y125531D01*
X643844Y125620D01*
X643874Y125754D01*
X643904Y125917D01*
X643978Y126259D01*
X644023Y126422D01*
X644067Y126556D01*
Y126571D01*
X644097Y126601D01*
X644127Y126660D01*
X644171Y126720D01*
X644290Y126868D01*
X644468Y127017D01*
X644483D01*
X644513Y127046D01*
X644557Y127061D01*
X644632Y127091D01*
X644810Y127150D01*
X644914Y127165D01*
X645033Y127180D01*
X645107D01*
X645196Y127165D01*
D02*
G37*
G36*
X643621Y120221D02*
X643740D01*
X643859Y120206D01*
X644171Y120162D01*
X644498Y120102D01*
X644840Y119998D01*
X645152Y119865D01*
X645300Y119775D01*
X645434Y119671D01*
X645464Y119642D01*
X645538Y119567D01*
X645642Y119448D01*
X645761Y119285D01*
X645895Y119092D01*
X645999Y118869D01*
X646073Y118602D01*
X646088Y118468D01*
X646103Y118319D01*
Y118245D01*
X646088Y118185D01*
X646073Y118037D01*
X646029Y117858D01*
X645939Y117650D01*
X645835Y117428D01*
X645672Y117190D01*
X645583Y117086D01*
X645464Y116982D01*
X645449D01*
X645434Y116952D01*
X645389Y116937D01*
X645345Y116893D01*
X645271Y116848D01*
X645196Y116804D01*
X645092Y116759D01*
X644974Y116699D01*
X644855Y116655D01*
X644706Y116610D01*
X644543Y116566D01*
X644364Y116521D01*
X644171Y116477D01*
X643963Y116462D01*
X643740Y116432D01*
X643369D01*
X643265Y116447D01*
X643146D01*
X643012Y116462D01*
X642685Y116506D01*
X642343Y116566D01*
X641987Y116670D01*
X641645Y116804D01*
X641497Y116893D01*
X641363Y116997D01*
X641348D01*
X641333Y117026D01*
X641259Y117101D01*
X641140Y117220D01*
X641021Y117383D01*
X640902Y117576D01*
X640783Y117814D01*
X640709Y118081D01*
X640679Y118230D01*
Y118453D01*
X640694Y118512D01*
X640709Y118661D01*
X640753Y118839D01*
X640843Y119047D01*
X640962Y119270D01*
X641110Y119493D01*
X641214Y119597D01*
X641333Y119701D01*
X641363Y119731D01*
X641407Y119746D01*
X641452Y119790D01*
X641526Y119820D01*
X641615Y119865D01*
X641719Y119924D01*
X641838Y119969D01*
X641972Y120013D01*
X642121Y120072D01*
X642299Y120117D01*
X642477Y120147D01*
X642685Y120191D01*
X642908Y120206D01*
X643146Y120236D01*
X643532D01*
X643621Y120221D01*
D02*
G37*
G36*
X645196Y113128D02*
X645315Y113099D01*
X645434Y113054D01*
X645568Y112995D01*
X645702Y112906D01*
X645835Y112787D01*
X645850Y112772D01*
X645880Y112712D01*
X645939Y112638D01*
X645984Y112519D01*
X646043Y112371D01*
X646103Y112177D01*
X646133Y111969D01*
X646147Y111717D01*
Y111598D01*
X646133Y111479D01*
X646103Y111301D01*
X646073Y111123D01*
X646029Y110914D01*
X645954Y110706D01*
X645850Y110498D01*
X645835Y110469D01*
X645791Y110409D01*
X645731Y110305D01*
X645627Y110186D01*
X645523Y110068D01*
X645375Y109934D01*
X645211Y109800D01*
X645018Y109696D01*
X645003Y109681D01*
X644944Y109666D01*
X644855Y109637D01*
X644721Y109592D01*
X644543Y109562D01*
X644335Y109532D01*
X644097Y109518D01*
X643814Y109503D01*
X643369D01*
X643384Y109532D01*
X643398Y109577D01*
X643413Y109622D01*
X643443Y109696D01*
X643458Y109785D01*
X643488Y109874D01*
X643532Y109993D01*
X643562Y110127D01*
X643592Y110275D01*
X643636Y110424D01*
X643681Y110602D01*
X643710Y110796D01*
X643755Y111004D01*
X643785Y111227D01*
X643829Y111464D01*
Y111494D01*
X643844Y111583D01*
X643874Y111717D01*
X643904Y111880D01*
X643978Y112222D01*
X644023Y112386D01*
X644067Y112519D01*
Y112534D01*
X644097Y112564D01*
X644127Y112623D01*
X644171Y112683D01*
X644290Y112831D01*
X644468Y112980D01*
X644483D01*
X644513Y113010D01*
X644557Y113024D01*
X644632Y113054D01*
X644810Y113114D01*
X644914Y113128D01*
X645033Y113143D01*
X645107D01*
X645196Y113128D01*
D02*
G37*
G36*
X642715Y74069D02*
X642670D01*
X642626Y74084D01*
X642566D01*
X642403Y74114D01*
X642210Y74158D01*
X642002Y74218D01*
X641779Y74307D01*
X641556Y74396D01*
X641378Y74530D01*
X641363D01*
X641348Y74559D01*
X641259Y74634D01*
X641155Y74767D01*
X641021Y74931D01*
X640887Y75154D01*
X640768Y75406D01*
X640694Y75689D01*
X640679Y75852D01*
X640664Y76016D01*
Y76090D01*
X640679Y76149D01*
X640694Y76313D01*
X640739Y76506D01*
X640798Y76729D01*
X640902Y76952D01*
X641036Y77189D01*
X641229Y77412D01*
X641259Y77442D01*
X641333Y77502D01*
X641452Y77591D01*
X641630Y77695D01*
X641838Y77799D01*
X642091Y77903D01*
X642388Y77977D01*
X642715Y78022D01*
Y74069D01*
D02*
G37*
G36*
X643621Y57070D02*
X643725D01*
X643859Y57056D01*
X644156Y57011D01*
X644483Y56937D01*
X644825Y56848D01*
X645152Y56699D01*
X645300Y56610D01*
X645434Y56506D01*
X645464Y56476D01*
X645538Y56402D01*
X645642Y56268D01*
X645761Y56090D01*
X645895Y55882D01*
X645999Y55614D01*
X646073Y55332D01*
X646088Y55168D01*
X646103Y55005D01*
Y54916D01*
X646088Y54856D01*
X646073Y54693D01*
X646014Y54485D01*
X645939Y54247D01*
X645820Y53995D01*
X645657Y53757D01*
X645553Y53638D01*
X645434Y53519D01*
X645419D01*
X645404Y53489D01*
X645360Y53460D01*
X645300Y53430D01*
X645226Y53385D01*
X645137Y53326D01*
X645033Y53281D01*
X644914Y53222D01*
X644780Y53162D01*
X644632Y53118D01*
X644453Y53058D01*
X644260Y53014D01*
X644067Y52984D01*
X643844Y52954D01*
X643606Y52925D01*
X643235D01*
X643131Y52940D01*
X643027D01*
X642908Y52954D01*
X642611Y52999D01*
X642299Y53073D01*
X641957Y53177D01*
X641645Y53326D01*
X641363Y53534D01*
X641348D01*
X641333Y53564D01*
X641259Y53638D01*
X641140Y53772D01*
X641021Y53935D01*
X640902Y54158D01*
X640783Y54411D01*
X640709Y54693D01*
X640679Y54841D01*
Y55094D01*
X640694Y55154D01*
X640709Y55317D01*
X640768Y55525D01*
X640843Y55763D01*
X640962Y56015D01*
X641140Y56268D01*
X641244Y56387D01*
X641363Y56506D01*
X641393Y56535D01*
X641437Y56565D01*
X641482Y56595D01*
X641556Y56639D01*
X641645Y56684D01*
X641749Y56743D01*
X641868Y56788D01*
X642002Y56848D01*
X642150Y56907D01*
X642314Y56951D01*
X642507Y56996D01*
X642700Y57026D01*
X642923Y57056D01*
X643146Y57085D01*
X643532D01*
X643621Y57070D01*
D02*
G37*
G36*
X641467Y47600D02*
X641452Y47437D01*
X641437Y47244D01*
X641422Y47021D01*
X641393Y46783D01*
X641348Y46560D01*
X641289Y46367D01*
X641274Y46337D01*
X641259Y46278D01*
X641214Y46189D01*
X641155Y46085D01*
X641066Y45966D01*
X640962Y45832D01*
X640843Y45713D01*
X640709Y45609D01*
X640694Y45594D01*
X640635Y45565D01*
X640560Y45520D01*
X640442Y45475D01*
X640323Y45431D01*
X640174Y45386D01*
X640011Y45356D01*
X639832Y45342D01*
X639713D01*
X639594Y45371D01*
X639431Y45401D01*
X639253Y45461D01*
X639060Y45550D01*
X638866Y45683D01*
X638688Y45847D01*
X638673Y45877D01*
X638614Y45936D01*
X638540Y46070D01*
X638465Y46233D01*
X638376Y46456D01*
X638317Y46724D01*
X638257Y47050D01*
X638242Y47437D01*
Y50513D01*
X641467D01*
Y47600D01*
D02*
G37*
G36*
X645196Y42944D02*
X645315Y42915D01*
X645434Y42870D01*
X645568Y42811D01*
X645702Y42722D01*
X645835Y42603D01*
X645850Y42588D01*
X645880Y42528D01*
X645939Y42454D01*
X645984Y42335D01*
X646043Y42187D01*
X646103Y41993D01*
X646133Y41785D01*
X646147Y41533D01*
Y41414D01*
X646133Y41295D01*
X646103Y41117D01*
X646073Y40938D01*
X646029Y40730D01*
X645954Y40522D01*
X645850Y40314D01*
X645835Y40285D01*
X645791Y40225D01*
X645731Y40121D01*
X645627Y40002D01*
X645523Y39883D01*
X645375Y39750D01*
X645211Y39616D01*
X645018Y39512D01*
X645003Y39497D01*
X644944Y39482D01*
X644855Y39453D01*
X644721Y39408D01*
X644543Y39378D01*
X644335Y39348D01*
X644097Y39334D01*
X643814Y39319D01*
X643369D01*
X643384Y39348D01*
X643398Y39393D01*
X643413Y39438D01*
X643443Y39512D01*
X643458Y39601D01*
X643488Y39690D01*
X643532Y39809D01*
X643562Y39943D01*
X643592Y40092D01*
X643636Y40240D01*
X643681Y40418D01*
X643710Y40612D01*
X643755Y40820D01*
X643785Y41042D01*
X643829Y41280D01*
Y41310D01*
X643844Y41399D01*
X643874Y41533D01*
X643904Y41696D01*
X643978Y42038D01*
X644023Y42201D01*
X644067Y42335D01*
Y42350D01*
X644097Y42380D01*
X644127Y42439D01*
X644171Y42499D01*
X644290Y42647D01*
X644468Y42796D01*
X644483D01*
X644513Y42825D01*
X644557Y42840D01*
X644632Y42870D01*
X644810Y42930D01*
X644914Y42944D01*
X645033Y42959D01*
X645107D01*
X645196Y42944D01*
D02*
G37*
G36*
X642908Y32375D02*
X640219Y33385D01*
X640204D01*
X640159Y33400D01*
X640100Y33430D01*
X640011Y33459D01*
X639907Y33504D01*
X639788Y33549D01*
X639505Y33638D01*
X639179Y33757D01*
X638837Y33876D01*
X638495Y33979D01*
X638168Y34083D01*
X638183D01*
X638213Y34098D01*
X638257D01*
X638331Y34113D01*
X638421Y34143D01*
X638525Y34173D01*
X638762Y34232D01*
X639060Y34306D01*
X639372Y34395D01*
X639713Y34499D01*
X640055Y34618D01*
X642908Y35688D01*
Y32375D01*
D02*
G37*
D52*
X146580Y65179D02*
D03*
Y239729D02*
D03*
D53*
Y70634D02*
D03*
D54*
X231125Y76089D02*
D03*
Y179729D02*
D03*
X143855D02*
D03*
X231125Y206999D02*
D03*
D55*
X184760Y76089D02*
D03*
X135670D02*
D03*
X86580D02*
D03*
X108400Y179729D02*
D03*
X217490Y206999D02*
D03*
X195670D02*
D03*
X108400D02*
D03*
X75670D02*
D03*
D56*
X173855Y76089D02*
D03*
Y179729D02*
D03*
D57*
X162945Y76089D02*
D03*
X152035D02*
D03*
X162945Y179729D02*
D03*
X130215D02*
D03*
Y206999D02*
D03*
D58*
X124760Y76089D02*
D03*
X146580Y206999D02*
D03*
X97490D02*
D03*
D59*
X111125Y76089D02*
D03*
X214765Y179729D02*
D03*
X62035D02*
D03*
X182035Y206999D02*
D03*
X62035D02*
D03*
D60*
X67490Y76089D02*
D03*
D61*
X231125Y81544D02*
D03*
Y92454D02*
D03*
X127485D02*
D03*
X171125Y141544D02*
D03*
X231125Y174274D02*
D03*
Y201544D02*
D03*
Y212454D02*
D03*
Y223364D02*
D03*
D62*
X206580Y81544D02*
D03*
X146580Y141544D02*
D03*
X206580Y201544D02*
D03*
X86580D02*
D03*
X206580Y223364D02*
D03*
X86580D02*
D03*
D63*
X184760Y81544D02*
D03*
X217490Y92454D02*
D03*
X195670D02*
D03*
X184760D02*
D03*
Y141544D02*
D03*
X206580Y163364D02*
D03*
X195670D02*
D03*
X184760Y201544D02*
D03*
X168400D02*
D03*
X108400D02*
D03*
X217490Y212454D02*
D03*
X195670D02*
D03*
X184760D02*
D03*
X135670D02*
D03*
X75670D02*
D03*
X184760Y223364D02*
D03*
D64*
X173855Y81544D02*
D03*
Y223364D02*
D03*
D65*
X162945Y81544D02*
D03*
X102945D02*
D03*
X92035D02*
D03*
X81125D02*
D03*
X141125Y92454D02*
D03*
X119305Y114274D02*
D03*
X113855Y141544D02*
D03*
X102945D02*
D03*
X92035D02*
D03*
X162945Y163364D02*
D03*
X152035D02*
D03*
X212035Y174274D02*
D03*
X119305D02*
D03*
Y190634D02*
D03*
X152035Y201544D02*
D03*
X162945Y212454D02*
D03*
X152035D02*
D03*
X130215Y223364D02*
D03*
D66*
X146580Y81544D02*
D03*
X124760Y141544D02*
D03*
Y163364D02*
D03*
Y212454D02*
D03*
X97490D02*
D03*
D67*
X124760Y81544D02*
D03*
X64760D02*
D03*
X168400Y92454D02*
D03*
X124760Y201544D02*
D03*
D68*
X231125Y86999D02*
D03*
Y97909D02*
D03*
Y108819D02*
D03*
X149305D02*
D03*
X231125Y119729D02*
D03*
Y125179D02*
D03*
Y136089D02*
D03*
Y146999D02*
D03*
X127485Y157909D02*
D03*
X231125Y185179D02*
D03*
Y196089D02*
D03*
Y217909D02*
D03*
X149305D02*
D03*
X231125Y228819D02*
D03*
D69*
X217490Y86999D02*
D03*
X195670D02*
D03*
X184760D02*
D03*
X217490Y97909D02*
D03*
X195670D02*
D03*
X184760D02*
D03*
X86580D02*
D03*
X184760Y108819D02*
D03*
X168400D02*
D03*
X108400D02*
D03*
X184760Y119729D02*
D03*
X86580D02*
D03*
X217490Y125179D02*
D03*
X86580Y136089D02*
D03*
X75670D02*
D03*
X168400Y146999D02*
D03*
X195670Y185179D02*
D03*
X168400D02*
D03*
X135670D02*
D03*
X184760Y196089D02*
D03*
X108400D02*
D03*
X217490Y217909D02*
D03*
X195670D02*
D03*
X108400D02*
D03*
X75670D02*
D03*
X108400Y228819D02*
D03*
D70*
X162945Y86999D02*
D03*
X81125Y157909D02*
D03*
D71*
X64760Y86999D02*
D03*
X168400Y119729D02*
D03*
X124760Y125179D02*
D03*
X64760D02*
D03*
Y146999D02*
D03*
X228400Y168819D02*
D03*
X168400D02*
D03*
X64760D02*
D03*
X119310Y185179D02*
D03*
X64760D02*
D03*
X179310Y228819D02*
D03*
D72*
X100220Y92454D02*
D03*
X154760Y114274D02*
D03*
X67490Y141544D02*
D03*
X225670Y163364D02*
D03*
X67490D02*
D03*
D73*
X62035Y92454D02*
D03*
Y114274D02*
D03*
X160215Y174274D02*
D03*
X132945D02*
D03*
X154765Y190634D02*
D03*
X132945D02*
D03*
X62035Y201544D02*
D03*
X111125Y212454D02*
D03*
X62035D02*
D03*
Y223364D02*
D03*
D74*
X173855Y97909D02*
D03*
X201125Y119729D02*
D03*
Y125179D02*
D03*
Y136089D02*
D03*
X173855Y196089D02*
D03*
D75*
X152035Y97909D02*
D03*
Y185179D02*
D03*
D76*
X127490Y97909D02*
D03*
X67490D02*
D03*
Y108819D02*
D03*
X89310Y125179D02*
D03*
X225670Y157909D02*
D03*
X100220Y168819D02*
D03*
X127490Y217909D02*
D03*
D77*
X231125Y103364D02*
D03*
Y130634D02*
D03*
X149305Y152454D02*
D03*
X100215D02*
D03*
D78*
X206580Y103364D02*
D03*
D79*
X179310D02*
D03*
D80*
X154765D02*
D03*
X83855D02*
D03*
X62035D02*
D03*
D81*
X132940D02*
D03*
X165670Y130634D02*
D03*
X67490D02*
D03*
Y152454D02*
D03*
D82*
X102945Y103364D02*
D03*
D83*
X124760Y108819D02*
D03*
X97490D02*
D03*
X146580Y125179D02*
D03*
X97490Y217909D02*
D03*
D84*
X209305Y114274D02*
D03*
X83855Y190634D02*
D03*
D85*
X102945Y114274D02*
D03*
Y174274D02*
D03*
D86*
X214765Y119729D02*
D03*
X138395D02*
D03*
X62035D02*
D03*
X165675Y125179D02*
D03*
X214765Y136089D02*
D03*
X62035D02*
D03*
X209305Y146999D02*
D03*
X154765D02*
D03*
X83855D02*
D03*
X62035Y157909D02*
D03*
X209305Y168819D02*
D03*
X187485D02*
D03*
X62035Y196089D02*
D03*
Y217909D02*
D03*
Y228819D02*
D03*
D87*
X152035Y119729D02*
D03*
X190215Y125179D02*
D03*
X179305D02*
D03*
X190215Y136089D02*
D03*
X162945D02*
D03*
X141125D02*
D03*
X113855D02*
D03*
X190215Y146999D02*
D03*
X141125D02*
D03*
X130215D02*
D03*
X81125Y168819D02*
D03*
X102945Y185179D02*
D03*
X92035D02*
D03*
X81125D02*
D03*
X162945Y196089D02*
D03*
X152035D02*
D03*
X141125D02*
D03*
X130215D02*
D03*
X119305D02*
D03*
X162945Y228819D02*
D03*
X152035D02*
D03*
X130215D02*
D03*
D88*
X217490Y130634D02*
D03*
X184760D02*
D03*
X135670D02*
D03*
X108400D02*
D03*
X86580D02*
D03*
X195670Y152454D02*
D03*
X168400D02*
D03*
D89*
X119305Y130634D02*
D03*
Y152454D02*
D03*
D90*
X217490Y141544D02*
D03*
D91*
X220215Y152454D02*
D03*
D92*
X171125Y157909D02*
D03*
D93*
X102945Y163364D02*
D03*
D94*
X132945Y168819D02*
D03*
D95*
X176580Y174274D02*
D03*
D96*
X72945D02*
D03*
D97*
X190215Y179729D02*
D03*
X81125D02*
D03*
X162945Y206999D02*
D03*
D98*
X206580Y190634D02*
D03*
D99*
X173855Y217909D02*
D03*
D100*
X157490Y223364D02*
D03*
X113850D02*
D03*
D101*
X146580Y234274D02*
D03*
M02*
