M48
;Layer_Color=9474304
;FILE_FORMAT=4:4
METRIC,LZ
;TYPE=PLATED
T1F00S00C0.3000
T3F00S00C1.2000
%
T01
X0009548Y0007112
X0011326Y0007239
X0013739Y0009144
X000788Y00112
X0015263Y0010541
X0015136Y0007239
X001608Y0007
X0017803Y0007366
X002248Y00074
X0025042Y0010287
X002301Y0013843
X0021359Y0012573
X0019835Y0012319
X0018692Y0012954
X0017803Y0012192
X0028852Y0013843
X0029995Y0002667
X00496243Y00136253
X0053875Y001325
X0056375Y0012125
X00643649Y00120101
X0080575Y00132
X0082375Y00128
X0084775
Y00108
X0081975Y00068
X0079575
Y00088
X0091575Y00086
X0093575
Y0011
X00897Y001325
X011396Y0009125
X0117585Y0011375
X012396Y001275
X0123835Y0009125
X012096Y0017
X011871Y0016125
X011496Y0014625
X0115585Y0020875
X0112585Y002125
X011446Y0026625
X01144763Y0027517
X0115585Y002775
X011696Y002825
X0116835Y002675
X011621Y002575
X011846Y002725
X011896Y002875
X011921Y003075
X011821Y003025
X0116335Y003
X011571Y003075
X0115085Y003375
X011221Y0033375
X0110835Y0029625
X012246Y0029875
X0123085Y0029
X0123335Y0034625
Y0037
X0126335Y003525
X012771Y0037625
Y003875
X0127835Y0031125
X0121085Y00345
X0120335Y0045375
X011696
X0115085Y0045625
X011271Y004825
X011346Y005025
X0113335Y0052125
X0116335Y0050875
X011871Y0049125
X0119585Y005275
X0122335Y00525
X0122835Y0048125
X012646Y0051625
X011271Y0041
X0095575Y00394
X0093975Y00398
X0094375Y00382
Y00362
X0095375
X0095175Y00262
X0095575Y00234
X0096375Y0024
Y00216
X0093975
Y00192
X0096775Y0017
X0095975Y00146
X0094175Y00482
X012396Y002325
X0092575Y0025
X0092375Y00214
X0088975Y00222
Y0024
Y00252
Y00272
Y0029
X0086775Y00272
Y00242
X0085975Y0021
X008636Y0019615
Y0018615
Y0017615
X008756
X008876
X00897Y001525
X00873
X0082575Y00156
X0080575
X0083575Y00188
X0083175Y00202
X0083575Y0022
X0082975Y00252
Y00264
X0084175Y00266
X0083575Y00292
X0085775Y003
X0086175Y00368
X0085975Y0038
X0084775Y00392
X0083775Y00412
X0081375Y00428
X0083175Y00458
Y00478
X0083175Y0052
X0081375Y00516
X00792673Y00501077
X0085575Y005
Y0052
X0086775Y00488
X0085575Y00458
X0089975Y00468
X0091975
Y00492
X0092175Y00504
X0090375Y00524
X0088975Y00434
X0089375Y00424
X0091975Y00368
X0091175Y00358
X0092375Y0034
X0092575Y00308
X0079575Y0033
Y00284
Y0026
X0076775Y00258
X0079575Y00226
Y00214
X0059Y0026125
X0057Y002425
X0061125Y00285
X006125Y003475
Y0037
Y0039375
X0061125Y0041625
Y004375
Y004575
Y0048125
X005925Y0046875
X00645Y0046
Y004825
Y00435
Y0041125
X00645Y003875
Y0036375
X0064375Y003175
X0057125Y0037375
X0054875
X0054Y0050375
X0061125Y005175
X0059625Y0053375
X0068875Y0052625
X00565Y0015125
X0051375Y0014875
X00485
X0045375Y0017375
X0043375
X0041375
Y0019625
Y002175
X0044625Y0021625
Y002375
X0046625Y0023875
Y0026
X0044625
X0048625
X0046Y0029
Y0031125
X0048Y003125
Y0033375
X0046
X005
X00525Y0037375
X0044875Y0039875
X00455Y004125
X0045375Y004625
X004275Y004775
Y0049875
X004475
X0047375Y005175
X0046625Y005325
X0048625Y0047875
X0041Y0048125
Y0045875
Y004375
X003028Y0045
X003048Y00408
X0027201Y0042799
X0020089Y0043307
X0019835Y0041402
X0021105Y0040259
X0019581Y0038227
X0017676Y0037465
X0016279Y0039116
X0016787Y0040132
X0015263Y0038481
X0015644Y0042418
X0017041Y0044069
X001539Y0045974
X0019962Y0046609
X0021232Y0045847
X0018438Y0052959
X0016406Y0051308
Y0032893
X0018946Y0035052
X0025423Y0034036
X002428Y0028321
X0025677Y0026797
X0027836Y0027178
X002809Y0023495
X0028471Y0021844
X0028217Y0020447
X0032535Y0016891
X0031646Y0027813
X001539Y0028448
X0015009Y0022479
X0016152Y0021336
X0017295Y0020066
X0018438Y0018796
X0019581Y0017526
X0020851Y0016129
X0043375Y00195
X003468Y00528
X0010183Y0050292
X0010818Y0048514
X00106275Y00465455
X0010691Y0045339
X0011072Y0043307
X0011326Y0040767
X0011072Y0039116
X0010056Y0036195
X0008278Y0035687
X0011961Y0034671
X0008405Y0030353
X0009294Y0029083
X0009548Y0026416
X0008405Y0025527
X0008532Y0022479
X000904Y0020701
X0006246Y0014986
X0004976Y0046736
X000396Y0045847
X00065Y0050038
X002968Y00554
X0041875Y0055
X0045375Y0058625
X0046Y0062
X004925Y006
X00495003Y00581875
X00505Y005575
X00525Y005925
X0053875Y006
Y0058375
X005375Y006445
X0048375Y0066375
X0049Y0071625
X00485Y0073
X00465
X00445
Y007075
X00465Y0070875
X00445Y0068625
X0050575Y0072125
X00553Y00735
X0055375Y006725
X00567Y00655
X0055125Y00641257
X00572792Y00614709
X0058125Y0054875
X00540982Y0056735
X0064875Y0057
X0066875
X0068875
Y005475
X0066875Y0054875
X00635069Y00586031
X0079375Y00568
Y00546
X0080575Y00578
Y00602
X0082575
X0088175Y00586
X00897875Y00611875
X0091375Y00598
Y00636
X0092775
X0088575
X0083575Y00678
X0087975Y00544
X0090375
X0093775Y00578
Y00598
X0095775Y0059
X0098775Y00592
X0099775Y00624
X0096775
X0096175Y00658
Y00672
Y00686
X0116335Y006075
X0119085Y0060875
X012196Y0060375
X012321Y0059875
X0124585Y0059625
X012671Y005875
X0128335Y0056875
X012321Y0058
X012021Y0055875
X0114835Y0058375
T03
X00080155Y00034645
X00062478Y00052322
X000448Y0007
X00026415Y00088385
X0052275Y0008125
X0054875
X0057375
X0059875
X0077401Y00081
Y00107
Y00132
X0098975
Y00107
Y00081
X0108886Y000895
Y001155
Y001405
X013046
Y001155
Y000895
Y001665
Y001915
Y002165
Y002425
Y002675
Y002935
Y003185
Y003435
Y003695
Y003945
Y004205
Y004455
Y004725
Y004965
Y005225
X0108886
Y004965
Y004725
Y004455
Y004205
Y003945
Y003695
Y003435
Y003185
Y002935
Y002425
Y002165
Y001915
Y001665
X0098975Y00158
Y00183
Y00208
Y00234
Y00259
Y00285
Y0031
Y00335
Y00361
Y00386
Y00412
Y00437
Y00464
Y00488
Y00514
Y00539
X0077401
Y00514
Y00488
Y00464
Y00437
Y00412
Y00386
Y00361
Y00335
Y0031
Y00285
Y00234
Y00208
Y00183
Y00158
X0034186Y0021503
Y0024003
Y0029875
Y0032385
X0031646
Y0029875
Y0034925
X0034186
X005025Y0076875
X005275
X005525
X005785
X0079865Y0069
X0082375
X0084915
Y006646
X0082375
X0079865
X0089875Y00684
X0092375
X0077401Y00564
X0098975
X0108886Y005725
Y005475
X013046
Y005725
X0128185Y0066125
X0125585
X0123085
X0120585
M30
