M48
;Layer_Color=9474304
;FILE_FORMAT=4:4
METRIC,LZ
;TYPE=NON_PLATED
T4F00S00C1.0000
T6F00S00C1.5000
%
G90
G05
T04
G00X00359179Y00010429
M15
G01X00373321Y00024571
M16
G00X00410821Y00010429
M15
G01X00396679Y00024571
M16
G00X0038625Y000375
M15
G01Y001175
M16
G00X0073Y0003125
M15
G01Y0011125
M16
G00X00742286Y00010215
M15
G01X00735214Y00017285
M16
G00X00707714Y00011465
M15
G01X00714786Y00018535
M16
G00X01020732Y00006982
M15
G01X01024268Y00010518
M16
G00X0103125Y0002375
M15
G01Y0003375
M16
G00X01046022Y00033978
M15
G01X01071478Y00008522
M16
G00X0073Y0013625
M15
G01Y0021625
M16
G00X0073Y0024
M15
G01Y0032
M16
G00X0073Y0034375
M15
G01Y0042375
M16
G00X0073Y004475
M15
G01Y005275
M16
G00X0038625Y0046375
M15
G01Y0054375
M16
G00X0038625Y00355
M15
G01Y00435
M16
G00X0038625Y0024875
M15
G01Y0032875
M16
G00X0038625Y001425
M15
G01Y002225
M16
G00X0073Y005525
M15
G01Y006325
M16
G00X0073Y00655
M15
G01Y00735
M16
G00X0073Y0075125
M15
G01Y0076125
M16
G00X00726036Y00773964
M15
G01X00718964Y00781036
M16
G00X00742714Y00771464
M15
G01X00749786Y00778536
M16
G00X00709053Y00790947
M15
G01X00698447Y00801553
M16
T06
G00X0103625Y0005125
M15
G01Y0010625
M16
G00X0103625Y0012875
M15
G01Y0020375
M16
G00X0103625Y0023625
M15
G01Y0031125
M16
G00X0103625Y0034375
M15
G01Y0041875
M16
G00X0103625Y0045125
M15
G01Y0052625
M16
G00X0012375Y0058
M15
G01X0004875
M16
G00X00010429Y00559179
M15
G01X00024571Y00573321
M16
G00X0022875Y0058
M15
G01X0015375
M16
G00X003325Y0058
M15
G01X002575
M16
G00X00367803Y00560947
M15
G01X00357197Y00571553
M16
G00X00385Y0057875
M15
G01Y0065375
M16
G00X00385Y0068125
M15
G01Y0075625
M16
G00X00393661Y00778661
M15
G01X00411339Y00796339
M16
G00X007775Y007825
M15
G01X007675
M16
G00X00885Y007825
M15
G01X008
M16
G00X0099375Y007825
M15
G01X0090875
M16
G00X01031553Y00768447
M15
G01X01020947Y00779053
M16
G00X0103625Y0066875
M15
G01Y0074375
M16
G00X01053876Y00717626
M15
G01X01078624Y00742374
M16
G00X0117625Y0074625
M15
G01X0110125
M16
G00X0128125Y0074625
M15
G01X0120625
M16
G00X01331124Y00717626
M15
G01X01306376Y00742374
M16
G00X0103625Y005575
M15
G01Y006325
M16
M17
M30
