G04*
G04 #@! TF.GenerationSoftware,Altium Limited,Altium Designer,19.1.5 (86)*
G04*
G04 Layer_Color=65535*
%FSLAX44Y44*%
%MOMM*%
G71*
G01*
G75*
%ADD25C,0.2000*%
%ADD32C,0.2500*%
%ADD69R,20.0000X0.6060*%
%ADD70R,20.0000X0.6060*%
%ADD71R,2.4240X0.6060*%
%ADD72R,0.6060X0.6060*%
%ADD73R,1.2120X0.6060*%
%ADD74R,0.6060X0.6060*%
%ADD75R,1.8180X0.6060*%
%ADD76R,0.6070X0.6060*%
%ADD77R,3.0300X0.6060*%
%ADD78R,1.8180X0.6060*%
%ADD79R,0.6060X0.6060*%
%ADD80R,0.6060X0.6060*%
%ADD81R,1.2120X0.6060*%
%ADD82R,1.2120X0.6060*%
%ADD83R,2.4250X0.6060*%
%ADD84R,1.2120X0.6060*%
%ADD85R,1.8190X0.6060*%
%ADD86R,2.4240X0.6060*%
%ADD87R,3.0300X0.6060*%
%ADD88R,2.4240X0.6070*%
%ADD89R,0.6060X0.6070*%
%ADD90R,1.2120X0.6070*%
%ADD91R,0.6060X0.6070*%
%ADD92R,2.4240X0.6060*%
%ADD93R,6.0610X0.6060*%
%ADD94R,0.6070X0.6060*%
%ADD95R,0.6070X0.6060*%
%ADD96R,3.0300X0.6060*%
%ADD97R,4.2420X0.6060*%
%ADD98R,1.2130X0.6060*%
%ADD99R,3.6360X0.6060*%
%ADD100R,6.0610X0.6060*%
%ADD101R,3.0310X0.6060*%
%ADD102R,2.4250X0.6060*%
%ADD103R,3.6360X0.6060*%
%ADD104R,1.8190X0.6060*%
%ADD105R,1.8190X0.6060*%
%ADD106R,0.6070X0.6060*%
%ADD107R,6.0610X0.6060*%
%ADD108R,6.6670X0.6060*%
%ADD109R,1.2120X0.6070*%
%ADD110R,0.6060X0.6070*%
%ADD111R,0.6060X0.6070*%
%ADD112R,1.2120X0.6070*%
%ADD113C,0.1270*%
%ADD114C,0.3000*%
%ADD115C,0.2540*%
%ADD116C,0.2032*%
%ADD117C,0.1000*%
D25*
X989750Y755500D02*
G03*
X989750Y755500I0J-1000D01*
G01*
X948750Y649000D02*
Y706500D01*
X873750D01*
Y649000D02*
Y706500D01*
X948750Y649000D02*
X873750D01*
X890750Y601250D02*
X888750D01*
X890750Y594750D02*
X888750D01*
X970750Y613250D02*
X968750D01*
X970750Y606750D02*
X968750D01*
X897750Y167500D02*
Y168700D01*
Y347300D02*
Y348500D01*
X821750D01*
Y167500D02*
Y168700D01*
Y347300D02*
Y348500D01*
X897750Y167500D02*
X821750D01*
X946750Y179250D02*
X944750D01*
X946750Y172750D02*
X944750D01*
X1130850Y719750D02*
G03*
X1130850Y719750I0J-1000D01*
G01*
X1227000Y251950D02*
G03*
X1227000Y251950I0J-1000D01*
G01*
X1253850Y626500D02*
Y628500D01*
X1260350Y626500D02*
Y628500D01*
X1228850Y627750D02*
Y629750D01*
X1235350Y627750D02*
Y629750D01*
X1175100Y626500D02*
Y628500D01*
X1181600Y626500D02*
Y628500D01*
X1202600Y626500D02*
Y628500D01*
X1209100Y626500D02*
Y628500D01*
X1234100Y695250D02*
Y697250D01*
X1227600Y695250D02*
Y697250D01*
X1242850Y265250D02*
Y297250D01*
X1278850Y265250D02*
Y297250D01*
X1173850Y196500D02*
Y198500D01*
X1180350Y196500D02*
Y198500D01*
X631250Y632500D02*
G03*
X631250Y632500I0J-1000D01*
G01*
X458850Y612550D02*
G03*
X458850Y612550I0J-1000D01*
G01*
X409500Y566500D02*
Y598500D01*
X445500Y566500D02*
Y598500D01*
X609250Y37500D02*
X513250D01*
X621250Y-150000D02*
Y6750D01*
X501250Y-150000D02*
Y6750D01*
X621250Y-150000D02*
X501250D01*
X514750Y187500D02*
X483750D01*
X514750Y177500D02*
X483750D01*
X514750D02*
Y187500D01*
X483750Y177500D02*
Y187500D01*
X596250Y276250D02*
X436250D01*
X436230D02*
Y446250D01*
X596250Y276250D02*
Y446250D01*
Y446430D02*
X436250D01*
X514750Y704250D02*
X512750D01*
X514750Y710750D02*
X512750D01*
X563250Y711500D02*
Y713500D01*
X556750Y711500D02*
Y713500D01*
X481250Y613650D02*
Y616250D01*
Y546250D02*
Y548850D01*
X551250Y613650D02*
Y616250D01*
Y546250D02*
Y548850D01*
X483850Y616250D02*
X481250D01*
X483850Y546250D02*
X481250D01*
X551250Y616250D02*
X548650D01*
X551250Y546250D02*
X548650D01*
X498500Y643000D02*
X496500D01*
X498500Y649500D02*
X496500D01*
X525750Y651500D02*
Y653500D01*
X519250Y651500D02*
Y653500D01*
X578000Y694500D02*
Y696500D01*
X584500Y694500D02*
Y696500D01*
X540750Y711500D02*
Y713500D01*
X534250Y711500D02*
Y713500D01*
X674750Y65750D02*
X672750D01*
X674750Y59250D02*
X672750D01*
X492000Y112750D02*
Y114750D01*
X485500Y112750D02*
Y114750D01*
X512000Y112750D02*
Y114750D01*
X505500Y112750D02*
Y114750D01*
X685280Y143484D02*
X649720D01*
Y209016D01*
X685280D02*
X649720D01*
X685280Y143484D02*
Y209016D01*
X339320Y505460D02*
G03*
X339320Y505460I0J-1000D01*
G01*
X306860Y190030D02*
Y265030D01*
X364360D02*
X306860D01*
X364360Y190030D02*
Y265030D01*
Y190030D02*
X306860D01*
X309400Y526050D02*
Y528050D01*
X315900Y526050D02*
Y528050D01*
X219840Y367970D02*
Y369170D01*
Y547770D02*
Y548970D01*
X143840D01*
Y367970D02*
Y369170D01*
Y547770D02*
Y548970D01*
X219840Y367970D02*
X143840D01*
X232080Y348250D02*
Y350250D01*
X225580Y348250D02*
Y350250D01*
X114450Y120910D02*
X104450D01*
X114450Y89910D02*
X104450D01*
Y120910D01*
X114450Y89910D02*
Y120910D01*
X238030Y-149630D02*
X118030D01*
Y7120D01*
X238030Y-149630D02*
Y7120D01*
X226030Y37870D02*
X130030D01*
X191440Y98060D02*
Y100060D01*
X184940Y98060D02*
Y100060D01*
X171280Y98060D02*
Y100060D01*
X164780Y98060D02*
Y100060D01*
X245700Y88340D02*
X243700D01*
X245700Y81840D02*
X243700D01*
X22007Y212000D02*
X28672D01*
X32004Y215332D01*
X28672Y218664D01*
X22007D01*
X32004Y223663D02*
Y226995D01*
X30338Y228661D01*
X27006D01*
X25339Y226995D01*
Y223663D01*
X27006Y221997D01*
X30338D01*
X32004Y223663D01*
Y231994D02*
Y235326D01*
Y233660D01*
X22007D01*
Y231994D01*
X32004Y240324D02*
X22007D01*
X28672D02*
X25339Y245323D01*
X28672Y240324D02*
X32004Y245323D01*
Y251987D02*
Y255319D01*
X30338Y256985D01*
X27006D01*
X25339Y255319D01*
Y251987D01*
X27006Y250321D01*
X30338D01*
X32004Y251987D01*
X25339Y260318D02*
X32004Y263650D01*
X25339Y266982D01*
X32004Y280311D02*
X22007D01*
X25339Y283644D01*
X22007Y286976D01*
X32004D01*
Y290308D02*
X30338D01*
Y291974D01*
X32004D01*
Y290308D01*
Y298639D02*
X25339D01*
X22007Y301971D01*
X25339Y305303D01*
X32004D01*
X27006D01*
Y298639D01*
X32004Y308636D02*
X30338D01*
Y310302D01*
X32004D01*
Y308636D01*
Y326963D02*
Y330295D01*
Y328629D01*
X22007D01*
X23673Y326963D01*
X32004Y340292D02*
X22007D01*
X27006Y335294D01*
Y341958D01*
X25339Y345290D02*
X30338D01*
X32004Y346956D01*
Y351955D01*
X25339D01*
X32004Y355287D02*
Y358619D01*
Y356953D01*
X22007D01*
X23673Y355287D01*
Y363618D02*
X22007Y365284D01*
Y368616D01*
X23673Y370282D01*
X25339D01*
X27006Y368616D01*
Y366950D01*
Y368616D01*
X28672Y370282D01*
X30338D01*
X32004Y368616D01*
Y365284D01*
X30338Y363618D01*
X22007Y380279D02*
Y373615D01*
X27006D01*
X25339Y376947D01*
Y378613D01*
X27006Y380279D01*
X30338D01*
X32004Y378613D01*
Y375281D01*
X30338Y373615D01*
X38803Y212000D02*
X48800D01*
Y216998D01*
X47134Y218664D01*
X45468D01*
X43802Y216998D01*
Y212000D01*
Y216998D01*
X42136Y218664D01*
X40469D01*
X38803Y216998D01*
Y212000D01*
X48800Y221997D02*
X38803D01*
X42136Y225329D01*
X38803Y228661D01*
X48800D01*
X40469Y238658D02*
X38803Y236992D01*
Y233660D01*
X40469Y231994D01*
X42136D01*
X43802Y233660D01*
Y236992D01*
X45468Y238658D01*
X47134D01*
X48800Y236992D01*
Y233660D01*
X47134Y231994D01*
X38803Y241990D02*
Y248655D01*
Y245323D01*
X48800D01*
X38803Y251987D02*
X47134D01*
X48800Y253653D01*
Y256985D01*
X47134Y258652D01*
X38803D01*
Y271981D02*
Y275313D01*
Y273647D01*
X48800D01*
Y271981D01*
Y275313D01*
X38803Y280311D02*
X47134D01*
X48800Y281978D01*
Y285310D01*
X47134Y286976D01*
X38803D01*
X40469Y290308D02*
X38803Y291974D01*
Y295306D01*
X40469Y296973D01*
X42136D01*
X43802Y295306D01*
X45468Y296973D01*
X47134D01*
X48800Y295306D01*
Y291974D01*
X47134Y290308D01*
X45468D01*
X43802Y291974D01*
X42136Y290308D01*
X40469D01*
X43802Y291974D02*
Y295306D01*
Y300305D02*
Y306969D01*
X48800Y310302D02*
Y313634D01*
Y311968D01*
X38803D01*
X40469Y310302D01*
X48800Y318632D02*
Y321965D01*
Y320298D01*
X38803D01*
X40469Y318632D01*
X48800Y326963D02*
Y330295D01*
Y328629D01*
X38803D01*
X40469Y326963D01*
D32*
X932540Y436380D02*
G03*
X932540Y436380I0J-11250D01*
G01*
X923250Y176700D02*
G03*
X923250Y176700I0J-1250D01*
G01*
X1268850Y259000D02*
G03*
X1268850Y259000I0J-1250D01*
G01*
X1145060Y552120D02*
G03*
X1145060Y552120I0J-11250D01*
G01*
X419500Y607250D02*
G03*
X419500Y607250I0J-1250D01*
G01*
X596250Y72500D02*
G03*
X596250Y72500I0J-1250D01*
G01*
X481250Y170000D02*
G03*
X481250Y170000I0J-1250D01*
G01*
X567040Y311630D02*
G03*
X567040Y311630I0J-11250D01*
G01*
X245340Y377170D02*
G03*
X245340Y377170I0J-1250D01*
G01*
X95700Y124660D02*
G03*
X95700Y124660I0J-1250D01*
G01*
X237700Y179770D02*
G03*
X237700Y179770I0J-11250D01*
G01*
X213030Y72870D02*
G03*
X213030Y72870I0J-1250D01*
G01*
D69*
X178750Y599280D02*
D03*
Y787160D02*
D03*
Y793220D02*
D03*
D70*
Y605340D02*
D03*
D71*
X266630Y611400D02*
D03*
Y635640D02*
D03*
X199960D02*
D03*
X242390Y665950D02*
D03*
X266630Y672010D02*
D03*
X157540D02*
D03*
X266630Y684130D02*
D03*
X90870Y702310D02*
D03*
X266630Y708370D02*
D03*
X90870D02*
D03*
X199960Y768980D02*
D03*
D72*
X245420Y611400D02*
D03*
X160570D02*
D03*
X136330D02*
D03*
X178750Y617460D02*
D03*
X160570D02*
D03*
X136330D02*
D03*
Y629580D02*
D03*
X124200D02*
D03*
X245420Y635640D02*
D03*
X136330D02*
D03*
X124200D02*
D03*
X245420Y659890D02*
D03*
X136330D02*
D03*
X178750Y665950D02*
D03*
X245420Y672010D02*
D03*
X136330D02*
D03*
X215110Y684130D02*
D03*
X136330D02*
D03*
X196930Y690190D02*
D03*
X160570Y708370D02*
D03*
X124200D02*
D03*
X106020Y720490D02*
D03*
X196930Y726550D02*
D03*
X160570D02*
D03*
X136330Y750800D02*
D03*
X196930Y756860D02*
D03*
X178750D02*
D03*
X124200D02*
D03*
Y768980D02*
D03*
X196930Y775040D02*
D03*
X136330D02*
D03*
D73*
X218140Y611400D02*
D03*
X84810D02*
D03*
Y617460D02*
D03*
X199960Y629580D02*
D03*
X84810D02*
D03*
Y635640D02*
D03*
X102990Y659890D02*
D03*
X84810D02*
D03*
X157540Y665950D02*
D03*
X84810D02*
D03*
Y672010D02*
D03*
X248450Y690190D02*
D03*
X109050D02*
D03*
X84810D02*
D03*
X199960Y702310D02*
D03*
X193900Y720490D02*
D03*
X163600D02*
D03*
X84810D02*
D03*
X181780Y726550D02*
D03*
X102990D02*
D03*
X84810D02*
D03*
X193900Y738670D02*
D03*
X84810Y750800D02*
D03*
X139360Y756860D02*
D03*
X84810D02*
D03*
X175720Y768980D02*
D03*
X84810D02*
D03*
Y775040D02*
D03*
D74*
X202990Y611400D02*
D03*
X190870D02*
D03*
X172690D02*
D03*
X148450D02*
D03*
X251480Y617460D02*
D03*
X239360D02*
D03*
X148450D02*
D03*
X184810Y629580D02*
D03*
X99960D02*
D03*
X148450Y635640D02*
D03*
X99960D02*
D03*
X172690Y659890D02*
D03*
X118140D02*
D03*
X142390Y665950D02*
D03*
X118140D02*
D03*
X99960D02*
D03*
X221170Y672010D02*
D03*
X209050D02*
D03*
X190870D02*
D03*
X99960D02*
D03*
X239360Y684130D02*
D03*
X202990D02*
D03*
X184810Y690190D02*
D03*
X154510D02*
D03*
X202990Y708370D02*
D03*
X172690D02*
D03*
X112080D02*
D03*
X209050Y720490D02*
D03*
X221170Y726550D02*
D03*
X148450D02*
D03*
X209050Y738670D02*
D03*
X221170Y750800D02*
D03*
X172690D02*
D03*
X154510D02*
D03*
X257540Y756860D02*
D03*
X233300D02*
D03*
X221170D02*
D03*
X99960D02*
D03*
X257540Y768980D02*
D03*
X233300D02*
D03*
X221170D02*
D03*
X99960D02*
D03*
X148450Y775040D02*
D03*
D75*
X269660Y617460D02*
D03*
X202990D02*
D03*
X154510Y629580D02*
D03*
X172690Y635640D02*
D03*
X154510Y659890D02*
D03*
X269660Y665950D02*
D03*
X202990D02*
D03*
X269660Y690190D02*
D03*
X251480Y702310D02*
D03*
Y726550D02*
D03*
X202990Y750800D02*
D03*
X160570Y756860D02*
D03*
X215110Y775040D02*
D03*
X166630D02*
D03*
D76*
X227235Y617460D02*
D03*
Y684130D02*
D03*
D77*
X112080Y617460D02*
D03*
Y750800D02*
D03*
X148450Y768980D02*
D03*
X112080Y775040D02*
D03*
D78*
X269660Y623520D02*
D03*
X160570D02*
D03*
X142390Y641700D02*
D03*
X269660Y714430D02*
D03*
X154510D02*
D03*
X87840D02*
D03*
X269660Y732610D02*
D03*
X209050D02*
D03*
X172690D02*
D03*
X142390Y781100D02*
D03*
D79*
X136330Y623520D02*
D03*
X124200D02*
D03*
X245420Y678070D02*
D03*
X215110D02*
D03*
X160570D02*
D03*
X124200Y696250D02*
D03*
Y732610D02*
D03*
X160570Y762920D02*
D03*
X136330D02*
D03*
X124200D02*
D03*
X196930Y781100D02*
D03*
X160570D02*
D03*
D80*
X99960Y623520D02*
D03*
X209050Y653830D02*
D03*
X257540Y678070D02*
D03*
X184810D02*
D03*
X118140D02*
D03*
X209050Y696250D02*
D03*
X154510D02*
D03*
X251480Y714430D02*
D03*
Y732610D02*
D03*
X239360D02*
D03*
X190870D02*
D03*
X154510D02*
D03*
X257540Y762920D02*
D03*
X233300D02*
D03*
X202990D02*
D03*
X190870D02*
D03*
X172690D02*
D03*
X99960D02*
D03*
X221170Y781100D02*
D03*
X172690D02*
D03*
D81*
X84810Y623520D02*
D03*
X248450Y641700D02*
D03*
X84810D02*
D03*
X102990Y678070D02*
D03*
X84810D02*
D03*
X175720Y696250D02*
D03*
X109050Y714430D02*
D03*
X84810Y732610D02*
D03*
X218140Y762920D02*
D03*
X84810D02*
D03*
Y781100D02*
D03*
D82*
X272690Y629580D02*
D03*
Y659890D02*
D03*
X187840D02*
D03*
X151480Y684130D02*
D03*
X169660Y690190D02*
D03*
X272690Y702310D02*
D03*
X145420Y720490D02*
D03*
X272690Y726550D02*
D03*
X169660Y738670D02*
D03*
X272690Y750800D02*
D03*
Y756860D02*
D03*
Y768980D02*
D03*
Y775040D02*
D03*
D83*
X230265Y629580D02*
D03*
D84*
X272690Y641700D02*
D03*
X169660D02*
D03*
X272690Y653830D02*
D03*
Y678070D02*
D03*
Y762920D02*
D03*
Y781100D02*
D03*
D85*
X227235Y641700D02*
D03*
Y653830D02*
D03*
D86*
X193900Y641700D02*
D03*
X266630Y696250D02*
D03*
D87*
X112080Y641700D02*
D03*
D88*
X266630Y647765D02*
D03*
D89*
X233300D02*
D03*
X221170D02*
D03*
X202990D02*
D03*
X154510D02*
D03*
D90*
X175720D02*
D03*
X84810D02*
D03*
D91*
X136330D02*
D03*
D92*
X169660Y653830D02*
D03*
D93*
X109055D02*
D03*
D94*
X130265Y665950D02*
D03*
Y690190D02*
D03*
D95*
Y678070D02*
D03*
D96*
X178750Y684130D02*
D03*
X245420Y750800D02*
D03*
Y775040D02*
D03*
D97*
X99960Y684130D02*
D03*
D98*
X230265Y696250D02*
D03*
X133295Y714430D02*
D03*
D99*
X96930Y696250D02*
D03*
X193900Y714430D02*
D03*
D100*
X151475Y702310D02*
D03*
D101*
X227235Y708370D02*
D03*
D102*
X230265Y714430D02*
D03*
D103*
X260570Y720490D02*
D03*
D104*
X227235D02*
D03*
D105*
X130265Y726550D02*
D03*
D106*
X227235Y732610D02*
D03*
D107*
X248445Y738670D02*
D03*
D108*
X112085D02*
D03*
D109*
X272690Y744735D02*
D03*
D110*
X221170D02*
D03*
X209050D02*
D03*
X184810D02*
D03*
X172690D02*
D03*
X148450D02*
D03*
D111*
X196930D02*
D03*
X160570D02*
D03*
X136330D02*
D03*
D112*
X84810D02*
D03*
D113*
X902580Y89020D02*
G03*
X902580Y89020I0J-1270D01*
G01*
X1007250Y722000D02*
X972250D01*
Y662000D02*
Y722000D01*
X1007250Y662000D02*
X972250D01*
X1007250D02*
Y722000D01*
X997250Y707000D02*
X982250D01*
Y677000D02*
Y707000D01*
X997250Y677000D02*
X982250D01*
X997250D02*
Y707000D01*
X1223930Y94532D02*
G03*
X1223930Y94532I0J-1270D01*
G01*
X1138350Y641250D02*
Y671250D01*
Y641250D02*
X1123350D01*
Y671250D01*
X1138350D02*
X1123350D01*
X1148350Y626250D02*
Y686250D01*
Y626250D02*
X1113350D01*
Y686250D01*
X1148350D02*
X1113350D01*
X1137200Y316250D02*
X1134600D01*
X1137200Y246250D02*
X1134600D01*
X1204600Y316250D02*
X1202000D01*
X1204600Y246250D02*
X1202000D01*
X1134600Y313650D02*
Y316250D01*
Y246250D02*
Y248850D01*
X1204600Y313650D02*
Y316250D01*
Y246250D02*
Y248850D01*
X635750Y214350D02*
G03*
X635750Y214350I0J-1270D01*
G01*
X648750Y664000D02*
X613750D01*
X648750D02*
Y724000D01*
X613750D01*
Y664000D02*
Y724000D01*
X638750Y679000D02*
X623750D01*
X638750D02*
Y709000D01*
X623750D01*
Y679000D02*
Y709000D01*
X340590Y113030D02*
G03*
X340590Y113030I0J-1270D01*
G01*
X346820Y426960D02*
Y456960D01*
Y426960D02*
X331820D01*
Y456960D01*
X346820D02*
X331820D01*
X356820Y411960D02*
Y471960D01*
Y411960D02*
X321820D01*
Y471960D01*
X356820D02*
X321820D01*
D114*
X927350Y276200D02*
G03*
X927350Y276200I0J-500D01*
G01*
X662064Y250500D02*
X675393D01*
X682058Y257164D01*
X675393Y263829D01*
X662064D01*
X682058Y273826D02*
Y280490D01*
X678726Y283823D01*
X672061D01*
X668729Y280490D01*
Y273826D01*
X672061Y270494D01*
X678726D01*
X682058Y273826D01*
Y290487D02*
Y297152D01*
Y293819D01*
X662064D01*
Y290487D01*
X682058Y307148D02*
X662064D01*
X675393D02*
X668729Y317145D01*
X675393Y307148D02*
X682058Y317145D01*
Y330474D02*
Y337139D01*
X678726Y340471D01*
X672061D01*
X668729Y337139D01*
Y330474D01*
X672061Y327142D01*
X678726D01*
X682058Y330474D01*
X668729Y347136D02*
X682058Y353800D01*
X668729Y360465D01*
X682058Y387123D02*
X662064D01*
X668729Y393787D01*
X662064Y400452D01*
X682058D01*
Y407116D02*
X678726D01*
Y410448D01*
X682058D01*
Y407116D01*
Y423778D02*
X668729D01*
X662064Y430442D01*
X668729Y437107D01*
X682058D01*
X672061D01*
Y423778D01*
X682058Y443771D02*
X678726D01*
Y447103D01*
X682058D01*
Y443771D01*
Y480426D02*
Y487090D01*
Y483758D01*
X662064D01*
X665396Y480426D01*
X682058Y507084D02*
X662064D01*
X672061Y497087D01*
Y510416D01*
X668729Y517081D02*
X678726D01*
X682058Y520413D01*
Y530410D01*
X668729D01*
X682058Y537074D02*
Y543739D01*
Y540406D01*
X662064D01*
X665396Y537074D01*
Y553736D02*
X662064Y557068D01*
Y563732D01*
X665396Y567065D01*
X668729D01*
X672061Y563732D01*
Y560400D01*
Y563732D01*
X675393Y567065D01*
X678726D01*
X682058Y563732D01*
Y557068D01*
X678726Y553736D01*
X662064Y587058D02*
Y573729D01*
X672061D01*
X668729Y580394D01*
Y583726D01*
X672061Y587058D01*
X678726D01*
X682058Y583726D01*
Y577061D01*
X678726Y573729D01*
X693256Y250500D02*
X713250D01*
Y260497D01*
X709918Y263829D01*
X706585D01*
X703253Y260497D01*
Y250500D01*
Y260497D01*
X699921Y263829D01*
X696589D01*
X693256Y260497D01*
Y250500D01*
X713250Y270494D02*
X693256D01*
X699921Y277158D01*
X693256Y283823D01*
X713250D01*
X696589Y303816D02*
X693256Y300484D01*
Y293819D01*
X696589Y290487D01*
X699921D01*
X703253Y293819D01*
Y300484D01*
X706585Y303816D01*
X709918D01*
X713250Y300484D01*
Y293819D01*
X709918Y290487D01*
X693256Y310481D02*
Y323810D01*
Y317145D01*
X713250D01*
X693256Y330474D02*
X709918D01*
X713250Y333806D01*
Y340471D01*
X709918Y343803D01*
X693256D01*
Y370461D02*
Y377126D01*
Y373794D01*
X713250D01*
Y370461D01*
Y377126D01*
X693256Y387123D02*
X709918D01*
X713250Y390455D01*
Y397119D01*
X709918Y400452D01*
X693256D01*
X696589Y407116D02*
X693256Y410448D01*
Y417113D01*
X696589Y420445D01*
X699921D01*
X703253Y417113D01*
X706585Y420445D01*
X709918D01*
X713250Y417113D01*
Y410448D01*
X709918Y407116D01*
X706585D01*
X703253Y410448D01*
X699921Y407116D01*
X696589D01*
X703253Y410448D02*
Y417113D01*
Y427110D02*
Y440439D01*
X713250Y447103D02*
Y453768D01*
Y450436D01*
X693256D01*
X696589Y447103D01*
X713250Y463765D02*
Y470429D01*
Y467097D01*
X693256D01*
X696589Y463765D01*
X713250Y480426D02*
Y487090D01*
Y483758D01*
X693256D01*
X696589Y480426D01*
X277040Y463970D02*
G03*
X277040Y463970I0J-500D01*
G01*
D115*
X789010Y66500D02*
Y249000D01*
Y269000D02*
Y579000D01*
X759010Y269000D02*
Y577750D01*
Y66500D02*
Y249000D01*
X789010Y66500D02*
X759010D01*
X789010Y249000D02*
X759010D01*
X789010Y269000D02*
X759010D01*
X789010Y579000D02*
X759010D01*
Y576500D02*
Y579000D01*
X785450Y652300D02*
Y702300D01*
X861650D02*
X785450D01*
X861650Y652300D02*
X785450D01*
X861650D02*
Y702300D01*
X974750Y576500D02*
Y579000D01*
X1004750D02*
X974750D01*
X1004750Y66500D02*
Y579000D01*
Y66500D02*
X974750D01*
Y577750D01*
X1298350Y646250D02*
Y676250D01*
Y646250D02*
X1192100D01*
X1298350Y676250D02*
X1190850D01*
Y646250D02*
Y676250D01*
X1193350Y646250D02*
X1190850D01*
X1289600Y75000D02*
Y586250D01*
X1319600Y75000D02*
X1289600D01*
X1319600D02*
Y587500D01*
X1289600D01*
Y585000D02*
Y587500D01*
X1103860Y75000D02*
Y257500D01*
Y277500D02*
Y587500D01*
X1073860Y277500D02*
Y586250D01*
Y75000D02*
Y257500D01*
X1103860Y75000D02*
X1073860D01*
X1103860Y257500D02*
X1073860D01*
X1103860Y277500D02*
X1073860D01*
X1103860Y587500D02*
X1073860D01*
Y585000D02*
Y587500D01*
X506250Y66250D02*
Y96250D01*
X612500D02*
X506250D01*
X613750Y66250D02*
X506250D01*
X613750D02*
Y96250D01*
X611250D01*
X595000Y753750D02*
Y783750D01*
Y753750D02*
X488750D01*
X595000Y783750D02*
X487500D01*
Y753750D02*
Y783750D01*
X490000Y753750D02*
X487500D01*
X4141Y89445D02*
X25354Y110659D01*
X100485Y35529D02*
X25354Y110659D01*
X80155Y13432D02*
X4141Y89445D01*
X80155Y13432D02*
X101369Y34645D01*
X99601Y36412D01*
X354160Y361750D02*
X304160D01*
X354160Y285550D02*
Y361750D01*
X304160Y285550D02*
Y361750D01*
X354160Y285550D02*
X304160D01*
D116*
X832984Y38220D02*
Y73780D01*
X898516D02*
X832984D01*
X898516Y38220D02*
Y73780D01*
Y38220D02*
X832984D01*
X1154334Y43732D02*
Y79292D01*
X1219866D02*
X1154334D01*
X1219866Y43732D02*
Y79292D01*
Y43732D02*
X1154334D01*
X270994Y62230D02*
Y97790D01*
X336526D02*
X270994D01*
X336526Y62230D02*
Y97790D01*
Y62230D02*
X270994D01*
D117*
X961750Y571180D02*
X801750D01*
X961750Y401000D02*
Y571000D01*
X801730Y401000D02*
Y571000D01*
X961750Y401000D02*
X801750D01*
X795585Y635332D02*
X794752Y634499D01*
Y632833D01*
X795585Y632000D01*
X798917D01*
X799750Y632833D01*
Y634499D01*
X798917Y635332D01*
X797251D01*
Y633666D01*
X799750Y636998D02*
X794752D01*
X799750Y640331D01*
X794752D01*
Y641997D02*
X799750D01*
Y644496D01*
X798917Y645329D01*
X795585D01*
X794752Y644496D01*
Y641997D01*
X746666Y66328D02*
X751664Y69660D01*
X746666D02*
X751664Y66328D01*
X747499Y74659D02*
X746666Y73826D01*
Y72159D01*
X747499Y71326D01*
X748332D01*
X749165Y72159D01*
Y73826D01*
X749998Y74659D01*
X750831D01*
X751664Y73826D01*
Y72159D01*
X750831Y71326D01*
X751664Y76325D02*
Y77991D01*
Y77158D01*
X746666D01*
X747499Y76325D01*
X878752Y606000D02*
X883750D01*
Y608499D01*
X882917Y609332D01*
X879585D01*
X878752Y608499D01*
Y606000D01*
Y610998D02*
Y612664D01*
Y611831D01*
X883750D01*
Y610998D01*
Y612664D01*
X878752Y617663D02*
Y615997D01*
X879585Y615164D01*
X882917D01*
X883750Y615997D01*
Y617663D01*
X882917Y618496D01*
X879585D01*
X878752Y617663D01*
X879585Y620162D02*
X878752Y620995D01*
Y622661D01*
X879585Y623494D01*
X882917D01*
X883750Y622661D01*
Y620995D01*
X882917Y620162D01*
X879585D01*
X746756Y587000D02*
X752087D01*
X754753Y589666D01*
X752087Y592332D01*
X746756D01*
X754753Y596330D02*
Y598996D01*
X753420Y600329D01*
X750754D01*
X749421Y598996D01*
Y596330D01*
X750754Y594997D01*
X753420D01*
X754753Y596330D01*
Y602995D02*
Y605661D01*
Y604328D01*
X746756D01*
Y602995D01*
X754753Y609659D02*
X746756D01*
X752087D02*
X749421Y613658D01*
X752087Y609659D02*
X754753Y613658D01*
Y618990D02*
Y621656D01*
X753420Y622988D01*
X750754D01*
X749421Y621656D01*
Y618990D01*
X750754Y617657D01*
X753420D01*
X754753Y618990D01*
X749421Y625654D02*
X754753Y628320D01*
X749421Y630986D01*
X754753Y641649D02*
X746756D01*
X749421Y644315D01*
X746756Y646981D01*
X754753D01*
Y649647D02*
X753420D01*
Y650979D01*
X754753D01*
Y649647D01*
Y656311D02*
X749421D01*
X746756Y658977D01*
X749421Y661643D01*
X754753D01*
X750754D01*
Y656311D01*
X754753Y664308D02*
X753420D01*
Y665641D01*
X754753D01*
Y664308D01*
Y678970D02*
Y681636D01*
Y680303D01*
X746756D01*
X748089Y678970D01*
X754753Y689634D02*
X746756D01*
X750754Y685635D01*
Y690966D01*
X749421Y693632D02*
X753420D01*
X754753Y694965D01*
Y698964D01*
X749421D01*
X754753Y701630D02*
Y704296D01*
Y702963D01*
X746756D01*
X748089Y701630D01*
Y708294D02*
X746756Y709627D01*
Y712293D01*
X748089Y713626D01*
X749421D01*
X750754Y712293D01*
Y710960D01*
Y712293D01*
X752087Y713626D01*
X753420D01*
X754753Y712293D01*
Y709627D01*
X753420Y708294D01*
X746756Y721623D02*
Y716292D01*
X750754D01*
X749421Y718958D01*
Y720290D01*
X750754Y721623D01*
X753420D01*
X754753Y720290D01*
Y717625D01*
X753420Y716292D01*
X758753Y587000D02*
X766750D01*
Y590999D01*
X765417Y592332D01*
X764084D01*
X762751Y590999D01*
Y587000D01*
Y590999D01*
X761418Y592332D01*
X760086D01*
X758753Y590999D01*
Y587000D01*
X766750Y594997D02*
X758753D01*
X761418Y597663D01*
X758753Y600329D01*
X766750D01*
X760086Y608326D02*
X758753Y606994D01*
Y604328D01*
X760086Y602995D01*
X761418D01*
X762751Y604328D01*
Y606994D01*
X764084Y608326D01*
X765417D01*
X766750Y606994D01*
Y604328D01*
X765417Y602995D01*
X758753Y610992D02*
Y616324D01*
Y613658D01*
X766750D01*
X758753Y618990D02*
X765417D01*
X766750Y620323D01*
Y622988D01*
X765417Y624321D01*
X758753D01*
Y634985D02*
Y637650D01*
Y636317D01*
X766750D01*
Y634985D01*
Y637650D01*
X758753Y641649D02*
X765417D01*
X766750Y642982D01*
Y645648D01*
X765417Y646981D01*
X758753D01*
X760086Y649647D02*
X758753Y650979D01*
Y653645D01*
X760086Y654978D01*
X761418D01*
X762751Y653645D01*
X764084Y654978D01*
X765417D01*
X766750Y653645D01*
Y650979D01*
X765417Y649647D01*
X764084D01*
X762751Y650979D01*
X761418Y649647D01*
X760086D01*
X762751Y650979D02*
Y653645D01*
Y657644D02*
Y662975D01*
X766750Y665641D02*
Y668307D01*
Y666974D01*
X758753D01*
X760086Y665641D01*
X766750Y672306D02*
Y674972D01*
Y673639D01*
X758753D01*
X760086Y672306D01*
X766750Y678970D02*
Y681636D01*
Y680303D01*
X758753D01*
X760086Y678970D01*
X1017750Y155002D02*
Y160000D01*
X1015251D01*
X1014418Y159167D01*
Y155835D01*
X1015251Y155002D01*
X1017750D01*
X1012752Y157501D02*
X1009419D01*
X1011086Y155835D02*
Y159167D01*
X1017750Y129002D02*
Y134000D01*
X1015251D01*
X1014418Y133167D01*
Y129835D01*
X1015251Y129002D01*
X1017750D01*
X1012752Y131501D02*
X1009419D01*
X1023750Y435002D02*
X1022084D01*
X1022917D01*
Y440000D01*
X1023750D01*
X1022084D01*
X1019585D02*
Y435002D01*
X1016252Y440000D01*
Y435002D01*
X1014586D02*
X1011254D01*
X1012920D01*
Y440000D01*
X1020418Y409835D02*
X1021251Y409002D01*
X1022917D01*
X1023750Y409835D01*
Y410668D01*
X1022917Y411501D01*
X1021251D01*
X1020418Y412334D01*
Y413167D01*
X1021251Y414000D01*
X1022917D01*
X1023750Y413167D01*
X1015419Y409835D02*
X1016253Y409002D01*
X1017919D01*
X1018752Y409835D01*
Y413167D01*
X1017919Y414000D01*
X1016253D01*
X1015419Y413167D01*
X1013753Y409002D02*
Y414000D01*
X1010421D01*
X1020418Y385835D02*
X1021251Y385002D01*
X1022917D01*
X1023750Y385835D01*
Y386668D01*
X1022917Y387501D01*
X1021251D01*
X1020418Y388334D01*
Y389167D01*
X1021251Y390000D01*
X1022917D01*
X1023750Y389167D01*
X1018752Y385002D02*
Y390000D01*
X1016253D01*
X1015419Y389167D01*
Y385835D01*
X1016253Y385002D01*
X1018752D01*
X1013753Y390000D02*
Y386668D01*
X1012087Y385002D01*
X1010421Y386668D01*
Y390000D01*
Y387501D01*
X1013753D01*
X1023750Y359002D02*
Y362334D01*
X1022084Y364000D01*
X1020418Y362334D01*
Y359002D01*
X1018752D02*
Y364000D01*
X1016253D01*
X1015419Y363167D01*
Y359835D01*
X1016253Y359002D01*
X1018752D01*
X1013753D02*
Y364000D01*
X1011254D01*
X1010421Y363167D01*
Y359835D01*
X1011254Y359002D01*
X1013753D01*
X1020418Y333835D02*
X1021251Y333002D01*
X1022917D01*
X1023750Y333835D01*
Y337167D01*
X1022917Y338000D01*
X1021251D01*
X1020418Y337167D01*
Y335501D01*
X1022084D01*
X1018752Y338000D02*
Y333002D01*
X1015419Y338000D01*
Y333002D01*
X1013753D02*
Y338000D01*
X1011254D01*
X1010421Y337167D01*
Y333835D01*
X1011254Y333002D01*
X1013753D01*
X753750Y307002D02*
Y310334D01*
X752084Y312000D01*
X750418Y310334D01*
Y307002D01*
X748752D02*
Y312000D01*
X746253D01*
X745419Y311167D01*
Y307835D01*
X746253Y307002D01*
X748752D01*
X743753D02*
Y312000D01*
X741254D01*
X740421Y311167D01*
Y307835D01*
X741254Y307002D01*
X743753D01*
X750418Y283835D02*
X751251Y283002D01*
X752917D01*
X753750Y283835D01*
Y287167D01*
X752917Y288000D01*
X751251D01*
X750418Y287167D01*
Y285501D01*
X752084D01*
X748752Y288000D02*
Y283002D01*
X745419Y288000D01*
Y283002D01*
X743753D02*
Y288000D01*
X741254D01*
X740421Y287167D01*
Y283835D01*
X741254Y283002D01*
X743753D01*
X822022Y607396D02*
X825354D01*
X827020Y609062D01*
X825354Y610728D01*
X822022D01*
Y612394D02*
X827020D01*
Y614893D01*
X826187Y615727D01*
X822855D01*
X822022Y614893D01*
Y612394D01*
Y617393D02*
X827020D01*
Y619892D01*
X826187Y620725D01*
X822855D01*
X822022Y619892D01*
Y617393D01*
X827853Y622391D02*
Y625723D01*
X828686Y627389D02*
X823688D01*
Y629889D01*
X824521Y630722D01*
X826187D01*
X827020Y629889D01*
Y627389D01*
X823688Y632388D02*
X827020D01*
X825354D01*
X824521Y633221D01*
X823688Y634054D01*
Y634887D01*
X827020Y638219D02*
Y639885D01*
X826187Y640718D01*
X824521D01*
X823688Y639885D01*
Y638219D01*
X824521Y637386D01*
X826187D01*
X827020Y638219D01*
X828686Y644051D02*
Y644884D01*
X827853Y645717D01*
X823688D01*
Y643218D01*
X824521Y642384D01*
X826187D01*
X827020Y643218D01*
Y645717D01*
X827750Y708000D02*
X822752D01*
Y710499D01*
X823585Y711332D01*
X825251D01*
X826084Y710499D01*
Y708000D01*
X823585Y716331D02*
X822752Y715498D01*
Y713831D01*
X823585Y712998D01*
X826917D01*
X827750Y713831D01*
Y715498D01*
X826917Y716331D01*
X825251D01*
Y714665D01*
X823585Y721329D02*
X822752Y720496D01*
Y718830D01*
X823585Y717997D01*
X826917D01*
X827750Y718830D01*
Y720496D01*
X826917Y721329D01*
X801750Y708000D02*
X796752D01*
Y710499D01*
X797585Y711332D01*
X799251D01*
X800084Y710499D01*
Y708000D01*
X797585Y716331D02*
X796752Y715498D01*
Y713831D01*
X797585Y712998D01*
X800917D01*
X801750Y713831D01*
Y715498D01*
X800917Y716331D01*
X799251D01*
Y714665D01*
X796752Y717997D02*
X801750D01*
Y720496D01*
X800917Y721329D01*
X797585D01*
X796752Y720496D01*
Y717997D01*
X846752Y634000D02*
X850084D01*
X851750Y635666D01*
X850084Y637332D01*
X846752D01*
X851750Y638998D02*
X846752D01*
Y641497D01*
X847585Y642331D01*
X849251D01*
X850084Y641497D01*
Y638998D01*
X851750Y643997D02*
X846752D01*
Y646496D01*
X847585Y647329D01*
X849251D01*
X850084Y646496D01*
Y643997D01*
X894752Y718000D02*
X899750D01*
Y720499D01*
X898917Y721332D01*
X895585D01*
X894752Y720499D01*
Y718000D01*
Y722998D02*
X899750D01*
Y725498D01*
X898917Y726331D01*
X898084D01*
X897251Y725498D01*
Y722998D01*
Y725498D01*
X896418Y726331D01*
X895585D01*
X894752Y725498D01*
Y722998D01*
X895585Y731329D02*
X894752Y730496D01*
Y728830D01*
X895585Y727997D01*
X898917D01*
X899750Y728830D01*
Y730496D01*
X898917Y731329D01*
X897251D01*
Y729663D01*
X875250Y591000D02*
X870252D01*
Y593499D01*
X871085Y594332D01*
X872751D01*
X873584Y593499D01*
Y591000D01*
Y592666D02*
X875250Y594332D01*
X871085Y595998D02*
X870252Y596832D01*
Y598498D01*
X871085Y599331D01*
X871918D01*
X872751Y598498D01*
Y597664D01*
Y598498D01*
X873584Y599331D01*
X874417D01*
X875250Y598498D01*
Y596832D01*
X874417Y595998D01*
X774752Y652000D02*
X779750Y655332D01*
X774752D02*
X779750Y652000D01*
X775585Y660331D02*
X774752Y659498D01*
Y657831D01*
X775585Y656998D01*
X776418D01*
X777251Y657831D01*
Y659498D01*
X778084Y660331D01*
X778917D01*
X779750Y659498D01*
Y657831D01*
X778917Y656998D01*
X779750Y664496D02*
X774752D01*
X777251Y661997D01*
Y665329D01*
X962312Y66328D02*
X967310Y69660D01*
X962312D02*
X967310Y66328D01*
X963145Y74659D02*
X962312Y73826D01*
Y72159D01*
X963145Y71326D01*
X963978D01*
X964811Y72159D01*
Y73826D01*
X965644Y74659D01*
X966477D01*
X967310Y73826D01*
Y72159D01*
X966477Y71326D01*
X963145Y76325D02*
X962312Y77158D01*
Y78824D01*
X963145Y79657D01*
X963978D01*
X964811Y78824D01*
Y77991D01*
Y78824D01*
X965644Y79657D01*
X966477D01*
X967310Y78824D01*
Y77158D01*
X966477Y76325D01*
X872752Y630000D02*
X877750Y633332D01*
X872752D02*
X877750Y630000D01*
X873585Y638331D02*
X872752Y637498D01*
Y635831D01*
X873585Y634998D01*
X874418D01*
X875251Y635831D01*
Y637498D01*
X876084Y638331D01*
X876917D01*
X877750Y637498D01*
Y635831D01*
X876917Y634998D01*
X877750Y643329D02*
Y639997D01*
X874418Y643329D01*
X873585D01*
X872752Y642496D01*
Y640830D01*
X873585Y639997D01*
X822752Y38000D02*
Y41332D01*
Y39666D01*
X827750D01*
X823585Y46331D02*
X822752Y45497D01*
Y43831D01*
X823585Y42998D01*
X824418D01*
X825251Y43831D01*
Y45497D01*
X826084Y46331D01*
X826917D01*
X827750Y45497D01*
Y43831D01*
X826917Y42998D01*
X827750Y47997D02*
Y49663D01*
Y48830D01*
X822752D01*
X823585Y47997D01*
X975585Y637332D02*
X974752Y636499D01*
Y634833D01*
X975585Y634000D01*
X976418D01*
X977251Y634833D01*
Y636499D01*
X978084Y637332D01*
X978917D01*
X979750Y636499D01*
Y634833D01*
X978917Y634000D01*
X974752Y638998D02*
X979750D01*
Y641497D01*
X978917Y642331D01*
X978084D01*
X977251Y641497D01*
Y638998D01*
Y641497D01*
X976418Y642331D01*
X975585D01*
X974752Y641497D01*
Y638998D01*
X979750Y643997D02*
Y645663D01*
Y644830D01*
X974752D01*
X975585Y643997D01*
X935750Y158000D02*
X930752D01*
Y160499D01*
X931585Y161332D01*
X933251D01*
X934084Y160499D01*
Y158000D01*
Y159666D02*
X935750Y161332D01*
Y166331D02*
Y162998D01*
X932418Y166331D01*
X931585D01*
X930752Y165498D01*
Y163831D01*
X931585Y162998D01*
X955250Y603000D02*
X950252D01*
Y605499D01*
X951085Y606332D01*
X952751D01*
X953584Y605499D01*
Y603000D01*
Y604666D02*
X955250Y606332D01*
Y607998D02*
Y609664D01*
Y608831D01*
X950252D01*
X951085Y607998D01*
X885750Y391002D02*
Y396000D01*
X883251D01*
X882418Y395167D01*
Y391835D01*
X883251Y391002D01*
X885750D01*
X880752D02*
Y396000D01*
X878252D01*
X877419Y395167D01*
Y391835D01*
X878252Y391002D01*
X880752D01*
X872421Y396000D02*
X875753D01*
X872421Y392668D01*
Y391835D01*
X873254Y391002D01*
X874920D01*
X875753Y391835D01*
X865750Y157002D02*
Y162000D01*
X863251D01*
X862418Y161167D01*
Y157835D01*
X863251Y157002D01*
X865750D01*
X860752D02*
Y162000D01*
X858252D01*
X857419Y161167D01*
Y157835D01*
X858252Y157002D01*
X860752D01*
X855753Y162000D02*
X854087D01*
X854920D01*
Y157002D01*
X855753Y157835D01*
X946085Y304082D02*
X945252Y303249D01*
Y301583D01*
X946085Y300750D01*
X949417D01*
X950250Y301583D01*
Y303249D01*
X949417Y304082D01*
X945252Y309081D02*
X946085Y307414D01*
X947751Y305748D01*
X949417D01*
X950250Y306581D01*
Y308248D01*
X949417Y309081D01*
X948584D01*
X947751Y308248D01*
Y305748D01*
X930085Y241332D02*
X929252Y240499D01*
Y238833D01*
X930085Y238000D01*
X933417D01*
X934250Y238833D01*
Y240499D01*
X933417Y241332D01*
X929252Y246331D02*
Y242998D01*
X931751D01*
X930918Y244664D01*
Y245498D01*
X931751Y246331D01*
X933417D01*
X934250Y245498D01*
Y243832D01*
X933417Y242998D01*
X824335Y143832D02*
X823502Y142999D01*
Y141333D01*
X824335Y140500D01*
X827667D01*
X828500Y141333D01*
Y142999D01*
X827667Y143832D01*
X828500Y147998D02*
X823502D01*
X826001Y145498D01*
Y148831D01*
X924085Y326082D02*
X923252Y325249D01*
Y323583D01*
X924085Y322750D01*
X927417D01*
X928250Y323583D01*
Y325249D01*
X927417Y326082D01*
X924085Y327748D02*
X923252Y328581D01*
Y330247D01*
X924085Y331081D01*
X924918D01*
X925751Y330247D01*
Y329414D01*
Y330247D01*
X926584Y331081D01*
X927417D01*
X928250Y330247D01*
Y328581D01*
X927417Y327748D01*
X856335Y121832D02*
X855502Y120999D01*
Y119333D01*
X856335Y118500D01*
X859667D01*
X860500Y119333D01*
Y120999D01*
X859667Y121832D01*
X860500Y126831D02*
Y123498D01*
X857168Y126831D01*
X856335D01*
X855502Y125997D01*
Y124331D01*
X856335Y123498D01*
X813585Y103332D02*
X812752Y102499D01*
Y100833D01*
X813585Y100000D01*
X816917D01*
X817750Y100833D01*
Y102499D01*
X816917Y103332D01*
X817750Y104998D02*
Y106664D01*
Y105831D01*
X812752D01*
X813585Y104998D01*
X956752Y254000D02*
X961750D01*
Y256499D01*
X960917Y257332D01*
X960084D01*
X959251Y256499D01*
Y254000D01*
Y256499D01*
X958418Y257332D01*
X957585D01*
X956752Y256499D01*
Y254000D01*
X960917Y262331D02*
X957585D01*
X956752Y261497D01*
Y259831D01*
X957585Y258998D01*
X960917D01*
X961750Y259831D01*
Y261497D01*
X960084Y260665D02*
X961750Y262331D01*
Y261497D02*
X960917Y262331D01*
X961750Y263997D02*
Y265663D01*
Y264830D01*
X956752D01*
X957585Y263997D01*
X1268850Y210250D02*
G03*
X1268850Y210250I0J-500D01*
G01*
X1142850Y345750D02*
G03*
X1142850Y345750I0J-500D01*
G01*
X1275850Y394820D02*
X1115850D01*
Y395000D02*
Y565000D01*
X1275870Y395000D02*
Y565000D01*
X1275850D02*
X1115850D01*
X1112935Y603332D02*
X1112102Y602499D01*
Y600833D01*
X1112935Y600000D01*
X1113768D01*
X1114601Y600833D01*
Y602499D01*
X1115434Y603332D01*
X1116267D01*
X1117100Y602499D01*
Y600833D01*
X1116267Y600000D01*
X1112102Y604998D02*
X1117100D01*
Y607498D01*
X1116267Y608331D01*
X1115434D01*
X1114601Y607498D01*
Y604998D01*
Y607498D01*
X1113768Y608331D01*
X1112935D01*
X1112102Y607498D01*
Y604998D01*
X1117100Y609997D02*
Y611663D01*
Y610830D01*
X1112102D01*
X1112935Y609997D01*
X1059109Y601000D02*
X1064440D01*
X1067106Y603666D01*
X1064440Y606332D01*
X1059109D01*
X1067106Y610330D02*
Y612996D01*
X1065773Y614329D01*
X1063108D01*
X1061775Y612996D01*
Y610330D01*
X1063108Y608997D01*
X1065773D01*
X1067106Y610330D01*
Y616995D02*
Y619661D01*
Y618328D01*
X1059109D01*
Y616995D01*
X1067106Y623659D02*
X1059109D01*
X1064440D02*
X1061775Y627658D01*
X1064440Y623659D02*
X1067106Y627658D01*
Y632990D02*
Y635656D01*
X1065773Y636988D01*
X1063108D01*
X1061775Y635656D01*
Y632990D01*
X1063108Y631657D01*
X1065773D01*
X1067106Y632990D01*
X1061775Y639654D02*
X1067106Y642320D01*
X1061775Y644986D01*
X1067106Y655649D02*
X1059109D01*
X1061775Y658315D01*
X1059109Y660981D01*
X1067106D01*
Y663646D02*
X1065773D01*
Y664979D01*
X1067106D01*
Y663646D01*
Y670311D02*
X1061775D01*
X1059109Y672977D01*
X1061775Y675643D01*
X1067106D01*
X1063108D01*
Y670311D01*
X1067106Y678308D02*
X1065773D01*
Y679641D01*
X1067106D01*
Y678308D01*
X1079103Y601000D02*
Y603666D01*
Y602333D01*
X1071106D01*
X1072439Y601000D01*
X1079103Y611663D02*
X1071106D01*
X1075104Y607664D01*
Y612996D01*
X1073772Y615662D02*
X1077770D01*
X1079103Y616995D01*
Y620994D01*
X1073772D01*
X1079103Y623659D02*
Y626325D01*
Y624992D01*
X1071106D01*
X1072439Y623659D01*
Y630324D02*
X1071106Y631657D01*
Y634323D01*
X1072439Y635656D01*
X1073772D01*
X1075104Y634323D01*
Y632990D01*
Y634323D01*
X1076437Y635656D01*
X1077770D01*
X1079103Y634323D01*
Y631657D01*
X1077770Y630324D01*
X1071106Y643653D02*
Y638321D01*
X1075104D01*
X1073772Y640987D01*
Y642320D01*
X1075104Y643653D01*
X1077770D01*
X1079103Y642320D01*
Y639654D01*
X1077770Y638321D01*
X1083103Y601000D02*
X1091100D01*
Y604999D01*
X1089767Y606332D01*
X1088434D01*
X1087101Y604999D01*
Y601000D01*
Y604999D01*
X1085768Y606332D01*
X1084436D01*
X1083103Y604999D01*
Y601000D01*
X1091100Y608997D02*
X1083103D01*
X1085768Y611663D01*
X1083103Y614329D01*
X1091100D01*
X1084436Y622327D02*
X1083103Y620994D01*
Y618328D01*
X1084436Y616995D01*
X1085768D01*
X1087101Y618328D01*
Y620994D01*
X1088434Y622327D01*
X1089767D01*
X1091100Y620994D01*
Y618328D01*
X1089767Y616995D01*
X1083103Y624992D02*
Y630324D01*
Y627658D01*
X1091100D01*
X1083103Y632990D02*
X1089767D01*
X1091100Y634323D01*
Y636988D01*
X1089767Y638321D01*
X1083103D01*
Y648985D02*
Y651650D01*
Y650317D01*
X1091100D01*
Y648985D01*
Y651650D01*
X1083103Y655649D02*
X1089767D01*
X1091100Y656982D01*
Y659648D01*
X1089767Y660981D01*
X1083103D01*
X1084436Y663646D02*
X1083103Y664979D01*
Y667645D01*
X1084436Y668978D01*
X1085768D01*
X1087101Y667645D01*
X1088434Y668978D01*
X1089767D01*
X1091100Y667645D01*
Y664979D01*
X1089767Y663646D01*
X1088434D01*
X1087101Y664979D01*
X1085768Y663646D01*
X1084436D01*
X1087101Y664979D02*
Y667645D01*
Y671644D02*
Y676975D01*
X1091100Y679641D02*
Y682307D01*
Y680974D01*
X1083103D01*
X1084436Y679641D01*
X1091100Y686306D02*
Y688972D01*
Y687639D01*
X1083103D01*
X1084436Y686306D01*
X1091100Y692970D02*
Y695636D01*
Y694303D01*
X1083103D01*
X1084436Y692970D01*
X1068350Y315002D02*
Y318334D01*
X1066684Y320000D01*
X1065018Y318334D01*
Y315002D01*
X1063352D02*
Y320000D01*
X1060853D01*
X1060019Y319167D01*
Y315835D01*
X1060853Y315002D01*
X1063352D01*
X1058353D02*
Y320000D01*
X1055854D01*
X1055021Y319167D01*
Y315835D01*
X1055854Y315002D01*
X1058353D01*
X1065018Y292085D02*
X1065851Y291252D01*
X1067517D01*
X1068350Y292085D01*
Y295417D01*
X1067517Y296250D01*
X1065851D01*
X1065018Y295417D01*
Y293751D01*
X1066684D01*
X1063352Y296250D02*
Y291252D01*
X1060019Y296250D01*
Y291252D01*
X1058353D02*
Y296250D01*
X1055854D01*
X1055021Y295417D01*
Y292085D01*
X1055854Y291252D01*
X1058353D01*
X1338350Y443752D02*
X1336684D01*
X1337517D01*
Y448750D01*
X1338350D01*
X1336684D01*
X1334185D02*
Y443752D01*
X1330852Y448750D01*
Y443752D01*
X1329186D02*
X1325854D01*
X1327520D01*
Y448750D01*
X1335018Y419585D02*
X1335851Y418752D01*
X1337517D01*
X1338350Y419585D01*
Y420418D01*
X1337517Y421251D01*
X1335851D01*
X1335018Y422084D01*
Y422917D01*
X1335851Y423750D01*
X1337517D01*
X1338350Y422917D01*
X1330019Y419585D02*
X1330853Y418752D01*
X1332519D01*
X1333352Y419585D01*
Y422917D01*
X1332519Y423750D01*
X1330853D01*
X1330019Y422917D01*
X1328353Y418752D02*
Y423750D01*
X1325021D01*
X1335018Y393335D02*
X1335851Y392502D01*
X1337517D01*
X1338350Y393335D01*
Y394168D01*
X1337517Y395001D01*
X1335851D01*
X1335018Y395834D01*
Y396667D01*
X1335851Y397500D01*
X1337517D01*
X1338350Y396667D01*
X1333352Y392502D02*
Y397500D01*
X1330853D01*
X1330019Y396667D01*
Y393335D01*
X1330853Y392502D01*
X1333352D01*
X1328353Y397500D02*
Y394168D01*
X1326687Y392502D01*
X1325021Y394168D01*
Y397500D01*
Y395001D01*
X1328353D01*
X1338350Y367502D02*
Y370834D01*
X1336684Y372500D01*
X1335018Y370834D01*
Y367502D01*
X1333352D02*
Y372500D01*
X1330853D01*
X1330019Y371667D01*
Y368335D01*
X1330853Y367502D01*
X1333352D01*
X1328353D02*
Y372500D01*
X1325854D01*
X1325021Y371667D01*
Y368335D01*
X1325854Y367502D01*
X1328353D01*
X1335018Y342085D02*
X1335851Y341252D01*
X1337517D01*
X1338350Y342085D01*
Y345417D01*
X1337517Y346250D01*
X1335851D01*
X1335018Y345417D01*
Y343751D01*
X1336684D01*
X1333352Y346250D02*
Y341252D01*
X1330019Y346250D01*
Y341252D01*
X1328353D02*
Y346250D01*
X1325854D01*
X1325021Y345417D01*
Y342085D01*
X1325854Y341252D01*
X1328353D01*
X1333350Y163752D02*
Y168750D01*
X1330851D01*
X1330018Y167917D01*
Y164585D01*
X1330851Y163752D01*
X1333350D01*
X1328352Y166251D02*
X1325019D01*
X1326685Y164585D02*
Y167917D01*
X1333350Y137502D02*
Y142500D01*
X1330851D01*
X1330018Y141667D01*
Y138335D01*
X1330851Y137502D01*
X1333350D01*
X1328352Y140001D02*
X1325019D01*
X1279185Y685832D02*
X1278352Y684999D01*
Y683333D01*
X1279185Y682500D01*
X1282517D01*
X1283350Y683333D01*
Y684999D01*
X1282517Y685832D01*
X1280851D01*
Y684166D01*
X1283350Y687498D02*
X1278352D01*
X1283350Y690831D01*
X1278352D01*
Y692497D02*
X1283350D01*
Y694996D01*
X1282517Y695829D01*
X1279185D01*
X1278352Y694996D01*
Y692497D01*
X1252935Y684582D02*
X1252102Y683749D01*
Y682083D01*
X1252935Y681250D01*
X1253768D01*
X1254601Y682083D01*
Y683749D01*
X1255434Y684582D01*
X1256267D01*
X1257100Y683749D01*
Y682083D01*
X1256267Y681250D01*
X1252102Y686248D02*
X1257100D01*
X1255434Y687915D01*
X1257100Y689581D01*
X1252102D01*
X1252935Y694579D02*
X1252102Y693746D01*
Y692080D01*
X1252935Y691247D01*
X1256267D01*
X1257100Y692080D01*
Y693746D01*
X1256267Y694579D01*
X1252102Y696245D02*
X1257100D01*
Y699577D01*
X1252102Y701244D02*
X1257100D01*
X1255434D01*
X1252102Y704576D01*
X1254601Y702076D01*
X1257100Y704576D01*
X1217935Y684582D02*
X1217102Y683749D01*
Y682083D01*
X1217935Y681250D01*
X1218768D01*
X1219601Y682083D01*
Y683749D01*
X1220434Y684582D01*
X1221267D01*
X1222100Y683749D01*
Y682083D01*
X1221267Y681250D01*
X1217102Y686248D02*
X1222100D01*
X1220434Y687915D01*
X1222100Y689581D01*
X1217102D01*
Y691247D02*
X1222100D01*
Y693746D01*
X1221267Y694579D01*
X1217935D01*
X1217102Y693746D01*
Y691247D01*
Y696245D02*
Y697911D01*
Y697078D01*
X1222100D01*
Y696245D01*
Y697911D01*
X1217102Y702910D02*
Y701244D01*
X1217935Y700410D01*
X1221267D01*
X1222100Y701244D01*
Y702910D01*
X1221267Y703743D01*
X1217935D01*
X1217102Y702910D01*
X1207100Y681250D02*
X1202102D01*
Y683749D01*
X1202935Y684582D01*
X1204601D01*
X1205434Y683749D01*
Y681250D01*
Y682916D02*
X1207100Y684582D01*
X1202102Y689581D02*
Y686248D01*
X1207100D01*
Y689581D01*
X1204601Y686248D02*
Y687915D01*
X1202935Y694579D02*
X1202102Y693746D01*
Y692080D01*
X1202935Y691247D01*
X1203768D01*
X1204601Y692080D01*
Y693746D01*
X1205434Y694579D01*
X1206267D01*
X1207100Y693746D01*
Y692080D01*
X1206267Y691247D01*
X1202102Y699577D02*
Y696245D01*
X1207100D01*
Y699577D01*
X1204601Y696245D02*
Y697911D01*
X1202102Y701244D02*
Y704576D01*
Y702910D01*
X1207100D01*
X1277226Y74678D02*
X1282224Y78010D01*
X1277226D02*
X1282224Y74678D01*
X1278059Y83009D02*
X1277226Y82176D01*
Y80509D01*
X1278059Y79676D01*
X1278892D01*
X1279725Y80509D01*
Y82176D01*
X1280558Y83009D01*
X1281391D01*
X1282224Y82176D01*
Y80509D01*
X1281391Y79676D01*
X1282224Y84675D02*
Y86341D01*
Y85508D01*
X1277226D01*
X1278059Y84675D01*
X1180852Y646250D02*
X1185850Y649582D01*
X1180852D02*
X1185850Y646250D01*
X1181685Y654581D02*
X1180852Y653748D01*
Y652081D01*
X1181685Y651248D01*
X1182518D01*
X1183351Y652081D01*
Y653748D01*
X1184184Y654581D01*
X1185017D01*
X1185850Y653748D01*
Y652081D01*
X1185017Y651248D01*
X1181685Y656247D02*
X1180852Y657080D01*
Y658746D01*
X1181685Y659579D01*
X1182518D01*
X1183351Y658746D01*
Y657913D01*
Y658746D01*
X1184184Y659579D01*
X1185017D01*
X1185850Y658746D01*
Y657080D01*
X1185017Y656247D01*
X1061580Y74678D02*
X1066578Y78010D01*
X1061580D02*
X1066578Y74678D01*
X1062413Y83009D02*
X1061580Y82176D01*
Y80509D01*
X1062413Y79676D01*
X1063246D01*
X1064079Y80509D01*
Y82176D01*
X1064912Y83009D01*
X1065745D01*
X1066578Y82176D01*
Y80509D01*
X1065745Y79676D01*
X1066578Y88007D02*
Y84675D01*
X1063246Y88007D01*
X1062413D01*
X1061580Y87174D01*
Y85508D01*
X1062413Y84675D01*
X1145852Y26250D02*
Y29582D01*
Y27916D01*
X1150850D01*
X1146685Y34581D02*
X1145852Y33748D01*
Y32081D01*
X1146685Y31248D01*
X1147518D01*
X1148351Y32081D01*
Y33748D01*
X1149184Y34581D01*
X1150017D01*
X1150850Y33748D01*
Y32081D01*
X1150017Y31248D01*
X1150850Y36247D02*
Y37913D01*
Y37080D01*
X1145852D01*
X1146685Y36247D01*
X1223350Y615000D02*
X1218352D01*
Y617499D01*
X1219185Y618332D01*
X1220851D01*
X1221684Y617499D01*
Y615000D01*
Y616666D02*
X1223350Y618332D01*
X1218352Y623331D02*
X1219185Y621665D01*
X1220851Y619998D01*
X1222517D01*
X1223350Y620831D01*
Y622497D01*
X1222517Y623331D01*
X1221684D01*
X1220851Y622497D01*
Y619998D01*
X1169600Y616250D02*
X1164602D01*
Y618749D01*
X1165435Y619582D01*
X1167101D01*
X1167934Y618749D01*
Y616250D01*
Y617916D02*
X1169600Y619582D01*
X1164602Y624581D02*
Y621248D01*
X1167101D01*
X1166268Y622915D01*
Y623748D01*
X1167101Y624581D01*
X1168767D01*
X1169600Y623748D01*
Y622081D01*
X1168767Y621248D01*
X1248350Y612500D02*
X1243352D01*
Y614999D01*
X1244185Y615832D01*
X1245851D01*
X1246684Y614999D01*
Y612500D01*
Y614166D02*
X1248350Y615832D01*
Y619997D02*
X1243352D01*
X1245851Y617498D01*
Y620831D01*
X1233350Y712500D02*
X1228352D01*
Y714999D01*
X1229185Y715832D01*
X1230851D01*
X1231684Y714999D01*
Y712500D01*
Y714166D02*
X1233350Y715832D01*
X1229185Y717498D02*
X1228352Y718331D01*
Y719997D01*
X1229185Y720831D01*
X1230018D01*
X1230851Y719997D01*
Y719165D01*
Y719997D01*
X1231684Y720831D01*
X1232517D01*
X1233350Y719997D01*
Y718331D01*
X1232517Y717498D01*
X1198350Y615000D02*
X1193352D01*
Y617499D01*
X1194185Y618332D01*
X1195851D01*
X1196684Y617499D01*
Y615000D01*
Y616666D02*
X1198350Y618332D01*
Y623331D02*
Y619998D01*
X1195018Y623331D01*
X1194185D01*
X1193352Y622497D01*
Y620831D01*
X1194185Y619998D01*
X1163860Y183644D02*
X1158862D01*
Y186143D01*
X1159695Y186976D01*
X1161361D01*
X1162194Y186143D01*
Y183644D01*
Y185310D02*
X1163860Y186976D01*
Y188642D02*
Y190308D01*
Y189475D01*
X1158862D01*
X1159695Y188642D01*
X1202100Y386252D02*
Y391250D01*
X1199601D01*
X1198768Y390417D01*
Y387085D01*
X1199601Y386252D01*
X1202100D01*
X1197102D02*
Y391250D01*
X1194603D01*
X1193769Y390417D01*
Y387085D01*
X1194603Y386252D01*
X1197102D01*
X1188771Y391250D02*
X1192103D01*
X1188771Y387918D01*
Y387085D01*
X1189604Y386252D01*
X1191270D01*
X1192103Y387085D01*
X1132100Y228752D02*
Y233750D01*
X1129601D01*
X1128768Y232917D01*
Y229585D01*
X1129601Y228752D01*
X1132100D01*
X1127102D02*
Y233750D01*
X1124602D01*
X1123769Y232917D01*
Y229585D01*
X1124602Y228752D01*
X1127102D01*
X1122103Y233750D02*
X1120437D01*
X1121270D01*
Y228752D01*
X1122103Y229585D01*
X1167935Y592082D02*
X1167102Y591249D01*
Y589583D01*
X1167935Y588750D01*
X1171267D01*
X1172100Y589583D01*
Y591249D01*
X1171267Y592082D01*
X1172100Y593748D02*
Y595415D01*
Y594581D01*
X1167102D01*
X1167935Y593748D01*
Y597914D02*
X1167102Y598747D01*
Y600413D01*
X1167935Y601246D01*
X1171267D01*
X1172100Y600413D01*
Y598747D01*
X1171267Y597914D01*
X1167935D01*
X1240435Y314582D02*
X1239602Y313749D01*
Y312083D01*
X1240435Y311250D01*
X1243767D01*
X1244600Y312083D01*
Y313749D01*
X1243767Y314582D01*
Y316248D02*
X1244600Y317081D01*
Y318748D01*
X1243767Y319581D01*
X1240435D01*
X1239602Y318748D01*
Y317081D01*
X1240435Y316248D01*
X1241268D01*
X1242101Y317081D01*
Y319581D01*
X1259185Y229582D02*
X1258352Y228749D01*
Y227083D01*
X1259185Y226250D01*
X1262517D01*
X1263350Y227083D01*
Y228749D01*
X1262517Y229582D01*
X1259185Y231248D02*
X1258352Y232082D01*
Y233748D01*
X1259185Y234581D01*
X1260018D01*
X1260851Y233748D01*
X1261684Y234581D01*
X1262517D01*
X1263350Y233748D01*
Y232082D01*
X1262517Y231248D01*
X1261684D01*
X1260851Y232082D01*
X1260018Y231248D01*
X1259185D01*
X1260851Y232082D02*
Y233748D01*
X1197935Y187082D02*
X1197102Y186249D01*
Y184583D01*
X1197935Y183750D01*
X1201267D01*
X1202100Y184583D01*
Y186249D01*
X1201267Y187082D01*
X1197102Y188748D02*
Y192081D01*
X1197935D01*
X1201267Y188748D01*
X1202100D01*
X1220435Y187082D02*
X1219602Y186249D01*
Y184583D01*
X1220435Y183750D01*
X1223767D01*
X1224600Y184583D01*
Y186249D01*
X1223767Y187082D01*
X1219602Y192081D02*
X1220435Y190415D01*
X1222101Y188748D01*
X1223767D01*
X1224600Y189581D01*
Y191248D01*
X1223767Y192081D01*
X1222934D01*
X1222101Y191248D01*
Y188748D01*
X1241685Y168332D02*
X1240852Y167499D01*
Y165833D01*
X1241685Y165000D01*
X1245017D01*
X1245850Y165833D01*
Y167499D01*
X1245017Y168332D01*
X1240852Y173331D02*
Y169998D01*
X1243351D01*
X1242518Y171665D01*
Y172498D01*
X1243351Y173331D01*
X1245017D01*
X1245850Y172498D01*
Y170831D01*
X1245017Y169998D01*
X1134185Y340832D02*
X1133352Y339999D01*
Y338333D01*
X1134185Y337500D01*
X1137517D01*
X1138350Y338333D01*
Y339999D01*
X1137517Y340832D01*
X1138350Y344998D02*
X1133352D01*
X1135851Y342498D01*
Y345831D01*
X1116685Y348332D02*
X1115852Y347499D01*
Y345833D01*
X1116685Y345000D01*
X1120017D01*
X1120850Y345833D01*
Y347499D01*
X1120017Y348332D01*
X1116685Y349998D02*
X1115852Y350831D01*
Y352497D01*
X1116685Y353331D01*
X1117518D01*
X1118351Y352497D01*
Y351665D01*
Y352497D01*
X1119184Y353331D01*
X1120017D01*
X1120850Y352497D01*
Y350831D01*
X1120017Y349998D01*
X1179185Y125832D02*
X1178352Y124999D01*
Y123333D01*
X1179185Y122500D01*
X1182517D01*
X1183350Y123333D01*
Y124999D01*
X1182517Y125832D01*
X1183350Y130831D02*
Y127498D01*
X1180018Y130831D01*
X1179185D01*
X1178352Y129998D01*
Y128331D01*
X1179185Y127498D01*
X1136685Y125832D02*
X1135852Y124999D01*
Y123333D01*
X1136685Y122500D01*
X1140017D01*
X1140850Y123333D01*
Y124999D01*
X1140017Y125832D01*
X1140850Y127498D02*
Y129164D01*
Y128331D01*
X1135852D01*
X1136685Y127498D01*
X1239602Y246250D02*
X1244600D01*
Y248749D01*
X1243767Y249582D01*
X1242934D01*
X1242101Y248749D01*
Y246250D01*
Y248749D01*
X1241268Y249582D01*
X1240435D01*
X1239602Y248749D01*
Y246250D01*
X1243767Y254581D02*
X1240435D01*
X1239602Y253748D01*
Y252081D01*
X1240435Y251248D01*
X1243767D01*
X1244600Y252081D01*
Y253748D01*
X1242934Y252915D02*
X1244600Y254581D01*
Y253748D02*
X1243767Y254581D01*
X1244600Y256247D02*
Y257913D01*
Y257080D01*
X1239602D01*
X1240435Y256247D01*
X469750Y650000D02*
G03*
X469750Y650000I0J-500D01*
G01*
X569250Y520250D02*
G03*
X569250Y520250I0J-500D01*
G01*
X602502Y101250D02*
X605834D01*
X607500Y102916D01*
X605834Y104582D01*
X602502D01*
Y106248D02*
X607500D01*
Y108748D01*
X606667Y109581D01*
X605834D01*
X605001Y108748D01*
Y106248D01*
Y108748D01*
X604168Y109581D01*
X603335D01*
X602502Y108748D01*
Y106248D01*
Y111247D02*
X606667D01*
X607500Y112080D01*
Y113746D01*
X606667Y114579D01*
X602502D01*
X603335Y119577D02*
X602502Y118744D01*
Y117078D01*
X603335Y116245D01*
X604168D01*
X605001Y117078D01*
Y118744D01*
X605834Y119577D01*
X606667D01*
X607500Y118744D01*
Y117078D01*
X606667Y116245D01*
X569016Y102500D02*
X574015D01*
Y104999D01*
X573182Y105832D01*
X569850D01*
X569016Y104999D01*
Y102500D01*
X574015Y107498D02*
X569016D01*
Y109998D01*
X569850Y110831D01*
X571516D01*
X572349Y109998D01*
Y107498D01*
X544502Y101250D02*
X549500D01*
Y103749D01*
X548667Y104582D01*
X545335D01*
X544502Y103749D01*
Y101250D01*
X549500Y106248D02*
X544502D01*
X546168Y107914D01*
X544502Y109581D01*
X549500D01*
X522085Y103332D02*
X521252Y102499D01*
Y100833D01*
X522085Y100000D01*
X525417D01*
X526250Y100833D01*
Y102499D01*
X525417Y103332D01*
X523751D01*
Y101666D01*
X526250Y104998D02*
X521252D01*
X526250Y108331D01*
X521252D01*
Y109997D02*
X526250D01*
Y112496D01*
X525417Y113329D01*
X522085D01*
X521252Y112496D01*
Y109997D01*
X582918Y790835D02*
X583751Y790002D01*
X585417D01*
X586250Y790835D01*
Y794167D01*
X585417Y795000D01*
X583751D01*
X582918Y794167D01*
Y792501D01*
X584584D01*
X581252Y795000D02*
Y790002D01*
X577919Y795000D01*
Y790002D01*
X576253D02*
Y795000D01*
X573754D01*
X572921Y794167D01*
Y790835D01*
X573754Y790002D01*
X576253D01*
X513750Y748750D02*
Y743752D01*
X511251D01*
X510418Y744585D01*
Y746251D01*
X511251Y747084D01*
X513750D01*
X512084D02*
X510418Y748750D01*
X505419Y743752D02*
X508752D01*
Y748750D01*
X505419D01*
X508752Y746251D02*
X507085D01*
X500421Y744585D02*
X501254Y743752D01*
X502920D01*
X503753Y744585D01*
Y745418D01*
X502920Y746251D01*
X501254D01*
X500421Y747084D01*
Y747917D01*
X501254Y748750D01*
X502920D01*
X503753Y747917D01*
X495423Y743752D02*
X498755D01*
Y748750D01*
X495423D01*
X498755Y746251D02*
X497089D01*
X493756Y743752D02*
X490424D01*
X492090D01*
Y748750D01*
X560418Y744585D02*
X561251Y743752D01*
X562917D01*
X563750Y744585D01*
Y745418D01*
X562917Y746251D01*
X561251D01*
X560418Y747084D01*
Y747917D01*
X561251Y748750D01*
X562917D01*
X563750Y747917D01*
X558752Y743752D02*
Y748750D01*
X557085Y747084D01*
X555419Y748750D01*
Y743752D01*
X550421Y744585D02*
X551254Y743752D01*
X552920D01*
X553753Y744585D01*
Y747917D01*
X552920Y748750D01*
X551254D01*
X550421Y747917D01*
X548755Y743752D02*
Y748750D01*
X545423D01*
X543756Y743752D02*
Y748750D01*
Y747084D01*
X540424Y743752D01*
X542924Y746251D01*
X540424Y748750D01*
X535418Y789585D02*
X536251Y788752D01*
X537917D01*
X538750Y789585D01*
Y790418D01*
X537917Y791251D01*
X536251D01*
X535418Y792084D01*
Y792917D01*
X536251Y793750D01*
X537917D01*
X538750Y792917D01*
X533752Y788752D02*
Y793750D01*
X532086Y792084D01*
X530419Y793750D01*
Y788752D01*
X528753D02*
Y793750D01*
X526254D01*
X525421Y792917D01*
Y789585D01*
X526254Y788752D01*
X528753D01*
X523755D02*
X522089D01*
X522922D01*
Y793750D01*
X523755D01*
X522089D01*
X517090Y788752D02*
X518757D01*
X519590Y789585D01*
Y792917D01*
X518757Y793750D01*
X517090D01*
X516257Y792917D01*
Y789585D01*
X517090Y788752D01*
X496252Y65000D02*
X501250Y68332D01*
X496252D02*
X501250Y65000D01*
X497085Y73331D02*
X496252Y72498D01*
Y70831D01*
X497085Y69998D01*
X497918D01*
X498751Y70831D01*
Y72498D01*
X499584Y73331D01*
X500417D01*
X501250Y72498D01*
Y70831D01*
X500417Y69998D01*
X497085Y74997D02*
X496252Y75830D01*
Y77496D01*
X497085Y78329D01*
X497918D01*
X498751Y77496D01*
Y76663D01*
Y77496D01*
X499584Y78329D01*
X500417D01*
X501250Y77496D01*
Y75830D01*
X500417Y74997D01*
X605835Y667082D02*
X605002Y666249D01*
Y664583D01*
X605835Y663750D01*
X606668D01*
X607501Y664583D01*
Y666249D01*
X608334Y667082D01*
X609167D01*
X610000Y666249D01*
Y664583D01*
X609167Y663750D01*
X605002Y668748D02*
X610000D01*
Y671248D01*
X609167Y672081D01*
X608334D01*
X607501Y671248D01*
Y668748D01*
Y671248D01*
X606668Y672081D01*
X605835D01*
X605002Y671248D01*
Y668748D01*
X610000Y673747D02*
Y675413D01*
Y674580D01*
X605002D01*
X605835Y673747D01*
X475052Y753360D02*
X480050Y756692D01*
X475052D02*
X480050Y753360D01*
X475885Y761691D02*
X475052Y760858D01*
Y759191D01*
X475885Y758358D01*
X476718D01*
X477551Y759191D01*
Y760858D01*
X478384Y761691D01*
X479217D01*
X480050Y760858D01*
Y759191D01*
X479217Y758358D01*
X480050Y763357D02*
Y765023D01*
Y764190D01*
X475052D01*
X475885Y763357D01*
X543750Y521252D02*
Y526250D01*
X541251D01*
X540418Y525417D01*
Y522085D01*
X541251Y521252D01*
X543750D01*
X538752D02*
Y526250D01*
X536253D01*
X535419Y525417D01*
Y522085D01*
X536253Y521252D01*
X538752D01*
X533753Y526250D02*
X532087D01*
X532920D01*
Y521252D01*
X533753Y522085D01*
X487502Y3750D02*
X492500Y7082D01*
X487502D02*
X492500Y3750D01*
X488335Y12081D02*
X487502Y11248D01*
Y9581D01*
X488335Y8748D01*
X489168D01*
X490001Y9581D01*
Y11248D01*
X490834Y12081D01*
X491667D01*
X492500Y11248D01*
Y9581D01*
X491667Y8748D01*
X492500Y17079D02*
Y13747D01*
X489168Y17079D01*
X488335D01*
X487502Y16246D01*
Y14580D01*
X488335Y13747D01*
X613228Y143506D02*
Y146838D01*
Y145172D01*
X618226D01*
X614061Y151837D02*
X613228Y151004D01*
Y149337D01*
X614061Y148504D01*
X614894D01*
X615727Y149337D01*
Y151004D01*
X616560Y151837D01*
X617393D01*
X618226Y151004D01*
Y149337D01*
X617393Y148504D01*
X618226Y153503D02*
Y155169D01*
Y154336D01*
X613228D01*
X614061Y153503D01*
X657500Y48000D02*
X652502D01*
Y50499D01*
X653335Y51332D01*
X655001D01*
X655834Y50499D01*
Y48000D01*
Y49666D02*
X657500Y51332D01*
X656667Y52998D02*
X657500Y53831D01*
Y55498D01*
X656667Y56331D01*
X653335D01*
X652502Y55498D01*
Y53831D01*
X653335Y52998D01*
X654168D01*
X655001Y53831D01*
Y56331D01*
X480000Y98750D02*
X475002D01*
Y101249D01*
X475835Y102082D01*
X477501D01*
X478334Y101249D01*
Y98750D01*
Y100416D02*
X480000Y102082D01*
X475835Y103748D02*
X475002Y104581D01*
Y106248D01*
X475835Y107081D01*
X476668D01*
X477501Y106248D01*
X478334Y107081D01*
X479167D01*
X480000Y106248D01*
Y104581D01*
X479167Y103748D01*
X478334D01*
X477501Y104581D01*
X476668Y103748D01*
X475835D01*
X477501Y104581D02*
Y106248D01*
X501750Y90000D02*
X496752D01*
Y92499D01*
X497585Y93332D01*
X499251D01*
X500084Y92499D01*
Y90000D01*
Y91666D02*
X501750Y93332D01*
X496752Y94998D02*
Y98331D01*
X497585D01*
X500917Y94998D01*
X501750D01*
X481250Y639250D02*
X476252D01*
Y641749D01*
X477085Y642582D01*
X478751D01*
X479584Y641749D01*
Y639250D01*
Y640916D02*
X481250Y642582D01*
X476252Y647581D02*
X477085Y645915D01*
X478751Y644248D01*
X480417D01*
X481250Y645081D01*
Y646748D01*
X480417Y647581D01*
X479584D01*
X478751Y646748D01*
Y644248D01*
X535000Y688750D02*
X530002D01*
Y691249D01*
X530835Y692082D01*
X532501D01*
X533334Y691249D01*
Y688750D01*
Y690416D02*
X535000Y692082D01*
X530002Y697081D02*
Y693748D01*
X532501D01*
X531668Y695415D01*
Y696248D01*
X532501Y697081D01*
X534167D01*
X535000Y696248D01*
Y694581D01*
X534167Y693748D01*
X515500Y656000D02*
X510502D01*
Y658499D01*
X511335Y659332D01*
X513001D01*
X513834Y658499D01*
Y656000D01*
Y657666D02*
X515500Y659332D01*
Y663497D02*
X510502D01*
X513001Y660998D01*
Y664331D01*
X574250Y681000D02*
X569252D01*
Y683499D01*
X570085Y684332D01*
X571751D01*
X572584Y683499D01*
Y681000D01*
Y682666D02*
X574250Y684332D01*
X570085Y685998D02*
X569252Y686831D01*
Y688497D01*
X570085Y689331D01*
X570918D01*
X571751Y688497D01*
Y687664D01*
Y688497D01*
X572584Y689331D01*
X573417D01*
X574250Y688497D01*
Y686831D01*
X573417Y685998D01*
X553000Y698000D02*
X548002D01*
Y700499D01*
X548835Y701332D01*
X550501D01*
X551334Y700499D01*
Y698000D01*
Y699666D02*
X553000Y701332D01*
Y706331D02*
Y702998D01*
X549668Y706331D01*
X548835D01*
X548002Y705498D01*
Y703831D01*
X548835Y702998D01*
X499250Y700500D02*
X494252D01*
Y702999D01*
X495085Y703832D01*
X496751D01*
X497584Y702999D01*
Y700500D01*
Y702166D02*
X499250Y703832D01*
Y705498D02*
Y707165D01*
Y706331D01*
X494252D01*
X495085Y705498D01*
X422502Y275000D02*
X427500D01*
Y277499D01*
X426667Y278332D01*
X423335D01*
X422502Y277499D01*
Y275000D01*
Y279998D02*
X427500D01*
Y282498D01*
X426667Y283331D01*
X423335D01*
X422502Y282498D01*
Y279998D01*
X427500Y288329D02*
Y284997D01*
X424168Y288329D01*
X423335D01*
X422502Y287496D01*
Y285830D01*
X423335Y284997D01*
X473752Y177500D02*
X478750D01*
Y179999D01*
X477917Y180832D01*
X474585D01*
X473752Y179999D01*
Y177500D01*
X478750Y182498D02*
X475418D01*
X473752Y184165D01*
X475418Y185831D01*
X478750D01*
X476251D01*
Y182498D01*
X478750Y187497D02*
Y189163D01*
Y188330D01*
X473752D01*
X474585Y187497D01*
X633335Y61832D02*
X632502Y60999D01*
Y59333D01*
X633335Y58500D01*
X636667D01*
X637500Y59333D01*
Y60999D01*
X636667Y61832D01*
X637500Y63498D02*
Y65164D01*
Y64331D01*
X632502D01*
X633335Y63498D01*
X637500Y67664D02*
Y69330D01*
Y68497D01*
X632502D01*
X633335Y67664D01*
X418227Y532664D02*
X417394Y531831D01*
Y530165D01*
X418227Y529332D01*
X421559D01*
X422392Y530165D01*
Y531831D01*
X421559Y532664D01*
X422392Y534330D02*
Y535997D01*
Y535163D01*
X417394D01*
X418227Y534330D01*
Y538496D02*
X417394Y539329D01*
Y540995D01*
X418227Y541828D01*
X421559D01*
X422392Y540995D01*
Y539329D01*
X421559Y538496D01*
X418227D01*
X408335Y615082D02*
X407502Y614249D01*
Y612583D01*
X408335Y611750D01*
X411667D01*
X412500Y612583D01*
Y614249D01*
X411667Y615082D01*
Y616748D02*
X412500Y617581D01*
Y619248D01*
X411667Y620081D01*
X408335D01*
X407502Y619248D01*
Y617581D01*
X408335Y616748D01*
X409168D01*
X410001Y617581D01*
Y620081D01*
X495835Y670082D02*
X495002Y669249D01*
Y667583D01*
X495835Y666750D01*
X499167D01*
X500000Y667583D01*
Y669249D01*
X499167Y670082D01*
X495835Y671748D02*
X495002Y672581D01*
Y674248D01*
X495835Y675081D01*
X496668D01*
X497501Y674248D01*
X498334Y675081D01*
X499167D01*
X500000Y674248D01*
Y672581D01*
X499167Y671748D01*
X498334D01*
X497501Y672581D01*
X496668Y671748D01*
X495835D01*
X497501Y672581D02*
Y674248D01*
X597085Y174582D02*
X596252Y173749D01*
Y172083D01*
X597085Y171250D01*
X600417D01*
X601250Y172083D01*
Y173749D01*
X600417Y174582D01*
X596252Y176248D02*
Y179581D01*
X597085D01*
X600417Y176248D01*
X601250D01*
X579585Y122082D02*
X578752Y121249D01*
Y119583D01*
X579585Y118750D01*
X582917D01*
X583750Y119583D01*
Y121249D01*
X582917Y122082D01*
X578752Y127081D02*
X579585Y125414D01*
X581251Y123748D01*
X582917D01*
X583750Y124581D01*
Y126248D01*
X582917Y127081D01*
X582084D01*
X581251Y126248D01*
Y123748D01*
X433213Y515138D02*
X432380Y514305D01*
Y512639D01*
X433213Y511806D01*
X436545D01*
X437378Y512639D01*
Y514305D01*
X436545Y515138D01*
X432380Y520137D02*
Y516804D01*
X434879D01*
X434046Y518470D01*
Y519304D01*
X434879Y520137D01*
X436545D01*
X437378Y519304D01*
Y517637D01*
X436545Y516804D01*
X438335Y635332D02*
X437502Y634499D01*
Y632833D01*
X438335Y632000D01*
X441667D01*
X442500Y632833D01*
Y634499D01*
X441667Y635332D01*
X442500Y639497D02*
X437502D01*
X440001Y636998D01*
Y640331D01*
X418335Y650582D02*
X417502Y649749D01*
Y648083D01*
X418335Y647250D01*
X421667D01*
X422500Y648083D01*
Y649749D01*
X421667Y650582D01*
X418335Y652248D02*
X417502Y653081D01*
Y654747D01*
X418335Y655581D01*
X419168D01*
X420001Y654747D01*
Y653914D01*
Y654747D01*
X420834Y655581D01*
X421667D01*
X422500Y654747D01*
Y653081D01*
X421667Y652248D01*
X544335Y477482D02*
X543502Y476649D01*
Y474983D01*
X544335Y474150D01*
X547667D01*
X548500Y474983D01*
Y476649D01*
X547667Y477482D01*
X548500Y482481D02*
Y479148D01*
X545168Y482481D01*
X544335D01*
X543502Y481647D01*
Y479981D01*
X544335Y479148D01*
X584085Y493832D02*
X583252Y492999D01*
Y491333D01*
X584085Y490500D01*
X587417D01*
X588250Y491333D01*
Y492999D01*
X587417Y493832D01*
X588250Y495498D02*
Y497164D01*
Y496331D01*
X583252D01*
X584085Y495498D01*
X405002Y550000D02*
X410000D01*
Y552499D01*
X409167Y553332D01*
X408334D01*
X407501Y552499D01*
Y550000D01*
Y552499D01*
X406668Y553332D01*
X405835D01*
X405002Y552499D01*
Y550000D01*
X409167Y558331D02*
X405835D01*
X405002Y557498D01*
Y555831D01*
X405835Y554998D01*
X409167D01*
X410000Y555831D01*
Y557498D01*
X408334Y556665D02*
X410000Y558331D01*
Y557498D02*
X409167Y558331D01*
X410000Y559997D02*
Y561663D01*
Y560830D01*
X405002D01*
X405835Y559997D01*
X266910Y314570D02*
X106910D01*
X266910Y144390D02*
Y314390D01*
X106890Y144390D02*
Y314390D01*
X266910Y144390D02*
X106910D01*
X11498Y69411D02*
X11498Y68233D01*
X12677Y67055D01*
X13855Y67055D01*
X16211Y69411D01*
Y70589D01*
X15033Y71767D01*
X13855D01*
X12677Y70589D01*
X13855Y69411D01*
X13266Y73534D02*
X9731Y70000D01*
X10909Y75891D01*
X7375Y72356D01*
X6197Y73534D02*
X9731Y77069D01*
X7964Y78836D01*
X6786D01*
X4430Y76480D01*
Y75302D01*
X6197Y73534D01*
X29266Y50466D02*
X32800Y54000D01*
X31033Y55767D01*
X29855D01*
X27498Y53411D01*
X27498Y52233D01*
X29266Y50466D01*
X27498Y55767D02*
X25142Y58123D01*
Y55767D02*
X27498Y58123D01*
X47266Y32466D02*
X50800Y36000D01*
X49033Y37767D01*
X47855D01*
X45498Y35411D01*
X45498Y34233D01*
X47266Y32466D01*
X45498Y37767D02*
X43142Y40123D01*
X69266Y10466D02*
X71622Y12822D01*
Y15178D01*
X69266D01*
X66909Y12822D01*
X65731Y14000D02*
X69266Y17534D01*
X67498Y19302D01*
X66320D01*
X65731Y18713D01*
Y17534D01*
X67498Y15767D01*
X65731Y17534D01*
X64553D01*
X63964Y16945D01*
Y15767D01*
X65731Y14000D01*
X62197Y17534D02*
X65142Y20480D01*
Y21658D01*
X63964Y22836D01*
X62786D01*
X59841Y19891D01*
X56895Y24014D02*
X56895Y22836D01*
X58073Y21658D01*
X59251Y21658D01*
X59841Y22247D01*
Y23425D01*
X58663Y24603D01*
Y25781D01*
X59251Y26370D01*
X60430D01*
X61608Y25192D01*
Y24014D01*
X370635Y211332D02*
X369802Y210499D01*
Y208833D01*
X370635Y208000D01*
X373967D01*
X374800Y208833D01*
Y210499D01*
X373967Y211332D01*
X372301D01*
Y209666D01*
X374800Y212998D02*
X369802D01*
X374800Y216331D01*
X369802D01*
Y217997D02*
X374800D01*
Y220496D01*
X373967Y221329D01*
X370635D01*
X369802Y220496D01*
Y217997D01*
Y234000D02*
X374800D01*
Y236499D01*
X373967Y237332D01*
X370635D01*
X369802Y236499D01*
Y234000D01*
Y238998D02*
X374800D01*
Y241497D01*
X373967Y242331D01*
X373134D01*
X372301Y241497D01*
Y238998D01*
Y241497D01*
X371468Y242331D01*
X370635D01*
X369802Y241497D01*
Y238998D01*
X370635Y247329D02*
X369802Y246496D01*
Y244830D01*
X370635Y243997D01*
X373967D01*
X374800Y244830D01*
Y246496D01*
X373967Y247329D01*
X372301D01*
Y245663D01*
X359802Y344000D02*
X363134D01*
X364800Y345666D01*
X363134Y347332D01*
X359802D01*
X364800Y348998D02*
X359802D01*
Y351497D01*
X360635Y352331D01*
X362301D01*
X363134Y351497D01*
Y348998D01*
X364800Y353997D02*
X359802D01*
Y356496D01*
X360635Y357329D01*
X362301D01*
X363134Y356496D01*
Y353997D01*
X359802Y316000D02*
X363134D01*
X364800Y317666D01*
X363134Y319332D01*
X359802D01*
Y320998D02*
X364800D01*
Y323498D01*
X363967Y324331D01*
X360635D01*
X359802Y323498D01*
Y320998D01*
Y325997D02*
X364800D01*
Y328496D01*
X363967Y329329D01*
X360635D01*
X359802Y328496D01*
Y325997D01*
X366466Y330995D02*
X361468D01*
Y333494D01*
X362301Y334327D01*
X363967D01*
X364800Y333494D01*
Y330995D01*
X360635Y295332D02*
X359802Y294499D01*
Y292833D01*
X360635Y292000D01*
X363967D01*
X364800Y292833D01*
Y294499D01*
X363967Y295332D01*
X362301D01*
Y293666D01*
X364800Y296998D02*
X359802D01*
X364800Y300331D01*
X359802D01*
Y301997D02*
X364800D01*
Y304496D01*
X363967Y305329D01*
X360635D01*
X359802Y304496D01*
Y301997D01*
X298800Y318000D02*
X293802D01*
Y320499D01*
X294635Y321332D01*
X296301D01*
X297134Y320499D01*
Y318000D01*
X294635Y326331D02*
X293802Y325498D01*
Y323831D01*
X294635Y322998D01*
X297967D01*
X298800Y323831D01*
Y325498D01*
X297967Y326331D01*
X296301D01*
Y324664D01*
X294635Y331329D02*
X293802Y330496D01*
Y328830D01*
X294635Y327997D01*
X297967D01*
X298800Y328830D01*
Y330496D01*
X297967Y331329D01*
X298800Y292000D02*
X293802D01*
Y294499D01*
X294635Y295332D01*
X296301D01*
X297134Y294499D01*
Y292000D01*
X294635Y300331D02*
X293802Y299498D01*
Y297831D01*
X294635Y296998D01*
X297967D01*
X298800Y297831D01*
Y299498D01*
X297967Y300331D01*
X296301D01*
Y298664D01*
X293802Y301997D02*
X298800D01*
Y304496D01*
X297967Y305329D01*
X294635D01*
X293802Y304496D01*
Y301997D01*
X7802Y110000D02*
X12800Y113332D01*
X7802D02*
X12800Y110000D01*
X8635Y118331D02*
X7802Y117498D01*
Y115831D01*
X8635Y114998D01*
X9468D01*
X10301Y115831D01*
Y117498D01*
X11134Y118331D01*
X11967D01*
X12800Y117498D01*
Y115831D01*
X11967Y114998D01*
X12800Y123329D02*
Y119997D01*
X9468Y123329D01*
X8635D01*
X7802Y122496D01*
Y120830D01*
X8635Y119997D01*
X203075Y101122D02*
X202242Y100289D01*
Y98623D01*
X203075Y97790D01*
X206407D01*
X207240Y98623D01*
Y100289D01*
X206407Y101122D01*
X207240Y105288D02*
X202242D01*
X204741Y102788D01*
Y106121D01*
X228830Y77470D02*
X223832D01*
Y79969D01*
X224665Y80802D01*
X226331D01*
X227164Y79969D01*
Y77470D01*
Y79136D02*
X228830Y80802D01*
X224665Y82468D02*
X223832Y83301D01*
Y84967D01*
X224665Y85801D01*
X225498D01*
X226331Y84967D01*
Y84135D01*
Y84967D01*
X227164Y85801D01*
X227997D01*
X228830Y84967D01*
Y83301D01*
X227997Y82468D01*
X340800Y181002D02*
X337468Y186000D01*
Y181002D02*
X340800Y186000D01*
X332469Y181835D02*
X333302Y181002D01*
X334968D01*
X335802Y181835D01*
Y182668D01*
X334968Y183501D01*
X333302D01*
X332469Y184334D01*
Y185167D01*
X333302Y186000D01*
X334968D01*
X335802Y185167D01*
X330803Y181835D02*
X329970Y181002D01*
X328304D01*
X327471Y181835D01*
Y182668D01*
X328304Y183501D01*
X329137D01*
X328304D01*
X327471Y184334D01*
Y185167D01*
X328304Y186000D01*
X329970D01*
X330803Y185167D01*
X334800Y275002D02*
X331468Y280000D01*
Y275002D02*
X334800Y280000D01*
X326469Y275835D02*
X327302Y275002D01*
X328969D01*
X329802Y275835D01*
Y276668D01*
X328969Y277501D01*
X327302D01*
X326469Y278334D01*
Y279167D01*
X327302Y280000D01*
X328969D01*
X329802Y279167D01*
X322304Y280000D02*
Y275002D01*
X324803Y277501D01*
X321471D01*
X103802Y16000D02*
X108800Y19332D01*
X103802D02*
X108800Y16000D01*
X104635Y24331D02*
X103802Y23498D01*
Y21831D01*
X104635Y20998D01*
X105468D01*
X106301Y21831D01*
Y23498D01*
X107134Y24331D01*
X107967D01*
X108800Y23498D01*
Y21831D01*
X107967Y20998D01*
X108800Y25997D02*
Y27663D01*
Y26830D01*
X103802D01*
X104635Y25997D01*
X261802Y62000D02*
Y65332D01*
Y63666D01*
X266800D01*
X262635Y70331D02*
X261802Y69497D01*
Y67831D01*
X262635Y66998D01*
X263468D01*
X264301Y67831D01*
Y69497D01*
X265134Y70331D01*
X265967D01*
X266800Y69497D01*
Y67831D01*
X265967Y66998D01*
X266800Y71997D02*
Y73663D01*
Y72830D01*
X261802D01*
X262635Y71997D01*
X314835Y395762D02*
X314002Y394929D01*
Y393263D01*
X314835Y392430D01*
X315668D01*
X316501Y393263D01*
Y394929D01*
X317334Y395762D01*
X318167D01*
X319000Y394929D01*
Y393263D01*
X318167Y392430D01*
X314002Y397428D02*
X319000D01*
Y399927D01*
X318167Y400761D01*
X317334D01*
X316501Y399927D01*
Y397428D01*
Y399927D01*
X315668Y400761D01*
X314835D01*
X314002Y399927D01*
Y397428D01*
X319000Y402427D02*
Y404093D01*
Y403260D01*
X314002D01*
X314835Y402427D01*
X305030Y513080D02*
X300032D01*
Y515579D01*
X300865Y516412D01*
X302531D01*
X303364Y515579D01*
Y513080D01*
Y514746D02*
X305030Y516412D01*
Y520578D02*
X300032D01*
X302531Y518078D01*
Y521411D01*
X221210Y335280D02*
X216212D01*
Y337779D01*
X217045Y338612D01*
X218711D01*
X219544Y337779D01*
Y335280D01*
Y336946D02*
X221210Y338612D01*
X216212Y343611D02*
Y340278D01*
X218711D01*
X217878Y341945D01*
Y342777D01*
X218711Y343611D01*
X220377D01*
X221210Y342777D01*
Y341111D01*
X220377Y340278D01*
X180800Y80000D02*
X175802D01*
Y82499D01*
X176635Y83332D01*
X178301D01*
X179134Y82499D01*
Y80000D01*
Y81666D02*
X180800Y83332D01*
Y84998D02*
Y86664D01*
Y85831D01*
X175802D01*
X176635Y84998D01*
X160800Y78000D02*
X155802D01*
Y80499D01*
X156635Y81332D01*
X158301D01*
X159134Y80499D01*
Y78000D01*
Y79666D02*
X160800Y81332D01*
Y86331D02*
Y82998D01*
X157468Y86331D01*
X156635D01*
X155802Y85498D01*
Y83831D01*
X156635Y82998D01*
X174800Y135002D02*
Y140000D01*
X172301D01*
X171468Y139167D01*
Y135835D01*
X172301Y135002D01*
X174800D01*
X169802D02*
Y140000D01*
X167302D01*
X166469Y139167D01*
Y135835D01*
X167302Y135002D01*
X169802D01*
X164803Y135835D02*
X163970Y135002D01*
X162304D01*
X161471Y135835D01*
Y136668D01*
X162304Y137501D01*
X163137D01*
X162304D01*
X161471Y138334D01*
Y139167D01*
X162304Y140000D01*
X163970D01*
X164803Y139167D01*
X180570Y358222D02*
Y363220D01*
X178071D01*
X177238Y362387D01*
Y359055D01*
X178071Y358222D01*
X180570D01*
X175572D02*
Y363220D01*
X173072D01*
X172239Y362387D01*
Y359055D01*
X173072Y358222D01*
X175572D01*
X167241Y363220D02*
X170573D01*
X167241Y359888D01*
Y359055D01*
X168074Y358222D01*
X169740D01*
X170573Y359055D01*
X83802Y78000D02*
X88800D01*
Y80499D01*
X87967Y81332D01*
X84635D01*
X83802Y80499D01*
Y78000D01*
X88800Y82998D02*
X85468D01*
X83802Y84664D01*
X85468Y86331D01*
X88800D01*
X86301D01*
Y82998D01*
X88800Y87997D02*
Y89663D01*
Y88830D01*
X83802D01*
X84635Y87997D01*
X90045Y374172D02*
X89212Y373339D01*
Y371673D01*
X90045Y370840D01*
X93377D01*
X94210Y371673D01*
Y373339D01*
X93377Y374172D01*
X90045Y375838D02*
X89212Y376671D01*
Y378338D01*
X90045Y379171D01*
X90878D01*
X91711Y378338D01*
Y377505D01*
Y378338D01*
X92544Y379171D01*
X93377D01*
X94210Y378338D01*
Y376671D01*
X93377Y375838D01*
X253875Y534192D02*
X253042Y533359D01*
Y531693D01*
X253875Y530860D01*
X257207D01*
X258040Y531693D01*
Y533359D01*
X257207Y534192D01*
X258040Y539191D02*
Y535858D01*
X254708Y539191D01*
X253875D01*
X253042Y538358D01*
Y536691D01*
X253875Y535858D01*
Y504982D02*
X253042Y504149D01*
Y502483D01*
X253875Y501650D01*
X257207D01*
X258040Y502483D01*
Y504149D01*
X257207Y504982D01*
X253042Y506648D02*
Y509981D01*
X253875D01*
X257207Y506648D01*
X258040D01*
X286895Y464342D02*
X286062Y463509D01*
Y461843D01*
X286895Y461010D01*
X290227D01*
X291060Y461843D01*
Y463509D01*
X290227Y464342D01*
X286062Y469341D02*
X286895Y467674D01*
X288561Y466008D01*
X290227D01*
X291060Y466841D01*
Y468507D01*
X290227Y469341D01*
X289394D01*
X288561Y468507D01*
Y466008D01*
X304675Y143032D02*
X303842Y142199D01*
Y140533D01*
X304675Y139700D01*
X308007D01*
X308840Y140533D01*
Y142199D01*
X308007Y143032D01*
X303842Y148031D02*
Y144698D01*
X306341D01*
X305508Y146364D01*
Y147198D01*
X306341Y148031D01*
X308007D01*
X308840Y147198D01*
Y145531D01*
X308007Y144698D01*
X248635Y25332D02*
X247802Y24499D01*
Y22833D01*
X248635Y22000D01*
X251967D01*
X252800Y22833D01*
Y24499D01*
X251967Y25332D01*
X252800Y26998D02*
Y28665D01*
Y27831D01*
X247802D01*
X248635Y26998D01*
X251772Y468630D02*
X256770D01*
Y471129D01*
X255937Y471962D01*
X255104D01*
X254271Y471129D01*
Y468630D01*
Y471129D01*
X253438Y471962D01*
X252605D01*
X251772Y471129D01*
Y468630D01*
X255937Y476961D02*
X252605D01*
X251772Y476128D01*
Y474461D01*
X252605Y473628D01*
X255937D01*
X256770Y474461D01*
Y476128D01*
X255104Y475294D02*
X256770Y476961D01*
Y476128D02*
X255937Y476961D01*
X256770Y478627D02*
Y480293D01*
Y479460D01*
X251772D01*
X252605Y478627D01*
M02*
