G04*
G04 #@! TF.GenerationSoftware,Altium Limited,Altium Designer,19.1.5 (86)*
G04*
G04 Layer_Color=2752767*
%FSLAX44Y44*%
%MOMM*%
G71*
G01*
G75*
%ADD98C,0.2540*%
%ADD240C,0.0508*%
%ADD241C,0.0677*%
D98*
X382500Y33020D02*
Y538480D01*
X349480Y0D02*
X382500Y33020D01*
X349480Y0D02*
X28170D01*
X230Y27940D01*
Y539750D01*
X31980Y571500D01*
X349480D02*
X31980D01*
X382500Y538480D02*
X349480Y571500D01*
D240*
X896718Y681968D02*
Y686032D01*
X900782D01*
Y681968D01*
X896718D01*
X921718D02*
Y686032D01*
X925782D01*
Y681968D01*
X921718D01*
X847118Y662568D02*
Y666632D01*
X851182D01*
Y662568D01*
X847118D01*
Y687968D02*
Y692032D01*
X851182D01*
Y687968D01*
X847118D01*
X821718D02*
Y692032D01*
X825782D01*
Y687968D01*
X821718D01*
X796618D02*
Y692032D01*
X800682D01*
Y687968D01*
X796618D01*
Y662568D02*
Y666632D01*
X800682D01*
Y662568D01*
X796618D01*
X821718D02*
Y666632D01*
X825782D01*
Y662568D01*
X821718D01*
X771978Y78968D02*
Y83032D01*
X776042D01*
Y78968D01*
X771978D01*
Y104968D02*
Y109032D01*
X776042D01*
Y104968D01*
X771978D01*
Y409968D02*
Y414032D01*
X776042D01*
Y409968D01*
X771978D01*
Y383968D02*
Y388032D01*
X776042D01*
Y383968D01*
X771978D01*
Y358968D02*
Y363032D01*
X776042D01*
Y358968D01*
X771978D01*
Y332968D02*
Y337032D01*
X776042D01*
Y332968D01*
X771978D01*
Y307968D02*
Y312032D01*
X776042D01*
Y307968D01*
X771978D01*
Y282968D02*
Y287032D01*
X776042D01*
Y282968D01*
X771978D01*
Y434968D02*
Y439032D01*
X776042D01*
Y434968D01*
X771978D01*
Y129968D02*
Y134032D01*
X776042D01*
Y129968D01*
X771978D01*
Y461968D02*
Y466032D01*
X776042D01*
Y461968D01*
X771978D01*
Y155968D02*
Y160032D01*
X776042D01*
Y155968D01*
X771978D01*
Y485968D02*
Y490032D01*
X776042D01*
Y485968D01*
X771978D01*
Y180968D02*
Y185032D01*
X776042D01*
Y180968D01*
X771978D01*
Y511968D02*
Y516032D01*
X776042D01*
Y511968D01*
X771978D01*
Y205968D02*
Y210032D01*
X776042D01*
Y205968D01*
X771978D01*
Y536968D02*
Y541032D01*
X776042D01*
Y536968D01*
X771978D01*
Y231968D02*
Y236032D01*
X776042D01*
Y231968D01*
X771978D01*
Y561968D02*
Y566032D01*
X776042D01*
Y561968D01*
X771978D01*
X987718Y78968D02*
Y83032D01*
X991782D01*
Y78968D01*
X987718D01*
Y104968D02*
Y109032D01*
X991782D01*
Y104968D01*
X987718D01*
Y409968D02*
Y414032D01*
X991782D01*
Y409968D01*
X987718D01*
Y383968D02*
Y388032D01*
X991782D01*
Y383968D01*
X987718D01*
Y358968D02*
Y363032D01*
X991782D01*
Y358968D01*
X987718D01*
Y332968D02*
Y337032D01*
X991782D01*
Y332968D01*
X987718D01*
Y307968D02*
Y312032D01*
X991782D01*
Y307968D01*
X987718D01*
Y282968D02*
Y287032D01*
X991782D01*
Y282968D01*
X987718D01*
Y434968D02*
Y439032D01*
X991782D01*
Y434968D01*
X987718D01*
Y129968D02*
Y134032D01*
X991782D01*
Y129968D01*
X987718D01*
Y461968D02*
Y466032D01*
X991782D01*
Y461968D01*
X987718D01*
Y155968D02*
Y160032D01*
X991782D01*
Y155968D01*
X987718D01*
Y485968D02*
Y490032D01*
X991782D01*
Y485968D01*
X987718D01*
Y180968D02*
Y185032D01*
X991782D01*
Y180968D01*
X987718D01*
Y511968D02*
Y516032D01*
X991782D01*
Y511968D01*
X987718D01*
Y205968D02*
Y210032D01*
X991782D01*
Y205968D01*
X987718D01*
Y536968D02*
Y541032D01*
X991782D01*
Y536968D01*
X987718D01*
Y231968D02*
Y236032D01*
X991782D01*
Y231968D01*
X987718D01*
Y561968D02*
Y566032D01*
X991782D01*
Y561968D01*
X987718D01*
Y256968D02*
Y261032D01*
X991782D01*
Y256968D01*
X987718D01*
X1203818Y659218D02*
Y663282D01*
X1207882D01*
Y659218D01*
X1203818D01*
X1228818D02*
Y663282D01*
X1232882D01*
Y659218D01*
X1228818D01*
X1253818D02*
Y663282D01*
X1257882D01*
Y659218D01*
X1253818D01*
X1279818D02*
Y663282D01*
X1283882D01*
Y659218D01*
X1279818D01*
X1302568Y265468D02*
Y269532D01*
X1306632D01*
Y265468D01*
X1302568D01*
Y570468D02*
Y574532D01*
X1306632D01*
Y570468D01*
X1302568D01*
Y240468D02*
Y244532D01*
X1306632D01*
Y240468D01*
X1302568D01*
Y545468D02*
Y549532D01*
X1306632D01*
Y545468D01*
X1302568D01*
Y214468D02*
Y218532D01*
X1306632D01*
Y214468D01*
X1302568D01*
Y520468D02*
Y524532D01*
X1306632D01*
Y520468D01*
X1302568D01*
Y189468D02*
Y193532D01*
X1306632D01*
Y189468D01*
X1302568D01*
Y494468D02*
Y498532D01*
X1306632D01*
Y494468D01*
X1302568D01*
Y164468D02*
Y168532D01*
X1306632D01*
Y164468D01*
X1302568D01*
Y470468D02*
Y474532D01*
X1306632D01*
Y470468D01*
X1302568D01*
Y138468D02*
Y142532D01*
X1306632D01*
Y138468D01*
X1302568D01*
Y443468D02*
Y447532D01*
X1306632D01*
Y443468D01*
X1302568D01*
Y291468D02*
Y295532D01*
X1306632D01*
Y291468D01*
X1302568D01*
Y316468D02*
Y320532D01*
X1306632D01*
Y316468D01*
X1302568D01*
Y341468D02*
Y345532D01*
X1306632D01*
Y341468D01*
X1302568D01*
Y367468D02*
Y371532D01*
X1306632D01*
Y367468D01*
X1302568D01*
Y392468D02*
Y396532D01*
X1306632D01*
Y392468D01*
X1302568D01*
Y418468D02*
Y422532D01*
X1306632D01*
Y418468D01*
X1302568D01*
Y113468D02*
Y117532D01*
X1306632D01*
Y113468D01*
X1302568D01*
Y87468D02*
Y91532D01*
X1306632D01*
Y87468D01*
X1302568D01*
X1086828Y570468D02*
Y574532D01*
X1090892D01*
Y570468D01*
X1086828D01*
Y240468D02*
Y244532D01*
X1090892D01*
Y240468D01*
X1086828D01*
Y545468D02*
Y549532D01*
X1090892D01*
Y545468D01*
X1086828D01*
Y214468D02*
Y218532D01*
X1090892D01*
Y214468D01*
X1086828D01*
Y520468D02*
Y524532D01*
X1090892D01*
Y520468D01*
X1086828D01*
Y189468D02*
Y193532D01*
X1090892D01*
Y189468D01*
X1086828D01*
Y494468D02*
Y498532D01*
X1090892D01*
Y494468D01*
X1086828D01*
Y164468D02*
Y168532D01*
X1090892D01*
Y164468D01*
X1086828D01*
Y470468D02*
Y474532D01*
X1090892D01*
Y470468D01*
X1086828D01*
Y138468D02*
Y142532D01*
X1090892D01*
Y138468D01*
X1086828D01*
Y443468D02*
Y447532D01*
X1090892D01*
Y443468D01*
X1086828D01*
Y291468D02*
Y295532D01*
X1090892D01*
Y291468D01*
X1086828D01*
Y316468D02*
Y320532D01*
X1090892D01*
Y316468D01*
X1086828D01*
Y341468D02*
Y345532D01*
X1090892D01*
Y341468D01*
X1086828D01*
Y367468D02*
Y371532D01*
X1090892D01*
Y367468D01*
X1086828D01*
Y392468D02*
Y396532D01*
X1090892D01*
Y392468D01*
X1086828D01*
Y418468D02*
Y422532D01*
X1090892D01*
Y418468D01*
X1086828D01*
Y113468D02*
Y117532D01*
X1090892D01*
Y113468D01*
X1086828D01*
Y87468D02*
Y91532D01*
X1090892D01*
Y87468D01*
X1086828D01*
X583750Y25468D02*
X581718Y29532D01*
X585782D01*
X583750Y25468D01*
X538750D02*
X536718Y29532D01*
X540782D01*
X538750Y25468D01*
X619750D02*
X620766Y26484D01*
X621782D01*
X620766Y27500D01*
X621782Y28516D01*
X620766D01*
X619750Y29532D01*
X618734Y28516D01*
X617718D01*
X618734Y27500D01*
X617718Y26484D01*
X618734D01*
X619750Y25468D01*
X502750D02*
X503766Y26484D01*
X504782D01*
X503766Y27500D01*
X504782Y28516D01*
X503766D01*
X502750Y29532D01*
X501734Y28516D01*
X500718D01*
X501734Y27500D01*
X500718Y26484D01*
X501734D01*
X502750Y25468D01*
X596718Y79218D02*
Y83282D01*
X600782D01*
Y79218D01*
X596718D01*
X571718D02*
Y83282D01*
X575782D01*
Y79218D01*
X571718D01*
X546718D02*
Y83282D01*
X550782D01*
Y79218D01*
X546718D01*
X520718D02*
Y83282D01*
X524782D01*
Y79218D01*
X520718D01*
X500468Y766718D02*
Y770782D01*
X504532D01*
Y766718D01*
X500468D01*
X525468D02*
Y770782D01*
X529532D01*
Y766718D01*
X525468D01*
X550468D02*
Y770782D01*
X554532D01*
Y766718D01*
X550468D01*
X576468D02*
Y770782D01*
X580532D01*
Y766718D01*
X576468D01*
X78123Y32613D02*
Y36677D01*
X82187D01*
Y32613D01*
X78123D01*
X60446Y50290D02*
Y54354D01*
X64510D01*
Y50290D01*
X60446D01*
X42768Y67968D02*
Y72032D01*
X46832D01*
Y67968D01*
X42768D01*
X24383Y86353D02*
Y90417D01*
X28447D01*
Y86353D01*
X24383D01*
X339828Y212998D02*
Y217062D01*
X343892D01*
Y212998D01*
X339828D01*
Y237998D02*
Y242062D01*
X343892D01*
Y237998D01*
X339828D01*
Y321818D02*
Y325882D01*
X343892D01*
Y321818D01*
X339828D01*
Y296718D02*
Y300782D01*
X343892D01*
Y296718D01*
X339828D01*
X314428D02*
Y300782D01*
X318492D01*
Y296718D01*
X314428D01*
Y321818D02*
Y325882D01*
X318492D01*
Y321818D01*
X314428D01*
Y347218D02*
Y351282D01*
X318492D01*
Y347218D01*
X314428D01*
X339828D02*
Y351282D01*
X343892D01*
Y347218D01*
X339828D01*
X119530Y25838D02*
X120546Y26854D01*
X121562D01*
X120546Y27870D01*
X121562Y28886D01*
X120546D01*
X119530Y29902D01*
X118514Y28886D01*
X117498D01*
X118514Y27870D01*
X117498Y26854D01*
X118514D01*
X119530Y25838D01*
X236530D02*
X237546Y26854D01*
X238562D01*
X237546Y27870D01*
X238562Y28886D01*
X237546D01*
X236530Y29902D01*
X235514Y28886D01*
X234498D01*
X235514Y27870D01*
X234498Y26854D01*
X235514D01*
X236530Y25838D01*
X155530D02*
X153498Y29902D01*
X157562D01*
X155530Y25838D01*
X200530D02*
X198498Y29902D01*
X202562D01*
X200530Y25838D01*
D241*
X943782Y482000D02*
G03*
X943782Y482000I-2032J0D01*
G01*
X883782Y586000D02*
G03*
X883782Y586000I-2032J0D01*
G01*
X923782Y504000D02*
G03*
X923782Y504000I-2032J0D01*
G01*
X899907Y611875D02*
G03*
X899907Y611875I-2032J0D01*
G01*
X925782Y340000D02*
G03*
X925782Y340000I-2032J0D01*
G01*
X913782Y358000D02*
G03*
X913782Y358000I-2032J0D01*
G01*
X957782Y394000D02*
G03*
X957782Y394000I-2032J0D01*
G01*
X945782Y382000D02*
G03*
X945782Y382000I-2032J0D01*
G01*
Y362000D02*
G03*
X945782Y362000I-2032J0D01*
G01*
X795782Y568000D02*
G03*
X795782Y568000I-2032J0D01*
G01*
Y546000D02*
G03*
X795782Y546000I-2032J0D01*
G01*
X797782Y330000D02*
G03*
X797782Y330000I-2032J0D01*
G01*
Y284000D02*
G03*
X797782Y284000I-2032J0D01*
G01*
Y260000D02*
G03*
X797782Y260000I-2032J0D01*
G01*
X769782Y258000D02*
G03*
X769782Y258000I-2032J0D01*
G01*
X969782Y170000D02*
G03*
X969782Y170000I-2032J0D01*
G01*
X961782Y146000D02*
G03*
X961782Y146000I-2032J0D01*
G01*
X957782Y234000D02*
G03*
X957782Y234000I-2032J0D01*
G01*
X927782Y250000D02*
G03*
X927782Y250000I-2032J0D01*
G01*
X953782Y262000D02*
G03*
X953782Y262000I-2032J0D01*
G01*
X941782Y216000D02*
G03*
X941782Y216000I-2032J0D01*
G01*
Y192000D02*
G03*
X941782Y192000I-2032J0D01*
G01*
X891782Y222000D02*
G03*
X891782Y222000I-2032J0D01*
G01*
Y290000D02*
G03*
X891782Y290000I-2032J0D01*
G01*
Y272000D02*
G03*
X891782Y272000I-2032J0D01*
G01*
X869782Y242000D02*
G03*
X869782Y242000I-2032J0D01*
G01*
Y272000D02*
G03*
X869782Y272000I-2032J0D01*
G01*
X859782Y300000D02*
G03*
X859782Y300000I-2032J0D01*
G01*
X843782Y266000D02*
G03*
X843782Y266000I-2032J0D01*
G01*
X837782Y188000D02*
G03*
X837782Y188000I-2032J0D01*
G01*
Y220000D02*
G03*
X837782Y220000I-2032J0D01*
G01*
Y292000D02*
G03*
X837782Y292000I-2032J0D01*
G01*
X861782Y380000D02*
G03*
X861782Y380000I-2032J0D01*
G01*
X849782Y392000D02*
G03*
X849782Y392000I-2032J0D01*
G01*
X891782Y434000D02*
G03*
X891782Y434000I-2032J0D01*
G01*
X837782Y678000D02*
G03*
X837782Y678000I-2032J0D01*
G01*
X999782Y624000D02*
G03*
X999782Y624000I-2032J0D01*
G01*
X969782D02*
G03*
X969782Y624000I-2032J0D01*
G01*
X989782Y592000D02*
G03*
X989782Y592000I-2032J0D01*
G01*
X963782Y686000D02*
G03*
X963782Y686000I-2032J0D01*
G01*
Y672000D02*
G03*
X963782Y672000I-2032J0D01*
G01*
Y658000D02*
G03*
X963782Y658000I-2032J0D01*
G01*
X929782Y636000D02*
G03*
X929782Y636000I-2032J0D01*
G01*
X915782D02*
G03*
X915782Y636000I-2032J0D01*
G01*
X887782D02*
G03*
X887782Y636000I-2032J0D01*
G01*
X939782Y578000D02*
G03*
X939782Y578000I-2032J0D01*
G01*
Y598000D02*
G03*
X939782Y598000I-2032J0D01*
G01*
X915782D02*
G03*
X915782Y598000I-2032J0D01*
G01*
X827782Y602000D02*
G03*
X827782Y602000I-2032J0D01*
G01*
X807782D02*
G03*
X807782Y602000I-2032J0D01*
G01*
Y578000D02*
G03*
X807782Y578000I-2032J0D01*
G01*
X857782Y500000D02*
G03*
X857782Y500000I-2032J0D01*
G01*
Y520000D02*
G03*
X857782Y520000I-2032J0D01*
G01*
X833782D02*
G03*
X833782Y520000I-2032J0D01*
G01*
X905782Y524000D02*
G03*
X905782Y524000I-2032J0D01*
G01*
Y544000D02*
G03*
X905782Y544000I-2032J0D01*
G01*
X881782D02*
G03*
X881782Y544000I-2032J0D01*
G01*
X901782Y468000D02*
G03*
X901782Y468000I-2032J0D01*
G01*
X921782D02*
G03*
X921782Y468000I-2032J0D01*
G01*
Y492000D02*
G03*
X921782Y492000I-2032J0D01*
G01*
X833782Y478000D02*
G03*
X833782Y478000I-2032J0D01*
G01*
Y458000D02*
G03*
X833782Y458000I-2032J0D01*
G01*
X857782D02*
G03*
X857782Y458000I-2032J0D01*
G01*
X865632Y196150D02*
G03*
X865632Y196150I-2032J0D01*
G01*
Y186150D02*
G03*
X865632Y186150I-2032J0D01*
G01*
Y176150D02*
G03*
X865632Y176150I-2032J0D01*
G01*
X877632D02*
G03*
X877632Y176150I-2032J0D01*
G01*
X889632D02*
G03*
X889632Y176150I-2032J0D01*
G01*
X797782Y88000D02*
G03*
X797782Y88000I-2032J0D01*
G01*
Y68000D02*
G03*
X797782Y68000I-2032J0D01*
G01*
X821782D02*
G03*
X821782Y68000I-2032J0D01*
G01*
X827782Y156000D02*
G03*
X827782Y156000I-2032J0D01*
G01*
X807782D02*
G03*
X807782Y156000I-2032J0D01*
G01*
Y132000D02*
G03*
X807782Y132000I-2032J0D01*
G01*
X849782Y108000D02*
G03*
X849782Y108000I-2032J0D01*
G01*
Y128000D02*
G03*
X849782Y128000I-2032J0D01*
G01*
X825782D02*
G03*
X825782Y128000I-2032J0D01*
G01*
X899032Y132500D02*
G03*
X899032Y132500I-2032J0D01*
G01*
Y152500D02*
G03*
X899032Y152500I-2032J0D01*
G01*
X875032D02*
G03*
X875032Y152500I-2032J0D01*
G01*
X937782Y110000D02*
G03*
X937782Y110000I-2032J0D01*
G01*
Y86000D02*
G03*
X937782Y86000I-2032J0D01*
G01*
X917782D02*
G03*
X917782Y86000I-2032J0D01*
G01*
X869782Y488000D02*
G03*
X869782Y488000I-2032J0D01*
G01*
X861782Y210000D02*
G03*
X861782Y210000I-2032J0D01*
G01*
X833782Y202000D02*
G03*
X833782Y202000I-2032J0D01*
G01*
X965782Y240000D02*
G03*
X965782Y240000I-2032J0D01*
G01*
Y216000D02*
G03*
X965782Y216000I-2032J0D01*
G01*
X959782Y590000D02*
G03*
X959782Y590000I-2032J0D01*
G01*
X794705Y501077D02*
G03*
X794705Y501077I-2032J0D01*
G01*
X797782Y214000D02*
G03*
X797782Y214000I-2032J0D01*
G01*
X895782Y424000D02*
G03*
X895782Y424000I-2032J0D01*
G01*
X797782Y226000D02*
G03*
X797782Y226000I-2032J0D01*
G01*
X815782Y516000D02*
G03*
X815782Y516000I-2032J0D01*
G01*
X941782Y398000D02*
G03*
X941782Y398000I-2032J0D01*
G01*
X955782Y362000D02*
G03*
X955782Y362000I-2032J0D01*
G01*
X927782Y308000D02*
G03*
X927782Y308000I-2032J0D01*
G01*
X921782Y368000D02*
G03*
X921782Y368000I-2032J0D01*
G01*
X863782D02*
G03*
X863782Y368000I-2032J0D01*
G01*
X815782Y428000D02*
G03*
X815782Y428000I-2032J0D01*
G01*
X839782Y412000D02*
G03*
X839782Y412000I-2032J0D01*
G01*
X891782Y240000D02*
G03*
X891782Y240000I-2032J0D01*
G01*
X831782Y252000D02*
G03*
X831782Y252000I-2032J0D01*
G01*
X925782Y214000D02*
G03*
X925782Y214000I-2032J0D01*
G01*
X891782Y252000D02*
G03*
X891782Y252000I-2032J0D01*
G01*
X831782Y264000D02*
G03*
X831782Y264000I-2032J0D01*
G01*
X1152882Y337500D02*
G03*
X1152882Y337500I-2032J0D01*
G01*
X1226632Y298750D02*
G03*
X1226632Y298750I-2032J0D01*
G01*
X1232882Y290000D02*
G03*
X1232882Y290000I-2032J0D01*
G01*
X1157882Y208750D02*
G03*
X1157882Y208750I-2032J0D01*
G01*
X1177882Y113750D02*
G03*
X1177882Y113750I-2032J0D01*
G01*
X1280382Y311250D02*
G03*
X1280382Y311250I-2032J0D01*
G01*
X1265382Y352500D02*
G03*
X1265382Y352500I-2032J0D01*
G01*
X1285382Y568750D02*
G03*
X1285382Y568750I-2032J0D01*
G01*
X1269132Y587500D02*
G03*
X1269132Y587500I-2032J0D01*
G01*
X1165382Y607500D02*
G03*
X1165382Y607500I-2032J0D01*
G01*
X1192882Y608750D02*
G03*
X1192882Y608750I-2032J0D01*
G01*
X1221632Y603750D02*
G03*
X1221632Y603750I-2032J0D01*
G01*
X1234132Y580000D02*
G03*
X1234132Y580000I-2032J0D01*
G01*
X1230382Y481250D02*
G03*
X1230382Y481250I-2032J0D01*
G01*
X1225382Y525000D02*
G03*
X1225382Y525000I-2032J0D01*
G01*
X1189132Y491250D02*
G03*
X1189132Y491250I-2032J0D01*
G01*
X1135382Y521250D02*
G03*
X1135382Y521250I-2032J0D01*
G01*
X1165382Y508750D02*
G03*
X1165382Y508750I-2032J0D01*
G01*
X1152882Y456250D02*
G03*
X1152882Y456250I-2032J0D01*
G01*
X1235382Y370000D02*
G03*
X1235382Y370000I-2032J0D01*
G01*
X1212882Y345000D02*
G03*
X1212882Y345000I-2032J0D01*
G01*
X1186632Y272500D02*
G03*
X1186632Y272500I-2032J0D01*
G01*
X1127882Y212500D02*
G03*
X1127882Y212500I-2032J0D01*
G01*
X1151632Y146250D02*
G03*
X1151632Y146250I-2032J0D01*
G01*
X1189132Y161250D02*
G03*
X1189132Y161250I-2032J0D01*
G01*
X1211632Y170000D02*
G03*
X1211632Y170000I-2032J0D01*
G01*
X1241632Y232500D02*
G03*
X1241632Y232500I-2032J0D01*
G01*
Y127500D02*
G03*
X1241632Y127500I-2032J0D01*
G01*
X1234132Y598750D02*
G03*
X1234132Y598750I-2032J0D01*
G01*
X1150382Y583750D02*
G03*
X1150382Y583750I-2032J0D01*
G01*
X1146795Y275170D02*
G03*
X1146795Y275170I-2032J0D01*
G01*
X1146632Y266250D02*
G03*
X1146632Y266250I-2032J0D01*
G01*
X1204132Y558750D02*
G03*
X1204132Y558750I-2032J0D01*
G01*
X1279132Y387500D02*
G03*
X1279132Y387500I-2032J0D01*
G01*
X1235382Y346250D02*
G03*
X1235382Y346250I-2032J0D01*
G01*
X1165382Y300000D02*
G03*
X1165382Y300000I-2032J0D01*
G01*
X1124132Y333750D02*
G03*
X1124132Y333750I-2032J0D01*
G01*
X1110382Y296250D02*
G03*
X1110382Y296250I-2032J0D01*
G01*
X1171632Y282500D02*
G03*
X1171632Y282500I-2032J0D01*
G01*
X1191632Y287500D02*
G03*
X1191632Y287500I-2032J0D01*
G01*
X1279132Y376250D02*
G03*
X1279132Y376250I-2032J0D01*
G01*
X1157882Y277500D02*
G03*
X1157882Y277500I-2032J0D01*
G01*
X1141632Y91250D02*
G03*
X1141632Y91250I-2032J0D01*
G01*
X1240382D02*
G03*
X1240382Y91250I-2032J0D01*
G01*
X1247882Y596250D02*
G03*
X1247882Y596250I-2032J0D01*
G01*
X1197882Y527500D02*
G03*
X1197882Y527500I-2032J0D01*
G01*
X1171632Y453750D02*
G03*
X1171632Y453750I-2032J0D01*
G01*
X1184132Y302500D02*
G03*
X1184132Y302500I-2032J0D01*
G01*
X1136632Y502500D02*
G03*
X1136632Y502500I-2032J0D01*
G01*
X1129132Y482500D02*
G03*
X1129132Y482500I-2032J0D01*
G01*
X1170382Y267500D02*
G03*
X1170382Y267500I-2032J0D01*
G01*
X1164132Y257500D02*
G03*
X1164132Y257500I-2032J0D01*
G01*
X1205382Y453750D02*
G03*
X1205382Y453750I-2032J0D01*
G01*
X1266632Y516250D02*
G03*
X1266632Y516250I-2032J0D01*
G01*
X1194132Y307500D02*
G03*
X1194132Y307500I-2032J0D01*
G01*
X1129132Y410000D02*
G03*
X1129132Y410000I-2032J0D01*
G01*
X1159132Y307500D02*
G03*
X1159132Y307500I-2032J0D01*
G01*
X555032Y735000D02*
G03*
X555032Y735000I-2032J0D01*
G01*
X645680Y120101D02*
G03*
X645680Y120101I-2032J0D01*
G01*
X475782Y517500D02*
G03*
X475782Y517500I-2032J0D01*
G01*
X497035Y581875D02*
G03*
X497035Y581875I-2032J0D01*
G01*
X574824Y614709D02*
G03*
X574824Y614709I-2032J0D01*
G01*
X507782Y721250D02*
G03*
X507782Y721250I-2032J0D01*
G01*
X450782Y398750D02*
G03*
X450782Y398750I-2032J0D01*
G01*
X468282Y532500D02*
G03*
X468282Y532500I-2032J0D01*
G01*
X420782Y550000D02*
G03*
X420782Y550000I-2032J0D01*
G01*
X565782Y121250D02*
G03*
X565782Y121250I-2032J0D01*
G01*
X567032Y151250D02*
G03*
X567032Y151250I-2032J0D01*
G01*
X572032Y242500D02*
G03*
X572032Y242500I-2032J0D01*
G01*
X592032Y261250D02*
G03*
X592032Y261250I-2032J0D01*
G01*
X613282Y285000D02*
G03*
X613282Y285000I-2032J0D01*
G01*
X645782Y317500D02*
G03*
X645782Y317500I-2032J0D01*
G01*
X583282Y548750D02*
G03*
X583282Y548750I-2032J0D01*
G01*
X598282Y533750D02*
G03*
X598282Y533750I-2032J0D01*
G01*
X613282Y517500D02*
G03*
X613282Y517500I-2032J0D01*
G01*
X492032Y716250D02*
G03*
X492032Y716250I-2032J0D01*
G01*
X462032Y620000D02*
G03*
X462032Y620000I-2032J0D01*
G01*
X494532Y600000D02*
G03*
X494532Y600000I-2032J0D01*
G01*
X527032Y592500D02*
G03*
X527032Y592500I-2032J0D01*
G01*
X507032Y557500D02*
G03*
X507032Y557500I-2032J0D01*
G01*
X485782Y663750D02*
G03*
X485782Y663750I-2032J0D01*
G01*
X555782Y672500D02*
G03*
X555782Y672500I-2032J0D01*
G01*
X455782Y462500D02*
G03*
X455782Y462500I-2032J0D01*
G01*
X488282Y478750D02*
G03*
X488282Y478750I-2032J0D01*
G01*
X462032Y290000D02*
G03*
X462032Y290000I-2032J0D01*
G01*
X482032Y312500D02*
G03*
X482032Y312500I-2032J0D01*
G01*
X462032Y311250D02*
G03*
X462032Y311250I-2032J0D01*
G01*
Y333750D02*
G03*
X462032Y333750I-2032J0D01*
G01*
X482032D02*
G03*
X482032Y333750I-2032J0D01*
G01*
X502032D02*
G03*
X502032Y333750I-2032J0D01*
G01*
X527032Y373750D02*
G03*
X527032Y373750I-2032J0D01*
G01*
X550782D02*
G03*
X550782Y373750I-2032J0D01*
G01*
X573282D02*
G03*
X573282Y373750I-2032J0D01*
G01*
X542032Y503750D02*
G03*
X542032Y503750I-2032J0D01*
G01*
X594532Y468750D02*
G03*
X594532Y468750I-2032J0D01*
G01*
X613282Y481250D02*
G03*
X613282Y481250I-2032J0D01*
G01*
Y457500D02*
G03*
X613282Y457500I-2032J0D01*
G01*
Y437500D02*
G03*
X613282Y437500I-2032J0D01*
G01*
Y416250D02*
G03*
X613282Y416250I-2032J0D01*
G01*
X614532Y393750D02*
G03*
X614532Y393750I-2032J0D01*
G01*
Y370000D02*
G03*
X614532Y370000I-2032J0D01*
G01*
X647032Y482500D02*
G03*
X647032Y482500I-2032J0D01*
G01*
Y460000D02*
G03*
X647032Y460000I-2032J0D01*
G01*
Y435000D02*
G03*
X647032Y435000I-2032J0D01*
G01*
Y411250D02*
G03*
X647032Y411250I-2032J0D01*
G01*
X647032Y387500D02*
G03*
X647032Y387500I-2032J0D01*
G01*
Y363750D02*
G03*
X647032Y363750I-2032J0D01*
G01*
X487032Y730000D02*
G03*
X487032Y730000I-2032J0D01*
G01*
X467032D02*
G03*
X467032Y730000I-2032J0D01*
G01*
X447032D02*
G03*
X447032Y730000I-2032J0D01*
G01*
Y707500D02*
G03*
X447032Y707500I-2032J0D01*
G01*
X467032Y708750D02*
G03*
X467032Y708750I-2032J0D01*
G01*
X447032Y686250D02*
G03*
X447032Y686250I-2032J0D01*
G01*
X449532Y498750D02*
G03*
X449532Y498750I-2032J0D01*
G01*
X429532D02*
G03*
X429532Y498750I-2032J0D01*
G01*
X412032Y481250D02*
G03*
X412032Y481250I-2032J0D01*
G01*
Y458750D02*
G03*
X412032Y458750I-2032J0D01*
G01*
X429532Y477500D02*
G03*
X429532Y477500I-2032J0D01*
G01*
X412032Y437500D02*
G03*
X412032Y437500I-2032J0D01*
G01*
X637100Y586031D02*
G03*
X637100Y586031I-2032J0D01*
G01*
X650782Y570000D02*
G03*
X650782Y570000I-2032J0D01*
G01*
X670782D02*
G03*
X670782Y570000I-2032J0D01*
G01*
X690782D02*
G03*
X690782Y570000I-2032J0D01*
G01*
Y547500D02*
G03*
X690782Y547500I-2032J0D01*
G01*
X670782Y548750D02*
G03*
X670782Y548750I-2032J0D01*
G01*
X690782Y526250D02*
G03*
X690782Y526250I-2032J0D01*
G01*
X488282Y260000D02*
G03*
X488282Y260000I-2032J0D01*
G01*
X468282D02*
G03*
X468282Y260000I-2032J0D01*
G01*
X448282D02*
G03*
X448282Y260000I-2032J0D01*
G01*
Y237500D02*
G03*
X448282Y237500I-2032J0D01*
G01*
X468282Y238750D02*
G03*
X468282Y238750I-2032J0D01*
G01*
X448282Y216250D02*
G03*
X448282Y216250I-2032J0D01*
G01*
X415782Y217500D02*
G03*
X415782Y217500I-2032J0D01*
G01*
X435782Y195000D02*
G03*
X435782Y195000I-2032J0D01*
G01*
X415782Y196250D02*
G03*
X415782Y196250I-2032J0D01*
G01*
Y173750D02*
G03*
X415782Y173750I-2032J0D01*
G01*
X435782D02*
G03*
X435782Y173750I-2032J0D01*
G01*
X455782D02*
G03*
X455782Y173750I-2032J0D01*
G01*
X540782Y132500D02*
G03*
X540782Y132500I-2032J0D01*
G01*
X569032Y655000D02*
G03*
X569032Y655000I-2032J0D01*
G01*
X457032Y412500D02*
G03*
X457032Y412500I-2032J0D01*
G01*
X540782Y583750D02*
G03*
X540782Y583750I-2032J0D01*
G01*
Y600000D02*
G03*
X540782Y600000I-2032J0D01*
G01*
X543014Y567350D02*
G03*
X543014Y567350I-2032J0D01*
G01*
X553282Y641257D02*
G03*
X553282Y641257I-2032J0D01*
G01*
X614532Y347500D02*
G03*
X614532Y347500I-2032J0D01*
G01*
X539532Y644500D02*
G03*
X539532Y644500I-2032J0D01*
G01*
X455782Y586250D02*
G03*
X455782Y586250I-2032J0D01*
G01*
X498275Y136253D02*
G03*
X498275Y136253I-2032J0D01*
G01*
X515782Y148750D02*
G03*
X515782Y148750I-2032J0D01*
G01*
X487032D02*
G03*
X487032Y148750I-2032J0D01*
G01*
X162832Y70000D02*
G03*
X162832Y70000I-2032J0D01*
G01*
X226832Y74000D02*
G03*
X226832Y74000I-2032J0D01*
G01*
X298832Y554000D02*
G03*
X298832Y554000I-2032J0D01*
G01*
X348832Y528000D02*
G03*
X348832Y528000I-2032J0D01*
G01*
X304832Y450000D02*
G03*
X304832Y450000I-2032J0D01*
G01*
X306832Y408000D02*
G03*
X306832Y408000I-2032J0D01*
G01*
X301982Y26670D02*
G03*
X301982Y26670I-2032J0D01*
G01*
X84812Y356870D02*
G03*
X84812Y356870I-2032J0D01*
G01*
X110212Y485140D02*
G03*
X110212Y485140I-2032J0D01*
G01*
X112752Y433070D02*
G03*
X112752Y433070I-2032J0D01*
G01*
X121642Y346710D02*
G03*
X121642Y346710I-2032J0D01*
G01*
X102592Y361950D02*
G03*
X102592Y361950I-2032J0D01*
G01*
X112752Y391160D02*
G03*
X112752Y391160I-2032J0D01*
G01*
X115292Y407670D02*
G03*
X115292Y407670I-2032J0D01*
G01*
X214352Y458470D02*
G03*
X214352Y458470I-2032J0D01*
G01*
X213082Y402590D02*
G03*
X213082Y402590I-2032J0D01*
G01*
X197842Y382270D02*
G03*
X197842Y382270I-2032J0D01*
G01*
X178792Y374650D02*
G03*
X178792Y374650I-2032J0D01*
G01*
X172442Y440690D02*
G03*
X172442Y440690I-2032J0D01*
G01*
X154662Y384810D02*
G03*
X154662Y384810I-2032J0D01*
G01*
X158472Y424180D02*
G03*
X158472Y424180I-2032J0D01*
G01*
X169902Y401320D02*
G03*
X169902Y401320I-2032J0D01*
G01*
X155932Y459740D02*
G03*
X155932Y459740I-2032J0D01*
G01*
X166092Y513080D02*
G03*
X166092Y513080I-2032J0D01*
G01*
X186412Y529590D02*
G03*
X186412Y529590I-2032J0D01*
G01*
X318492Y278130D02*
G03*
X318492Y278130I-2032J0D01*
G01*
X327382Y168910D02*
G03*
X327382Y168910I-2032J0D01*
G01*
X280392Y271780D02*
G03*
X280392Y271780I-2032J0D01*
G01*
X282932Y234950D02*
G03*
X282932Y234950I-2032J0D01*
G01*
X284202Y204470D02*
G03*
X284202Y204470I-2032J0D01*
G01*
X152122Y224790D02*
G03*
X152122Y224790I-2032J0D01*
G01*
X163552Y213360D02*
G03*
X163552Y213360I-2032J0D01*
G01*
X174982Y200660D02*
G03*
X174982Y200660I-2032J0D01*
G01*
X186412Y187960D02*
G03*
X186412Y187960I-2032J0D01*
G01*
X197842Y175260D02*
G03*
X197842Y175260I-2032J0D01*
G01*
X210542Y161290D02*
G03*
X210542Y161290I-2032J0D01*
G01*
X86082Y303530D02*
G03*
X86082Y303530I-2032J0D01*
G01*
Y255270D02*
G03*
X86082Y255270I-2032J0D01*
G01*
X87352Y224790D02*
G03*
X87352Y224790I-2032J0D01*
G01*
X92432Y207010D02*
G03*
X92432Y207010I-2032J0D01*
G01*
X64492Y149860D02*
G03*
X64492Y149860I-2032J0D01*
G01*
X80832Y112000D02*
G03*
X80832Y112000I-2032J0D01*
G01*
X97512Y71120D02*
G03*
X97512Y71120I-2032J0D01*
G01*
X115292Y72390D02*
G03*
X115292Y72390I-2032J0D01*
G01*
X153392D02*
G03*
X153392Y72390I-2032J0D01*
G01*
X180062Y73660D02*
G03*
X180062Y73660I-2032J0D01*
G01*
Y121920D02*
G03*
X180062Y121920I-2032J0D01*
G01*
X200382Y123190D02*
G03*
X200382Y123190I-2032J0D01*
G01*
X232132Y138430D02*
G03*
X232132Y138430I-2032J0D01*
G01*
X290552D02*
G03*
X290552Y138430I-2032J0D01*
G01*
X252452Y102870D02*
G03*
X252452Y102870I-2032J0D01*
G01*
X94972Y290830D02*
G03*
X94972Y290830I-2032J0D01*
G01*
X97512Y264160D02*
G03*
X97512Y264160I-2032J0D01*
G01*
X258802Y267970D02*
G03*
X258802Y267970I-2032J0D01*
G01*
X108307Y465455D02*
G03*
X108307Y465455I-2032J0D01*
G01*
X108942Y453390D02*
G03*
X108942Y453390I-2032J0D01*
G01*
X41632Y458470D02*
G03*
X41632Y458470I-2032J0D01*
G01*
X51792Y467360D02*
G03*
X51792Y467360I-2032J0D01*
G01*
X67032Y500380D02*
G03*
X67032Y500380I-2032J0D01*
G01*
X139422Y91440D02*
G03*
X139422Y91440I-2032J0D01*
G01*
X154662Y105410D02*
G03*
X154662Y105410I-2032J0D01*
G01*
X215622Y125730D02*
G03*
X215622Y125730I-2032J0D01*
G01*
X256262Y340360D02*
G03*
X256262Y340360I-2032J0D01*
G01*
X164822Y391160D02*
G03*
X164822Y391160I-2032J0D01*
G01*
X201652Y466090D02*
G03*
X201652Y466090I-2032J0D01*
G01*
X286742Y218440D02*
G03*
X286742Y218440I-2032J0D01*
G01*
X191492Y350520D02*
G03*
X191492Y350520I-2032J0D01*
G01*
X244832Y283210D02*
G03*
X244832Y283210I-2032J0D01*
G01*
X155932Y284480D02*
G03*
X155932Y284480I-2032J0D01*
G01*
X166092Y328930D02*
G03*
X166092Y328930I-2032J0D01*
G01*
X200382Y414020D02*
G03*
X200382Y414020I-2032J0D01*
G01*
X202922Y433070D02*
G03*
X202922Y433070I-2032J0D01*
G01*
X274042Y427990D02*
G03*
X274042Y427990I-2032J0D01*
G01*
X103862Y502920D02*
G03*
X103862Y502920I-2032J0D01*
G01*
X188952Y129540D02*
G03*
X188952Y129540I-2032J0D01*
G01*
M02*
