G04*
G04 #@! TF.GenerationSoftware,Altium Limited,Altium Designer,19.1.5 (86)*
G04*
G04 Layer_Color=16711935*
%FSLAX44Y44*%
%MOMM*%
G71*
G01*
G75*
%ADD64C,1.1000*%
%ADD65O,1.3000X3.2000*%
G04:AMPARAMS|DCode=140|XSize=5.2032mm|YSize=1.7032mm|CornerRadius=0mm|HoleSize=0mm|Usage=FLASHONLY|Rotation=135.000|XOffset=0mm|YOffset=0mm|HoleType=Round|Shape=Round|*
%AMOVALD140*
21,1,3.5000,1.7032,0.0000,0.0000,135.0*
1,1,1.7032,1.2374,-1.2374*
1,1,1.7032,-1.2374,1.2374*
%
%ADD140OVALD140*%

G04:AMPARAMS|DCode=141|XSize=2.7032mm|YSize=1.2032mm|CornerRadius=0mm|HoleSize=0mm|Usage=FLASHONLY|Rotation=135.000|XOffset=0mm|YOffset=0mm|HoleType=Round|Shape=Round|*
%AMOVALD141*
21,1,1.5000,1.2032,0.0000,0.0000,135.0*
1,1,1.2032,0.5303,-0.5303*
1,1,1.2032,-0.5303,0.5303*
%
%ADD141OVALD141*%

G04:AMPARAMS|DCode=142|XSize=2.2032mm|YSize=1.2032mm|CornerRadius=0mm|HoleSize=0mm|Usage=FLASHONLY|Rotation=135.000|XOffset=0mm|YOffset=0mm|HoleType=Round|Shape=Round|*
%AMOVALD142*
21,1,1.0000,1.2032,0.0000,0.0000,135.0*
1,1,1.2032,0.3536,-0.3536*
1,1,1.2032,-0.3536,0.3536*
%
%ADD142OVALD142*%

%ADD143O,2.7032X1.7032*%
G04:AMPARAMS|DCode=144|XSize=2.2032mm|YSize=1.2032mm|CornerRadius=0mm|HoleSize=0mm|Usage=FLASHONLY|Rotation=45.000|XOffset=0mm|YOffset=0mm|HoleType=Round|Shape=Round|*
%AMOVALD144*
21,1,1.0000,1.2032,0.0000,0.0000,45.0*
1,1,1.2032,-0.3536,-0.3536*
1,1,1.2032,0.3536,0.3536*
%
%ADD144OVALD144*%

%ADD145O,1.2032X2.2032*%
%ADD146O,10.2032X1.7032*%
G04:AMPARAMS|DCode=147|XSize=3.2032mm|YSize=1.7032mm|CornerRadius=0mm|HoleSize=0mm|Usage=FLASHONLY|Rotation=135.000|XOffset=0mm|YOffset=0mm|HoleType=Round|Shape=Round|*
%AMOVALD147*
21,1,1.5000,1.7032,0.0000,0.0000,135.0*
1,1,1.7032,0.5303,-0.5303*
1,1,1.7032,-0.5303,0.5303*
%
%ADD147OVALD147*%

G04:AMPARAMS|DCode=148|XSize=5.2032mm|YSize=1.7032mm|CornerRadius=0mm|HoleSize=0mm|Usage=FLASHONLY|Rotation=45.000|XOffset=0mm|YOffset=0mm|HoleType=Round|Shape=Round|*
%AMOVALD148*
21,1,3.5000,1.7032,0.0000,0.0000,45.0*
1,1,1.7032,-1.2374,-1.2374*
1,1,1.7032,1.2374,1.2374*
%
%ADD148OVALD148*%

G04:AMPARAMS|DCode=149|XSize=1.7032mm|YSize=1.2032mm|CornerRadius=0mm|HoleSize=0mm|Usage=FLASHONLY|Rotation=45.000|XOffset=0mm|YOffset=0mm|HoleType=Round|Shape=Round|*
%AMOVALD149*
21,1,0.5000,1.2032,0.0000,0.0000,45.0*
1,1,1.2032,-0.1768,-0.1768*
1,1,1.2032,0.1768,0.1768*
%
%ADD149OVALD149*%

G04:AMPARAMS|DCode=150|XSize=4.8032mm|YSize=1.2032mm|CornerRadius=0mm|HoleSize=0mm|Usage=FLASHONLY|Rotation=315.000|XOffset=0mm|YOffset=0mm|HoleType=Round|Shape=Round|*
%AMOVALD150*
21,1,3.6000,1.2032,0.0000,0.0000,315.0*
1,1,1.2032,-1.2728,1.2728*
1,1,1.2032,1.2728,-1.2728*
%
%ADD150OVALD150*%

G04:AMPARAMS|DCode=151|XSize=3.2032mm|YSize=1.2032mm|CornerRadius=0mm|HoleSize=0mm|Usage=FLASHONLY|Rotation=135.000|XOffset=0mm|YOffset=0mm|HoleType=Round|Shape=Round|*
%AMOVALD151*
21,1,2.0000,1.2032,0.0000,0.0000,135.0*
1,1,1.2032,0.7071,-0.7071*
1,1,1.2032,-0.7071,0.7071*
%
%ADD151OVALD151*%

G04:AMPARAMS|DCode=152|XSize=4.2032mm|YSize=1.7032mm|CornerRadius=0mm|HoleSize=0mm|Usage=FLASHONLY|Rotation=45.000|XOffset=0mm|YOffset=0mm|HoleType=Round|Shape=Round|*
%AMOVALD152*
21,1,2.5000,1.7032,0.0000,0.0000,45.0*
1,1,1.7032,-0.8839,-0.8839*
1,1,1.7032,0.8839,0.8839*
%
%ADD152OVALD152*%

%ADD153O,9.2032X1.7032*%
%ADD154O,1.7032X9.2032*%
%ADD155O,1.7032X7.2032*%
%ADD156O,1.2032X9.2032*%
G04:AMPARAMS|DCode=157|XSize=3.2032mm|YSize=1.2032mm|CornerRadius=0mm|HoleSize=0mm|Usage=FLASHONLY|Rotation=45.000|XOffset=0mm|YOffset=0mm|HoleType=Round|Shape=Round|*
%AMOVALD157*
21,1,2.0000,1.2032,0.0000,0.0000,45.0*
1,1,1.2032,-0.7071,-0.7071*
1,1,1.2032,0.7071,0.7071*
%
%ADD157OVALD157*%

G04:AMPARAMS|DCode=158|XSize=3.7032mm|YSize=1.7032mm|CornerRadius=0mm|HoleSize=0mm|Usage=FLASHONLY|Rotation=45.000|XOffset=0mm|YOffset=0mm|HoleType=Round|Shape=Round|*
%AMOVALD158*
21,1,2.0000,1.7032,0.0000,0.0000,45.0*
1,1,1.7032,-0.7071,-0.7071*
1,1,1.7032,0.7071,0.7071*
%
%ADD158OVALD158*%

%ADD159R,2.0032X2.0032*%
%ADD160C,2.0032*%
%ADD161R,2.1400X2.1400*%
%ADD162C,2.1400*%
%ADD163R,1.7032X1.7032*%
%ADD164C,1.7032*%
%ADD165C,0.8032*%
%ADD166R,2.0032X2.0032*%
%ADD167P,2.8330X4X180.0*%
%ADD168R,2.1400X2.1400*%
%ADD169R,1.7032X1.7032*%
D64*
X583750Y27500D02*
D03*
X538750D02*
D03*
X155530Y27870D02*
D03*
X200530D02*
D03*
D65*
X619750Y27500D02*
D03*
X502750D02*
D03*
X119530Y27870D02*
D03*
X236530D02*
D03*
D140*
X1318750Y730000D02*
D03*
D141*
X703750Y796250D02*
D03*
D142*
X722500Y777500D02*
D03*
X738750Y13750D02*
D03*
D143*
X772500Y782500D02*
D03*
D144*
X746250Y775000D02*
D03*
X711250Y15000D02*
D03*
D145*
X730000Y756250D02*
D03*
X1031250Y28750D02*
D03*
D146*
X842500Y782500D02*
D03*
X951250D02*
D03*
D147*
X1026250Y773750D02*
D03*
X362500Y566250D02*
D03*
D148*
X1066250Y730000D02*
D03*
D149*
X1022500Y8750D02*
D03*
D150*
X1058750Y21250D02*
D03*
D151*
X403750Y17500D02*
D03*
D152*
X402500Y787500D02*
D03*
D153*
X1243750Y746250D02*
D03*
X1138750D02*
D03*
X86250Y580000D02*
D03*
X191250D02*
D03*
X295000D02*
D03*
D154*
X1036250Y706250D02*
D03*
Y595000D02*
D03*
Y488750D02*
D03*
Y381250D02*
D03*
Y273750D02*
D03*
Y166250D02*
D03*
X385000Y718750D02*
D03*
Y616250D02*
D03*
D155*
X1036250Y78750D02*
D03*
D156*
X730000Y695000D02*
D03*
Y592500D02*
D03*
Y487500D02*
D03*
Y383750D02*
D03*
Y280000D02*
D03*
Y176250D02*
D03*
Y71250D02*
D03*
X386250Y503750D02*
D03*
Y395000D02*
D03*
Y288750D02*
D03*
Y182500D02*
D03*
Y77500D02*
D03*
D157*
X366250Y17500D02*
D03*
D158*
X17500Y566250D02*
D03*
D159*
X774010Y564000D02*
D03*
X989750D02*
D03*
X1304600Y572500D02*
D03*
X1088860D02*
D03*
D160*
X774010Y234000D02*
D03*
Y539000D02*
D03*
Y208000D02*
D03*
Y514000D02*
D03*
Y183000D02*
D03*
Y488000D02*
D03*
Y158000D02*
D03*
Y464000D02*
D03*
Y132000D02*
D03*
Y437000D02*
D03*
Y285000D02*
D03*
Y310000D02*
D03*
Y335000D02*
D03*
Y361000D02*
D03*
Y386000D02*
D03*
Y412000D02*
D03*
Y107000D02*
D03*
Y81000D02*
D03*
X989750D02*
D03*
Y107000D02*
D03*
Y412000D02*
D03*
Y386000D02*
D03*
Y361000D02*
D03*
Y335000D02*
D03*
Y310000D02*
D03*
Y285000D02*
D03*
Y437000D02*
D03*
Y132000D02*
D03*
Y464000D02*
D03*
Y158000D02*
D03*
Y488000D02*
D03*
Y183000D02*
D03*
Y514000D02*
D03*
Y208000D02*
D03*
Y539000D02*
D03*
Y234000D02*
D03*
Y259000D02*
D03*
X1230850Y661250D02*
D03*
X1255850D02*
D03*
X1281850D02*
D03*
X1304600Y267500D02*
D03*
Y242500D02*
D03*
Y547500D02*
D03*
Y216500D02*
D03*
Y522500D02*
D03*
Y191500D02*
D03*
Y496500D02*
D03*
Y166500D02*
D03*
Y472500D02*
D03*
Y140500D02*
D03*
Y445500D02*
D03*
Y293500D02*
D03*
Y318500D02*
D03*
Y343500D02*
D03*
Y369500D02*
D03*
Y394500D02*
D03*
Y420500D02*
D03*
Y115500D02*
D03*
Y89500D02*
D03*
X1088860Y242500D02*
D03*
Y547500D02*
D03*
Y216500D02*
D03*
Y522500D02*
D03*
Y191500D02*
D03*
Y496500D02*
D03*
Y166500D02*
D03*
Y472500D02*
D03*
Y140500D02*
D03*
Y445500D02*
D03*
Y293500D02*
D03*
Y318500D02*
D03*
Y343500D02*
D03*
Y369500D02*
D03*
Y394500D02*
D03*
Y420500D02*
D03*
Y115500D02*
D03*
Y89500D02*
D03*
X573750Y81250D02*
D03*
X548750D02*
D03*
X522750D02*
D03*
X527500Y768750D02*
D03*
X552500D02*
D03*
X578500D02*
D03*
X62478Y52322D02*
D03*
X44800Y70000D02*
D03*
X26415Y88385D02*
D03*
D161*
X898750Y684000D02*
D03*
D162*
X923750D02*
D03*
X341860Y215030D02*
D03*
D163*
X849150Y664600D02*
D03*
D164*
Y690000D02*
D03*
X823750D02*
D03*
X798650D02*
D03*
Y664600D02*
D03*
X823750D02*
D03*
X341860Y323850D02*
D03*
Y298750D02*
D03*
X316460D02*
D03*
Y323850D02*
D03*
Y349250D02*
D03*
D165*
X941750Y482000D02*
D03*
X881750Y586000D02*
D03*
X921750Y504000D02*
D03*
X897875Y611875D02*
D03*
X923750Y340000D02*
D03*
X911750Y358000D02*
D03*
X955750Y394000D02*
D03*
X943750Y382000D02*
D03*
Y362000D02*
D03*
X793750Y568000D02*
D03*
Y546000D02*
D03*
X795750Y330000D02*
D03*
Y284000D02*
D03*
Y260000D02*
D03*
X767750Y258000D02*
D03*
X967750Y170000D02*
D03*
X959750Y146000D02*
D03*
X955750Y234000D02*
D03*
X925750Y250000D02*
D03*
X951750Y262000D02*
D03*
X939750Y216000D02*
D03*
Y192000D02*
D03*
X889750Y222000D02*
D03*
Y290000D02*
D03*
Y272000D02*
D03*
X867750Y242000D02*
D03*
Y272000D02*
D03*
X857750Y300000D02*
D03*
X841750Y266000D02*
D03*
X835750Y188000D02*
D03*
Y220000D02*
D03*
Y292000D02*
D03*
X859750Y380000D02*
D03*
X847750Y392000D02*
D03*
X889750Y434000D02*
D03*
X835750Y678000D02*
D03*
X997750Y624000D02*
D03*
X967750D02*
D03*
X987750Y592000D02*
D03*
X961750Y686000D02*
D03*
Y672000D02*
D03*
Y658000D02*
D03*
X927750Y636000D02*
D03*
X913750D02*
D03*
X885750D02*
D03*
X937750Y578000D02*
D03*
Y598000D02*
D03*
X913750D02*
D03*
X825750Y602000D02*
D03*
X805750D02*
D03*
Y578000D02*
D03*
X855750Y500000D02*
D03*
Y520000D02*
D03*
X831750D02*
D03*
X903750Y524000D02*
D03*
Y544000D02*
D03*
X879750D02*
D03*
X899750Y468000D02*
D03*
X919750D02*
D03*
Y492000D02*
D03*
X831750Y478000D02*
D03*
Y458000D02*
D03*
X855750D02*
D03*
X863600Y196150D02*
D03*
Y186150D02*
D03*
Y176150D02*
D03*
X875600D02*
D03*
X887600D02*
D03*
X795750Y88000D02*
D03*
Y68000D02*
D03*
X819750D02*
D03*
X825750Y156000D02*
D03*
X805750D02*
D03*
Y132000D02*
D03*
X847750Y108000D02*
D03*
Y128000D02*
D03*
X823750D02*
D03*
X897000Y132500D02*
D03*
Y152500D02*
D03*
X873000D02*
D03*
X935750Y110000D02*
D03*
Y86000D02*
D03*
X915750D02*
D03*
X867750Y488000D02*
D03*
X859750Y210000D02*
D03*
X831750Y202000D02*
D03*
X963750Y240000D02*
D03*
Y216000D02*
D03*
X957750Y590000D02*
D03*
X792673Y501077D02*
D03*
X795750Y214000D02*
D03*
X893750Y424000D02*
D03*
X795750Y226000D02*
D03*
X813750Y516000D02*
D03*
X939750Y398000D02*
D03*
X953750Y362000D02*
D03*
X925750Y308000D02*
D03*
X919750Y368000D02*
D03*
X861750D02*
D03*
X813750Y428000D02*
D03*
X837750Y412000D02*
D03*
X889750Y240000D02*
D03*
X829750Y252000D02*
D03*
X923750Y214000D02*
D03*
X889750Y252000D02*
D03*
X829750Y264000D02*
D03*
X1150850Y337500D02*
D03*
X1224600Y298750D02*
D03*
X1230850Y290000D02*
D03*
X1155850Y208750D02*
D03*
X1175850Y113750D02*
D03*
X1278350Y311250D02*
D03*
X1263350Y352500D02*
D03*
X1283350Y568750D02*
D03*
X1267100Y587500D02*
D03*
X1163350Y607500D02*
D03*
X1190850Y608750D02*
D03*
X1219600Y603750D02*
D03*
X1232100Y580000D02*
D03*
X1228350Y481250D02*
D03*
X1223350Y525000D02*
D03*
X1187100Y491250D02*
D03*
X1133350Y521250D02*
D03*
X1163350Y508750D02*
D03*
X1150850Y456250D02*
D03*
X1233350Y370000D02*
D03*
X1210850Y345000D02*
D03*
X1184600Y272500D02*
D03*
X1125850Y212500D02*
D03*
X1149600Y146250D02*
D03*
X1187100Y161250D02*
D03*
X1209600Y170000D02*
D03*
X1239600Y232500D02*
D03*
Y127500D02*
D03*
X1232100Y598750D02*
D03*
X1148350Y583750D02*
D03*
X1144763Y275170D02*
D03*
X1144600Y266250D02*
D03*
X1202100Y558750D02*
D03*
X1277100Y387500D02*
D03*
X1233350Y346250D02*
D03*
X1163350Y300000D02*
D03*
X1122100Y333750D02*
D03*
X1108350Y296250D02*
D03*
X1169600Y282500D02*
D03*
X1189600Y287500D02*
D03*
X1277100Y376250D02*
D03*
X1155850Y277500D02*
D03*
X1139600Y91250D02*
D03*
X1238350D02*
D03*
X1245850Y596250D02*
D03*
X1195850Y527500D02*
D03*
X1169600Y453750D02*
D03*
X1182100Y302500D02*
D03*
X1134600Y502500D02*
D03*
X1127100Y482500D02*
D03*
X1168350Y267500D02*
D03*
X1162100Y257500D02*
D03*
X1203350Y453750D02*
D03*
X1264600Y516250D02*
D03*
X1192100Y307500D02*
D03*
X1127100Y410000D02*
D03*
X1157100Y307500D02*
D03*
X553000Y735000D02*
D03*
X643649Y120101D02*
D03*
X473750Y517500D02*
D03*
X495003Y581875D02*
D03*
X572792Y614709D02*
D03*
X505750Y721250D02*
D03*
X448750Y398750D02*
D03*
X466250Y532500D02*
D03*
X418750Y550000D02*
D03*
X563750Y121250D02*
D03*
X565000Y151250D02*
D03*
X570000Y242500D02*
D03*
X590000Y261250D02*
D03*
X611250Y285000D02*
D03*
X643750Y317500D02*
D03*
X581250Y548750D02*
D03*
X596250Y533750D02*
D03*
X611250Y517500D02*
D03*
X490000Y716250D02*
D03*
X460000Y620000D02*
D03*
X492500Y600000D02*
D03*
X525000Y592500D02*
D03*
X505000Y557500D02*
D03*
X483750Y663750D02*
D03*
X553750Y672500D02*
D03*
X453750Y462500D02*
D03*
X486250Y478750D02*
D03*
X460000Y290000D02*
D03*
X480000Y312500D02*
D03*
X460000Y311250D02*
D03*
Y333750D02*
D03*
X480000D02*
D03*
X500000D02*
D03*
X525000Y373750D02*
D03*
X548750D02*
D03*
X571250D02*
D03*
X540000Y503750D02*
D03*
X592500Y468750D02*
D03*
X611250Y481250D02*
D03*
Y457500D02*
D03*
Y437500D02*
D03*
Y416250D02*
D03*
X612500Y393750D02*
D03*
Y370000D02*
D03*
X645000Y482500D02*
D03*
Y460000D02*
D03*
Y435000D02*
D03*
Y411250D02*
D03*
X645000Y387500D02*
D03*
Y363750D02*
D03*
X485000Y730000D02*
D03*
X465000D02*
D03*
X445000D02*
D03*
Y707500D02*
D03*
X465000Y708750D02*
D03*
X445000Y686250D02*
D03*
X447500Y498750D02*
D03*
X427500D02*
D03*
X410000Y481250D02*
D03*
Y458750D02*
D03*
X427500Y477500D02*
D03*
X410000Y437500D02*
D03*
X635069Y586031D02*
D03*
X648750Y570000D02*
D03*
X668750D02*
D03*
X688750D02*
D03*
Y547500D02*
D03*
X668750Y548750D02*
D03*
X688750Y526250D02*
D03*
X486250Y260000D02*
D03*
X466250D02*
D03*
X446250D02*
D03*
Y237500D02*
D03*
X466250Y238750D02*
D03*
X446250Y216250D02*
D03*
X413750Y217500D02*
D03*
X433750Y195000D02*
D03*
X413750Y196250D02*
D03*
Y173750D02*
D03*
X433750D02*
D03*
X453750D02*
D03*
X538750Y132500D02*
D03*
X567000Y655000D02*
D03*
X455000Y412500D02*
D03*
X538750Y583750D02*
D03*
Y600000D02*
D03*
X540982Y567350D02*
D03*
X551250Y641257D02*
D03*
X612500Y347500D02*
D03*
X537500Y644500D02*
D03*
X453750Y586250D02*
D03*
X496243Y136253D02*
D03*
X513750Y148750D02*
D03*
X485000D02*
D03*
X160800Y70000D02*
D03*
X224800Y74000D02*
D03*
X296800Y554000D02*
D03*
X346800Y528000D02*
D03*
X302800Y450000D02*
D03*
X304800Y408000D02*
D03*
X299950Y26670D02*
D03*
X82780Y356870D02*
D03*
X108180Y485140D02*
D03*
X110720Y433070D02*
D03*
X119610Y346710D02*
D03*
X100560Y361950D02*
D03*
X110720Y391160D02*
D03*
X113260Y407670D02*
D03*
X212320Y458470D02*
D03*
X211050Y402590D02*
D03*
X195810Y382270D02*
D03*
X176760Y374650D02*
D03*
X170410Y440690D02*
D03*
X152630Y384810D02*
D03*
X156440Y424180D02*
D03*
X167870Y401320D02*
D03*
X153900Y459740D02*
D03*
X164060Y513080D02*
D03*
X184380Y529590D02*
D03*
X316460Y278130D02*
D03*
X325350Y168910D02*
D03*
X278360Y271780D02*
D03*
X280900Y234950D02*
D03*
X282170Y204470D02*
D03*
X150090Y224790D02*
D03*
X161520Y213360D02*
D03*
X172950Y200660D02*
D03*
X184380Y187960D02*
D03*
X195810Y175260D02*
D03*
X208510Y161290D02*
D03*
X84050Y303530D02*
D03*
Y255270D02*
D03*
X85320Y224790D02*
D03*
X90400Y207010D02*
D03*
X62460Y149860D02*
D03*
X78800Y112000D02*
D03*
X95480Y71120D02*
D03*
X113260Y72390D02*
D03*
X151360D02*
D03*
X178030Y73660D02*
D03*
Y121920D02*
D03*
X198350Y123190D02*
D03*
X230100Y138430D02*
D03*
X288520D02*
D03*
X250420Y102870D02*
D03*
X92940Y290830D02*
D03*
X95480Y264160D02*
D03*
X256770Y267970D02*
D03*
X106275Y465455D02*
D03*
X106910Y453390D02*
D03*
X39600Y458470D02*
D03*
X49760Y467360D02*
D03*
X65000Y500380D02*
D03*
X137390Y91440D02*
D03*
X152630Y105410D02*
D03*
X213590Y125730D02*
D03*
X254230Y340360D02*
D03*
X162790Y391160D02*
D03*
X199620Y466090D02*
D03*
X284710Y218440D02*
D03*
X189460Y350520D02*
D03*
X242800Y283210D02*
D03*
X153900Y284480D02*
D03*
X164060Y328930D02*
D03*
X198350Y414020D02*
D03*
X200890Y433070D02*
D03*
X272010Y427990D02*
D03*
X101830Y502920D02*
D03*
X186920Y129540D02*
D03*
D166*
X1205850Y661250D02*
D03*
X598750Y81250D02*
D03*
X502500Y768750D02*
D03*
D167*
X80155Y34645D02*
D03*
D168*
X341860Y240030D02*
D03*
D169*
Y349250D02*
D03*
M02*
