%FSLAX24Y24*%
%MOIN*%
G70*
G01*
G75*
%ADD10C,0.0100*%
%ADD11C,0.0080*%
%ADD12R,0.0217X0.0197*%
%ADD13R,0.0390X0.0270*%
%ADD14R,0.0400X0.0400*%
%ADD15R,0.0236X0.0315*%
%ADD16R,0.0079X0.0374*%
%ADD17R,0.0360X0.0360*%
%ADD18R,0.0500X0.0360*%
%ADD19R,0.0315X0.0236*%
%ADD20R,0.0394X0.0394*%
%ADD21R,0.3500X0.4500*%
%ADD22R,0.0700X0.0820*%
%ADD23R,0.1500X0.0820*%
%ADD24R,0.0197X0.0217*%
%ADD25R,0.1299X0.0512*%
%ADD26R,0.2000X0.2000*%
%ADD27R,0.0600X0.0600*%
%ADD28R,0.0512X0.1299*%
%ADD29R,0.0315X0.0315*%
%ADD30R,0.0315X0.0315*%
%ADD31R,0.0236X0.0157*%
%ADD32R,0.1693X0.1693*%
%ADD33R,0.0374X0.0079*%
%ADD34C,0.0200*%
%ADD35C,0.0400*%
%ADD36C,0.0250*%
%ADD37C,0.0150*%
%ADD38C,0.0120*%
%ADD39C,0.0500*%
%ADD40C,0.0750*%
%ADD41C,0.0300*%
%ADD42C,0.0090*%
%ADD43R,0.1980X0.2640*%
%ADD44R,0.0510X0.0630*%
%ADD45C,0.0060*%
%ADD46C,0.0050*%
%ADD47O,0.0600X0.0800*%
%ADD48R,0.0600X0.0800*%
%ADD49C,0.0250*%
%ADD50C,0.0630*%
%ADD51R,0.1000X0.0650*%
%ADD52C,0.0800*%
%ADD53R,0.0800X0.0800*%
%ADD54C,0.0600*%
%ADD55R,0.0800X0.0650*%
%ADD56R,0.1500X0.1250*%
%ADD57P,0.0650X8X0*%
%ADD58R,0.1500X0.2500*%
%ADD59R,0.1000X0.1000*%
%ADD60R,0.1410X0.1510*%
%ADD61R,0.0850X0.1400*%
%ADD62R,0.0840X0.1280*%
%ADD63R,0.0900X0.1380*%
%ADD64R,0.0950X0.1280*%
%ADD65R,0.0990X0.1540*%
%ADD66R,0.0880X0.1740*%
%ADD67R,0.1440X0.1570*%
%ADD68R,0.0820X0.0700*%
%ADD69R,0.0157X0.0236*%
%ADD70R,0.0630X0.0472*%
%ADD71R,0.0600X0.0500*%
%ADD72R,0.0440X0.0410*%
%ADD73R,0.0640X0.0650*%
%ADD74R,0.1030X0.1500*%
%ADD75R,0.1020X0.1460*%
%ADD76R,0.0560X0.0450*%
%ADD77R,0.0610X0.0520*%
%ADD78R,0.1020X0.1470*%
%ADD79R,0.1030X0.1440*%
%ADD80R,0.1080X0.1500*%
%ADD81R,0.0590X0.0470*%
%ADD82R,0.0610X0.0500*%
%ADD83R,0.1320X0.1390*%
%ADD84R,0.1110X0.1540*%
%ADD85R,0.1430X0.1590*%
%ADD86C,0.0039*%
%ADD87C,0.0110*%
%ADD88C,0.0070*%
%ADD89C,0.0020*%
%ADD90C,0.0079*%
%ADD91C,0.0040*%
%ADD92R,0.0090X0.0690*%
%ADD93R,0.0380X0.0700*%
%ADD94R,0.0400X0.0690*%
%ADD95R,0.0380X0.0560*%
%ADD96R,0.0160X0.0100*%
%ADD97R,0.0290X0.0110*%
%ADD98R,0.0400X0.0780*%
%ADD99R,0.0100X0.0060*%
%ADD100R,0.0450X0.0100*%
%ADD101R,0.0070X0.0080*%
%ADD102R,0.0430X0.0060*%
%ADD103R,0.0280X0.0050*%
%ADD104R,0.0180X0.0100*%
%ADD105R,0.0060X0.0050*%
%ADD106R,0.0310X0.0140*%
%ADD107R,0.0070X0.0120*%
%ADD108R,0.0060X0.0060*%
%ADD109R,0.0180X0.0150*%
%ADD110R,0.0130X0.0060*%
%ADD111R,0.0100X0.0110*%
%ADD112R,0.0110X0.0120*%
%ADD113R,0.0050X0.0050*%
%ADD114R,0.0070X0.0070*%
%ADD115R,0.0120X0.0060*%
%ADD116R,0.0070X0.0630*%
%ADD117R,0.0090X0.0030*%
%ADD118R,0.0050X0.0030*%
%ADD119R,0.0120X0.0590*%
%ADD120R,0.0040X0.0510*%
%ADD121R,0.0070X0.0020*%
%ADD122R,0.0050X0.0040*%
%ADD123R,0.0060X0.0030*%
%ADD124R,0.0040X0.0450*%
%ADD125R,0.0040X0.0040*%
%ADD126R,0.0040X0.0410*%
%ADD127R,0.0050X0.0330*%
%ADD128R,0.0040X0.0180*%
%ADD129R,0.0050X0.0160*%
%ADD130R,0.0070X0.0050*%
%ADD131R,0.0080X0.0140*%
%ADD132R,0.0220X0.0090*%
%ADD133R,0.0060X0.0040*%
%ADD134R,0.0150X0.0350*%
%ADD135R,0.0030X0.0050*%
%ADD136R,0.0350X0.0100*%
%ADD137R,0.0220X0.0160*%
%ADD138R,0.0160X0.0070*%
%ADD139R,0.0140X0.0070*%
%ADD140R,0.0090X0.0070*%
%ADD141R,0.0580X0.0150*%
%ADD142R,0.0050X0.0100*%
%ADD143R,0.0250X0.0020*%
%ADD144R,0.0040X0.0030*%
%ADD145R,0.0060X0.0090*%
%ADD146R,0.0390X0.0730*%
%ADD147R,0.0080X0.0160*%
%ADD148R,0.0040X0.0050*%
%ADD149R,0.0040X0.0160*%
%ADD150R,0.0320X0.0160*%
%ADD151R,0.0350X0.0090*%
%ADD152R,0.0100X0.0090*%
%ADD153R,0.0590X0.0100*%
%ADD154R,0.0300X0.0050*%
%ADD155R,0.0120X0.0030*%
%ADD156R,0.0060X0.0280*%
%ADD157R,0.0050X0.0190*%
%ADD158R,0.0050X0.0020*%
%ADD159R,0.0340X0.0250*%
%ADD160R,0.0320X0.0330*%
%ADD161R,0.0100X0.0140*%
%ADD162R,0.0050X0.0120*%
%ADD163R,0.0050X0.0080*%
%ADD164R,0.0330X0.0060*%
%ADD165R,0.0210X0.0040*%
%ADD166R,0.0090X0.0050*%
%ADD167R,0.0100X0.0080*%
%ADD168R,0.0090X0.0100*%
%ADD169R,0.0020X0.0030*%
%ADD170R,0.0560X0.0130*%
%ADD171R,0.0380X0.0050*%
%ADD172R,0.0080X0.0280*%
%ADD173R,0.0050X0.0180*%
%ADD174R,0.0380X0.0710*%
%ADD175R,0.0300X0.0180*%
%ADD176R,0.0270X0.0030*%
%ADD177R,0.0190X0.0050*%
%ADD178R,0.0070X0.0140*%
%ADD179R,0.0270X0.0040*%
%ADD180R,0.0180X0.0050*%
%ADD181R,0.0060X0.0110*%
%ADD182R,0.0390X0.1040*%
%ADD183R,0.0210X0.0100*%
%ADD184R,0.0315X0.0787*%
%ADD185R,0.3600X0.0670*%
%ADD186R,0.0080X0.0120*%
%ADD187R,0.0787X0.0315*%
D10*
X91351Y77581D02*
X91398Y77499D01*
X91492D01*
X91539Y77581D01*
X91351Y72781D02*
X91398Y72699D01*
X91492D01*
X91539Y72781D01*
X91351Y75181D02*
X91398Y75099D01*
X91492D01*
X91539Y75181D01*
X91351Y82381D02*
X91398Y82299D01*
X91492D01*
X91539Y82381D01*
X101861Y73115D02*
X101908Y73034D01*
X102002D01*
X102049Y73115D01*
X91351Y79981D02*
X91398Y79899D01*
X91492D01*
X91539Y79981D01*
X86469Y83451D02*
X86422Y83532D01*
X86328D01*
X86281Y83451D01*
X86469Y85851D02*
X86422Y85932D01*
X86328D01*
X86281Y85851D01*
X86469Y88251D02*
X86422Y88332D01*
X86328D01*
X86281Y88251D01*
X91195Y76443D02*
Y77568D01*
X91207Y77581D02*
X91351D01*
X91195Y76443D02*
X91695D01*
Y77568D01*
X91551D02*
X91695D01*
X91551Y72768D02*
X91695D01*
Y71643D02*
Y72768D01*
X91195Y71643D02*
X91695D01*
X91207Y72781D02*
X91351D01*
X91195Y71643D02*
Y72768D01*
Y74043D02*
Y75168D01*
X91207Y75181D02*
X91351D01*
X91195Y74043D02*
X91695D01*
Y75168D01*
X91551D02*
X91695D01*
X91551Y82368D02*
X91695D01*
Y81243D02*
Y82368D01*
X91195Y81243D02*
X91695D01*
X91207Y82381D02*
X91351D01*
X91195Y81243D02*
Y82368D01*
X102061Y73102D02*
X102205D01*
Y71977D02*
Y73102D01*
X101705Y71977D02*
X102205D01*
X101717Y73115D02*
X101861D01*
X101705Y71977D02*
Y73102D01*
X91551Y79968D02*
X91695D01*
Y78843D02*
Y79968D01*
X91195Y78843D02*
X91695D01*
X91207Y79981D02*
X91351D01*
X91195Y78843D02*
Y79968D01*
X86125Y83463D02*
X86269D01*
X86125D02*
Y84588D01*
X86625D01*
X86469Y83451D02*
X86612D01*
X86625Y83463D02*
Y84588D01*
Y85863D02*
Y86988D01*
X86469Y85851D02*
X86612D01*
X86125Y86988D02*
X86625D01*
X86125Y85863D02*
Y86988D01*
Y85863D02*
X86269D01*
X86125Y88263D02*
X86269D01*
X86125D02*
Y89388D01*
X86625D01*
X86469Y88251D02*
X86612D01*
X86625Y88263D02*
Y89388D01*
X75685Y61463D02*
X75587Y61458D01*
X75490Y61444D01*
X75395Y61420D01*
X75302Y61387D01*
X75214Y61345D01*
X75129Y61295D01*
X75051Y61236D01*
X74978Y61170D01*
X74912Y61098D01*
X74853Y61019D01*
X74803Y60935D01*
X74761Y60846D01*
X74728Y60753D01*
X74704Y60658D01*
X74690Y60561D01*
X74685Y60463D01*
Y49473D02*
X74690Y49375D01*
X74704Y49278D01*
X74727Y49183D01*
X74760Y49091D01*
X74802Y49002D01*
X74852Y48918D01*
X74909Y48838D01*
X74975Y48765D01*
X75047Y48699D01*
X75125Y48640D01*
X75208Y48588D01*
X75296Y48545D01*
X75388Y48511D01*
X75483Y48486D01*
X75580Y48470D01*
X75677Y48463D01*
X117685Y48463D02*
X117783Y48468D01*
X117880Y48482D01*
X117975Y48506D01*
X118068Y48539D01*
X118156Y48581D01*
X118241Y48632D01*
X118319Y48690D01*
X118392Y48756D01*
X118458Y48829D01*
X118516Y48908D01*
X118567Y48992D01*
X118609Y49080D01*
X118642Y49173D01*
X118666Y49268D01*
X118680Y49365D01*
X118685Y49463D01*
Y60463D02*
X118680Y60561D01*
X118666Y60658D01*
X118642Y60753D01*
X118609Y60846D01*
X118567Y60935D01*
X118516Y61019D01*
X118458Y61098D01*
X118392Y61170D01*
X118319Y61236D01*
X118241Y61295D01*
X118156Y61345D01*
X118068Y61387D01*
X117975Y61420D01*
X117880Y61444D01*
X117783Y61458D01*
X117685Y61463D01*
X80685Y104713D02*
X105685D01*
X77185Y69713D02*
X80185D01*
X80685Y67513D02*
Y69213D01*
X105685Y68413D02*
Y68613D01*
X80685Y68413D02*
Y68613D01*
X105085Y68313D02*
X105685Y68513D01*
X105085Y68713D02*
X105685Y68513D01*
X80685D02*
X81285Y68313D01*
X80685Y68513D02*
X81285Y68713D01*
X95994Y68513D02*
X105685D01*
X80685D02*
X90376D01*
X80685Y69713D02*
X105685D01*
Y104713D01*
X80685Y69713D02*
Y104713D01*
X75685Y48463D02*
X117685D01*
X75685Y61463D02*
X117685D01*
X118685Y49463D02*
Y60463D01*
X74685Y49463D02*
Y60463D01*
X78085Y104713D02*
X78285D01*
X78085Y69713D02*
X78285D01*
X78185Y104713D02*
X78385Y104113D01*
X77985D02*
X78185Y104713D01*
Y69713D02*
X78385Y70313D01*
X77985D02*
X78185Y69713D01*
Y90022D02*
Y104713D01*
Y69713D02*
Y84404D01*
D11*
X142185Y48713D02*
X142175Y48814D01*
X142145Y48910D01*
X142095Y48999D01*
X142030Y49075D01*
X141950Y49137D01*
X141859Y49182D01*
X141761Y49207D01*
X141660Y49212D01*
X141560Y49197D01*
X141465Y49162D01*
X141379Y49108D01*
X141306Y49039D01*
X141248Y48956D01*
X141208Y48863D01*
X141188Y48764D01*
Y48662D01*
X141208Y48563D01*
X141248Y48470D01*
X141306Y48387D01*
X141379Y48318D01*
X141465Y48264D01*
X141560Y48229D01*
X141660Y48214D01*
X141761Y48219D01*
X141859Y48244D01*
X141950Y48289D01*
X142030Y48351D01*
X142095Y48427D01*
X142145Y48516D01*
X142175Y48612D01*
X142185Y48713D01*
X142435D02*
X142428Y48813D01*
X142408Y48911D01*
X142376Y49006D01*
X142330Y49095D01*
X142274Y49178D01*
X142206Y49252D01*
X142130Y49317D01*
X142045Y49371D01*
X141955Y49413D01*
X141859Y49443D01*
X141760Y49459D01*
X141660Y49463D01*
X141560Y49453D01*
X141463Y49429D01*
X141369Y49393D01*
X141281Y49345D01*
X141201Y49286D01*
X141129Y49216D01*
X141067Y49137D01*
X141016Y49051D01*
X140977Y48959D01*
X140950Y48862D01*
X140937Y48763D01*
Y48663D01*
X140950Y48564D01*
X140977Y48467D01*
X141016Y48375D01*
X141067Y48289D01*
X141129Y48210D01*
X141201Y48140D01*
X141281Y48081D01*
X141369Y48033D01*
X141463Y47997D01*
X141560Y47973D01*
X141660Y47963D01*
X141760Y47967D01*
X141859Y47983D01*
X141955Y48013D01*
X142045Y48055D01*
X142130Y48109D01*
X142206Y48174D01*
X142274Y48248D01*
X142330Y48331D01*
X142376Y48420D01*
X142408Y48515D01*
X142428Y48613D01*
X142435Y48713D01*
X141710D02*
X141660D01*
X141710D01*
X141735D02*
X141660Y48756D01*
Y48670D01*
X141735Y48713D01*
X141885D02*
X141862Y48806D01*
X141799Y48878D01*
X141709Y48912D01*
X141614Y48900D01*
X141535Y48846D01*
X141491Y48761D01*
Y48665D01*
X141535Y48580D01*
X141614Y48526D01*
X141709Y48514D01*
X141799Y48548D01*
X141862Y48620D01*
X141885Y48713D01*
X141835D02*
X141800Y48809D01*
X141711Y48861D01*
X141610Y48843D01*
X141544Y48764D01*
Y48662D01*
X141610Y48583D01*
X141711Y48565D01*
X141800Y48617D01*
X141835Y48713D01*
X141785D02*
X141735Y48800D01*
X141635D01*
X141585Y48713D01*
X141635Y48626D01*
X141735D01*
X141785Y48713D01*
X72435Y108713D02*
X72428Y108813D01*
X72408Y108911D01*
X72375Y109006D01*
X72330Y109095D01*
X72274Y109178D01*
X72206Y109252D01*
X72130Y109317D01*
X72045Y109371D01*
X71955Y109413D01*
X71859Y109443D01*
X71760Y109459D01*
X71660Y109463D01*
X71560Y109453D01*
X71463Y109429D01*
X71369Y109393D01*
X71281Y109345D01*
X71201Y109286D01*
X71129Y109216D01*
X71067Y109138D01*
X71016Y109051D01*
X70976Y108959D01*
X70950Y108863D01*
X70937Y108763D01*
Y108663D01*
X70950Y108564D01*
X70976Y108467D01*
X71016Y108375D01*
X71067Y108289D01*
X71129Y108210D01*
X71201Y108140D01*
X71281Y108081D01*
X71369Y108033D01*
X71463Y107997D01*
X71560Y107974D01*
X71660Y107964D01*
X71760Y107967D01*
X71859Y107984D01*
X71955Y108013D01*
X72045Y108055D01*
X72130Y108109D01*
X72206Y108174D01*
X72274Y108248D01*
X72330Y108331D01*
X72375Y108420D01*
X72408Y108515D01*
X72428Y108613D01*
X72435Y108713D01*
X71710D02*
X71660D01*
X71710D01*
X71735D02*
X71660Y108756D01*
Y108670D01*
X71735Y108713D01*
X71785D02*
X71735Y108800D01*
X71635D01*
X71585Y108713D01*
X71635Y108627D01*
X71735D01*
X71785Y108713D01*
X71835D02*
X71800Y108810D01*
X71711Y108861D01*
X71610Y108843D01*
X71544Y108764D01*
Y108662D01*
X71610Y108583D01*
X71711Y108565D01*
X71800Y108617D01*
X71835Y108713D01*
X71885D02*
X71862Y108806D01*
X71799Y108878D01*
X71709Y108912D01*
X71614Y108900D01*
X71535Y108846D01*
X71491Y108761D01*
Y108665D01*
X71535Y108581D01*
X71614Y108526D01*
X71709Y108515D01*
X71799Y108549D01*
X71862Y108620D01*
X71885Y108713D01*
X72185D02*
X72175Y108814D01*
X72144Y108910D01*
X72095Y108999D01*
X72029Y109076D01*
X71949Y109137D01*
X71859Y109182D01*
X71761Y109207D01*
X71660Y109212D01*
X71560Y109197D01*
X71465Y109162D01*
X71379Y109109D01*
X71306Y109039D01*
X71248Y108956D01*
X71208Y108863D01*
X71188Y108764D01*
Y108663D01*
X71208Y108563D01*
X71248Y108470D01*
X71306Y108387D01*
X71379Y108318D01*
X71465Y108264D01*
X71560Y108229D01*
X71660Y108214D01*
X71761Y108219D01*
X71859Y108244D01*
X71949Y108289D01*
X72029Y108351D01*
X72095Y108427D01*
X72144Y108516D01*
X72175Y108612D01*
X72185Y108713D01*
X72185Y48713D02*
X72175Y48814D01*
X72145Y48910D01*
X72095Y48999D01*
X72030Y49075D01*
X71950Y49137D01*
X71859Y49182D01*
X71761Y49207D01*
X71660Y49212D01*
X71560Y49197D01*
X71465Y49162D01*
X71379Y49108D01*
X71306Y49039D01*
X71248Y48956D01*
X71208Y48863D01*
X71188Y48764D01*
Y48662D01*
X71208Y48563D01*
X71248Y48470D01*
X71306Y48387D01*
X71379Y48318D01*
X71465Y48264D01*
X71560Y48229D01*
X71660Y48214D01*
X71761Y48219D01*
X71859Y48244D01*
X71950Y48289D01*
X72030Y48351D01*
X72095Y48427D01*
X72145Y48516D01*
X72175Y48612D01*
X72185Y48713D01*
X72435D02*
X72428Y48813D01*
X72408Y48911D01*
X72376Y49006D01*
X72330Y49095D01*
X72274Y49178D01*
X72206Y49252D01*
X72130Y49317D01*
X72045Y49371D01*
X71955Y49413D01*
X71859Y49443D01*
X71760Y49459D01*
X71660Y49463D01*
X71560Y49453D01*
X71463Y49429D01*
X71369Y49393D01*
X71281Y49345D01*
X71201Y49286D01*
X71129Y49216D01*
X71067Y49137D01*
X71016Y49051D01*
X70977Y48959D01*
X70950Y48862D01*
X70937Y48763D01*
Y48663D01*
X70950Y48564D01*
X70977Y48467D01*
X71016Y48375D01*
X71067Y48289D01*
X71129Y48210D01*
X71201Y48140D01*
X71281Y48081D01*
X71369Y48033D01*
X71463Y47997D01*
X71560Y47973D01*
X71660Y47963D01*
X71760Y47967D01*
X71859Y47983D01*
X71955Y48013D01*
X72045Y48055D01*
X72130Y48109D01*
X72206Y48174D01*
X72274Y48248D01*
X72330Y48331D01*
X72376Y48420D01*
X72408Y48515D01*
X72428Y48613D01*
X72435Y48713D01*
X71710D02*
X71660D01*
X71710D01*
X71735D02*
X71660Y48756D01*
Y48670D01*
X71735Y48713D01*
X71885D02*
X71862Y48806D01*
X71799Y48878D01*
X71709Y48912D01*
X71614Y48900D01*
X71535Y48846D01*
X71491Y48761D01*
Y48665D01*
X71535Y48580D01*
X71614Y48526D01*
X71709Y48514D01*
X71799Y48548D01*
X71862Y48620D01*
X71885Y48713D01*
X71785D02*
X71735Y48800D01*
X71635D01*
X71585Y48713D01*
X71635Y48626D01*
X71735D01*
X71785Y48713D01*
X71835D02*
X71800Y48809D01*
X71711Y48861D01*
X71610Y48843D01*
X71544Y48764D01*
Y48662D01*
X71610Y48583D01*
X71711Y48565D01*
X71800Y48617D01*
X71835Y48713D01*
X72435D02*
X72935D01*
X69435D02*
X70935D01*
X68685Y45713D02*
X69435D01*
X68435Y47963D02*
X68935D01*
X68540Y48043D02*
X68830D01*
X68590Y48078D02*
X68780D01*
X68490Y48008D02*
X68880D01*
X68640Y48113D02*
X68730D01*
X70685Y45713D02*
X70935D01*
X66685Y48713D02*
X68685D01*
X67935Y49713D02*
X68685D01*
X67935Y50713D02*
X68685D01*
X67935Y51713D02*
X68685D01*
X67935Y52713D02*
X68685D01*
X67185Y53713D02*
X68685D01*
X67935Y54713D02*
X68685D01*
X67935Y55713D02*
X68685D01*
X67935Y56713D02*
X68685D01*
X67935Y57713D02*
X68685D01*
X66685Y58713D02*
X68685D01*
X67935Y59713D02*
X68685D01*
X67935Y60713D02*
X68685D01*
X67935Y61713D02*
X68685D01*
X67935Y62713D02*
X68685D01*
X67185Y63713D02*
X68685D01*
X67935Y64713D02*
X68685D01*
X67935Y65713D02*
X68685D01*
X67935Y66713D02*
X68685D01*
X67935Y67713D02*
X68685D01*
X66685Y68713D02*
X68685D01*
X67935Y69713D02*
X68685D01*
X67935Y70713D02*
X68685D01*
X67935Y71713D02*
X68685D01*
X67935Y72713D02*
X68685D01*
X67185Y73713D02*
X68685D01*
X67935Y74713D02*
X68685D01*
X67935Y75713D02*
X68685D01*
X67935Y76713D02*
X68685D01*
X67935Y77713D02*
X68685D01*
X66685Y78713D02*
X68685D01*
X67935Y79713D02*
X68685D01*
X67935Y80713D02*
X68685D01*
X67935Y81713D02*
X68685D01*
X67935Y82713D02*
X68685D01*
X67185Y83713D02*
X68685D01*
X67935Y84713D02*
X68685D01*
X67935Y85713D02*
X68685D01*
X67935Y86713D02*
X68685D01*
X67935Y87713D02*
X68685D01*
X66685Y88713D02*
X68685D01*
X67935Y89713D02*
X68685D01*
X67935Y90713D02*
X68685D01*
X67935Y91713D02*
X68685D01*
X67935Y92713D02*
X68685D01*
X67185Y93713D02*
X68685D01*
X67935Y94713D02*
X68685D01*
X67935Y95713D02*
X68685D01*
X67935Y96713D02*
X68685D01*
X67935Y97713D02*
X68685D01*
X66685Y98713D02*
X68685D01*
X67935Y99713D02*
X68685D01*
X67935Y100713D02*
X68685D01*
X67935Y101713D02*
X68685D01*
X67935Y102713D02*
X68685D01*
X67185Y103713D02*
X68685D01*
X67935Y104713D02*
X68685D01*
X67935Y105713D02*
X68685D01*
X67935Y106713D02*
X68685D01*
X67935Y107713D02*
X68685D01*
X66685Y108713D02*
X68685D01*
X71685D02*
X72185D01*
X71185D02*
X71685D01*
X69435D02*
X70935D01*
X72435D02*
X72935D01*
X140435Y48713D02*
X140935D01*
X142435D02*
X142935D01*
X71685Y46463D02*
Y47963D01*
Y49463D02*
Y49963D01*
X68685Y45713D02*
Y46463D01*
X70935Y45463D02*
Y45963D01*
X71015Y45568D02*
Y45858D01*
X68685Y47713D02*
Y47963D01*
X71050Y45618D02*
Y45808D01*
X70980Y45518D02*
Y45908D01*
X71085Y45668D02*
Y45758D01*
X71685Y43713D02*
Y45713D01*
X72685Y44963D02*
Y45713D01*
X73685Y44963D02*
Y45713D01*
X74685Y44963D02*
Y45713D01*
X75685Y44963D02*
Y45713D01*
X76685Y44213D02*
Y45713D01*
X77685Y44963D02*
Y45713D01*
X78685Y44963D02*
Y45713D01*
X79685Y44963D02*
Y45713D01*
X80685Y44963D02*
Y45713D01*
X81685Y43713D02*
Y45713D01*
X82685Y44963D02*
Y45713D01*
X83685Y44963D02*
Y45713D01*
X84685Y44963D02*
Y45713D01*
X85685Y44963D02*
Y45713D01*
X86685Y44213D02*
Y45713D01*
X87685Y44963D02*
Y45713D01*
X88685Y44963D02*
Y45713D01*
X89685Y44963D02*
Y45713D01*
X90685Y44963D02*
Y45713D01*
X91685Y43713D02*
Y45713D01*
X92685Y44963D02*
Y45713D01*
X93685Y44963D02*
Y45713D01*
X94685Y44963D02*
Y45713D01*
X95685Y44963D02*
Y45713D01*
X96685Y44213D02*
Y45713D01*
X97685Y44963D02*
Y45713D01*
X98685Y44963D02*
Y45713D01*
X99685Y44963D02*
Y45713D01*
X100685Y44963D02*
Y45713D01*
X101685Y43713D02*
Y45713D01*
X102685Y44963D02*
Y45713D01*
X103685Y44963D02*
Y45713D01*
X104685Y44963D02*
Y45713D01*
X105685Y44963D02*
Y45713D01*
X106685Y44213D02*
Y45713D01*
X107685Y44963D02*
Y45713D01*
X108685Y44963D02*
Y45713D01*
X109685Y44963D02*
Y45713D01*
X110685Y44963D02*
Y45713D01*
X111685Y43713D02*
Y45713D01*
X112685Y44963D02*
Y45713D01*
X113685Y44963D02*
Y45713D01*
X114685Y44963D02*
Y45713D01*
X115685Y44963D02*
Y45713D01*
X116685Y44213D02*
Y45713D01*
X117685Y44963D02*
Y45713D01*
X118685Y44963D02*
Y45713D01*
X119685Y44963D02*
Y45713D01*
X120685Y44963D02*
Y45713D01*
X121685Y43713D02*
Y45713D01*
X122685Y44963D02*
Y45713D01*
X123685Y44963D02*
Y45713D01*
X124685Y44963D02*
Y45713D01*
X125685Y44963D02*
Y45713D01*
X126685Y44213D02*
Y45713D01*
X127685Y44963D02*
Y45713D01*
X128685Y44963D02*
Y45713D01*
X129685Y44963D02*
Y45713D01*
X130685Y44963D02*
Y45713D01*
X131685Y43713D02*
Y45713D01*
X132685Y44963D02*
Y45713D01*
X133685Y44963D02*
Y45713D01*
X134685Y44963D02*
Y45713D01*
X135685Y44963D02*
Y45713D01*
X136685Y44213D02*
Y45713D01*
X137685Y44963D02*
Y45713D01*
X138685Y44963D02*
Y45713D01*
X139685Y44963D02*
Y45713D01*
X140685Y44963D02*
Y45713D01*
X141685Y43713D02*
Y45713D01*
X71685Y108213D02*
Y108713D01*
Y109213D01*
Y109463D02*
Y109963D01*
Y107463D02*
Y107963D01*
X141685Y49463D02*
Y49963D01*
Y46463D02*
Y47963D01*
X71685Y48713D02*
X72035Y49063D01*
X71335Y48363D02*
X71685Y48713D01*
X141335Y48363D02*
X141685Y48713D01*
X142035Y49063D01*
X71685Y48713D02*
X72035Y48363D01*
X71335Y49063D02*
X71685Y48713D01*
X141685D02*
X142035Y48363D01*
X141335Y49063D02*
X141685Y48713D01*
X70935Y45463D02*
X71685Y45713D01*
X70935Y45963D02*
X71685Y45713D01*
X71015Y45858D02*
X71445Y45713D01*
X71015Y45568D02*
X71445Y45713D01*
X68685Y48713D02*
X68935Y47963D01*
X68435D02*
X68685Y48713D01*
X68540Y48043D02*
X68685Y48473D01*
X68830Y48043D01*
X68590Y48078D02*
X68685Y48358D01*
X68780Y48078D01*
X68490Y48008D02*
X68685Y48588D01*
X68880Y48008D01*
X68640Y48113D02*
X68685Y48243D01*
X68730Y48113D01*
X71050Y45808D02*
X71330Y45713D01*
X71050Y45618D02*
X71330Y45713D01*
X70980Y45908D02*
X71560Y45713D01*
X70980Y45518D02*
X71560Y45713D01*
X71085Y45758D02*
X71215Y45713D01*
X71085Y45668D02*
X71215Y45713D01*
X76113Y56920D02*
X76085Y56977D01*
X76028Y57034D01*
X75971Y57063D01*
X75856D01*
X75799Y57034D01*
X75742Y56977D01*
X75714Y56920D01*
X75685Y56834D01*
Y56692D01*
X75714Y56606D01*
X75742Y56549D01*
X75799Y56492D01*
X75856Y56463D01*
X75971D01*
X76028Y56492D01*
X76085Y56549D01*
X76113Y56606D01*
X76653Y57063D02*
X76282D01*
Y56463D01*
X76653D01*
X76282Y56777D02*
X76510D01*
X76753Y57063D02*
Y56463D01*
Y57063D02*
X76982Y56463D01*
X77210Y57063D02*
X76982Y56463D01*
X77210Y57063D02*
Y56463D01*
D36*
X118185Y53223D02*
X118176Y53319D01*
X118148Y53411D01*
X118102Y53495D01*
X118041Y53570D01*
X117967Y53631D01*
X117882Y53676D01*
X117791Y53704D01*
X117695Y53713D01*
X106685D02*
X106587Y53704D01*
X106494Y53675D01*
X106407Y53629D01*
X106331Y53567D01*
X106269Y53491D01*
X106223Y53404D01*
X106195Y53311D01*
X106185Y53213D01*
X117685Y54213D02*
X117782Y54223D01*
X117876Y54251D01*
X117963Y54297D01*
X118039Y54360D01*
X118101Y54435D01*
X118147Y54522D01*
X118175Y54616D01*
X118185Y54713D01*
X106185D02*
X106195Y54616D01*
X106223Y54522D01*
X106269Y54435D01*
X106331Y54360D01*
X106407Y54297D01*
X106494Y54251D01*
X106587Y54223D01*
X106685Y54213D01*
X118185Y60473D02*
X118175Y60571D01*
X118146Y60665D01*
X118099Y60751D01*
X118035Y60826D01*
X117958Y60886D01*
X117871Y60931D01*
X117776Y60956D01*
X117678Y60963D01*
X117685Y51463D02*
X117782Y51473D01*
X117876Y51501D01*
X117963Y51547D01*
X118039Y51610D01*
X118101Y51685D01*
X118147Y51772D01*
X118175Y51866D01*
X118185Y51963D01*
X118185Y50472D02*
X118174Y50568D01*
X118144Y50661D01*
X118098Y50746D01*
X118035Y50820D01*
X117960Y50881D01*
X117874Y50926D01*
X117781Y50954D01*
X117685Y50963D01*
Y48963D02*
X117782Y48973D01*
X117876Y49001D01*
X117963Y49047D01*
X118039Y49110D01*
X118101Y49185D01*
X118147Y49272D01*
X118175Y49366D01*
X118185Y49463D01*
X105185Y51463D02*
X105282Y51473D01*
X105376Y51501D01*
X105463Y51547D01*
X105539Y51610D01*
X105601Y51685D01*
X105647Y51772D01*
X105675Y51866D01*
X105685Y51963D01*
X106185Y51953D02*
X106195Y51856D01*
X106223Y51764D01*
X106269Y51678D01*
X106332Y51604D01*
X106407Y51543D01*
X106493Y51498D01*
X106587Y51471D01*
X106684Y51463D01*
X105685Y53223D02*
X105676Y53319D01*
X105648Y53411D01*
X105602Y53495D01*
X105541Y53570D01*
X105467Y53631D01*
X105382Y53676D01*
X105291Y53704D01*
X105195Y53713D01*
X75185Y49463D02*
X75194Y49367D01*
X75222Y49274D01*
X75267Y49188D01*
X75328Y49113D01*
X75403Y49050D01*
X75488Y49004D01*
X75580Y48974D01*
X75676Y48963D01*
X105194Y54213D02*
X105290Y54224D01*
X105382Y54254D01*
X105467Y54300D01*
X105542Y54363D01*
X105603Y54438D01*
X105648Y54524D01*
X105676Y54617D01*
X105685Y54713D01*
X75685Y50963D02*
X75587Y50954D01*
X75494Y50925D01*
X75407Y50879D01*
X75331Y50817D01*
X75269Y50741D01*
X75223Y50654D01*
X75195Y50561D01*
X75185Y50463D01*
X105685Y57963D02*
X105675Y58061D01*
X105647Y58154D01*
X105601Y58241D01*
X105539Y58317D01*
X105463Y58379D01*
X105376Y58425D01*
X105282Y58454D01*
X105185Y58463D01*
Y58963D02*
X105282Y58973D01*
X105376Y59001D01*
X105463Y59047D01*
X105539Y59110D01*
X105601Y59185D01*
X105647Y59272D01*
X105675Y59366D01*
X105685Y59463D01*
X106685Y60963D02*
X106587Y60954D01*
X106494Y60925D01*
X106407Y60879D01*
X106331Y60817D01*
X106269Y60741D01*
X106223Y60654D01*
X106195Y60561D01*
X106185Y60463D01*
X105685D02*
X105675Y60561D01*
X105647Y60654D01*
X105601Y60741D01*
X105539Y60817D01*
X105463Y60879D01*
X105376Y60925D01*
X105282Y60954D01*
X105185Y60963D01*
X75685D02*
X75587Y60954D01*
X75494Y60925D01*
X75407Y60879D01*
X75331Y60817D01*
X75269Y60741D01*
X75223Y60654D01*
X75195Y60561D01*
X75185Y60463D01*
Y59463D02*
X75195Y59366D01*
X75223Y59272D01*
X75269Y59185D01*
X75331Y59110D01*
X75407Y59047D01*
X75494Y59001D01*
X75587Y58973D01*
X75685Y58963D01*
Y58463D02*
X75587Y58454D01*
X75494Y58425D01*
X75407Y58379D01*
X75331Y58317D01*
X75269Y58241D01*
X75223Y58154D01*
X75195Y58061D01*
X75185Y57963D01*
Y55713D02*
X75195Y55616D01*
X75223Y55522D01*
X75269Y55435D01*
X75331Y55360D01*
X75407Y55297D01*
X75494Y55251D01*
X75587Y55223D01*
X75685Y55213D01*
Y54713D02*
X75587Y54704D01*
X75494Y54675D01*
X75407Y54629D01*
X75331Y54567D01*
X75269Y54491D01*
X75223Y54404D01*
X75195Y54311D01*
X75185Y54213D01*
Y51963D02*
X75194Y51867D01*
X75222Y51774D01*
X75267Y51688D01*
X75328Y51613D01*
X75403Y51550D01*
X75488Y51504D01*
X75580Y51474D01*
X75676Y51463D01*
X84685Y58463D02*
X84587Y58454D01*
X84494Y58425D01*
X84407Y58379D01*
X84331Y58317D01*
X84269Y58241D01*
X84223Y58154D01*
X84195Y58061D01*
X84185Y57963D01*
X84685Y53713D02*
X84587Y53704D01*
X84494Y53675D01*
X84407Y53629D01*
X84331Y53567D01*
X84269Y53491D01*
X84223Y53404D01*
X84195Y53311D01*
X84185Y53213D01*
X102165Y53713D02*
X102068Y53703D01*
X101975Y53674D01*
X101890Y53627D01*
X101817Y53564D01*
X101757Y53487D01*
X101715Y53399D01*
X101690Y53305D01*
X101686Y53208D01*
X101685Y51973D02*
X101695Y51875D01*
X101723Y51780D01*
X101769Y51693D01*
X101831Y51616D01*
X101907Y51552D01*
X101994Y51505D01*
X102088Y51475D01*
X102186Y51463D01*
X100695Y51463D02*
X100792Y51473D01*
X100884Y51501D01*
X100970Y51548D01*
X101044Y51610D01*
X101105Y51685D01*
X101150Y51772D01*
X101177Y51865D01*
X101185Y51962D01*
X101185Y53223D02*
X101176Y53319D01*
X101148Y53411D01*
X101102Y53495D01*
X101041Y53570D01*
X100967Y53631D01*
X100882Y53676D01*
X100791Y53704D01*
X100695Y53713D01*
X83195Y51463D02*
X83291Y51473D01*
X83382Y51500D01*
X83467Y51546D01*
X83541Y51607D01*
X83602Y51681D01*
X83648Y51766D01*
X83676Y51858D01*
X83685Y51953D01*
X84185D02*
X84194Y51858D01*
X84222Y51766D01*
X84268Y51681D01*
X84328Y51607D01*
X84403Y51546D01*
X84487Y51500D01*
X84579Y51473D01*
X84675Y51463D01*
X84185Y54703D02*
X84194Y54608D01*
X84222Y54516D01*
X84268Y54431D01*
X84328Y54357D01*
X84403Y54296D01*
X84487Y54250D01*
X84579Y54223D01*
X84675Y54213D01*
X83685Y54223D02*
X83675Y54321D01*
X83646Y54415D01*
X83599Y54501D01*
X83535Y54576D01*
X83458Y54636D01*
X83371Y54681D01*
X83276Y54706D01*
X83178Y54713D01*
X83205Y55213D02*
X83299Y55222D01*
X83389Y55250D01*
X83472Y55294D01*
X83544Y55354D01*
X83604Y55426D01*
X83648Y55509D01*
X83676Y55599D01*
X83685Y55693D01*
Y57973D02*
X83676Y58069D01*
X83648Y58161D01*
X83602Y58245D01*
X83541Y58320D01*
X83467Y58381D01*
X83382Y58426D01*
X83291Y58454D01*
X83195Y58463D01*
X112185Y50963D02*
X112087Y50954D01*
X111994Y50925D01*
X111907Y50879D01*
X111831Y50817D01*
X111769Y50741D01*
X111723Y50654D01*
X111695Y50561D01*
X111685Y50463D01*
Y49453D02*
X111695Y49356D01*
X111723Y49264D01*
X111769Y49178D01*
X111832Y49104D01*
X111907Y49043D01*
X111993Y48998D01*
X112087Y48971D01*
X112184Y48963D01*
X110697Y48963D02*
X110793Y48971D01*
X110887Y48999D01*
X110973Y49045D01*
X111047Y49107D01*
X111108Y49183D01*
X111152Y49269D01*
X111178Y49363D01*
X111185Y49460D01*
X111185Y50463D02*
X111175Y50561D01*
X111147Y50654D01*
X111101Y50741D01*
X111039Y50817D01*
X110963Y50879D01*
X110876Y50925D01*
X110782Y50954D01*
X110685Y50963D01*
X93435Y49463D02*
X93444Y49367D01*
X93472Y49274D01*
X93517Y49188D01*
X93578Y49113D01*
X93653Y49050D01*
X93738Y49004D01*
X93830Y48974D01*
X93926Y48963D01*
X93935Y50963D02*
X93837Y50954D01*
X93744Y50925D01*
X93657Y50879D01*
X93581Y50817D01*
X93519Y50741D01*
X93473Y50654D01*
X93445Y50561D01*
X93435Y50463D01*
X92447Y48963D02*
X92543Y48971D01*
X92637Y48999D01*
X92723Y49045D01*
X92797Y49107D01*
X92858Y49183D01*
X92902Y49269D01*
X92928Y49363D01*
X92935Y49460D01*
X92935Y50463D02*
X92925Y50561D01*
X92897Y50654D01*
X92851Y50741D01*
X92788Y50817D01*
X92713Y50879D01*
X92626Y50925D01*
X92532Y50954D01*
X92435Y50963D01*
X93935Y48963D02*
X110685D01*
X75685D02*
X92435D01*
X75685Y50963D02*
X92435D01*
X93935D02*
X110685D01*
X112185Y48963D02*
X117685D01*
X112185Y50963D02*
X117685D01*
X75685Y60963D02*
X105185D01*
X75685Y51463D02*
X83185D01*
X75685Y54713D02*
X83185D01*
X75685Y55213D02*
X83185D01*
X75685Y58463D02*
X83185D01*
X75685Y58963D02*
X105185D01*
X84685Y58463D02*
X105185D01*
X84685Y53713D02*
X100685D01*
X84685Y51463D02*
X100685D01*
X102185D02*
X105185D01*
X102185Y53713D02*
X105185D01*
X106685Y51463D02*
X117685D01*
X106685Y60963D02*
X117685D01*
X84685Y54213D02*
X105185D01*
X106685D02*
X117685D01*
X106685Y53713D02*
X117685D01*
X92935Y49463D02*
Y50463D01*
X93435Y49463D02*
Y50463D01*
X111185Y49463D02*
Y50463D01*
X111685Y49463D02*
Y50463D01*
X75185Y51963D02*
Y54213D01*
X83685Y51963D02*
Y54213D01*
X75185Y55713D02*
Y57963D01*
X83685Y55713D02*
Y57963D01*
X75185Y59463D02*
Y60463D01*
X105685Y59463D02*
Y60463D01*
Y54713D02*
Y57963D01*
X84185Y54713D02*
Y57963D01*
X101185Y51963D02*
Y53213D01*
X84185Y51963D02*
Y53213D01*
X101685Y51963D02*
Y53213D01*
X105685Y51963D02*
Y53213D01*
X118185Y49463D02*
Y50463D01*
Y51963D02*
Y52963D01*
X75185Y49463D02*
Y50463D01*
X106185Y54713D02*
Y60463D01*
X118185Y54713D02*
Y60463D01*
X106185Y51963D02*
Y53213D01*
D42*
X64949Y108984D02*
X64906Y109070D01*
X64778Y109113D01*
X64692D01*
X64563Y109070D01*
X64478Y108942D01*
X64435Y108727D01*
Y108513D01*
X64478Y108342D01*
X64563Y108256D01*
X64692Y108213D01*
X64735D01*
X64863Y108256D01*
X64949Y108342D01*
X64992Y108470D01*
Y108513D01*
X64949Y108642D01*
X64863Y108727D01*
X64735Y108770D01*
X64692D01*
X64563Y108727D01*
X64478Y108642D01*
X64435Y108513D01*
X65232Y108299D02*
X65189Y108256D01*
X65232Y108213D01*
X65275Y108256D01*
X65232Y108299D01*
X65729Y109113D02*
X65600Y109070D01*
X65515Y108942D01*
X65472Y108727D01*
Y108599D01*
X65515Y108385D01*
X65600Y108256D01*
X65729Y108213D01*
X65815D01*
X65943Y108256D01*
X66029Y108385D01*
X66072Y108599D01*
Y108727D01*
X66029Y108942D01*
X65943Y109070D01*
X65815Y109113D01*
X65729D01*
X64863Y89113D02*
X64435Y88513D01*
X65078D01*
X64863Y89113D02*
Y88213D01*
X65279Y88299D02*
X65236Y88256D01*
X65279Y88213D01*
X65322Y88256D01*
X65279Y88299D01*
X65776Y89113D02*
X65648Y89070D01*
X65562Y88942D01*
X65519Y88727D01*
Y88599D01*
X65562Y88385D01*
X65648Y88256D01*
X65776Y88213D01*
X65862D01*
X65990Y88256D01*
X66076Y88385D01*
X66119Y88599D01*
Y88727D01*
X66076Y88942D01*
X65990Y89070D01*
X65862Y89113D01*
X65776D01*
X64478Y68899D02*
Y68942D01*
X64521Y69027D01*
X64563Y69070D01*
X64649Y69113D01*
X64821D01*
X64906Y69070D01*
X64949Y69027D01*
X64992Y68942D01*
Y68856D01*
X64949Y68770D01*
X64863Y68642D01*
X64435Y68213D01*
X65035D01*
X65279Y68299D02*
X65236Y68256D01*
X65279Y68213D01*
X65322Y68256D01*
X65279Y68299D01*
X65776Y69113D02*
X65648Y69070D01*
X65562Y68942D01*
X65519Y68727D01*
Y68599D01*
X65562Y68385D01*
X65648Y68256D01*
X65776Y68213D01*
X65862D01*
X65990Y68256D01*
X66076Y68385D01*
X66119Y68599D01*
Y68727D01*
X66076Y68942D01*
X65990Y69070D01*
X65862Y69113D01*
X65776D01*
X65817Y49113D02*
X65688Y49070D01*
X65603Y48942D01*
X65560Y48727D01*
Y48599D01*
X65603Y48385D01*
X65688Y48256D01*
X65817Y48213D01*
X65903D01*
X66031Y48256D01*
X66117Y48385D01*
X66160Y48599D01*
Y48727D01*
X66117Y48942D01*
X66031Y49070D01*
X65903Y49113D01*
X65817D01*
X64685Y58942D02*
X64771Y58984D01*
X64899Y59113D01*
Y58213D01*
X65388Y58299D02*
X65345Y58256D01*
X65388Y58213D01*
X65431Y58256D01*
X65388Y58299D01*
X65885Y59113D02*
X65756Y59070D01*
X65670Y58942D01*
X65628Y58727D01*
Y58599D01*
X65670Y58385D01*
X65756Y58256D01*
X65885Y58213D01*
X65970D01*
X66099Y58256D01*
X66185Y58385D01*
X66227Y58599D01*
Y58727D01*
X66185Y58942D01*
X66099Y59070D01*
X65970Y59113D01*
X65885D01*
X64521Y79113D02*
X64992D01*
X64735Y78770D01*
X64863D01*
X64949Y78727D01*
X64992Y78684D01*
X65035Y78556D01*
Y78470D01*
X64992Y78342D01*
X64906Y78256D01*
X64778Y78213D01*
X64649D01*
X64521Y78256D01*
X64478Y78299D01*
X64435Y78385D01*
X65279Y78299D02*
X65236Y78256D01*
X65279Y78213D01*
X65322Y78256D01*
X65279Y78299D01*
X65776Y79113D02*
X65648Y79070D01*
X65562Y78942D01*
X65519Y78727D01*
Y78599D01*
X65562Y78385D01*
X65648Y78256D01*
X65776Y78213D01*
X65862D01*
X65990Y78256D01*
X66076Y78385D01*
X66119Y78599D01*
Y78727D01*
X66076Y78942D01*
X65990Y79070D01*
X65862Y79113D01*
X65776D01*
X64949Y99113D02*
X64521D01*
X64478Y98727D01*
X64521Y98770D01*
X64649Y98813D01*
X64778D01*
X64906Y98770D01*
X64992Y98684D01*
X65035Y98556D01*
Y98470D01*
X64992Y98342D01*
X64906Y98256D01*
X64778Y98213D01*
X64649D01*
X64521Y98256D01*
X64478Y98299D01*
X64435Y98385D01*
X65279Y98299D02*
X65236Y98256D01*
X65279Y98213D01*
X65322Y98256D01*
X65279Y98299D01*
X65776Y99113D02*
X65648Y99070D01*
X65562Y98942D01*
X65519Y98727D01*
Y98599D01*
X65562Y98385D01*
X65648Y98256D01*
X65776Y98213D01*
X65862D01*
X65990Y98256D01*
X66076Y98385D01*
X66119Y98599D01*
Y98727D01*
X66076Y98942D01*
X65990Y99070D01*
X65862Y99113D01*
X65776D01*
X142085Y42613D02*
X141185Y43042D01*
X142085Y43213D02*
Y42613D01*
X141271Y42369D02*
X141228Y42412D01*
X141185Y42369D01*
X141228Y42326D01*
X141271Y42369D01*
X142085Y41872D02*
X142042Y42001D01*
X141913Y42086D01*
X141699Y42129D01*
X141571D01*
X141356Y42086D01*
X141228Y42001D01*
X141185Y41872D01*
Y41786D01*
X141228Y41658D01*
X141356Y41572D01*
X141571Y41529D01*
X141699D01*
X141913Y41572D01*
X142042Y41658D01*
X142085Y41786D01*
Y41872D01*
X122085Y42699D02*
Y43127D01*
X121699Y43170D01*
X121742Y43127D01*
X121785Y42999D01*
Y42870D01*
X121742Y42742D01*
X121656Y42656D01*
X121528Y42613D01*
X121442D01*
X121313Y42656D01*
X121228Y42742D01*
X121185Y42870D01*
Y42999D01*
X121228Y43127D01*
X121271Y43170D01*
X121356Y43213D01*
X121271Y42369D02*
X121228Y42412D01*
X121185Y42369D01*
X121228Y42326D01*
X121271Y42369D01*
X122085Y41872D02*
X122042Y42001D01*
X121913Y42086D01*
X121699Y42129D01*
X121571D01*
X121356Y42086D01*
X121228Y42001D01*
X121185Y41872D01*
Y41786D01*
X121228Y41658D01*
X121356Y41572D01*
X121571Y41529D01*
X121699D01*
X121913Y41572D01*
X122042Y41658D01*
X122085Y41786D01*
Y41872D01*
X102085Y43127D02*
Y42656D01*
X101742Y42913D01*
Y42785D01*
X101699Y42699D01*
X101656Y42656D01*
X101528Y42613D01*
X101442D01*
X101313Y42656D01*
X101228Y42742D01*
X101185Y42870D01*
Y42999D01*
X101228Y43127D01*
X101271Y43170D01*
X101356Y43213D01*
X101271Y42369D02*
X101228Y42412D01*
X101185Y42369D01*
X101228Y42326D01*
X101271Y42369D01*
X102085Y41872D02*
X102042Y42001D01*
X101913Y42086D01*
X101699Y42129D01*
X101571D01*
X101356Y42086D01*
X101228Y42001D01*
X101185Y41872D01*
Y41786D01*
X101228Y41658D01*
X101356Y41572D01*
X101571Y41529D01*
X101699D01*
X101913Y41572D01*
X102042Y41658D01*
X102085Y41786D01*
Y41872D01*
X81913Y43213D02*
X81956Y43127D01*
X82085Y42999D01*
X81185D01*
X81271Y42510D02*
X81228Y42553D01*
X81185Y42510D01*
X81228Y42468D01*
X81271Y42510D01*
X82085Y42013D02*
X82042Y42142D01*
X81913Y42228D01*
X81699Y42270D01*
X81571D01*
X81356Y42228D01*
X81228Y42142D01*
X81185Y42013D01*
Y41928D01*
X81228Y41799D01*
X81356Y41713D01*
X81571Y41671D01*
X81699D01*
X81913Y41713D01*
X82042Y41799D01*
X82085Y41928D01*
Y42013D01*
X72085Y42956D02*
X72042Y43085D01*
X71913Y43170D01*
X71699Y43213D01*
X71571D01*
X71356Y43170D01*
X71228Y43085D01*
X71185Y42956D01*
Y42870D01*
X71228Y42742D01*
X71356Y42656D01*
X71571Y42613D01*
X71699D01*
X71913Y42656D01*
X72042Y42742D01*
X72085Y42870D01*
Y42956D01*
X91871Y43170D02*
X91913D01*
X91999Y43127D01*
X92042Y43085D01*
X92085Y42999D01*
Y42828D01*
X92042Y42742D01*
X91999Y42699D01*
X91913Y42656D01*
X91828D01*
X91742Y42699D01*
X91613Y42785D01*
X91185Y43213D01*
Y42613D01*
X91271Y42369D02*
X91228Y42412D01*
X91185Y42369D01*
X91228Y42326D01*
X91271Y42369D01*
X92085Y41872D02*
X92042Y42001D01*
X91913Y42086D01*
X91699Y42129D01*
X91571D01*
X91356Y42086D01*
X91228Y42001D01*
X91185Y41872D01*
Y41786D01*
X91228Y41658D01*
X91356Y41572D01*
X91571Y41529D01*
X91699D01*
X91913Y41572D01*
X92042Y41658D01*
X92085Y41786D01*
Y41872D01*
X112085Y42785D02*
X111485Y43213D01*
Y42570D01*
X112085Y42785D02*
X111185D01*
X111271Y42369D02*
X111228Y42412D01*
X111185Y42369D01*
X111228Y42326D01*
X111271Y42369D01*
X112085Y41872D02*
X112042Y42001D01*
X111913Y42086D01*
X111699Y42129D01*
X111571D01*
X111356Y42086D01*
X111228Y42001D01*
X111185Y41872D01*
Y41786D01*
X111228Y41658D01*
X111356Y41572D01*
X111571Y41529D01*
X111699D01*
X111913Y41572D01*
X112042Y41658D01*
X112085Y41786D01*
Y41872D01*
X131956Y42699D02*
X132042Y42742D01*
X132085Y42870D01*
Y42956D01*
X132042Y43085D01*
X131913Y43170D01*
X131699Y43213D01*
X131485D01*
X131313Y43170D01*
X131228Y43085D01*
X131185Y42956D01*
Y42913D01*
X131228Y42785D01*
X131313Y42699D01*
X131442Y42656D01*
X131485D01*
X131613Y42699D01*
X131699Y42785D01*
X131742Y42913D01*
Y42956D01*
X131699Y43085D01*
X131613Y43170D01*
X131485Y43213D01*
X131271Y42416D02*
X131228Y42459D01*
X131185Y42416D01*
X131228Y42373D01*
X131271Y42416D01*
X132085Y41919D02*
X132042Y42048D01*
X131913Y42133D01*
X131699Y42176D01*
X131571D01*
X131356Y42133D01*
X131228Y42048D01*
X131185Y41919D01*
Y41833D01*
X131228Y41705D01*
X131356Y41619D01*
X131571Y41576D01*
X131699D01*
X131913Y41619D01*
X132042Y41705D01*
X132085Y41833D01*
Y41919D01*
X69810Y46113D02*
X70410Y45213D01*
Y46113D02*
X69810Y45213D01*
X69085Y47338D02*
X68656Y46995D01*
X68185D01*
X69085Y46653D02*
X68656Y46995D01*
X108935Y52817D02*
X109021Y52859D01*
X109149Y52988D01*
Y52088D01*
X110109Y52859D02*
X110066Y52945D01*
X109938Y52988D01*
X109852D01*
X109723Y52945D01*
X109638Y52817D01*
X109595Y52602D01*
Y52388D01*
X109638Y52217D01*
X109723Y52131D01*
X109852Y52088D01*
X109895D01*
X110023Y52131D01*
X110109Y52217D01*
X110152Y52345D01*
Y52388D01*
X110109Y52517D01*
X110023Y52602D01*
X109895Y52645D01*
X109852D01*
X109723Y52602D01*
X109638Y52517D01*
X109595Y52388D01*
X110349Y52474D02*
X111120D01*
X112071Y52088D02*
X111729Y52988D01*
X111386Y52088D01*
X111514Y52388D02*
X111943D01*
X112281Y52688D02*
Y51788D01*
Y52559D02*
X112367Y52645D01*
X112453Y52688D01*
X112581D01*
X112667Y52645D01*
X112753Y52559D01*
X112796Y52431D01*
Y52345D01*
X112753Y52217D01*
X112667Y52131D01*
X112581Y52088D01*
X112453D01*
X112367Y52131D01*
X112281Y52217D01*
X112988Y52688D02*
Y52088D01*
Y52431D02*
X113031Y52559D01*
X113117Y52645D01*
X113203Y52688D01*
X113331D01*
X113413Y52474D02*
X114184D01*
X114492Y52774D02*
Y52817D01*
X114535Y52902D01*
X114578Y52945D01*
X114664Y52988D01*
X114835D01*
X114921Y52945D01*
X114964Y52902D01*
X115007Y52817D01*
Y52731D01*
X114964Y52645D01*
X114878Y52517D01*
X114449Y52088D01*
X115049D01*
X115508Y52988D02*
X115379Y52945D01*
X115294Y52817D01*
X115251Y52602D01*
Y52474D01*
X115294Y52260D01*
X115379Y52131D01*
X115508Y52088D01*
X115594D01*
X115722Y52131D01*
X115808Y52260D01*
X115851Y52474D01*
Y52602D01*
X115808Y52817D01*
X115722Y52945D01*
X115594Y52988D01*
X115508D01*
X116052Y52817D02*
X116138Y52859D01*
X116266Y52988D01*
Y52088D01*
X117140Y52988D02*
X116712Y52388D01*
X117355D01*
X117140Y52988D02*
Y52088D01*
X109885Y56763D02*
Y55863D01*
X110485Y56763D02*
Y55863D01*
X109885Y56334D02*
X110485D01*
X111290Y56763D02*
X110733D01*
Y55863D01*
X111290D01*
X110733Y56334D02*
X111076D01*
X111440Y56763D02*
Y55863D01*
Y56763D02*
X111826D01*
X111955Y56720D01*
X111997Y56677D01*
X112040Y56592D01*
Y56506D01*
X111997Y56420D01*
X111955Y56377D01*
X111826Y56334D01*
X111440D01*
X111740D02*
X112040Y55863D01*
X112799Y56763D02*
X112242D01*
Y55863D01*
X112799D01*
X112242Y56334D02*
X112584D01*
X109885Y58363D02*
Y57463D01*
X110399D01*
X110755Y58363D02*
X110669Y58320D01*
X110583Y58234D01*
X110541Y58149D01*
X110498Y58020D01*
Y57806D01*
X110541Y57677D01*
X110583Y57592D01*
X110669Y57506D01*
X110755Y57463D01*
X110926D01*
X111012Y57506D01*
X111098Y57592D01*
X111140Y57677D01*
X111183Y57806D01*
Y58020D01*
X111140Y58149D01*
X111098Y58234D01*
X111012Y58320D01*
X110926Y58363D01*
X110755D01*
X112036Y58149D02*
X111993Y58234D01*
X111907Y58320D01*
X111822Y58363D01*
X111650D01*
X111565Y58320D01*
X111479Y58234D01*
X111436Y58149D01*
X111393Y58020D01*
Y57806D01*
X111436Y57677D01*
X111479Y57592D01*
X111565Y57506D01*
X111650Y57463D01*
X111822D01*
X111907Y57506D01*
X111993Y57592D01*
X112036Y57677D01*
Y57806D01*
X111822D02*
X112036D01*
X112499Y58363D02*
X112413Y58320D01*
X112327Y58234D01*
X112284Y58149D01*
X112242Y58020D01*
Y57806D01*
X112284Y57677D01*
X112327Y57592D01*
X112413Y57506D01*
X112499Y57463D01*
X112670D01*
X112756Y57506D01*
X112841Y57592D01*
X112884Y57677D01*
X112927Y57806D01*
Y58020D01*
X112884Y58149D01*
X112841Y58234D01*
X112756Y58320D01*
X112670Y58363D01*
X112499D01*
X109885Y59292D02*
X110271D01*
X110399Y59334D01*
X110442Y59377D01*
X110485Y59463D01*
Y59592D01*
X110442Y59677D01*
X110399Y59720D01*
X110271Y59763D01*
X109885D01*
Y58863D01*
X110686Y59763D02*
Y58863D01*
X111200D01*
X111985D02*
X111642Y59763D01*
X111299Y58863D01*
X111427Y59163D02*
X111856D01*
X112837Y59549D02*
X112794Y59634D01*
X112709Y59720D01*
X112623Y59763D01*
X112452D01*
X112366Y59720D01*
X112280Y59634D01*
X112237Y59549D01*
X112194Y59420D01*
Y59206D01*
X112237Y59077D01*
X112280Y58992D01*
X112366Y58906D01*
X112452Y58863D01*
X112623D01*
X112709Y58906D01*
X112794Y58992D01*
X112837Y59077D01*
X113647Y59763D02*
X113090D01*
Y58863D01*
X113647D01*
X113090Y59334D02*
X113433D01*
X104067Y52988D02*
X103938Y52945D01*
X103853Y52817D01*
X103810Y52602D01*
Y52474D01*
X103853Y52260D01*
X103938Y52131D01*
X104067Y52088D01*
X104153D01*
X104281Y52131D01*
X104367Y52260D01*
X104410Y52474D01*
Y52602D01*
X104367Y52817D01*
X104281Y52945D01*
X104153Y52988D01*
X104067D01*
X104611Y52817D02*
X104697Y52859D01*
X104825Y52988D01*
Y52088D01*
X96485Y50363D02*
Y49463D01*
Y50363D02*
X96871D01*
X96999Y50320D01*
X97042Y50277D01*
X97085Y50192D01*
Y50106D01*
X97042Y50020D01*
X96999Y49977D01*
X96871Y49934D01*
X96485D02*
X96871D01*
X96999Y49892D01*
X97042Y49849D01*
X97085Y49763D01*
Y49635D01*
X97042Y49549D01*
X96999Y49506D01*
X96871Y49463D01*
X96485D01*
X97500Y50063D02*
X97415Y50020D01*
X97329Y49934D01*
X97286Y49806D01*
Y49720D01*
X97329Y49592D01*
X97415Y49506D01*
X97500Y49463D01*
X97629D01*
X97715Y49506D01*
X97800Y49592D01*
X97843Y49720D01*
Y49806D01*
X97800Y49934D01*
X97715Y50020D01*
X97629Y50063D01*
X97500D01*
X98169Y50363D02*
Y49635D01*
X98212Y49506D01*
X98297Y49463D01*
X98383D01*
X98040Y50063D02*
X98340D01*
X98640Y50363D02*
Y49635D01*
X98683Y49506D01*
X98769Y49463D01*
X98854D01*
X98512Y50063D02*
X98812D01*
X99197D02*
X99112Y50020D01*
X99026Y49934D01*
X98983Y49806D01*
Y49720D01*
X99026Y49592D01*
X99112Y49506D01*
X99197Y49463D01*
X99326D01*
X99411Y49506D01*
X99497Y49592D01*
X99540Y49720D01*
Y49806D01*
X99497Y49934D01*
X99411Y50020D01*
X99326Y50063D01*
X99197D01*
X99737D02*
Y49463D01*
Y49892D02*
X99866Y50020D01*
X99951Y50063D01*
X100080D01*
X100166Y50020D01*
X100208Y49892D01*
Y49463D01*
Y49892D02*
X100337Y50020D01*
X100423Y50063D01*
X100551D01*
X100637Y50020D01*
X100680Y49892D01*
Y49463D01*
X101927Y50363D02*
X101841Y50320D01*
X101755Y50234D01*
X101712Y50149D01*
X101670Y50020D01*
Y49806D01*
X101712Y49677D01*
X101755Y49592D01*
X101841Y49506D01*
X101927Y49463D01*
X102098D01*
X102184Y49506D01*
X102269Y49592D01*
X102312Y49677D01*
X102355Y49806D01*
Y50020D01*
X102312Y50149D01*
X102269Y50234D01*
X102184Y50320D01*
X102098Y50363D01*
X101927D01*
X102565Y50063D02*
X102822Y49463D01*
X103079Y50063D02*
X102822Y49463D01*
X103225Y49806D02*
X103739D01*
Y49892D01*
X103696Y49977D01*
X103653Y50020D01*
X103568Y50063D01*
X103439D01*
X103353Y50020D01*
X103268Y49934D01*
X103225Y49806D01*
Y49720D01*
X103268Y49592D01*
X103353Y49506D01*
X103439Y49463D01*
X103568D01*
X103653Y49506D01*
X103739Y49592D01*
X103932Y50063D02*
Y49463D01*
Y49806D02*
X103975Y49934D01*
X104060Y50020D01*
X104146Y50063D01*
X104275D01*
X104356Y50363D02*
Y49463D01*
X105059Y50063D02*
Y49463D01*
Y49934D02*
X104973Y50020D01*
X104887Y50063D01*
X104759D01*
X104673Y50020D01*
X104587Y49934D01*
X104545Y49806D01*
Y49720D01*
X104587Y49592D01*
X104673Y49506D01*
X104759Y49463D01*
X104887D01*
X104973Y49506D01*
X105059Y49592D01*
X105342Y50063D02*
X105599Y49463D01*
X105856Y50063D02*
X105599Y49463D01*
X105513Y49292D01*
X105427Y49206D01*
X105342Y49163D01*
X105299D01*
X79685Y50363D02*
Y49463D01*
X80473Y50234D02*
X80388Y50320D01*
X80259Y50363D01*
X80088D01*
X79959Y50320D01*
X79873Y50234D01*
Y50149D01*
X79916Y50063D01*
X79959Y50020D01*
X80045Y49977D01*
X80302Y49892D01*
X80388Y49849D01*
X80430Y49806D01*
X80473Y49720D01*
Y49592D01*
X80388Y49506D01*
X80259Y49463D01*
X80088D01*
X79959Y49506D01*
X79873Y49592D01*
X80675Y50363D02*
Y49463D01*
X81189D01*
X81844Y50063D02*
X81802Y49934D01*
X81716Y49849D01*
X81587Y49806D01*
X81545D01*
X81416Y49849D01*
X81330Y49934D01*
X81287Y50063D01*
Y50106D01*
X81330Y50234D01*
X81416Y50320D01*
X81545Y50363D01*
X81587D01*
X81716Y50320D01*
X81802Y50234D01*
X81844Y50063D01*
Y49849D01*
X81802Y49635D01*
X81716Y49506D01*
X81587Y49463D01*
X81502D01*
X81373Y49506D01*
X81330Y49592D01*
X82517Y50363D02*
X82089Y49763D01*
X82731D01*
X82517Y50363D02*
Y49463D01*
X82933Y50149D02*
Y50192D01*
X82976Y50277D01*
X83019Y50320D01*
X83104Y50363D01*
X83276D01*
X83361Y50320D01*
X83404Y50277D01*
X83447Y50192D01*
Y50106D01*
X83404Y50020D01*
X83318Y49892D01*
X82890Y49463D01*
X83490D01*
X83948Y50363D02*
X83820Y50320D01*
X83734Y50192D01*
X83691Y49977D01*
Y49849D01*
X83734Y49635D01*
X83820Y49506D01*
X83948Y49463D01*
X84034D01*
X84163Y49506D01*
X84248Y49635D01*
X84291Y49849D01*
Y49977D01*
X84248Y50192D01*
X84163Y50320D01*
X84034Y50363D01*
X83948D01*
X84578D02*
X85050D01*
X84792Y50020D01*
X84921D01*
X85007Y49977D01*
X85050Y49934D01*
X85092Y49806D01*
Y49720D01*
X85050Y49592D01*
X84964Y49506D01*
X84835Y49463D01*
X84707D01*
X84578Y49506D01*
X84535Y49549D01*
X84492Y49635D01*
X85851Y50363D02*
X85294D01*
Y49463D01*
X85851D01*
X85294Y49934D02*
X85637D01*
X86001Y50363D02*
X86344Y49463D01*
X86686Y50363D02*
X86344Y49463D01*
X87488D02*
X87145Y50363D01*
X86802Y49463D01*
X86931Y49763D02*
X87359D01*
X87698Y50363D02*
Y49463D01*
X88212D01*
X88310Y50192D02*
X88396Y50234D01*
X88524Y50363D01*
Y49463D01*
X89570Y50363D02*
X88970Y49463D01*
Y50363D02*
X89570D01*
X88970Y49463D02*
X89570D01*
X90478Y50363D02*
Y49463D01*
Y50363D02*
X90864D01*
X90993Y50320D01*
X91035Y50277D01*
X91078Y50192D01*
Y50106D01*
X91035Y50020D01*
X90993Y49977D01*
X90864Y49934D01*
X90478D01*
X90778D02*
X91078Y49463D01*
X91280Y49806D02*
X91794D01*
Y49892D01*
X91751Y49977D01*
X91708Y50020D01*
X91622Y50063D01*
X91494D01*
X91408Y50020D01*
X91322Y49934D01*
X91280Y49806D01*
Y49720D01*
X91322Y49592D01*
X91408Y49506D01*
X91494Y49463D01*
X91622D01*
X91708Y49506D01*
X91794Y49592D01*
X91987Y50063D02*
X92244Y49463D01*
X92501Y50063D02*
X92244Y49463D01*
X92646Y50363D02*
Y49463D01*
Y50363D02*
X92946D01*
X93075Y50320D01*
X93161Y50234D01*
X93203Y50149D01*
X93246Y50020D01*
Y49806D01*
X93203Y49677D01*
X93161Y49592D01*
X93075Y49506D01*
X92946Y49463D01*
X92646D01*
X93491Y49549D02*
X93448Y49506D01*
X93491Y49463D01*
X93533Y49506D01*
X93491Y49549D01*
X93731Y49892D02*
X94116D01*
X94245Y49934D01*
X94288Y49977D01*
X94330Y50063D01*
Y50192D01*
X94288Y50277D01*
X94245Y50320D01*
X94116Y50363D01*
X93731D01*
Y49463D01*
X95174Y50149D02*
X95132Y50234D01*
X95046Y50320D01*
X94960Y50363D01*
X94789D01*
X94703Y50320D01*
X94617Y50234D01*
X94575Y50149D01*
X94532Y50020D01*
Y49806D01*
X94575Y49677D01*
X94617Y49592D01*
X94703Y49506D01*
X94789Y49463D01*
X94960D01*
X95046Y49506D01*
X95132Y49592D01*
X95174Y49677D01*
X95427Y50363D02*
Y49463D01*
Y50363D02*
X95813D01*
X95941Y50320D01*
X95984Y50277D01*
X96027Y50192D01*
Y50106D01*
X95984Y50020D01*
X95941Y49977D01*
X95813Y49934D01*
X95427D02*
X95813D01*
X95941Y49892D01*
X95984Y49849D01*
X96027Y49763D01*
Y49635D01*
X95984Y49549D01*
X95941Y49506D01*
X95813Y49463D01*
X95427D01*
X90935Y56863D02*
Y55963D01*
X91723Y56734D02*
X91638Y56820D01*
X91509Y56863D01*
X91338D01*
X91209Y56820D01*
X91123Y56734D01*
Y56649D01*
X91166Y56563D01*
X91209Y56520D01*
X91295Y56477D01*
X91552Y56392D01*
X91638Y56349D01*
X91680Y56306D01*
X91723Y56220D01*
Y56092D01*
X91638Y56006D01*
X91509Y55963D01*
X91338D01*
X91209Y56006D01*
X91123Y56092D01*
X91925Y56863D02*
Y55963D01*
X92439D01*
X93094Y56563D02*
X93052Y56434D01*
X92966Y56349D01*
X92837Y56306D01*
X92795D01*
X92666Y56349D01*
X92580Y56434D01*
X92537Y56563D01*
Y56606D01*
X92580Y56734D01*
X92666Y56820D01*
X92795Y56863D01*
X92837D01*
X92966Y56820D01*
X93052Y56734D01*
X93094Y56563D01*
Y56349D01*
X93052Y56135D01*
X92966Y56006D01*
X92837Y55963D01*
X92752D01*
X92623Y56006D01*
X92580Y56092D01*
X93767Y56863D02*
X93339Y56263D01*
X93981D01*
X93767Y56863D02*
Y55963D01*
X94183Y56649D02*
Y56692D01*
X94226Y56777D01*
X94269Y56820D01*
X94354Y56863D01*
X94526D01*
X94611Y56820D01*
X94654Y56777D01*
X94697Y56692D01*
Y56606D01*
X94654Y56520D01*
X94568Y56392D01*
X94140Y55963D01*
X94740D01*
X95198Y56863D02*
X95070Y56820D01*
X94984Y56692D01*
X94941Y56477D01*
Y56349D01*
X94984Y56135D01*
X95070Y56006D01*
X95198Y55963D01*
X95284D01*
X95413Y56006D01*
X95498Y56135D01*
X95541Y56349D01*
Y56477D01*
X95498Y56692D01*
X95413Y56820D01*
X95284Y56863D01*
X95198D01*
X95828D02*
X96300D01*
X96042Y56520D01*
X96171D01*
X96257Y56477D01*
X96300Y56434D01*
X96342Y56306D01*
Y56220D01*
X96300Y56092D01*
X96214Y56006D01*
X96085Y55963D01*
X95957D01*
X95828Y56006D01*
X95785Y56049D01*
X95742Y56135D01*
X97808Y56863D02*
X97251D01*
Y55963D01*
X97808D01*
X97251Y56434D02*
X97594D01*
X97958Y56563D02*
X98215Y55963D01*
X98472Y56563D02*
X98215Y55963D01*
X99132Y56563D02*
Y55963D01*
Y56434D02*
X99046Y56520D01*
X98960Y56563D01*
X98832D01*
X98746Y56520D01*
X98660Y56434D01*
X98618Y56306D01*
Y56220D01*
X98660Y56092D01*
X98746Y56006D01*
X98832Y55963D01*
X98960D01*
X99046Y56006D01*
X99132Y56092D01*
X99372Y56863D02*
Y55963D01*
X99560Y56563D02*
Y56135D01*
X99603Y56006D01*
X99689Y55963D01*
X99817D01*
X99903Y56006D01*
X100032Y56135D01*
Y56563D02*
Y55963D01*
X100781Y56563D02*
Y55963D01*
Y56434D02*
X100696Y56520D01*
X100610Y56563D01*
X100481D01*
X100396Y56520D01*
X100310Y56434D01*
X100267Y56306D01*
Y56220D01*
X100310Y56092D01*
X100396Y56006D01*
X100481Y55963D01*
X100610D01*
X100696Y56006D01*
X100781Y56092D01*
X101150Y56863D02*
Y56135D01*
X101193Y56006D01*
X101278Y55963D01*
X101364D01*
X101021Y56563D02*
X101321D01*
X101578Y56863D02*
X101621Y56820D01*
X101664Y56863D01*
X101621Y56906D01*
X101578Y56863D01*
X101621Y56563D02*
Y55963D01*
X102037Y56563D02*
X101951Y56520D01*
X101865Y56434D01*
X101823Y56306D01*
Y56220D01*
X101865Y56092D01*
X101951Y56006D01*
X102037Y55963D01*
X102165D01*
X102251Y56006D01*
X102337Y56092D01*
X102380Y56220D01*
Y56306D01*
X102337Y56434D01*
X102251Y56520D01*
X102165Y56563D01*
X102037D01*
X102577D02*
Y55963D01*
Y56392D02*
X102705Y56520D01*
X102791Y56563D01*
X102920D01*
X103005Y56520D01*
X103048Y56392D01*
Y55963D01*
X103991Y56863D02*
Y55963D01*
Y56863D02*
X104376D01*
X104505Y56820D01*
X104548Y56777D01*
X104591Y56692D01*
Y56606D01*
X104548Y56520D01*
X104505Y56477D01*
X104376Y56434D01*
X103991D02*
X104376D01*
X104505Y56392D01*
X104548Y56349D01*
X104591Y56263D01*
Y56135D01*
X104548Y56049D01*
X104505Y56006D01*
X104376Y55963D01*
X103991D01*
X105006Y56563D02*
X104921Y56520D01*
X104835Y56434D01*
X104792Y56306D01*
Y56220D01*
X104835Y56092D01*
X104921Y56006D01*
X105006Y55963D01*
X105135D01*
X105220Y56006D01*
X105306Y56092D01*
X105349Y56220D01*
Y56306D01*
X105306Y56434D01*
X105220Y56520D01*
X105135Y56563D01*
X105006D01*
X106060D02*
Y55963D01*
Y56434D02*
X105975Y56520D01*
X105889Y56563D01*
X105760D01*
X105675Y56520D01*
X105589Y56434D01*
X105546Y56306D01*
Y56220D01*
X105589Y56092D01*
X105675Y56006D01*
X105760Y55963D01*
X105889D01*
X105975Y56006D01*
X106060Y56092D01*
X106300Y56563D02*
Y55963D01*
Y56306D02*
X106343Y56434D01*
X106429Y56520D01*
X106514Y56563D01*
X106643D01*
X107239Y56863D02*
Y55963D01*
Y56434D02*
X107153Y56520D01*
X107067Y56563D01*
X106939D01*
X106853Y56520D01*
X106767Y56434D01*
X106724Y56306D01*
Y56220D01*
X106767Y56092D01*
X106853Y56006D01*
X106939Y55963D01*
X107067D01*
X107153Y56006D01*
X107239Y56092D01*
X85985Y60413D02*
Y59513D01*
X86173Y60113D02*
Y59513D01*
Y59942D02*
X86302Y60070D01*
X86388Y60113D01*
X86516D01*
X86602Y60070D01*
X86645Y59942D01*
Y59513D01*
X87009Y60413D02*
Y59685D01*
X87052Y59556D01*
X87138Y59513D01*
X87223D01*
X86880Y60113D02*
X87180D01*
X87352Y59856D02*
X87866D01*
Y59942D01*
X87823Y60027D01*
X87780Y60070D01*
X87695Y60113D01*
X87566D01*
X87480Y60070D01*
X87395Y59984D01*
X87352Y59856D01*
Y59770D01*
X87395Y59642D01*
X87480Y59556D01*
X87566Y59513D01*
X87695D01*
X87780Y59556D01*
X87866Y59642D01*
X88059Y60113D02*
Y59513D01*
Y59856D02*
X88102Y59984D01*
X88187Y60070D01*
X88273Y60113D01*
X88402D01*
X88954Y59984D02*
X88911Y60070D01*
X88783Y60113D01*
X88654D01*
X88526Y60070D01*
X88483Y59984D01*
X88526Y59899D01*
X88612Y59856D01*
X88826Y59813D01*
X88911Y59770D01*
X88954Y59685D01*
Y59642D01*
X88911Y59556D01*
X88783Y59513D01*
X88654D01*
X88526Y59556D01*
X88483Y59642D01*
X89229Y60413D02*
X89271Y60370D01*
X89314Y60413D01*
X89271Y60456D01*
X89229Y60413D01*
X89271Y60113D02*
Y59513D01*
X89473Y60413D02*
Y59513D01*
X90685Y52988D02*
Y52088D01*
X91473Y52859D02*
X91388Y52945D01*
X91259Y52988D01*
X91088D01*
X90959Y52945D01*
X90873Y52859D01*
Y52774D01*
X90916Y52688D01*
X90959Y52645D01*
X91045Y52602D01*
X91302Y52517D01*
X91388Y52474D01*
X91431Y52431D01*
X91473Y52345D01*
Y52217D01*
X91388Y52131D01*
X91259Y52088D01*
X91088D01*
X90959Y52131D01*
X90873Y52217D01*
X91675Y52988D02*
Y52088D01*
X92189D01*
X92844Y52688D02*
X92802Y52559D01*
X92716Y52474D01*
X92587Y52431D01*
X92545D01*
X92416Y52474D01*
X92330Y52559D01*
X92287Y52688D01*
Y52731D01*
X92330Y52859D01*
X92416Y52945D01*
X92545Y52988D01*
X92587D01*
X92716Y52945D01*
X92802Y52859D01*
X92844Y52688D01*
Y52474D01*
X92802Y52260D01*
X92716Y52131D01*
X92587Y52088D01*
X92502D01*
X92373Y52131D01*
X92330Y52217D01*
X93517Y52988D02*
X93089Y52388D01*
X93731D01*
X93517Y52988D02*
Y52088D01*
X93933Y52774D02*
Y52817D01*
X93976Y52902D01*
X94019Y52945D01*
X94104Y52988D01*
X94276D01*
X94361Y52945D01*
X94404Y52902D01*
X94447Y52817D01*
Y52731D01*
X94404Y52645D01*
X94318Y52517D01*
X93890Y52088D01*
X94490D01*
X94948Y52988D02*
X94820Y52945D01*
X94734Y52817D01*
X94691Y52602D01*
Y52474D01*
X94734Y52260D01*
X94820Y52131D01*
X94948Y52088D01*
X95034D01*
X95163Y52131D01*
X95248Y52260D01*
X95291Y52474D01*
Y52602D01*
X95248Y52817D01*
X95163Y52945D01*
X95034Y52988D01*
X94948D01*
X95578D02*
X96050D01*
X95792Y52645D01*
X95921D01*
X96007Y52602D01*
X96050Y52559D01*
X96092Y52431D01*
Y52345D01*
X96050Y52217D01*
X95964Y52131D01*
X95835Y52088D01*
X95707D01*
X95578Y52131D01*
X95535Y52174D01*
X95492Y52260D01*
X96851Y52988D02*
X96294D01*
Y52088D01*
X96851D01*
X96294Y52559D02*
X96637D01*
X97001Y52988D02*
X97344Y52088D01*
X97686Y52988D02*
X97344Y52088D01*
X98488D02*
X98145Y52988D01*
X97802Y52088D01*
X97931Y52388D02*
X98359D01*
X98698Y52988D02*
Y52088D01*
X99212D01*
X99310Y52817D02*
X99396Y52859D01*
X99524Y52988D01*
Y52088D01*
X100570Y52988D02*
X99970Y52088D01*
Y52988D02*
X100570D01*
X99970Y52088D02*
X100570D01*
D45*
X90876Y68153D02*
X90476D01*
X90876Y68553D01*
Y68653D01*
X90776Y68753D01*
X90576D01*
X90476Y68653D01*
X91475Y68753D02*
X91076D01*
Y68453D01*
X91276Y68553D01*
X91376D01*
X91475Y68453D01*
Y68253D01*
X91376Y68153D01*
X91176D01*
X91076Y68253D01*
X91675Y68653D02*
X91775Y68753D01*
X91975D01*
X92075Y68653D01*
Y68253D01*
X91975Y68153D01*
X91775D01*
X91675Y68253D01*
Y68653D01*
X92275D02*
X92375Y68753D01*
X92575D01*
X92675Y68653D01*
Y68253D01*
X92575Y68153D01*
X92375D01*
X92275Y68253D01*
Y68653D01*
X93675Y68153D02*
X93475Y68353D01*
Y68553D01*
X93675Y68753D01*
X93975Y68153D02*
Y68553D01*
X94075D01*
X94175Y68453D01*
Y68153D01*
Y68453D01*
X94275Y68553D01*
X94375Y68453D01*
Y68153D01*
X94574D02*
X94774D01*
X94674D01*
Y68553D01*
X94574D01*
X95074Y68153D02*
X95274D01*
X95174D01*
Y68753D01*
X95074D01*
X95574Y68153D02*
X95774Y68353D01*
Y68553D01*
X95574Y68753D01*
X78045Y84504D02*
X77945Y84604D01*
Y84804D01*
X78045Y84904D01*
X78145D01*
X78245Y84804D01*
Y84704D01*
Y84804D01*
X78345Y84904D01*
X78445D01*
X78545Y84804D01*
Y84604D01*
X78445Y84504D01*
X77945Y85504D02*
Y85104D01*
X78245D01*
X78145Y85304D01*
Y85404D01*
X78245Y85504D01*
X78445D01*
X78545Y85404D01*
Y85204D01*
X78445Y85104D01*
X78045Y85704D02*
X77945Y85804D01*
Y86004D01*
X78045Y86103D01*
X78445D01*
X78545Y86004D01*
Y85804D01*
X78445Y85704D01*
X78045D01*
Y86303D02*
X77945Y86403D01*
Y86603D01*
X78045Y86703D01*
X78445D01*
X78545Y86603D01*
Y86403D01*
X78445Y86303D01*
X78045D01*
X78545Y87703D02*
X78345Y87503D01*
X78145D01*
X77945Y87703D01*
X78545Y88003D02*
X78145D01*
Y88103D01*
X78245Y88203D01*
X78545D01*
X78245D01*
X78145Y88303D01*
X78245Y88403D01*
X78545D01*
Y88603D02*
Y88803D01*
Y88703D01*
X78145D01*
Y88603D01*
X78545Y89103D02*
Y89302D01*
Y89202D01*
X77945D01*
Y89103D01*
X78545Y89602D02*
X78345Y89802D01*
X78145D01*
X77945Y89602D01*
D46*
X101105Y91153D02*
Y91323D01*
Y91153D02*
X101825D01*
Y91493D01*
X101105D02*
X101825D01*
X101105Y91323D02*
Y91493D01*
X100375Y85883D02*
X101505D01*
X100375Y85613D02*
Y85883D01*
X101505Y85343D02*
Y85883D01*
X100375Y85343D02*
X101505D01*
X100375D02*
Y85613D01*
Y84873D02*
X101505D01*
X100375Y84603D02*
Y84873D01*
X101505Y84333D02*
Y84873D01*
X100375Y84333D02*
X101505D01*
X100375D02*
Y84603D01*
X100857Y91073D02*
Y92203D01*
X100587D02*
X100857D01*
X100317Y91073D02*
X100857D01*
X100317D02*
Y92203D01*
X100587D01*
X84670Y102400D02*
Y103530D01*
X84400D02*
X84670D01*
X84130Y102400D02*
X84670D01*
X84130D02*
Y103530D01*
X84400D01*
X98480Y80903D02*
Y82033D01*
Y80903D02*
X98750D01*
X98480Y82033D02*
X99020D01*
Y80903D02*
Y82033D01*
X98750Y80903D02*
X99020D01*
X96455Y92843D02*
Y93973D01*
X96185D02*
X96455D01*
X95915Y92843D02*
X96455D01*
X95915D02*
Y93973D01*
X96185D01*
X84515Y73383D02*
X85645D01*
X84515Y73113D02*
Y73383D01*
X85645Y72843D02*
Y73383D01*
X84515Y72843D02*
X85645D01*
X84515D02*
Y73113D01*
Y74393D02*
X85645D01*
X84515Y74123D02*
Y74393D01*
X85645Y73853D02*
Y74393D01*
X84515Y73853D02*
X85645D01*
X84515D02*
Y74123D01*
Y75383D02*
X85645D01*
X84515Y75113D02*
Y75383D01*
X85645Y74843D02*
Y75383D01*
X84515Y74843D02*
X85645D01*
X84515D02*
Y75113D01*
X84518Y76384D02*
X85648D01*
X84518Y76114D02*
Y76384D01*
X85648Y75844D02*
Y76384D01*
X84518Y75844D02*
X85648D01*
X84518D02*
Y76114D01*
X84515Y77383D02*
X85645D01*
X84515Y77113D02*
Y77383D01*
X85645Y76843D02*
Y77383D01*
X84515Y76843D02*
X85645D01*
X84515D02*
Y77113D01*
Y78383D02*
X85645D01*
X84515Y78113D02*
Y78383D01*
X85645Y77843D02*
Y78383D01*
X84515Y77843D02*
X85645D01*
X84515D02*
Y78113D01*
X84518Y79384D02*
X85648D01*
X84518Y79114D02*
Y79384D01*
X85648Y78844D02*
Y79384D01*
X84518Y78844D02*
X85648D01*
X84518D02*
Y79114D01*
X84505Y80383D02*
X85635D01*
X84505Y80113D02*
Y80383D01*
X85635Y79843D02*
Y80383D01*
X84505Y79843D02*
X85635D01*
X84505D02*
Y80113D01*
X84518Y81394D02*
X85648D01*
X84518Y81124D02*
Y81394D01*
X85648Y80854D02*
Y81394D01*
X84518Y80854D02*
X85648D01*
X84518D02*
Y81124D01*
X101005Y89853D02*
X102135D01*
Y90123D01*
X101005Y89853D02*
Y90393D01*
X102135D01*
Y90123D02*
Y90393D01*
X99496Y88919D02*
X100626D01*
Y89189D01*
X99496Y88919D02*
Y89459D01*
X100626D01*
Y89189D02*
Y89459D01*
X100455Y77435D02*
Y78565D01*
Y77435D02*
X100725D01*
X100455Y78565D02*
X100995D01*
Y77435D02*
Y78565D01*
X100725Y77435D02*
X100995D01*
X101005Y90453D02*
X102135D01*
Y90723D01*
X101005Y90453D02*
Y90993D01*
X102135D01*
Y90723D02*
Y90993D01*
X97395Y75423D02*
Y76553D01*
Y75423D02*
X97665D01*
X97395Y76553D02*
X97935D01*
Y75423D02*
Y76553D01*
X97665Y75423D02*
X97935D01*
X101620Y70789D02*
X102750D01*
Y71059D01*
X101620Y70789D02*
Y71329D01*
X102750D01*
Y71059D02*
Y71329D01*
X101755Y73803D02*
X102885D01*
Y74073D01*
X101755Y73803D02*
Y74343D01*
X102885D01*
Y74073D02*
Y74343D01*
X100096Y84119D02*
Y84289D01*
X100816D01*
Y83949D02*
Y84289D01*
X100096Y83949D02*
X100816D01*
X100096D02*
Y84119D01*
Y85123D02*
Y85293D01*
X100816D01*
Y84953D02*
Y85293D01*
X100096Y84953D02*
X100816D01*
X100096D02*
Y85123D01*
Y86030D02*
Y86200D01*
Y86030D02*
X100816D01*
Y86370D01*
X100096D02*
X100816D01*
X100096Y86200D02*
Y86370D01*
X87375Y87123D02*
X90525D01*
Y86393D02*
Y87123D01*
X87375Y85703D02*
Y87123D01*
Y85703D02*
X90525D01*
Y86393D01*
Y76303D02*
Y76993D01*
X87375Y76303D02*
X90525D01*
X87375D02*
Y77723D01*
X90525Y76993D02*
Y77723D01*
X87375D02*
X90525D01*
X90535Y88113D02*
Y88803D01*
X87385Y88113D02*
X90535D01*
X87385D02*
Y89533D01*
X90535Y88803D02*
Y89533D01*
X87385D02*
X90535D01*
X90525Y78703D02*
Y79393D01*
X87375Y78703D02*
X90525D01*
X87375D02*
Y80123D01*
X90525Y79393D02*
Y80123D01*
X87375D02*
X90525D01*
Y73903D02*
Y74593D01*
X87375Y73903D02*
X90525D01*
X87375D02*
Y75323D01*
X90525Y74593D02*
Y75323D01*
X87375D02*
X90525D01*
Y71503D02*
Y72193D01*
X87375Y71503D02*
X90525D01*
X87375D02*
Y72923D01*
X90525Y72193D02*
Y72923D01*
X87375D02*
X90525D01*
X101662Y78830D02*
Y79000D01*
X100942Y78830D02*
X101662D01*
X100942D02*
Y79170D01*
X101662D01*
Y79000D02*
Y79170D01*
X98065Y75423D02*
X98235D01*
X98065Y74703D02*
Y75423D01*
Y74703D02*
X98405D01*
Y75423D01*
X98235D02*
X98405D01*
X97785Y74933D02*
Y75103D01*
X97065D02*
X97785D01*
X97065Y74763D02*
Y75103D01*
Y74763D02*
X97785D01*
Y74933D01*
X100675Y82427D02*
X100845D01*
Y81707D02*
Y82427D01*
X100505Y81707D02*
X100845D01*
X100505D02*
Y82427D01*
X100675D01*
X85185Y83378D02*
X85455D01*
Y84508D01*
X84915D02*
X85455D01*
X84915Y83378D02*
X85185D01*
X84915D02*
Y84508D01*
X100025Y75133D02*
X100195D01*
X100025D02*
Y75853D01*
X100365D01*
Y75133D02*
Y75853D01*
X100195Y75133D02*
X100365D01*
X100435D02*
X100605D01*
X100435D02*
Y75853D01*
X100775D01*
Y75133D02*
Y75853D01*
X100605Y75133D02*
X100775D01*
X102135Y75803D02*
X102405D01*
Y76933D01*
X101865D02*
X102405D01*
X101865Y75803D02*
X102135D01*
X101865D02*
Y76933D01*
X98985Y90353D02*
X99385D01*
X98985D02*
Y92253D01*
X99785D01*
X99385Y90353D02*
X99785D01*
Y92253D01*
X97265Y90153D02*
Y90463D01*
Y90153D02*
X98885D01*
Y90773D01*
X97265Y90463D02*
Y90773D01*
X98885D01*
X102825Y75803D02*
Y76933D01*
Y75803D02*
X103095D01*
X102825Y76933D02*
X103365D01*
Y75803D02*
Y76933D01*
X103095Y75803D02*
X103365D01*
X92685Y71573D02*
X92955D01*
Y72703D01*
X92415D02*
X92955D01*
X92415Y71573D02*
X92685D01*
X92415D02*
Y72703D01*
X92685Y73973D02*
X92955D01*
Y75103D01*
X92415D02*
X92955D01*
X92415Y73973D02*
X92685D01*
X92415D02*
Y75103D01*
X92685Y76379D02*
X92955D01*
Y77509D01*
X92415D02*
X92955D01*
X92415Y76379D02*
X92685D01*
X92415D02*
Y77509D01*
X92685Y78770D02*
X92955D01*
Y79900D01*
X92415D02*
X92955D01*
X92415Y78770D02*
X92685D01*
X92415D02*
Y79900D01*
X92685Y81151D02*
X92955D01*
Y82281D01*
X92415D02*
X92955D01*
X92415Y81151D02*
X92685D01*
X92415D02*
Y82281D01*
X90525Y81103D02*
Y81793D01*
X87375Y81103D02*
X90525D01*
X87375D02*
Y82523D01*
X90525Y81793D02*
Y82523D01*
X87375D02*
X90525D01*
X85185Y85763D02*
X85455D01*
Y86893D01*
X84915D02*
X85455D01*
X84915Y85763D02*
X85185D01*
X84915D02*
Y86893D01*
X85185Y88194D02*
X85455D01*
Y89324D01*
X84915D02*
X85455D01*
X84915Y88194D02*
X85185D01*
X84915D02*
Y89324D01*
X87375Y84723D02*
X90525D01*
Y83993D02*
Y84723D01*
X87375Y83303D02*
Y84723D01*
Y83303D02*
X90525D01*
Y83993D01*
X98385Y89763D02*
Y90063D01*
X98235D01*
X98185Y90013D01*
Y89913D01*
X98235Y89863D01*
X98385D01*
X98285D02*
X98185Y89763D01*
X97885Y90063D02*
X97985Y90013D01*
X98085Y89913D01*
Y89813D01*
X98035Y89763D01*
X97935D01*
X97885Y89813D01*
Y89863D01*
X97935Y89913D01*
X98085D01*
X97785Y90013D02*
X97735Y90063D01*
X97635D01*
X97585Y90013D01*
Y89813D01*
X97635Y89763D01*
X97735D01*
X97785Y89813D01*
Y90013D01*
X105055Y92943D02*
Y92643D01*
X104905D01*
X104855Y92693D01*
Y92893D01*
X104905Y92943D01*
X105055D01*
X104755Y92893D02*
X104705Y92943D01*
X104605D01*
X104555Y92893D01*
Y92843D01*
X104605Y92793D01*
X104655D01*
X104605D01*
X104555Y92743D01*
Y92693D01*
X104605Y92643D01*
X104705D01*
X104755Y92693D01*
X104455Y92893D02*
X104405Y92943D01*
X104305D01*
X104255Y92893D01*
Y92843D01*
X104305Y92793D01*
X104355D01*
X104305D01*
X104255Y92743D01*
Y92693D01*
X104305Y92643D01*
X104405D01*
X104455Y92693D01*
X102375Y75673D02*
X102075D01*
Y75523D01*
X102125Y75473D01*
X102225D01*
X102275Y75523D01*
Y75673D01*
Y75573D02*
X102375Y75473D01*
X102075Y75173D02*
X102125Y75273D01*
X102225Y75373D01*
X102325D01*
X102375Y75323D01*
Y75223D01*
X102325Y75173D01*
X102275D01*
X102225Y75223D01*
Y75373D01*
X102375Y74923D02*
X102075D01*
X102225Y75073D01*
Y74873D01*
X100717Y93153D02*
X100417D01*
Y93003D01*
X100467Y92953D01*
X100567D01*
X100617Y93003D01*
Y93153D01*
Y93053D02*
X100717Y92953D01*
X100467Y92853D02*
X100417Y92803D01*
Y92703D01*
X100467Y92653D01*
X100517D01*
X100567Y92703D01*
X100617Y92653D01*
X100667D01*
X100717Y92703D01*
Y92803D01*
X100667Y92853D01*
X100617D01*
X100567Y92803D01*
X100517Y92853D01*
X100467D01*
X100567Y92803D02*
Y92703D01*
X100417Y92553D02*
Y92353D01*
X100467D01*
X100667Y92553D01*
X100717D01*
X99725Y85753D02*
X99775Y85803D01*
X99875D01*
X99925Y85753D01*
Y85553D01*
X99875Y85503D01*
X99775D01*
X99725Y85553D01*
X99625Y85753D02*
X99575Y85803D01*
X99475D01*
X99425Y85753D01*
Y85703D01*
X99475Y85653D01*
X99525D01*
X99475D01*
X99425Y85603D01*
Y85553D01*
X99475Y85503D01*
X99575D01*
X99625Y85553D01*
X99125Y85503D02*
X99325D01*
X99125Y85703D01*
Y85753D01*
X99175Y85803D01*
X99275D01*
X99325Y85753D01*
X101435Y84193D02*
X101485Y84243D01*
X101585D01*
X101635Y84193D01*
Y83993D01*
X101585Y83943D01*
X101485D01*
X101435Y83993D01*
X101335Y84193D02*
X101285Y84243D01*
X101185D01*
X101135Y84193D01*
Y84143D01*
X101185Y84093D01*
X101235D01*
X101185D01*
X101135Y84043D01*
Y83993D01*
X101185Y83943D01*
X101285D01*
X101335Y83993D01*
X101035Y83943D02*
X100935D01*
X100985D01*
Y84243D01*
X101035Y84193D01*
X103085Y103883D02*
Y103583D01*
X102935D01*
X102885Y103633D01*
Y103833D01*
X102935Y103883D01*
X103085D01*
X102785Y103833D02*
X102735Y103883D01*
X102635D01*
X102585Y103833D01*
Y103783D01*
X102635Y103733D01*
X102685D01*
X102635D01*
X102585Y103683D01*
Y103633D01*
X102635Y103583D01*
X102735D01*
X102785Y103633D01*
X102335Y103583D02*
Y103883D01*
X102485Y103733D01*
X102285D01*
X101195Y101913D02*
Y101613D01*
X101045D01*
X100995Y101663D01*
Y101863D01*
X101045Y101913D01*
X101195D01*
X100895Y101863D02*
X100845Y101913D01*
X100745D01*
X100695Y101863D01*
Y101813D01*
X100745Y101763D01*
X100795D01*
X100745D01*
X100695Y101713D01*
Y101663D01*
X100745Y101613D01*
X100845D01*
X100895Y101663D01*
X100395Y101613D02*
X100595D01*
X100395Y101813D01*
Y101863D01*
X100445Y101913D01*
X100545D01*
X100595Y101863D01*
X102745Y74473D02*
Y74773D01*
X102595D01*
X102545Y74723D01*
Y74623D01*
X102595Y74573D01*
X102745D01*
X102645D02*
X102545Y74473D01*
X102445Y74723D02*
X102395Y74773D01*
X102295D01*
X102245Y74723D01*
Y74673D01*
X102295Y74623D01*
X102345D01*
X102295D01*
X102245Y74573D01*
Y74523D01*
X102295Y74473D01*
X102395D01*
X102445Y74523D01*
X102145Y74723D02*
X102095Y74773D01*
X101995D01*
X101945Y74723D01*
Y74673D01*
X101995Y74623D01*
X101945Y74573D01*
Y74523D01*
X101995Y74473D01*
X102095D01*
X102145Y74523D01*
Y74573D01*
X102095Y74623D01*
X102145Y74673D01*
Y74723D01*
X102095Y74623D02*
X101995D01*
X102600Y71429D02*
Y71728D01*
X102450D01*
X102400Y71678D01*
Y71578D01*
X102450Y71529D01*
X102600D01*
X102500D02*
X102400Y71429D01*
X102300Y71678D02*
X102250Y71728D01*
X102150D01*
X102100Y71678D01*
Y71628D01*
X102150Y71578D01*
X102200D01*
X102150D01*
X102100Y71529D01*
Y71479D01*
X102150Y71429D01*
X102250D01*
X102300Y71479D01*
X102000D02*
X101950Y71429D01*
X101850D01*
X101800Y71479D01*
Y71678D01*
X101850Y71728D01*
X101950D01*
X102000Y71678D01*
Y71628D01*
X101950Y71578D01*
X101800D01*
X102175Y73643D02*
Y73393D01*
X102125Y73343D01*
X102025D01*
X101975Y73393D01*
Y73643D01*
X101675Y73343D02*
X101875D01*
X101675Y73543D01*
Y73593D01*
X101725Y73643D01*
X101825D01*
X101875Y73593D01*
X97025Y76003D02*
X96975Y76053D01*
Y76153D01*
X97025Y76203D01*
X97225D01*
X97275Y76153D01*
Y76053D01*
X97225Y76003D01*
X97025Y75903D02*
X96975Y75853D01*
Y75753D01*
X97025Y75703D01*
X97075D01*
X97125Y75753D01*
Y75803D01*
Y75753D01*
X97175Y75703D01*
X97225D01*
X97275Y75753D01*
Y75853D01*
X97225Y75903D01*
X102565Y90793D02*
X102615Y90843D01*
X102715D01*
X102765Y90793D01*
Y90593D01*
X102715Y90543D01*
X102615D01*
X102565Y90593D01*
X102315Y90543D02*
Y90843D01*
X102465Y90693D01*
X102265D01*
X101125Y78051D02*
X101075Y78101D01*
Y78201D01*
X101125Y78251D01*
X101325D01*
X101375Y78201D01*
Y78101D01*
X101325Y78051D01*
X101375Y77751D02*
Y77951D01*
X101175Y77751D01*
X101125D01*
X101075Y77801D01*
Y77901D01*
X101125Y77951D01*
Y77651D02*
X101075Y77601D01*
Y77501D01*
X101125Y77451D01*
X101175D01*
X101225Y77501D01*
X101275Y77451D01*
X101325D01*
X101375Y77501D01*
Y77601D01*
X101325Y77651D01*
X101275D01*
X101225Y77601D01*
X101175Y77651D01*
X101125D01*
X101225Y77601D02*
Y77501D01*
X102005Y80093D02*
X101805D01*
X101755Y80143D01*
Y80243D01*
X101805Y80293D01*
X102005D01*
X102055Y80243D01*
Y80143D01*
X101955Y80193D02*
X102055Y80093D01*
Y80143D02*
X102005Y80093D01*
X102055Y79993D02*
Y79893D01*
Y79943D01*
X101755D01*
X101805Y79993D01*
X101755Y79543D02*
X101805Y79643D01*
X101905Y79743D01*
X102005D01*
X102055Y79693D01*
Y79593D01*
X102005Y79543D01*
X101955D01*
X101905Y79593D01*
Y79743D01*
X101835Y91583D02*
Y91883D01*
X101685D01*
X101635Y91833D01*
Y91733D01*
X101685Y91683D01*
X101835D01*
X101735D02*
X101635Y91583D01*
X101535D02*
X101435D01*
X101485D01*
Y91883D01*
X101535Y91833D01*
X101285Y91883D02*
X101085D01*
Y91833D01*
X101285Y91633D01*
Y91583D01*
X99205Y74893D02*
Y75193D01*
X99055D01*
X99005Y75143D01*
Y75043D01*
X99055Y74993D01*
X99205D01*
X99105D02*
X99005Y74893D01*
X98705Y75193D02*
X98805Y75143D01*
X98905Y75043D01*
Y74943D01*
X98855Y74893D01*
X98755D01*
X98705Y74943D01*
Y74993D01*
X98755Y75043D01*
X98905D01*
X98605Y74893D02*
X98505D01*
X98555D01*
Y75193D01*
X98605Y75143D01*
X96945Y74813D02*
Y75113D01*
X96795D01*
X96745Y75063D01*
Y74963D01*
X96795Y74913D01*
X96945D01*
X96845D02*
X96745Y74813D01*
X96445Y75113D02*
X96545Y75063D01*
X96645Y74963D01*
Y74863D01*
X96595Y74813D01*
X96495D01*
X96445Y74863D01*
Y74913D01*
X96495Y74963D01*
X96645D01*
X96145Y74813D02*
X96345D01*
X96145Y75013D01*
Y75063D01*
X96195Y75113D01*
X96295D01*
X96345Y75063D01*
X103195Y75673D02*
X102895D01*
Y75523D01*
X102945Y75473D01*
X103045D01*
X103095Y75523D01*
Y75673D01*
Y75573D02*
X103195Y75473D01*
X102895Y75173D02*
X102945Y75273D01*
X103045Y75373D01*
X103145D01*
X103195Y75323D01*
Y75223D01*
X103145Y75173D01*
X103095D01*
X103045Y75223D01*
Y75373D01*
X102895Y74873D02*
Y75073D01*
X103045D01*
X102995Y74973D01*
Y74923D01*
X103045Y74873D01*
X103145D01*
X103195Y74923D01*
Y75023D01*
X103145Y75073D01*
X99356Y89083D02*
Y89383D01*
X99206D01*
X99156Y89333D01*
Y89233D01*
X99206Y89183D01*
X99356D01*
X99256D02*
X99156Y89083D01*
X98856Y89383D02*
X98956Y89333D01*
X99056Y89233D01*
Y89133D01*
X99006Y89083D01*
X98906D01*
X98856Y89133D01*
Y89183D01*
X98906Y89233D01*
X99056D01*
X98756Y89383D02*
X98556D01*
Y89333D01*
X98756Y89133D01*
Y89083D01*
X100775Y76753D02*
X100475D01*
Y76603D01*
X100525Y76553D01*
X100625D01*
X100675Y76603D01*
Y76753D01*
Y76653D02*
X100775Y76553D01*
X100475Y76253D02*
X100525Y76353D01*
X100625Y76453D01*
X100725D01*
X100775Y76403D01*
Y76303D01*
X100725Y76253D01*
X100675D01*
X100625Y76303D01*
Y76453D01*
X100525Y76153D02*
X100475Y76103D01*
Y76003D01*
X100525Y75953D01*
X100575D01*
X100625Y76003D01*
X100675Y75953D01*
X100725D01*
X100775Y76003D01*
Y76103D01*
X100725Y76153D01*
X100675D01*
X100625Y76103D01*
X100575Y76153D01*
X100525D01*
X100625Y76103D02*
Y76003D01*
X99890Y75897D02*
X99590D01*
Y75747D01*
X99640Y75697D01*
X99740D01*
X99790Y75747D01*
Y75897D01*
Y75797D02*
X99890Y75697D01*
X99590Y75397D02*
X99640Y75497D01*
X99740Y75597D01*
X99840D01*
X99890Y75547D01*
Y75447D01*
X99840Y75397D01*
X99790D01*
X99740Y75447D01*
Y75597D01*
X99840Y75298D02*
X99890Y75248D01*
Y75148D01*
X99840Y75098D01*
X99640D01*
X99590Y75148D01*
Y75248D01*
X99640Y75298D01*
X99690D01*
X99740Y75248D01*
Y75098D01*
X101759Y81913D02*
Y82213D01*
X101609D01*
X101559Y82163D01*
Y82063D01*
X101609Y82013D01*
X101759D01*
X101659D02*
X101559Y81913D01*
X101459Y82213D02*
X101259D01*
Y82163D01*
X101459Y81963D01*
Y81913D01*
X101009D02*
Y82213D01*
X101159Y82063D01*
X100959D01*
X103085Y89943D02*
Y90243D01*
X102935D01*
X102885Y90193D01*
Y90093D01*
X102935Y90043D01*
X103085D01*
X102985D02*
X102885Y89943D01*
X102785Y90243D02*
X102585D01*
Y90193D01*
X102785Y89993D01*
Y89943D01*
X102285Y90243D02*
X102485D01*
Y90093D01*
X102385Y90143D01*
X102335D01*
X102285Y90093D01*
Y89993D01*
X102335Y89943D01*
X102435D01*
X102485Y89993D01*
X85245Y80733D02*
X85295Y80783D01*
X85395D01*
X85445Y80733D01*
Y80533D01*
X85395Y80483D01*
X85295D01*
X85245Y80533D01*
X85145Y80483D02*
X85045D01*
X85095D01*
Y80783D01*
X85145Y80733D01*
X84895D02*
X84845Y80783D01*
X84745D01*
X84695Y80733D01*
Y80683D01*
X84745Y80633D01*
X84795D01*
X84745D01*
X84695Y80583D01*
Y80533D01*
X84745Y80483D01*
X84845D01*
X84895Y80533D01*
X85205Y79723D02*
X85255Y79773D01*
X85355D01*
X85405Y79723D01*
Y79523D01*
X85355Y79473D01*
X85255D01*
X85205Y79523D01*
X85105Y79473D02*
X85005D01*
X85055D01*
Y79773D01*
X85105Y79723D01*
X84705Y79473D02*
Y79773D01*
X84855Y79623D01*
X84655D01*
X85275Y78733D02*
X85325Y78783D01*
X85425D01*
X85475Y78733D01*
Y78533D01*
X85425Y78483D01*
X85325D01*
X85275Y78533D01*
X85175Y78483D02*
X85075D01*
X85125D01*
Y78783D01*
X85175Y78733D01*
X84725Y78783D02*
X84925D01*
Y78633D01*
X84825Y78683D01*
X84775D01*
X84725Y78633D01*
Y78533D01*
X84775Y78483D01*
X84875D01*
X84925Y78533D01*
X85305Y77713D02*
X85355Y77763D01*
X85455D01*
X85505Y77713D01*
Y77513D01*
X85455Y77463D01*
X85355D01*
X85305Y77513D01*
X85205Y77463D02*
X85105D01*
X85155D01*
Y77763D01*
X85205Y77713D01*
X84755Y77763D02*
X84855Y77713D01*
X84955Y77613D01*
Y77513D01*
X84905Y77463D01*
X84805D01*
X84755Y77513D01*
Y77563D01*
X84805Y77613D01*
X84955D01*
X85285Y76723D02*
X85335Y76773D01*
X85435D01*
X85485Y76723D01*
Y76523D01*
X85435Y76473D01*
X85335D01*
X85285Y76523D01*
X85185Y76473D02*
X85085D01*
X85135D01*
Y76773D01*
X85185Y76723D01*
X84935Y76773D02*
X84735D01*
Y76723D01*
X84935Y76523D01*
Y76473D01*
X85315Y75723D02*
X85365Y75773D01*
X85465D01*
X85515Y75723D01*
Y75523D01*
X85465Y75473D01*
X85365D01*
X85315Y75523D01*
X85215Y75473D02*
X85115D01*
X85165D01*
Y75773D01*
X85215Y75723D01*
X84965D02*
X84915Y75773D01*
X84815D01*
X84765Y75723D01*
Y75673D01*
X84815Y75623D01*
X84765Y75573D01*
Y75523D01*
X84815Y75473D01*
X84915D01*
X84965Y75523D01*
Y75573D01*
X84915Y75623D01*
X84965Y75673D01*
Y75723D01*
X84915Y75623D02*
X84815D01*
X85285Y74723D02*
X85335Y74773D01*
X85435D01*
X85485Y74723D01*
Y74523D01*
X85435Y74473D01*
X85335D01*
X85285Y74523D01*
X85185Y74473D02*
X85085D01*
X85135D01*
Y74773D01*
X85185Y74723D01*
X84935Y74523D02*
X84885Y74473D01*
X84785D01*
X84735Y74523D01*
Y74723D01*
X84785Y74773D01*
X84885D01*
X84935Y74723D01*
Y74673D01*
X84885Y74623D01*
X84735D01*
X85325Y73713D02*
X85375Y73763D01*
X85475D01*
X85525Y73713D01*
Y73513D01*
X85475Y73463D01*
X85375D01*
X85325Y73513D01*
X85025Y73463D02*
X85225D01*
X85025Y73663D01*
Y73713D01*
X85075Y73763D01*
X85175D01*
X85225Y73713D01*
X84925D02*
X84875Y73763D01*
X84775D01*
X84725Y73713D01*
Y73513D01*
X84775Y73463D01*
X84875D01*
X84925Y73513D01*
Y73713D01*
X85265Y72693D02*
X85315Y72743D01*
X85415D01*
X85465Y72693D01*
Y72493D01*
X85415Y72443D01*
X85315D01*
X85265Y72493D01*
X84965Y72443D02*
X85165D01*
X84965Y72643D01*
Y72693D01*
X85015Y72743D01*
X85115D01*
X85165Y72693D01*
X84865Y72443D02*
X84765D01*
X84815D01*
Y72743D01*
X84865Y72693D01*
X99555Y92683D02*
X99605Y92733D01*
X99705D01*
X99755Y92683D01*
Y92483D01*
X99705Y92433D01*
X99605D01*
X99555Y92483D01*
X99255Y92433D02*
X99455D01*
X99255Y92633D01*
Y92683D01*
X99305Y92733D01*
X99405D01*
X99455Y92683D01*
X99005Y92433D02*
Y92733D01*
X99155Y92583D01*
X98955D01*
X91415Y82643D02*
Y82843D01*
X91465Y82893D01*
X91565D01*
X91615Y82843D01*
Y82643D01*
X91565Y82593D01*
X91465D01*
X91515Y82693D02*
X91415Y82593D01*
X91465D02*
X91415Y82643D01*
X91315Y82593D02*
X91215D01*
X91265D01*
Y82893D01*
X91315Y82843D01*
X91485Y80183D02*
Y80383D01*
X91535Y80433D01*
X91635D01*
X91685Y80383D01*
Y80183D01*
X91635Y80133D01*
X91535D01*
X91585Y80233D02*
X91485Y80133D01*
X91535D02*
X91485Y80183D01*
X91185Y80133D02*
X91385D01*
X91185Y80333D01*
Y80383D01*
X91235Y80433D01*
X91335D01*
X91385Y80383D01*
X91495Y77803D02*
Y78003D01*
X91545Y78053D01*
X91645D01*
X91695Y78003D01*
Y77803D01*
X91645Y77753D01*
X91545D01*
X91595Y77853D02*
X91495Y77753D01*
X91545D02*
X91495Y77803D01*
X91395Y78003D02*
X91345Y78053D01*
X91245D01*
X91195Y78003D01*
Y77953D01*
X91245Y77903D01*
X91295D01*
X91245D01*
X91195Y77853D01*
Y77803D01*
X91245Y77753D01*
X91345D01*
X91395Y77803D01*
X91485Y75403D02*
Y75603D01*
X91535Y75653D01*
X91635D01*
X91685Y75603D01*
Y75403D01*
X91635Y75353D01*
X91535D01*
X91585Y75453D02*
X91485Y75353D01*
X91535D02*
X91485Y75403D01*
X91235Y75353D02*
Y75653D01*
X91385Y75503D01*
X91185D01*
X91485Y73003D02*
Y73203D01*
X91535Y73253D01*
X91635D01*
X91685Y73203D01*
Y73003D01*
X91635Y72953D01*
X91535D01*
X91585Y73053D02*
X91485Y72953D01*
X91535D02*
X91485Y73003D01*
X91185Y73253D02*
X91385D01*
Y73103D01*
X91285Y73153D01*
X91235D01*
X91185Y73103D01*
Y73003D01*
X91235Y72953D01*
X91335D01*
X91385Y73003D01*
X86455Y87763D02*
Y87963D01*
X86505Y88013D01*
X86605D01*
X86655Y87963D01*
Y87763D01*
X86605Y87713D01*
X86505D01*
X86555Y87813D02*
X86455Y87713D01*
X86505D02*
X86455Y87763D01*
X86155Y88013D02*
X86255Y87963D01*
X86355Y87863D01*
Y87763D01*
X86305Y87713D01*
X86205D01*
X86155Y87763D01*
Y87813D01*
X86205Y87863D01*
X86355D01*
X86455Y85363D02*
Y85563D01*
X86505Y85613D01*
X86605D01*
X86655Y85563D01*
Y85363D01*
X86605Y85313D01*
X86505D01*
X86555Y85413D02*
X86455Y85313D01*
X86505D02*
X86455Y85363D01*
X86355Y85613D02*
X86155D01*
Y85563D01*
X86355Y85363D01*
Y85313D01*
X86565Y82994D02*
Y83194D01*
X86615Y83244D01*
X86715D01*
X86765Y83194D01*
Y82994D01*
X86715Y82944D01*
X86615D01*
X86665Y83044D02*
X86565Y82944D01*
X86615D02*
X86565Y82994D01*
X86465Y83194D02*
X86415Y83244D01*
X86315D01*
X86265Y83194D01*
Y83144D01*
X86315Y83094D01*
X86265Y83044D01*
Y82994D01*
X86315Y82944D01*
X86415D01*
X86465Y82994D01*
Y83044D01*
X86415Y83094D01*
X86465Y83144D01*
Y83194D01*
X86415Y83094D02*
X86315D01*
X84815Y88972D02*
X84515D01*
Y88822D01*
X84565Y88772D01*
X84665D01*
X84715Y88822D01*
Y88972D01*
Y88872D02*
X84815Y88772D01*
Y88672D02*
Y88572D01*
Y88622D01*
X84515D01*
X84565Y88672D01*
X84805Y86543D02*
X84505D01*
Y86393D01*
X84555Y86343D01*
X84655D01*
X84705Y86393D01*
Y86543D01*
Y86443D02*
X84805Y86343D01*
Y86043D02*
Y86243D01*
X84605Y86043D01*
X84555D01*
X84505Y86093D01*
Y86193D01*
X84555Y86243D01*
X84725Y84193D02*
X84425D01*
Y84043D01*
X84475Y83993D01*
X84575D01*
X84625Y84043D01*
Y84193D01*
Y84093D02*
X84725Y83993D01*
X84475Y83893D02*
X84425Y83843D01*
Y83743D01*
X84475Y83693D01*
X84525D01*
X84575Y83743D01*
Y83793D01*
Y83743D01*
X84625Y83693D01*
X84675D01*
X84725Y83743D01*
Y83843D01*
X84675Y83893D01*
X92995Y82853D02*
X92695D01*
Y82703D01*
X92745Y82653D01*
X92845D01*
X92895Y82703D01*
Y82853D01*
Y82753D02*
X92995Y82653D01*
Y82403D02*
X92695D01*
X92845Y82553D01*
Y82353D01*
X93015Y80493D02*
X92715D01*
Y80343D01*
X92765Y80293D01*
X92865D01*
X92915Y80343D01*
Y80493D01*
Y80393D02*
X93015Y80293D01*
X92715Y79993D02*
Y80193D01*
X92865D01*
X92815Y80093D01*
Y80043D01*
X92865Y79993D01*
X92965D01*
X93015Y80043D01*
Y80143D01*
X92965Y80193D01*
X93135Y78153D02*
X92835D01*
Y78003D01*
X92885Y77953D01*
X92985D01*
X93035Y78003D01*
Y78153D01*
Y78053D02*
X93135Y77953D01*
X92835Y77653D02*
X92885Y77753D01*
X92985Y77853D01*
X93085D01*
X93135Y77803D01*
Y77703D01*
X93085Y77653D01*
X93035D01*
X92985Y77703D01*
Y77853D01*
X92855Y75684D02*
X92555D01*
Y75534D01*
X92605Y75484D01*
X92705D01*
X92755Y75534D01*
Y75684D01*
Y75584D02*
X92855Y75484D01*
X92555Y75384D02*
Y75184D01*
X92605D01*
X92805Y75384D01*
X92855D01*
X92875Y73296D02*
X92575D01*
Y73146D01*
X92625Y73096D01*
X92725D01*
X92775Y73146D01*
Y73296D01*
Y73196D02*
X92875Y73096D01*
X92625Y72996D02*
X92575Y72946D01*
Y72846D01*
X92625Y72796D01*
X92675D01*
X92725Y72846D01*
X92775Y72796D01*
X92825D01*
X92875Y72846D01*
Y72946D01*
X92825Y72996D01*
X92775D01*
X92725Y72946D01*
X92675Y72996D01*
X92625D01*
X92725Y72946D02*
Y72846D01*
X90465Y87683D02*
Y87983D01*
X90315D01*
X90265Y87933D01*
Y87833D01*
X90315Y87783D01*
X90465D01*
X90365D02*
X90265Y87683D01*
X89965D02*
X90165D01*
X89965Y87883D01*
Y87933D01*
X90015Y87983D01*
X90115D01*
X90165Y87933D01*
X89665Y87983D02*
X89765Y87933D01*
X89865Y87833D01*
Y87733D01*
X89815Y87683D01*
X89715D01*
X89665Y87733D01*
Y87783D01*
X89715Y87833D01*
X89865D01*
X90495Y85293D02*
Y85593D01*
X90345D01*
X90295Y85543D01*
Y85443D01*
X90345Y85393D01*
X90495D01*
X90395D02*
X90295Y85293D01*
X89995D02*
X90195D01*
X89995Y85493D01*
Y85543D01*
X90045Y85593D01*
X90145D01*
X90195Y85543D01*
X89895Y85593D02*
X89695D01*
Y85543D01*
X89895Y85343D01*
Y85293D01*
X90445Y82893D02*
Y83193D01*
X90295D01*
X90245Y83143D01*
Y83043D01*
X90295Y82993D01*
X90445D01*
X90345D02*
X90245Y82893D01*
X89945D02*
X90145D01*
X89945Y83093D01*
Y83143D01*
X89995Y83193D01*
X90095D01*
X90145Y83143D01*
X89845D02*
X89795Y83193D01*
X89695D01*
X89645Y83143D01*
Y83093D01*
X89695Y83043D01*
X89645Y82993D01*
Y82943D01*
X89695Y82893D01*
X89795D01*
X89845Y82943D01*
Y82993D01*
X89795Y83043D01*
X89845Y83093D01*
Y83143D01*
X89795Y83043D02*
X89695D01*
X90435Y80703D02*
Y81003D01*
X90285D01*
X90235Y80953D01*
Y80853D01*
X90285Y80803D01*
X90435D01*
X90335D02*
X90235Y80703D01*
X89935D02*
X90135D01*
X89935Y80903D01*
Y80953D01*
X89985Y81003D01*
X90085D01*
X90135Y80953D01*
X89835Y80753D02*
X89785Y80703D01*
X89685D01*
X89635Y80753D01*
Y80953D01*
X89685Y81003D01*
X89785D01*
X89835Y80953D01*
Y80903D01*
X89785Y80853D01*
X89635D01*
X90485Y78293D02*
Y78593D01*
X90335D01*
X90285Y78543D01*
Y78443D01*
X90335Y78393D01*
X90485D01*
X90385D02*
X90285Y78293D01*
X90185Y78543D02*
X90135Y78593D01*
X90035D01*
X89985Y78543D01*
Y78493D01*
X90035Y78443D01*
X90085D01*
X90035D01*
X89985Y78393D01*
Y78343D01*
X90035Y78293D01*
X90135D01*
X90185Y78343D01*
X89885Y78543D02*
X89835Y78593D01*
X89735D01*
X89685Y78543D01*
Y78343D01*
X89735Y78293D01*
X89835D01*
X89885Y78343D01*
Y78543D01*
X90425Y75893D02*
Y76193D01*
X90275D01*
X90225Y76143D01*
Y76043D01*
X90275Y75993D01*
X90425D01*
X90325D02*
X90225Y75893D01*
X90125Y76143D02*
X90075Y76193D01*
X89975D01*
X89925Y76143D01*
Y76093D01*
X89975Y76043D01*
X90025D01*
X89975D01*
X89925Y75993D01*
Y75943D01*
X89975Y75893D01*
X90075D01*
X90125Y75943D01*
X89825Y75893D02*
X89725D01*
X89775D01*
Y76193D01*
X89825Y76143D01*
X90485Y73533D02*
Y73833D01*
X90335D01*
X90285Y73783D01*
Y73683D01*
X90335Y73633D01*
X90485D01*
X90385D02*
X90285Y73533D01*
X90185Y73783D02*
X90135Y73833D01*
X90035D01*
X89985Y73783D01*
Y73733D01*
X90035Y73683D01*
X90085D01*
X90035D01*
X89985Y73633D01*
Y73583D01*
X90035Y73533D01*
X90135D01*
X90185Y73583D01*
X89685Y73533D02*
X89885D01*
X89685Y73733D01*
Y73783D01*
X89735Y73833D01*
X89835D01*
X89885Y73783D01*
X90465Y71123D02*
Y71423D01*
X90315D01*
X90265Y71373D01*
Y71273D01*
X90315Y71223D01*
X90465D01*
X90365D02*
X90265Y71123D01*
X90165Y71373D02*
X90115Y71423D01*
X90015D01*
X89965Y71373D01*
Y71323D01*
X90015Y71273D01*
X90065D01*
X90015D01*
X89965Y71223D01*
Y71173D01*
X90015Y71123D01*
X90115D01*
X90165Y71173D01*
X89865Y71373D02*
X89815Y71423D01*
X89715D01*
X89665Y71373D01*
Y71323D01*
X89715Y71273D01*
X89765D01*
X89715D01*
X89665Y71223D01*
Y71173D01*
X89715Y71123D01*
X89815D01*
X89865Y71173D01*
X101915Y78433D02*
Y78733D01*
X101765D01*
X101715Y78683D01*
Y78583D01*
X101765Y78533D01*
X101915D01*
X101815D02*
X101715Y78433D01*
X101615Y78683D02*
X101565Y78733D01*
X101465D01*
X101415Y78683D01*
Y78633D01*
X101465Y78583D01*
X101415Y78533D01*
Y78483D01*
X101465Y78433D01*
X101565D01*
X101615Y78483D01*
Y78533D01*
X101565Y78583D01*
X101615Y78633D01*
Y78683D01*
X101565Y78583D02*
X101465D01*
X101115Y78433D02*
X101315D01*
X101115Y78633D01*
Y78683D01*
X101165Y78733D01*
X101265D01*
X101315Y78683D01*
X95415Y94013D02*
Y93813D01*
Y93913D01*
X95715D01*
X95415Y93713D02*
X95715D01*
X95565D01*
X95515Y93663D01*
Y93563D01*
X95565Y93513D01*
X95715D01*
Y93213D02*
Y93413D01*
X95515Y93213D01*
X95465D01*
X95415Y93263D01*
Y93363D01*
X95465Y93413D01*
X95415Y93113D02*
X95715D01*
Y92963D01*
X95665Y92913D01*
X95615D01*
X95565D01*
X95515Y92963D01*
Y93113D01*
X99235Y81523D02*
X99185Y81573D01*
Y81673D01*
X99235Y81723D01*
X99435D01*
X99485Y81673D01*
Y81573D01*
X99435Y81523D01*
X99485Y81223D02*
Y81423D01*
X99285Y81223D01*
X99235D01*
X99185Y81273D01*
Y81373D01*
X99235Y81423D01*
X84848Y103662D02*
Y103961D01*
X84698D01*
X84649Y103911D01*
Y103811D01*
X84698Y103762D01*
X84848D01*
X84748D02*
X84649Y103662D01*
X84349Y103961D02*
X84449Y103911D01*
X84549Y103811D01*
Y103712D01*
X84499Y103662D01*
X84399D01*
X84349Y103712D01*
Y103762D01*
X84399Y103811D01*
X84549D01*
X84249Y103911D02*
X84199Y103961D01*
X84099D01*
X84049Y103911D01*
Y103861D01*
X84099Y103811D01*
X84149D01*
X84099D01*
X84049Y103762D01*
Y103712D01*
X84099Y103662D01*
X84199D01*
X84249Y103712D01*
X99971Y83959D02*
Y84258D01*
X99821D01*
X99771Y84208D01*
Y84108D01*
X99821Y84058D01*
X99971D01*
X99871D02*
X99771Y83959D01*
X99671Y84258D02*
X99471D01*
Y84208D01*
X99671Y84009D01*
Y83959D01*
X99371Y84208D02*
X99321Y84258D01*
X99221D01*
X99171Y84208D01*
Y84158D01*
X99221Y84108D01*
X99171Y84058D01*
Y84009D01*
X99221Y83959D01*
X99321D01*
X99371Y84009D01*
Y84058D01*
X99321Y84108D01*
X99371Y84158D01*
Y84208D01*
X99321Y84108D02*
X99221D01*
X99959Y84973D02*
Y85273D01*
X99809D01*
X99759Y85223D01*
Y85123D01*
X99809Y85073D01*
X99959D01*
X99859D02*
X99759Y84973D01*
X99659Y85273D02*
X99459D01*
Y85223D01*
X99659Y85023D01*
Y84973D01*
X99359Y85023D02*
X99309Y84973D01*
X99209D01*
X99159Y85023D01*
Y85223D01*
X99209Y85273D01*
X99309D01*
X99359Y85223D01*
Y85173D01*
X99309Y85123D01*
X99159D01*
X99927Y86040D02*
Y86340D01*
X99777D01*
X99727Y86290D01*
Y86190D01*
X99777Y86140D01*
X99927D01*
X99827D02*
X99727Y86040D01*
X99627Y86290D02*
X99577Y86340D01*
X99477D01*
X99427Y86290D01*
Y86240D01*
X99477Y86190D01*
X99427Y86140D01*
Y86090D01*
X99477Y86040D01*
X99577D01*
X99627Y86090D01*
Y86140D01*
X99577Y86190D01*
X99627Y86240D01*
Y86290D01*
X99577Y86190D02*
X99477D01*
X99327Y86040D02*
X99227D01*
X99277D01*
Y86340D01*
X99327Y86290D01*
X104105Y93273D02*
Y92973D01*
X103955D01*
X103905Y93023D01*
Y93223D01*
X103955Y93273D01*
X104105D01*
X103605Y92973D02*
X103805D01*
X103605Y93173D01*
Y93223D01*
X103655Y93273D01*
X103755D01*
X103805Y93223D01*
X103505D02*
X103455Y93273D01*
X103355D01*
X103305Y93223D01*
Y93173D01*
X103355Y93123D01*
X103305Y93073D01*
Y93023D01*
X103355Y92973D01*
X103455D01*
X103505Y93023D01*
Y93073D01*
X103455Y93123D01*
X103505Y93173D01*
Y93223D01*
X103455Y93123D02*
X103355D01*
X106685Y53288D02*
Y52838D01*
Y53288D02*
X106835D01*
X106899Y53267D01*
X106942Y53224D01*
X106963Y53181D01*
X106985Y53117D01*
Y53010D01*
X106963Y52945D01*
X106942Y52902D01*
X106899Y52860D01*
X106835Y52838D01*
X106685D01*
X107428D02*
X107257Y53288D01*
X107086Y52838D01*
X107150Y52988D02*
X107364D01*
X107683Y53288D02*
Y52838D01*
X107533Y53288D02*
X107833D01*
X108165D02*
X107887D01*
Y52838D01*
X108165D01*
X107887Y53074D02*
X108058D01*
X108262Y53138D02*
X108240Y53117D01*
X108262Y53095D01*
X108283Y53117D01*
X108262Y53138D01*
Y52881D02*
X108240Y52860D01*
X108262Y52838D01*
X108283Y52860D01*
X108262Y52881D01*
X102060Y53288D02*
Y52838D01*
Y53288D02*
X102253D01*
X102317Y53267D01*
X102338Y53245D01*
X102360Y53202D01*
Y53159D01*
X102338Y53117D01*
X102317Y53095D01*
X102253Y53074D01*
X102060D01*
X102210D02*
X102360Y52838D01*
X102739Y53288D02*
X102461D01*
Y52838D01*
X102739D01*
X102461Y53074D02*
X102632D01*
X102814Y53288D02*
X102985Y52838D01*
X103157Y53288D02*
X102985Y52838D01*
X103236Y53138D02*
X103215Y53117D01*
X103236Y53095D01*
X103258Y53117D01*
X103236Y53138D01*
Y52881D02*
X103215Y52860D01*
X103236Y52838D01*
X103258Y52860D01*
X103236Y52881D01*
X75685Y55802D02*
X75878D01*
X75942Y55824D01*
X75963Y55845D01*
X75985Y55888D01*
Y55952D01*
X75963Y55995D01*
X75942Y56017D01*
X75878Y56038D01*
X75685D01*
Y55588D01*
X76086Y56038D02*
Y55588D01*
X76386Y56038D02*
Y55588D01*
X76086Y55824D02*
X76386D01*
X76638Y56038D02*
X76595Y56017D01*
X76553Y55974D01*
X76531Y55931D01*
X76510Y55867D01*
Y55760D01*
X76531Y55695D01*
X76553Y55652D01*
X76595Y55610D01*
X76638Y55588D01*
X76724D01*
X76767Y55610D01*
X76810Y55652D01*
X76831Y55695D01*
X76853Y55760D01*
Y55867D01*
X76831Y55931D01*
X76810Y55974D01*
X76767Y56017D01*
X76724Y56038D01*
X76638D01*
X76958D02*
Y55588D01*
Y56038D02*
X77257Y55588D01*
Y56038D02*
Y55588D01*
X77660Y56038D02*
X77382D01*
Y55588D01*
X77660D01*
X77382Y55824D02*
X77553D01*
X77757Y55888D02*
X77735Y55867D01*
X77757Y55845D01*
X77778Y55867D01*
X77757Y55888D01*
Y55631D02*
X77735Y55610D01*
X77757Y55588D01*
X77778Y55610D01*
X77757Y55631D01*
X75685Y52052D02*
X75878D01*
X75942Y52074D01*
X75963Y52095D01*
X75985Y52138D01*
Y52202D01*
X75963Y52245D01*
X75942Y52267D01*
X75878Y52288D01*
X75685D01*
Y51838D01*
X76086Y52288D02*
Y51838D01*
X76386Y52288D02*
Y51838D01*
X76086Y52074D02*
X76386D01*
X76638Y52288D02*
X76595Y52267D01*
X76553Y52224D01*
X76531Y52181D01*
X76510Y52117D01*
Y52010D01*
X76531Y51945D01*
X76553Y51902D01*
X76595Y51860D01*
X76638Y51838D01*
X76724D01*
X76767Y51860D01*
X76810Y51902D01*
X76831Y51945D01*
X76853Y52010D01*
Y52117D01*
X76831Y52181D01*
X76810Y52224D01*
X76767Y52267D01*
X76724Y52288D01*
X76638D01*
X76958D02*
Y51838D01*
Y52288D02*
X77257Y51838D01*
Y52288D02*
Y51838D01*
X77660Y52288D02*
X77382D01*
Y51838D01*
X77660D01*
X77382Y52074D02*
X77553D01*
X77757Y52138D02*
X77735Y52117D01*
X77757Y52095D01*
X77778Y52117D01*
X77757Y52138D01*
Y51881D02*
X77735Y51860D01*
X77757Y51838D01*
X77778Y51860D01*
X77757Y51881D01*
X94085Y50513D02*
Y50063D01*
X94342D01*
X94734D02*
X94563Y50513D01*
X94391Y50063D01*
X94456Y50213D02*
X94670D01*
X94839Y50513D02*
X95010Y50299D01*
Y50063D01*
X95182Y50513D02*
X95010Y50299D01*
X95518Y50513D02*
X95240D01*
Y50063D01*
X95518D01*
X95240Y50299D02*
X95411D01*
X95593Y50513D02*
Y50063D01*
Y50513D02*
X95786D01*
X95850Y50492D01*
X95872Y50470D01*
X95893Y50427D01*
Y50384D01*
X95872Y50342D01*
X95850Y50320D01*
X95786Y50299D01*
X95593D01*
X95743D02*
X95893Y50063D01*
X96015Y50363D02*
X95994Y50342D01*
X96015Y50320D01*
X96037Y50342D01*
X96015Y50363D01*
Y50106D02*
X95994Y50085D01*
X96015Y50063D01*
X96037Y50085D01*
X96015Y50106D01*
X75963Y57913D02*
X75685D01*
Y57463D01*
X75963D01*
X75685Y57699D02*
X75856D01*
X76038Y57913D02*
Y57463D01*
Y57913D02*
X76338Y57463D01*
Y57913D02*
Y57463D01*
X76784Y57806D02*
X76763Y57849D01*
X76720Y57892D01*
X76677Y57913D01*
X76591D01*
X76548Y57892D01*
X76505Y57849D01*
X76484Y57806D01*
X76463Y57742D01*
Y57635D01*
X76484Y57570D01*
X76505Y57527D01*
X76548Y57485D01*
X76591Y57463D01*
X76677D01*
X76720Y57485D01*
X76763Y57527D01*
X76784Y57570D01*
Y57635D01*
X76677D02*
X76784D01*
X76887Y57913D02*
Y57463D01*
X76981Y57913D02*
Y57463D01*
Y57913D02*
X77281Y57463D01*
Y57913D02*
Y57463D01*
X77684Y57913D02*
X77405D01*
Y57463D01*
X77684D01*
X77405Y57699D02*
X77577D01*
X78037Y57913D02*
X77759D01*
Y57463D01*
X78037D01*
X77759Y57699D02*
X77930D01*
X78112Y57913D02*
Y57463D01*
Y57913D02*
X78305D01*
X78369Y57892D01*
X78391Y57870D01*
X78412Y57827D01*
Y57784D01*
X78391Y57742D01*
X78369Y57720D01*
X78305Y57699D01*
X78112D01*
X78262D02*
X78412Y57463D01*
X78534Y57763D02*
X78513Y57742D01*
X78534Y57720D01*
X78556Y57742D01*
X78534Y57763D01*
Y57506D02*
X78513Y57485D01*
X78534Y57463D01*
X78556Y57485D01*
X78534Y57506D01*
X84685Y53052D02*
X84878D01*
X84942Y53074D01*
X84963Y53095D01*
X84985Y53138D01*
Y53202D01*
X84963Y53245D01*
X84942Y53267D01*
X84878Y53288D01*
X84685D01*
Y52838D01*
X85428D02*
X85257Y53288D01*
X85086Y52838D01*
X85150Y52988D02*
X85364D01*
X85533Y53288D02*
Y52838D01*
Y53288D02*
X85726D01*
X85790Y53267D01*
X85812Y53245D01*
X85833Y53202D01*
Y53159D01*
X85812Y53117D01*
X85790Y53095D01*
X85726Y53074D01*
X85533D01*
X85683D02*
X85833Y52838D01*
X86084Y53288D02*
Y52838D01*
X85934Y53288D02*
X86234D01*
X86641D02*
Y52838D01*
Y53288D02*
X86941Y52838D01*
Y53288D02*
Y52838D01*
X87194Y53288D02*
X87151Y53267D01*
X87108Y53224D01*
X87087Y53181D01*
X87065Y53117D01*
Y53010D01*
X87087Y52945D01*
X87108Y52902D01*
X87151Y52860D01*
X87194Y52838D01*
X87279D01*
X87322Y52860D01*
X87365Y52902D01*
X87387Y52945D01*
X87408Y53010D01*
Y53117D01*
X87387Y53181D01*
X87365Y53224D01*
X87322Y53267D01*
X87279Y53288D01*
X87194D01*
X87534Y52881D02*
X87513Y52860D01*
X87534Y52838D01*
X87556Y52860D01*
X87534Y52881D01*
X87676Y53138D02*
X87654Y53117D01*
X87676Y53095D01*
X87697Y53117D01*
X87676Y53138D01*
Y52881D02*
X87654Y52860D01*
X87676Y52838D01*
X87697Y52860D01*
X87676Y52881D01*
X84710Y58038D02*
Y57588D01*
X84560Y58038D02*
X84860D01*
X84913D02*
Y57588D01*
X85158Y58038D02*
Y57588D01*
X85008Y58038D02*
X85308D01*
X85361D02*
Y57588D01*
X85618D01*
X85946Y58038D02*
X85668D01*
Y57588D01*
X85946D01*
X85668Y57824D02*
X85839D01*
X86042Y57888D02*
X86021Y57867D01*
X86042Y57845D01*
X86064Y57867D01*
X86042Y57888D01*
Y57631D02*
X86021Y57610D01*
X86042Y57588D01*
X86064Y57610D01*
X86042Y57631D01*
X75963Y54113D02*
X75685D01*
Y53663D01*
X75963D01*
X75685Y53899D02*
X75856D01*
X76038Y54113D02*
Y53663D01*
Y54113D02*
X76338Y53663D01*
Y54113D02*
Y53663D01*
X76784Y54006D02*
X76763Y54049D01*
X76720Y54092D01*
X76677Y54113D01*
X76591D01*
X76548Y54092D01*
X76505Y54049D01*
X76484Y54006D01*
X76463Y53942D01*
Y53835D01*
X76484Y53770D01*
X76505Y53727D01*
X76548Y53685D01*
X76591Y53663D01*
X76677D01*
X76720Y53685D01*
X76763Y53727D01*
X76784Y53770D01*
Y53835D01*
X76677D02*
X76784D01*
X76887Y54113D02*
Y53663D01*
X76981Y54113D02*
Y53663D01*
Y54113D02*
X77281Y53663D01*
Y54113D02*
Y53663D01*
X77684Y54113D02*
X77405D01*
Y53663D01*
X77684D01*
X77405Y53899D02*
X77577D01*
X78037Y54113D02*
X77759D01*
Y53663D01*
X78037D01*
X77759Y53899D02*
X77930D01*
X78112Y54113D02*
Y53663D01*
Y54113D02*
X78305D01*
X78369Y54092D01*
X78391Y54070D01*
X78412Y54027D01*
Y53984D01*
X78391Y53942D01*
X78369Y53920D01*
X78305Y53899D01*
X78112D01*
X78262D02*
X78412Y53663D01*
X78534Y53963D02*
X78513Y53942D01*
X78534Y53920D01*
X78556Y53942D01*
X78534Y53963D01*
Y53706D02*
X78513Y53685D01*
X78534Y53663D01*
X78556Y53685D01*
X78534Y53706D01*
X75685Y50513D02*
Y50063D01*
Y50513D02*
X75963D01*
X75685Y50299D02*
X75856D01*
X76015Y50513D02*
Y50063D01*
X76109Y50513D02*
Y50063D01*
X76366D01*
X76694Y50513D02*
X76416D01*
Y50063D01*
X76694D01*
X76416Y50299D02*
X76587D01*
X77123Y50513D02*
Y50063D01*
Y50513D02*
X77422Y50063D01*
Y50513D02*
Y50063D01*
X77889D02*
X77718Y50513D01*
X77547Y50063D01*
X77611Y50213D02*
X77825D01*
X77994Y50513D02*
Y50063D01*
Y50513D02*
X78166Y50063D01*
X78337Y50513D02*
X78166Y50063D01*
X78337Y50513D02*
Y50063D01*
X78744Y50513D02*
X78466D01*
Y50063D01*
X78744D01*
X78466Y50299D02*
X78637D01*
X78841Y50363D02*
X78819Y50342D01*
X78841Y50320D01*
X78862Y50342D01*
X78841Y50363D01*
Y50106D02*
X78819Y50085D01*
X78841Y50063D01*
X78862Y50085D01*
X78841Y50106D01*
X112606Y50406D02*
X112585Y50449D01*
X112542Y50492D01*
X112499Y50513D01*
X112413D01*
X112371Y50492D01*
X112328Y50449D01*
X112306Y50406D01*
X112285Y50342D01*
Y50235D01*
X112306Y50170D01*
X112328Y50127D01*
X112371Y50085D01*
X112413Y50063D01*
X112499D01*
X112542Y50085D01*
X112585Y50127D01*
X112606Y50170D01*
Y50235D01*
X112499D02*
X112606D01*
X112988Y50513D02*
X112709D01*
Y50063D01*
X112988D01*
X112709Y50299D02*
X112881D01*
X113063Y50513D02*
Y50063D01*
Y50513D02*
X113255D01*
X113320Y50492D01*
X113341Y50470D01*
X113363Y50427D01*
Y50384D01*
X113341Y50342D01*
X113320Y50320D01*
X113255Y50299D01*
X113063D01*
X113213D02*
X113363Y50063D01*
X113463Y50513D02*
Y50063D01*
Y50513D02*
X113656D01*
X113720Y50492D01*
X113742Y50470D01*
X113763Y50427D01*
Y50384D01*
X113742Y50342D01*
X113720Y50320D01*
X113656Y50299D01*
X113463D02*
X113656D01*
X113720Y50277D01*
X113742Y50256D01*
X113763Y50213D01*
Y50149D01*
X113742Y50106D01*
X113720Y50085D01*
X113656Y50063D01*
X113463D01*
X114142Y50513D02*
X113864D01*
Y50063D01*
X114142D01*
X113864Y50299D02*
X114035D01*
X114217Y50513D02*
Y50063D01*
Y50513D02*
X114410D01*
X114474Y50492D01*
X114496Y50470D01*
X114517Y50427D01*
Y50384D01*
X114496Y50342D01*
X114474Y50320D01*
X114410Y50299D01*
X114217D01*
X114367D02*
X114517Y50063D01*
X114639Y50363D02*
X114618Y50342D01*
X114639Y50320D01*
X114661Y50342D01*
X114639Y50363D01*
Y50106D02*
X114618Y50085D01*
X114639Y50063D01*
X114661Y50085D01*
X114639Y50106D01*
D86*
X101630Y79945D02*
X101566Y79881D01*
X101630Y79817D01*
X104705Y90963D02*
X105105D01*
Y91973D01*
X104305D02*
X105105D01*
X104305Y90963D02*
Y91973D01*
Y90963D02*
X104705D01*
X100321Y102489D02*
Y102889D01*
X101331D01*
Y102089D02*
Y102889D01*
X100321Y102089D02*
X101331D01*
X100321D02*
Y102489D01*
X101632Y79947D02*
Y80127D01*
Y79637D02*
Y79807D01*
X100862Y79637D02*
X101632D01*
X100862D02*
Y80127D01*
X101632D01*
D88*
X103215Y92013D02*
X104265D01*
X103215Y92553D02*
X103305D01*
X104185D02*
X104265D01*
X104185Y90693D02*
X104265D01*
Y92553D01*
X103215Y90693D02*
Y92553D01*
Y90693D02*
X103325D01*
X99935Y103888D02*
Y103998D01*
X101795D01*
X99935Y102948D02*
X101795D01*
X99935D02*
Y103028D01*
X101795Y102948D02*
Y103028D01*
Y103908D02*
Y103998D01*
X101255Y102948D02*
Y103998D01*
D184*
X101158Y102495D02*
D03*
D187*
X104699Y91801D02*
D03*
M02*
