%FSLAX24Y24*%
%MOIN*%
G70*
G01*
G75*
%ADD10C,0.0100*%
%ADD11C,0.0080*%
%ADD12R,0.0217X0.0197*%
%ADD13R,0.0390X0.0270*%
%ADD14R,0.0400X0.0400*%
%ADD15R,0.0236X0.0315*%
%ADD16R,0.0079X0.0374*%
%ADD17R,0.0360X0.0360*%
%ADD18R,0.0500X0.0360*%
%ADD19R,0.0315X0.0236*%
%ADD20R,0.0394X0.0394*%
%ADD21R,0.3500X0.4500*%
%ADD22R,0.0700X0.0820*%
%ADD23R,0.1500X0.0820*%
%ADD24R,0.0197X0.0217*%
%ADD25R,0.1299X0.0512*%
%ADD26R,0.2000X0.2000*%
%ADD27R,0.0600X0.0600*%
%ADD28R,0.0512X0.1299*%
%ADD29R,0.0315X0.0315*%
%ADD30R,0.0315X0.0315*%
%ADD31R,0.0236X0.0157*%
%ADD32R,0.1693X0.1693*%
%ADD33R,0.0374X0.0079*%
%ADD34C,0.0200*%
%ADD35C,0.0400*%
%ADD36C,0.0250*%
%ADD37C,0.0150*%
%ADD38C,0.0120*%
%ADD39C,0.0500*%
%ADD40C,0.0750*%
%ADD41C,0.0300*%
%ADD42C,0.0090*%
%ADD43R,0.1980X0.2640*%
%ADD44R,0.0510X0.0630*%
%ADD45C,0.0060*%
%ADD46C,0.0050*%
%ADD47O,0.0600X0.0800*%
%ADD48R,0.0600X0.0800*%
%ADD49C,0.0250*%
%ADD50C,0.0630*%
%ADD51R,0.1000X0.0650*%
%ADD52C,0.0800*%
%ADD53R,0.0800X0.0800*%
%ADD54C,0.0600*%
%ADD55R,0.0800X0.0650*%
%ADD56R,0.1500X0.1250*%
%ADD57P,0.0650X8X0*%
%ADD58R,0.1500X0.2500*%
%ADD59R,0.1000X0.1000*%
%ADD60R,0.1410X0.1510*%
%ADD61R,0.0850X0.1400*%
%ADD62R,0.0840X0.1280*%
%ADD63R,0.0900X0.1380*%
%ADD64R,0.0950X0.1280*%
%ADD65R,0.0990X0.1540*%
%ADD66R,0.0880X0.1740*%
%ADD67R,0.1440X0.1570*%
%ADD68R,0.0820X0.0700*%
%ADD69R,0.0157X0.0236*%
%ADD70R,0.0630X0.0472*%
%ADD71R,0.0600X0.0500*%
%ADD72R,0.0440X0.0410*%
%ADD73R,0.0640X0.0650*%
%ADD74R,0.1030X0.1500*%
%ADD75R,0.1020X0.1460*%
%ADD76R,0.0560X0.0450*%
%ADD77R,0.0610X0.0520*%
%ADD78R,0.1020X0.1470*%
%ADD79R,0.1030X0.1440*%
%ADD80R,0.1080X0.1500*%
%ADD81R,0.0590X0.0470*%
%ADD82R,0.0610X0.0500*%
%ADD83R,0.1320X0.1390*%
%ADD84R,0.1110X0.1540*%
%ADD85R,0.1430X0.1590*%
%ADD86C,0.0039*%
%ADD87C,0.0110*%
%ADD88C,0.0070*%
%ADD89C,0.0020*%
%ADD90C,0.0079*%
%ADD91C,0.0040*%
%ADD92R,0.0090X0.0690*%
%ADD93R,0.0380X0.0700*%
%ADD94R,0.0400X0.0690*%
%ADD95R,0.0380X0.0560*%
%ADD96R,0.0160X0.0100*%
%ADD97R,0.0290X0.0110*%
%ADD98R,0.0400X0.0780*%
%ADD99R,0.0100X0.0060*%
%ADD100R,0.0450X0.0100*%
%ADD101R,0.0070X0.0080*%
%ADD102R,0.0430X0.0060*%
%ADD103R,0.0280X0.0050*%
%ADD104R,0.0180X0.0100*%
%ADD105R,0.0060X0.0050*%
%ADD106R,0.0310X0.0140*%
%ADD107R,0.0070X0.0120*%
%ADD108R,0.0060X0.0060*%
%ADD109R,0.0180X0.0150*%
%ADD110R,0.0130X0.0060*%
%ADD111R,0.0100X0.0110*%
%ADD112R,0.0110X0.0120*%
%ADD113R,0.0050X0.0050*%
%ADD114R,0.0070X0.0070*%
%ADD115R,0.0120X0.0060*%
%ADD116R,0.0070X0.0630*%
%ADD117R,0.0090X0.0030*%
%ADD118R,0.0050X0.0030*%
%ADD119R,0.0120X0.0590*%
%ADD120R,0.0040X0.0510*%
%ADD121R,0.0070X0.0020*%
%ADD122R,0.0050X0.0040*%
%ADD123R,0.0060X0.0030*%
%ADD124R,0.0040X0.0450*%
%ADD125R,0.0040X0.0040*%
%ADD126R,0.0040X0.0410*%
%ADD127R,0.0050X0.0330*%
%ADD128R,0.0040X0.0180*%
%ADD129R,0.0050X0.0160*%
%ADD130R,0.0070X0.0050*%
%ADD131R,0.0080X0.0140*%
%ADD132R,0.0220X0.0090*%
%ADD133R,0.0060X0.0040*%
%ADD134R,0.0150X0.0350*%
%ADD135R,0.0030X0.0050*%
%ADD136R,0.0350X0.0100*%
%ADD137R,0.0220X0.0160*%
%ADD138R,0.0160X0.0070*%
%ADD139R,0.0140X0.0070*%
%ADD140R,0.0090X0.0070*%
%ADD141R,0.0580X0.0150*%
%ADD142R,0.0050X0.0100*%
%ADD143R,0.0250X0.0020*%
%ADD144R,0.0040X0.0030*%
%ADD145R,0.0060X0.0090*%
%ADD146R,0.0390X0.0730*%
%ADD147R,0.0080X0.0160*%
%ADD148R,0.0040X0.0050*%
%ADD149R,0.0040X0.0160*%
%ADD150R,0.0320X0.0160*%
%ADD151R,0.0350X0.0090*%
%ADD152R,0.0100X0.0090*%
%ADD153R,0.0590X0.0100*%
%ADD154R,0.0300X0.0050*%
%ADD155R,0.0120X0.0030*%
%ADD156R,0.0060X0.0280*%
%ADD157R,0.0050X0.0190*%
%ADD158R,0.0050X0.0020*%
%ADD159R,0.0340X0.0250*%
%ADD160R,0.0320X0.0330*%
%ADD161R,0.0100X0.0140*%
%ADD162R,0.0050X0.0120*%
%ADD163R,0.0050X0.0080*%
%ADD164R,0.0330X0.0060*%
%ADD165R,0.0210X0.0040*%
%ADD166R,0.0090X0.0050*%
%ADD167R,0.0100X0.0080*%
%ADD168R,0.0090X0.0100*%
%ADD169R,0.0020X0.0030*%
%ADD170R,0.0560X0.0130*%
%ADD171R,0.0380X0.0050*%
%ADD172R,0.0080X0.0280*%
%ADD173R,0.0050X0.0180*%
%ADD174R,0.0380X0.0710*%
%ADD175R,0.0300X0.0180*%
%ADD176R,0.0270X0.0030*%
%ADD177R,0.0190X0.0050*%
%ADD178R,0.0070X0.0140*%
%ADD179R,0.0270X0.0040*%
%ADD180R,0.0180X0.0050*%
%ADD181R,0.0060X0.0110*%
%ADD182R,0.0390X0.1040*%
%ADD183R,0.0210X0.0100*%
%ADD184R,0.0315X0.0787*%
%ADD185R,0.3600X0.0670*%
%ADD186R,0.0080X0.0120*%
%ADD187R,0.0787X0.0315*%
%ADD188R,0.4170X0.0870*%
%ADD189R,0.1100X0.5200*%
%ADD190R,0.0297X0.0277*%
%ADD191R,0.0470X0.0350*%
%ADD192R,0.0480X0.0480*%
%ADD193R,0.0316X0.0395*%
%ADD194R,0.0159X0.0454*%
%ADD195R,0.0440X0.0440*%
%ADD196R,0.0580X0.0440*%
%ADD197R,0.0395X0.0316*%
%ADD198R,0.0474X0.0474*%
%ADD199R,0.3580X0.4580*%
%ADD200R,0.0780X0.0900*%
%ADD201R,0.1580X0.0900*%
%ADD202R,0.0277X0.0297*%
%ADD203R,0.1379X0.0592*%
%ADD204R,0.2080X0.2080*%
%ADD205R,0.0680X0.0680*%
%ADD206R,0.0592X0.1379*%
%ADD207R,0.0395X0.0395*%
%ADD208R,0.0395X0.0395*%
%ADD209R,0.0316X0.0237*%
%ADD210R,0.1773X0.1773*%
%ADD211R,0.0454X0.0159*%
%ADD212O,0.0680X0.0880*%
%ADD213R,0.0680X0.0880*%
%ADD214C,0.0330*%
%ADD215C,0.0710*%
%ADD216R,0.1080X0.0730*%
%ADD217C,0.0880*%
%ADD218R,0.0880X0.0880*%
%ADD219C,0.0680*%
%ADD220R,0.0880X0.0730*%
%ADD221R,0.1580X0.1330*%
%ADD222P,0.0730X8X0*%
%ADD223R,0.1580X0.2580*%
%ADD224R,0.1080X0.1080*%
%ADD225R,0.4200X0.0830*%
%ADD226R,0.1040X0.5150*%
%ADD227R,0.0900X0.0780*%
%ADD228R,0.0237X0.0316*%
%ADD229R,0.0710X0.0552*%
%ADD230R,0.0680X0.0580*%
%ADD231C,0.0650*%
D10*
X132635Y60463D02*
X132630Y60561D01*
X132616Y60658D01*
X132592Y60753D01*
X132559Y60846D01*
X132517Y60935D01*
X132467Y61019D01*
X132408Y61098D01*
X132342Y61170D01*
X132269Y61236D01*
X132191Y61295D01*
X132106Y61345D01*
X132018Y61387D01*
X131925Y61420D01*
X131830Y61444D01*
X131733Y61458D01*
X131635Y61463D01*
X131643Y48463D02*
X131740Y48470D01*
X131837Y48486D01*
X131932Y48511D01*
X132024Y48545D01*
X132112Y48588D01*
X132195Y48640D01*
X132273Y48699D01*
X132345Y48765D01*
X132411Y48838D01*
X132468Y48918D01*
X132518Y49002D01*
X132560Y49091D01*
X132593Y49183D01*
X132616Y49278D01*
X132630Y49375D01*
X132635Y49473D01*
X88635Y49463D02*
X88640Y49365D01*
X88654Y49268D01*
X88678Y49173D01*
X88711Y49080D01*
X88753Y48992D01*
X88804Y48908D01*
X88862Y48829D01*
X88928Y48756D01*
X89001Y48690D01*
X89079Y48632D01*
X89164Y48581D01*
X89252Y48539D01*
X89345Y48506D01*
X89440Y48482D01*
X89537Y48468D01*
X89635Y48463D01*
Y61463D02*
X89537Y61458D01*
X89440Y61444D01*
X89345Y61420D01*
X89252Y61387D01*
X89164Y61345D01*
X89079Y61295D01*
X89001Y61236D01*
X88928Y61170D01*
X88862Y61098D01*
X88804Y61019D01*
X88753Y60935D01*
X88711Y60846D01*
X88678Y60753D01*
X88654Y60658D01*
X88640Y60561D01*
X88635Y60463D01*
X126635Y104713D02*
X101635D01*
X130135Y69713D02*
X127135D01*
X126635Y67513D02*
Y69213D01*
X101635Y68413D02*
Y68613D01*
X126635Y68413D02*
Y68613D01*
X102235Y68313D02*
X101635Y68513D01*
X102235Y68713D02*
X101635Y68513D01*
X126635D02*
X126035Y68313D01*
X126635Y68513D02*
X126035Y68713D01*
X111326Y68513D02*
X101635D01*
X126635D02*
X116944D01*
X126635Y69713D02*
X101635D01*
Y104713D01*
X126635Y69713D02*
Y104713D01*
X131635Y48463D02*
X89635D01*
X131635Y61463D02*
X89635D01*
X88635Y49463D02*
Y60463D01*
X132635Y49463D02*
Y60463D01*
X129235Y104713D02*
X129035D01*
X129235Y69713D02*
X129035D01*
X129135Y104713D02*
X128935Y104113D01*
X129335D02*
X129135Y104713D01*
Y69713D02*
X128935Y70313D01*
X129335D02*
X129135Y69713D01*
Y90022D02*
Y104713D01*
Y69713D02*
Y84404D01*
D11*
X65135Y48713D02*
X65145Y48612D01*
X65175Y48516D01*
X65225Y48427D01*
X65290Y48351D01*
X65370Y48289D01*
X65461Y48244D01*
X65559Y48219D01*
X65660Y48214D01*
X65760Y48229D01*
X65855Y48264D01*
X65941Y48318D01*
X66014Y48387D01*
X66072Y48470D01*
X66112Y48563D01*
X66132Y48662D01*
Y48764D01*
X66112Y48863D01*
X66072Y48956D01*
X66014Y49039D01*
X65941Y49108D01*
X65855Y49162D01*
X65760Y49197D01*
X65660Y49212D01*
X65559Y49207D01*
X65461Y49182D01*
X65370Y49137D01*
X65290Y49075D01*
X65225Y48999D01*
X65175Y48910D01*
X65145Y48814D01*
X65135Y48713D01*
X64885D02*
X64892Y48613D01*
X64912Y48515D01*
X64944Y48420D01*
X64990Y48331D01*
X65046Y48248D01*
X65114Y48174D01*
X65190Y48109D01*
X65275Y48055D01*
X65365Y48013D01*
X65461Y47983D01*
X65560Y47967D01*
X65660Y47963D01*
X65760Y47973D01*
X65857Y47997D01*
X65951Y48033D01*
X66039Y48081D01*
X66119Y48140D01*
X66191Y48210D01*
X66253Y48289D01*
X66304Y48375D01*
X66343Y48467D01*
X66370Y48564D01*
X66383Y48663D01*
Y48763D01*
X66370Y48862D01*
X66343Y48959D01*
X66304Y49051D01*
X66253Y49138D01*
X66191Y49216D01*
X66119Y49286D01*
X66039Y49345D01*
X65951Y49393D01*
X65857Y49429D01*
X65760Y49453D01*
X65660Y49463D01*
X65560Y49459D01*
X65461Y49443D01*
X65365Y49413D01*
X65275Y49371D01*
X65190Y49317D01*
X65114Y49252D01*
X65046Y49178D01*
X64990Y49095D01*
X64944Y49006D01*
X64912Y48911D01*
X64892Y48813D01*
X64885Y48713D01*
X65610D02*
X65660D01*
X65610D01*
X65585D02*
X65660Y48670D01*
Y48756D01*
X65585Y48713D01*
X65435D02*
X65458Y48620D01*
X65521Y48548D01*
X65611Y48514D01*
X65706Y48526D01*
X65785Y48580D01*
X65829Y48665D01*
Y48761D01*
X65785Y48846D01*
X65706Y48900D01*
X65611Y48912D01*
X65521Y48878D01*
X65458Y48806D01*
X65435Y48713D01*
X65485D02*
X65520Y48617D01*
X65609Y48565D01*
X65710Y48583D01*
X65776Y48662D01*
Y48764D01*
X65710Y48843D01*
X65609Y48861D01*
X65520Y48809D01*
X65485Y48713D01*
X65535D02*
X65585Y48626D01*
X65685D01*
X65735Y48713D01*
X65685Y48800D01*
X65585D01*
X65535Y48713D01*
X134885Y108713D02*
X134892Y108613D01*
X134912Y108515D01*
X134945Y108420D01*
X134990Y108331D01*
X135046Y108248D01*
X135114Y108174D01*
X135190Y108109D01*
X135275Y108055D01*
X135365Y108013D01*
X135461Y107984D01*
X135560Y107967D01*
X135660Y107964D01*
X135760Y107974D01*
X135857Y107997D01*
X135951Y108033D01*
X136039Y108081D01*
X136119Y108140D01*
X136191Y108210D01*
X136253Y108289D01*
X136304Y108375D01*
X136344Y108467D01*
X136370Y108564D01*
X136383Y108663D01*
Y108763D01*
X136370Y108863D01*
X136344Y108959D01*
X136304Y109051D01*
X136253Y109138D01*
X136191Y109216D01*
X136119Y109286D01*
X136039Y109345D01*
X135951Y109393D01*
X135857Y109429D01*
X135760Y109453D01*
X135660Y109463D01*
X135560Y109459D01*
X135461Y109443D01*
X135365Y109413D01*
X135275Y109371D01*
X135190Y109317D01*
X135114Y109252D01*
X135046Y109178D01*
X134990Y109095D01*
X134945Y109006D01*
X134912Y108911D01*
X134892Y108813D01*
X134885Y108713D01*
X135610D02*
X135660D01*
X135610D01*
X135585D02*
X135660Y108670D01*
Y108756D01*
X135585Y108713D01*
X135535D02*
X135585Y108627D01*
X135685D01*
X135735Y108713D01*
X135685Y108800D01*
X135585D01*
X135535Y108713D01*
X135485D02*
X135520Y108617D01*
X135609Y108565D01*
X135710Y108583D01*
X135776Y108662D01*
Y108764D01*
X135710Y108843D01*
X135609Y108861D01*
X135520Y108810D01*
X135485Y108713D01*
X135435D02*
X135458Y108620D01*
X135521Y108549D01*
X135611Y108515D01*
X135706Y108526D01*
X135785Y108581D01*
X135829Y108665D01*
Y108761D01*
X135785Y108846D01*
X135706Y108900D01*
X135611Y108912D01*
X135521Y108878D01*
X135458Y108806D01*
X135435Y108713D01*
X135135D02*
X135145Y108612D01*
X135176Y108516D01*
X135225Y108427D01*
X135291Y108351D01*
X135371Y108289D01*
X135461Y108244D01*
X135559Y108219D01*
X135660Y108214D01*
X135760Y108229D01*
X135855Y108264D01*
X135941Y108318D01*
X136014Y108387D01*
X136072Y108470D01*
X136112Y108563D01*
X136132Y108663D01*
Y108764D01*
X136112Y108863D01*
X136072Y108956D01*
X136014Y109039D01*
X135941Y109109D01*
X135855Y109162D01*
X135760Y109197D01*
X135660Y109212D01*
X135559Y109207D01*
X135461Y109182D01*
X135371Y109137D01*
X135291Y109076D01*
X135225Y108999D01*
X135176Y108910D01*
X135145Y108814D01*
X135135Y108713D01*
X135135Y48713D02*
X135145Y48612D01*
X135175Y48516D01*
X135225Y48427D01*
X135290Y48351D01*
X135370Y48289D01*
X135461Y48244D01*
X135559Y48219D01*
X135660Y48214D01*
X135760Y48229D01*
X135855Y48264D01*
X135941Y48318D01*
X136014Y48387D01*
X136072Y48470D01*
X136112Y48563D01*
X136132Y48662D01*
Y48764D01*
X136112Y48863D01*
X136072Y48956D01*
X136014Y49039D01*
X135941Y49108D01*
X135855Y49162D01*
X135760Y49197D01*
X135660Y49212D01*
X135559Y49207D01*
X135461Y49182D01*
X135370Y49137D01*
X135290Y49075D01*
X135225Y48999D01*
X135175Y48910D01*
X135145Y48814D01*
X135135Y48713D01*
X134885D02*
X134892Y48613D01*
X134912Y48515D01*
X134944Y48420D01*
X134990Y48331D01*
X135046Y48248D01*
X135114Y48174D01*
X135190Y48109D01*
X135275Y48055D01*
X135365Y48013D01*
X135461Y47983D01*
X135560Y47967D01*
X135660Y47963D01*
X135760Y47973D01*
X135857Y47997D01*
X135951Y48033D01*
X136039Y48081D01*
X136119Y48140D01*
X136191Y48210D01*
X136253Y48289D01*
X136304Y48375D01*
X136343Y48467D01*
X136370Y48564D01*
X136383Y48663D01*
Y48763D01*
X136370Y48862D01*
X136343Y48959D01*
X136304Y49051D01*
X136253Y49138D01*
X136191Y49216D01*
X136119Y49286D01*
X136039Y49345D01*
X135951Y49393D01*
X135857Y49429D01*
X135760Y49453D01*
X135660Y49463D01*
X135560Y49459D01*
X135461Y49443D01*
X135365Y49413D01*
X135275Y49371D01*
X135190Y49317D01*
X135114Y49252D01*
X135046Y49178D01*
X134990Y49095D01*
X134944Y49006D01*
X134912Y48911D01*
X134892Y48813D01*
X134885Y48713D01*
X135610D02*
X135660D01*
X135610D01*
X135585D02*
X135660Y48670D01*
Y48756D01*
X135585Y48713D01*
X135435D02*
X135458Y48620D01*
X135521Y48548D01*
X135611Y48514D01*
X135706Y48526D01*
X135785Y48580D01*
X135829Y48665D01*
Y48761D01*
X135785Y48846D01*
X135706Y48900D01*
X135611Y48912D01*
X135521Y48878D01*
X135458Y48806D01*
X135435Y48713D01*
X135535D02*
X135585Y48626D01*
X135685D01*
X135735Y48713D01*
X135685Y48800D01*
X135585D01*
X135535Y48713D01*
X135485D02*
X135520Y48617D01*
X135609Y48565D01*
X135710Y48583D01*
X135776Y48662D01*
Y48764D01*
X135710Y48843D01*
X135609Y48861D01*
X135520Y48809D01*
X135485Y48713D01*
X134885D02*
X134385D01*
X137885D02*
X136385D01*
X138635Y45713D02*
X137885D01*
X138885Y47963D02*
X138385D01*
X138780Y48043D02*
X138490D01*
X138730Y48078D02*
X138540D01*
X138830Y48008D02*
X138440D01*
X138680Y48113D02*
X138590D01*
X136635Y45713D02*
X136385D01*
X140635Y48713D02*
X138635D01*
X139385Y49713D02*
X138635D01*
X139385Y50713D02*
X138635D01*
X139385Y51713D02*
X138635D01*
X139385Y52713D02*
X138635D01*
X140135Y53713D02*
X138635D01*
X139385Y54713D02*
X138635D01*
X139385Y55713D02*
X138635D01*
X139385Y56713D02*
X138635D01*
X139385Y57713D02*
X138635D01*
X140635Y58713D02*
X138635D01*
X139385Y59713D02*
X138635D01*
X139385Y60713D02*
X138635D01*
X139385Y61713D02*
X138635D01*
X139385Y62713D02*
X138635D01*
X140135Y63713D02*
X138635D01*
X139385Y64713D02*
X138635D01*
X139385Y65713D02*
X138635D01*
X139385Y66713D02*
X138635D01*
X139385Y67713D02*
X138635D01*
X140635Y68713D02*
X138635D01*
X139385Y69713D02*
X138635D01*
X139385Y70713D02*
X138635D01*
X139385Y71713D02*
X138635D01*
X139385Y72713D02*
X138635D01*
X140135Y73713D02*
X138635D01*
X139385Y74713D02*
X138635D01*
X139385Y75713D02*
X138635D01*
X139385Y76713D02*
X138635D01*
X139385Y77713D02*
X138635D01*
X140635Y78713D02*
X138635D01*
X139385Y79713D02*
X138635D01*
X139385Y80713D02*
X138635D01*
X139385Y81713D02*
X138635D01*
X139385Y82713D02*
X138635D01*
X140135Y83713D02*
X138635D01*
X139385Y84713D02*
X138635D01*
X139385Y85713D02*
X138635D01*
X139385Y86713D02*
X138635D01*
X139385Y87713D02*
X138635D01*
X140635Y88713D02*
X138635D01*
X139385Y89713D02*
X138635D01*
X139385Y90713D02*
X138635D01*
X139385Y91713D02*
X138635D01*
X139385Y92713D02*
X138635D01*
X140135Y93713D02*
X138635D01*
X139385Y94713D02*
X138635D01*
X139385Y95713D02*
X138635D01*
X139385Y96713D02*
X138635D01*
X139385Y97713D02*
X138635D01*
X140635Y98713D02*
X138635D01*
X139385Y99713D02*
X138635D01*
X139385Y100713D02*
X138635D01*
X139385Y101713D02*
X138635D01*
X139385Y102713D02*
X138635D01*
X140135Y103713D02*
X138635D01*
X139385Y104713D02*
X138635D01*
X139385Y105713D02*
X138635D01*
X139385Y106713D02*
X138635D01*
X139385Y107713D02*
X138635D01*
X140635Y108713D02*
X138635D01*
X135635D02*
X135135D01*
X136135D02*
X135635D01*
X137885D02*
X136385D01*
X134885D02*
X134385D01*
X66885Y48713D02*
X66385D01*
X64885D02*
X64385D01*
X135635Y46463D02*
Y47963D01*
Y49463D02*
Y49963D01*
X138635Y45713D02*
Y46463D01*
X136385Y45463D02*
Y45963D01*
X136305Y45568D02*
Y45858D01*
X138635Y47713D02*
Y47963D01*
X136270Y45618D02*
Y45808D01*
X136340Y45518D02*
Y45908D01*
X136235Y45668D02*
Y45758D01*
X135635Y43713D02*
Y45713D01*
X134635Y44963D02*
Y45713D01*
X133635Y44963D02*
Y45713D01*
X132635Y44963D02*
Y45713D01*
X131635Y44963D02*
Y45713D01*
X130635Y44213D02*
Y45713D01*
X129635Y44963D02*
Y45713D01*
X128635Y44963D02*
Y45713D01*
X127635Y44963D02*
Y45713D01*
X126635Y44963D02*
Y45713D01*
X125635Y43713D02*
Y45713D01*
X124635Y44963D02*
Y45713D01*
X123635Y44963D02*
Y45713D01*
X122635Y44963D02*
Y45713D01*
X121635Y44963D02*
Y45713D01*
X120635Y44213D02*
Y45713D01*
X119635Y44963D02*
Y45713D01*
X118635Y44963D02*
Y45713D01*
X117635Y44963D02*
Y45713D01*
X116635Y44963D02*
Y45713D01*
X115635Y43713D02*
Y45713D01*
X114635Y44963D02*
Y45713D01*
X113635Y44963D02*
Y45713D01*
X112635Y44963D02*
Y45713D01*
X111635Y44963D02*
Y45713D01*
X110635Y44213D02*
Y45713D01*
X109635Y44963D02*
Y45713D01*
X108635Y44963D02*
Y45713D01*
X107635Y44963D02*
Y45713D01*
X106635Y44963D02*
Y45713D01*
X105635Y43713D02*
Y45713D01*
X104635Y44963D02*
Y45713D01*
X103635Y44963D02*
Y45713D01*
X102635Y44963D02*
Y45713D01*
X101635Y44963D02*
Y45713D01*
X100635Y44213D02*
Y45713D01*
X99635Y44963D02*
Y45713D01*
X98635Y44963D02*
Y45713D01*
X97635Y44963D02*
Y45713D01*
X96635Y44963D02*
Y45713D01*
X95635Y43713D02*
Y45713D01*
X94635Y44963D02*
Y45713D01*
X93635Y44963D02*
Y45713D01*
X92635Y44963D02*
Y45713D01*
X91635Y44963D02*
Y45713D01*
X90635Y44213D02*
Y45713D01*
X89635Y44963D02*
Y45713D01*
X88635Y44963D02*
Y45713D01*
X87635Y44963D02*
Y45713D01*
X86635Y44963D02*
Y45713D01*
X85635Y43713D02*
Y45713D01*
X84635Y44963D02*
Y45713D01*
X83635Y44963D02*
Y45713D01*
X82635Y44963D02*
Y45713D01*
X81635Y44963D02*
Y45713D01*
X80635Y44213D02*
Y45713D01*
X79635Y44963D02*
Y45713D01*
X78635Y44963D02*
Y45713D01*
X77635Y44963D02*
Y45713D01*
X76635Y44963D02*
Y45713D01*
X75635Y43713D02*
Y45713D01*
X74635Y44963D02*
Y45713D01*
X73635Y44963D02*
Y45713D01*
X72635Y44963D02*
Y45713D01*
X71635Y44963D02*
Y45713D01*
X70635Y44213D02*
Y45713D01*
X69635Y44963D02*
Y45713D01*
X68635Y44963D02*
Y45713D01*
X67635Y44963D02*
Y45713D01*
X66635Y44963D02*
Y45713D01*
X65635Y43713D02*
Y45713D01*
X135635Y108213D02*
Y108713D01*
Y109213D01*
Y109463D02*
Y109963D01*
Y107463D02*
Y107963D01*
X65635Y49463D02*
Y49963D01*
Y46463D02*
Y47963D01*
X135635Y48713D02*
X135285Y49063D01*
X135985Y48363D02*
X135635Y48713D01*
X65985Y48363D02*
X65635Y48713D01*
X65285Y49063D01*
X135635Y48713D02*
X135285Y48363D01*
X135985Y49063D02*
X135635Y48713D01*
X65635D02*
X65285Y48363D01*
X65985Y49063D02*
X65635Y48713D01*
X136385Y45463D02*
X135635Y45713D01*
X136385Y45963D02*
X135635Y45713D01*
X136305Y45858D02*
X135875Y45713D01*
X136305Y45568D02*
X135875Y45713D01*
X138635Y48713D02*
X138385Y47963D01*
X138885D02*
X138635Y48713D01*
X138780Y48043D02*
X138635Y48473D01*
X138490Y48043D01*
X138730Y48078D02*
X138635Y48358D01*
X138540Y48078D01*
X138830Y48008D02*
X138635Y48588D01*
X138440Y48008D01*
X138680Y48113D02*
X138635Y48243D01*
X138590Y48113D01*
X136270Y45808D02*
X135990Y45713D01*
X136270Y45618D02*
X135990Y45713D01*
X136340Y45908D02*
X135760Y45713D01*
X136340Y45518D02*
X135760Y45713D01*
X136235Y45758D02*
X136105Y45713D01*
X136235Y45668D02*
X136105Y45713D01*
X131207Y56920D02*
X131235Y56977D01*
X131292Y57034D01*
X131349Y57063D01*
X131464D01*
X131521Y57034D01*
X131578Y56977D01*
X131606Y56920D01*
X131635Y56834D01*
Y56692D01*
X131606Y56606D01*
X131578Y56549D01*
X131521Y56492D01*
X131464Y56463D01*
X131349D01*
X131292Y56492D01*
X131235Y56549D01*
X131207Y56606D01*
X130667Y57063D02*
X131038D01*
Y56463D01*
X130667D01*
X131038Y56777D02*
X130810D01*
X130567Y57063D02*
Y56463D01*
Y57063D02*
X130338Y56463D01*
X130110Y57063D02*
X130338Y56463D01*
X130110Y57063D02*
Y56463D01*
D12*
X106645Y81873D02*
D03*
X107125Y75687D02*
D03*
X106715D02*
D03*
X109085Y74869D02*
D03*
Y75263D02*
D03*
X106645Y82267D02*
D03*
X107125Y75293D02*
D03*
X106715D02*
D03*
D13*
X105865Y72177D02*
D03*
Y72927D02*
D03*
X115375Y76643D02*
D03*
X116375Y77018D02*
D03*
X115375Y77393D02*
D03*
Y72593D02*
D03*
X116375Y72218D02*
D03*
X115375Y71843D02*
D03*
Y74243D02*
D03*
X116375Y74618D02*
D03*
X115375Y74993D02*
D03*
Y82193D02*
D03*
X116375Y81818D02*
D03*
X115375Y81443D02*
D03*
X104865Y72927D02*
D03*
X105865Y72552D02*
D03*
X104865Y72177D02*
D03*
Y72552D02*
D03*
X115375Y79793D02*
D03*
X116375Y79418D02*
D03*
X115375Y79043D02*
D03*
X121445Y83638D02*
D03*
X120445Y84013D02*
D03*
X121445Y84388D02*
D03*
Y86788D02*
D03*
X120445Y86413D02*
D03*
X121445Y86038D02*
D03*
Y88438D02*
D03*
X120445Y88813D02*
D03*
X121445Y89188D02*
D03*
D14*
X106733Y91333D02*
D03*
Y91933D02*
D03*
X106675Y85613D02*
D03*
X106075D02*
D03*
X106675Y84603D02*
D03*
X106075D02*
D03*
X122920Y103260D02*
D03*
Y102660D02*
D03*
X108570Y81173D02*
D03*
Y81773D02*
D03*
X111135Y93703D02*
D03*
Y93103D02*
D03*
X122535Y73113D02*
D03*
X121935D02*
D03*
X122535Y74123D02*
D03*
X121935D02*
D03*
X122535Y75113D02*
D03*
X121935D02*
D03*
X122532Y76114D02*
D03*
X121932D02*
D03*
X122535Y77113D02*
D03*
X121935D02*
D03*
X122535Y78113D02*
D03*
X121935D02*
D03*
X122532Y79114D02*
D03*
X121932D02*
D03*
X122545Y80113D02*
D03*
X121945D02*
D03*
X122532Y81124D02*
D03*
X121932D02*
D03*
X105455Y90123D02*
D03*
X106055D02*
D03*
X106964Y89189D02*
D03*
X107564D02*
D03*
X106595Y77705D02*
D03*
Y78305D02*
D03*
X105455Y90723D02*
D03*
X106055D02*
D03*
X109655Y75693D02*
D03*
Y76293D02*
D03*
X104840Y71059D02*
D03*
X105440D02*
D03*
X104705Y74073D02*
D03*
X105305D02*
D03*
X122135Y84248D02*
D03*
Y83648D02*
D03*
X105185Y76673D02*
D03*
Y76073D02*
D03*
X104225D02*
D03*
Y76673D02*
D03*
X114635Y72443D02*
D03*
Y71843D02*
D03*
Y74843D02*
D03*
Y74243D02*
D03*
Y77249D02*
D03*
Y76649D02*
D03*
Y79640D02*
D03*
Y79040D02*
D03*
Y82021D02*
D03*
Y81421D02*
D03*
X122135Y86633D02*
D03*
Y86033D02*
D03*
Y89064D02*
D03*
Y88464D02*
D03*
X109095Y74353D02*
D03*
X110095D02*
D03*
X116465Y80133D02*
D03*
Y77733D02*
D03*
X112505Y81052D02*
D03*
Y80052D02*
D03*
Y79052D02*
D03*
Y77052D02*
D03*
Y78052D02*
D03*
Y74052D02*
D03*
Y75052D02*
D03*
X120605Y91343D02*
D03*
X121605Y91313D02*
D03*
X112509Y82052D02*
D03*
X111095Y74353D02*
D03*
X112505Y76052D02*
D03*
X108095Y87713D02*
D03*
Y74353D02*
D03*
X106125Y74363D02*
D03*
X107145Y74353D02*
D03*
X105185Y83133D02*
D03*
X110095Y87703D02*
D03*
X109095D02*
D03*
X107095D02*
D03*
X111095D02*
D03*
X122115Y87853D02*
D03*
X122095Y85423D02*
D03*
X121065Y83043D02*
D03*
X116465Y82533D02*
D03*
Y75333D02*
D03*
Y72933D02*
D03*
X112505Y73052D02*
D03*
X105185Y87213D02*
D03*
D20*
X102615Y92231D02*
D03*
Y90715D02*
D03*
X107247Y102489D02*
D03*
X105731D02*
D03*
D22*
X105605Y103468D02*
D03*
X107325D02*
D03*
D24*
X105661Y91323D02*
D03*
X106055D02*
D03*
X107064Y84119D02*
D03*
X106671D02*
D03*
X107064Y85123D02*
D03*
X106671D02*
D03*
Y86200D02*
D03*
X107064D02*
D03*
X105818Y79000D02*
D03*
X106212D02*
D03*
X110089Y74933D02*
D03*
X109695D02*
D03*
D28*
X119635Y86413D02*
D03*
X117115D02*
D03*
Y77013D02*
D03*
X119635D02*
D03*
X117105Y88823D02*
D03*
X119625D02*
D03*
X117115Y79413D02*
D03*
X119635D02*
D03*
X117115Y74613D02*
D03*
X119635D02*
D03*
X117115Y72213D02*
D03*
X119635D02*
D03*
X117115Y81813D02*
D03*
X119635D02*
D03*
Y84013D02*
D03*
X117115D02*
D03*
D36*
X89625Y53713D02*
X89529Y53704D01*
X89438Y53676D01*
X89353Y53631D01*
X89279Y53570D01*
X89218Y53495D01*
X89172Y53411D01*
X89144Y53319D01*
X89135Y53223D01*
X101135Y53213D02*
X101125Y53311D01*
X101097Y53404D01*
X101051Y53491D01*
X100989Y53567D01*
X100913Y53629D01*
X100826Y53675D01*
X100733Y53704D01*
X100635Y53713D01*
X89135Y54713D02*
X89145Y54616D01*
X89173Y54522D01*
X89219Y54435D01*
X89282Y54360D01*
X89357Y54297D01*
X89444Y54251D01*
X89538Y54223D01*
X89635Y54213D01*
X100635D02*
X100733Y54223D01*
X100826Y54251D01*
X100913Y54297D01*
X100989Y54360D01*
X101051Y54435D01*
X101097Y54522D01*
X101125Y54616D01*
X101135Y54713D01*
X89642Y60963D02*
X89544Y60956D01*
X89449Y60931D01*
X89362Y60886D01*
X89285Y60826D01*
X89221Y60751D01*
X89174Y60665D01*
X89145Y60571D01*
X89135Y60473D01*
Y51963D02*
X89145Y51866D01*
X89173Y51772D01*
X89219Y51685D01*
X89282Y51610D01*
X89357Y51547D01*
X89444Y51501D01*
X89538Y51473D01*
X89635Y51463D01*
Y50963D02*
X89539Y50954D01*
X89446Y50926D01*
X89360Y50881D01*
X89285Y50820D01*
X89222Y50746D01*
X89176Y50661D01*
X89146Y50568D01*
X89135Y50472D01*
X89135Y49463D02*
X89145Y49366D01*
X89173Y49272D01*
X89219Y49185D01*
X89282Y49110D01*
X89357Y49047D01*
X89444Y49001D01*
X89538Y48973D01*
X89635Y48963D01*
X101635Y51963D02*
X101645Y51866D01*
X101673Y51772D01*
X101719Y51685D01*
X101782Y51610D01*
X101857Y51547D01*
X101944Y51501D01*
X102038Y51473D01*
X102135Y51463D01*
X100637Y51463D02*
X100733Y51471D01*
X100827Y51498D01*
X100913Y51543D01*
X100989Y51604D01*
X101051Y51678D01*
X101097Y51764D01*
X101125Y51856D01*
X101135Y51953D01*
X102125Y53713D02*
X102029Y53704D01*
X101938Y53676D01*
X101853Y53631D01*
X101779Y53570D01*
X101718Y53495D01*
X101672Y53411D01*
X101644Y53319D01*
X101635Y53223D01*
X131644Y48963D02*
X131740Y48974D01*
X131832Y49004D01*
X131917Y49050D01*
X131992Y49113D01*
X132053Y49188D01*
X132098Y49274D01*
X132126Y49367D01*
X132135Y49463D01*
X101635Y54713D02*
X101644Y54617D01*
X101672Y54524D01*
X101717Y54438D01*
X101778Y54363D01*
X101853Y54300D01*
X101938Y54254D01*
X102030Y54224D01*
X102126Y54213D01*
X132135Y50463D02*
X132125Y50561D01*
X132097Y50654D01*
X132051Y50741D01*
X131989Y50817D01*
X131913Y50879D01*
X131826Y50925D01*
X131733Y50954D01*
X131635Y50963D01*
X102135Y58463D02*
X102038Y58454D01*
X101944Y58425D01*
X101857Y58379D01*
X101782Y58317D01*
X101719Y58241D01*
X101673Y58154D01*
X101645Y58061D01*
X101635Y57963D01*
Y59463D02*
X101645Y59366D01*
X101673Y59272D01*
X101719Y59185D01*
X101782Y59110D01*
X101857Y59047D01*
X101944Y59001D01*
X102038Y58973D01*
X102135Y58963D01*
X101135Y60463D02*
X101125Y60561D01*
X101097Y60654D01*
X101051Y60741D01*
X100989Y60817D01*
X100913Y60879D01*
X100826Y60925D01*
X100733Y60954D01*
X100635Y60963D01*
X102135D02*
X102038Y60954D01*
X101944Y60925D01*
X101857Y60879D01*
X101782Y60817D01*
X101719Y60741D01*
X101673Y60654D01*
X101645Y60561D01*
X101635Y60463D01*
X132135D02*
X132125Y60561D01*
X132097Y60654D01*
X132051Y60741D01*
X131989Y60817D01*
X131913Y60879D01*
X131826Y60925D01*
X131733Y60954D01*
X131635Y60963D01*
Y58963D02*
X131733Y58973D01*
X131826Y59001D01*
X131913Y59047D01*
X131989Y59110D01*
X132051Y59185D01*
X132097Y59272D01*
X132125Y59366D01*
X132135Y59463D01*
Y57963D02*
X132125Y58061D01*
X132097Y58154D01*
X132051Y58241D01*
X131989Y58317D01*
X131913Y58379D01*
X131826Y58425D01*
X131733Y58454D01*
X131635Y58463D01*
Y55213D02*
X131733Y55223D01*
X131826Y55251D01*
X131913Y55297D01*
X131989Y55360D01*
X132051Y55435D01*
X132097Y55522D01*
X132125Y55616D01*
X132135Y55713D01*
Y54213D02*
X132125Y54311D01*
X132097Y54404D01*
X132051Y54491D01*
X131989Y54567D01*
X131913Y54629D01*
X131826Y54675D01*
X131733Y54704D01*
X131635Y54713D01*
X131644Y51463D02*
X131740Y51474D01*
X131832Y51504D01*
X131917Y51550D01*
X131992Y51613D01*
X132053Y51688D01*
X132098Y51774D01*
X132126Y51867D01*
X132135Y51963D01*
X123135Y57963D02*
X123125Y58061D01*
X123097Y58154D01*
X123051Y58241D01*
X122989Y58317D01*
X122913Y58379D01*
X122826Y58425D01*
X122733Y58454D01*
X122635Y58463D01*
X123135Y53213D02*
X123125Y53311D01*
X123097Y53404D01*
X123051Y53491D01*
X122989Y53567D01*
X122913Y53629D01*
X122826Y53675D01*
X122733Y53704D01*
X122635Y53713D01*
X105634Y53208D02*
X105630Y53305D01*
X105605Y53399D01*
X105563Y53487D01*
X105503Y53564D01*
X105430Y53627D01*
X105345Y53674D01*
X105252Y53703D01*
X105155Y53713D01*
X105134Y51463D02*
X105232Y51475D01*
X105326Y51505D01*
X105413Y51552D01*
X105489Y51616D01*
X105551Y51693D01*
X105597Y51780D01*
X105625Y51875D01*
X105635Y51973D01*
X106135Y51962D02*
X106143Y51865D01*
X106170Y51772D01*
X106215Y51685D01*
X106276Y51610D01*
X106350Y51548D01*
X106436Y51501D01*
X106528Y51473D01*
X106625Y51463D01*
Y53713D02*
X106529Y53704D01*
X106438Y53676D01*
X106353Y53631D01*
X106279Y53570D01*
X106218Y53495D01*
X106172Y53411D01*
X106144Y53319D01*
X106135Y53223D01*
X123635Y51953D02*
X123644Y51858D01*
X123672Y51766D01*
X123718Y51681D01*
X123779Y51607D01*
X123853Y51546D01*
X123938Y51500D01*
X124029Y51473D01*
X124125Y51463D01*
X122645D02*
X122741Y51473D01*
X122833Y51500D01*
X122917Y51546D01*
X122992Y51607D01*
X123052Y51681D01*
X123098Y51766D01*
X123126Y51858D01*
X123135Y51953D01*
X122645Y54213D02*
X122741Y54223D01*
X122833Y54250D01*
X122917Y54296D01*
X122992Y54357D01*
X123052Y54431D01*
X123098Y54516D01*
X123126Y54608D01*
X123135Y54703D01*
X124142Y54713D02*
X124044Y54706D01*
X123949Y54681D01*
X123862Y54636D01*
X123785Y54576D01*
X123721Y54501D01*
X123674Y54415D01*
X123645Y54321D01*
X123635Y54223D01*
Y55693D02*
X123644Y55599D01*
X123672Y55509D01*
X123716Y55426D01*
X123776Y55354D01*
X123848Y55294D01*
X123931Y55250D01*
X124021Y55222D01*
X124115Y55213D01*
X124125Y58463D02*
X124029Y58454D01*
X123938Y58426D01*
X123853Y58381D01*
X123779Y58320D01*
X123718Y58245D01*
X123672Y58161D01*
X123644Y58069D01*
X123635Y57973D01*
X95635Y50463D02*
X95625Y50561D01*
X95597Y50654D01*
X95551Y50741D01*
X95489Y50817D01*
X95413Y50879D01*
X95326Y50925D01*
X95233Y50954D01*
X95135Y50963D01*
X95136Y48963D02*
X95233Y48971D01*
X95327Y48998D01*
X95413Y49043D01*
X95489Y49104D01*
X95551Y49178D01*
X95597Y49264D01*
X95625Y49356D01*
X95635Y49453D01*
X96135Y49460D02*
X96142Y49363D01*
X96168Y49269D01*
X96212Y49183D01*
X96273Y49107D01*
X96347Y49045D01*
X96433Y48999D01*
X96527Y48971D01*
X96623Y48963D01*
X96635Y50963D02*
X96538Y50954D01*
X96444Y50925D01*
X96357Y50879D01*
X96281Y50817D01*
X96219Y50741D01*
X96173Y50654D01*
X96145Y50561D01*
X96135Y50463D01*
X113394Y48963D02*
X113490Y48974D01*
X113582Y49004D01*
X113667Y49050D01*
X113742Y49113D01*
X113803Y49188D01*
X113848Y49274D01*
X113876Y49367D01*
X113885Y49463D01*
Y50463D02*
X113875Y50561D01*
X113847Y50654D01*
X113801Y50741D01*
X113739Y50817D01*
X113663Y50879D01*
X113576Y50925D01*
X113483Y50954D01*
X113385Y50963D01*
X114385Y49460D02*
X114392Y49363D01*
X114418Y49269D01*
X114462Y49183D01*
X114523Y49107D01*
X114597Y49045D01*
X114683Y48999D01*
X114777Y48971D01*
X114873Y48963D01*
X114885Y50963D02*
X114788Y50954D01*
X114694Y50925D01*
X114607Y50879D01*
X114531Y50817D01*
X114469Y50741D01*
X114423Y50654D01*
X114395Y50561D01*
X114385Y50463D01*
X113385Y48963D02*
X96635D01*
X131635D02*
X114885D01*
X131635Y50963D02*
X114885D01*
X113385D02*
X96635D01*
X95135Y48963D02*
X89635D01*
X95135Y50963D02*
X89635D01*
X131635Y60963D02*
X102135D01*
X131635Y51463D02*
X124135D01*
X131635Y54713D02*
X124135D01*
X131635Y55213D02*
X124135D01*
X131635Y58463D02*
X124135D01*
X131635Y58963D02*
X102135D01*
X122635Y58463D02*
X102135D01*
X122635Y53713D02*
X106635D01*
X122635Y51463D02*
X106635D01*
X105135D02*
X102135D01*
X105135Y53713D02*
X102135D01*
X100635Y51463D02*
X89635D01*
X100635Y60963D02*
X89635D01*
X122635Y54213D02*
X102135D01*
X100635D02*
X89635D01*
X100635Y53713D02*
X89635D01*
X114385Y49463D02*
Y50463D01*
X113885Y49463D02*
Y50463D01*
X96135Y49463D02*
Y50463D01*
X95635Y49463D02*
Y50463D01*
X132135Y51963D02*
Y54213D01*
X123635Y51963D02*
Y54213D01*
X132135Y55713D02*
Y57963D01*
X123635Y55713D02*
Y57963D01*
X132135Y59463D02*
Y60463D01*
X101635Y59463D02*
Y60463D01*
Y54713D02*
Y57963D01*
X123135Y54713D02*
Y57963D01*
X106135Y51963D02*
Y53213D01*
X123135Y51963D02*
Y53213D01*
X105635Y51963D02*
Y53213D01*
X101635Y51963D02*
Y53213D01*
X89135Y49463D02*
Y50463D01*
Y51963D02*
Y52963D01*
X132135Y49463D02*
Y50463D01*
X101135Y54713D02*
Y60463D01*
X89135Y54713D02*
Y60463D01*
X101135Y51963D02*
Y53213D01*
D42*
X142371Y108984D02*
X142414Y109070D01*
X142542Y109113D01*
X142628D01*
X142757Y109070D01*
X142842Y108942D01*
X142885Y108727D01*
Y108513D01*
X142842Y108342D01*
X142757Y108256D01*
X142628Y108213D01*
X142585D01*
X142457Y108256D01*
X142371Y108342D01*
X142328Y108470D01*
Y108513D01*
X142371Y108642D01*
X142457Y108727D01*
X142585Y108770D01*
X142628D01*
X142757Y108727D01*
X142842Y108642D01*
X142885Y108513D01*
X142088Y108299D02*
X142131Y108256D01*
X142088Y108213D01*
X142045Y108256D01*
X142088Y108299D01*
X141591Y109113D02*
X141720Y109070D01*
X141805Y108942D01*
X141848Y108727D01*
Y108599D01*
X141805Y108385D01*
X141720Y108256D01*
X141591Y108213D01*
X141505D01*
X141377Y108256D01*
X141291Y108385D01*
X141248Y108599D01*
Y108727D01*
X141291Y108942D01*
X141377Y109070D01*
X141505Y109113D01*
X141591D01*
X142457Y89113D02*
X142885Y88513D01*
X142242D01*
X142457Y89113D02*
Y88213D01*
X142041Y88299D02*
X142084Y88256D01*
X142041Y88213D01*
X141998Y88256D01*
X142041Y88299D01*
X141544Y89113D02*
X141672Y89070D01*
X141758Y88942D01*
X141801Y88727D01*
Y88599D01*
X141758Y88385D01*
X141672Y88256D01*
X141544Y88213D01*
X141458D01*
X141330Y88256D01*
X141244Y88385D01*
X141201Y88599D01*
Y88727D01*
X141244Y88942D01*
X141330Y89070D01*
X141458Y89113D01*
X141544D01*
X142842Y68899D02*
Y68942D01*
X142799Y69027D01*
X142757Y69070D01*
X142671Y69113D01*
X142499D01*
X142414Y69070D01*
X142371Y69027D01*
X142328Y68942D01*
Y68856D01*
X142371Y68770D01*
X142457Y68642D01*
X142885Y68213D01*
X142285D01*
X142041Y68299D02*
X142084Y68256D01*
X142041Y68213D01*
X141998Y68256D01*
X142041Y68299D01*
X141544Y69113D02*
X141672Y69070D01*
X141758Y68942D01*
X141801Y68727D01*
Y68599D01*
X141758Y68385D01*
X141672Y68256D01*
X141544Y68213D01*
X141458D01*
X141330Y68256D01*
X141244Y68385D01*
X141201Y68599D01*
Y68727D01*
X141244Y68942D01*
X141330Y69070D01*
X141458Y69113D01*
X141544D01*
X141503Y49113D02*
X141632Y49070D01*
X141717Y48942D01*
X141760Y48727D01*
Y48599D01*
X141717Y48385D01*
X141632Y48256D01*
X141503Y48213D01*
X141417D01*
X141289Y48256D01*
X141203Y48385D01*
X141160Y48599D01*
Y48727D01*
X141203Y48942D01*
X141289Y49070D01*
X141417Y49113D01*
X141503D01*
X142635Y58942D02*
X142549Y58984D01*
X142421Y59113D01*
Y58213D01*
X141932Y58299D02*
X141975Y58256D01*
X141932Y58213D01*
X141889Y58256D01*
X141932Y58299D01*
X141435Y59113D02*
X141564Y59070D01*
X141650Y58942D01*
X141692Y58727D01*
Y58599D01*
X141650Y58385D01*
X141564Y58256D01*
X141435Y58213D01*
X141350D01*
X141221Y58256D01*
X141135Y58385D01*
X141093Y58599D01*
Y58727D01*
X141135Y58942D01*
X141221Y59070D01*
X141350Y59113D01*
X141435D01*
X142799Y79113D02*
X142328D01*
X142585Y78770D01*
X142457D01*
X142371Y78727D01*
X142328Y78684D01*
X142285Y78556D01*
Y78470D01*
X142328Y78342D01*
X142414Y78256D01*
X142542Y78213D01*
X142671D01*
X142799Y78256D01*
X142842Y78299D01*
X142885Y78385D01*
X142041Y78299D02*
X142084Y78256D01*
X142041Y78213D01*
X141998Y78256D01*
X142041Y78299D01*
X141544Y79113D02*
X141672Y79070D01*
X141758Y78942D01*
X141801Y78727D01*
Y78599D01*
X141758Y78385D01*
X141672Y78256D01*
X141544Y78213D01*
X141458D01*
X141330Y78256D01*
X141244Y78385D01*
X141201Y78599D01*
Y78727D01*
X141244Y78942D01*
X141330Y79070D01*
X141458Y79113D01*
X141544D01*
X142371Y99113D02*
X142799D01*
X142842Y98727D01*
X142799Y98770D01*
X142671Y98813D01*
X142542D01*
X142414Y98770D01*
X142328Y98684D01*
X142285Y98556D01*
Y98470D01*
X142328Y98342D01*
X142414Y98256D01*
X142542Y98213D01*
X142671D01*
X142799Y98256D01*
X142842Y98299D01*
X142885Y98385D01*
X142041Y98299D02*
X142084Y98256D01*
X142041Y98213D01*
X141998Y98256D01*
X142041Y98299D01*
X141544Y99113D02*
X141672Y99070D01*
X141758Y98942D01*
X141801Y98727D01*
Y98599D01*
X141758Y98385D01*
X141672Y98256D01*
X141544Y98213D01*
X141458D01*
X141330Y98256D01*
X141244Y98385D01*
X141201Y98599D01*
Y98727D01*
X141244Y98942D01*
X141330Y99070D01*
X141458Y99113D01*
X141544D01*
X65235Y42613D02*
X66135Y43042D01*
X65235Y43213D02*
Y42613D01*
X66049Y42369D02*
X66092Y42412D01*
X66135Y42369D01*
X66092Y42326D01*
X66049Y42369D01*
X65235Y41872D02*
X65278Y42001D01*
X65407Y42086D01*
X65621Y42129D01*
X65749D01*
X65964Y42086D01*
X66092Y42001D01*
X66135Y41872D01*
Y41786D01*
X66092Y41658D01*
X65964Y41572D01*
X65749Y41529D01*
X65621D01*
X65407Y41572D01*
X65278Y41658D01*
X65235Y41786D01*
Y41872D01*
X85235Y42699D02*
Y43127D01*
X85621Y43170D01*
X85578Y43127D01*
X85535Y42999D01*
Y42870D01*
X85578Y42742D01*
X85664Y42656D01*
X85792Y42613D01*
X85878D01*
X86007Y42656D01*
X86092Y42742D01*
X86135Y42870D01*
Y42999D01*
X86092Y43127D01*
X86049Y43170D01*
X85964Y43213D01*
X86049Y42369D02*
X86092Y42412D01*
X86135Y42369D01*
X86092Y42326D01*
X86049Y42369D01*
X85235Y41872D02*
X85278Y42001D01*
X85407Y42086D01*
X85621Y42129D01*
X85749D01*
X85964Y42086D01*
X86092Y42001D01*
X86135Y41872D01*
Y41786D01*
X86092Y41658D01*
X85964Y41572D01*
X85749Y41529D01*
X85621D01*
X85407Y41572D01*
X85278Y41658D01*
X85235Y41786D01*
Y41872D01*
X105235Y43127D02*
Y42656D01*
X105578Y42913D01*
Y42785D01*
X105621Y42699D01*
X105664Y42656D01*
X105792Y42613D01*
X105878D01*
X106007Y42656D01*
X106092Y42742D01*
X106135Y42870D01*
Y42999D01*
X106092Y43127D01*
X106049Y43170D01*
X105964Y43213D01*
X106049Y42369D02*
X106092Y42412D01*
X106135Y42369D01*
X106092Y42326D01*
X106049Y42369D01*
X105235Y41872D02*
X105278Y42001D01*
X105407Y42086D01*
X105621Y42129D01*
X105749D01*
X105964Y42086D01*
X106092Y42001D01*
X106135Y41872D01*
Y41786D01*
X106092Y41658D01*
X105964Y41572D01*
X105749Y41529D01*
X105621D01*
X105407Y41572D01*
X105278Y41658D01*
X105235Y41786D01*
Y41872D01*
X125407Y43213D02*
X125364Y43127D01*
X125235Y42999D01*
X126135D01*
X126049Y42510D02*
X126092Y42553D01*
X126135Y42510D01*
X126092Y42468D01*
X126049Y42510D01*
X125235Y42013D02*
X125278Y42142D01*
X125407Y42228D01*
X125621Y42270D01*
X125749D01*
X125964Y42228D01*
X126092Y42142D01*
X126135Y42013D01*
Y41928D01*
X126092Y41799D01*
X125964Y41713D01*
X125749Y41671D01*
X125621D01*
X125407Y41713D01*
X125278Y41799D01*
X125235Y41928D01*
Y42013D01*
X135235Y42956D02*
X135278Y43085D01*
X135407Y43170D01*
X135621Y43213D01*
X135749D01*
X135964Y43170D01*
X136092Y43085D01*
X136135Y42956D01*
Y42870D01*
X136092Y42742D01*
X135964Y42656D01*
X135749Y42613D01*
X135621D01*
X135407Y42656D01*
X135278Y42742D01*
X135235Y42870D01*
Y42956D01*
X115449Y43170D02*
X115407D01*
X115321Y43127D01*
X115278Y43085D01*
X115235Y42999D01*
Y42828D01*
X115278Y42742D01*
X115321Y42699D01*
X115407Y42656D01*
X115492D01*
X115578Y42699D01*
X115707Y42785D01*
X116135Y43213D01*
Y42613D01*
X116049Y42369D02*
X116092Y42412D01*
X116135Y42369D01*
X116092Y42326D01*
X116049Y42369D01*
X115235Y41872D02*
X115278Y42001D01*
X115407Y42086D01*
X115621Y42129D01*
X115749D01*
X115964Y42086D01*
X116092Y42001D01*
X116135Y41872D01*
Y41786D01*
X116092Y41658D01*
X115964Y41572D01*
X115749Y41529D01*
X115621D01*
X115407Y41572D01*
X115278Y41658D01*
X115235Y41786D01*
Y41872D01*
X95235Y42785D02*
X95835Y43213D01*
Y42570D01*
X95235Y42785D02*
X96135D01*
X96049Y42369D02*
X96092Y42412D01*
X96135Y42369D01*
X96092Y42326D01*
X96049Y42369D01*
X95235Y41872D02*
X95278Y42001D01*
X95407Y42086D01*
X95621Y42129D01*
X95749D01*
X95964Y42086D01*
X96092Y42001D01*
X96135Y41872D01*
Y41786D01*
X96092Y41658D01*
X95964Y41572D01*
X95749Y41529D01*
X95621D01*
X95407Y41572D01*
X95278Y41658D01*
X95235Y41786D01*
Y41872D01*
X75364Y42699D02*
X75278Y42742D01*
X75235Y42870D01*
Y42956D01*
X75278Y43085D01*
X75407Y43170D01*
X75621Y43213D01*
X75835D01*
X76007Y43170D01*
X76092Y43085D01*
X76135Y42956D01*
Y42913D01*
X76092Y42785D01*
X76007Y42699D01*
X75878Y42656D01*
X75835D01*
X75707Y42699D01*
X75621Y42785D01*
X75578Y42913D01*
Y42956D01*
X75621Y43085D01*
X75707Y43170D01*
X75835Y43213D01*
X76049Y42416D02*
X76092Y42459D01*
X76135Y42416D01*
X76092Y42373D01*
X76049Y42416D01*
X75235Y41919D02*
X75278Y42048D01*
X75407Y42133D01*
X75621Y42176D01*
X75749D01*
X75964Y42133D01*
X76092Y42048D01*
X76135Y41919D01*
Y41833D01*
X76092Y41705D01*
X75964Y41619D01*
X75749Y41576D01*
X75621D01*
X75407Y41619D01*
X75278Y41705D01*
X75235Y41833D01*
Y41919D01*
X137510Y46113D02*
X136910Y45213D01*
Y46113D02*
X137510Y45213D01*
X138235Y47338D02*
X138664Y46995D01*
X139135D01*
X138235Y46653D02*
X138664Y46995D01*
X98385Y52817D02*
X98299Y52859D01*
X98171Y52988D01*
Y52088D01*
X97211Y52859D02*
X97254Y52945D01*
X97382Y52988D01*
X97468D01*
X97597Y52945D01*
X97682Y52817D01*
X97725Y52602D01*
Y52388D01*
X97682Y52217D01*
X97597Y52131D01*
X97468Y52088D01*
X97425D01*
X97297Y52131D01*
X97211Y52217D01*
X97168Y52345D01*
Y52388D01*
X97211Y52517D01*
X97297Y52602D01*
X97425Y52645D01*
X97468D01*
X97597Y52602D01*
X97682Y52517D01*
X97725Y52388D01*
X96971Y52474D02*
X96200D01*
X95249Y52088D02*
X95591Y52988D01*
X95934Y52088D01*
X95806Y52388D02*
X95377D01*
X95039Y52688D02*
Y51788D01*
Y52559D02*
X94953Y52645D01*
X94867Y52688D01*
X94739D01*
X94653Y52645D01*
X94567Y52559D01*
X94524Y52431D01*
Y52345D01*
X94567Y52217D01*
X94653Y52131D01*
X94739Y52088D01*
X94867D01*
X94953Y52131D01*
X95039Y52217D01*
X94332Y52688D02*
Y52088D01*
Y52431D02*
X94289Y52559D01*
X94203Y52645D01*
X94117Y52688D01*
X93989D01*
X93907Y52474D02*
X93136D01*
X92828Y52774D02*
Y52817D01*
X92785Y52902D01*
X92742Y52945D01*
X92656Y52988D01*
X92485D01*
X92399Y52945D01*
X92356Y52902D01*
X92313Y52817D01*
Y52731D01*
X92356Y52645D01*
X92442Y52517D01*
X92871Y52088D01*
X92271D01*
X91812Y52988D02*
X91941Y52945D01*
X92026Y52817D01*
X92069Y52602D01*
Y52474D01*
X92026Y52260D01*
X91941Y52131D01*
X91812Y52088D01*
X91726D01*
X91598Y52131D01*
X91512Y52260D01*
X91469Y52474D01*
Y52602D01*
X91512Y52817D01*
X91598Y52945D01*
X91726Y52988D01*
X91812D01*
X91268Y52817D02*
X91182Y52859D01*
X91054Y52988D01*
Y52088D01*
X90180Y52988D02*
X90608Y52388D01*
X89965D01*
X90180Y52988D02*
Y52088D01*
X97435Y56763D02*
Y55863D01*
X96835Y56763D02*
Y55863D01*
X97435Y56334D02*
X96835D01*
X96030Y56763D02*
X96587D01*
Y55863D01*
X96030D01*
X96587Y56334D02*
X96244D01*
X95880Y56763D02*
Y55863D01*
Y56763D02*
X95494D01*
X95365Y56720D01*
X95323Y56677D01*
X95280Y56592D01*
Y56506D01*
X95323Y56420D01*
X95365Y56377D01*
X95494Y56334D01*
X95880D01*
X95580D02*
X95280Y55863D01*
X94521Y56763D02*
X95078D01*
Y55863D01*
X94521D01*
X95078Y56334D02*
X94736D01*
X97435Y58363D02*
Y57463D01*
X96921D01*
X96565Y58363D02*
X96651Y58320D01*
X96737Y58234D01*
X96779Y58149D01*
X96822Y58020D01*
Y57806D01*
X96779Y57677D01*
X96737Y57592D01*
X96651Y57506D01*
X96565Y57463D01*
X96394D01*
X96308Y57506D01*
X96222Y57592D01*
X96180Y57677D01*
X96137Y57806D01*
Y58020D01*
X96180Y58149D01*
X96222Y58234D01*
X96308Y58320D01*
X96394Y58363D01*
X96565D01*
X95284Y58149D02*
X95327Y58234D01*
X95413Y58320D01*
X95498Y58363D01*
X95670D01*
X95755Y58320D01*
X95841Y58234D01*
X95884Y58149D01*
X95927Y58020D01*
Y57806D01*
X95884Y57677D01*
X95841Y57592D01*
X95755Y57506D01*
X95670Y57463D01*
X95498D01*
X95413Y57506D01*
X95327Y57592D01*
X95284Y57677D01*
Y57806D01*
X95498D02*
X95284D01*
X94821Y58363D02*
X94907Y58320D01*
X94993Y58234D01*
X95036Y58149D01*
X95078Y58020D01*
Y57806D01*
X95036Y57677D01*
X94993Y57592D01*
X94907Y57506D01*
X94821Y57463D01*
X94650D01*
X94564Y57506D01*
X94479Y57592D01*
X94436Y57677D01*
X94393Y57806D01*
Y58020D01*
X94436Y58149D01*
X94479Y58234D01*
X94564Y58320D01*
X94650Y58363D01*
X94821D01*
X97435Y59292D02*
X97049D01*
X96921Y59334D01*
X96878Y59377D01*
X96835Y59463D01*
Y59592D01*
X96878Y59677D01*
X96921Y59720D01*
X97049Y59763D01*
X97435D01*
Y58863D01*
X96634Y59763D02*
Y58863D01*
X96120D01*
X95336D02*
X95678Y59763D01*
X96021Y58863D01*
X95893Y59163D02*
X95464D01*
X94483Y59549D02*
X94526Y59634D01*
X94611Y59720D01*
X94697Y59763D01*
X94868D01*
X94954Y59720D01*
X95040Y59634D01*
X95083Y59549D01*
X95126Y59420D01*
Y59206D01*
X95083Y59077D01*
X95040Y58992D01*
X94954Y58906D01*
X94868Y58863D01*
X94697D01*
X94611Y58906D01*
X94526Y58992D01*
X94483Y59077D01*
X93673Y59763D02*
X94230D01*
Y58863D01*
X93673D01*
X94230Y59334D02*
X93887D01*
X103253Y52988D02*
X103382Y52945D01*
X103467Y52817D01*
X103510Y52602D01*
Y52474D01*
X103467Y52260D01*
X103382Y52131D01*
X103253Y52088D01*
X103167D01*
X103039Y52131D01*
X102953Y52260D01*
X102910Y52474D01*
Y52602D01*
X102953Y52817D01*
X103039Y52945D01*
X103167Y52988D01*
X103253D01*
X102709Y52817D02*
X102623Y52859D01*
X102495Y52988D01*
Y52088D01*
X110835Y50363D02*
Y49463D01*
Y50363D02*
X110449D01*
X110321Y50320D01*
X110278Y50277D01*
X110235Y50192D01*
Y50106D01*
X110278Y50020D01*
X110321Y49977D01*
X110449Y49934D01*
X110835D02*
X110449D01*
X110321Y49892D01*
X110278Y49849D01*
X110235Y49763D01*
Y49635D01*
X110278Y49549D01*
X110321Y49506D01*
X110449Y49463D01*
X110835D01*
X109820Y50063D02*
X109905Y50020D01*
X109991Y49934D01*
X110034Y49806D01*
Y49720D01*
X109991Y49592D01*
X109905Y49506D01*
X109820Y49463D01*
X109691D01*
X109605Y49506D01*
X109520Y49592D01*
X109477Y49720D01*
Y49806D01*
X109520Y49934D01*
X109605Y50020D01*
X109691Y50063D01*
X109820D01*
X109151Y50363D02*
Y49635D01*
X109108Y49506D01*
X109023Y49463D01*
X108937D01*
X109280Y50063D02*
X108980D01*
X108680Y50363D02*
Y49635D01*
X108637Y49506D01*
X108551Y49463D01*
X108466D01*
X108808Y50063D02*
X108508D01*
X108123D02*
X108208Y50020D01*
X108294Y49934D01*
X108337Y49806D01*
Y49720D01*
X108294Y49592D01*
X108208Y49506D01*
X108123Y49463D01*
X107994D01*
X107909Y49506D01*
X107823Y49592D01*
X107780Y49720D01*
Y49806D01*
X107823Y49934D01*
X107909Y50020D01*
X107994Y50063D01*
X108123D01*
X107583D02*
Y49463D01*
Y49892D02*
X107454Y50020D01*
X107369Y50063D01*
X107240D01*
X107154Y50020D01*
X107112Y49892D01*
Y49463D01*
Y49892D02*
X106983Y50020D01*
X106897Y50063D01*
X106769D01*
X106683Y50020D01*
X106640Y49892D01*
Y49463D01*
X105650Y49892D02*
X105265D01*
X105136Y49934D01*
X105093Y49977D01*
X105051Y50063D01*
Y50192D01*
X105093Y50277D01*
X105136Y50320D01*
X105265Y50363D01*
X105650D01*
Y49463D01*
X104335Y50063D02*
Y49463D01*
Y49934D02*
X104421Y50020D01*
X104506Y50063D01*
X104635D01*
X104721Y50020D01*
X104806Y49934D01*
X104849Y49806D01*
Y49720D01*
X104806Y49592D01*
X104721Y49506D01*
X104635Y49463D01*
X104506D01*
X104421Y49506D01*
X104335Y49592D01*
X103581Y50363D02*
Y49463D01*
Y49934D02*
X103667Y50020D01*
X103752Y50063D01*
X103881D01*
X103967Y50020D01*
X104052Y49934D01*
X104095Y49806D01*
Y49720D01*
X104052Y49592D01*
X103967Y49506D01*
X103881Y49463D01*
X103752D01*
X103667Y49506D01*
X103581Y49592D01*
X102634Y50363D02*
Y49463D01*
Y50363D02*
X102291Y49463D01*
X101948Y50363D02*
X102291Y49463D01*
X101948Y50363D02*
Y49463D01*
X101177Y50063D02*
Y49463D01*
Y49934D02*
X101263Y50020D01*
X101349Y50063D01*
X101477D01*
X101563Y50020D01*
X101648Y49934D01*
X101691Y49806D01*
Y49720D01*
X101648Y49592D01*
X101563Y49506D01*
X101477Y49463D01*
X101349D01*
X101263Y49506D01*
X101177Y49592D01*
X100466Y49934D02*
X100509Y50020D01*
X100637Y50063D01*
X100766D01*
X100894Y50020D01*
X100937Y49934D01*
X100894Y49849D01*
X100809Y49806D01*
X100594Y49763D01*
X100509Y49720D01*
X100466Y49635D01*
Y49592D01*
X100509Y49506D01*
X100637Y49463D01*
X100766D01*
X100894Y49506D01*
X100937Y49592D01*
X100149Y50363D02*
Y49635D01*
X100106Y49506D01*
X100020Y49463D01*
X99935D01*
X100277Y50063D02*
X99977D01*
X99806Y49806D02*
X99292D01*
Y49892D01*
X99335Y49977D01*
X99377Y50020D01*
X99463Y50063D01*
X99592D01*
X99677Y50020D01*
X99763Y49934D01*
X99806Y49806D01*
Y49720D01*
X99763Y49592D01*
X99677Y49506D01*
X99592Y49463D01*
X99463D01*
X99377Y49506D01*
X99292Y49592D01*
X99099Y50063D02*
Y49463D01*
Y49806D02*
X99056Y49934D01*
X98970Y50020D01*
X98885Y50063D01*
X98756D01*
X127635Y50363D02*
Y49463D01*
X126847Y50234D02*
X126932Y50320D01*
X127061Y50363D01*
X127232D01*
X127361Y50320D01*
X127447Y50234D01*
Y50149D01*
X127404Y50063D01*
X127361Y50020D01*
X127275Y49977D01*
X127018Y49892D01*
X126932Y49849D01*
X126889Y49806D01*
X126847Y49720D01*
Y49592D01*
X126932Y49506D01*
X127061Y49463D01*
X127232D01*
X127361Y49506D01*
X127447Y49592D01*
X126645Y50363D02*
Y49463D01*
X126131D01*
X125476Y50063D02*
X125518Y49934D01*
X125604Y49849D01*
X125733Y49806D01*
X125775D01*
X125904Y49849D01*
X125990Y49934D01*
X126033Y50063D01*
Y50106D01*
X125990Y50234D01*
X125904Y50320D01*
X125775Y50363D01*
X125733D01*
X125604Y50320D01*
X125518Y50234D01*
X125476Y50063D01*
Y49849D01*
X125518Y49635D01*
X125604Y49506D01*
X125733Y49463D01*
X125818D01*
X125947Y49506D01*
X125990Y49592D01*
X124803Y50363D02*
X125231Y49763D01*
X124589D01*
X124803Y50363D02*
Y49463D01*
X124387Y50149D02*
Y50192D01*
X124344Y50277D01*
X124301Y50320D01*
X124216Y50363D01*
X124044D01*
X123959Y50320D01*
X123916Y50277D01*
X123873Y50192D01*
Y50106D01*
X123916Y50020D01*
X124002Y49892D01*
X124430Y49463D01*
X123830D01*
X123372Y50363D02*
X123500Y50320D01*
X123586Y50192D01*
X123629Y49977D01*
Y49849D01*
X123586Y49635D01*
X123500Y49506D01*
X123372Y49463D01*
X123286D01*
X123157Y49506D01*
X123072Y49635D01*
X123029Y49849D01*
Y49977D01*
X123072Y50192D01*
X123157Y50320D01*
X123286Y50363D01*
X123372D01*
X122742D02*
X122270D01*
X122528Y50020D01*
X122399D01*
X122313Y49977D01*
X122270Y49934D01*
X122228Y49806D01*
Y49720D01*
X122270Y49592D01*
X122356Y49506D01*
X122485Y49463D01*
X122613D01*
X122742Y49506D01*
X122785Y49549D01*
X122828Y49635D01*
X121469Y50363D02*
X122026D01*
Y49463D01*
X121469D01*
X122026Y49934D02*
X121683D01*
X121319Y50363D02*
X120976Y49463D01*
X120634Y50363D02*
X120976Y49463D01*
X119832D02*
X120175Y50363D01*
X120518Y49463D01*
X120389Y49763D02*
X119961D01*
X119622Y50363D02*
Y49463D01*
X119108D01*
X119010Y50192D02*
X118924Y50234D01*
X118796Y50363D01*
Y49463D01*
X117750Y50363D02*
X118350Y49463D01*
Y50363D02*
X117750D01*
X118350Y49463D02*
X117750D01*
X116842Y50363D02*
Y49463D01*
Y50363D02*
X116456D01*
X116327Y50320D01*
X116285Y50277D01*
X116242Y50192D01*
Y50106D01*
X116285Y50020D01*
X116327Y49977D01*
X116456Y49934D01*
X116842D01*
X116542D02*
X116242Y49463D01*
X116040Y49806D02*
X115526D01*
Y49892D01*
X115569Y49977D01*
X115612Y50020D01*
X115698Y50063D01*
X115826D01*
X115912Y50020D01*
X115998Y49934D01*
X116040Y49806D01*
Y49720D01*
X115998Y49592D01*
X115912Y49506D01*
X115826Y49463D01*
X115698D01*
X115612Y49506D01*
X115526Y49592D01*
X115333Y50063D02*
X115076Y49463D01*
X114819Y50063D02*
X115076Y49463D01*
X114674Y50363D02*
Y49463D01*
Y50363D02*
X114374D01*
X114245Y50320D01*
X114159Y50234D01*
X114117Y50149D01*
X114074Y50020D01*
Y49806D01*
X114117Y49677D01*
X114159Y49592D01*
X114245Y49506D01*
X114374Y49463D01*
X114674D01*
X113829Y49549D02*
X113872Y49506D01*
X113829Y49463D01*
X113787Y49506D01*
X113829Y49549D01*
X113589Y49892D02*
X113204D01*
X113075Y49934D01*
X113032Y49977D01*
X112990Y50063D01*
Y50192D01*
X113032Y50277D01*
X113075Y50320D01*
X113204Y50363D01*
X113589D01*
Y49463D01*
X112146Y50149D02*
X112188Y50234D01*
X112274Y50320D01*
X112360Y50363D01*
X112531D01*
X112617Y50320D01*
X112703Y50234D01*
X112745Y50149D01*
X112788Y50020D01*
Y49806D01*
X112745Y49677D01*
X112703Y49592D01*
X112617Y49506D01*
X112531Y49463D01*
X112360D01*
X112274Y49506D01*
X112188Y49592D01*
X112146Y49677D01*
X111893Y50363D02*
Y49463D01*
Y50363D02*
X111507D01*
X111379Y50320D01*
X111336Y50277D01*
X111293Y50192D01*
Y50106D01*
X111336Y50020D01*
X111379Y49977D01*
X111507Y49934D01*
X111893D02*
X111507D01*
X111379Y49892D01*
X111336Y49849D01*
X111293Y49763D01*
Y49635D01*
X111336Y49549D01*
X111379Y49506D01*
X111507Y49463D01*
X111893D01*
X116385Y56863D02*
Y55963D01*
X115597Y56734D02*
X115682Y56820D01*
X115811Y56863D01*
X115982D01*
X116111Y56820D01*
X116197Y56734D01*
Y56649D01*
X116154Y56563D01*
X116111Y56520D01*
X116025Y56477D01*
X115768Y56392D01*
X115682Y56349D01*
X115639Y56306D01*
X115597Y56220D01*
Y56092D01*
X115682Y56006D01*
X115811Y55963D01*
X115982D01*
X116111Y56006D01*
X116197Y56092D01*
X115395Y56863D02*
Y55963D01*
X114881D01*
X114226Y56563D02*
X114268Y56434D01*
X114354Y56349D01*
X114483Y56306D01*
X114525D01*
X114654Y56349D01*
X114740Y56434D01*
X114783Y56563D01*
Y56606D01*
X114740Y56734D01*
X114654Y56820D01*
X114525Y56863D01*
X114483D01*
X114354Y56820D01*
X114268Y56734D01*
X114226Y56563D01*
Y56349D01*
X114268Y56135D01*
X114354Y56006D01*
X114483Y55963D01*
X114568D01*
X114697Y56006D01*
X114740Y56092D01*
X113553Y56863D02*
X113981Y56263D01*
X113339D01*
X113553Y56863D02*
Y55963D01*
X113137Y56649D02*
Y56692D01*
X113094Y56777D01*
X113051Y56820D01*
X112966Y56863D01*
X112794D01*
X112709Y56820D01*
X112666Y56777D01*
X112623Y56692D01*
Y56606D01*
X112666Y56520D01*
X112752Y56392D01*
X113180Y55963D01*
X112580D01*
X112122Y56863D02*
X112250Y56820D01*
X112336Y56692D01*
X112379Y56477D01*
Y56349D01*
X112336Y56135D01*
X112250Y56006D01*
X112122Y55963D01*
X112036D01*
X111907Y56006D01*
X111822Y56135D01*
X111779Y56349D01*
Y56477D01*
X111822Y56692D01*
X111907Y56820D01*
X112036Y56863D01*
X112122D01*
X111492D02*
X111020D01*
X111278Y56520D01*
X111149D01*
X111063Y56477D01*
X111020Y56434D01*
X110978Y56306D01*
Y56220D01*
X111020Y56092D01*
X111106Y56006D01*
X111235Y55963D01*
X111363D01*
X111492Y56006D01*
X111535Y56049D01*
X111578Y56135D01*
X109512Y56863D02*
X110069D01*
Y55963D01*
X109512D01*
X110069Y56434D02*
X109726D01*
X109362Y56563D02*
X109105Y55963D01*
X108848Y56563D02*
X109105Y55963D01*
X108188Y56563D02*
Y55963D01*
Y56434D02*
X108274Y56520D01*
X108360Y56563D01*
X108488D01*
X108574Y56520D01*
X108660Y56434D01*
X108702Y56306D01*
Y56220D01*
X108660Y56092D01*
X108574Y56006D01*
X108488Y55963D01*
X108360D01*
X108274Y56006D01*
X108188Y56092D01*
X107948Y56863D02*
Y55963D01*
X107760Y56563D02*
Y56135D01*
X107717Y56006D01*
X107631Y55963D01*
X107503D01*
X107417Y56006D01*
X107288Y56135D01*
Y56563D02*
Y55963D01*
X106539Y56563D02*
Y55963D01*
Y56434D02*
X106624Y56520D01*
X106710Y56563D01*
X106839D01*
X106924Y56520D01*
X107010Y56434D01*
X107053Y56306D01*
Y56220D01*
X107010Y56092D01*
X106924Y56006D01*
X106839Y55963D01*
X106710D01*
X106624Y56006D01*
X106539Y56092D01*
X106170Y56863D02*
Y56135D01*
X106127Y56006D01*
X106042Y55963D01*
X105956D01*
X106299Y56563D02*
X105999D01*
X105742Y56863D02*
X105699Y56820D01*
X105656Y56863D01*
X105699Y56906D01*
X105742Y56863D01*
X105699Y56563D02*
Y55963D01*
X105283Y56563D02*
X105369Y56520D01*
X105455Y56434D01*
X105497Y56306D01*
Y56220D01*
X105455Y56092D01*
X105369Y56006D01*
X105283Y55963D01*
X105155D01*
X105069Y56006D01*
X104983Y56092D01*
X104940Y56220D01*
Y56306D01*
X104983Y56434D01*
X105069Y56520D01*
X105155Y56563D01*
X105283D01*
X104743D02*
Y55963D01*
Y56392D02*
X104615Y56520D01*
X104529Y56563D01*
X104400D01*
X104315Y56520D01*
X104272Y56392D01*
Y55963D01*
X103329Y56863D02*
Y55963D01*
Y56863D02*
X102944D01*
X102815Y56820D01*
X102772Y56777D01*
X102729Y56692D01*
Y56606D01*
X102772Y56520D01*
X102815Y56477D01*
X102944Y56434D01*
X103329D02*
X102944D01*
X102815Y56392D01*
X102772Y56349D01*
X102729Y56263D01*
Y56135D01*
X102772Y56049D01*
X102815Y56006D01*
X102944Y55963D01*
X103329D01*
X102314Y56563D02*
X102399Y56520D01*
X102485Y56434D01*
X102528Y56306D01*
Y56220D01*
X102485Y56092D01*
X102399Y56006D01*
X102314Y55963D01*
X102185D01*
X102100Y56006D01*
X102014Y56092D01*
X101971Y56220D01*
Y56306D01*
X102014Y56434D01*
X102100Y56520D01*
X102185Y56563D01*
X102314D01*
X101260D02*
Y55963D01*
Y56434D02*
X101345Y56520D01*
X101431Y56563D01*
X101560D01*
X101645Y56520D01*
X101731Y56434D01*
X101774Y56306D01*
Y56220D01*
X101731Y56092D01*
X101645Y56006D01*
X101560Y55963D01*
X101431D01*
X101345Y56006D01*
X101260Y56092D01*
X101020Y56563D02*
Y55963D01*
Y56306D02*
X100977Y56434D01*
X100891Y56520D01*
X100806Y56563D01*
X100677D01*
X100081Y56863D02*
Y55963D01*
Y56434D02*
X100167Y56520D01*
X100253Y56563D01*
X100381D01*
X100467Y56520D01*
X100553Y56434D01*
X100596Y56306D01*
Y56220D01*
X100553Y56092D01*
X100467Y56006D01*
X100381Y55963D01*
X100253D01*
X100167Y56006D01*
X100081Y56092D01*
X121335Y60413D02*
Y59513D01*
X121147Y60113D02*
Y59513D01*
Y59942D02*
X121018Y60070D01*
X120932Y60113D01*
X120804D01*
X120718Y60070D01*
X120675Y59942D01*
Y59513D01*
X120311Y60413D02*
Y59685D01*
X120268Y59556D01*
X120182Y59513D01*
X120097D01*
X120440Y60113D02*
X120140D01*
X119968Y59856D02*
X119454D01*
Y59942D01*
X119497Y60027D01*
X119540Y60070D01*
X119625Y60113D01*
X119754D01*
X119840Y60070D01*
X119925Y59984D01*
X119968Y59856D01*
Y59770D01*
X119925Y59642D01*
X119840Y59556D01*
X119754Y59513D01*
X119625D01*
X119540Y59556D01*
X119454Y59642D01*
X119261Y60113D02*
Y59513D01*
Y59856D02*
X119218Y59984D01*
X119133Y60070D01*
X119047Y60113D01*
X118918D01*
X118366Y59984D02*
X118409Y60070D01*
X118537Y60113D01*
X118666D01*
X118794Y60070D01*
X118837Y59984D01*
X118794Y59899D01*
X118708Y59856D01*
X118494Y59813D01*
X118409Y59770D01*
X118366Y59685D01*
Y59642D01*
X118409Y59556D01*
X118537Y59513D01*
X118666D01*
X118794Y59556D01*
X118837Y59642D01*
X118091Y60413D02*
X118049Y60370D01*
X118006Y60413D01*
X118049Y60456D01*
X118091Y60413D01*
X118049Y60113D02*
Y59513D01*
X117847Y60413D02*
Y59513D01*
X116635Y52988D02*
Y52088D01*
X115847Y52859D02*
X115932Y52945D01*
X116061Y52988D01*
X116232D01*
X116361Y52945D01*
X116447Y52859D01*
Y52774D01*
X116404Y52688D01*
X116361Y52645D01*
X116275Y52602D01*
X116018Y52517D01*
X115932Y52474D01*
X115890Y52431D01*
X115847Y52345D01*
Y52217D01*
X115932Y52131D01*
X116061Y52088D01*
X116232D01*
X116361Y52131D01*
X116447Y52217D01*
X115645Y52988D02*
Y52088D01*
X115131D01*
X114476Y52688D02*
X114518Y52559D01*
X114604Y52474D01*
X114733Y52431D01*
X114775D01*
X114904Y52474D01*
X114990Y52559D01*
X115033Y52688D01*
Y52731D01*
X114990Y52859D01*
X114904Y52945D01*
X114775Y52988D01*
X114733D01*
X114604Y52945D01*
X114518Y52859D01*
X114476Y52688D01*
Y52474D01*
X114518Y52260D01*
X114604Y52131D01*
X114733Y52088D01*
X114818D01*
X114947Y52131D01*
X114990Y52217D01*
X113803Y52988D02*
X114231Y52388D01*
X113589D01*
X113803Y52988D02*
Y52088D01*
X113387Y52774D02*
Y52817D01*
X113344Y52902D01*
X113301Y52945D01*
X113216Y52988D01*
X113044D01*
X112959Y52945D01*
X112916Y52902D01*
X112873Y52817D01*
Y52731D01*
X112916Y52645D01*
X113002Y52517D01*
X113430Y52088D01*
X112830D01*
X112372Y52988D02*
X112500Y52945D01*
X112586Y52817D01*
X112629Y52602D01*
Y52474D01*
X112586Y52260D01*
X112500Y52131D01*
X112372Y52088D01*
X112286D01*
X112157Y52131D01*
X112072Y52260D01*
X112029Y52474D01*
Y52602D01*
X112072Y52817D01*
X112157Y52945D01*
X112286Y52988D01*
X112372D01*
X111742D02*
X111270D01*
X111528Y52645D01*
X111399D01*
X111313Y52602D01*
X111270Y52559D01*
X111228Y52431D01*
Y52345D01*
X111270Y52217D01*
X111356Y52131D01*
X111485Y52088D01*
X111613D01*
X111742Y52131D01*
X111785Y52174D01*
X111828Y52260D01*
X110469Y52988D02*
X111026D01*
Y52088D01*
X110469D01*
X111026Y52559D02*
X110683D01*
X110319Y52988D02*
X109976Y52088D01*
X109634Y52988D02*
X109976Y52088D01*
X108832D02*
X109175Y52988D01*
X109518Y52088D01*
X109389Y52388D02*
X108961D01*
X108622Y52988D02*
Y52088D01*
X108108D01*
X108010Y52817D02*
X107924Y52859D01*
X107796Y52988D01*
Y52088D01*
X106750Y52988D02*
X107350Y52088D01*
Y52988D02*
X106750D01*
X107350Y52088D02*
X106750D01*
D45*
X116444Y68153D02*
X116844D01*
X116444Y68553D01*
Y68653D01*
X116544Y68753D01*
X116744D01*
X116844Y68653D01*
X115845Y68753D02*
X116244D01*
Y68453D01*
X116044Y68553D01*
X115944D01*
X115845Y68453D01*
Y68253D01*
X115944Y68153D01*
X116144D01*
X116244Y68253D01*
X115645Y68653D02*
X115545Y68753D01*
X115345D01*
X115245Y68653D01*
Y68253D01*
X115345Y68153D01*
X115545D01*
X115645Y68253D01*
Y68653D01*
X115045D02*
X114945Y68753D01*
X114745D01*
X114645Y68653D01*
Y68253D01*
X114745Y68153D01*
X114945D01*
X115045Y68253D01*
Y68653D01*
X113645Y68153D02*
X113845Y68353D01*
Y68553D01*
X113645Y68753D01*
X113345Y68153D02*
Y68553D01*
X113245D01*
X113145Y68453D01*
Y68153D01*
Y68453D01*
X113045Y68553D01*
X112945Y68453D01*
Y68153D01*
X112746D02*
X112546D01*
X112646D01*
Y68553D01*
X112746D01*
X112246Y68153D02*
X112046D01*
X112146D01*
Y68753D01*
X112246D01*
X111746Y68153D02*
X111546Y68353D01*
Y68553D01*
X111746Y68753D01*
X129275Y84504D02*
X129375Y84604D01*
Y84804D01*
X129275Y84904D01*
X129175D01*
X129075Y84804D01*
Y84704D01*
Y84804D01*
X128975Y84904D01*
X128875D01*
X128775Y84804D01*
Y84604D01*
X128875Y84504D01*
X129375Y85504D02*
Y85104D01*
X129075D01*
X129175Y85304D01*
Y85404D01*
X129075Y85504D01*
X128875D01*
X128775Y85404D01*
Y85204D01*
X128875Y85104D01*
X129275Y85704D02*
X129375Y85804D01*
Y86004D01*
X129275Y86103D01*
X128875D01*
X128775Y86004D01*
Y85804D01*
X128875Y85704D01*
X129275D01*
Y86303D02*
X129375Y86403D01*
Y86603D01*
X129275Y86703D01*
X128875D01*
X128775Y86603D01*
Y86403D01*
X128875Y86303D01*
X129275D01*
X128775Y87703D02*
X128975Y87503D01*
X129175D01*
X129375Y87703D01*
X128775Y88003D02*
X129175D01*
Y88103D01*
X129075Y88203D01*
X128775D01*
X129075D01*
X129175Y88303D01*
X129075Y88403D01*
X128775D01*
Y88603D02*
Y88803D01*
Y88703D01*
X129175D01*
Y88603D01*
X128775Y89103D02*
Y89302D01*
Y89202D01*
X129375D01*
Y89103D01*
X128775Y89602D02*
X128975Y89802D01*
X129175D01*
X129375Y89602D01*
D46*
X100635Y53288D02*
Y52838D01*
Y53288D02*
X100485D01*
X100421Y53267D01*
X100378Y53224D01*
X100357Y53181D01*
X100335Y53117D01*
Y53010D01*
X100357Y52945D01*
X100378Y52902D01*
X100421Y52860D01*
X100485Y52838D01*
X100635D01*
X99892D02*
X100063Y53288D01*
X100234Y52838D01*
X100170Y52988D02*
X99956D01*
X99637Y53288D02*
Y52838D01*
X99787Y53288D02*
X99487D01*
X99155D02*
X99433D01*
Y52838D01*
X99155D01*
X99433Y53074D02*
X99262D01*
X99058Y53138D02*
X99080Y53117D01*
X99058Y53095D01*
X99037Y53117D01*
X99058Y53138D01*
Y52881D02*
X99080Y52860D01*
X99058Y52838D01*
X99037Y52860D01*
X99058Y52881D01*
X105260Y53288D02*
Y52838D01*
Y53288D02*
X105067D01*
X105003Y53267D01*
X104982Y53245D01*
X104960Y53202D01*
Y53159D01*
X104982Y53117D01*
X105003Y53095D01*
X105067Y53074D01*
X105260D01*
X105110D02*
X104960Y52838D01*
X104581Y53288D02*
X104859D01*
Y52838D01*
X104581D01*
X104859Y53074D02*
X104688D01*
X104506Y53288D02*
X104335Y52838D01*
X104163Y53288D02*
X104335Y52838D01*
X104084Y53138D02*
X104105Y53117D01*
X104084Y53095D01*
X104062Y53117D01*
X104084Y53138D01*
Y52881D02*
X104105Y52860D01*
X104084Y52838D01*
X104062Y52860D01*
X104084Y52881D01*
X131635Y55802D02*
X131442D01*
X131378Y55824D01*
X131357Y55845D01*
X131335Y55888D01*
Y55952D01*
X131357Y55995D01*
X131378Y56017D01*
X131442Y56038D01*
X131635D01*
Y55588D01*
X131234Y56038D02*
Y55588D01*
X130934Y56038D02*
Y55588D01*
X131234Y55824D02*
X130934D01*
X130682Y56038D02*
X130725Y56017D01*
X130767Y55974D01*
X130789Y55931D01*
X130810Y55867D01*
Y55760D01*
X130789Y55695D01*
X130767Y55652D01*
X130725Y55610D01*
X130682Y55588D01*
X130596D01*
X130553Y55610D01*
X130510Y55652D01*
X130489Y55695D01*
X130467Y55760D01*
Y55867D01*
X130489Y55931D01*
X130510Y55974D01*
X130553Y56017D01*
X130596Y56038D01*
X130682D01*
X130362D02*
Y55588D01*
Y56038D02*
X130063Y55588D01*
Y56038D02*
Y55588D01*
X129660Y56038D02*
X129938D01*
Y55588D01*
X129660D01*
X129938Y55824D02*
X129767D01*
X129563Y55888D02*
X129585Y55867D01*
X129563Y55845D01*
X129542Y55867D01*
X129563Y55888D01*
Y55631D02*
X129585Y55610D01*
X129563Y55588D01*
X129542Y55610D01*
X129563Y55631D01*
X131635Y52052D02*
X131442D01*
X131378Y52074D01*
X131357Y52095D01*
X131335Y52138D01*
Y52202D01*
X131357Y52245D01*
X131378Y52267D01*
X131442Y52288D01*
X131635D01*
Y51838D01*
X131234Y52288D02*
Y51838D01*
X130934Y52288D02*
Y51838D01*
X131234Y52074D02*
X130934D01*
X130682Y52288D02*
X130725Y52267D01*
X130767Y52224D01*
X130789Y52181D01*
X130810Y52117D01*
Y52010D01*
X130789Y51945D01*
X130767Y51902D01*
X130725Y51860D01*
X130682Y51838D01*
X130596D01*
X130553Y51860D01*
X130510Y51902D01*
X130489Y51945D01*
X130467Y52010D01*
Y52117D01*
X130489Y52181D01*
X130510Y52224D01*
X130553Y52267D01*
X130596Y52288D01*
X130682D01*
X130362D02*
Y51838D01*
Y52288D02*
X130063Y51838D01*
Y52288D02*
Y51838D01*
X129660Y52288D02*
X129938D01*
Y51838D01*
X129660D01*
X129938Y52074D02*
X129767D01*
X129563Y52138D02*
X129585Y52117D01*
X129563Y52095D01*
X129542Y52117D01*
X129563Y52138D01*
Y51881D02*
X129585Y51860D01*
X129563Y51838D01*
X129542Y51860D01*
X129563Y51881D01*
X113235Y50513D02*
Y50063D01*
X112978D01*
X112586D02*
X112757Y50513D01*
X112929Y50063D01*
X112864Y50213D02*
X112650D01*
X112481Y50513D02*
X112310Y50299D01*
Y50063D01*
X112138Y50513D02*
X112310Y50299D01*
X111802Y50513D02*
X112080D01*
Y50063D01*
X111802D01*
X112080Y50299D02*
X111909D01*
X111727Y50513D02*
Y50063D01*
Y50513D02*
X111534D01*
X111470Y50492D01*
X111448Y50470D01*
X111427Y50427D01*
Y50384D01*
X111448Y50342D01*
X111470Y50320D01*
X111534Y50299D01*
X111727D01*
X111577D02*
X111427Y50063D01*
X111305Y50363D02*
X111326Y50342D01*
X111305Y50320D01*
X111283Y50342D01*
X111305Y50363D01*
Y50106D02*
X111326Y50085D01*
X111305Y50063D01*
X111283Y50085D01*
X111305Y50106D01*
X131357Y57913D02*
X131635D01*
Y57463D01*
X131357D01*
X131635Y57699D02*
X131464D01*
X131282Y57913D02*
Y57463D01*
Y57913D02*
X130982Y57463D01*
Y57913D02*
Y57463D01*
X130536Y57806D02*
X130557Y57849D01*
X130600Y57892D01*
X130643Y57913D01*
X130729D01*
X130772Y57892D01*
X130815Y57849D01*
X130836Y57806D01*
X130857Y57742D01*
Y57635D01*
X130836Y57570D01*
X130815Y57527D01*
X130772Y57485D01*
X130729Y57463D01*
X130643D01*
X130600Y57485D01*
X130557Y57527D01*
X130536Y57570D01*
Y57635D01*
X130643D02*
X130536D01*
X130433Y57913D02*
Y57463D01*
X130339Y57913D02*
Y57463D01*
Y57913D02*
X130039Y57463D01*
Y57913D02*
Y57463D01*
X129636Y57913D02*
X129915D01*
Y57463D01*
X129636D01*
X129915Y57699D02*
X129743D01*
X129283Y57913D02*
X129561D01*
Y57463D01*
X129283D01*
X129561Y57699D02*
X129390D01*
X129208Y57913D02*
Y57463D01*
Y57913D02*
X129015D01*
X128951Y57892D01*
X128929Y57870D01*
X128908Y57827D01*
Y57784D01*
X128929Y57742D01*
X128951Y57720D01*
X129015Y57699D01*
X129208D01*
X129058D02*
X128908Y57463D01*
X128786Y57763D02*
X128807Y57742D01*
X128786Y57720D01*
X128764Y57742D01*
X128786Y57763D01*
Y57506D02*
X128807Y57485D01*
X128786Y57463D01*
X128764Y57485D01*
X128786Y57506D01*
X122635Y53052D02*
X122442D01*
X122378Y53074D01*
X122357Y53095D01*
X122335Y53138D01*
Y53202D01*
X122357Y53245D01*
X122378Y53267D01*
X122442Y53288D01*
X122635D01*
Y52838D01*
X121892D02*
X122063Y53288D01*
X122234Y52838D01*
X122170Y52988D02*
X121956D01*
X121787Y53288D02*
Y52838D01*
Y53288D02*
X121594D01*
X121530Y53267D01*
X121508Y53245D01*
X121487Y53202D01*
Y53159D01*
X121508Y53117D01*
X121530Y53095D01*
X121594Y53074D01*
X121787D01*
X121637D02*
X121487Y52838D01*
X121236Y53288D02*
Y52838D01*
X121386Y53288D02*
X121086D01*
X120679D02*
Y52838D01*
Y53288D02*
X120379Y52838D01*
Y53288D02*
Y52838D01*
X120126Y53288D02*
X120169Y53267D01*
X120212Y53224D01*
X120233Y53181D01*
X120255Y53117D01*
Y53010D01*
X120233Y52945D01*
X120212Y52902D01*
X120169Y52860D01*
X120126Y52838D01*
X120041D01*
X119998Y52860D01*
X119955Y52902D01*
X119933Y52945D01*
X119912Y53010D01*
Y53117D01*
X119933Y53181D01*
X119955Y53224D01*
X119998Y53267D01*
X120041Y53288D01*
X120126D01*
X119786Y52881D02*
X119807Y52860D01*
X119786Y52838D01*
X119764Y52860D01*
X119786Y52881D01*
X119644Y53138D02*
X119666Y53117D01*
X119644Y53095D01*
X119623Y53117D01*
X119644Y53138D01*
Y52881D02*
X119666Y52860D01*
X119644Y52838D01*
X119623Y52860D01*
X119644Y52881D01*
X122610Y58038D02*
Y57588D01*
X122760Y58038D02*
X122460D01*
X122407D02*
Y57588D01*
X122162Y58038D02*
Y57588D01*
X122312Y58038D02*
X122012D01*
X121959D02*
Y57588D01*
X121702D01*
X121374Y58038D02*
X121652D01*
Y57588D01*
X121374D01*
X121652Y57824D02*
X121481D01*
X121278Y57888D02*
X121299Y57867D01*
X121278Y57845D01*
X121256Y57867D01*
X121278Y57888D01*
Y57631D02*
X121299Y57610D01*
X121278Y57588D01*
X121256Y57610D01*
X121278Y57631D01*
X131357Y54113D02*
X131635D01*
Y53663D01*
X131357D01*
X131635Y53899D02*
X131464D01*
X131282Y54113D02*
Y53663D01*
Y54113D02*
X130982Y53663D01*
Y54113D02*
Y53663D01*
X130536Y54006D02*
X130557Y54049D01*
X130600Y54092D01*
X130643Y54113D01*
X130729D01*
X130772Y54092D01*
X130815Y54049D01*
X130836Y54006D01*
X130857Y53942D01*
Y53835D01*
X130836Y53770D01*
X130815Y53727D01*
X130772Y53685D01*
X130729Y53663D01*
X130643D01*
X130600Y53685D01*
X130557Y53727D01*
X130536Y53770D01*
Y53835D01*
X130643D02*
X130536D01*
X130433Y54113D02*
Y53663D01*
X130339Y54113D02*
Y53663D01*
Y54113D02*
X130039Y53663D01*
Y54113D02*
Y53663D01*
X129636Y54113D02*
X129915D01*
Y53663D01*
X129636D01*
X129915Y53899D02*
X129743D01*
X129283Y54113D02*
X129561D01*
Y53663D01*
X129283D01*
X129561Y53899D02*
X129390D01*
X129208Y54113D02*
Y53663D01*
Y54113D02*
X129015D01*
X128951Y54092D01*
X128929Y54070D01*
X128908Y54027D01*
Y53984D01*
X128929Y53942D01*
X128951Y53920D01*
X129015Y53899D01*
X129208D01*
X129058D02*
X128908Y53663D01*
X128786Y53963D02*
X128807Y53942D01*
X128786Y53920D01*
X128764Y53942D01*
X128786Y53963D01*
Y53706D02*
X128807Y53685D01*
X128786Y53663D01*
X128764Y53685D01*
X128786Y53706D01*
X131635Y50513D02*
Y50063D01*
Y50513D02*
X131357D01*
X131635Y50299D02*
X131464D01*
X131305Y50513D02*
Y50063D01*
X131211Y50513D02*
Y50063D01*
X130954D01*
X130626Y50513D02*
X130904D01*
Y50063D01*
X130626D01*
X130904Y50299D02*
X130733D01*
X130197Y50513D02*
Y50063D01*
Y50513D02*
X129898Y50063D01*
Y50513D02*
Y50063D01*
X129431D02*
X129602Y50513D01*
X129773Y50063D01*
X129709Y50213D02*
X129495D01*
X129326Y50513D02*
Y50063D01*
Y50513D02*
X129154Y50063D01*
X128983Y50513D02*
X129154Y50063D01*
X128983Y50513D02*
Y50063D01*
X128576Y50513D02*
X128854D01*
Y50063D01*
X128576D01*
X128854Y50299D02*
X128683D01*
X128479Y50363D02*
X128501Y50342D01*
X128479Y50320D01*
X128458Y50342D01*
X128479Y50363D01*
Y50106D02*
X128501Y50085D01*
X128479Y50063D01*
X128458Y50085D01*
X128479Y50106D01*
X94714Y50406D02*
X94735Y50449D01*
X94778Y50492D01*
X94821Y50513D01*
X94907D01*
X94949Y50492D01*
X94992Y50449D01*
X95014Y50406D01*
X95035Y50342D01*
Y50235D01*
X95014Y50170D01*
X94992Y50127D01*
X94949Y50085D01*
X94907Y50063D01*
X94821D01*
X94778Y50085D01*
X94735Y50127D01*
X94714Y50170D01*
Y50235D01*
X94821D02*
X94714D01*
X94332Y50513D02*
X94611D01*
Y50063D01*
X94332D01*
X94611Y50299D02*
X94439D01*
X94257Y50513D02*
Y50063D01*
Y50513D02*
X94065D01*
X94000Y50492D01*
X93979Y50470D01*
X93957Y50427D01*
Y50384D01*
X93979Y50342D01*
X94000Y50320D01*
X94065Y50299D01*
X94257D01*
X94107D02*
X93957Y50063D01*
X93857Y50513D02*
Y50063D01*
Y50513D02*
X93664D01*
X93600Y50492D01*
X93578Y50470D01*
X93557Y50427D01*
Y50384D01*
X93578Y50342D01*
X93600Y50320D01*
X93664Y50299D01*
X93857D02*
X93664D01*
X93600Y50277D01*
X93578Y50256D01*
X93557Y50213D01*
Y50149D01*
X93578Y50106D01*
X93600Y50085D01*
X93664Y50063D01*
X93857D01*
X93178Y50513D02*
X93456D01*
Y50063D01*
X93178D01*
X93456Y50299D02*
X93285D01*
X93103Y50513D02*
Y50063D01*
Y50513D02*
X92910D01*
X92846Y50492D01*
X92824Y50470D01*
X92803Y50427D01*
Y50384D01*
X92824Y50342D01*
X92846Y50320D01*
X92910Y50299D01*
X93103D01*
X92953D02*
X92803Y50063D01*
X92681Y50363D02*
X92702Y50342D01*
X92681Y50320D01*
X92659Y50342D01*
X92681Y50363D01*
Y50106D02*
X92702Y50085D01*
X92681Y50063D01*
X92659Y50085D01*
X92681Y50106D01*
D47*
X107685Y73154D02*
D03*
X108685D02*
D03*
D48*
X109685D02*
D03*
D49*
X107855Y94503D02*
D03*
Y94113D02*
D03*
Y93713D02*
D03*
X108495D02*
D03*
Y94103D02*
D03*
Y94503D02*
D03*
X108505Y96113D02*
D03*
X108895D02*
D03*
X109295D02*
D03*
Y96753D02*
D03*
X108905D02*
D03*
X108505D02*
D03*
X105905Y93223D02*
D03*
Y93613D02*
D03*
Y94013D02*
D03*
X105265D02*
D03*
Y93623D02*
D03*
Y93223D02*
D03*
X105905Y94423D02*
D03*
Y94813D02*
D03*
Y95213D02*
D03*
X105265D02*
D03*
Y94823D02*
D03*
Y94423D02*
D03*
X105915Y95623D02*
D03*
Y96013D02*
D03*
Y96413D02*
D03*
X105275D02*
D03*
Y96023D02*
D03*
Y95623D02*
D03*
X105625Y74893D02*
D03*
X108775Y75263D02*
D03*
X119915Y97133D02*
D03*
X119115Y97733D02*
D03*
X119915D02*
D03*
X120715D02*
D03*
X119115Y97133D02*
D03*
X120715D02*
D03*
X119885Y95203D02*
D03*
X119085Y95803D02*
D03*
X119885D02*
D03*
X120685D02*
D03*
X119085Y95203D02*
D03*
X120685D02*
D03*
X122795Y95483D02*
D03*
Y94883D02*
D03*
Y93683D02*
D03*
Y91883D02*
D03*
Y92483D02*
D03*
Y93083D02*
D03*
Y94283D02*
D03*
X118555Y95433D02*
D03*
Y94833D02*
D03*
Y93633D02*
D03*
Y91833D02*
D03*
Y92433D02*
D03*
Y93033D02*
D03*
Y94233D02*
D03*
X105325Y100513D02*
D03*
Y101713D02*
D03*
Y101113D02*
D03*
X106735Y90833D02*
D03*
X107285Y91863D02*
D03*
X105185Y84133D02*
D03*
Y85133D02*
D03*
Y86213D02*
D03*
X114375Y94733D02*
D03*
X113575Y95333D02*
D03*
X114375D02*
D03*
X115175D02*
D03*
X114375Y93533D02*
D03*
Y92933D02*
D03*
X113575D02*
D03*
Y94133D02*
D03*
Y94733D02*
D03*
X115175D02*
D03*
Y93533D02*
D03*
X113575Y91733D02*
D03*
X114375Y92333D02*
D03*
Y91733D02*
D03*
X115175D02*
D03*
Y92333D02*
D03*
Y92933D02*
D03*
X113575Y92333D02*
D03*
Y93533D02*
D03*
X114375Y94133D02*
D03*
X115175D02*
D03*
X122215Y89473D02*
D03*
X112705Y90133D02*
D03*
X109845Y82333D02*
D03*
X110755Y82393D02*
D03*
X120465Y103343D02*
D03*
X121175Y103313D02*
D03*
X120835Y103713D02*
D03*
X108315Y103123D02*
D03*
Y103753D02*
D03*
X107955Y103473D02*
D03*
X107655Y100503D02*
D03*
Y101703D02*
D03*
X108285Y101713D02*
D03*
Y100513D02*
D03*
X107655Y101103D02*
D03*
X108285Y101113D02*
D03*
X110465Y99872D02*
D03*
X109665Y100472D02*
D03*
Y101072D02*
D03*
X110465D02*
D03*
X111265D02*
D03*
Y99872D02*
D03*
X109665D02*
D03*
X110465Y100472D02*
D03*
X111265D02*
D03*
X110915Y84633D02*
D03*
X109705Y80813D02*
D03*
X111085Y80583D02*
D03*
X107143Y84646D02*
D03*
X107133Y85656D02*
D03*
X107131Y86724D02*
D03*
X108515Y80143D02*
D03*
X108575Y80693D02*
D03*
X116235Y83323D02*
D03*
Y84323D02*
D03*
X116215Y84913D02*
D03*
X115045Y82983D02*
D03*
X114885Y80133D02*
D03*
X114705Y77713D02*
D03*
X115265Y75613D02*
D03*
X115275Y73263D02*
D03*
X113755Y80653D02*
D03*
X113145Y79473D02*
D03*
X111895Y78493D02*
D03*
X112055Y77543D02*
D03*
X111785Y76673D02*
D03*
X111235Y76153D02*
D03*
X112075Y73573D02*
D03*
X111025Y75563D02*
D03*
X114375Y101533D02*
D03*
X115175D02*
D03*
X115975D02*
D03*
X115175Y99733D02*
D03*
Y99133D02*
D03*
X114375D02*
D03*
Y100333D02*
D03*
Y100933D02*
D03*
X115175D02*
D03*
X115975D02*
D03*
Y99733D02*
D03*
X114375Y97933D02*
D03*
X115175Y98533D02*
D03*
Y97933D02*
D03*
X115975D02*
D03*
Y98533D02*
D03*
Y99133D02*
D03*
X114375Y98533D02*
D03*
Y99733D02*
D03*
X115175Y100333D02*
D03*
X115975D02*
D03*
X119765Y73363D02*
D03*
X117525Y72253D02*
D03*
X117535Y74593D02*
D03*
X119105Y75613D02*
D03*
X117545Y76823D02*
D03*
X118355Y76463D02*
D03*
X117545Y79083D02*
D03*
X118415Y77783D02*
D03*
X118445Y78403D02*
D03*
X118555Y80073D02*
D03*
X119465Y80813D02*
D03*
X117605Y81793D02*
D03*
X120295Y83483D02*
D03*
X120095Y85803D02*
D03*
X120555Y88253D02*
D03*
X112812Y71837D02*
D03*
X108993Y75803D02*
D03*
X122375Y71473D02*
D03*
X119947Y70641D02*
D03*
X107045Y77313D02*
D03*
X107025Y76803D02*
D03*
X106545Y79944D02*
D03*
X110205Y91073D02*
D03*
X107065Y78853D02*
D03*
X122285Y102723D02*
D03*
X123295Y97093D02*
D03*
X104055Y82543D02*
D03*
X106585Y83573D02*
D03*
X108845Y83283D02*
D03*
X106515Y80594D02*
D03*
X108495Y94923D02*
D03*
Y95313D02*
D03*
Y95713D02*
D03*
X107855D02*
D03*
Y95323D02*
D03*
Y94923D02*
D03*
X119135Y72563D02*
D03*
Y71863D02*
D03*
X119245Y72213D02*
D03*
X115715Y73903D02*
D03*
X115685Y76333D02*
D03*
X119135Y74263D02*
D03*
X119245Y74613D02*
D03*
X119135Y74963D02*
D03*
X119245Y77013D02*
D03*
X119135Y77363D02*
D03*
Y76663D02*
D03*
Y79063D02*
D03*
X119245Y79413D02*
D03*
X119135Y79763D02*
D03*
X119145Y81473D02*
D03*
X119255Y81823D02*
D03*
X119145Y82173D02*
D03*
X117945Y84363D02*
D03*
X117835Y84013D02*
D03*
X117945Y83663D02*
D03*
X117935Y86763D02*
D03*
X117825Y86413D02*
D03*
X117935Y86063D02*
D03*
X117595Y89163D02*
D03*
X117485Y88813D02*
D03*
X117595Y88463D02*
D03*
X115685Y78733D02*
D03*
X115745Y81083D02*
D03*
X121435Y84793D02*
D03*
X121445Y87113D02*
D03*
X105455Y85633D02*
D03*
X105435Y84643D02*
D03*
X105185Y78853D02*
D03*
X106055Y89693D02*
D03*
X106075Y85993D02*
D03*
Y84943D02*
D03*
X105191Y81683D02*
D03*
X105195Y86703D02*
D03*
X104755Y76673D02*
D03*
X104225Y77503D02*
D03*
X109327Y80221D02*
D03*
X108945Y80773D02*
D03*
X109580Y88563D02*
D03*
X104225Y78533D02*
D03*
X122285Y103260D02*
D03*
X121485Y73113D02*
D03*
X121465Y74113D02*
D03*
X121505Y75113D02*
D03*
X121445Y76113D02*
D03*
Y77113D02*
D03*
X121455Y78113D02*
D03*
X121395Y79113D02*
D03*
X121405Y80113D02*
D03*
X121415Y81103D02*
D03*
X120685Y82113D02*
D03*
X120845Y71918D02*
D03*
X120175Y71241D02*
D03*
X107564Y88512D02*
D03*
X103565Y89833D02*
D03*
X103545Y89198D02*
D03*
X102795Y89208D02*
D03*
Y89813D02*
D03*
X118185Y91163D02*
D03*
X104855Y80153D02*
D03*
X106261Y72557D02*
D03*
X107155Y71863D02*
D03*
X105635Y73483D02*
D03*
X106265Y72177D02*
D03*
X105488Y77383D02*
D03*
X109563Y78266D02*
D03*
X109249Y77951D02*
D03*
X108934Y77636D02*
D03*
X109563D02*
D03*
X108304D02*
D03*
X108934Y78266D02*
D03*
X108304D02*
D03*
X109249Y77321D02*
D03*
X108619D02*
D03*
X109563Y77006D02*
D03*
X108934D02*
D03*
X108304D02*
D03*
X108619Y77951D02*
D03*
D50*
X104735Y89355D02*
D03*
Y91323D02*
D03*
X124461Y100685D02*
D03*
Y102653D02*
D03*
D51*
X102965Y83150D02*
D03*
Y76150D02*
D03*
Y78150D02*
D03*
Y79150D02*
D03*
Y80150D02*
D03*
Y81150D02*
D03*
Y82150D02*
D03*
Y77150D02*
D03*
D52*
X103465Y73083D02*
D03*
Y74083D02*
D03*
Y72083D02*
D03*
X108645Y71142D02*
D03*
X107645D02*
D03*
X104825Y99303D02*
D03*
X103825D02*
D03*
X124435Y70783D02*
D03*
Y71923D02*
D03*
X117305Y96563D02*
D03*
X118305D02*
D03*
D53*
X103465Y71083D02*
D03*
X109645Y71142D02*
D03*
X105825Y99303D02*
D03*
X125435Y70783D02*
D03*
Y71923D02*
D03*
X116305Y96563D02*
D03*
D54*
X123985Y89713D02*
D03*
Y88713D02*
D03*
Y87713D02*
D03*
Y86713D02*
D03*
D55*
X123715Y81113D02*
D03*
Y73113D02*
D03*
Y74113D02*
D03*
Y75113D02*
D03*
Y76113D02*
D03*
Y77113D02*
D03*
Y78113D02*
D03*
Y79113D02*
D03*
Y80113D02*
D03*
X125415D02*
D03*
Y79113D02*
D03*
Y78113D02*
D03*
Y77113D02*
D03*
Y76113D02*
D03*
Y75113D02*
D03*
Y74113D02*
D03*
Y73113D02*
D03*
Y81113D02*
D03*
D56*
X103355Y101083D02*
D03*
Y102423D02*
D03*
X103335Y94513D02*
D03*
Y95853D02*
D03*
D58*
X124812Y93593D02*
D03*
D59*
X102810Y85988D02*
D03*
X114480Y70913D02*
D03*
D68*
X103575Y92473D02*
D03*
Y90753D02*
D03*
D69*
X106074Y79487D02*
D03*
X106330D02*
D03*
X105818Y80274D02*
D03*
X106074D02*
D03*
X106330D02*
D03*
X105818Y79487D02*
D03*
D70*
X107935Y91933D02*
D03*
Y90673D02*
D03*
D71*
X108795Y90463D02*
D03*
X109695D02*
D03*
D231*
X118880Y70753D02*
D03*
X124676Y83443D02*
D03*
M02*
