M72
M48
T1F00S00C0.0120
T2F00S00C0.0150
T3F00S00C0.0280
T4F00S00C0.0300
T5F00S00C0.0394
T6F00S00C0.0400
T7F00S00C0.0591
T8F00S00C0.0630
T9F00S00C0.0670
%
T01
X037072Y037293
Y037923
X037701
X037387Y037608
X038016
X037701Y037293
X038331
Y037923
Y038553
X037701
X037387Y038238
X037072Y038553
X038016Y038238
T02
X026688Y030928
X02646Y031528
X02579Y032205
X0275Y03215
X02739Y0325
X0275Y03285
X02687Y03365
X0275Y03455
X02739Y0349
X0275Y03525
X02753Y0359
X0275Y03695
X02739Y0373
X0275Y03765
X02822Y03807
X02819Y03869
X0275Y03935
X02739Y0397
X0275Y04005
X02808Y04036
X02717Y0411
X02749Y04176
X02738Y04211
X02749Y04246
X02595Y0424
X02522Y04139
X02523Y0404
X02524Y0394
X02518Y0384
X02519Y0374
Y0364
X02513Y0354
X02517Y0344
X02515Y0334
X02426Y03176
X02911Y03254
X0291Y03488
X02909Y03711
X02828Y03675
X03095Y03662
X03095Y03902
X02909Y03937
X02903Y04208
X02869Y04395
X0288Y0443
X02869Y04465
X0287Y04635
X02881Y0467
X02654Y04609
X0252Y04508
X02634Y04377
X0304Y04361
Y04461
X03042Y0452
X03089Y04137
X03092Y03419
X03136Y03355
X03137Y0359
X03193Y038
X03175Y04042
X03288Y04094
X03349Y03976
X03474Y03878
X03458Y03783
X03485Y03696
X0354Y03644
X03561Y03585
X037643Y03609
X03786Y03555
X03961Y03709
X03959Y0376
X03957Y03914
X04009Y040231
X04012Y040881
X04178Y04044
X04145Y03914
X04241Y03882
Y03779
X04188Y03696
X041147Y03767
X04101Y03518
X041Y03377
X040374Y032844
X04037Y032464
X03948Y03215
X033823Y032123
X03456Y03386
X03555Y04087
X03693Y0411
X03769Y04106
X03806Y04098
X03812Y04043
X037308Y040508
X03679Y04262
X03588Y04268
X03572Y04492
X03779Y04357
X04005Y04386
X039492Y044933
X039502Y045943
X04056Y04628
X04118Y04592
X04145Y04542
X0412Y04493
X04145Y04442
X04056Y04523
X04145Y0465
X041444Y04197
X04258Y04283
X03159Y04327
X03146Y05202
Y05262
Y05322
Y05382
Y05442
Y05502
Y05562
X03226
Y05502
Y05442
Y05382
Y05322
Y05262
Y05202
X03306
Y05262
Y05322
Y05382
Y05442
Y05502
Y05562
X03226Y05822
Y05882
Y05942
Y06002
Y06062
Y06122
Y06182
X03146
Y06122
Y06062
Y06002
Y05942
Y05882
Y05822
X03537Y060159
Y060759
Y061359
X03617
Y060759
Y060159
X03697
Y060759
Y061359
X03835Y0614
Y062
X03898Y06199
Y06139
Y06079
X03835Y0608
X04131
Y0614
Y062
X04136Y0567
Y05631
Y05591
X04137Y0555
Y05511
Y05471
Y0543
Y05391
Y05351
X04073
Y0539
Y0543
Y05471
Y0551
Y0555
X04072Y05591
Y0563
Y0567
X03878Y056
Y05561
Y05521
Y05479
Y0544
Y054
X03814
Y05439
Y05479
Y05521
Y0556
Y056
X03813Y0564
X03774
X03734
Y05704
X03773
X03813
X03935Y05215
X0399Y05112
X04058Y04998
X04307Y05012
X04309Y049485
X04384Y049495
Y0501
X04144Y04699
X039504Y047011
X039071Y048799
X037055Y04885
X03643Y05136
X03393Y05042
X02904Y04945
X02915Y0491
X02904Y04875
X0287Y04705
X02519Y0474
X02608Y04854
X02442Y04976
X02384Y05217
Y05277
Y05337
Y05397
Y05457
Y05517
Y05577
X02334Y05738
X02592Y05742
Y05802
X02672
Y05742
X02752
Y05802
X02755Y05609
Y05549
X02808Y05572
Y05512
Y05452
Y05392
Y05332
Y05272
Y05212
X02845Y05145
X02675Y05549
Y05609
X02595
Y05549
X03066Y05822
Y05882
Y05942
Y06002
Y06062
Y06122
Y06182
X02617Y06363
X02546Y0636
X0258Y064
X02435Y063547
Y06301
X03832Y06341
Y06404
X03868Y06376
T03
X03017Y03322
Y03562
Y03802
Y04042
Y04282
X02557Y04333
X02454Y04571
X034126Y042339
X03413Y041339
Y040339
Y039339
Y038339
Y037339
Y036339
Y035339
Y034339
Y033339
X03554Y03464
X03654
X03754
X03854
X03949
X04051Y03465
X04145Y04342
Y0475
X03954Y04799
X03854Y048
X03754Y04799
X03654
X03554
X02452Y04814
X02503Y0516
X02603Y05163
T04
X02265Y047
Y048
Y049
Y05
T05
X0419Y049641
Y05161
X022174Y060972
Y06294
T06
X0212Y03107
X0222
X027755Y03104
X0222Y03221
X0212
X02122Y0334
Y0344
Y0354
Y0364
Y0374
Y0384
Y0394
Y0404
Y0414
X02292
Y0404
Y0394
Y0384
Y0374
Y0364
Y0354
Y0344
Y0334
X021959Y04373
X04367Y043437
Y042437
Y041437
Y040437
Y039437
Y038437
Y037437
Y036437
X04317Y03437
Y03337
Y03237
Y03137
X03899Y031429
X03799
X03699
X03695Y033441
X03795
X03895
X04081Y05959
X04181
X04281
X03033Y05685
X02933
X02833
T07
X021823Y05388
T08
X032155Y0312
X043825Y046275
T09
X0433Y0548
Y05614
X04328Y06137
Y06271
M30
