%FSLAX24Y24*%
%MOIN*%
G70*
G01*
G75*
%ADD10C,0.0100*%
%ADD11C,0.0080*%
%ADD12R,0.0217X0.0197*%
%ADD13R,0.0390X0.0270*%
%ADD14R,0.0400X0.0400*%
%ADD15R,0.0236X0.0315*%
%ADD16R,0.0079X0.0374*%
%ADD17R,0.0360X0.0360*%
%ADD18R,0.0500X0.0360*%
%ADD19R,0.0315X0.0236*%
%ADD20R,0.0394X0.0394*%
%ADD21R,0.3500X0.4500*%
%ADD22R,0.0700X0.0820*%
%ADD23R,0.1500X0.0820*%
%ADD24R,0.0197X0.0217*%
%ADD25R,0.1299X0.0512*%
%ADD26R,0.2000X0.2000*%
%ADD27R,0.0600X0.0600*%
%ADD28R,0.0512X0.1299*%
%ADD29R,0.0315X0.0315*%
%ADD30R,0.0315X0.0315*%
%ADD31R,0.0236X0.0157*%
%ADD32R,0.1693X0.1693*%
%ADD33R,0.0374X0.0079*%
%ADD34C,0.0200*%
%ADD35C,0.0400*%
%ADD36C,0.0250*%
%ADD37C,0.0150*%
%ADD38C,0.0120*%
%ADD39C,0.0500*%
%ADD40C,0.0750*%
%ADD41C,0.0300*%
%ADD42C,0.0090*%
%ADD43R,0.1980X0.2640*%
%ADD44R,0.0510X0.0630*%
%ADD45C,0.0060*%
%ADD46C,0.0050*%
%ADD47O,0.0600X0.0800*%
%ADD48R,0.0600X0.0800*%
%ADD49C,0.0250*%
%ADD50C,0.0630*%
%ADD51R,0.1000X0.0650*%
%ADD52C,0.0800*%
%ADD53R,0.0800X0.0800*%
%ADD54C,0.0600*%
%ADD55R,0.0800X0.0650*%
%ADD56R,0.1500X0.1250*%
%ADD57P,0.0650X8X0*%
%ADD58R,0.1500X0.2500*%
%ADD59R,0.1000X0.1000*%
%ADD60R,0.1410X0.1510*%
%ADD61R,0.0850X0.1400*%
%ADD62R,0.0840X0.1280*%
%ADD63R,0.0900X0.1380*%
%ADD64R,0.0950X0.1280*%
%ADD65R,0.0990X0.1540*%
%ADD66R,0.0880X0.1740*%
%ADD67R,0.1440X0.1570*%
%ADD68R,0.0820X0.0700*%
%ADD69R,0.0157X0.0236*%
%ADD70R,0.0630X0.0472*%
%ADD71R,0.0600X0.0500*%
%ADD72R,0.0440X0.0410*%
%ADD73R,0.0640X0.0650*%
%ADD74R,0.1030X0.1500*%
%ADD75R,0.1020X0.1460*%
%ADD76R,0.0560X0.0450*%
%ADD77R,0.0610X0.0520*%
%ADD78R,0.1020X0.1470*%
%ADD79R,0.1030X0.1440*%
%ADD80R,0.1080X0.1500*%
%ADD81R,0.0590X0.0470*%
%ADD82R,0.0610X0.0500*%
%ADD83R,0.1320X0.1390*%
%ADD84R,0.1110X0.1540*%
%ADD85R,0.1430X0.1590*%
%ADD86C,0.0039*%
%ADD87C,0.0110*%
%ADD88C,0.0070*%
%ADD89C,0.0020*%
%ADD90C,0.0079*%
%ADD91C,0.0040*%
%ADD92R,0.0090X0.0690*%
%ADD93R,0.0380X0.0700*%
%ADD94R,0.0400X0.0690*%
%ADD95R,0.0380X0.0560*%
%ADD96R,0.0160X0.0100*%
%ADD97R,0.0290X0.0110*%
%ADD98R,0.0400X0.0780*%
%ADD99R,0.0100X0.0060*%
%ADD100R,0.0450X0.0100*%
%ADD101R,0.0070X0.0080*%
%ADD102R,0.0430X0.0060*%
%ADD103R,0.0280X0.0050*%
%ADD104R,0.0180X0.0100*%
%ADD105R,0.0060X0.0050*%
%ADD106R,0.0310X0.0140*%
%ADD107R,0.0070X0.0120*%
%ADD108R,0.0060X0.0060*%
%ADD109R,0.0180X0.0150*%
%ADD110R,0.0130X0.0060*%
%ADD111R,0.0100X0.0110*%
%ADD112R,0.0110X0.0120*%
%ADD113R,0.0050X0.0050*%
%ADD114R,0.0070X0.0070*%
%ADD115R,0.0120X0.0060*%
%ADD116R,0.0070X0.0630*%
%ADD117R,0.0090X0.0030*%
%ADD118R,0.0050X0.0030*%
%ADD119R,0.0120X0.0590*%
%ADD120R,0.0040X0.0510*%
%ADD121R,0.0070X0.0020*%
%ADD122R,0.0050X0.0040*%
%ADD123R,0.0060X0.0030*%
%ADD124R,0.0040X0.0450*%
%ADD125R,0.0040X0.0040*%
%ADD126R,0.0040X0.0410*%
%ADD127R,0.0050X0.0330*%
%ADD128R,0.0040X0.0180*%
%ADD129R,0.0050X0.0160*%
%ADD130R,0.0070X0.0050*%
%ADD131R,0.0080X0.0140*%
%ADD132R,0.0220X0.0090*%
%ADD133R,0.0060X0.0040*%
%ADD134R,0.0150X0.0350*%
%ADD135R,0.0030X0.0050*%
%ADD136R,0.0350X0.0100*%
%ADD137R,0.0220X0.0160*%
%ADD138R,0.0160X0.0070*%
%ADD139R,0.0140X0.0070*%
%ADD140R,0.0090X0.0070*%
%ADD141R,0.0580X0.0150*%
%ADD142R,0.0050X0.0100*%
%ADD143R,0.0250X0.0020*%
%ADD144R,0.0040X0.0030*%
%ADD145R,0.0060X0.0090*%
%ADD146R,0.0390X0.0730*%
%ADD147R,0.0080X0.0160*%
%ADD148R,0.0040X0.0050*%
%ADD149R,0.0040X0.0160*%
%ADD150R,0.0320X0.0160*%
%ADD151R,0.0350X0.0090*%
%ADD152R,0.0100X0.0090*%
%ADD153R,0.0590X0.0100*%
%ADD154R,0.0300X0.0050*%
%ADD155R,0.0120X0.0030*%
%ADD156R,0.0060X0.0280*%
%ADD157R,0.0050X0.0190*%
%ADD158R,0.0050X0.0020*%
%ADD159R,0.0340X0.0250*%
%ADD160R,0.0320X0.0330*%
%ADD161R,0.0100X0.0140*%
%ADD162R,0.0050X0.0120*%
%ADD163R,0.0050X0.0080*%
%ADD164R,0.0330X0.0060*%
%ADD165R,0.0210X0.0040*%
%ADD166R,0.0090X0.0050*%
%ADD167R,0.0100X0.0080*%
%ADD168R,0.0090X0.0100*%
%ADD169R,0.0020X0.0030*%
%ADD170R,0.0560X0.0130*%
%ADD171R,0.0380X0.0050*%
%ADD172R,0.0080X0.0280*%
%ADD173R,0.0050X0.0180*%
%ADD174R,0.0380X0.0710*%
%ADD175R,0.0300X0.0180*%
%ADD176R,0.0270X0.0030*%
%ADD177R,0.0190X0.0050*%
%ADD178R,0.0070X0.0140*%
%ADD179R,0.0270X0.0040*%
%ADD180R,0.0180X0.0050*%
%ADD181R,0.0060X0.0110*%
%ADD182R,0.0390X0.1040*%
%ADD183R,0.0210X0.0100*%
%ADD184R,0.0315X0.0787*%
%ADD185R,0.3600X0.0670*%
%ADD186R,0.0080X0.0120*%
%ADD187R,0.0787X0.0315*%
%ADD188R,0.4170X0.0870*%
%ADD189R,0.1100X0.5200*%
%ADD190R,0.0297X0.0277*%
%ADD191R,0.0470X0.0350*%
%ADD192R,0.0480X0.0480*%
%ADD193R,0.0316X0.0395*%
%ADD194R,0.0159X0.0454*%
%ADD195R,0.0440X0.0440*%
%ADD196R,0.0580X0.0440*%
%ADD197R,0.0395X0.0316*%
%ADD198R,0.0474X0.0474*%
%ADD199R,0.3580X0.4580*%
%ADD200R,0.0780X0.0900*%
%ADD201R,0.1580X0.0900*%
%ADD202R,0.0277X0.0297*%
%ADD203R,0.1379X0.0592*%
%ADD204R,0.2080X0.2080*%
%ADD205R,0.0680X0.0680*%
%ADD206R,0.0592X0.1379*%
%ADD207R,0.0395X0.0395*%
%ADD208R,0.0395X0.0395*%
%ADD209R,0.0316X0.0237*%
%ADD210R,0.1773X0.1773*%
%ADD211R,0.0454X0.0159*%
%ADD212O,0.0680X0.0880*%
%ADD213R,0.0680X0.0880*%
%ADD214C,0.0330*%
%ADD215C,0.0710*%
%ADD216R,0.1080X0.0730*%
%ADD217C,0.0880*%
%ADD218R,0.0880X0.0880*%
%ADD219C,0.0680*%
%ADD220R,0.0880X0.0730*%
%ADD221R,0.1580X0.1330*%
%ADD222P,0.0730X8X0*%
%ADD223R,0.1580X0.2580*%
%ADD224R,0.1080X0.1080*%
%ADD225R,0.4200X0.0830*%
%ADD226R,0.1040X0.5150*%
%ADD227R,0.0900X0.0780*%
%ADD228R,0.0237X0.0316*%
%ADD229R,0.0710X0.0552*%
%ADD230R,0.0680X0.0580*%
D10*
X75685Y61463D02*
X75587Y61458D01*
X75490Y61444D01*
X75395Y61420D01*
X75302Y61387D01*
X75214Y61345D01*
X75129Y61295D01*
X75051Y61236D01*
X74978Y61170D01*
X74912Y61098D01*
X74853Y61019D01*
X74803Y60935D01*
X74761Y60846D01*
X74728Y60753D01*
X74704Y60658D01*
X74690Y60561D01*
X74685Y60463D01*
Y49473D02*
X74690Y49375D01*
X74704Y49278D01*
X74727Y49183D01*
X74760Y49091D01*
X74802Y49002D01*
X74852Y48918D01*
X74909Y48838D01*
X74975Y48765D01*
X75047Y48699D01*
X75125Y48640D01*
X75208Y48588D01*
X75296Y48545D01*
X75388Y48511D01*
X75483Y48486D01*
X75580Y48470D01*
X75677Y48463D01*
X117685Y48463D02*
X117783Y48468D01*
X117880Y48482D01*
X117975Y48506D01*
X118068Y48539D01*
X118156Y48581D01*
X118241Y48632D01*
X118319Y48690D01*
X118392Y48756D01*
X118458Y48829D01*
X118516Y48908D01*
X118567Y48992D01*
X118609Y49080D01*
X118642Y49173D01*
X118666Y49268D01*
X118680Y49365D01*
X118685Y49463D01*
Y60463D02*
X118680Y60561D01*
X118666Y60658D01*
X118642Y60753D01*
X118609Y60846D01*
X118567Y60935D01*
X118516Y61019D01*
X118458Y61098D01*
X118392Y61170D01*
X118319Y61236D01*
X118241Y61295D01*
X118156Y61345D01*
X118068Y61387D01*
X117975Y61420D01*
X117880Y61444D01*
X117783Y61458D01*
X117685Y61463D01*
X80685Y104713D02*
X105685D01*
X77185Y69713D02*
X80185D01*
X80685Y67513D02*
Y69213D01*
X105685Y68413D02*
Y68613D01*
X80685Y68413D02*
Y68613D01*
X105085Y68313D02*
X105685Y68513D01*
X105085Y68713D02*
X105685Y68513D01*
X80685D02*
X81285Y68313D01*
X80685Y68513D02*
X81285Y68713D01*
X95994Y68513D02*
X105685D01*
X80685D02*
X90376D01*
X80685Y69713D02*
X105685D01*
Y104713D01*
X80685Y69713D02*
Y104713D01*
X75685Y48463D02*
X117685D01*
X75685Y61463D02*
X117685D01*
X118685Y49463D02*
Y60463D01*
X74685Y49463D02*
Y60463D01*
X78085Y104713D02*
X78285D01*
X78085Y69713D02*
X78285D01*
X78185Y104713D02*
X78385Y104113D01*
X77985D02*
X78185Y104713D01*
Y69713D02*
X78385Y70313D01*
X77985D02*
X78185Y69713D01*
Y90022D02*
Y104713D01*
Y69713D02*
Y84404D01*
D11*
X142185Y48713D02*
X142175Y48814D01*
X142145Y48910D01*
X142095Y48999D01*
X142030Y49075D01*
X141950Y49137D01*
X141859Y49182D01*
X141761Y49207D01*
X141660Y49212D01*
X141560Y49197D01*
X141465Y49162D01*
X141379Y49108D01*
X141306Y49039D01*
X141248Y48956D01*
X141208Y48863D01*
X141188Y48764D01*
Y48662D01*
X141208Y48563D01*
X141248Y48470D01*
X141306Y48387D01*
X141379Y48318D01*
X141465Y48264D01*
X141560Y48229D01*
X141660Y48214D01*
X141761Y48219D01*
X141859Y48244D01*
X141950Y48289D01*
X142030Y48351D01*
X142095Y48427D01*
X142145Y48516D01*
X142175Y48612D01*
X142185Y48713D01*
X142435D02*
X142428Y48813D01*
X142408Y48911D01*
X142376Y49006D01*
X142330Y49095D01*
X142274Y49178D01*
X142206Y49252D01*
X142130Y49317D01*
X142045Y49371D01*
X141955Y49413D01*
X141859Y49443D01*
X141760Y49459D01*
X141660Y49463D01*
X141560Y49453D01*
X141463Y49429D01*
X141369Y49393D01*
X141281Y49345D01*
X141201Y49286D01*
X141129Y49216D01*
X141067Y49137D01*
X141016Y49051D01*
X140977Y48959D01*
X140950Y48862D01*
X140937Y48763D01*
Y48663D01*
X140950Y48564D01*
X140977Y48467D01*
X141016Y48375D01*
X141067Y48289D01*
X141129Y48210D01*
X141201Y48140D01*
X141281Y48081D01*
X141369Y48033D01*
X141463Y47997D01*
X141560Y47973D01*
X141660Y47963D01*
X141760Y47967D01*
X141859Y47983D01*
X141955Y48013D01*
X142045Y48055D01*
X142130Y48109D01*
X142206Y48174D01*
X142274Y48248D01*
X142330Y48331D01*
X142376Y48420D01*
X142408Y48515D01*
X142428Y48613D01*
X142435Y48713D01*
X141710D02*
X141660D01*
X141710D01*
X141735D02*
X141660Y48756D01*
Y48670D01*
X141735Y48713D01*
X141885D02*
X141862Y48806D01*
X141799Y48878D01*
X141709Y48912D01*
X141614Y48900D01*
X141535Y48846D01*
X141491Y48761D01*
Y48665D01*
X141535Y48580D01*
X141614Y48526D01*
X141709Y48514D01*
X141799Y48548D01*
X141862Y48620D01*
X141885Y48713D01*
X141835D02*
X141800Y48809D01*
X141711Y48861D01*
X141610Y48843D01*
X141544Y48764D01*
Y48662D01*
X141610Y48583D01*
X141711Y48565D01*
X141800Y48617D01*
X141835Y48713D01*
X141785D02*
X141735Y48800D01*
X141635D01*
X141585Y48713D01*
X141635Y48626D01*
X141735D01*
X141785Y48713D01*
X72435Y108713D02*
X72428Y108813D01*
X72408Y108911D01*
X72375Y109006D01*
X72330Y109095D01*
X72274Y109178D01*
X72206Y109252D01*
X72130Y109317D01*
X72045Y109371D01*
X71955Y109413D01*
X71859Y109443D01*
X71760Y109459D01*
X71660Y109463D01*
X71560Y109453D01*
X71463Y109429D01*
X71369Y109393D01*
X71281Y109345D01*
X71201Y109286D01*
X71129Y109216D01*
X71067Y109138D01*
X71016Y109051D01*
X70976Y108959D01*
X70950Y108863D01*
X70937Y108763D01*
Y108663D01*
X70950Y108564D01*
X70976Y108467D01*
X71016Y108375D01*
X71067Y108289D01*
X71129Y108210D01*
X71201Y108140D01*
X71281Y108081D01*
X71369Y108033D01*
X71463Y107997D01*
X71560Y107974D01*
X71660Y107964D01*
X71760Y107967D01*
X71859Y107984D01*
X71955Y108013D01*
X72045Y108055D01*
X72130Y108109D01*
X72206Y108174D01*
X72274Y108248D01*
X72330Y108331D01*
X72375Y108420D01*
X72408Y108515D01*
X72428Y108613D01*
X72435Y108713D01*
X71710D02*
X71660D01*
X71710D01*
X71735D02*
X71660Y108756D01*
Y108670D01*
X71735Y108713D01*
X71785D02*
X71735Y108800D01*
X71635D01*
X71585Y108713D01*
X71635Y108627D01*
X71735D01*
X71785Y108713D01*
X71835D02*
X71800Y108810D01*
X71711Y108861D01*
X71610Y108843D01*
X71544Y108764D01*
Y108662D01*
X71610Y108583D01*
X71711Y108565D01*
X71800Y108617D01*
X71835Y108713D01*
X71885D02*
X71862Y108806D01*
X71799Y108878D01*
X71709Y108912D01*
X71614Y108900D01*
X71535Y108846D01*
X71491Y108761D01*
Y108665D01*
X71535Y108581D01*
X71614Y108526D01*
X71709Y108515D01*
X71799Y108549D01*
X71862Y108620D01*
X71885Y108713D01*
X72185D02*
X72175Y108814D01*
X72144Y108910D01*
X72095Y108999D01*
X72029Y109076D01*
X71949Y109137D01*
X71859Y109182D01*
X71761Y109207D01*
X71660Y109212D01*
X71560Y109197D01*
X71465Y109162D01*
X71379Y109109D01*
X71306Y109039D01*
X71248Y108956D01*
X71208Y108863D01*
X71188Y108764D01*
Y108663D01*
X71208Y108563D01*
X71248Y108470D01*
X71306Y108387D01*
X71379Y108318D01*
X71465Y108264D01*
X71560Y108229D01*
X71660Y108214D01*
X71761Y108219D01*
X71859Y108244D01*
X71949Y108289D01*
X72029Y108351D01*
X72095Y108427D01*
X72144Y108516D01*
X72175Y108612D01*
X72185Y108713D01*
X72185Y48713D02*
X72175Y48814D01*
X72145Y48910D01*
X72095Y48999D01*
X72030Y49075D01*
X71950Y49137D01*
X71859Y49182D01*
X71761Y49207D01*
X71660Y49212D01*
X71560Y49197D01*
X71465Y49162D01*
X71379Y49108D01*
X71306Y49039D01*
X71248Y48956D01*
X71208Y48863D01*
X71188Y48764D01*
Y48662D01*
X71208Y48563D01*
X71248Y48470D01*
X71306Y48387D01*
X71379Y48318D01*
X71465Y48264D01*
X71560Y48229D01*
X71660Y48214D01*
X71761Y48219D01*
X71859Y48244D01*
X71950Y48289D01*
X72030Y48351D01*
X72095Y48427D01*
X72145Y48516D01*
X72175Y48612D01*
X72185Y48713D01*
X72435D02*
X72428Y48813D01*
X72408Y48911D01*
X72376Y49006D01*
X72330Y49095D01*
X72274Y49178D01*
X72206Y49252D01*
X72130Y49317D01*
X72045Y49371D01*
X71955Y49413D01*
X71859Y49443D01*
X71760Y49459D01*
X71660Y49463D01*
X71560Y49453D01*
X71463Y49429D01*
X71369Y49393D01*
X71281Y49345D01*
X71201Y49286D01*
X71129Y49216D01*
X71067Y49137D01*
X71016Y49051D01*
X70977Y48959D01*
X70950Y48862D01*
X70937Y48763D01*
Y48663D01*
X70950Y48564D01*
X70977Y48467D01*
X71016Y48375D01*
X71067Y48289D01*
X71129Y48210D01*
X71201Y48140D01*
X71281Y48081D01*
X71369Y48033D01*
X71463Y47997D01*
X71560Y47973D01*
X71660Y47963D01*
X71760Y47967D01*
X71859Y47983D01*
X71955Y48013D01*
X72045Y48055D01*
X72130Y48109D01*
X72206Y48174D01*
X72274Y48248D01*
X72330Y48331D01*
X72376Y48420D01*
X72408Y48515D01*
X72428Y48613D01*
X72435Y48713D01*
X71710D02*
X71660D01*
X71710D01*
X71735D02*
X71660Y48756D01*
Y48670D01*
X71735Y48713D01*
X71885D02*
X71862Y48806D01*
X71799Y48878D01*
X71709Y48912D01*
X71614Y48900D01*
X71535Y48846D01*
X71491Y48761D01*
Y48665D01*
X71535Y48580D01*
X71614Y48526D01*
X71709Y48514D01*
X71799Y48548D01*
X71862Y48620D01*
X71885Y48713D01*
X71785D02*
X71735Y48800D01*
X71635D01*
X71585Y48713D01*
X71635Y48626D01*
X71735D01*
X71785Y48713D01*
X71835D02*
X71800Y48809D01*
X71711Y48861D01*
X71610Y48843D01*
X71544Y48764D01*
Y48662D01*
X71610Y48583D01*
X71711Y48565D01*
X71800Y48617D01*
X71835Y48713D01*
X72435D02*
X72935D01*
X69435D02*
X70935D01*
X68685Y45713D02*
X69435D01*
X68435Y47963D02*
X68935D01*
X68540Y48043D02*
X68830D01*
X68590Y48078D02*
X68780D01*
X68490Y48008D02*
X68880D01*
X68640Y48113D02*
X68730D01*
X70685Y45713D02*
X70935D01*
X66685Y48713D02*
X68685D01*
X67935Y49713D02*
X68685D01*
X67935Y50713D02*
X68685D01*
X67935Y51713D02*
X68685D01*
X67935Y52713D02*
X68685D01*
X67185Y53713D02*
X68685D01*
X67935Y54713D02*
X68685D01*
X67935Y55713D02*
X68685D01*
X67935Y56713D02*
X68685D01*
X67935Y57713D02*
X68685D01*
X66685Y58713D02*
X68685D01*
X67935Y59713D02*
X68685D01*
X67935Y60713D02*
X68685D01*
X67935Y61713D02*
X68685D01*
X67935Y62713D02*
X68685D01*
X67185Y63713D02*
X68685D01*
X67935Y64713D02*
X68685D01*
X67935Y65713D02*
X68685D01*
X67935Y66713D02*
X68685D01*
X67935Y67713D02*
X68685D01*
X66685Y68713D02*
X68685D01*
X67935Y69713D02*
X68685D01*
X67935Y70713D02*
X68685D01*
X67935Y71713D02*
X68685D01*
X67935Y72713D02*
X68685D01*
X67185Y73713D02*
X68685D01*
X67935Y74713D02*
X68685D01*
X67935Y75713D02*
X68685D01*
X67935Y76713D02*
X68685D01*
X67935Y77713D02*
X68685D01*
X66685Y78713D02*
X68685D01*
X67935Y79713D02*
X68685D01*
X67935Y80713D02*
X68685D01*
X67935Y81713D02*
X68685D01*
X67935Y82713D02*
X68685D01*
X67185Y83713D02*
X68685D01*
X67935Y84713D02*
X68685D01*
X67935Y85713D02*
X68685D01*
X67935Y86713D02*
X68685D01*
X67935Y87713D02*
X68685D01*
X66685Y88713D02*
X68685D01*
X67935Y89713D02*
X68685D01*
X67935Y90713D02*
X68685D01*
X67935Y91713D02*
X68685D01*
X67935Y92713D02*
X68685D01*
X67185Y93713D02*
X68685D01*
X67935Y94713D02*
X68685D01*
X67935Y95713D02*
X68685D01*
X67935Y96713D02*
X68685D01*
X67935Y97713D02*
X68685D01*
X66685Y98713D02*
X68685D01*
X67935Y99713D02*
X68685D01*
X67935Y100713D02*
X68685D01*
X67935Y101713D02*
X68685D01*
X67935Y102713D02*
X68685D01*
X67185Y103713D02*
X68685D01*
X67935Y104713D02*
X68685D01*
X67935Y105713D02*
X68685D01*
X67935Y106713D02*
X68685D01*
X67935Y107713D02*
X68685D01*
X66685Y108713D02*
X68685D01*
X71685D02*
X72185D01*
X71185D02*
X71685D01*
X69435D02*
X70935D01*
X72435D02*
X72935D01*
X140435Y48713D02*
X140935D01*
X142435D02*
X142935D01*
X71685Y46463D02*
Y47963D01*
Y49463D02*
Y49963D01*
X68685Y45713D02*
Y46463D01*
X70935Y45463D02*
Y45963D01*
X71015Y45568D02*
Y45858D01*
X68685Y47713D02*
Y47963D01*
X71050Y45618D02*
Y45808D01*
X70980Y45518D02*
Y45908D01*
X71085Y45668D02*
Y45758D01*
X71685Y43713D02*
Y45713D01*
X72685Y44963D02*
Y45713D01*
X73685Y44963D02*
Y45713D01*
X74685Y44963D02*
Y45713D01*
X75685Y44963D02*
Y45713D01*
X76685Y44213D02*
Y45713D01*
X77685Y44963D02*
Y45713D01*
X78685Y44963D02*
Y45713D01*
X79685Y44963D02*
Y45713D01*
X80685Y44963D02*
Y45713D01*
X81685Y43713D02*
Y45713D01*
X82685Y44963D02*
Y45713D01*
X83685Y44963D02*
Y45713D01*
X84685Y44963D02*
Y45713D01*
X85685Y44963D02*
Y45713D01*
X86685Y44213D02*
Y45713D01*
X87685Y44963D02*
Y45713D01*
X88685Y44963D02*
Y45713D01*
X89685Y44963D02*
Y45713D01*
X90685Y44963D02*
Y45713D01*
X91685Y43713D02*
Y45713D01*
X92685Y44963D02*
Y45713D01*
X93685Y44963D02*
Y45713D01*
X94685Y44963D02*
Y45713D01*
X95685Y44963D02*
Y45713D01*
X96685Y44213D02*
Y45713D01*
X97685Y44963D02*
Y45713D01*
X98685Y44963D02*
Y45713D01*
X99685Y44963D02*
Y45713D01*
X100685Y44963D02*
Y45713D01*
X101685Y43713D02*
Y45713D01*
X102685Y44963D02*
Y45713D01*
X103685Y44963D02*
Y45713D01*
X104685Y44963D02*
Y45713D01*
X105685Y44963D02*
Y45713D01*
X106685Y44213D02*
Y45713D01*
X107685Y44963D02*
Y45713D01*
X108685Y44963D02*
Y45713D01*
X109685Y44963D02*
Y45713D01*
X110685Y44963D02*
Y45713D01*
X111685Y43713D02*
Y45713D01*
X112685Y44963D02*
Y45713D01*
X113685Y44963D02*
Y45713D01*
X114685Y44963D02*
Y45713D01*
X115685Y44963D02*
Y45713D01*
X116685Y44213D02*
Y45713D01*
X117685Y44963D02*
Y45713D01*
X118685Y44963D02*
Y45713D01*
X119685Y44963D02*
Y45713D01*
X120685Y44963D02*
Y45713D01*
X121685Y43713D02*
Y45713D01*
X122685Y44963D02*
Y45713D01*
X123685Y44963D02*
Y45713D01*
X124685Y44963D02*
Y45713D01*
X125685Y44963D02*
Y45713D01*
X126685Y44213D02*
Y45713D01*
X127685Y44963D02*
Y45713D01*
X128685Y44963D02*
Y45713D01*
X129685Y44963D02*
Y45713D01*
X130685Y44963D02*
Y45713D01*
X131685Y43713D02*
Y45713D01*
X132685Y44963D02*
Y45713D01*
X133685Y44963D02*
Y45713D01*
X134685Y44963D02*
Y45713D01*
X135685Y44963D02*
Y45713D01*
X136685Y44213D02*
Y45713D01*
X137685Y44963D02*
Y45713D01*
X138685Y44963D02*
Y45713D01*
X139685Y44963D02*
Y45713D01*
X140685Y44963D02*
Y45713D01*
X141685Y43713D02*
Y45713D01*
X71685Y108213D02*
Y108713D01*
Y109213D01*
Y109463D02*
Y109963D01*
Y107463D02*
Y107963D01*
X141685Y49463D02*
Y49963D01*
Y46463D02*
Y47963D01*
X71685Y48713D02*
X72035Y49063D01*
X71335Y48363D02*
X71685Y48713D01*
X141335Y48363D02*
X141685Y48713D01*
X142035Y49063D01*
X71685Y48713D02*
X72035Y48363D01*
X71335Y49063D02*
X71685Y48713D01*
X141685D02*
X142035Y48363D01*
X141335Y49063D02*
X141685Y48713D01*
X70935Y45463D02*
X71685Y45713D01*
X70935Y45963D02*
X71685Y45713D01*
X71015Y45858D02*
X71445Y45713D01*
X71015Y45568D02*
X71445Y45713D01*
X68685Y48713D02*
X68935Y47963D01*
X68435D02*
X68685Y48713D01*
X68540Y48043D02*
X68685Y48473D01*
X68830Y48043D01*
X68590Y48078D02*
X68685Y48358D01*
X68780Y48078D01*
X68490Y48008D02*
X68685Y48588D01*
X68880Y48008D01*
X68640Y48113D02*
X68685Y48243D01*
X68730Y48113D01*
X71050Y45808D02*
X71330Y45713D01*
X71050Y45618D02*
X71330Y45713D01*
X70980Y45908D02*
X71560Y45713D01*
X70980Y45518D02*
X71560Y45713D01*
X71085Y45758D02*
X71215Y45713D01*
X71085Y45668D02*
X71215Y45713D01*
X76113Y56920D02*
X76085Y56977D01*
X76028Y57034D01*
X75971Y57063D01*
X75856D01*
X75799Y57034D01*
X75742Y56977D01*
X75714Y56920D01*
X75685Y56834D01*
Y56692D01*
X75714Y56606D01*
X75742Y56549D01*
X75799Y56492D01*
X75856Y56463D01*
X75971D01*
X76028Y56492D01*
X76085Y56549D01*
X76113Y56606D01*
X76653Y57063D02*
X76282D01*
Y56463D01*
X76653D01*
X76282Y56777D02*
X76510D01*
X76753Y57063D02*
Y56463D01*
Y57063D02*
X76982Y56463D01*
X77210Y57063D02*
X76982Y56463D01*
X77210Y57063D02*
Y56463D01*
D12*
X96807Y81603D02*
D03*
Y81997D02*
D03*
X97205D02*
D03*
Y81603D02*
D03*
X86130Y71918D02*
D03*
Y71524D02*
D03*
D13*
X95525Y103363D02*
D03*
X96525Y102988D02*
D03*
X95525Y102613D02*
D03*
D14*
X97740Y90503D02*
D03*
X97140D02*
D03*
X99922Y80693D02*
D03*
X97705Y81153D02*
D03*
Y81753D02*
D03*
X96305Y81153D02*
D03*
Y81753D02*
D03*
X97326Y80333D02*
D03*
X96726D02*
D03*
X100035Y91343D02*
D03*
Y90743D02*
D03*
X99425Y91343D02*
D03*
Y91943D02*
D03*
X98815D02*
D03*
Y91343D02*
D03*
X86754Y70641D02*
D03*
Y71241D02*
D03*
X85600Y71311D02*
D03*
Y71911D02*
D03*
X83277Y99419D02*
D03*
X83877D02*
D03*
X86670Y102732D02*
D03*
Y102132D02*
D03*
X84785Y73113D02*
D03*
X85385D02*
D03*
X84785Y74113D02*
D03*
X85385D02*
D03*
X84785Y75113D02*
D03*
X85385D02*
D03*
X84785Y76113D02*
D03*
X85385D02*
D03*
X84785Y77113D02*
D03*
X85385D02*
D03*
X84785Y78113D02*
D03*
X85385D02*
D03*
X84785Y79113D02*
D03*
X85385D02*
D03*
X84785Y80113D02*
D03*
X85385D02*
D03*
X84785Y81113D02*
D03*
X85385D02*
D03*
X85473Y102733D02*
D03*
X86073D02*
D03*
X83275Y97093D02*
D03*
Y97693D02*
D03*
X85385Y82113D02*
D03*
X84785D02*
D03*
X99322Y80693D02*
D03*
X99321Y80083D02*
D03*
X99921D02*
D03*
X84764Y83128D02*
D03*
X85364D02*
D03*
X100605Y103473D02*
D03*
X101205D02*
D03*
X101225Y102743D02*
D03*
X100625D02*
D03*
X98225Y74353D02*
D03*
X97225D02*
D03*
X90855Y80133D02*
D03*
Y77733D02*
D03*
X94815Y81052D02*
D03*
Y80052D02*
D03*
Y79052D02*
D03*
Y77052D02*
D03*
Y78052D02*
D03*
Y74052D02*
D03*
Y75052D02*
D03*
X86715Y91343D02*
D03*
X85715Y91313D02*
D03*
X94811Y82052D02*
D03*
X96225Y74353D02*
D03*
X94815Y76052D02*
D03*
X99225Y87713D02*
D03*
Y74353D02*
D03*
X101195Y74363D02*
D03*
X100175Y74353D02*
D03*
X102135Y83133D02*
D03*
X97225Y87703D02*
D03*
X98225D02*
D03*
X100225D02*
D03*
X96225D02*
D03*
X85205Y87853D02*
D03*
X85225Y85423D02*
D03*
X86255Y83043D02*
D03*
X90855Y82533D02*
D03*
Y75333D02*
D03*
Y72933D02*
D03*
X94815Y73052D02*
D03*
X102135Y87213D02*
D03*
D15*
X96125Y90780D02*
D03*
Y90347D02*
D03*
D16*
X98934Y78796D02*
D03*
X97832D02*
D03*
X97675D02*
D03*
Y76453D02*
D03*
X97517D02*
D03*
X97832D02*
D03*
X97990D02*
D03*
X98147D02*
D03*
X98305D02*
D03*
X98462D02*
D03*
X98620D02*
D03*
X98777D02*
D03*
X98934D02*
D03*
X99092D02*
D03*
X99249D02*
D03*
Y78796D02*
D03*
X99092D02*
D03*
X98777D02*
D03*
X98620D02*
D03*
X98462D02*
D03*
X98305D02*
D03*
X98147D02*
D03*
X97990D02*
D03*
X97517D02*
D03*
D17*
X85085Y96063D02*
D03*
Y95313D02*
D03*
D18*
X85885Y95683D02*
D03*
D19*
X95401Y90143D02*
D03*
X94968D02*
D03*
D20*
X98817Y92693D02*
D03*
X100333D02*
D03*
X81923Y86119D02*
D03*
X83439D02*
D03*
X88939Y102745D02*
D03*
X87423D02*
D03*
X84789Y98605D02*
D03*
X83273D02*
D03*
X101165Y81683D02*
D03*
X102681D02*
D03*
D21*
X92791Y93523D02*
D03*
X92219Y99693D02*
D03*
D22*
X81870Y85079D02*
D03*
X83590D02*
D03*
D23*
X97291Y92523D02*
D03*
Y94523D02*
D03*
X87719Y100693D02*
D03*
Y98693D02*
D03*
D24*
X98487Y83699D02*
D03*
X98094D02*
D03*
X98487Y84693D02*
D03*
X98094D02*
D03*
X98487Y86679D02*
D03*
X98094D02*
D03*
X91641Y72923D02*
D03*
X92035D02*
D03*
X91641Y75323D02*
D03*
X92035D02*
D03*
X91651Y77723D02*
D03*
X92045D02*
D03*
X91641Y80123D02*
D03*
X92035D02*
D03*
X91631Y82523D02*
D03*
X92025D02*
D03*
X90301Y83323D02*
D03*
X90695D02*
D03*
X90311Y84533D02*
D03*
X90705D02*
D03*
X90311Y85323D02*
D03*
X90705D02*
D03*
X87150Y76618D02*
D03*
X87544D02*
D03*
X87150Y74618D02*
D03*
X87544D02*
D03*
X87150Y75618D02*
D03*
X87544D02*
D03*
X87150Y73618D02*
D03*
X87544D02*
D03*
X87150Y77618D02*
D03*
X87544D02*
D03*
X101565Y84632D02*
D03*
X101171D02*
D03*
X98895Y83129D02*
D03*
X99289D02*
D03*
X101171Y85638D02*
D03*
X101565D02*
D03*
X101171Y86718D02*
D03*
X101565D02*
D03*
X87151Y78618D02*
D03*
X87545D02*
D03*
X87151Y79618D02*
D03*
X87545D02*
D03*
X87151Y80618D02*
D03*
X87545D02*
D03*
X95665Y70648D02*
D03*
X95272D02*
D03*
X102781Y83713D02*
D03*
X103175D02*
D03*
D25*
X85745Y98551D02*
D03*
Y101070D02*
D03*
D26*
X99666Y101148D02*
D03*
D27*
X101286Y100728D02*
D03*
Y101568D02*
D03*
D28*
X85085Y92683D02*
D03*
X87605D02*
D03*
Y94183D02*
D03*
X85085D02*
D03*
D29*
X86725Y73618D02*
D03*
X86095D02*
D03*
X86725Y74618D02*
D03*
X86095D02*
D03*
X86725Y75618D02*
D03*
X86095D02*
D03*
X86725Y76618D02*
D03*
X86095D02*
D03*
X86725Y77618D02*
D03*
X86095D02*
D03*
Y78618D02*
D03*
Y79618D02*
D03*
X86725D02*
D03*
X86095Y80618D02*
D03*
X86725D02*
D03*
X99244Y84138D02*
D03*
X98614D02*
D03*
X99244Y85133D02*
D03*
X98614D02*
D03*
X100324Y83123D02*
D03*
X99694D02*
D03*
X99244Y86207D02*
D03*
X98614D02*
D03*
D30*
X86725Y78618D02*
D03*
D31*
X99859Y84392D02*
D03*
Y84136D02*
D03*
X100646Y84648D02*
D03*
Y84392D02*
D03*
Y84136D02*
D03*
X99859Y84648D02*
D03*
Y85389D02*
D03*
Y85133D02*
D03*
X100646Y85645D02*
D03*
Y85389D02*
D03*
Y85133D02*
D03*
X99859Y85645D02*
D03*
X99854Y86462D02*
D03*
Y86206D02*
D03*
X100642Y86718D02*
D03*
Y86462D02*
D03*
Y86206D02*
D03*
X99854Y86718D02*
D03*
X101535Y72813D02*
D03*
X102322Y72301D02*
D03*
Y72557D02*
D03*
Y72813D02*
D03*
X101535Y72301D02*
D03*
Y72557D02*
D03*
D32*
X98383Y77625D02*
D03*
D33*
X99555Y78491D02*
D03*
X97212D02*
D03*
Y78176D02*
D03*
Y78018D02*
D03*
Y77861D02*
D03*
Y77703D02*
D03*
Y77546D02*
D03*
Y77388D02*
D03*
Y77231D02*
D03*
Y77073D02*
D03*
Y76916D02*
D03*
Y76758D02*
D03*
X99555D02*
D03*
Y76916D02*
D03*
Y77073D02*
D03*
Y77231D02*
D03*
Y77388D02*
D03*
Y77546D02*
D03*
Y77703D02*
D03*
Y77861D02*
D03*
Y78018D02*
D03*
Y78176D02*
D03*
Y78333D02*
D03*
X97212D02*
D03*
D36*
X118185Y53223D02*
X118176Y53319D01*
X118148Y53411D01*
X118102Y53495D01*
X118041Y53570D01*
X117967Y53631D01*
X117882Y53676D01*
X117791Y53704D01*
X117695Y53713D01*
X106685D02*
X106587Y53704D01*
X106494Y53675D01*
X106407Y53629D01*
X106331Y53567D01*
X106269Y53491D01*
X106223Y53404D01*
X106195Y53311D01*
X106185Y53213D01*
X117685Y54213D02*
X117782Y54223D01*
X117876Y54251D01*
X117963Y54297D01*
X118039Y54360D01*
X118101Y54435D01*
X118147Y54522D01*
X118175Y54616D01*
X118185Y54713D01*
X106185D02*
X106195Y54616D01*
X106223Y54522D01*
X106269Y54435D01*
X106331Y54360D01*
X106407Y54297D01*
X106494Y54251D01*
X106587Y54223D01*
X106685Y54213D01*
X118185Y60473D02*
X118175Y60571D01*
X118146Y60665D01*
X118099Y60751D01*
X118035Y60826D01*
X117958Y60886D01*
X117871Y60931D01*
X117776Y60956D01*
X117678Y60963D01*
X117685Y51463D02*
X117782Y51473D01*
X117876Y51501D01*
X117963Y51547D01*
X118039Y51610D01*
X118101Y51685D01*
X118147Y51772D01*
X118175Y51866D01*
X118185Y51963D01*
X118185Y50472D02*
X118174Y50568D01*
X118144Y50661D01*
X118098Y50746D01*
X118035Y50820D01*
X117960Y50881D01*
X117874Y50926D01*
X117781Y50954D01*
X117685Y50963D01*
Y48963D02*
X117782Y48973D01*
X117876Y49001D01*
X117963Y49047D01*
X118039Y49110D01*
X118101Y49185D01*
X118147Y49272D01*
X118175Y49366D01*
X118185Y49463D01*
X105185Y51463D02*
X105282Y51473D01*
X105376Y51501D01*
X105463Y51547D01*
X105539Y51610D01*
X105601Y51685D01*
X105647Y51772D01*
X105675Y51866D01*
X105685Y51963D01*
X106185Y51953D02*
X106195Y51856D01*
X106223Y51764D01*
X106269Y51678D01*
X106332Y51604D01*
X106407Y51543D01*
X106493Y51498D01*
X106587Y51471D01*
X106684Y51463D01*
X105685Y53223D02*
X105676Y53319D01*
X105648Y53411D01*
X105602Y53495D01*
X105541Y53570D01*
X105467Y53631D01*
X105382Y53676D01*
X105291Y53704D01*
X105195Y53713D01*
X75185Y49463D02*
X75194Y49367D01*
X75222Y49274D01*
X75267Y49188D01*
X75328Y49113D01*
X75403Y49050D01*
X75488Y49004D01*
X75580Y48974D01*
X75676Y48963D01*
X105194Y54213D02*
X105290Y54224D01*
X105382Y54254D01*
X105467Y54300D01*
X105542Y54363D01*
X105603Y54438D01*
X105648Y54524D01*
X105676Y54617D01*
X105685Y54713D01*
X75685Y50963D02*
X75587Y50954D01*
X75494Y50925D01*
X75407Y50879D01*
X75331Y50817D01*
X75269Y50741D01*
X75223Y50654D01*
X75195Y50561D01*
X75185Y50463D01*
X105685Y57963D02*
X105675Y58061D01*
X105647Y58154D01*
X105601Y58241D01*
X105539Y58317D01*
X105463Y58379D01*
X105376Y58425D01*
X105282Y58454D01*
X105185Y58463D01*
Y58963D02*
X105282Y58973D01*
X105376Y59001D01*
X105463Y59047D01*
X105539Y59110D01*
X105601Y59185D01*
X105647Y59272D01*
X105675Y59366D01*
X105685Y59463D01*
X106685Y60963D02*
X106587Y60954D01*
X106494Y60925D01*
X106407Y60879D01*
X106331Y60817D01*
X106269Y60741D01*
X106223Y60654D01*
X106195Y60561D01*
X106185Y60463D01*
X105685D02*
X105675Y60561D01*
X105647Y60654D01*
X105601Y60741D01*
X105539Y60817D01*
X105463Y60879D01*
X105376Y60925D01*
X105282Y60954D01*
X105185Y60963D01*
X75685D02*
X75587Y60954D01*
X75494Y60925D01*
X75407Y60879D01*
X75331Y60817D01*
X75269Y60741D01*
X75223Y60654D01*
X75195Y60561D01*
X75185Y60463D01*
Y59463D02*
X75195Y59366D01*
X75223Y59272D01*
X75269Y59185D01*
X75331Y59110D01*
X75407Y59047D01*
X75494Y59001D01*
X75587Y58973D01*
X75685Y58963D01*
Y58463D02*
X75587Y58454D01*
X75494Y58425D01*
X75407Y58379D01*
X75331Y58317D01*
X75269Y58241D01*
X75223Y58154D01*
X75195Y58061D01*
X75185Y57963D01*
Y55713D02*
X75195Y55616D01*
X75223Y55522D01*
X75269Y55435D01*
X75331Y55360D01*
X75407Y55297D01*
X75494Y55251D01*
X75587Y55223D01*
X75685Y55213D01*
Y54713D02*
X75587Y54704D01*
X75494Y54675D01*
X75407Y54629D01*
X75331Y54567D01*
X75269Y54491D01*
X75223Y54404D01*
X75195Y54311D01*
X75185Y54213D01*
Y51963D02*
X75194Y51867D01*
X75222Y51774D01*
X75267Y51688D01*
X75328Y51613D01*
X75403Y51550D01*
X75488Y51504D01*
X75580Y51474D01*
X75676Y51463D01*
X84685Y58463D02*
X84587Y58454D01*
X84494Y58425D01*
X84407Y58379D01*
X84331Y58317D01*
X84269Y58241D01*
X84223Y58154D01*
X84195Y58061D01*
X84185Y57963D01*
X84685Y53713D02*
X84587Y53704D01*
X84494Y53675D01*
X84407Y53629D01*
X84331Y53567D01*
X84269Y53491D01*
X84223Y53404D01*
X84195Y53311D01*
X84185Y53213D01*
X102165Y53713D02*
X102068Y53703D01*
X101975Y53674D01*
X101890Y53627D01*
X101817Y53564D01*
X101757Y53487D01*
X101715Y53399D01*
X101690Y53305D01*
X101686Y53208D01*
X101685Y51973D02*
X101695Y51875D01*
X101723Y51780D01*
X101769Y51693D01*
X101831Y51616D01*
X101907Y51552D01*
X101994Y51505D01*
X102088Y51475D01*
X102186Y51463D01*
X100695Y51463D02*
X100792Y51473D01*
X100884Y51501D01*
X100970Y51548D01*
X101044Y51610D01*
X101105Y51685D01*
X101150Y51772D01*
X101177Y51865D01*
X101185Y51962D01*
X101185Y53223D02*
X101176Y53319D01*
X101148Y53411D01*
X101102Y53495D01*
X101041Y53570D01*
X100967Y53631D01*
X100882Y53676D01*
X100791Y53704D01*
X100695Y53713D01*
X83195Y51463D02*
X83291Y51473D01*
X83382Y51500D01*
X83467Y51546D01*
X83541Y51607D01*
X83602Y51681D01*
X83648Y51766D01*
X83676Y51858D01*
X83685Y51953D01*
X84185D02*
X84194Y51858D01*
X84222Y51766D01*
X84268Y51681D01*
X84328Y51607D01*
X84403Y51546D01*
X84487Y51500D01*
X84579Y51473D01*
X84675Y51463D01*
X84185Y54703D02*
X84194Y54608D01*
X84222Y54516D01*
X84268Y54431D01*
X84328Y54357D01*
X84403Y54296D01*
X84487Y54250D01*
X84579Y54223D01*
X84675Y54213D01*
X83685Y54223D02*
X83675Y54321D01*
X83646Y54415D01*
X83599Y54501D01*
X83535Y54576D01*
X83458Y54636D01*
X83371Y54681D01*
X83276Y54706D01*
X83178Y54713D01*
X83205Y55213D02*
X83299Y55222D01*
X83389Y55250D01*
X83472Y55294D01*
X83544Y55354D01*
X83604Y55426D01*
X83648Y55509D01*
X83676Y55599D01*
X83685Y55693D01*
Y57973D02*
X83676Y58069D01*
X83648Y58161D01*
X83602Y58245D01*
X83541Y58320D01*
X83467Y58381D01*
X83382Y58426D01*
X83291Y58454D01*
X83195Y58463D01*
X112185Y50963D02*
X112087Y50954D01*
X111994Y50925D01*
X111907Y50879D01*
X111831Y50817D01*
X111769Y50741D01*
X111723Y50654D01*
X111695Y50561D01*
X111685Y50463D01*
Y49453D02*
X111695Y49356D01*
X111723Y49264D01*
X111769Y49178D01*
X111832Y49104D01*
X111907Y49043D01*
X111993Y48998D01*
X112087Y48971D01*
X112184Y48963D01*
X110697Y48963D02*
X110793Y48971D01*
X110887Y48999D01*
X110973Y49045D01*
X111047Y49107D01*
X111108Y49183D01*
X111152Y49269D01*
X111178Y49363D01*
X111185Y49460D01*
X111185Y50463D02*
X111175Y50561D01*
X111147Y50654D01*
X111101Y50741D01*
X111039Y50817D01*
X110963Y50879D01*
X110876Y50925D01*
X110782Y50954D01*
X110685Y50963D01*
X93435Y49463D02*
X93444Y49367D01*
X93472Y49274D01*
X93517Y49188D01*
X93578Y49113D01*
X93653Y49050D01*
X93738Y49004D01*
X93830Y48974D01*
X93926Y48963D01*
X93935Y50963D02*
X93837Y50954D01*
X93744Y50925D01*
X93657Y50879D01*
X93581Y50817D01*
X93519Y50741D01*
X93473Y50654D01*
X93445Y50561D01*
X93435Y50463D01*
X92447Y48963D02*
X92543Y48971D01*
X92637Y48999D01*
X92723Y49045D01*
X92797Y49107D01*
X92858Y49183D01*
X92902Y49269D01*
X92928Y49363D01*
X92935Y49460D01*
X92935Y50463D02*
X92925Y50561D01*
X92897Y50654D01*
X92851Y50741D01*
X92788Y50817D01*
X92713Y50879D01*
X92626Y50925D01*
X92532Y50954D01*
X92435Y50963D01*
X93935Y48963D02*
X110685D01*
X75685D02*
X92435D01*
X75685Y50963D02*
X92435D01*
X93935D02*
X110685D01*
X112185Y48963D02*
X117685D01*
X112185Y50963D02*
X117685D01*
X75685Y60963D02*
X105185D01*
X75685Y51463D02*
X83185D01*
X75685Y54713D02*
X83185D01*
X75685Y55213D02*
X83185D01*
X75685Y58463D02*
X83185D01*
X75685Y58963D02*
X105185D01*
X84685Y58463D02*
X105185D01*
X84685Y53713D02*
X100685D01*
X84685Y51463D02*
X100685D01*
X102185D02*
X105185D01*
X102185Y53713D02*
X105185D01*
X106685Y51463D02*
X117685D01*
X106685Y60963D02*
X117685D01*
X84685Y54213D02*
X105185D01*
X106685D02*
X117685D01*
X106685Y53713D02*
X117685D01*
X92935Y49463D02*
Y50463D01*
X93435Y49463D02*
Y50463D01*
X111185Y49463D02*
Y50463D01*
X111685Y49463D02*
Y50463D01*
X75185Y51963D02*
Y54213D01*
X83685Y51963D02*
Y54213D01*
X75185Y55713D02*
Y57963D01*
X83685Y55713D02*
Y57963D01*
X75185Y59463D02*
Y60463D01*
X105685Y59463D02*
Y60463D01*
Y54713D02*
Y57963D01*
X84185Y54713D02*
Y57963D01*
X101185Y51963D02*
Y53213D01*
X84185Y51963D02*
Y53213D01*
X101685Y51963D02*
Y53213D01*
X105685Y51963D02*
Y53213D01*
X118185Y49463D02*
Y50463D01*
Y51963D02*
Y52963D01*
X75185Y49463D02*
Y50463D01*
X106185Y54713D02*
Y60463D01*
X118185Y54713D02*
Y60463D01*
X106185Y51963D02*
Y53213D01*
D42*
X64949Y108984D02*
X64906Y109070D01*
X64778Y109113D01*
X64692D01*
X64563Y109070D01*
X64478Y108942D01*
X64435Y108727D01*
Y108513D01*
X64478Y108342D01*
X64563Y108256D01*
X64692Y108213D01*
X64735D01*
X64863Y108256D01*
X64949Y108342D01*
X64992Y108470D01*
Y108513D01*
X64949Y108642D01*
X64863Y108727D01*
X64735Y108770D01*
X64692D01*
X64563Y108727D01*
X64478Y108642D01*
X64435Y108513D01*
X65232Y108299D02*
X65189Y108256D01*
X65232Y108213D01*
X65275Y108256D01*
X65232Y108299D01*
X65729Y109113D02*
X65600Y109070D01*
X65515Y108942D01*
X65472Y108727D01*
Y108599D01*
X65515Y108385D01*
X65600Y108256D01*
X65729Y108213D01*
X65815D01*
X65943Y108256D01*
X66029Y108385D01*
X66072Y108599D01*
Y108727D01*
X66029Y108942D01*
X65943Y109070D01*
X65815Y109113D01*
X65729D01*
X64863Y89113D02*
X64435Y88513D01*
X65078D01*
X64863Y89113D02*
Y88213D01*
X65279Y88299D02*
X65236Y88256D01*
X65279Y88213D01*
X65322Y88256D01*
X65279Y88299D01*
X65776Y89113D02*
X65648Y89070D01*
X65562Y88942D01*
X65519Y88727D01*
Y88599D01*
X65562Y88385D01*
X65648Y88256D01*
X65776Y88213D01*
X65862D01*
X65990Y88256D01*
X66076Y88385D01*
X66119Y88599D01*
Y88727D01*
X66076Y88942D01*
X65990Y89070D01*
X65862Y89113D01*
X65776D01*
X64478Y68899D02*
Y68942D01*
X64521Y69027D01*
X64563Y69070D01*
X64649Y69113D01*
X64821D01*
X64906Y69070D01*
X64949Y69027D01*
X64992Y68942D01*
Y68856D01*
X64949Y68770D01*
X64863Y68642D01*
X64435Y68213D01*
X65035D01*
X65279Y68299D02*
X65236Y68256D01*
X65279Y68213D01*
X65322Y68256D01*
X65279Y68299D01*
X65776Y69113D02*
X65648Y69070D01*
X65562Y68942D01*
X65519Y68727D01*
Y68599D01*
X65562Y68385D01*
X65648Y68256D01*
X65776Y68213D01*
X65862D01*
X65990Y68256D01*
X66076Y68385D01*
X66119Y68599D01*
Y68727D01*
X66076Y68942D01*
X65990Y69070D01*
X65862Y69113D01*
X65776D01*
X65817Y49113D02*
X65688Y49070D01*
X65603Y48942D01*
X65560Y48727D01*
Y48599D01*
X65603Y48385D01*
X65688Y48256D01*
X65817Y48213D01*
X65903D01*
X66031Y48256D01*
X66117Y48385D01*
X66160Y48599D01*
Y48727D01*
X66117Y48942D01*
X66031Y49070D01*
X65903Y49113D01*
X65817D01*
X64685Y58942D02*
X64771Y58984D01*
X64899Y59113D01*
Y58213D01*
X65388Y58299D02*
X65345Y58256D01*
X65388Y58213D01*
X65431Y58256D01*
X65388Y58299D01*
X65885Y59113D02*
X65756Y59070D01*
X65670Y58942D01*
X65628Y58727D01*
Y58599D01*
X65670Y58385D01*
X65756Y58256D01*
X65885Y58213D01*
X65970D01*
X66099Y58256D01*
X66185Y58385D01*
X66227Y58599D01*
Y58727D01*
X66185Y58942D01*
X66099Y59070D01*
X65970Y59113D01*
X65885D01*
X64521Y79113D02*
X64992D01*
X64735Y78770D01*
X64863D01*
X64949Y78727D01*
X64992Y78684D01*
X65035Y78556D01*
Y78470D01*
X64992Y78342D01*
X64906Y78256D01*
X64778Y78213D01*
X64649D01*
X64521Y78256D01*
X64478Y78299D01*
X64435Y78385D01*
X65279Y78299D02*
X65236Y78256D01*
X65279Y78213D01*
X65322Y78256D01*
X65279Y78299D01*
X65776Y79113D02*
X65648Y79070D01*
X65562Y78942D01*
X65519Y78727D01*
Y78599D01*
X65562Y78385D01*
X65648Y78256D01*
X65776Y78213D01*
X65862D01*
X65990Y78256D01*
X66076Y78385D01*
X66119Y78599D01*
Y78727D01*
X66076Y78942D01*
X65990Y79070D01*
X65862Y79113D01*
X65776D01*
X64949Y99113D02*
X64521D01*
X64478Y98727D01*
X64521Y98770D01*
X64649Y98813D01*
X64778D01*
X64906Y98770D01*
X64992Y98684D01*
X65035Y98556D01*
Y98470D01*
X64992Y98342D01*
X64906Y98256D01*
X64778Y98213D01*
X64649D01*
X64521Y98256D01*
X64478Y98299D01*
X64435Y98385D01*
X65279Y98299D02*
X65236Y98256D01*
X65279Y98213D01*
X65322Y98256D01*
X65279Y98299D01*
X65776Y99113D02*
X65648Y99070D01*
X65562Y98942D01*
X65519Y98727D01*
Y98599D01*
X65562Y98385D01*
X65648Y98256D01*
X65776Y98213D01*
X65862D01*
X65990Y98256D01*
X66076Y98385D01*
X66119Y98599D01*
Y98727D01*
X66076Y98942D01*
X65990Y99070D01*
X65862Y99113D01*
X65776D01*
X142085Y42613D02*
X141185Y43042D01*
X142085Y43213D02*
Y42613D01*
X141271Y42369D02*
X141228Y42412D01*
X141185Y42369D01*
X141228Y42326D01*
X141271Y42369D01*
X142085Y41872D02*
X142042Y42001D01*
X141913Y42086D01*
X141699Y42129D01*
X141571D01*
X141356Y42086D01*
X141228Y42001D01*
X141185Y41872D01*
Y41786D01*
X141228Y41658D01*
X141356Y41572D01*
X141571Y41529D01*
X141699D01*
X141913Y41572D01*
X142042Y41658D01*
X142085Y41786D01*
Y41872D01*
X122085Y42699D02*
Y43127D01*
X121699Y43170D01*
X121742Y43127D01*
X121785Y42999D01*
Y42870D01*
X121742Y42742D01*
X121656Y42656D01*
X121528Y42613D01*
X121442D01*
X121313Y42656D01*
X121228Y42742D01*
X121185Y42870D01*
Y42999D01*
X121228Y43127D01*
X121271Y43170D01*
X121356Y43213D01*
X121271Y42369D02*
X121228Y42412D01*
X121185Y42369D01*
X121228Y42326D01*
X121271Y42369D01*
X122085Y41872D02*
X122042Y42001D01*
X121913Y42086D01*
X121699Y42129D01*
X121571D01*
X121356Y42086D01*
X121228Y42001D01*
X121185Y41872D01*
Y41786D01*
X121228Y41658D01*
X121356Y41572D01*
X121571Y41529D01*
X121699D01*
X121913Y41572D01*
X122042Y41658D01*
X122085Y41786D01*
Y41872D01*
X102085Y43127D02*
Y42656D01*
X101742Y42913D01*
Y42785D01*
X101699Y42699D01*
X101656Y42656D01*
X101528Y42613D01*
X101442D01*
X101313Y42656D01*
X101228Y42742D01*
X101185Y42870D01*
Y42999D01*
X101228Y43127D01*
X101271Y43170D01*
X101356Y43213D01*
X101271Y42369D02*
X101228Y42412D01*
X101185Y42369D01*
X101228Y42326D01*
X101271Y42369D01*
X102085Y41872D02*
X102042Y42001D01*
X101913Y42086D01*
X101699Y42129D01*
X101571D01*
X101356Y42086D01*
X101228Y42001D01*
X101185Y41872D01*
Y41786D01*
X101228Y41658D01*
X101356Y41572D01*
X101571Y41529D01*
X101699D01*
X101913Y41572D01*
X102042Y41658D01*
X102085Y41786D01*
Y41872D01*
X81913Y43213D02*
X81956Y43127D01*
X82085Y42999D01*
X81185D01*
X81271Y42510D02*
X81228Y42553D01*
X81185Y42510D01*
X81228Y42468D01*
X81271Y42510D01*
X82085Y42013D02*
X82042Y42142D01*
X81913Y42228D01*
X81699Y42270D01*
X81571D01*
X81356Y42228D01*
X81228Y42142D01*
X81185Y42013D01*
Y41928D01*
X81228Y41799D01*
X81356Y41713D01*
X81571Y41671D01*
X81699D01*
X81913Y41713D01*
X82042Y41799D01*
X82085Y41928D01*
Y42013D01*
X72085Y42956D02*
X72042Y43085D01*
X71913Y43170D01*
X71699Y43213D01*
X71571D01*
X71356Y43170D01*
X71228Y43085D01*
X71185Y42956D01*
Y42870D01*
X71228Y42742D01*
X71356Y42656D01*
X71571Y42613D01*
X71699D01*
X71913Y42656D01*
X72042Y42742D01*
X72085Y42870D01*
Y42956D01*
X91871Y43170D02*
X91913D01*
X91999Y43127D01*
X92042Y43085D01*
X92085Y42999D01*
Y42828D01*
X92042Y42742D01*
X91999Y42699D01*
X91913Y42656D01*
X91828D01*
X91742Y42699D01*
X91613Y42785D01*
X91185Y43213D01*
Y42613D01*
X91271Y42369D02*
X91228Y42412D01*
X91185Y42369D01*
X91228Y42326D01*
X91271Y42369D01*
X92085Y41872D02*
X92042Y42001D01*
X91913Y42086D01*
X91699Y42129D01*
X91571D01*
X91356Y42086D01*
X91228Y42001D01*
X91185Y41872D01*
Y41786D01*
X91228Y41658D01*
X91356Y41572D01*
X91571Y41529D01*
X91699D01*
X91913Y41572D01*
X92042Y41658D01*
X92085Y41786D01*
Y41872D01*
X112085Y42785D02*
X111485Y43213D01*
Y42570D01*
X112085Y42785D02*
X111185D01*
X111271Y42369D02*
X111228Y42412D01*
X111185Y42369D01*
X111228Y42326D01*
X111271Y42369D01*
X112085Y41872D02*
X112042Y42001D01*
X111913Y42086D01*
X111699Y42129D01*
X111571D01*
X111356Y42086D01*
X111228Y42001D01*
X111185Y41872D01*
Y41786D01*
X111228Y41658D01*
X111356Y41572D01*
X111571Y41529D01*
X111699D01*
X111913Y41572D01*
X112042Y41658D01*
X112085Y41786D01*
Y41872D01*
X131956Y42699D02*
X132042Y42742D01*
X132085Y42870D01*
Y42956D01*
X132042Y43085D01*
X131913Y43170D01*
X131699Y43213D01*
X131485D01*
X131313Y43170D01*
X131228Y43085D01*
X131185Y42956D01*
Y42913D01*
X131228Y42785D01*
X131313Y42699D01*
X131442Y42656D01*
X131485D01*
X131613Y42699D01*
X131699Y42785D01*
X131742Y42913D01*
Y42956D01*
X131699Y43085D01*
X131613Y43170D01*
X131485Y43213D01*
X131271Y42416D02*
X131228Y42459D01*
X131185Y42416D01*
X131228Y42373D01*
X131271Y42416D01*
X132085Y41919D02*
X132042Y42048D01*
X131913Y42133D01*
X131699Y42176D01*
X131571D01*
X131356Y42133D01*
X131228Y42048D01*
X131185Y41919D01*
Y41833D01*
X131228Y41705D01*
X131356Y41619D01*
X131571Y41576D01*
X131699D01*
X131913Y41619D01*
X132042Y41705D01*
X132085Y41833D01*
Y41919D01*
X69810Y46113D02*
X70410Y45213D01*
Y46113D02*
X69810Y45213D01*
X69085Y47338D02*
X68656Y46995D01*
X68185D01*
X69085Y46653D02*
X68656Y46995D01*
X108935Y52817D02*
X109021Y52859D01*
X109149Y52988D01*
Y52088D01*
X110109Y52859D02*
X110066Y52945D01*
X109938Y52988D01*
X109852D01*
X109723Y52945D01*
X109638Y52817D01*
X109595Y52602D01*
Y52388D01*
X109638Y52217D01*
X109723Y52131D01*
X109852Y52088D01*
X109895D01*
X110023Y52131D01*
X110109Y52217D01*
X110152Y52345D01*
Y52388D01*
X110109Y52517D01*
X110023Y52602D01*
X109895Y52645D01*
X109852D01*
X109723Y52602D01*
X109638Y52517D01*
X109595Y52388D01*
X110349Y52474D02*
X111120D01*
X112071Y52088D02*
X111729Y52988D01*
X111386Y52088D01*
X111514Y52388D02*
X111943D01*
X112281Y52688D02*
Y51788D01*
Y52559D02*
X112367Y52645D01*
X112453Y52688D01*
X112581D01*
X112667Y52645D01*
X112753Y52559D01*
X112796Y52431D01*
Y52345D01*
X112753Y52217D01*
X112667Y52131D01*
X112581Y52088D01*
X112453D01*
X112367Y52131D01*
X112281Y52217D01*
X112988Y52688D02*
Y52088D01*
Y52431D02*
X113031Y52559D01*
X113117Y52645D01*
X113203Y52688D01*
X113331D01*
X113413Y52474D02*
X114184D01*
X114492Y52774D02*
Y52817D01*
X114535Y52902D01*
X114578Y52945D01*
X114664Y52988D01*
X114835D01*
X114921Y52945D01*
X114964Y52902D01*
X115007Y52817D01*
Y52731D01*
X114964Y52645D01*
X114878Y52517D01*
X114449Y52088D01*
X115049D01*
X115508Y52988D02*
X115379Y52945D01*
X115294Y52817D01*
X115251Y52602D01*
Y52474D01*
X115294Y52260D01*
X115379Y52131D01*
X115508Y52088D01*
X115594D01*
X115722Y52131D01*
X115808Y52260D01*
X115851Y52474D01*
Y52602D01*
X115808Y52817D01*
X115722Y52945D01*
X115594Y52988D01*
X115508D01*
X116052Y52817D02*
X116138Y52859D01*
X116266Y52988D01*
Y52088D01*
X117140Y52988D02*
X116712Y52388D01*
X117355D01*
X117140Y52988D02*
Y52088D01*
X109885Y56763D02*
Y55863D01*
X110485Y56763D02*
Y55863D01*
X109885Y56334D02*
X110485D01*
X111290Y56763D02*
X110733D01*
Y55863D01*
X111290D01*
X110733Y56334D02*
X111076D01*
X111440Y56763D02*
Y55863D01*
Y56763D02*
X111826D01*
X111955Y56720D01*
X111997Y56677D01*
X112040Y56592D01*
Y56506D01*
X111997Y56420D01*
X111955Y56377D01*
X111826Y56334D01*
X111440D01*
X111740D02*
X112040Y55863D01*
X112799Y56763D02*
X112242D01*
Y55863D01*
X112799D01*
X112242Y56334D02*
X112584D01*
X109885Y58363D02*
Y57463D01*
X110399D01*
X110755Y58363D02*
X110669Y58320D01*
X110583Y58234D01*
X110541Y58149D01*
X110498Y58020D01*
Y57806D01*
X110541Y57677D01*
X110583Y57592D01*
X110669Y57506D01*
X110755Y57463D01*
X110926D01*
X111012Y57506D01*
X111098Y57592D01*
X111140Y57677D01*
X111183Y57806D01*
Y58020D01*
X111140Y58149D01*
X111098Y58234D01*
X111012Y58320D01*
X110926Y58363D01*
X110755D01*
X112036Y58149D02*
X111993Y58234D01*
X111907Y58320D01*
X111822Y58363D01*
X111650D01*
X111565Y58320D01*
X111479Y58234D01*
X111436Y58149D01*
X111393Y58020D01*
Y57806D01*
X111436Y57677D01*
X111479Y57592D01*
X111565Y57506D01*
X111650Y57463D01*
X111822D01*
X111907Y57506D01*
X111993Y57592D01*
X112036Y57677D01*
Y57806D01*
X111822D02*
X112036D01*
X112499Y58363D02*
X112413Y58320D01*
X112327Y58234D01*
X112284Y58149D01*
X112242Y58020D01*
Y57806D01*
X112284Y57677D01*
X112327Y57592D01*
X112413Y57506D01*
X112499Y57463D01*
X112670D01*
X112756Y57506D01*
X112841Y57592D01*
X112884Y57677D01*
X112927Y57806D01*
Y58020D01*
X112884Y58149D01*
X112841Y58234D01*
X112756Y58320D01*
X112670Y58363D01*
X112499D01*
X109885Y59292D02*
X110271D01*
X110399Y59334D01*
X110442Y59377D01*
X110485Y59463D01*
Y59592D01*
X110442Y59677D01*
X110399Y59720D01*
X110271Y59763D01*
X109885D01*
Y58863D01*
X110686Y59763D02*
Y58863D01*
X111200D01*
X111985D02*
X111642Y59763D01*
X111299Y58863D01*
X111427Y59163D02*
X111856D01*
X112837Y59549D02*
X112794Y59634D01*
X112709Y59720D01*
X112623Y59763D01*
X112452D01*
X112366Y59720D01*
X112280Y59634D01*
X112237Y59549D01*
X112194Y59420D01*
Y59206D01*
X112237Y59077D01*
X112280Y58992D01*
X112366Y58906D01*
X112452Y58863D01*
X112623D01*
X112709Y58906D01*
X112794Y58992D01*
X112837Y59077D01*
X113647Y59763D02*
X113090D01*
Y58863D01*
X113647D01*
X113090Y59334D02*
X113433D01*
X104067Y52988D02*
X103938Y52945D01*
X103853Y52817D01*
X103810Y52602D01*
Y52474D01*
X103853Y52260D01*
X103938Y52131D01*
X104067Y52088D01*
X104153D01*
X104281Y52131D01*
X104367Y52260D01*
X104410Y52474D01*
Y52602D01*
X104367Y52817D01*
X104281Y52945D01*
X104153Y52988D01*
X104067D01*
X104611Y52817D02*
X104697Y52859D01*
X104825Y52988D01*
Y52088D01*
X96785Y50363D02*
Y49463D01*
X96485Y50363D02*
X97085D01*
X97406Y50063D02*
X97320Y50020D01*
X97235Y49934D01*
X97192Y49806D01*
Y49720D01*
X97235Y49592D01*
X97320Y49506D01*
X97406Y49463D01*
X97535D01*
X97620Y49506D01*
X97706Y49592D01*
X97749Y49720D01*
Y49806D01*
X97706Y49934D01*
X97620Y50020D01*
X97535Y50063D01*
X97406D01*
X97946D02*
Y49163D01*
Y49934D02*
X98032Y50020D01*
X98117Y50063D01*
X98246D01*
X98332Y50020D01*
X98417Y49934D01*
X98460Y49806D01*
Y49720D01*
X98417Y49592D01*
X98332Y49506D01*
X98246Y49463D01*
X98117D01*
X98032Y49506D01*
X97946Y49592D01*
X99360Y49892D02*
X99746D01*
X99874Y49934D01*
X99917Y49977D01*
X99960Y50063D01*
Y50192D01*
X99917Y50277D01*
X99874Y50320D01*
X99746Y50363D01*
X99360D01*
Y49463D01*
X100675Y50063D02*
Y49463D01*
Y49934D02*
X100590Y50020D01*
X100504Y50063D01*
X100376D01*
X100290Y50020D01*
X100204Y49934D01*
X100161Y49806D01*
Y49720D01*
X100204Y49592D01*
X100290Y49506D01*
X100376Y49463D01*
X100504D01*
X100590Y49506D01*
X100675Y49592D01*
X101430Y50363D02*
Y49463D01*
Y49934D02*
X101344Y50020D01*
X101258Y50063D01*
X101130D01*
X101044Y50020D01*
X100958Y49934D01*
X100915Y49806D01*
Y49720D01*
X100958Y49592D01*
X101044Y49506D01*
X101130Y49463D01*
X101258D01*
X101344Y49506D01*
X101430Y49592D01*
X102377Y50363D02*
Y49463D01*
Y50363D02*
X102719Y49463D01*
X103062Y50363D02*
X102719Y49463D01*
X103062Y50363D02*
Y49463D01*
X103833Y50063D02*
Y49463D01*
Y49934D02*
X103748Y50020D01*
X103662Y50063D01*
X103533D01*
X103448Y50020D01*
X103362Y49934D01*
X103319Y49806D01*
Y49720D01*
X103362Y49592D01*
X103448Y49506D01*
X103533Y49463D01*
X103662D01*
X103748Y49506D01*
X103833Y49592D01*
X104545Y49934D02*
X104502Y50020D01*
X104373Y50063D01*
X104245D01*
X104116Y50020D01*
X104073Y49934D01*
X104116Y49849D01*
X104202Y49806D01*
X104416Y49763D01*
X104502Y49720D01*
X104545Y49635D01*
Y49592D01*
X104502Y49506D01*
X104373Y49463D01*
X104245D01*
X104116Y49506D01*
X104073Y49592D01*
X104862Y50363D02*
Y49635D01*
X104905Y49506D01*
X104990Y49463D01*
X105076D01*
X104733Y50063D02*
X105033D01*
X105205Y49806D02*
X105719D01*
Y49892D01*
X105676Y49977D01*
X105633Y50020D01*
X105547Y50063D01*
X105419D01*
X105333Y50020D01*
X105247Y49934D01*
X105205Y49806D01*
Y49720D01*
X105247Y49592D01*
X105333Y49506D01*
X105419Y49463D01*
X105547D01*
X105633Y49506D01*
X105719Y49592D01*
X105912Y50063D02*
Y49463D01*
Y49806D02*
X105954Y49934D01*
X106040Y50020D01*
X106126Y50063D01*
X106254D01*
X79685Y50363D02*
Y49463D01*
X80473Y50234D02*
X80388Y50320D01*
X80259Y50363D01*
X80088D01*
X79959Y50320D01*
X79873Y50234D01*
Y50149D01*
X79916Y50063D01*
X79959Y50020D01*
X80045Y49977D01*
X80302Y49892D01*
X80388Y49849D01*
X80430Y49806D01*
X80473Y49720D01*
Y49592D01*
X80388Y49506D01*
X80259Y49463D01*
X80088D01*
X79959Y49506D01*
X79873Y49592D01*
X80675Y50363D02*
Y49463D01*
X81189D01*
X81844Y50063D02*
X81802Y49934D01*
X81716Y49849D01*
X81587Y49806D01*
X81545D01*
X81416Y49849D01*
X81330Y49934D01*
X81287Y50063D01*
Y50106D01*
X81330Y50234D01*
X81416Y50320D01*
X81545Y50363D01*
X81587D01*
X81716Y50320D01*
X81802Y50234D01*
X81844Y50063D01*
Y49849D01*
X81802Y49635D01*
X81716Y49506D01*
X81587Y49463D01*
X81502D01*
X81373Y49506D01*
X81330Y49592D01*
X82517Y50363D02*
X82089Y49763D01*
X82731D01*
X82517Y50363D02*
Y49463D01*
X82933Y50149D02*
Y50192D01*
X82976Y50277D01*
X83019Y50320D01*
X83104Y50363D01*
X83276D01*
X83361Y50320D01*
X83404Y50277D01*
X83447Y50192D01*
Y50106D01*
X83404Y50020D01*
X83318Y49892D01*
X82890Y49463D01*
X83490D01*
X83948Y50363D02*
X83820Y50320D01*
X83734Y50192D01*
X83691Y49977D01*
Y49849D01*
X83734Y49635D01*
X83820Y49506D01*
X83948Y49463D01*
X84034D01*
X84163Y49506D01*
X84248Y49635D01*
X84291Y49849D01*
Y49977D01*
X84248Y50192D01*
X84163Y50320D01*
X84034Y50363D01*
X83948D01*
X84578D02*
X85050D01*
X84792Y50020D01*
X84921D01*
X85007Y49977D01*
X85050Y49934D01*
X85092Y49806D01*
Y49720D01*
X85050Y49592D01*
X84964Y49506D01*
X84835Y49463D01*
X84707D01*
X84578Y49506D01*
X84535Y49549D01*
X84492Y49635D01*
X85851Y50363D02*
X85294D01*
Y49463D01*
X85851D01*
X85294Y49934D02*
X85637D01*
X86001Y50363D02*
X86344Y49463D01*
X86686Y50363D02*
X86344Y49463D01*
X87488D02*
X87145Y50363D01*
X86802Y49463D01*
X86931Y49763D02*
X87359D01*
X87698Y50363D02*
Y49463D01*
X88212D01*
X88310Y50192D02*
X88396Y50234D01*
X88524Y50363D01*
Y49463D01*
X89570Y50363D02*
X88970Y49463D01*
Y50363D02*
X89570D01*
X88970Y49463D02*
X89570D01*
X90478Y50363D02*
Y49463D01*
Y50363D02*
X90864D01*
X90993Y50320D01*
X91035Y50277D01*
X91078Y50192D01*
Y50106D01*
X91035Y50020D01*
X90993Y49977D01*
X90864Y49934D01*
X90478D01*
X90778D02*
X91078Y49463D01*
X91280Y49806D02*
X91794D01*
Y49892D01*
X91751Y49977D01*
X91708Y50020D01*
X91622Y50063D01*
X91494D01*
X91408Y50020D01*
X91322Y49934D01*
X91280Y49806D01*
Y49720D01*
X91322Y49592D01*
X91408Y49506D01*
X91494Y49463D01*
X91622D01*
X91708Y49506D01*
X91794Y49592D01*
X91987Y50063D02*
X92244Y49463D01*
X92501Y50063D02*
X92244Y49463D01*
X92646Y50363D02*
Y49463D01*
Y50363D02*
X92946D01*
X93075Y50320D01*
X93161Y50234D01*
X93203Y50149D01*
X93246Y50020D01*
Y49806D01*
X93203Y49677D01*
X93161Y49592D01*
X93075Y49506D01*
X92946Y49463D01*
X92646D01*
X93491Y49549D02*
X93448Y49506D01*
X93491Y49463D01*
X93533Y49506D01*
X93491Y49549D01*
X93731Y49892D02*
X94116D01*
X94245Y49934D01*
X94288Y49977D01*
X94330Y50063D01*
Y50192D01*
X94288Y50277D01*
X94245Y50320D01*
X94116Y50363D01*
X93731D01*
Y49463D01*
X95174Y50149D02*
X95132Y50234D01*
X95046Y50320D01*
X94960Y50363D01*
X94789D01*
X94703Y50320D01*
X94617Y50234D01*
X94575Y50149D01*
X94532Y50020D01*
Y49806D01*
X94575Y49677D01*
X94617Y49592D01*
X94703Y49506D01*
X94789Y49463D01*
X94960D01*
X95046Y49506D01*
X95132Y49592D01*
X95174Y49677D01*
X95427Y50363D02*
Y49463D01*
Y50363D02*
X95813D01*
X95941Y50320D01*
X95984Y50277D01*
X96027Y50192D01*
Y50106D01*
X95984Y50020D01*
X95941Y49977D01*
X95813Y49934D01*
X95427D02*
X95813D01*
X95941Y49892D01*
X95984Y49849D01*
X96027Y49763D01*
Y49635D01*
X95984Y49549D01*
X95941Y49506D01*
X95813Y49463D01*
X95427D01*
X90935Y56863D02*
Y55963D01*
X91723Y56734D02*
X91638Y56820D01*
X91509Y56863D01*
X91338D01*
X91209Y56820D01*
X91123Y56734D01*
Y56649D01*
X91166Y56563D01*
X91209Y56520D01*
X91295Y56477D01*
X91552Y56392D01*
X91638Y56349D01*
X91680Y56306D01*
X91723Y56220D01*
Y56092D01*
X91638Y56006D01*
X91509Y55963D01*
X91338D01*
X91209Y56006D01*
X91123Y56092D01*
X91925Y56863D02*
Y55963D01*
X92439D01*
X93094Y56563D02*
X93052Y56434D01*
X92966Y56349D01*
X92837Y56306D01*
X92795D01*
X92666Y56349D01*
X92580Y56434D01*
X92537Y56563D01*
Y56606D01*
X92580Y56734D01*
X92666Y56820D01*
X92795Y56863D01*
X92837D01*
X92966Y56820D01*
X93052Y56734D01*
X93094Y56563D01*
Y56349D01*
X93052Y56135D01*
X92966Y56006D01*
X92837Y55963D01*
X92752D01*
X92623Y56006D01*
X92580Y56092D01*
X93767Y56863D02*
X93339Y56263D01*
X93981D01*
X93767Y56863D02*
Y55963D01*
X94183Y56649D02*
Y56692D01*
X94226Y56777D01*
X94269Y56820D01*
X94354Y56863D01*
X94526D01*
X94611Y56820D01*
X94654Y56777D01*
X94697Y56692D01*
Y56606D01*
X94654Y56520D01*
X94568Y56392D01*
X94140Y55963D01*
X94740D01*
X95198Y56863D02*
X95070Y56820D01*
X94984Y56692D01*
X94941Y56477D01*
Y56349D01*
X94984Y56135D01*
X95070Y56006D01*
X95198Y55963D01*
X95284D01*
X95413Y56006D01*
X95498Y56135D01*
X95541Y56349D01*
Y56477D01*
X95498Y56692D01*
X95413Y56820D01*
X95284Y56863D01*
X95198D01*
X95828D02*
X96300D01*
X96042Y56520D01*
X96171D01*
X96257Y56477D01*
X96300Y56434D01*
X96342Y56306D01*
Y56220D01*
X96300Y56092D01*
X96214Y56006D01*
X96085Y55963D01*
X95957D01*
X95828Y56006D01*
X95785Y56049D01*
X95742Y56135D01*
X97808Y56863D02*
X97251D01*
Y55963D01*
X97808D01*
X97251Y56434D02*
X97594D01*
X97958Y56563D02*
X98215Y55963D01*
X98472Y56563D02*
X98215Y55963D01*
X99132Y56563D02*
Y55963D01*
Y56434D02*
X99046Y56520D01*
X98960Y56563D01*
X98832D01*
X98746Y56520D01*
X98660Y56434D01*
X98618Y56306D01*
Y56220D01*
X98660Y56092D01*
X98746Y56006D01*
X98832Y55963D01*
X98960D01*
X99046Y56006D01*
X99132Y56092D01*
X99372Y56863D02*
Y55963D01*
X99560Y56563D02*
Y56135D01*
X99603Y56006D01*
X99689Y55963D01*
X99817D01*
X99903Y56006D01*
X100032Y56135D01*
Y56563D02*
Y55963D01*
X100781Y56563D02*
Y55963D01*
Y56434D02*
X100696Y56520D01*
X100610Y56563D01*
X100481D01*
X100396Y56520D01*
X100310Y56434D01*
X100267Y56306D01*
Y56220D01*
X100310Y56092D01*
X100396Y56006D01*
X100481Y55963D01*
X100610D01*
X100696Y56006D01*
X100781Y56092D01*
X101150Y56863D02*
Y56135D01*
X101193Y56006D01*
X101278Y55963D01*
X101364D01*
X101021Y56563D02*
X101321D01*
X101578Y56863D02*
X101621Y56820D01*
X101664Y56863D01*
X101621Y56906D01*
X101578Y56863D01*
X101621Y56563D02*
Y55963D01*
X102037Y56563D02*
X101951Y56520D01*
X101865Y56434D01*
X101823Y56306D01*
Y56220D01*
X101865Y56092D01*
X101951Y56006D01*
X102037Y55963D01*
X102165D01*
X102251Y56006D01*
X102337Y56092D01*
X102380Y56220D01*
Y56306D01*
X102337Y56434D01*
X102251Y56520D01*
X102165Y56563D01*
X102037D01*
X102577D02*
Y55963D01*
Y56392D02*
X102705Y56520D01*
X102791Y56563D01*
X102920D01*
X103005Y56520D01*
X103048Y56392D01*
Y55963D01*
X103991Y56863D02*
Y55963D01*
Y56863D02*
X104376D01*
X104505Y56820D01*
X104548Y56777D01*
X104591Y56692D01*
Y56606D01*
X104548Y56520D01*
X104505Y56477D01*
X104376Y56434D01*
X103991D02*
X104376D01*
X104505Y56392D01*
X104548Y56349D01*
X104591Y56263D01*
Y56135D01*
X104548Y56049D01*
X104505Y56006D01*
X104376Y55963D01*
X103991D01*
X105006Y56563D02*
X104921Y56520D01*
X104835Y56434D01*
X104792Y56306D01*
Y56220D01*
X104835Y56092D01*
X104921Y56006D01*
X105006Y55963D01*
X105135D01*
X105220Y56006D01*
X105306Y56092D01*
X105349Y56220D01*
Y56306D01*
X105306Y56434D01*
X105220Y56520D01*
X105135Y56563D01*
X105006D01*
X106060D02*
Y55963D01*
Y56434D02*
X105975Y56520D01*
X105889Y56563D01*
X105760D01*
X105675Y56520D01*
X105589Y56434D01*
X105546Y56306D01*
Y56220D01*
X105589Y56092D01*
X105675Y56006D01*
X105760Y55963D01*
X105889D01*
X105975Y56006D01*
X106060Y56092D01*
X106300Y56563D02*
Y55963D01*
Y56306D02*
X106343Y56434D01*
X106429Y56520D01*
X106514Y56563D01*
X106643D01*
X107239Y56863D02*
Y55963D01*
Y56434D02*
X107153Y56520D01*
X107067Y56563D01*
X106939D01*
X106853Y56520D01*
X106767Y56434D01*
X106724Y56306D01*
Y56220D01*
X106767Y56092D01*
X106853Y56006D01*
X106939Y55963D01*
X107067D01*
X107153Y56006D01*
X107239Y56092D01*
X85985Y60413D02*
Y59513D01*
X86173Y60113D02*
Y59513D01*
Y59942D02*
X86302Y60070D01*
X86388Y60113D01*
X86516D01*
X86602Y60070D01*
X86645Y59942D01*
Y59513D01*
X87009Y60413D02*
Y59685D01*
X87052Y59556D01*
X87138Y59513D01*
X87223D01*
X86880Y60113D02*
X87180D01*
X87352Y59856D02*
X87866D01*
Y59942D01*
X87823Y60027D01*
X87780Y60070D01*
X87695Y60113D01*
X87566D01*
X87480Y60070D01*
X87395Y59984D01*
X87352Y59856D01*
Y59770D01*
X87395Y59642D01*
X87480Y59556D01*
X87566Y59513D01*
X87695D01*
X87780Y59556D01*
X87866Y59642D01*
X88059Y60113D02*
Y59513D01*
Y59856D02*
X88102Y59984D01*
X88187Y60070D01*
X88273Y60113D01*
X88402D01*
X88954Y59984D02*
X88911Y60070D01*
X88783Y60113D01*
X88654D01*
X88526Y60070D01*
X88483Y59984D01*
X88526Y59899D01*
X88612Y59856D01*
X88826Y59813D01*
X88911Y59770D01*
X88954Y59685D01*
Y59642D01*
X88911Y59556D01*
X88783Y59513D01*
X88654D01*
X88526Y59556D01*
X88483Y59642D01*
X89229Y60413D02*
X89271Y60370D01*
X89314Y60413D01*
X89271Y60456D01*
X89229Y60413D01*
X89271Y60113D02*
Y59513D01*
X89473Y60413D02*
Y59513D01*
X90685Y52988D02*
Y52088D01*
X91473Y52859D02*
X91388Y52945D01*
X91259Y52988D01*
X91088D01*
X90959Y52945D01*
X90873Y52859D01*
Y52774D01*
X90916Y52688D01*
X90959Y52645D01*
X91045Y52602D01*
X91302Y52517D01*
X91388Y52474D01*
X91431Y52431D01*
X91473Y52345D01*
Y52217D01*
X91388Y52131D01*
X91259Y52088D01*
X91088D01*
X90959Y52131D01*
X90873Y52217D01*
X91675Y52988D02*
Y52088D01*
X92189D01*
X92844Y52688D02*
X92802Y52559D01*
X92716Y52474D01*
X92587Y52431D01*
X92545D01*
X92416Y52474D01*
X92330Y52559D01*
X92287Y52688D01*
Y52731D01*
X92330Y52859D01*
X92416Y52945D01*
X92545Y52988D01*
X92587D01*
X92716Y52945D01*
X92802Y52859D01*
X92844Y52688D01*
Y52474D01*
X92802Y52260D01*
X92716Y52131D01*
X92587Y52088D01*
X92502D01*
X92373Y52131D01*
X92330Y52217D01*
X93517Y52988D02*
X93089Y52388D01*
X93731D01*
X93517Y52988D02*
Y52088D01*
X93933Y52774D02*
Y52817D01*
X93976Y52902D01*
X94019Y52945D01*
X94104Y52988D01*
X94276D01*
X94361Y52945D01*
X94404Y52902D01*
X94447Y52817D01*
Y52731D01*
X94404Y52645D01*
X94318Y52517D01*
X93890Y52088D01*
X94490D01*
X94948Y52988D02*
X94820Y52945D01*
X94734Y52817D01*
X94691Y52602D01*
Y52474D01*
X94734Y52260D01*
X94820Y52131D01*
X94948Y52088D01*
X95034D01*
X95163Y52131D01*
X95248Y52260D01*
X95291Y52474D01*
Y52602D01*
X95248Y52817D01*
X95163Y52945D01*
X95034Y52988D01*
X94948D01*
X95578D02*
X96050D01*
X95792Y52645D01*
X95921D01*
X96007Y52602D01*
X96050Y52559D01*
X96092Y52431D01*
Y52345D01*
X96050Y52217D01*
X95964Y52131D01*
X95835Y52088D01*
X95707D01*
X95578Y52131D01*
X95535Y52174D01*
X95492Y52260D01*
X96851Y52988D02*
X96294D01*
Y52088D01*
X96851D01*
X96294Y52559D02*
X96637D01*
X97001Y52988D02*
X97344Y52088D01*
X97686Y52988D02*
X97344Y52088D01*
X98488D02*
X98145Y52988D01*
X97802Y52088D01*
X97931Y52388D02*
X98359D01*
X98698Y52988D02*
Y52088D01*
X99212D01*
X99310Y52817D02*
X99396Y52859D01*
X99524Y52988D01*
Y52088D01*
X100570Y52988D02*
X99970Y52088D01*
Y52988D02*
X100570D01*
X99970Y52088D02*
X100570D01*
D45*
X90876Y68153D02*
X90476D01*
X90876Y68553D01*
Y68653D01*
X90776Y68753D01*
X90576D01*
X90476Y68653D01*
X91475Y68753D02*
X91076D01*
Y68453D01*
X91276Y68553D01*
X91376D01*
X91475Y68453D01*
Y68253D01*
X91376Y68153D01*
X91176D01*
X91076Y68253D01*
X91675Y68653D02*
X91775Y68753D01*
X91975D01*
X92075Y68653D01*
Y68253D01*
X91975Y68153D01*
X91775D01*
X91675Y68253D01*
Y68653D01*
X92275D02*
X92375Y68753D01*
X92575D01*
X92675Y68653D01*
Y68253D01*
X92575Y68153D01*
X92375D01*
X92275Y68253D01*
Y68653D01*
X93675Y68153D02*
X93475Y68353D01*
Y68553D01*
X93675Y68753D01*
X93975Y68153D02*
Y68553D01*
X94075D01*
X94175Y68453D01*
Y68153D01*
Y68453D01*
X94275Y68553D01*
X94375Y68453D01*
Y68153D01*
X94574D02*
X94774D01*
X94674D01*
Y68553D01*
X94574D01*
X95074Y68153D02*
X95274D01*
X95174D01*
Y68753D01*
X95074D01*
X95574Y68153D02*
X95774Y68353D01*
Y68553D01*
X95574Y68753D01*
X78045Y84504D02*
X77945Y84604D01*
Y84804D01*
X78045Y84904D01*
X78145D01*
X78245Y84804D01*
Y84704D01*
Y84804D01*
X78345Y84904D01*
X78445D01*
X78545Y84804D01*
Y84604D01*
X78445Y84504D01*
X77945Y85504D02*
Y85104D01*
X78245D01*
X78145Y85304D01*
Y85404D01*
X78245Y85504D01*
X78445D01*
X78545Y85404D01*
Y85204D01*
X78445Y85104D01*
X78045Y85704D02*
X77945Y85804D01*
Y86004D01*
X78045Y86103D01*
X78445D01*
X78545Y86004D01*
Y85804D01*
X78445Y85704D01*
X78045D01*
Y86303D02*
X77945Y86403D01*
Y86603D01*
X78045Y86703D01*
X78445D01*
X78545Y86603D01*
Y86403D01*
X78445Y86303D01*
X78045D01*
X78545Y87703D02*
X78345Y87503D01*
X78145D01*
X77945Y87703D01*
X78545Y88003D02*
X78145D01*
Y88103D01*
X78245Y88203D01*
X78545D01*
X78245D01*
X78145Y88303D01*
X78245Y88403D01*
X78545D01*
Y88603D02*
Y88803D01*
Y88703D01*
X78145D01*
Y88603D01*
X78545Y89103D02*
Y89302D01*
Y89202D01*
X77945D01*
Y89103D01*
X78545Y89602D02*
X78345Y89802D01*
X78145D01*
X77945Y89602D01*
D46*
X106685Y53288D02*
Y52838D01*
Y53288D02*
X106835D01*
X106899Y53267D01*
X106942Y53224D01*
X106963Y53181D01*
X106985Y53117D01*
Y53010D01*
X106963Y52945D01*
X106942Y52902D01*
X106899Y52860D01*
X106835Y52838D01*
X106685D01*
X107428D02*
X107257Y53288D01*
X107086Y52838D01*
X107150Y52988D02*
X107364D01*
X107683Y53288D02*
Y52838D01*
X107533Y53288D02*
X107833D01*
X108165D02*
X107887D01*
Y52838D01*
X108165D01*
X107887Y53074D02*
X108058D01*
X108262Y53138D02*
X108240Y53117D01*
X108262Y53095D01*
X108283Y53117D01*
X108262Y53138D01*
Y52881D02*
X108240Y52860D01*
X108262Y52838D01*
X108283Y52860D01*
X108262Y52881D01*
X102060Y53288D02*
Y52838D01*
Y53288D02*
X102253D01*
X102317Y53267D01*
X102338Y53245D01*
X102360Y53202D01*
Y53159D01*
X102338Y53117D01*
X102317Y53095D01*
X102253Y53074D01*
X102060D01*
X102210D02*
X102360Y52838D01*
X102739Y53288D02*
X102461D01*
Y52838D01*
X102739D01*
X102461Y53074D02*
X102632D01*
X102814Y53288D02*
X102985Y52838D01*
X103157Y53288D02*
X102985Y52838D01*
X103236Y53138D02*
X103215Y53117D01*
X103236Y53095D01*
X103258Y53117D01*
X103236Y53138D01*
Y52881D02*
X103215Y52860D01*
X103236Y52838D01*
X103258Y52860D01*
X103236Y52881D01*
X75685Y55802D02*
X75878D01*
X75942Y55824D01*
X75963Y55845D01*
X75985Y55888D01*
Y55952D01*
X75963Y55995D01*
X75942Y56017D01*
X75878Y56038D01*
X75685D01*
Y55588D01*
X76086Y56038D02*
Y55588D01*
X76386Y56038D02*
Y55588D01*
X76086Y55824D02*
X76386D01*
X76638Y56038D02*
X76595Y56017D01*
X76553Y55974D01*
X76531Y55931D01*
X76510Y55867D01*
Y55760D01*
X76531Y55695D01*
X76553Y55652D01*
X76595Y55610D01*
X76638Y55588D01*
X76724D01*
X76767Y55610D01*
X76810Y55652D01*
X76831Y55695D01*
X76853Y55760D01*
Y55867D01*
X76831Y55931D01*
X76810Y55974D01*
X76767Y56017D01*
X76724Y56038D01*
X76638D01*
X76958D02*
Y55588D01*
Y56038D02*
X77257Y55588D01*
Y56038D02*
Y55588D01*
X77660Y56038D02*
X77382D01*
Y55588D01*
X77660D01*
X77382Y55824D02*
X77553D01*
X77757Y55888D02*
X77735Y55867D01*
X77757Y55845D01*
X77778Y55867D01*
X77757Y55888D01*
Y55631D02*
X77735Y55610D01*
X77757Y55588D01*
X77778Y55610D01*
X77757Y55631D01*
X75685Y52052D02*
X75878D01*
X75942Y52074D01*
X75963Y52095D01*
X75985Y52138D01*
Y52202D01*
X75963Y52245D01*
X75942Y52267D01*
X75878Y52288D01*
X75685D01*
Y51838D01*
X76086Y52288D02*
Y51838D01*
X76386Y52288D02*
Y51838D01*
X76086Y52074D02*
X76386D01*
X76638Y52288D02*
X76595Y52267D01*
X76553Y52224D01*
X76531Y52181D01*
X76510Y52117D01*
Y52010D01*
X76531Y51945D01*
X76553Y51902D01*
X76595Y51860D01*
X76638Y51838D01*
X76724D01*
X76767Y51860D01*
X76810Y51902D01*
X76831Y51945D01*
X76853Y52010D01*
Y52117D01*
X76831Y52181D01*
X76810Y52224D01*
X76767Y52267D01*
X76724Y52288D01*
X76638D01*
X76958D02*
Y51838D01*
Y52288D02*
X77257Y51838D01*
Y52288D02*
Y51838D01*
X77660Y52288D02*
X77382D01*
Y51838D01*
X77660D01*
X77382Y52074D02*
X77553D01*
X77757Y52138D02*
X77735Y52117D01*
X77757Y52095D01*
X77778Y52117D01*
X77757Y52138D01*
Y51881D02*
X77735Y51860D01*
X77757Y51838D01*
X77778Y51860D01*
X77757Y51881D01*
X94085Y50513D02*
Y50063D01*
X94342D01*
X94734D02*
X94563Y50513D01*
X94391Y50063D01*
X94456Y50213D02*
X94670D01*
X94839Y50513D02*
X95010Y50299D01*
Y50063D01*
X95182Y50513D02*
X95010Y50299D01*
X95518Y50513D02*
X95240D01*
Y50063D01*
X95518D01*
X95240Y50299D02*
X95411D01*
X95593Y50513D02*
Y50063D01*
Y50513D02*
X95786D01*
X95850Y50492D01*
X95872Y50470D01*
X95893Y50427D01*
Y50384D01*
X95872Y50342D01*
X95850Y50320D01*
X95786Y50299D01*
X95593D01*
X95743D02*
X95893Y50063D01*
X96015Y50363D02*
X95994Y50342D01*
X96015Y50320D01*
X96037Y50342D01*
X96015Y50363D01*
Y50106D02*
X95994Y50085D01*
X96015Y50063D01*
X96037Y50085D01*
X96015Y50106D01*
X75963Y57913D02*
X75685D01*
Y57463D01*
X75963D01*
X75685Y57699D02*
X75856D01*
X76038Y57913D02*
Y57463D01*
Y57913D02*
X76338Y57463D01*
Y57913D02*
Y57463D01*
X76784Y57806D02*
X76763Y57849D01*
X76720Y57892D01*
X76677Y57913D01*
X76591D01*
X76548Y57892D01*
X76505Y57849D01*
X76484Y57806D01*
X76463Y57742D01*
Y57635D01*
X76484Y57570D01*
X76505Y57527D01*
X76548Y57485D01*
X76591Y57463D01*
X76677D01*
X76720Y57485D01*
X76763Y57527D01*
X76784Y57570D01*
Y57635D01*
X76677D02*
X76784D01*
X76887Y57913D02*
Y57463D01*
X76981Y57913D02*
Y57463D01*
Y57913D02*
X77281Y57463D01*
Y57913D02*
Y57463D01*
X77684Y57913D02*
X77405D01*
Y57463D01*
X77684D01*
X77405Y57699D02*
X77577D01*
X78037Y57913D02*
X77759D01*
Y57463D01*
X78037D01*
X77759Y57699D02*
X77930D01*
X78112Y57913D02*
Y57463D01*
Y57913D02*
X78305D01*
X78369Y57892D01*
X78391Y57870D01*
X78412Y57827D01*
Y57784D01*
X78391Y57742D01*
X78369Y57720D01*
X78305Y57699D01*
X78112D01*
X78262D02*
X78412Y57463D01*
X78534Y57763D02*
X78513Y57742D01*
X78534Y57720D01*
X78556Y57742D01*
X78534Y57763D01*
Y57506D02*
X78513Y57485D01*
X78534Y57463D01*
X78556Y57485D01*
X78534Y57506D01*
X84685Y53052D02*
X84878D01*
X84942Y53074D01*
X84963Y53095D01*
X84985Y53138D01*
Y53202D01*
X84963Y53245D01*
X84942Y53267D01*
X84878Y53288D01*
X84685D01*
Y52838D01*
X85428D02*
X85257Y53288D01*
X85086Y52838D01*
X85150Y52988D02*
X85364D01*
X85533Y53288D02*
Y52838D01*
Y53288D02*
X85726D01*
X85790Y53267D01*
X85812Y53245D01*
X85833Y53202D01*
Y53159D01*
X85812Y53117D01*
X85790Y53095D01*
X85726Y53074D01*
X85533D01*
X85683D02*
X85833Y52838D01*
X86084Y53288D02*
Y52838D01*
X85934Y53288D02*
X86234D01*
X86641D02*
Y52838D01*
Y53288D02*
X86941Y52838D01*
Y53288D02*
Y52838D01*
X87194Y53288D02*
X87151Y53267D01*
X87108Y53224D01*
X87087Y53181D01*
X87065Y53117D01*
Y53010D01*
X87087Y52945D01*
X87108Y52902D01*
X87151Y52860D01*
X87194Y52838D01*
X87279D01*
X87322Y52860D01*
X87365Y52902D01*
X87387Y52945D01*
X87408Y53010D01*
Y53117D01*
X87387Y53181D01*
X87365Y53224D01*
X87322Y53267D01*
X87279Y53288D01*
X87194D01*
X87534Y52881D02*
X87513Y52860D01*
X87534Y52838D01*
X87556Y52860D01*
X87534Y52881D01*
X87676Y53138D02*
X87654Y53117D01*
X87676Y53095D01*
X87697Y53117D01*
X87676Y53138D01*
Y52881D02*
X87654Y52860D01*
X87676Y52838D01*
X87697Y52860D01*
X87676Y52881D01*
X84710Y58038D02*
Y57588D01*
X84560Y58038D02*
X84860D01*
X84913D02*
Y57588D01*
X85158Y58038D02*
Y57588D01*
X85008Y58038D02*
X85308D01*
X85361D02*
Y57588D01*
X85618D01*
X85946Y58038D02*
X85668D01*
Y57588D01*
X85946D01*
X85668Y57824D02*
X85839D01*
X86042Y57888D02*
X86021Y57867D01*
X86042Y57845D01*
X86064Y57867D01*
X86042Y57888D01*
Y57631D02*
X86021Y57610D01*
X86042Y57588D01*
X86064Y57610D01*
X86042Y57631D01*
X75963Y54113D02*
X75685D01*
Y53663D01*
X75963D01*
X75685Y53899D02*
X75856D01*
X76038Y54113D02*
Y53663D01*
Y54113D02*
X76338Y53663D01*
Y54113D02*
Y53663D01*
X76784Y54006D02*
X76763Y54049D01*
X76720Y54092D01*
X76677Y54113D01*
X76591D01*
X76548Y54092D01*
X76505Y54049D01*
X76484Y54006D01*
X76463Y53942D01*
Y53835D01*
X76484Y53770D01*
X76505Y53727D01*
X76548Y53685D01*
X76591Y53663D01*
X76677D01*
X76720Y53685D01*
X76763Y53727D01*
X76784Y53770D01*
Y53835D01*
X76677D02*
X76784D01*
X76887Y54113D02*
Y53663D01*
X76981Y54113D02*
Y53663D01*
Y54113D02*
X77281Y53663D01*
Y54113D02*
Y53663D01*
X77684Y54113D02*
X77405D01*
Y53663D01*
X77684D01*
X77405Y53899D02*
X77577D01*
X78037Y54113D02*
X77759D01*
Y53663D01*
X78037D01*
X77759Y53899D02*
X77930D01*
X78112Y54113D02*
Y53663D01*
Y54113D02*
X78305D01*
X78369Y54092D01*
X78391Y54070D01*
X78412Y54027D01*
Y53984D01*
X78391Y53942D01*
X78369Y53920D01*
X78305Y53899D01*
X78112D01*
X78262D02*
X78412Y53663D01*
X78534Y53963D02*
X78513Y53942D01*
X78534Y53920D01*
X78556Y53942D01*
X78534Y53963D01*
Y53706D02*
X78513Y53685D01*
X78534Y53663D01*
X78556Y53685D01*
X78534Y53706D01*
X75685Y50513D02*
Y50063D01*
Y50513D02*
X75963D01*
X75685Y50299D02*
X75856D01*
X76015Y50513D02*
Y50063D01*
X76109Y50513D02*
Y50063D01*
X76366D01*
X76694Y50513D02*
X76416D01*
Y50063D01*
X76694D01*
X76416Y50299D02*
X76587D01*
X77123Y50513D02*
Y50063D01*
Y50513D02*
X77422Y50063D01*
Y50513D02*
Y50063D01*
X77889D02*
X77718Y50513D01*
X77547Y50063D01*
X77611Y50213D02*
X77825D01*
X77994Y50513D02*
Y50063D01*
Y50513D02*
X78166Y50063D01*
X78337Y50513D02*
X78166Y50063D01*
X78337Y50513D02*
Y50063D01*
X78744Y50513D02*
X78466D01*
Y50063D01*
X78744D01*
X78466Y50299D02*
X78637D01*
X78841Y50363D02*
X78819Y50342D01*
X78841Y50320D01*
X78862Y50342D01*
X78841Y50363D01*
Y50106D02*
X78819Y50085D01*
X78841Y50063D01*
X78862Y50085D01*
X78841Y50106D01*
X112606Y50406D02*
X112585Y50449D01*
X112542Y50492D01*
X112499Y50513D01*
X112413D01*
X112371Y50492D01*
X112328Y50449D01*
X112306Y50406D01*
X112285Y50342D01*
Y50235D01*
X112306Y50170D01*
X112328Y50127D01*
X112371Y50085D01*
X112413Y50063D01*
X112499D01*
X112542Y50085D01*
X112585Y50127D01*
X112606Y50170D01*
Y50235D01*
X112499D02*
X112606D01*
X112988Y50513D02*
X112709D01*
Y50063D01*
X112988D01*
X112709Y50299D02*
X112881D01*
X113063Y50513D02*
Y50063D01*
Y50513D02*
X113255D01*
X113320Y50492D01*
X113341Y50470D01*
X113363Y50427D01*
Y50384D01*
X113341Y50342D01*
X113320Y50320D01*
X113255Y50299D01*
X113063D01*
X113213D02*
X113363Y50063D01*
X113463Y50513D02*
Y50063D01*
Y50513D02*
X113656D01*
X113720Y50492D01*
X113742Y50470D01*
X113763Y50427D01*
Y50384D01*
X113742Y50342D01*
X113720Y50320D01*
X113656Y50299D01*
X113463D02*
X113656D01*
X113720Y50277D01*
X113742Y50256D01*
X113763Y50213D01*
Y50149D01*
X113742Y50106D01*
X113720Y50085D01*
X113656Y50063D01*
X113463D01*
X114142Y50513D02*
X113864D01*
Y50063D01*
X114142D01*
X113864Y50299D02*
X114035D01*
X114217Y50513D02*
Y50063D01*
Y50513D02*
X114410D01*
X114474Y50492D01*
X114496Y50470D01*
X114517Y50427D01*
Y50384D01*
X114496Y50342D01*
X114474Y50320D01*
X114410Y50299D01*
X114217D01*
X114367D02*
X114517Y50063D01*
X114639Y50363D02*
X114618Y50342D01*
X114639Y50320D01*
X114661Y50342D01*
X114639Y50363D01*
Y50106D02*
X114618Y50085D01*
X114639Y50063D01*
X114661Y50085D01*
X114639Y50106D01*
D47*
X99635Y73154D02*
D03*
X98635D02*
D03*
D48*
X97635D02*
D03*
D49*
X99465Y94503D02*
D03*
Y94113D02*
D03*
Y93713D02*
D03*
X98825D02*
D03*
Y94103D02*
D03*
Y94503D02*
D03*
X98815Y96113D02*
D03*
X98425D02*
D03*
X98025D02*
D03*
Y96753D02*
D03*
X98415D02*
D03*
X98815D02*
D03*
X101415Y93223D02*
D03*
Y93613D02*
D03*
Y94013D02*
D03*
X102055D02*
D03*
Y93623D02*
D03*
Y93223D02*
D03*
X101415Y94423D02*
D03*
Y94813D02*
D03*
Y95213D02*
D03*
X102055D02*
D03*
Y94823D02*
D03*
Y94423D02*
D03*
X101405Y95623D02*
D03*
Y96013D02*
D03*
Y96413D02*
D03*
X102045D02*
D03*
Y96023D02*
D03*
Y95623D02*
D03*
X101695Y74893D02*
D03*
X98545Y75263D02*
D03*
X87405Y97133D02*
D03*
X88205Y97733D02*
D03*
X87405D02*
D03*
X86605D02*
D03*
X88205Y97133D02*
D03*
X86605D02*
D03*
X87435Y95203D02*
D03*
X88235Y95803D02*
D03*
X87435D02*
D03*
X86635D02*
D03*
X88235Y95203D02*
D03*
X86635D02*
D03*
X84525Y95483D02*
D03*
Y94883D02*
D03*
Y93683D02*
D03*
Y91883D02*
D03*
Y92483D02*
D03*
Y93083D02*
D03*
Y94283D02*
D03*
X88765Y95433D02*
D03*
Y94833D02*
D03*
Y93633D02*
D03*
Y91833D02*
D03*
Y92433D02*
D03*
Y93033D02*
D03*
Y94233D02*
D03*
X101995Y100513D02*
D03*
Y101713D02*
D03*
Y101113D02*
D03*
X100585Y90833D02*
D03*
X100035Y91863D02*
D03*
X102135Y84133D02*
D03*
Y85133D02*
D03*
Y86213D02*
D03*
X92945Y94733D02*
D03*
X93745Y95333D02*
D03*
X92945D02*
D03*
X92145D02*
D03*
X92945Y93533D02*
D03*
Y92933D02*
D03*
X93745D02*
D03*
Y94133D02*
D03*
Y94733D02*
D03*
X92145D02*
D03*
Y93533D02*
D03*
X93745Y91733D02*
D03*
X92945Y92333D02*
D03*
Y91733D02*
D03*
X92145D02*
D03*
Y92333D02*
D03*
Y92933D02*
D03*
X93745Y92333D02*
D03*
Y93533D02*
D03*
X92945Y94133D02*
D03*
X92145D02*
D03*
X85105Y89473D02*
D03*
X94615Y90133D02*
D03*
X97475Y82333D02*
D03*
X96565Y82393D02*
D03*
X86855Y103343D02*
D03*
X86145Y103313D02*
D03*
X86485Y103713D02*
D03*
X99005Y103123D02*
D03*
Y103753D02*
D03*
X99365Y103473D02*
D03*
X99665Y100503D02*
D03*
Y101703D02*
D03*
X99035Y101713D02*
D03*
Y100513D02*
D03*
X99665Y101103D02*
D03*
X99035Y101113D02*
D03*
X96855Y99872D02*
D03*
X97655Y100472D02*
D03*
Y101072D02*
D03*
X96855D02*
D03*
X96055D02*
D03*
Y99872D02*
D03*
X97655D02*
D03*
X96855Y100472D02*
D03*
X96055D02*
D03*
X96405Y84633D02*
D03*
X97615Y80813D02*
D03*
X96235Y80583D02*
D03*
X100177Y84646D02*
D03*
X100187Y85656D02*
D03*
X100189Y86724D02*
D03*
X98805Y80143D02*
D03*
X98745Y80693D02*
D03*
X91085Y83323D02*
D03*
Y84323D02*
D03*
X91105Y84913D02*
D03*
X92275Y82983D02*
D03*
X92435Y80133D02*
D03*
X92615Y77713D02*
D03*
X92055Y75613D02*
D03*
X92045Y73263D02*
D03*
X93565Y80653D02*
D03*
X94175Y79473D02*
D03*
X95425Y78493D02*
D03*
X95265Y77543D02*
D03*
X95535Y76673D02*
D03*
X96085Y76153D02*
D03*
X95245Y73573D02*
D03*
X96295Y75563D02*
D03*
X92945Y101533D02*
D03*
X92145D02*
D03*
X91345D02*
D03*
X92145Y99733D02*
D03*
Y99133D02*
D03*
X92945D02*
D03*
Y100333D02*
D03*
Y100933D02*
D03*
X92145D02*
D03*
X91345D02*
D03*
Y99733D02*
D03*
X92945Y97933D02*
D03*
X92145Y98533D02*
D03*
Y97933D02*
D03*
X91345D02*
D03*
Y98533D02*
D03*
Y99133D02*
D03*
X92945Y98533D02*
D03*
Y99733D02*
D03*
X92145Y100333D02*
D03*
X91345D02*
D03*
X87555Y73363D02*
D03*
X89795Y72253D02*
D03*
X89785Y74593D02*
D03*
X88215Y75613D02*
D03*
X89775Y76823D02*
D03*
X88965Y76463D02*
D03*
X89775Y79083D02*
D03*
X88905Y77783D02*
D03*
X88875Y78403D02*
D03*
X88765Y80073D02*
D03*
X87855Y80813D02*
D03*
X89715Y81793D02*
D03*
X87025Y83483D02*
D03*
X87225Y85803D02*
D03*
X86765Y88253D02*
D03*
X94508Y71837D02*
D03*
X98327Y75803D02*
D03*
X84945Y71473D02*
D03*
X87373Y70641D02*
D03*
X100275Y77313D02*
D03*
X100295Y76803D02*
D03*
X100775Y79944D02*
D03*
X97115Y91073D02*
D03*
X100255Y78853D02*
D03*
X85035Y102723D02*
D03*
X84025Y97093D02*
D03*
X103265Y82543D02*
D03*
X100735Y83573D02*
D03*
X98475Y83283D02*
D03*
X100805Y80594D02*
D03*
X98825Y94923D02*
D03*
Y95313D02*
D03*
Y95713D02*
D03*
X99465D02*
D03*
Y95323D02*
D03*
Y94923D02*
D03*
X88185Y72563D02*
D03*
Y71863D02*
D03*
X88075Y72213D02*
D03*
X91605Y73903D02*
D03*
X91635Y76333D02*
D03*
X88185Y74263D02*
D03*
X88075Y74613D02*
D03*
X88185Y74963D02*
D03*
X88075Y77013D02*
D03*
X88185Y77363D02*
D03*
Y76663D02*
D03*
Y79063D02*
D03*
X88075Y79413D02*
D03*
X88185Y79763D02*
D03*
X88175Y81473D02*
D03*
X88065Y81823D02*
D03*
X88175Y82173D02*
D03*
X89375Y84363D02*
D03*
X89485Y84013D02*
D03*
X89375Y83663D02*
D03*
X89385Y86763D02*
D03*
X89495Y86413D02*
D03*
X89385Y86063D02*
D03*
X89725Y89163D02*
D03*
X89835Y88813D02*
D03*
X89725Y88463D02*
D03*
X91635Y78733D02*
D03*
X91575Y81083D02*
D03*
X85885Y84793D02*
D03*
X85875Y87113D02*
D03*
X101865Y85633D02*
D03*
X101885Y84643D02*
D03*
X102135Y78853D02*
D03*
X101265Y89693D02*
D03*
X101245Y85993D02*
D03*
Y84943D02*
D03*
X102129Y81683D02*
D03*
X102125Y86703D02*
D03*
X102565Y76673D02*
D03*
X103095Y77503D02*
D03*
X97993Y80221D02*
D03*
X98375Y80773D02*
D03*
X97740Y88563D02*
D03*
X103095Y78533D02*
D03*
X85035Y103260D02*
D03*
X85835Y73113D02*
D03*
X85855Y74113D02*
D03*
X85815Y75113D02*
D03*
X85875Y76113D02*
D03*
Y77113D02*
D03*
X85865Y78113D02*
D03*
X85925Y79113D02*
D03*
X85915Y80113D02*
D03*
X85905Y81103D02*
D03*
X86635Y82113D02*
D03*
X86475Y71918D02*
D03*
X87145Y71241D02*
D03*
X99756Y88512D02*
D03*
X103755Y89833D02*
D03*
X103775Y89198D02*
D03*
X104525Y89208D02*
D03*
Y89813D02*
D03*
X89135Y91163D02*
D03*
X102465Y80153D02*
D03*
X101059Y72557D02*
D03*
X100165Y71863D02*
D03*
X101685Y73483D02*
D03*
X101055Y72177D02*
D03*
X101832Y77383D02*
D03*
X97757Y78266D02*
D03*
X98071Y77951D02*
D03*
X98386Y77636D02*
D03*
X97757D02*
D03*
X99016D02*
D03*
X98386Y78266D02*
D03*
X99016D02*
D03*
X98071Y77321D02*
D03*
X98701D02*
D03*
X97757Y77006D02*
D03*
X98386D02*
D03*
X99016D02*
D03*
X98701Y77951D02*
D03*
D50*
X102585Y89355D02*
D03*
Y91323D02*
D03*
X82859Y100685D02*
D03*
Y102653D02*
D03*
D51*
X104355Y83150D02*
D03*
Y76150D02*
D03*
Y78150D02*
D03*
Y79150D02*
D03*
Y80150D02*
D03*
Y81150D02*
D03*
Y82150D02*
D03*
Y77150D02*
D03*
D52*
X103855Y73083D02*
D03*
Y74083D02*
D03*
Y72083D02*
D03*
X98675Y71142D02*
D03*
X99675D02*
D03*
X102495Y99303D02*
D03*
X103495D02*
D03*
X82885Y70783D02*
D03*
Y71923D02*
D03*
X90015Y96563D02*
D03*
X89015D02*
D03*
D53*
X103855Y71083D02*
D03*
X97675Y71142D02*
D03*
X101495Y99303D02*
D03*
X81885Y70783D02*
D03*
Y71923D02*
D03*
X91015Y96563D02*
D03*
D54*
X83335Y89713D02*
D03*
Y88713D02*
D03*
Y87713D02*
D03*
Y86713D02*
D03*
D55*
X83605Y81113D02*
D03*
Y73113D02*
D03*
Y74113D02*
D03*
Y75113D02*
D03*
Y76113D02*
D03*
Y77113D02*
D03*
Y78113D02*
D03*
Y79113D02*
D03*
Y80113D02*
D03*
X81905D02*
D03*
Y79113D02*
D03*
Y78113D02*
D03*
Y77113D02*
D03*
Y76113D02*
D03*
Y75113D02*
D03*
Y74113D02*
D03*
Y73113D02*
D03*
Y81113D02*
D03*
D56*
X103965Y101083D02*
D03*
Y102423D02*
D03*
X103985Y94513D02*
D03*
Y95853D02*
D03*
D57*
X88440Y70753D02*
D03*
X82644Y83443D02*
D03*
D58*
X82508Y93593D02*
D03*
D59*
X104510Y85988D02*
D03*
X92840Y70913D02*
D03*
M02*
